<svg width="360" height="359" viewBox="0 0 360 359" fill="none" xmlns="http://www.w3.org/2000/svg">
<g opacity="0.1">
<path fill-rule="evenodd" clip-rule="evenodd" d="M180.002 358.785C279.018 358.785 359.286 278.516 359.286 179.5C359.286 80.4836 279.018 0.215088 180.002 0.215088C80.9853 0.215088 0.716797 80.4836 0.716797 179.5C0.716797 278.516 80.9853 358.785 180.002 358.785ZM180.002 347.013C272.517 347.013 347.515 272.015 347.515 179.5C347.515 86.9847 272.517 11.9863 180.002 11.9863C87.4864 11.9863 12.488 86.9847 12.488 179.5C12.488 272.015 87.4864 347.013 180.002 347.013Z" fill="black"/>
<path fill-rule="evenodd" clip-rule="evenodd" d="M180.001 317.805C255.534 317.805 316.925 257.254 318.283 182.045H314.04C314.055 181.198 314.063 180.35 314.063 179.5C314.063 178.649 314.055 177.801 314.04 176.954H304.73V174.409H309.723C309.657 172.703 309.558 171.006 309.427 169.318H313.682C313.554 167.611 313.394 165.914 313.203 164.227H317.472C309.871 95.0293 251.222 41.1943 180.001 41.1943C103.617 41.1943 41.6953 103.116 41.6953 179.5C41.6953 255.883 103.617 317.805 180.001 317.805ZM311.572 182.045C311.588 181.198 311.596 180.35 311.596 179.5H304.73V182.045H311.572ZM198.687 307.985C192.585 308.865 186.346 309.32 180.001 309.32C108.303 309.32 50.1803 251.197 50.1803 179.5C50.1803 167.542 51.7969 155.962 54.8235 144.967C54.1715 144.563 53.8562 143.751 54.108 142.991L57.5027 132.746C57.76 131.97 58.5239 131.504 59.3055 131.593C78.3689 83.6061 125.223 49.6793 180.001 49.6793C245.653 49.6793 299.924 98.4143 308.608 161.681H314.601C305.876 95.1236 248.939 43.7398 180.001 43.7398C105.023 43.7398 44.2408 104.522 44.2408 179.5C44.2408 254.478 105.023 315.259 180.001 315.259C253.274 315.259 312.989 257.21 315.667 184.591H309.723C307.475 242.882 266.792 291.317 212.3 305.27C212.156 306.057 211.544 306.713 210.711 306.874L200.706 308.803C199.906 308.957 199.125 308.612 198.687 307.985ZM198.18 305.644C192.242 306.492 186.173 306.93 180.001 306.93C109.622 306.93 52.5696 249.878 52.5696 179.5C52.5696 167.796 54.1473 156.461 57.1017 145.696C57.8312 145.716 58.5185 145.261 58.7598 144.533L62.1545 134.287C62.3904 133.576 62.1289 132.819 61.5593 132.394C80.2925 85.3326 126.262 52.0687 180.001 52.0687C244.332 52.0687 297.529 99.7383 306.196 161.681H300.037C291.458 103.389 241.427 58.5821 180.849 58.1672V60.4005C240.191 60.8145 289.22 104.627 297.779 161.681H292.002V159.984C292.002 159.248 291.534 158.622 290.879 158.387C282.134 112.179 245.219 75.9347 198.667 68.1859V66.07C246.625 73.9025 284.608 111.416 293.14 159.136H295.329C286.263 107.441 243.289 67.4179 190.183 62.8433V64.1041H190.181V72.5905H198.667V70.2924C244.037 77.9915 280.016 113.277 288.745 158.287H286.538C278.599 118.191 248.59 86.0332 209.698 75.0019V75.9829H209.697V80.2261H209.698V81.9747C243.784 92.3409 270.301 120.087 278.929 154.893H281.448C272.849 119.311 246.016 90.845 211.394 79.9386V78.1604C248.05 89.5032 276.207 120.187 283.941 158.287H282.669C281.732 158.287 280.972 159.047 280.972 159.984V161.681H276.729L261.456 144.711H252.971V142.166H244.486V150.651H252.971V147.257H261.456L276.729 164.227H280.972V166.772H275.881L266.547 157.439H252.971V154.893H244.486V163.378H252.971V159.984H266.547L275.881 169.318H280.972V171.863H252.971V169.318H244.486V177.803H252.971V174.409H280.972V176.954H275.881L266.547 186.288H252.971V183.742H244.486V192.227H252.971V188.833H266.547L275.881 179.5H280.972V182.045H276.729L266.547 199.015H252.971V195.621H244.486V204.106H252.971V201.561H266.547L276.729 184.591H280.972V187.985C280.972 188.922 281.732 189.682 282.669 189.682H285.58C281.414 233.424 250.68 269.419 209.696 281.349V279.579C248.672 268.032 278.131 234.337 283.491 193.076H281.023C275.633 233.576 246.458 266.56 208.001 277.524V278.774H207.999V283.017H208.001V284.464C251.245 272.957 283.883 235.437 288.137 189.682H290.312C285.21 245.67 238.446 289.618 181.282 290.266L179.152 290.653V292.347C179.335 292.348 179.517 292.349 179.7 292.349C179.8 292.35 179.9 292.35 180.001 292.35C240.62 292.35 290.076 244.553 292.738 184.591H293.926C294.22 185.098 294.768 185.439 295.396 185.439H298.957C295.876 248.178 244.249 298.156 180.85 298.599V296.589C242.566 296.151 292.932 247.966 296.848 187.136H294.689C290.758 247.054 240.913 294.437 180 294.437C179.815 294.437 179.63 294.437 179.444 294.436L179.319 294.435L179.152 294.434V296.589C179.152 296.589 179.152 296.589 179.153 296.589V298.599H179.152V300.832C179.435 300.834 179.717 300.835 180.001 300.835C245.021 300.835 298.096 249.692 301.193 185.439H303.033C303.661 185.439 304.209 185.098 304.503 184.591H307.332C305.087 241.723 265.228 289.192 211.831 302.923C211.398 302.269 210.601 301.904 209.783 302.061L199.778 303.991C198.927 304.154 198.307 304.835 198.18 305.644ZM293.699 182.045V179.5H292.002V182.045H293.699ZM293.699 176.954H292.823C292.804 176.103 292.776 175.255 292.738 174.409H293.699V176.954ZM293.926 171.863H292.596C292.54 171.012 292.473 170.163 292.398 169.318H307.275V171.863H304.503C304.209 171.356 303.661 171.015 303.033 171.015H295.396C294.768 171.015 294.22 171.356 293.926 171.863ZM310.988 166.772C310.907 165.921 310.817 165.073 310.719 164.227H292.002V166.772H310.988ZM313.849 187.136C309.891 257.624 251.478 313.562 180.001 313.562C105.96 313.562 45.9378 253.54 45.9378 179.5C45.9378 105.459 105.96 45.4368 180.001 45.4368C247.118 45.4368 302.716 94.759 312.527 159.136H310.03C300.242 96.1273 245.753 47.9043 180.001 47.9043C107.322 47.9043 48.4052 106.821 48.4052 179.5C48.4052 252.178 107.322 311.095 180.001 311.095C250.115 311.095 307.423 256.26 311.378 187.136H313.849ZM269.636 91.5487C287.367 109.617 299.678 133.024 303.936 159.136H301.593C297.361 133.68 285.329 110.861 268.035 93.2181C267.332 93.5377 266.476 93.4322 265.866 92.8815L258.305 86.0518C257.676 85.4839 257.492 84.6076 257.774 83.8602C236.56 66.588 209.489 56.2331 180.001 56.2331C179.433 56.2331 178.867 56.2369 178.302 56.2445V58.1759C178.303 58.1759 178.303 58.1759 178.304 58.1759V60.2855L178.426 60.4077C178.384 60.4082 178.343 60.4088 178.302 60.4094V62.4189C178.867 62.4108 179.433 62.4068 180.001 62.4068L180 64.5619C179.433 64.5619 178.867 64.566 178.302 64.5742V66.6618C178.867 66.6535 179.433 66.6493 180.001 66.6493L180 68.7263C179.433 68.7263 178.867 68.7306 178.302 68.7391V69.1978H178.103C179.058 69.246 179.836 69.9642 179.978 70.8918C179.985 70.8918 179.993 70.8918 180.001 70.8918V73.4373V75.1343V77.5803V79.3768V81.7234V83.6193V85.8664L180 87.5626C180 88.6672 179.105 89.5626 178 89.5626H176.06C174.955 89.5626 174.06 88.6672 174.06 87.5626V71.1953C174.06 70.125 174.901 69.2512 175.958 69.1978H175.756V68.8061C175.332 68.8221 174.908 68.8405 174.485 68.8612V66.7817C174.908 66.7614 175.332 66.7433 175.756 66.7276V64.6388C175.332 64.6542 174.908 64.6719 174.485 64.6919V62.5344C174.908 62.5148 175.332 62.4974 175.756 62.4823V60.4717C175.709 60.4734 175.662 60.475 175.615 60.4767L175.756 60.2882V56.3048C109.643 58.5419 56.734 112.842 56.734 179.5C56.734 244.726 107.395 298.12 171.516 302.479V302.532H172.338C172.91 302.567 173.483 302.598 174.058 302.625V289.802H174.27C173.209 289.752 172.365 288.877 172.365 287.804V271.437C172.365 270.332 173.26 269.437 174.365 269.437H176.305C177.41 269.437 178.305 270.332 178.305 271.437V287.804C178.305 288.877 177.461 289.752 176.4 289.802H176.604V290.222C176.605 290.222 176.606 290.222 176.607 290.222V292.3C176.606 292.3 176.605 292.3 176.604 292.3V294.388C176.605 294.388 176.606 294.388 176.607 294.388V296.544C176.606 296.544 176.605 296.544 176.604 296.544V298.554C176.605 298.554 176.606 298.554 176.607 298.554V300.788C176.606 300.788 176.605 300.788 176.604 300.788V302.72C177.732 302.751 178.865 302.766 180.001 302.766C245.514 302.766 299.091 251.657 303.034 187.136H305.35C301.403 252.935 246.791 305.077 180.001 305.077C178.865 305.077 177.732 305.062 176.604 305.032V305.077H174.058V304.939C107.462 301.837 54.4228 246.862 54.4228 179.5C54.4228 111.565 108.366 56.2303 175.756 53.9922V53.9223H178.302V53.9331C178.867 53.9256 179.433 53.9218 180.001 53.9218C210.079 53.9218 237.688 64.4968 259.312 82.1316C260.034 81.7484 260.948 81.8348 261.59 82.4145L269.152 89.2441C269.812 89.8409 269.982 90.7783 269.636 91.5487ZM171.516 294.129V296.29C171.516 296.29 171.515 296.29 171.515 296.29L171.516 298.304V300.543C108.463 296.187 58.6653 243.659 58.6653 179.5C58.6653 114.766 109.359 61.8721 173.213 58.351V60.5877C110.593 64.1061 60.8984 115.999 60.8984 179.5C60.8984 241.848 108.806 293.007 169.818 298.173V296.156C109.917 290.996 62.9078 240.738 62.9078 179.5C62.9078 123.271 102.542 76.2986 155.397 64.9961V64.9528H155.6C158.326 64.375 161.087 63.892 163.879 63.5075V64.9528H163.883V73.4392H155.397V71.4684C153.385 71.9246 151.394 72.4356 149.426 72.9996L145.212 73.8615V74.2991C101.076 88.8865 69.2272 130.474 69.2272 179.5C69.2272 227.895 100.262 269.042 143.515 284.124V285.138L162.182 288.956L171.516 290.653V292.036C113.153 287.697 67.1503 238.971 67.1503 179.5C67.1503 125.624 104.903 80.567 155.397 69.3392V67.2013C103.741 78.4666 65.0628 124.466 65.0628 179.5C65.0628 240.124 111.999 289.786 171.516 294.129ZM143.515 280.471V281.827C101.48 266.838 71.3928 226.682 71.3928 179.5C71.3928 131.684 102.292 91.0859 145.212 76.5829V79.2743C145.211 79.2748 145.209 79.2753 145.208 79.2757V81.0743C145.209 81.0738 145.211 81.0733 145.212 81.0729V83.6718C111.984 95.7374 86.8105 124.593 79.9478 159.984H81.7786C88.5733 125.592 112.981 97.5298 145.212 85.5858V88.0933C145.211 88.0938 145.209 88.0943 145.208 88.0948V90.127C145.209 90.1265 145.211 90.1259 145.212 90.1254V92.5422C119.533 102.825 99.4687 124.153 90.8959 150.651H117.212C117.212 149.713 117.971 148.954 118.909 148.954H135.879C136.816 148.954 137.576 149.713 137.576 150.651H151.152V153.196H137.576C137.576 154.133 136.816 154.893 135.879 154.893H118.909C117.971 154.893 117.212 154.133 117.212 153.196H87.7732C95.8364 124.87 116.597 101.892 143.511 90.8071V88.7596C113.426 100.869 90.7507 127.506 84.1722 159.984H117.212C117.212 159.047 117.971 158.287 118.909 158.287H135.879C136.816 158.287 137.576 159.047 137.576 159.984H151.152V162.53H137.576C137.576 163.467 136.816 164.227 135.879 164.227H118.909C117.971 164.227 117.212 163.467 117.212 162.53H77.0079C83.1073 125.23 108.98 94.5791 143.511 81.691V79.8812C105.958 93.6405 78.3534 128.028 74.4207 169.318H117.212C117.212 168.38 117.971 167.621 118.909 167.621H135.879C136.816 167.621 137.576 168.38 137.576 169.318H151.152V171.863H137.576C137.576 172.8 136.816 173.56 135.879 173.56H118.909C117.971 173.56 117.212 172.8 117.212 171.863H74.2089C74.0295 174.385 73.9382 176.932 73.9382 179.5C73.9382 224.617 102.109 263.154 141.82 278.482V276.66C103.066 261.419 75.6352 223.663 75.6352 179.5C75.6352 179.216 75.6364 178.934 75.6386 178.651H117.212C117.212 177.714 117.971 176.954 118.909 176.954H135.879C136.816 176.954 137.576 177.714 137.576 178.651H151.152V181.197H137.576C137.576 182.134 136.816 182.894 135.879 182.894H118.909C117.971 182.894 117.212 182.134 117.212 181.197H82.2388C82.9149 220.922 107.282 254.877 141.82 269.54V267.477C109.091 253.253 85.8478 221.301 84.2124 183.742H86.4618C88.1091 220.683 111.161 252.056 143.515 265.758V266.895H143.517V271.139H143.515V272.767C106.759 258.377 80.5846 222.887 79.8918 181.197H78.0951C78.7922 223.895 105.747 260.209 143.515 274.694V276.228H143.517V280.471H143.515ZM208.001 269.441V268.874C239.711 258.95 264.167 232.615 271.424 199.816L274.922 193.11C269.731 229.644 243.946 259.547 209.696 270.693V272.685C245.011 261.441 271.619 230.678 276.842 193.076H279.211C273.856 232.58 245.46 264.765 208.001 275.654V273.684H207.999V269.441H208.001ZM274.654 154.893H277.077C268.533 121.082 242.789 94.1179 209.698 83.8545V85.3165H209.697V89.5597H209.698V90.674C236.937 99.7769 258.6 121.059 268.223 148.056L272.225 153.186C263.658 123.101 240.766 99.0505 211.394 88.8769V86.8723C242.369 97.3669 266.377 122.962 274.654 154.893ZM167.273 78.5283H150.303V109.417H136.609V134.974H211.084V192.736C211.084 214.761 199.709 232.006 175.332 232.006C151.159 232.006 139.377 219.332 139.377 194.399H112.969C112.969 224.501 126.891 244.481 148.606 253.034V281.319H165.576V257.209C168.732 257.583 171.988 257.771 175.332 257.771C178.401 257.771 181.372 257.603 184.243 257.275V281.319H202.91V252.363C225.236 242.594 237.898 220.425 237.898 192.736V109.417H204.607V78.5283H185.94V109.417H167.273V78.5283ZM194.425 148.954H156.243V188.821C155.691 190.571 155.394 192.426 155.394 194.348C155.394 204.892 164.321 213.439 175.334 213.439C186.346 213.439 195.274 204.892 195.274 194.348C195.274 192.426 194.977 190.571 194.425 188.821V148.954Z" fill="black"/>
<path fill-rule="evenodd" clip-rule="evenodd" d="M89.1623 57.7282C89.1623 56.7672 88.3828 55.9878 87.4219 55.9878C86.4609 55.9878 85.6815 56.7672 85.6815 57.7282C85.6815 58.6891 86.4609 59.4685 87.4219 59.4685C88.3828 59.4685 89.1623 58.6891 89.1623 57.7282ZM48.1232 98.7151C49.0841 98.7151 49.8635 99.4945 49.8635 100.455C49.8635 101.416 49.0841 102.196 48.1232 102.196C47.1622 102.196 46.3828 101.416 46.3828 100.455C46.3828 99.4945 47.1622 98.7151 48.1232 98.7151ZM316.72 104.168C316.72 103.207 315.941 102.427 314.98 102.427C314.019 102.427 313.239 103.207 313.239 104.168C313.239 105.129 314.019 105.908 314.98 105.908C315.941 105.908 316.72 105.129 316.72 104.168ZM333.926 157.173C333.926 156.212 333.147 155.432 332.186 155.432C331.225 155.432 330.445 156.212 330.445 157.173C330.445 158.133 331.225 158.913 332.186 158.913C333.147 158.913 333.926 158.133 333.926 157.173ZM125.32 321.539C126.281 321.539 127.061 322.318 127.061 323.279C127.061 324.24 126.281 325.019 125.32 325.019C124.359 325.019 123.58 324.24 123.58 323.279C123.58 322.318 124.359 321.539 125.32 321.539ZM184.487 333.412C184.487 332.451 183.708 331.672 182.747 331.672C181.786 331.672 181.007 332.451 181.007 333.412C181.007 334.373 181.786 335.152 182.747 335.152C183.708 335.152 184.487 334.373 184.487 333.412Z" fill="black"/>
</g>
</svg>
