<svg width="110" height="109" viewBox="0 0 129 128" fill="none" xmlns="http://www.w3.org/2000/svg">
<path opacity="0.6" fill-rule="evenodd" clip-rule="evenodd" d="M64.1865 128C99.5327 128 128.186 99.3462 128.186 64C128.186 28.6538 99.5327 0 64.1865 0C40.4266 0 19.6907 12.9475 8.64951 32.1718L5.82027 37.7055C4.79921 39.9684 3.90587 42.3014 3.14947 44.6952C2.81815 45.7562 2.0673 48.3099 1.71443 50.0358C0.714125 54.5307 0.186523 59.2037 0.186523 64C0.186523 70.2788 1.0907 76.3464 2.77595 82.0798C3.19489 83.5909 4.17146 86.2698 4.60739 87.4205C5.58965 89.9173 6.72433 92.3374 7.99997 94.6694L11.1807 99.8775C22.6902 116.848 42.136 128 64.1865 128ZM64.1862 123.874C97.2079 123.874 123.977 97.1042 123.977 64.0825C123.977 31.0608 97.2079 4.29143 64.1862 4.29143C31.1645 4.29143 4.39509 31.0608 4.39509 64.0825C4.39509 97.1042 31.1645 123.874 64.1862 123.874Z" fill="#C5D82E"/>
<circle cx="63.729" cy="63.5425" r="55.9697" fill="#022426"/>
<path d="M108.876 66.1184C107.541 89.8895 87.8402 108.754 63.7332 108.754C38.7618 108.754 18.5185 88.5124 18.5185 63.5431C18.5185 38.5737 38.7618 18.3321 63.7332 18.3321C86.3697 18.3321 105.121 34.9654 108.43 56.6756H107.588C104.286 35.4268 85.9091 19.1642 63.7332 19.1642C39.2214 19.1642 19.3507 39.0333 19.3507 63.5431C19.3507 88.0528 39.2214 107.922 63.7332 107.922C87.3805 107.922 106.708 89.4296 108.042 66.1184H108.876Z" fill="#C5D82E"/>
<path d="M93.9282 33.8463C99.9275 39.9447 104.093 47.8522 105.532 56.6756H104.742C103.312 48.0714 99.2384 40.3606 93.3846 34.4053C93.1138 34.4913 92.8058 34.4352 92.5797 34.231L90.2551 32.1316C90.0223 31.9214 89.937 31.609 90.0055 31.3241C82.8445 25.4788 73.6983 21.973 63.7332 21.973C63.5419 21.973 63.3509 21.9743 63.1602 21.9769V22.6282C63.1599 22.6282 63.1604 22.6282 63.1602 22.6282L63.1609 23.3396L63.2021 23.3808C63.1881 23.381 63.1741 23.3812 63.1602 23.3814V24.0591C63.3508 24.0564 63.5419 24.055 63.7332 24.055L63.7332 24.7818C63.5419 24.7818 63.3508 24.7832 63.1602 24.7859V25.49C63.3508 25.4871 63.5419 25.4857 63.7332 25.4857L63.7332 26.1862C63.5418 26.1862 63.3508 26.1876 63.1602 26.1905V26.3459H62.767C63.151 26.3593 63.4799 26.5889 63.6361 26.9166C63.6685 26.9165 63.7008 26.9165 63.7332 26.9165V27.7749C63.7331 27.7749 63.7333 27.7749 63.7332 27.7749L63.733 28.3472C63.733 28.3472 63.7331 28.3472 63.733 28.3472L63.7332 29.1721C63.7331 29.1721 63.7333 29.1721 63.7332 29.1721L63.733 29.7779C63.733 29.7779 63.7331 29.7779 63.733 29.7779L63.7332 30.5693C63.7331 30.5693 63.7333 30.5693 63.7332 30.5693L63.733 31.2086C63.733 31.2086 63.7331 31.2086 63.733 31.2086L63.7332 31.9665C63.7331 31.9665 63.7333 31.9665 63.7332 31.9665L63.733 32.2122C63.733 32.7654 63.2845 33.2139 62.7313 33.2139C62.178 33.2139 61.7295 32.7654 61.7295 32.2122V27.3469C61.7295 26.8057 62.1589 26.3647 62.6956 26.3459H62.3015V26.2131C62.1585 26.2185 62.0157 26.2247 61.8731 26.2317V25.5304C62.0157 25.5235 62.1585 25.5174 62.3015 25.5122V24.8077C62.1585 24.8129 62.0157 24.8189 61.8731 24.8256V24.098C62.0157 24.0914 62.1585 24.0856 62.3015 24.0805V23.4024C62.2857 23.403 62.2698 23.4035 62.254 23.4041L62.3015 23.3408V21.9972C40.004 22.7517 22.1597 41.0637 22.1597 63.5431C22.1597 85.5398 39.2459 103.546 60.8715 105.016V105.034H61.1488C61.342 105.046 61.5356 105.057 61.7295 105.066V100.742H62.1238C61.5871 100.723 61.1577 100.282 61.1577 99.7406V94.8754C61.1577 94.3222 61.6062 93.8737 62.1594 93.8737C62.7127 93.8737 63.1612 94.3222 63.1612 94.8754V99.7406C63.1612 100.282 62.7318 100.723 62.195 100.742H62.5882V100.883C62.588 100.883 62.5883 100.883 62.5882 100.883L62.5885 101.584C62.5884 101.584 62.5886 101.584 62.5885 101.584L62.5882 102.288C62.588 102.288 62.5883 102.288 62.5882 102.288L62.5885 103.015C62.5884 103.015 62.5886 103.015 62.5885 103.015L62.5882 103.693C62.588 103.693 62.5883 103.693 62.5882 103.693L62.5885 104.446C62.5884 104.446 62.5886 104.446 62.5885 104.446L62.5882 105.098C62.9686 105.108 63.3503 105.113 63.7332 105.113C85.8287 105.113 103.898 87.8774 105.228 66.1184H106.009C104.678 88.3081 86.2593 105.893 63.7332 105.893C63.3503 105.893 62.9686 105.887 62.5882 105.877V105.893H61.7295V105.846C39.2689 104.8 21.3802 86.2604 21.3802 63.5431C21.3802 40.6332 39.5734 21.9722 62.3015 21.2173V21.1944H63.1602V21.1973C63.3509 21.1948 63.5419 21.1935 63.7332 21.1935C73.8976 21.1935 83.2257 24.7738 90.5249 30.742C90.8035 30.6403 91.1277 30.6923 91.3631 30.9049L93.6877 33.0044C93.9299 33.2231 94.0125 33.5525 93.9282 33.8463Z" fill="#C5D82E"/>
<path d="M60.8715 102.2V102.929C60.8714 102.929 60.8716 102.929 60.8715 102.929L60.8713 103.608C60.8712 103.608 60.8714 103.608 60.8713 103.608L60.8715 104.363C39.606 102.895 22.811 85.1799 22.811 63.5431C22.811 41.7124 39.9081 23.8747 61.4439 22.6872V23.4415C40.3243 24.6281 23.5642 42.1285 23.5642 63.5431C23.5642 84.5692 39.7217 101.822 60.2989 103.564V102.884C40.0965 101.144 24.2419 84.1947 24.2419 63.5431C24.2419 44.5806 37.6089 28.7399 55.4351 24.9282V24.9142H55.5009C56.4212 24.7191 57.3533 24.556 58.296 24.4262L58.2972 27.7761H55.4351V27.1109C54.7567 27.2648 54.0853 27.4371 53.4214 27.6273L52.0003 27.918V28.0655C37.1147 32.9849 26.3732 47.0097 26.3732 63.5431C26.3732 79.8638 36.8401 93.74 51.4279 98.8262V99.1681L57.7237 100.456L60.8715 101.028V101.494C41.1879 100.031 25.6727 83.599 25.6727 63.5431C25.6727 45.3744 38.4054 30.1794 55.4351 26.3929V25.6719C38.0134 29.471 24.9687 44.9838 24.9687 63.5431C24.9687 83.9879 40.7987 100.736 60.8715 102.2Z" fill="#C5D82E"/>
<path d="M51.4279 98.0517C37.2509 92.9968 27.1036 79.4548 27.1036 63.5431C27.1036 47.418 37.5248 33.7267 52.0003 28.8357V29.7434C51.9996 29.7436 51.999 29.7438 51.9983 29.744V30.3506C51.999 30.3503 51.9996 30.3501 52.0003 30.3499V31.2264C40.7935 35.2953 32.3034 45.0267 29.9889 56.9617H30.6063C32.898 45.3634 41.1297 35.8998 52.0003 31.8718V32.7174C51.9996 32.7177 51.999 32.7179 51.9983 32.7182V33.4035C51.999 33.4032 51.9996 33.403 52.0003 33.4028V34.2178C43.3395 37.6855 36.5726 44.8781 33.6813 53.8141H42.5567C42.5567 53.498 42.8129 53.2418 43.129 53.2418H48.8524C49.1685 53.2418 49.4247 53.498 49.4247 53.8141H54.0035V54.6725H49.4247C49.4247 54.9886 49.1685 55.2448 48.8524 55.2448H43.129C42.8129 55.2448 42.5567 54.9886 42.5567 54.6725H32.6281C35.3475 45.1201 42.3492 37.3711 51.4259 33.6329V32.9424C41.2796 37.0262 33.6323 46.0092 31.4136 56.9617H42.5567C42.5567 56.6456 42.8129 56.3894 43.129 56.3894H48.8524C49.1685 56.3894 49.4247 56.6456 49.4247 56.9617H54.0035V57.8201H49.4247C49.4247 58.1362 49.1685 58.3924 48.8524 58.3924H43.129C42.8129 58.3924 42.5567 58.1362 42.5567 57.8201H28.9974C31.0544 45.2416 39.7801 34.905 51.4259 30.5585V29.9482C38.7611 34.5885 29.4511 46.185 28.1248 60.1093H42.5567C42.5567 59.7932 42.8129 59.537 43.129 59.537H48.8524C49.1685 59.537 49.4247 59.7932 49.4247 60.1093H54.0035V60.9677H49.4247C49.4247 61.2838 49.1685 61.54 48.8524 61.54H43.129C42.8129 61.54 42.5567 61.2838 42.5567 60.9677H28.0534C27.9928 61.8183 27.9621 62.6771 27.9621 63.5431C27.9621 78.7582 37.463 91.7544 50.8561 96.9236V96.3092C37.786 91.1695 28.5344 78.4366 28.5344 63.5431C28.5344 63.4476 28.5348 63.3522 28.5355 63.2569H42.5567C42.5567 62.9408 42.8129 62.6846 43.129 62.6846H48.8524C49.1685 62.6846 49.4247 62.9408 49.4247 63.2569H54.0035V64.1153H49.4247C49.4247 64.4314 49.1685 64.6876 48.8524 64.6876H43.129C42.8129 64.6876 42.5567 64.4314 42.5567 64.1153H30.7616C30.9896 77.5122 39.2078 88.963 50.8561 93.9082V93.2121C39.8178 88.4154 31.9787 77.64 31.4272 64.9738H32.1858C32.7414 77.4316 40.5161 88.0118 51.4279 92.6326L51.4286 94.4478L51.4279 94.9962C39.0314 90.1435 30.2037 78.1749 29.97 64.1153H29.364C29.5991 78.515 38.6901 90.7614 51.4279 95.6461V98.0517Z" fill="#C5D82E"/>
<path d="M73.1768 93.6835C83.8715 90.3366 92.1198 81.4555 94.567 70.3944L95.747 68.1329C93.9961 80.4536 85.2997 90.5383 73.7482 94.2969V94.9687C85.6587 91.1769 94.6328 80.8025 96.3944 68.1214H97.1934C95.3873 81.4437 85.8105 92.2977 73.1768 95.9701V93.6835Z" fill="#C5D82E"/>
<path d="M95.6567 55.2448H96.4738C93.5923 43.8424 84.9097 34.7492 73.7491 31.288L73.7486 33.2125L73.7491 33.5878C82.936 36.6576 90.2421 43.8346 93.4876 52.939L94.8373 54.6691C91.9478 44.5233 84.2273 36.4125 74.3211 32.9816V32.3056C84.7678 35.8448 92.865 44.4764 95.6567 55.2448Z" fill="#C5D82E"/>
<path d="M59.4407 29.4918H53.7173V39.9087H49.0988V48.5274H74.2167V68.007C74.2167 75.4344 70.38 81.2503 62.1587 81.2503C54.0059 81.2503 50.0323 76.976 50.0323 68.5675H41.1258C41.1258 78.7194 45.8211 85.4572 53.1449 88.3418V97.8805H58.8683V89.7497C59.9328 89.8756 61.031 89.939 62.1587 89.939C63.1936 89.939 64.1958 89.8823 65.164 89.7718V97.8805H71.4598V88.1153C78.9895 84.8209 83.2601 77.3445 83.2601 68.007V39.9087H72.0321V29.4918H65.7364V39.9087H59.4407V29.4918Z" fill="#C5D82E"/>
<path d="M68.5981 53.2418H55.7205V66.6866C55.5343 67.2766 55.4343 67.9024 55.4343 68.5506C55.4343 72.1063 58.4452 74.9889 62.1593 74.9889C65.8734 74.9889 68.8842 72.1063 68.8842 68.5506C68.8842 67.9024 68.7842 67.2766 68.5981 66.6866V53.2418Z" fill="#C5D82E"/>
<path fill-rule="evenodd" clip-rule="evenodd" d="M63.7332 110.185C89.208 110.185 109.913 89.7649 110.371 64.4015H108.94C108.945 64.116 108.948 63.8298 108.948 63.5431C108.948 63.2563 108.945 62.9701 108.94 62.6846H105.8V61.8262H107.484C107.462 61.251 107.429 60.6786 107.384 60.1093H108.819C108.776 59.534 108.722 58.9616 108.658 58.3924H110.098C107.534 35.0565 87.7539 16.9014 63.7332 16.9014C37.9716 16.9014 17.0876 37.7836 17.0876 63.5431C17.0876 89.3025 37.9716 110.185 63.7332 110.185ZM108.108 64.4015C108.113 64.116 108.116 63.8298 108.116 63.5431H105.8V64.4015H108.108ZM70.095 106.864C68.0181 107.167 65.8939 107.323 63.7332 107.323C39.552 107.323 19.9493 87.7222 19.9493 63.5431C19.9493 59.5106 20.4946 55.6055 21.5153 51.8973C21.2954 51.7611 21.1891 51.4874 21.274 51.2311L22.4189 47.776C22.5057 47.5142 22.7633 47.357 23.027 47.3873C29.4564 31.2042 45.2585 19.7628 63.7332 19.7628C85.8756 19.7628 104.179 36.1981 107.108 57.534H109.129C106.187 35.0883 86.9837 17.7598 63.7332 17.7598C38.4457 17.7598 17.9462 38.2577 17.9462 63.5431C17.9462 88.8284 38.4457 109.326 63.7332 109.326C88.4458 109.326 108.586 89.7498 109.489 65.2599H107.484C106.725 84.9384 92.9766 101.286 74.5695 105.972C74.4793 106.249 74.2457 106.469 73.9399 106.528L70.8641 107.121C70.5701 107.178 70.2825 107.071 70.095 106.864ZM69.9144 106.076C67.896 106.367 65.8321 106.518 63.7332 106.518C39.9971 106.518 20.7552 87.2772 20.7552 63.5431C20.7552 59.5962 21.2873 55.7736 22.2837 52.1431C22.5297 52.15 22.7615 51.9965 22.8429 51.7509L23.9878 48.2958C24.0674 48.0558 23.9792 47.8005 23.7871 47.6571C30.1051 31.7865 45.609 20.5686 63.7332 20.5686C85.4298 20.5686 103.371 36.6446 106.294 57.534H104.217C101.324 37.8757 84.4501 22.7652 64.0194 22.6253V23.3784C84.0334 23.518 100.569 38.2932 103.456 57.534H101.508V56.9617C101.508 56.7136 101.35 56.5023 101.129 56.423C98.1792 40.8396 85.7284 28.6164 70.0273 26.0037V25.2901C86.2027 27.931 99.0136 40.5823 101.891 56.6756H102.629C99.572 39.2421 85.0783 25.7449 67.1672 24.2022V24.6283H67.1652V27.4902H70.0273V26.7141C85.3296 29.31 97.4649 41.2097 100.409 56.3894H99.6645C96.9871 42.8675 86.866 32.0227 73.7491 28.3025L73.7486 30.065L73.7491 30.654C85.245 34.1499 94.1883 43.5069 97.0985 55.2448H97.948C95.0476 43.2453 85.9977 33.6453 74.3211 29.9673V29.3676C86.6839 33.1928 96.1804 43.5406 98.7888 56.3894H98.3597C98.0436 56.3894 97.7873 56.6456 97.7873 56.9617V57.534H96.3565L91.2054 51.8111H88.3437V50.9527H85.482V53.8141H88.3437V52.6695H91.2054L96.3565 58.3924H97.7873V59.2509H96.0703L92.9224 56.1033H88.3437V55.2448H85.482V58.1063H88.3437V56.9617H92.9224L96.0703 60.1093H97.7873V60.9677H88.3437V60.1093H85.482V62.9708H88.3437V61.8262H97.7873V62.6846H96.0703L92.9224 65.8322H88.3437V64.9738H85.482V67.8352H88.3437V66.6907H92.9224L96.0703 63.5431H97.7873V64.4015H96.3565L92.9224 70.1244H88.3437V68.9798H85.482V71.8413H88.3437V70.9828H92.9224L96.3565 65.2599H97.7873V66.4045C97.7873 66.7206 98.0436 66.9768 98.3597 66.9768H99.3416C97.9365 81.7286 87.5707 93.8676 73.7482 97.8904V97.2938C86.8935 93.3998 96.8292 82.0363 98.6369 68.1214H97.8047C95.9866 81.7797 86.1469 92.9031 73.1768 96.6007L73.1758 98.4535L73.1768 98.9409C87.7615 95.0606 98.7692 82.4074 100.204 66.9768H100.937C99.2167 85.8581 83.445 100.679 64.1653 100.898L63.447 101.028V101.599L63.6318 101.6L63.7332 101.6C84.178 101.6 100.858 85.4816 101.756 65.2599H102.156C102.255 65.431 102.44 65.5461 102.652 65.5461H103.853C102.814 86.704 85.4019 103.558 64.0196 103.708V103.03C84.8344 102.882 101.821 86.6327 103.142 66.1184H102.413C101.088 86.325 84.2768 102.304 63.7332 102.304C63.6377 102.304 63.5423 102.304 63.447 102.303V103.03C63.447 103.03 63.4471 103.03 63.447 103.03V104.461C63.5423 104.462 63.6377 104.462 63.7332 104.462C85.6622 104.462 103.563 87.2145 104.607 65.5461H105.228C105.44 65.5461 105.625 65.431 105.723 65.2599H106.678C105.92 84.547 92.4498 100.569 74.4126 105.18C74.2258 104.961 73.9297 104.847 73.6269 104.905L70.5511 105.498C70.237 105.558 69.999 105.789 69.9144 106.076ZM102.08 64.4015V63.5431H101.508V64.4015H102.08ZM102.08 62.6846H101.784C101.778 62.3977 101.768 62.1115 101.756 61.8262H102.08V62.6846ZM102.156 60.9677H101.708C101.689 60.6807 101.666 60.3946 101.641 60.1093H106.659V60.9677H105.723C105.625 60.7967 105.44 60.6816 105.228 60.6816H102.652C102.44 60.6816 102.255 60.7967 102.156 60.9677ZM107.911 59.2509C107.883 58.9639 107.853 58.6778 107.82 58.3924H101.508V59.2509H107.911Z" fill="#C5D82E"/>
</svg>
