<svg width="245" height="31" viewBox="0 0 245 31" fill="none" xmlns="http://www.w3.org/2000/svg">
<g clip-path="url(#clip0_4383_1942)">
<path d="M100.596 18.4468C102.499 10.3858 97.5075 2.30792 89.4464 0.404447C81.3854 -1.49902 73.3075 3.49268 71.4041 11.5537C69.5006 19.6148 74.4923 27.6926 82.5533 29.5961C90.6144 31.4995 98.6922 26.5078 100.596 18.4468Z" fill="#5F259F"/>
<path d="M92.8066 11.0861C92.8066 10.4997 92.3041 9.99664 91.7177 9.99664H89.7065L85.0988 4.71828C84.6797 4.21573 84.0095 4.04803 83.3393 4.21573L81.7473 4.71828C81.4958 4.80207 81.412 5.13746 81.5796 5.30463L86.6069 10.0805H78.9827C78.7311 10.0805 78.5635 10.2481 78.5635 10.4997V11.3371C78.5635 11.924 79.0665 12.4265 79.6529 12.4265H80.8256V16.4483C80.8256 19.4645 82.4176 21.2236 85.0989 21.2236C85.9363 21.2236 86.6071 21.1398 87.4444 20.8049V23.4857C87.4444 24.2398 88.0313 24.8267 88.7853 24.8267H89.9581C90.2096 24.8267 90.4606 24.5752 90.4606 24.3236V12.3426H92.388C92.6395 12.3426 92.8066 12.175 92.8066 11.924V11.0861H92.8066ZM87.4444 18.2912C86.9419 18.5427 86.2717 18.6265 85.7692 18.6265C84.4282 18.6265 83.758 17.9563 83.758 16.4482V12.4264H87.4444V18.2912Z" fill="white"/>
</g>
<g clip-path="url(#clip1_4383_1942)">
<path d="M161.497 12.5574C161.087 11.398 159.973 10.5657 158.67 10.5657H158.64C157.791 10.5657 157.025 10.9182 156.48 11.4815C155.934 10.9182 155.169 10.5657 154.319 10.5657H154.293C153.546 10.5657 152.862 10.8382 152.338 11.2853V11.0599C152.32 10.831 152.133 10.6529 151.898 10.6529H149.892C149.646 10.6529 149.448 10.8491 149.448 11.0927V21.9016C149.448 22.1451 149.646 22.3414 149.892 22.3414H151.898C152.122 22.3414 152.309 22.1742 152.334 21.9634V14.2038C152.334 14.1747 152.334 14.1529 152.338 14.1274C152.371 13.7822 152.627 13.495 153.03 13.4623H153.4C153.568 13.4769 153.711 13.535 153.821 13.6259C153.997 13.764 154.092 13.9748 154.092 14.2074L154.099 21.927C154.099 22.1705 154.297 22.3704 154.542 22.3704H156.549C156.787 22.3704 156.978 22.1851 156.989 21.9525V14.2001C156.989 13.9457 157.106 13.7131 157.315 13.5786C157.417 13.5132 157.542 13.4696 157.685 13.4551H158.054C158.49 13.4914 158.75 13.8185 158.75 14.2001L158.758 21.9125C158.758 22.156 158.955 22.3523 159.201 22.3523H161.208C161.442 22.3523 161.636 22.1705 161.651 21.9416V13.4841C161.64 13.008 161.577 12.7863 161.497 12.5574ZM147.918 10.682H146.771V8.83565C146.771 8.83202 146.771 8.83202 146.771 8.82838C146.771 8.61031 146.592 8.42859 146.365 8.42859C146.339 8.42859 146.314 8.43222 146.288 8.43586C145.017 8.78113 145.27 10.5293 142.948 10.6783H142.725C142.692 10.6783 142.659 10.682 142.626 10.6892C142.432 10.7365 142.282 10.9109 142.282 11.1217V13.1134C142.282 13.3569 142.479 13.5532 142.725 13.5532H143.933L143.93 21.9925C143.93 22.2323 144.127 22.4286 144.369 22.4286H146.354C146.596 22.4286 146.793 22.2323 146.793 21.9925V13.5532H147.918C148.159 13.5532 148.361 13.3533 148.361 13.1134V11.1217C148.361 10.8782 148.163 10.682 147.918 10.682Z" fill="#00BAF2"/>
<path d="M140.703 10.682H138.697C138.455 10.682 138.253 10.8782 138.253 11.1218V15.2396C138.25 15.494 138.041 15.6976 137.785 15.6976H136.946C136.686 15.6976 136.474 15.4904 136.474 15.2323L136.466 11.1218C136.466 10.8782 136.269 10.682 136.023 10.682H134.016C133.771 10.682 133.573 10.8782 133.573 11.1218V15.6321C133.573 17.344 134.804 18.5688 136.532 18.5688C136.532 18.5688 137.829 18.5688 137.869 18.5761C138.103 18.6015 138.283 18.7978 138.283 19.0376C138.283 19.2739 138.107 19.4701 137.873 19.4992C137.862 19.4992 137.851 19.5029 137.84 19.5065L134.906 19.5174C134.661 19.5174 134.463 19.7137 134.463 19.9572V21.9452C134.463 22.1887 134.661 22.385 134.906 22.385H138.184C139.912 22.385 141.143 21.1638 141.143 19.452V11.1218C141.146 10.8782 140.949 10.682 140.703 10.682ZM129.292 10.6929H126.509C126.264 10.6929 126.062 10.8782 126.062 11.1036V11.8777C126.062 11.8814 126.062 11.8886 126.062 11.8923C126.062 11.8995 126.062 11.9032 126.062 11.9104V12.9717C126.062 13.2116 126.275 13.4115 126.535 13.4115H129.186C129.395 13.4442 129.56 13.5968 129.585 13.8331V14.0911C129.563 14.3165 129.398 14.48 129.197 14.4982H127.886C126.139 14.4982 124.898 15.6503 124.898 17.264V19.5792C124.898 21.1856 125.967 22.3268 127.699 22.3268H131.336C131.988 22.3268 132.519 21.8362 132.519 21.2329V13.6804C132.519 11.8486 131.566 10.6929 129.292 10.6929ZM129.611 19.0013V19.3139C129.611 19.3393 129.607 19.3647 129.604 19.3865C129.6 19.4084 129.593 19.4302 129.585 19.452C129.523 19.6264 129.347 19.7536 129.138 19.7536H128.303C128.043 19.7536 127.831 19.5574 127.831 19.3139V18.9395C127.831 18.9359 127.831 18.9286 127.831 18.925V17.9255V17.6129V17.6093C127.831 17.3694 128.043 17.1732 128.303 17.1732H129.138C129.398 17.1732 129.611 17.3694 129.611 17.6129V19.0013ZM121.466 10.6783H117.083C116.841 10.6783 116.647 10.8746 116.647 11.1108V13.0626C116.647 13.0662 116.647 13.0698 116.647 13.0735C116.647 13.0844 116.647 13.0916 116.647 13.0989V21.927C116.647 22.1669 116.826 22.3632 117.053 22.3668H119.097C119.342 22.3668 119.54 22.1706 119.54 21.927L119.547 18.9032H121.466C123.07 18.9032 124.191 17.7983 124.191 16.1955V13.3897C124.191 11.7905 123.07 10.6783 121.466 10.6783ZM121.291 14.3274V15.5558C121.291 15.8139 121.082 16.0247 120.822 16.0247H119.551V13.5641H120.822C121.082 13.5641 121.291 13.7713 121.291 14.0293V14.3274Z" fill="white"/>
</g>
<path d="M228.648 -0.0065918H191.482C182.993 -0.0065918 176.047 6.93927 176.047 15.4287C176.047 23.9181 182.993 30.8639 191.482 30.8639H228.648C237.138 30.8639 244.083 23.9181 244.083 15.4287C244.083 6.93927 237.138 -0.0065918 228.648 -0.0065918Z" fill="white"/>
<path d="M228.648 1.24366C230.554 1.24366 232.407 1.62183 234.151 2.36272C235.841 3.08046 237.354 4.1069 238.666 5.41118C239.97 6.71546 240.996 8.23583 241.714 9.92599C242.455 11.6702 242.833 13.5224 242.833 15.4287C242.833 17.3349 242.455 19.1871 241.714 20.9313C240.996 22.6215 239.97 24.1341 238.666 25.4461C237.361 26.7504 235.841 27.7769 234.151 28.4946C232.407 29.2355 230.554 29.6137 228.648 29.6137H191.482C189.576 29.6137 187.724 29.2355 185.979 28.4946C184.289 27.7769 182.777 26.7504 181.465 25.4461C180.16 24.1419 179.134 22.6215 178.416 20.9313C177.675 19.1871 177.297 17.3349 177.297 15.4287C177.297 13.5224 177.675 11.6702 178.416 9.92599C179.134 8.23583 180.16 6.72318 181.465 5.41118C182.769 4.1069 184.289 3.08046 185.979 2.36272C187.724 1.62183 189.576 1.24366 191.482 1.24366H228.648ZM228.648 -0.0065918H191.482C182.993 -0.0065918 176.047 6.93927 176.047 15.4287C176.047 23.9181 182.993 30.8639 191.482 30.8639H228.648C237.138 30.8639 244.083 23.9181 244.083 15.4287C244.083 6.93927 237.138 -0.0065918 228.648 -0.0065918Z" fill="#3C4043"/>
<path d="M42.6482 -0.0065918H15.4821C6.99274 -0.0065918 0.046875 6.93927 0.046875 15.4287C0.046875 23.9181 6.99274 30.8639 15.4821 30.8639H42.6482C51.1376 30.8639 58.0834 23.9181 58.0834 15.4287C58.0834 6.93927 51.1376 -0.0065918 42.6482 -0.0065918Z" fill="white"/>
<path d="M42.6482 1.24366C44.5544 1.24366 46.4067 1.62183 48.1508 2.36272C49.841 3.08046 51.3537 4.1069 52.6657 5.41118C53.9699 6.71546 54.9964 8.23583 55.7141 9.92599C56.455 11.6702 56.8332 13.5224 56.8332 15.4287C56.8332 17.3349 56.455 19.1871 55.7141 20.9313C54.9964 22.6215 53.9699 24.1341 52.6657 25.4461C51.3614 26.7504 49.841 27.7769 48.1508 28.4946C46.4067 29.2355 44.5544 29.6137 42.6482 29.6137H15.4821C13.5759 29.6137 11.7236 29.2355 9.97946 28.4946C8.2893 27.7769 6.77665 26.7504 5.46465 25.4461C4.16037 24.1419 3.13393 22.6215 2.41619 20.9313C1.67529 19.1871 1.29713 17.3349 1.29713 15.4287C1.29713 13.5224 1.67529 11.6702 2.41619 9.92599C3.13393 8.23583 4.16037 6.72318 5.46465 5.41118C6.76893 4.1069 8.2893 3.08046 9.97946 2.36272C11.7236 1.62183 13.5759 1.24366 15.4821 1.24366H42.6482ZM42.6482 -0.0065918H15.4821C6.99274 -0.0065918 0.046875 6.93927 0.046875 15.4287C0.046875 23.9181 6.99274 30.8639 15.4821 30.8639H42.6482C51.1376 30.8639 58.0834 23.9181 58.0834 15.4287C58.0834 6.93927 51.1376 -0.0065918 42.6482 -0.0065918Z" fill="#3C4043"/>
<path d="M26.8455 16.1331V20.8161H25.3618V9.27087H29.2952C30.2921 9.27087 31.1422 9.60317 31.8377 10.2678C32.5486 10.9323 32.9041 11.7438 32.9041 12.702C32.9041 13.6834 32.5486 14.4948 31.8377 15.1517C31.1499 15.8085 30.2998 16.1331 29.2952 16.1331H26.8455ZM26.8455 10.6928V14.7189H29.3261C29.9135 14.7189 30.408 14.518 30.7944 14.1239C31.1885 13.7298 31.3895 13.2507 31.3895 12.7097C31.3895 12.1765 31.1885 11.7051 30.7944 11.311C30.408 10.9014 29.9212 10.7005 29.3261 10.7005H26.8455V10.6928ZM36.7834 12.6556C37.8808 12.6556 38.7463 12.9493 39.3799 13.5366C40.0136 14.1239 40.3304 14.9276 40.3304 15.9476V20.8161H38.9163V19.7188H38.8545C38.244 20.6229 37.4248 21.0711 36.4048 21.0711C35.5315 21.0711 34.8051 20.8161 34.2178 20.2984C33.6305 19.7806 33.3368 19.1392 33.3368 18.3664C33.3368 17.5473 33.646 16.8982 34.2642 16.419C34.8824 15.9322 35.7093 15.6926 36.7371 15.6926C37.618 15.6926 38.3444 15.8549 38.9085 16.1795V15.8395C38.9085 15.3217 38.7076 14.8889 38.2981 14.5257C37.8885 14.1625 37.4094 13.9848 36.8607 13.9848C36.0338 13.9848 35.377 14.3325 34.8978 15.0358L33.5919 14.2166C34.3105 13.1734 35.377 12.6556 36.7834 12.6556ZM34.8669 18.3896C34.8669 18.776 35.0292 19.1006 35.3615 19.3556C35.6861 19.6106 36.0725 19.742 36.5129 19.742C37.1389 19.742 37.6953 19.5101 38.1821 19.0465C38.669 18.5828 38.9163 18.0419 38.9163 17.4159C38.4526 17.0527 37.8112 16.8672 36.9843 16.8672C36.3816 16.8672 35.8793 17.0141 35.4774 17.3C35.0679 17.6014 34.8669 17.9646 34.8669 18.3896ZM48.3982 12.9106L43.4525 24.2859H41.9224L43.7616 20.3061L40.5005 12.9106H42.1156L44.4648 18.5828H44.4957L46.7831 12.9106H48.3982Z" fill="#3C4043"/>
<path d="M22.694 15.1982C22.694 14.7144 22.6507 14.2515 22.5704 13.8064H16.3511V16.3566L19.9329 16.3573C19.7876 17.2058 19.3201 17.9291 18.6037 18.4114V20.0659H20.7358C21.9807 18.9137 22.694 17.2105 22.694 15.1982Z" fill="#4285F4"/>
<path d="M18.6043 18.4112C18.0108 18.8115 17.2465 19.0456 16.3524 19.0456C14.6252 19.0456 13.1601 17.8818 12.6354 16.3131H10.436V18.0194C11.5256 20.1816 13.7651 21.6653 16.3524 21.6653C18.1406 21.6653 19.6429 21.0773 20.7363 20.0649L18.6043 18.4112Z" fill="#34A853"/>
<path d="M12.4286 15.0474C12.4286 14.607 12.502 14.1812 12.6357 13.7809V12.0746H10.4364C9.98589 12.9687 9.73242 13.9779 9.73242 15.0474C9.73242 16.117 9.98666 17.1262 10.4364 18.0203L12.6357 16.314C12.4988 15.9058 12.4289 15.478 12.4286 15.0474Z" fill="#FABB05"/>
<path d="M16.3524 11.0483C17.3284 11.0483 18.2024 11.3844 18.8925 12.0413L20.7819 10.1534C19.6344 9.08467 18.1383 8.42859 16.3524 8.42859C13.7659 8.42859 11.5256 9.91232 10.436 12.0745L12.6354 13.7808C13.1601 12.2121 14.6252 11.0483 16.3524 11.0483Z" fill="#E94235"/>
<g clip-path="url(#clip2_4383_1942)">
<path fill-rule="evenodd" clip-rule="evenodd" d="M204.057 20.0332C201.951 21.597 198.897 22.4285 196.267 22.4285C192.582 22.4285 189.263 21.0575 186.751 18.7765C186.554 18.5973 186.73 18.3528 186.967 18.4914C189.676 20.0775 193.028 21.0332 196.488 21.0332C198.823 21.0332 201.389 20.5456 203.751 19.5381C204.107 19.3864 204.406 19.7742 204.057 20.0332Z" fill="#F79C34"/>
<path fill-rule="evenodd" clip-rule="evenodd" d="M204.934 19.0262C204.664 18.6794 203.153 18.8614 202.474 18.9436C202.269 18.9688 202.237 18.7877 202.422 18.6566C203.628 17.8049 205.604 18.0504 205.833 18.336C206.065 18.6234 205.772 20.6165 204.642 21.5671C204.468 21.7132 204.303 21.6352 204.38 21.4425C204.635 20.8036 205.204 19.3738 204.934 19.0262Z" fill="#F79C34"/>
<path fill-rule="evenodd" clip-rule="evenodd" d="M233.159 19.8872C233.159 19.7407 233.159 19.6081 233.159 19.4616C233.159 19.3403 233.218 19.2572 233.344 19.2642C233.578 19.2978 233.91 19.3314 234.145 19.2824C234.453 19.218 234.673 18.9991 234.804 18.6986C234.987 18.2758 235.109 17.9342 235.186 17.7107L232.852 11.8934C232.812 11.7949 232.801 11.6115 232.997 11.6115H233.813C233.969 11.6115 234.032 11.7104 234.067 11.808L235.759 16.5329L237.375 11.808C237.408 11.7109 237.474 11.6115 237.628 11.6115H238.398C238.592 11.6115 238.581 11.7944 238.543 11.8934L236.227 17.8918C235.928 18.6907 235.528 19.9623 234.63 20.183C234.179 20.3016 233.61 20.2586 233.276 20.1177C233.191 20.0757 233.159 19.9623 233.159 19.8872ZM223.586 12.4011C224.862 12.4011 225.21 13.4114 225.21 14.5678C225.218 15.3471 225.075 16.0424 224.674 16.4405C224.374 16.7387 224.038 16.8199 223.533 16.8199C223.083 16.8199 222.492 16.5842 222.05 16.2557V12.9485C222.51 12.5934 223.097 12.4011 223.586 12.4011ZM221.855 20.0944H221.084C220.976 20.0944 220.888 20.0062 220.888 19.8975C220.888 17.2044 220.888 14.5113 220.888 11.8182C220.888 11.71 220.976 11.6213 221.084 11.6213H221.674C221.798 11.6213 221.883 11.7114 221.898 11.8182L221.96 12.2415C222.513 11.7482 223.224 11.4319 223.903 11.4319C225.801 11.4319 226.425 13.0054 226.425 14.6415C226.425 16.3919 225.47 17.7989 223.855 17.7989C223.175 17.7989 222.54 17.5464 222.05 17.1083V19.8979C222.05 20.0062 221.962 20.0944 221.855 20.0944ZM232.07 17.454C232.07 17.5623 231.982 17.6514 231.874 17.6514H231.299C231.174 17.6514 231.089 17.5609 231.074 17.454L231.016 17.0602C230.752 17.2851 230.427 17.483 230.075 17.6206C229.398 17.8848 228.618 17.9286 227.957 17.5203C227.479 17.2249 227.225 16.6477 227.225 16.0522C227.225 15.5916 227.366 15.1348 227.679 14.803C228.097 14.3499 228.702 14.1273 229.433 14.1273C229.874 14.1273 230.506 14.1795 230.965 14.3307V13.5383C230.965 12.732 230.628 12.3829 229.738 12.3829C229.058 12.3829 228.537 12.4865 227.814 12.7128C227.698 12.7166 227.63 12.6279 227.63 12.5196V12.0679C227.63 11.9596 227.722 11.8546 227.822 11.8224C228.338 11.5961 229.071 11.4547 229.85 11.4286C230.865 11.4286 232.071 11.6586 232.071 13.2289L232.07 17.454ZM230.965 16.2967V15.1002C230.578 14.9938 229.939 14.95 229.692 14.95C229.301 14.95 228.873 15.0428 228.65 15.2846C228.483 15.4619 228.408 15.7167 228.408 15.9631C228.408 16.2813 228.517 16.601 228.773 16.7587C229.07 16.9617 229.531 16.937 229.963 16.8133C230.38 16.6943 230.77 16.4839 230.965 16.2967ZM186.003 17.7947C185.929 17.8619 185.822 17.8661 185.738 17.8213C185.365 17.5096 185.298 17.3654 185.095 17.0691C184.479 17.7004 184.043 17.8894 183.245 17.8894C182.3 17.889 181.565 17.3024 181.565 16.1297C181.565 15.2132 182.059 14.5902 182.762 14.285C183.371 14.0157 184.221 13.9672 184.872 13.8939V13.7474C184.872 13.4781 184.893 13.1608 184.736 12.9289C184.599 12.7208 184.336 12.6354 184.106 12.6354C183.678 12.6354 183.297 12.8561 183.204 13.3129C183.184 13.4147 183.111 13.5155 183.009 13.5206L181.921 13.4021C181.829 13.3811 181.727 13.3069 181.754 13.1664C182 11.8574 183.162 11.4496 184.218 11.4384H184.301C184.842 11.4454 185.533 11.5943 185.953 12.0002C186.498 12.5136 186.446 13.1977 186.446 13.9429V15.7013C186.446 16.2305 186.665 16.4624 186.87 16.7471C186.941 16.8502 186.958 16.972 186.866 17.0476C186.637 17.2408 186.229 17.5964 186.005 17.797L186.003 17.7947ZM184.872 15.0424C184.872 15.482 184.882 15.8487 184.661 16.2398C184.484 16.5571 184.2 16.7527 183.885 16.7527C183.455 16.7527 183.203 16.4227 183.203 15.9341C183.203 14.9724 184.06 14.7978 184.872 14.7978L184.872 15.0424ZM200.713 17.7947C200.638 17.8619 200.532 17.8661 200.448 17.8213C200.075 17.5096 200.008 17.3654 199.804 17.0691C199.188 17.7004 198.752 17.8894 197.954 17.8894C197.01 17.8894 196.275 17.3028 196.275 16.1301C196.275 15.2136 196.769 14.5906 197.472 14.285C198.081 14.0162 198.931 13.9672 199.582 13.8939V13.7474C199.582 13.4781 199.603 13.1608 199.445 12.9289C199.309 12.7208 199.047 12.6354 198.816 12.6354C198.388 12.6354 198.008 12.8561 197.914 13.3129C197.894 13.4147 197.821 13.5155 197.72 13.5206L196.632 13.4021C196.54 13.3811 196.438 13.3069 196.464 13.1659C196.711 11.857 197.873 11.4491 198.929 11.4379H199.012C199.553 11.4449 200.243 11.5938 200.664 11.9998C201.21 12.5131 201.157 13.1972 201.157 13.9425V15.7008C201.157 16.23 201.376 16.4619 201.581 16.7466C201.652 16.8497 201.668 16.9715 201.577 17.0471C201.348 17.2403 200.94 17.5959 200.717 17.7966L200.713 17.7947ZM199.582 15.0424C199.582 15.482 199.592 15.8487 199.372 16.2398C199.193 16.5571 198.909 16.7527 198.595 16.7527C198.165 16.7527 197.913 16.4227 197.913 15.9341C197.913 14.9724 198.77 14.7978 199.582 14.7978V15.0424ZM214.532 17.8087H213.415C213.302 17.8017 213.213 17.7121 213.213 17.601L213.211 11.8056C213.221 11.6992 213.314 11.6162 213.427 11.6162H214.468C214.566 11.6213 214.647 11.6885 214.667 11.7781V12.6643H214.689C215.003 11.8714 215.443 11.4939 216.218 11.4939C216.721 11.4939 217.213 11.6768 217.527 12.1766C217.821 12.64 217.821 13.4198 217.821 13.9807V17.6267C217.809 17.7298 217.716 17.8092 217.605 17.8092H216.48C216.376 17.8026 216.293 17.7256 216.28 17.6267V14.4814C216.28 13.8477 216.354 12.9205 215.579 12.9205C215.306 12.9205 215.055 13.1034 214.93 13.3839C214.772 13.7376 214.751 14.0913 214.751 14.4814V17.601C214.749 17.7158 214.652 17.8087 214.532 17.8087ZM209.817 12.6764C208.989 12.6764 208.937 13.8099 208.937 14.5169C208.937 15.2239 208.927 16.7359 209.807 16.7359C210.676 16.7359 210.718 15.517 210.718 14.7731C210.718 14.2859 210.697 13.7003 210.55 13.2369C210.425 12.8346 210.173 12.6764 209.817 12.6764ZM209.807 11.4939C211.472 11.4939 212.373 12.9331 212.373 14.7614C212.373 16.5287 211.378 17.931 209.807 17.931C208.173 17.931 207.282 16.4923 207.282 14.7008C207.282 12.8958 208.183 11.4939 209.807 11.4939ZM189.068 17.8087H187.946C187.839 17.8017 187.753 17.721 187.744 17.6183L187.745 11.8243C187.745 11.7086 187.842 11.6162 187.962 11.6162H189.007C189.116 11.6218 189.204 11.7048 189.211 11.8108V12.5672H189.232C189.504 11.836 190.017 11.4944 190.709 11.4944C191.411 11.4944 191.85 11.836 192.165 12.5672C192.437 11.836 193.055 11.4944 193.715 11.4944C194.186 11.4944 194.7 11.6894 195.013 12.1286C195.37 12.6162 195.297 13.3232 195.297 13.9448L195.295 17.6006C195.295 17.7158 195.199 17.8087 195.079 17.8087H193.958C193.845 17.8017 193.757 17.7121 193.757 17.601V14.5295C193.757 14.2859 193.777 13.6765 193.725 13.445C193.641 13.0544 193.39 12.9448 193.066 12.9448C192.793 12.9448 192.51 13.1277 192.395 13.4203C192.28 13.7133 192.291 14.2005 192.291 14.53V17.601C192.291 17.7163 192.194 17.8092 192.074 17.8092H190.953C190.841 17.8022 190.751 17.7126 190.751 17.6015L190.751 14.53C190.751 13.8837 190.855 12.9336 190.059 12.9336C189.253 12.9336 189.284 13.8594 189.284 14.53L189.284 17.601C189.284 17.7158 189.187 17.8087 189.068 17.8087ZM202.522 12.6382V11.8103C202.522 11.6843 202.617 11.6003 202.73 11.6008L206.419 11.6003C206.536 11.6003 206.631 11.6866 206.631 11.8094V12.5192C206.63 12.6382 206.53 12.7936 206.354 13.0404L204.443 15.7843C205.152 15.768 205.902 15.8749 206.547 16.2389C206.692 16.321 206.731 16.4428 206.742 16.5618V17.4452C206.742 17.5674 206.61 17.7079 206.47 17.6346C205.336 17.0364 203.829 16.9711 202.574 17.6421C202.446 17.7102 202.312 17.5716 202.312 17.4498V16.6103C202.312 16.4764 202.314 16.2463 202.449 16.0415L204.662 12.8468H202.735C202.617 12.8468 202.522 12.7623 202.522 12.6382Z" fill="black"/>
</g>
<defs>
<clipPath id="clip0_4383_1942">
<rect width="30" height="30" fill="white" transform="translate(71)"/>
</clipPath>
<clipPath id="clip1_4383_1942">
<rect width="45" height="14" fill="white" transform="translate(116.647 8.42859)"/>
</clipPath>
<clipPath id="clip2_4383_1942">
<rect width="57" height="11" fill="white" transform="translate(181.565 11.4286)"/>
</clipPath>
</defs>
</svg>
