<svg width="20" height="19" viewBox="0 0 20 19" fill="none" xmlns="http://www.w3.org/2000/svg">
<path d="M15.4814 0.756592V3.98264H18.7073L15.4814 0.756592Z" fill="white"/>
<path d="M14.9513 5.04368C14.6584 5.04368 14.4209 4.80616 14.4209 4.51318V0.446045H6.81707C5.93953 0.446045 5.22559 1.15999 5.22559 2.03753V7.96809C5.40037 7.95225 5.57723 7.94372 5.75608 7.94372C7.5643 7.94372 9.18298 8.77045 10.2542 10.0657H16.0123C16.3053 10.0657 16.5428 10.3032 16.5428 10.5962C16.5428 10.8892 16.3053 11.1267 16.0123 11.1267H10.9531C11.2921 11.7881 11.5005 12.5085 11.5672 13.2487H16.0123C16.3053 13.2487 16.5428 13.4862 16.5428 13.7792C16.5428 14.0722 16.3053 14.3097 16.0123 14.3097H11.5672C11.4085 16.0617 10.4724 17.5926 9.10733 18.5536H17.427C18.3045 18.5536 19.0185 17.8397 19.0185 16.9622V5.04368H14.9513ZM16.0123 7.94372H8.23173C7.93876 7.94372 7.70123 7.7062 7.70123 7.41323C7.70123 7.12025 7.93876 6.88273 8.23173 6.88273H16.0123C16.3053 6.88273 16.5428 7.12025 16.5428 7.41323C16.5428 7.7062 16.3053 7.94372 16.0123 7.94372Z" fill="white"/>
<path d="M5.75591 9.00476C3.12327 9.00476 0.981445 11.1466 0.981445 13.7792C0.981445 16.4119 3.12327 18.5537 5.75591 18.5537C8.38855 18.5537 10.5304 16.4119 10.5304 13.7792C10.5304 11.1466 8.38855 9.00476 5.75591 9.00476ZM7.17057 14.3097H5.75591C5.46293 14.3097 5.22541 14.0722 5.22541 13.7792V11.6572C5.22541 11.3643 5.46293 11.1267 5.75591 11.1267C6.04888 11.1267 6.28641 11.3643 6.28641 11.6572V13.2487H7.17057C7.46354 13.2487 7.70106 13.4862 7.70106 13.7792C7.70106 14.0722 7.46354 14.3097 7.17057 14.3097Z" fill="white"/>
</svg>
