<svg width="20" height="19" viewBox="0 0 20 19" fill="none" xmlns="http://www.w3.org/2000/svg">
<path fill-rule="evenodd" clip-rule="evenodd" d="M10 3.36729C8.77141 3.36729 7.54278 3.70252 6.44711 4.37424L5.0995 1.90104L6.4467 4.37421C5.92096 4.69624 5.42613 5.09548 4.97628 5.57232C4.52847 6.04668 4.15093 6.57101 3.84527 7.13004C3.37254 7.99458 3.07252 8.94082 2.95202 9.91062C2.91145 10.2372 2.89098 10.5658 2.89099 10.8957C2.89018 12.1884 3.20226 13.4893 3.84328 14.6659C4.22805 15.3752 3.99751 16.2802 3.32837 16.6877C2.65922 17.0952 1.80494 16.8503 1.42057 16.1415C0.527716 14.5024 0.0931454 12.6925 0.0931396 10.8957C0.0935287 10.4379 0.122049 9.98038 0.178282 9.52709C0.346983 8.17002 0.763477 6.84847 1.41764 5.6452L1.41735 5.64501C1.8427 4.86263 2.36844 4.12981 2.99179 3.46926C3.61956 2.80412 4.30997 2.2472 5.04338 1.79804C6.57202 0.861259 8.28582 0.393066 10 0.393066C11.7138 0.393051 13.4284 0.861244 14.9567 1.79804C15.6901 2.24723 16.3805 2.80415 17.0083 3.46929C17.6316 4.12984 18.1574 4.86266 18.5823 5.64504L18.5827 5.64501C19.2366 6.84849 19.6531 8.17002 19.8218 9.52711C19.8784 9.9804 19.9065 10.4379 19.9069 10.8957C19.9073 12.6925 19.4723 14.5024 18.5795 16.1415C18.1951 16.8504 17.3408 17.0952 16.6717 16.6877C16.0025 16.2802 15.772 15.3752 16.1568 14.6659C16.7978 13.4893 17.1099 12.1884 17.1091 10.8957C17.1091 10.5658 17.0886 10.2372 17.048 9.91064C16.9275 8.94083 16.6275 7.99459 16.1548 7.13006C15.8491 6.57105 15.4716 6.04673 15.0238 5.57236C14.9338 5.477 14.8421 5.38474 14.7486 5.29559L11.9281 9.50449C12.0155 9.63897 12.0898 9.78555 12.148 9.94201C12.5597 11.0522 12.0082 12.2676 10.9166 12.6569C9.82453 13.0463 8.60554 12.4617 8.19385 11.3519C7.78216 10.2418 8.33323 9.02628 9.42528 8.63697C9.94782 8.45119 10.4993 8.48753 10.9772 8.69808L14.5906 5.1493C14.2625 4.85427 13.9151 4.59595 13.5534 4.37423C13.0344 4.05592 12.4854 3.81315 11.9207 3.64596L11.7572 3.59971C11.1813 3.44448 10.5908 3.36727 10 3.36729ZM10.5669 11.3954C10.6593 11.3467 10.7406 11.2763 10.8029 11.1835L11.4788 10.1746L10.8025 11.1835C10.7403 11.2763 10.6591 11.3466 10.5669 11.3954Z" fill="white"/>
</svg>
