<svg width="218" height="75" viewBox="0 0 218 75" fill="none" xmlns="http://www.w3.org/2000/svg">
<path fill-rule="evenodd" clip-rule="evenodd" d="M198.723 33.4593C198.849 32.2987 198.836 31.149 198.679 30.0135C195.767 9.03877 144.576 0.821827 84.3401 11.6605C82.5607 11.9807 80.7933 12.3139 79.0388 12.6597C80.6443 12.3707 82.2604 12.0927 83.8864 11.8261C144.521 1.88423 195.929 11.516 198.708 33.3394C198.713 33.3793 198.718 33.4193 198.723 33.4593Z" fill="#F09F08"/>
<path d="M43.8776 44.9544C43.2286 47.9677 39.6823 49.4743 33.2385 49.4743H14.9504C8.41394 49.4743 5.53976 47.6663 6.32784 44.0504C6.6987 42.2425 7.97354 40.8517 10.1524 39.8782C12.0994 39.0438 14.4868 38.6266 17.3146 38.6266H18.01L16.6888 45.0239H33.3776L37.0631 27.7093H47.5631L43.8776 44.9544ZM80.6289 49.4743H56.291C50.1718 49.4743 47.4367 47.9213 48.0857 44.8153L48.3638 43.4246C48.8274 41.3849 50.0791 40.0173 52.1188 39.3219C53.3241 38.9511 55.3175 38.7656 58.099 38.7656H73.258L74.0229 35.0802H59.7679C55.3175 35.0802 53.1619 33.9444 53.301 31.6729L53.3705 31.3252H75.9004C78.3573 31.3252 80.3044 31.7193 81.7415 32.5073C83.2249 33.2954 83.8739 34.1762 83.6885 35.1497L80.6289 49.4743ZM71.7282 45.9975L72.4931 42.3815H58.3771L57.6122 45.9975H71.7282ZM99.2625 27.7093H89.5274L90.2923 23.9543H100.027L99.2625 27.7093ZM98.4281 31.3252L95.7162 44.3981C95.3916 45.8816 94.4181 47.11 92.7956 48.0836C91.1731 49.0107 89.1333 49.4743 86.6764 49.4743H84.8684L88.6929 31.3252H98.4281Z" fill="#F09F08"/>
<path d="M139.536 49.4743H139.467C136.917 49.4743 134.785 49.173 133.069 48.5703C131.215 47.8749 130.404 47.0173 130.636 45.9975L132.93 35.0802H126.881C126.973 35.6365 126.973 36.1464 126.881 36.61L124.169 49.4743H124.03C121.341 49.4743 119.162 49.1034 117.493 48.3617C115.824 47.5736 115.129 46.5769 115.407 45.3716L117.563 35.0802H111.722L108.662 49.4743H98.9963L102.821 31.3947H104.142C106.692 31.3947 109.056 31.9974 111.235 33.2027C113.692 31.9974 116.102 31.3947 118.467 31.3947C121.851 31.3947 124.331 32.0669 125.907 33.4113C126.602 33.0868 127.576 32.6696 128.828 32.1597C130.126 31.6497 131.655 31.3947 133.417 31.3947C140.046 31.3947 143.036 32.9014 142.387 35.9146L139.536 49.4743ZM177.328 49.4743H152.99C146.871 49.4743 144.136 47.9213 144.785 44.8153L145.063 43.4246C145.527 41.3849 146.779 40.0173 148.818 39.3219C150.024 38.9511 152.017 38.7656 154.798 38.7656H169.957L170.722 35.0802H156.467C152.017 35.0802 149.861 33.9444 150 31.6729L150.07 31.3252H172.6C175.057 31.3252 177.004 31.7193 178.441 32.5073C179.924 33.2954 180.573 34.1762 180.388 35.1497L177.328 49.4743ZM168.428 45.9975L169.193 42.3815H155.077L154.312 45.9975H168.428Z" fill="#0051FF"/>
<path d="M54.6028 66.4816V58.2563H59.9671V59.1623H55.6041V61.7133H59.6095V62.6193H55.6041V65.5756H59.9671V66.4816H54.6028ZM61.515 66.4816V60.2828H64.8528C66.0448 60.2828 66.6409 60.8789 66.6409 62.0709V66.4816H65.6872V61.9517C65.6872 61.3954 65.4091 61.1173 64.8528 61.1173H62.4686V66.4816H61.515ZM68.4044 64.6935V62.0709C68.4044 60.8789 69.0004 60.2828 70.1925 60.2828H72.5767V57.6603H73.5303V66.4816H70.1925C69.0004 66.4816 68.4044 65.8856 68.4044 64.6935ZM69.3581 64.8127C69.3581 65.369 69.6362 65.6472 70.1925 65.6472H72.5767V61.1173H70.1925C69.6362 61.1173 69.3581 61.3954 69.3581 61.9517V64.8127ZM75.3903 64.7889V57.6603H76.344V64.8842C76.344 65.4326 76.6221 65.7227 77.1784 65.7545V66.577C75.9864 66.577 75.3903 65.9809 75.3903 64.7889ZM78.4392 64.6935V62.0709C78.4392 60.8789 79.0353 60.2828 80.2273 60.2828H81.777C82.9691 60.2828 83.5651 60.8789 83.5651 62.0709V63.7518H79.3929V64.8127C79.3929 65.369 79.671 65.6472 80.2273 65.6472H83.3267V66.124L82.8499 66.4816H80.2273C79.0353 66.4816 78.4392 65.8856 78.4392 64.6935ZM79.3929 62.9769H82.6115V61.9517C82.6115 61.3954 82.3333 61.1173 81.777 61.1173H80.2273C79.671 61.1173 79.3929 61.3954 79.3929 61.9517V62.9769ZM85.1413 66.124V65.6472H87.895C88.4433 65.6472 88.7175 65.369 88.7175 64.8127C88.7175 64.2485 88.499 63.9306 88.0619 63.8591L86.6433 63.6206C85.642 63.4538 85.1413 62.9094 85.1413 61.9875C85.1413 60.8511 85.7373 60.2828 86.9294 60.2828H88.9202L89.397 60.6405V61.1173H86.9175C86.3612 61.1173 86.083 61.3954 86.083 61.9517C86.083 62.4524 86.3175 62.7425 86.7864 62.822L88.2049 63.0604C89.1904 63.2193 89.6831 63.7875 89.6831 64.765C89.6831 65.9094 89.0791 66.4816 87.8711 66.4816H85.6181L85.1413 66.124ZM91.1017 66.124V65.6472H93.8554C94.4037 65.6472 94.6779 65.369 94.6779 64.8127C94.6779 64.2485 94.4593 63.9306 94.0222 63.8591L92.6037 63.6206C91.6023 63.4538 91.1017 62.9094 91.1017 61.9875C91.1017 60.8511 91.6977 60.2828 92.8898 60.2828H94.8805L95.3574 60.6405V61.1173H92.8779C92.3215 61.1173 92.0434 61.3954 92.0434 61.9517C92.0434 62.4524 92.2778 62.7425 92.7467 62.822L94.1653 63.0604C95.1507 63.2193 95.6435 63.7875 95.6435 64.765C95.6435 65.9094 95.0395 66.4816 93.8315 66.4816H91.5785L91.1017 66.124ZM100.283 66.4816V58.2563H104.181C105.397 58.2563 106.005 58.8643 106.005 60.0802V61.6299C106.005 62.8458 105.397 63.4538 104.181 63.4538H101.285V66.4816H100.283ZM101.285 62.5478H104.193C104.734 62.5478 105.004 62.2776 105.004 61.7372V59.9729C105.004 59.4325 104.734 59.1623 104.193 59.1623H101.285V62.5478ZM107.578 64.6935V62.0709C107.578 60.8789 108.174 60.2828 109.366 60.2828H111.035C112.227 60.2828 112.823 60.8789 112.823 62.0709V64.6935C112.823 65.8856 112.227 66.4816 111.035 66.4816H109.366C108.174 66.4816 107.578 65.8856 107.578 64.6935ZM108.531 64.8127C108.531 65.369 108.809 65.6472 109.366 65.6472H111.035C111.591 65.6472 111.869 65.369 111.869 64.8127V61.9517C111.869 61.3954 111.591 61.1173 111.035 61.1173H109.366C108.809 61.1173 108.531 61.3954 108.531 61.9517V64.8127ZM114.396 66.124V65.6472H117.15C117.698 65.6472 117.972 65.369 117.972 64.8127C117.972 64.2485 117.754 63.9306 117.317 63.8591L115.898 63.6206C114.897 63.4538 114.396 62.9094 114.396 61.9875C114.396 60.8511 114.992 60.2828 116.184 60.2828H118.175L118.652 60.6405V61.1173H116.172C115.616 61.1173 115.338 61.3954 115.338 61.9517C115.338 62.4524 115.572 62.7425 116.041 62.822L117.46 63.0604C118.445 63.2193 118.938 63.7875 118.938 64.765C118.938 65.9094 118.334 66.4816 117.126 66.4816H114.873L114.396 66.124ZM120.356 66.124V65.6472H123.11C123.658 65.6472 123.933 65.369 123.933 64.8127C123.933 64.2485 123.714 63.9306 123.277 63.8591L121.858 63.6206C120.857 63.4538 120.356 62.9094 120.356 61.9875C120.356 60.8511 120.952 60.2828 122.144 60.2828H124.135L124.612 60.6405V61.1173H122.133C121.576 61.1173 121.298 61.3954 121.298 61.9517C121.298 62.4524 121.533 62.7425 122.001 62.822L123.42 63.0604C124.405 63.2193 124.898 63.7875 124.898 64.765C124.898 65.9094 124.294 66.4816 123.086 66.4816H120.833L120.356 66.124ZM126.507 59.1265V58.006H127.556V59.1265H126.507ZM126.555 66.4816V60.2828H127.509V66.4816H126.555ZM129.419 66.4816V57.6603H130.373V60.2828H132.757C133.949 60.2828 134.545 60.8789 134.545 62.0709V64.6935C134.545 65.8856 133.949 66.4816 132.757 66.4816H129.419ZM130.373 65.6472H132.757C133.313 65.6472 133.591 65.369 133.591 64.8127V61.9517C133.591 61.3954 133.313 61.1173 132.757 61.1173H130.373V65.6472ZM136.309 59.1265V58.006H137.358V59.1265H136.309ZM136.357 66.4816V60.2828H137.311V66.4816H136.357ZM139.173 64.7889V57.6603H140.127V64.8842C140.127 65.4326 140.405 65.7227 140.961 65.7545V66.577C139.769 66.577 139.173 65.9809 139.173 64.7889ZM142.27 59.1265V58.006H143.319V59.1265H142.27ZM142.318 66.4816V60.2828H143.271V66.4816H142.318ZM145.134 64.6935V58.2563H146.087V60.2828H148.352V61.1173H146.087V64.8127C146.087 65.369 146.365 65.6472 146.922 65.6472H148.471V66.124L147.995 66.4816H146.922C145.73 66.4816 145.134 65.8856 145.134 64.6935ZM149.802 59.1265V58.006H150.851V59.1265H149.802ZM149.849 66.4816V60.2828H150.803V66.4816H149.849ZM152.618 64.6935V62.0709C152.618 60.8789 153.214 60.2828 154.406 60.2828H155.956C157.148 60.2828 157.744 60.8789 157.744 62.0709V63.7518H153.572V64.8127C153.572 65.369 153.85 65.6472 154.406 65.6472H157.505V66.124L157.029 66.4816H154.406C153.214 66.4816 152.618 65.8856 152.618 64.6935ZM153.572 62.9769H156.79V61.9517C156.79 61.3954 156.512 61.1173 155.956 61.1173H154.406C153.85 61.1173 153.572 61.3954 153.572 61.9517V62.9769ZM159.32 66.124V65.6472H162.074C162.622 65.6472 162.896 65.369 162.896 64.8127C162.896 64.2485 162.678 63.9306 162.24 63.8591L160.822 63.6206C159.821 63.4538 159.32 62.9094 159.32 61.9875C159.32 60.8511 159.916 60.2828 161.108 60.2828H163.099L163.576 60.6405V61.1173H161.096C160.54 61.1173 160.262 61.3954 160.262 61.9517C160.262 62.4524 160.496 62.7425 160.965 62.822L162.384 63.0604C163.369 63.2193 163.862 63.7875 163.862 64.765C163.862 65.9094 163.258 66.4816 162.05 66.4816H159.797L159.32 66.124Z" fill="white"/>
<path fill-rule="evenodd" clip-rule="evenodd" d="M164.256 60.5528C197.434 50.8548 219.278 36.5552 217.652 23.3426C215.36 4.71977 167.31 -4.69164 110.329 2.32163C80.4444 5.99996 54.0382 13.4658 36.0132 22.4212C52.8069 14.8295 75.9636 8.76206 101.871 5.9206C155.523 0.0362877 200.656 10.2151 202.679 28.6556C203.92 39.9704 188.642 51.7666 164.256 60.5528Z" fill="#0051FF"/>
<path fill-rule="evenodd" clip-rule="evenodd" d="M197.878 37.8266L192.762 32.5907H182.983L193.082 43.2498C195.235 41.6937 196.554 39.8286 197.878 37.8266ZM198.097 48.544C200.561 47.4882 202.49 46.5574 204.976 45.0914L215.765 56.1341H205.288L198.097 48.544Z" fill="#0051FF"/>
</svg>
