<svg width="22" height="21" viewBox="0 0 22 21" fill="none" xmlns="http://www.w3.org/2000/svg">
<path d="M7.7263 20.25C7.12927 20.25 6.5567 19.9932 6.13453 19.536C5.71237 19.0789 5.4752 18.459 5.4752 17.8125V16.9996H10.0787V4.7938C9.97202 4.72083 9.87246 4.63634 9.78156 4.54156H6.65928L9.15801 11.0411C9.20225 12.2817 8.79119 13.4909 8.01465 14.4043C7.2381 15.3178 6.15921 15.8613 5.01373 15.9161C3.86824 15.8613 2.78935 15.3178 2.0128 14.4043C1.23626 13.4909 0.825201 12.2817 0.869446 11.0411V11.0351L3.63267 3.41542C3.62677 3.00853 3.76782 2.6152 4.02579 2.31926C4.28375 2.02332 4.63823 1.84816 5.01373 1.83106C5.21181 1.83298 5.40702 1.8826 5.58516 1.97641C5.7633 2.07022 5.91991 2.2058 6.04361 2.37334H9.21541C9.30047 1.92451 9.52306 1.52 9.84709 1.22533C10.1711 0.930665 10.5776 0.763171 11.0005 0.75C11.4236 0.763565 11.8301 0.931546 12.1539 1.22667C12.4777 1.52179 12.7 1.92672 12.7845 2.37579H15.953C16.0765 2.20812 16.2331 2.07247 16.4113 1.97864C16.5895 1.88482 16.7847 1.83518 16.9828 1.83344C17.3648 1.85118 17.7248 2.03217 17.9838 2.33667C18.2429 2.64116 18.38 3.04435 18.365 3.45804C18.3649 3.56722 18.3555 3.67619 18.3369 3.78349L21.1305 11.0411C21.1747 12.2817 20.7637 13.4909 19.9871 14.4043C19.2106 15.3178 18.1317 15.8613 16.9862 15.9161C15.8407 15.8613 14.7618 15.3178 13.9853 14.4043C13.2088 13.4909 12.7977 12.2817 12.8419 11.0411V11.0351L15.1966 4.54156H12.2184C12.1275 4.63634 12.0279 4.72083 11.9212 4.7938V16.9996H16.5259V17.8125C16.5259 18.459 16.2887 19.0789 15.8665 19.536C15.4444 19.9932 14.8718 20.25 14.2748 20.25H7.7263ZM14.1645 11.1094H19.9307L17.5535 4.94615C17.3783 5.03936 17.1859 5.08814 16.9907 5.08875C16.8454 5.08878 16.7011 5.06199 16.5641 5.00953L14.1645 11.1094ZM2.19309 11.1094H7.96154L5.58438 4.94615C5.40923 5.03936 5.21677 5.08814 5.0216 5.08875C4.87629 5.08873 4.73204 5.06194 4.59502 5.00953L2.19309 11.1094Z" fill="white"/>
</svg>
