<svg width="20" height="13" viewBox="0 0 20 13" fill="none" xmlns="http://www.w3.org/2000/svg">
<path fill-rule="evenodd" clip-rule="evenodd" d="M19.4926 6.72148L15.4012 10.8834C14.4462 11.8404 13.0136 10.4048 13.9686 9.44795L15.7525 7.6604C16.0514 7.36088 15.9512 7.12052 15.5317 7.12052H8.10089C7.54124 7.12052 7.08796 6.66608 7.08796 6.10542C7.08796 5.54477 7.54124 5.09051 8.10089 5.09051H15.5317C15.9498 5.09051 16.05 4.84873 15.7525 4.55063L13.9686 2.76289C13.0136 1.80588 14.4462 0.370283 15.4012 1.3273L19.4901 5.45507C19.8354 5.80363 19.837 6.37125 19.4925 6.72157L19.4926 6.72148ZM12.4064 2.79446C12.4064 3.35708 11.9529 3.8131 11.3934 3.8131C10.834 3.8131 10.3803 3.35708 10.3803 2.79446V2.53899C10.3803 2.2583 10.1537 2.03035 9.87404 2.03035H2.78242C2.50295 2.03035 2.27614 2.25846 2.27614 2.53949V9.67107C2.27614 9.95229 2.50296 10.1802 2.78242 10.1802H9.87404C10.1537 10.1802 10.3803 9.95228 10.3803 9.67157V9.41628C10.3803 8.85366 10.834 8.39746 11.3934 8.39746C11.9529 8.39746 12.4064 8.85366 12.4064 9.41628V9.67157C12.4064 11.0777 11.2724 12.2177 9.87399 12.2177H2.78238C1.38395 12.2177 0.25 11.0775 0.25 9.67102V2.53944C0.25 1.13314 1.38395 -0.00720215 2.78238 -0.00720215H9.87399C11.2724 -0.00720215 12.4064 1.13278 12.4064 2.5389V2.79446Z" fill="white"/>
</svg>
