<svg width="16" height="21" viewBox="0 0 16 21" fill="none" xmlns="http://www.w3.org/2000/svg">
<path d="M4.19621 9.42338C5.10096 11.42 7.03794 12.2891 7.99937 12.2891C8.63153 12.2891 9.68545 11.9131 10.5904 11.0881C10.2595 11.1112 9.90587 11.1229 9.52795 11.1229C9.43927 11.1229 9.34624 11.1221 9.24682 11.1206C9.05631 11.2673 8.82032 11.35 8.57543 11.35H7.77021C7.1634 11.35 6.66974 10.8563 6.66974 10.2495C6.66974 9.64272 7.1634 9.14906 7.77021 9.14906H8.57543C8.86633 9.14906 9.13838 9.26244 9.34017 9.458C9.40722 9.45875 9.4733 9.45908 9.53815 9.45908C10.5776 9.45908 11.2627 9.36374 11.7108 9.24875C11.6527 9.1073 11.621 8.95254 11.621 8.79096V6.00076C11.621 5.71051 11.7287 5.43228 11.915 5.21734C11.8156 4.44352 11.6352 3.85276 11.3659 3.41697C10.811 2.51894 9.74128 2.10071 7.99937 2.10071C6.55433 2.10071 5.55644 2.40068 4.94877 3.01775C4.47772 3.4961 4.20475 4.17866 4.07715 5.2095C4.26761 5.42525 4.37776 5.70632 4.37776 6.00076V8.79096C4.37782 9.02313 4.31109 9.23979 4.19621 9.42338Z" fill="white"/>
<path d="M2.21639 9.44973H3.18234C3.54597 9.44973 3.84101 9.1548 3.84101 8.79101V6.00081C3.84101 5.75774 3.709 5.54597 3.51317 5.43184C3.72887 3.14711 4.61053 1.56389 7.99943 1.56389C9.94554 1.56389 11.1604 2.06313 11.8226 3.13487C12.2079 3.75854 12.3933 4.56409 12.4799 5.43528C12.2872 5.55021 12.1578 5.7601 12.1578 6.00076V8.79095C12.1578 9.10461 12.3772 9.36652 12.6708 9.43293C12.245 9.71143 11.3635 9.99588 9.53815 9.99588C9.39031 9.99588 9.23619 9.994 9.07569 9.99014C8.98174 9.8095 8.79321 9.68587 8.57548 9.68587H7.77032C7.45907 9.68587 7.20666 9.93823 7.20666 10.2495C7.20666 10.5608 7.45907 10.8132 7.77032 10.8132H8.57548C8.76358 10.8132 8.92978 10.7207 9.0321 10.5791C9.20162 10.5834 9.36761 10.5861 9.52801 10.5861C11.5855 10.5861 12.8934 10.2349 13.4232 9.53809C13.4457 9.50846 13.4663 9.47893 13.485 9.44973H13.7826C14.1463 9.44973 14.4412 9.1548 14.4412 8.79101V6.00081C14.4412 5.63707 14.1463 5.34214 13.7826 5.34214H13.4193C13.317 4.28956 13.0905 3.39351 12.6244 2.63939C11.7855 1.28153 10.2725 0.62146 7.99938 0.62146C5.72608 0.62146 4.21329 1.28153 3.3743 2.63945C2.90829 3.39356 2.68181 4.28951 2.57955 5.3422H2.21634C1.85254 5.3422 1.55762 5.63707 1.55762 6.00087V8.79106C1.55762 9.1548 1.8526 9.44973 2.21639 9.44973Z" fill="white"/>
<path d="M15.9631 17.6544C15.7441 16.2927 15.2932 14.5386 14.3889 13.9153C13.7723 13.4901 11.6197 12.34 10.7005 11.8489L10.6812 11.8386C10.576 11.7824 10.4476 11.7937 10.3539 11.8673C9.87164 12.2458 9.34374 12.5008 8.78486 12.6252C8.68609 12.6471 8.60498 12.7174 8.56907 12.812L7.99956 14.313L7.43005 12.812C7.39414 12.7173 7.31303 12.6471 7.21426 12.6252C6.65538 12.5008 6.12737 12.2458 5.6451 11.8673C5.55137 11.7936 5.42296 11.7824 5.3178 11.8386C4.40887 12.3242 2.22839 13.4985 1.61277 13.9135C0.571408 14.6151 0.11662 17.1529 0.0360439 17.6545C0.0280454 17.7042 0.032662 17.7551 0.0494642 17.8026C0.0867191 17.9078 1.04192 20.3784 7.99951 20.3784C14.957 20.3784 15.9123 17.9078 15.9496 17.8026C15.9665 17.7551 15.9711 17.7041 15.9631 17.6544ZM12.7235 16.0907H9.96784V15.5103H12.7235V16.0907Z" fill="white"/>
</svg>
