<svg width="18" height="17" viewBox="0 0 18 17" fill="none" xmlns="http://www.w3.org/2000/svg">
<path d="M15.3815 8.65842H13.9938C14.1352 9.04567 14.2125 9.46359 14.2125 9.89917V16.0409C14.2125 16.2225 14.1809 16.3968 14.1234 16.559H16.4175C17.2745 16.559 17.9716 15.8618 17.9716 15.0048V11.2486C17.9717 9.82039 16.8097 8.65842 15.3815 8.65842ZM3.78749 9.89921C3.78749 9.46359 3.86476 9.04571 4.00621 8.65845H2.61854C1.19029 8.65845 0.0283203 9.82042 0.0283203 11.2487V15.0049C0.0283203 15.8618 0.725483 16.559 1.58245 16.559H3.87661C3.81757 16.3927 3.78742 16.2175 3.78749 16.041V9.89921ZM10.5862 7.30899H7.4138C5.98555 7.30899 4.82358 8.47096 4.82358 9.89921V16.041C4.82358 16.327 5.05551 16.559 5.34162 16.559H12.6584C12.9445 16.559 13.1764 16.3271 13.1764 16.041V9.89921C13.1764 8.47096 12.0145 7.30899 10.5862 7.30899ZM9 0.440918C7.28234 0.440918 5.88494 1.83833 5.88494 3.55602C5.88494 4.72111 6.52799 5.73866 7.47765 6.2729C7.9281 6.52628 8.4474 6.67108 9 6.67108C9.5526 6.67108 10.0719 6.52628 10.5223 6.2729C11.472 5.73866 12.1151 4.72108 12.1151 3.55602C12.1151 1.83836 10.7177 0.440918 9 0.440918ZM3.53001 3.34441C2.24541 3.34441 1.20035 4.38947 1.20035 5.67407C1.20035 6.95867 2.24541 8.00373 3.53001 8.00373C3.84569 8.004 4.15809 7.93974 4.44803 7.8149C4.93537 7.60509 5.33721 7.23367 5.58586 6.76844C5.76598 6.43181 5.86004 6.05586 5.85967 5.67407C5.85967 4.38951 4.81461 3.34441 3.53001 3.34441ZM14.47 3.34441C13.1854 3.34441 12.1403 4.38947 12.1403 5.67407C12.14 6.05586 12.234 6.43182 12.4141 6.76844C12.6628 7.23371 13.0646 7.60512 13.552 7.8149C13.8419 7.93974 14.1543 8.004 14.47 8.00373C15.7546 8.00373 16.7997 6.95867 16.7997 5.67407C16.7997 4.38947 15.7546 3.34441 14.47 3.34441Z" fill="white"/>
</svg>
