<svg width="20" height="19" viewBox="0 0 20 19" fill="none" xmlns="http://www.w3.org/2000/svg">
<path fill-rule="evenodd" clip-rule="evenodd" d="M7.5067 5.80117L7.50863 5.80496L7.50863 5.80117H7.5067ZM7.5067 5.80117C7.41004 5.61016 7.35051 5.39713 7.35051 5.16903C7.35051 4.94318 7.53493 4.75891 7.76062 4.75891C7.98646 4.75891 8.17073 4.94334 8.17073 5.16903C8.17073 5.50023 8.43784 5.76734 8.76905 5.76734C9.10025 5.76734 9.36736 5.50024 9.36736 5.16903C9.36736 4.83782 9.10026 4.57071 8.76905 4.57071C7.98632 4.57071 7.35035 3.93478 7.35035 3.15201C7.35035 2.51228 7.77558 1.97791 8.35877 1.80104L8.35909 1.47739C8.35909 1.25155 8.54351 1.06728 8.7692 1.06728C8.99504 1.06728 9.17931 1.2517 9.17931 1.47739V1.80482C9.75887 1.98168 10.1877 2.51606 10.1877 3.15579C10.1877 3.38163 10.0033 3.5659 9.77762 3.5659C9.55178 3.5659 9.36751 3.38148 9.36751 3.15579C9.36751 2.82458 9.10041 2.55747 8.7692 2.55747C8.438 2.55747 8.17089 2.82458 8.17089 3.15579C8.17089 3.487 8.43799 3.7541 8.7692 3.7541C9.55193 3.7541 10.1879 4.39004 10.1879 5.17281C10.1879 5.40227 10.1277 5.61679 10.0298 5.80874H12.0693C12.3214 5.30066 12.4644 4.74 12.4644 4.16817C12.4644 4.04028 12.4569 3.91602 12.4457 3.7957C12.2575 1.89887 10.6771 0.468994 8.7692 0.468994C6.86137 0.468994 5.28092 1.89887 5.09272 3.79175C5.08138 3.91223 5.07398 4.03633 5.07398 4.16059C5.07398 4.73262 5.2132 5.29328 5.46912 5.80117H7.5067ZM15.7459 11.9611C15.0685 11.9611 14.5154 11.408 14.5154 10.7306C14.5154 10.0532 15.0685 9.50013 15.7459 9.50013H19.031V11.9611H15.7459ZM16.5701 11.1407C16.7957 11.1407 16.9802 10.9564 16.9802 10.7306C16.9802 10.5049 16.7957 10.3205 16.5701 10.3205H15.7497C15.524 10.3205 15.3396 10.5047 15.3396 10.7306C15.3396 10.9563 15.5238 11.1407 15.7497 11.1407H16.5701ZM19.031 5.80496V8.67999H17.8005V7.44949C17.8005 6.54266 17.063 5.80512 16.1562 5.80512H12.9688C13.172 5.28587 13.2849 4.729 13.2849 4.16455H17.4356C18.3162 4.16423 19.031 4.90172 19.031 5.80496ZM1.76277 5.80496H4.56625C4.36309 5.28559 4.25394 4.72864 4.25379 4.16435H1.76276C1.55206 4.16435 1.35646 4.24704 1.20589 4.40138C1.05171 4.55555 0.968871 4.76251 0.968871 4.98457C0.968871 5.43612 1.32258 5.80496 1.76277 5.80496ZM13.695 10.7306C13.695 11.8633 14.6169 12.7852 15.7458 12.7852H16.98V17.7109C16.98 18.1624 16.6112 18.5312 16.1559 18.5312H1.78913C1.33762 18.5312 0.96875 18.1624 0.96875 17.7109V6.40695C1.202 6.54239 1.47304 6.62523 1.76264 6.62523H16.156C16.6113 6.62523 16.9802 6.99408 16.9802 7.44937V8.67987H15.7459C14.617 8.67971 13.695 9.60169 13.695 10.7306ZM19.031 15.2462V12.7852H17.8006V16.0665H18.2371C18.6773 16.0665 19.031 15.7015 19.031 15.2462ZM9.3606 12.8448H11.6723V11.5068H9.3606V9.16544H7.96316V11.5068H5.65151V12.8448H7.96316V15.1862H9.3606V12.8448Z" fill="white"/>
</svg>
