<svg width="20" height="19" viewBox="0 0 20 19" fill="none" xmlns="http://www.w3.org/2000/svg">
<path d="M17.3612 0.340576H2.63814C2.05296 0.342249 1.49225 0.565484 1.07846 0.961528C0.664672 1.35757 0.431435 1.89424 0.429688 2.45433V6.68183C0.431435 7.24192 0.664672 7.77859 1.07846 8.17463C1.49225 8.57068 2.05296 8.79391 2.63814 8.79558H3.37429V5.27266C3.17905 5.27266 2.99181 5.19843 2.85375 5.0663C2.7157 4.93416 2.63814 4.75495 2.63814 4.56808C2.63814 4.38121 2.7157 4.202 2.85375 4.06986C2.99181 3.93773 3.17905 3.8635 3.37429 3.8635H16.625C16.8202 3.8635 17.0075 3.93773 17.1455 4.06986C17.2836 4.202 17.3612 4.38121 17.3612 4.56808C17.3612 4.75495 17.2836 4.93416 17.1455 5.0663C17.0075 5.19843 16.8202 5.27266 16.625 5.27266V8.79558H17.3612C17.9463 8.79391 18.507 8.57068 18.9208 8.17463C19.3346 7.77859 19.5679 7.24192 19.5696 6.68183V2.45433C19.5679 1.89424 19.3346 1.35757 18.9208 0.961528C18.507 0.565484 17.9463 0.342249 17.3612 0.340576Z" fill="white"/>
<path d="M4.84668 16.546C4.84843 17.1061 5.08166 17.6428 5.49545 18.0388C5.90924 18.4349 6.46995 18.6581 7.05513 18.6598H12.9443C13.5295 18.6581 14.0902 18.4349 14.504 18.0388C14.9178 17.6428 15.151 17.1061 15.1528 16.546V5.27271H4.84668V16.546ZM7.27082 11.1158C7.40887 10.9837 7.59608 10.9095 7.79128 10.9095C7.98648 10.9095 8.17369 10.9837 8.31174 11.1158L9.26358 12.0268V8.79562C9.26358 8.60876 9.34114 8.42954 9.4792 8.29741C9.61725 8.16527 9.8045 8.09104 9.99973 8.09104C10.195 8.09104 10.3822 8.16527 10.5203 8.29741C10.6583 8.42954 10.7359 8.60876 10.7359 8.79562V12.0268L11.6877 11.1158C11.8266 10.9875 12.0125 10.9165 12.2055 10.9181C12.3986 10.9197 12.5832 10.9938 12.7197 11.1244C12.8562 11.255 12.9336 11.4318 12.9353 11.6165C12.9369 11.8012 12.8627 11.9792 12.7286 12.1121L10.5202 14.2259C10.3821 14.3579 10.1949 14.4321 9.99973 14.4321C9.80453 14.4321 9.61732 14.3579 9.47928 14.2259L7.27082 12.1121C7.13282 11.98 7.05529 11.8008 7.05529 11.614C7.05529 11.4271 7.13282 11.2479 7.27082 11.1158Z" fill="white"/>
</svg>
