<svg width="467" height="199" viewBox="0 0 467 199" fill="none" xmlns="http://www.w3.org/2000/svg">
<path fill-rule="evenodd" clip-rule="evenodd" d="M316.484 123.121C318.742 115.49 319.954 107.409 319.954 99.0456C319.954 92.7746 319.273 86.6628 317.98 80.7802H326.09V123.121H316.484ZM314.049 130.178C312.769 133.417 311.294 136.558 309.639 139.587H379.905L394.04 125.376C394.649 121.434 398.04 118.417 402.132 118.417C406.655 118.417 410.321 122.103 410.321 126.65C410.321 131.197 406.655 134.883 402.132 134.883C400.469 134.883 398.922 134.385 397.63 133.528L384.584 146.644L384.584 146.645L384.584 146.644H305.324C290.083 169.038 264.387 183.744 235.256 183.744C206.074 183.744 180.339 168.986 165.107 146.526H82.6671V146.474L82.6283 146.533L69.4915 133.396C68.1908 134.253 66.6327 134.753 64.9581 134.753C60.404 134.753 56.7122 131.061 56.7122 126.507C56.7122 121.953 60.404 118.261 64.9581 118.261C69.078 118.261 72.4922 121.282 73.1058 125.23L87.3402 139.465L87.2273 139.634H160.898C159.21 136.548 157.708 133.345 156.408 130.041H134.459V73.4974H154.479C155.48 70.3294 156.662 67.2419 158.013 64.2471H134.286L117.968 80.5652L117.967 80.5641V80.5652H91.2583C89.9348 83.3511 87.0953 85.2772 83.8059 85.2772C79.2518 85.2772 75.56 81.5854 75.56 77.0313C75.56 72.4772 79.2518 68.7854 83.8059 68.7854C87.0953 68.7854 89.9348 70.7115 91.2582 73.4973L113.256 73.4973L129.622 57.1307V56.9238H161.758C176.37 31.482 203.812 14.3472 235.256 14.3472C266.837 14.3472 294.382 31.6318 308.945 57.2571H337.789H337.789V57.2574L354.167 73.7232L354.167 73.7236H376.012C377.327 70.9417 380.147 69.0184 383.414 69.0184C387.937 69.0184 391.603 72.7045 391.603 77.2515C391.603 81.7984 387.937 85.4845 383.414 85.4845C380.147 85.4845 377.327 83.5617 376.013 80.7804H349.488V80.78L333.109 64.314H312.529C313.9 67.3591 315.096 70.4997 316.104 73.7233H333.109V130.178H314.049ZM141.527 80.5653H152.58C151.256 86.5139 150.558 92.6982 150.558 99.0456C150.558 107.355 151.754 115.385 153.984 122.973H141.527V80.5653ZM83.8059 73.4974C85.7359 73.4974 87.3046 75.0446 87.3392 76.9664V77.0963C87.3046 79.0181 85.7359 80.5653 83.8059 80.5653C81.8541 80.5653 80.2719 78.9831 80.2719 77.0313C80.2719 75.0796 81.8541 73.4974 83.8059 73.4974ZM68.492 126.507C68.492 128.459 66.9098 130.041 64.958 130.041C63.0063 130.041 61.4241 128.459 61.4241 126.507C61.4241 124.555 63.0063 122.973 64.958 122.973C66.9098 122.973 68.492 124.555 68.492 126.507ZM75.5593 60.5395C75.5593 65.0936 71.8675 68.7854 67.3134 68.7854C62.7593 68.7854 59.0675 65.0936 59.0675 60.5395C59.0675 55.9854 62.7593 52.2936 67.3134 52.2936C71.8675 52.2936 75.5593 55.9854 75.5593 60.5395ZM70.8474 60.5395C70.8474 62.4913 69.2652 64.0735 67.3134 64.0735C65.3617 64.0735 63.7795 62.4913 63.7795 60.5395C63.7795 58.5878 65.3617 57.0056 67.3134 57.0056C69.2652 57.0056 70.8474 58.5878 70.8474 60.5395ZM57.8905 80.5654L94.1309 113.549L94.4078 113.177V113.549H129.747V106.481H98.7127L62.6025 73.4975L57.8905 80.5654ZM15.8671 89.9892H61.424L68.4919 97.0571H15.8671C14.5436 99.843 11.7041 101.769 8.41471 101.769C3.86063 101.769 0.168823 98.0772 0.168823 93.5231C0.168823 88.9691 3.86063 85.2772 8.41471 85.2772C11.7041 85.2772 14.5437 87.2033 15.8671 89.9892ZM11.9487 93.5232C11.9487 95.4749 10.3665 97.0571 8.41477 97.0571C6.46303 97.0571 4.88082 95.4749 4.88082 93.5232C4.88082 91.5714 6.46303 89.9892 8.41477 89.9892C10.3665 89.9892 11.9487 91.5714 11.9487 93.5232ZM129.747 97.0571H94.4072L87.3393 89.9892H129.747V97.0571ZM129.748 122.973H77.9166L84.9846 130.041H129.748V122.973ZM51.206 73.4974H62.6014L57.8895 80.5653H51.206C49.8826 83.3511 47.043 85.2772 43.7536 85.2772C39.1996 85.2772 35.5078 81.5854 35.5078 77.0313C35.5078 72.4772 39.1996 68.7854 43.7536 68.7854C47.043 68.7854 49.8826 70.7115 51.206 73.4974ZM47.2875 77.0313C47.2875 78.9831 45.7053 80.5653 43.7536 80.5653C41.8018 80.5653 40.2196 78.9831 40.2196 77.0313C40.2196 75.0796 41.8018 73.4974 43.7536 73.4974C45.7053 73.4974 47.2875 75.0796 47.2875 77.0313ZM75.56 57.0056H122.679L115.611 64.0735H75.56V57.0056ZM39.4268 106.481H80.2718L87.3397 113.549H39.4268C38.1034 116.335 35.2638 118.261 31.9745 118.261C27.4204 118.261 23.7286 114.569 23.7286 110.015C23.7286 105.461 27.4204 101.769 31.9745 101.769C35.2639 101.769 38.1034 103.695 39.4268 106.481ZM35.5084 110.015C35.5084 111.967 33.9261 113.549 31.9744 113.549C30.0226 113.549 28.4404 111.967 28.4404 110.015C28.4404 108.063 30.0226 106.481 31.9744 106.481C33.9261 106.481 35.5084 108.063 35.5084 110.015ZM306.017 99.557C306.017 138.07 274.248 169.29 235.06 169.29C195.872 169.29 164.103 138.07 164.103 99.557C164.103 61.0444 195.872 29.8237 235.06 29.8237C274.248 29.8237 306.017 61.0444 306.017 99.557ZM399.793 69.0187C395.27 69.0187 391.604 65.3326 391.604 60.7856C391.604 56.2387 395.27 52.5526 399.793 52.5526C404.315 52.5526 407.982 56.2387 407.982 60.7856C407.982 65.3326 404.315 69.0187 399.793 69.0187ZM399.793 64.3139C397.855 64.3139 396.283 62.7342 396.283 60.7855C396.283 58.8368 397.855 57.257 399.793 57.257C401.731 57.257 403.303 58.8368 403.303 60.7855C403.303 62.7342 401.731 64.3139 399.793 64.3139ZM379.905 77.2306C379.916 75.2915 381.483 73.7232 383.414 73.7232C385.353 73.7232 386.924 75.3029 386.924 77.2516C386.924 79.2003 385.353 80.78 383.414 80.78C381.483 80.78 379.916 79.2116 379.905 77.2726V77.2306ZM409.152 80.7802L373.16 113.712L372.885 113.341V113.712H337.788V106.655H368.61L404.472 73.7233H415.789C417.104 70.9416 419.924 69.0184 423.191 69.0184C427.713 69.0184 431.38 72.7045 431.38 77.2515C431.38 81.7984 427.713 85.4845 423.191 85.4845C419.924 85.4845 417.104 83.5615 415.789 80.7801L409.152 80.7802ZM405.642 90.1894H450.885C452.2 87.4079 455.02 85.4849 458.286 85.4849C462.809 85.4849 466.476 89.1709 466.476 93.7179C466.476 98.2649 462.809 101.951 458.286 101.951C455.02 101.951 452.2 100.028 450.885 97.2463H398.623L405.642 90.1894ZM337.789 97.2462H372.885L379.905 90.1893H337.789V97.2462ZM389.263 123.121H337.788V130.178H382.244L389.263 123.121ZM344.808 57.2571H391.603V64.314H351.827L344.808 57.2571ZM427.488 106.655H386.924L379.905 113.712H427.488C428.802 116.494 431.622 118.417 434.889 118.417C439.412 118.417 443.078 114.731 443.078 110.184C443.078 105.637 439.412 101.951 434.889 101.951C431.622 101.951 428.802 103.874 427.488 106.655ZM419.681 77.2516C419.681 79.2003 421.252 80.78 423.19 80.78C425.129 80.78 426.7 79.2003 426.7 77.2516C426.7 75.3029 425.129 73.7232 423.19 73.7232C421.252 73.7232 419.681 75.3029 419.681 77.2516ZM458.287 97.2462C456.348 97.2462 454.777 95.6665 454.777 93.7178C454.777 91.7691 456.348 90.1894 458.287 90.1894C460.225 90.1894 461.796 91.7691 461.796 93.7178C461.796 95.6665 460.225 97.2462 458.287 97.2462ZM431.379 110.184C431.379 112.133 432.951 113.712 434.889 113.712C436.827 113.712 438.399 112.133 438.399 110.184C438.399 108.235 436.827 106.655 434.889 106.655C432.951 106.655 431.379 108.235 431.379 110.184ZM402.132 130.178C400.194 130.178 398.622 128.598 398.622 126.65C398.622 124.701 400.194 123.121 402.132 123.121C404.07 123.121 405.642 124.701 405.642 126.65C405.642 128.598 404.07 130.178 402.132 130.178Z" fill="url(#paint0_radial_1807_1907)"/>
<path d="M301.374 103.272C299.413 137.565 270.475 164.78 235.066 164.78C198.386 164.78 168.652 135.579 168.652 99.5571C168.652 63.5357 198.386 34.3345 235.066 34.3345C268.315 34.3345 295.858 58.3301 300.718 89.6499H299.481C294.632 58.9958 267.639 35.5349 235.066 35.5349C199.061 35.5349 169.874 64.1986 169.874 99.5571C169.874 134.916 199.061 163.579 235.066 163.579C269.8 163.579 298.19 136.902 300.149 103.272H301.374Z" fill="#C5D82E"/>
<path d="M279.418 56.7157C288.23 65.5135 294.349 76.921 296.462 89.6499H295.302C293.201 77.2373 287.218 66.1135 278.619 57.5222C278.221 57.6462 277.769 57.5653 277.437 57.2708L274.022 54.242C273.681 53.9388 273.555 53.4881 273.656 53.0772C263.137 44.6445 249.703 39.587 235.066 39.587C234.785 39.587 234.504 39.5888 234.224 39.5925V40.5322C234.224 40.5322 234.224 40.5322 234.224 40.5322L234.225 41.5585L234.285 41.618C234.265 41.6182 234.244 41.6185 234.224 41.6188V42.5964C234.504 42.5925 234.785 42.5905 235.066 42.5905L235.066 43.639C234.785 43.639 234.504 43.641 234.224 43.645V44.6606C234.504 44.6566 234.785 44.6545 235.066 44.6545L235.066 45.665C234.784 45.665 234.504 45.6671 234.224 45.6712V45.8954H233.646C234.21 45.9148 234.694 46.2459 234.923 46.7187C234.97 46.7186 235.018 46.7185 235.066 46.7185V47.957C235.065 47.957 235.066 47.957 235.066 47.957L235.065 48.7826C235.065 48.7826 235.065 48.7826 235.065 48.7826L235.066 49.9726C235.065 49.9726 235.066 49.9726 235.066 49.9726L235.065 50.8466C235.065 50.8466 235.065 50.8466 235.065 50.8466L235.066 51.9882C235.065 51.9882 235.066 51.9882 235.066 51.9882L235.065 52.9106C235.065 52.9106 235.065 52.9106 235.065 52.9106L235.066 54.0038C235.065 54.0038 235.066 54.0038 235.066 54.0038L235.065 54.3584C235.065 55.1564 234.407 55.8034 233.594 55.8034C232.781 55.8034 232.122 55.1564 232.122 54.3584V47.3396C232.122 46.5587 232.753 45.9226 233.541 45.8954H232.963V45.7039C232.753 45.7116 232.543 45.7206 232.333 45.7307V44.719C232.543 44.7091 232.753 44.7003 232.963 44.6927V43.6764C232.753 43.6839 232.543 43.6925 232.333 43.7023V42.6526C232.543 42.6431 232.753 42.6346 232.963 42.6273V41.6491C232.939 41.6499 232.916 41.6507 232.893 41.6516L232.963 41.5602V39.6219C200.211 40.7104 174 67.1277 174 99.5571C174 131.29 199.097 157.267 230.862 159.387V159.413H231.27C231.553 159.43 231.838 159.446 232.122 159.459V153.221H232.702C231.913 153.194 231.282 152.558 231.282 151.777V144.758C231.282 143.96 231.941 143.313 232.754 143.313C233.567 143.313 234.225 143.96 234.225 144.758V151.777C234.225 152.558 233.595 153.194 232.806 153.221H233.384V153.424C233.383 153.424 233.384 153.424 233.384 153.424L233.384 154.435C233.384 154.435 233.384 154.435 233.384 154.435L233.384 155.451C233.383 155.451 233.384 155.451 233.384 155.451L233.384 156.5C233.384 156.5 233.384 156.5 233.384 156.5L233.384 157.478C233.383 157.478 233.384 157.478 233.384 157.478L233.384 158.565C233.384 158.565 233.384 158.565 233.384 158.565L233.384 159.505C233.942 159.52 234.503 159.527 235.066 159.527C267.521 159.527 294.062 134.662 296.016 103.272H297.163C295.208 135.284 268.153 160.652 235.066 160.652C234.503 160.652 233.943 160.644 233.384 160.63V160.653H232.122V160.584C199.131 159.076 172.855 132.33 172.855 99.5571C172.855 66.5066 199.578 39.5858 232.963 38.4968V38.4638H234.224V38.468C234.504 38.4644 234.785 38.4625 235.066 38.4625C249.996 38.4625 263.697 43.6275 274.419 52.2373C274.828 52.0907 275.304 52.1657 275.65 52.4724L279.064 55.5012C279.42 55.8167 279.542 56.2919 279.418 56.7157Z" fill="#C5D82E"/>
<path d="M230.862 155.325V156.376C230.862 156.376 230.862 156.376 230.862 156.376L230.862 157.356C230.862 157.356 230.862 157.356 230.862 157.356L230.862 158.446C199.626 156.327 174.957 130.771 174.957 99.5571C174.957 68.0636 200.07 42.3304 231.703 40.6173V41.7055C200.681 43.4172 176.063 68.6638 176.063 99.5571C176.063 129.89 199.796 154.779 230.021 157.292V156.311C200.347 153.801 177.058 129.35 177.058 99.5571C177.058 72.2013 196.693 49.3491 222.877 43.8503V43.8301H222.974C224.325 43.5486 225.694 43.3133 227.079 43.1261L227.081 47.9588H222.877V46.9991C221.88 47.2211 220.894 47.4696 219.919 47.744L217.832 48.1634V48.3763C195.967 55.4731 180.189 75.7056 180.189 99.5571C180.189 123.102 195.563 143.12 216.991 150.458V150.951L226.238 152.808L230.862 153.634V154.307C201.95 152.196 179.16 128.49 179.16 99.5571C179.16 73.3465 197.863 51.4257 222.877 45.9632V44.9232C197.287 50.4038 178.126 72.783 178.126 99.5571C178.126 129.051 201.378 153.212 230.862 155.325Z" fill="#C5D82E"/>
<path d="M216.991 149.34C196.167 142.048 181.262 122.512 181.262 99.5571C181.262 76.2946 196.569 56.5431 217.832 49.4873V50.7967C217.831 50.797 217.83 50.7973 217.829 50.7977V51.6727C217.83 51.6724 217.831 51.672 217.832 51.6717V52.9361C201.371 58.8061 188.9 72.8448 185.5 90.0627H186.407C189.773 73.3307 201.864 59.6781 217.832 53.8673V55.0872C217.831 55.0876 217.83 55.0879 217.829 55.0883V56.0769C217.83 56.0766 217.831 56.0762 217.832 56.0759V57.2516C205.11 62.2542 195.171 72.6305 190.924 85.5219H203.96C203.96 85.0659 204.337 84.6963 204.801 84.6963H213.208C213.672 84.6963 214.049 85.0659 214.049 85.5219H220.774V86.7603H214.049C214.049 87.2162 213.672 87.5859 213.208 87.5859H204.801C204.337 87.5859 203.96 87.2162 203.96 86.7603H189.377C193.371 72.9796 203.656 61.8007 216.988 56.4078V55.4117C202.085 61.3032 190.852 74.2623 187.593 90.0627H203.96C203.96 89.6067 204.337 89.2371 204.801 89.2371H213.208C213.672 89.2371 214.049 89.6067 214.049 90.0627H220.774V91.3011H214.049C214.049 91.757 213.672 92.1267 213.208 92.1267H204.801C204.337 92.1267 203.96 91.757 203.96 91.3011H184.044C187.065 73.1549 199.882 58.2431 216.988 51.9727V51.0922C198.385 57.7864 184.71 74.5158 182.762 94.6035H203.96C203.96 94.1475 204.337 93.7779 204.801 93.7779H213.208C213.672 93.7779 214.049 94.1475 214.049 94.6035H220.774V95.8419H214.049C214.049 96.2978 213.672 96.6675 213.208 96.6675H204.801C204.337 96.6675 203.96 96.2978 203.96 95.8419H182.657C182.568 97.0689 182.523 98.3078 182.523 99.5571C182.523 121.507 196.478 140.256 216.151 147.713V146.826C196.953 139.412 183.364 121.043 183.364 99.5571C183.364 99.4194 183.364 99.2817 183.365 99.1443H203.96C203.96 98.6883 204.337 98.3187 204.801 98.3187H213.208C213.672 98.3187 214.049 98.6883 214.049 99.1443H220.774V100.383H214.049C214.049 100.839 213.672 101.208 213.208 101.208H204.801C204.337 101.208 203.96 100.839 203.96 100.383H186.635C186.97 119.709 199.041 136.229 216.151 143.363V142.359C199.937 135.439 188.423 119.894 187.613 101.621H188.727C189.543 119.593 200.963 134.856 216.991 141.522L216.992 144.141L216.991 144.932C198.782 137.932 185.815 120.665 185.472 100.383H184.582C184.928 121.156 198.281 138.823 216.991 145.87V149.34Z" fill="#C5D82E"/>
<path d="M248.937 143.039C264.646 138.21 276.761 125.398 280.356 109.441L282.089 106.179C279.517 123.953 266.744 138.501 249.776 143.923V144.893C267.271 139.422 280.453 124.456 283.04 106.162H284.214C281.561 125.381 267.494 141.039 248.937 146.337V143.039Z" fill="#C5D82E"/>
<path d="M281.957 87.5859H283.157C278.924 71.1364 266.171 58.0182 249.778 53.025L249.777 55.8013L249.778 56.3428C263.272 60.7714 274.003 71.1252 278.771 84.2593L280.753 86.7553C276.509 72.1187 265.169 60.4179 250.618 55.4684V54.4931C265.962 59.5988 277.856 72.051 281.957 87.5859Z" fill="#C5D82E"/>
<path d="M228.76 50.4338H220.354V65.4616H213.57V77.8951H250.464V105.997C250.464 116.712 244.829 125.102 232.753 125.102C220.778 125.102 214.941 118.936 214.941 106.806H201.859C201.859 121.451 208.755 131.171 219.513 135.332V149.093H227.92V137.363C229.483 137.545 231.096 137.637 232.753 137.637C234.273 137.637 235.745 137.555 237.167 137.395V149.093H246.415V135.006C257.475 130.253 263.748 119.467 263.748 105.997V65.4616H247.255V50.4338H238.008V65.4616H228.76V50.4338Z" fill="#C5D82E"/>
<path d="M242.211 84.6963H223.296V104.092C223.023 104.943 222.876 105.846 222.876 106.781C222.876 111.911 227.298 116.069 232.754 116.069C238.209 116.069 242.632 111.911 242.632 106.781C242.632 105.846 242.485 104.943 242.211 104.092V84.6963Z" fill="#C5D82E"/>
<path fill-rule="evenodd" clip-rule="evenodd" d="M235.066 166.844C272.484 166.844 302.897 137.385 303.57 100.795H301.468C301.476 100.384 301.48 99.9708 301.48 99.5571C301.48 99.1434 301.476 98.7306 301.468 98.3187H296.856V97.0803H299.329C299.297 96.2505 299.248 95.4248 299.183 94.6035H301.291C301.227 93.7734 301.148 92.9478 301.053 92.1267H303.168C299.402 58.4617 270.349 32.2705 235.066 32.2705C197.225 32.2705 166.55 62.3957 166.55 99.5571C166.55 136.718 197.225 166.844 235.066 166.844ZM300.245 100.795C300.253 100.384 300.257 99.9708 300.257 99.5571H296.856V100.795H300.245ZM244.41 162.054C241.36 162.49 238.239 162.716 235.066 162.716C199.547 162.716 170.753 134.439 170.753 99.5571C170.753 93.7397 171.554 88.1061 173.054 82.7567C172.731 82.5601 172.574 82.1653 172.699 81.7955L174.381 76.8111C174.508 76.4334 174.887 76.2066 175.274 76.2503C184.718 52.9042 207.929 36.3985 235.066 36.3985C267.59 36.3985 294.475 60.1085 298.777 90.8883H301.746C297.424 58.5075 269.217 33.5089 235.066 33.5089C197.922 33.5089 167.811 63.0797 167.811 99.5571C167.811 136.034 197.922 165.605 235.066 165.605C271.365 165.605 300.947 137.364 302.274 102.034H299.329C298.215 130.423 278.02 154.006 250.983 160.766C250.85 161.165 250.507 161.483 250.058 161.568L245.54 162.424C245.108 162.506 244.686 162.352 244.41 162.054ZM244.145 160.917C241.18 161.336 238.149 161.553 235.066 161.553C200.201 161.553 171.937 133.797 171.937 99.5571C171.937 93.8632 172.719 88.3487 174.182 83.1112C174.544 83.1212 174.884 82.8997 175.004 82.5453L176.685 77.561C176.802 77.2147 176.673 76.8465 176.39 76.6396C185.671 53.7441 208.444 37.561 235.066 37.561C266.935 37.561 293.288 60.7526 297.582 90.8883H294.531C290.281 62.5287 265.496 40.7298 235.486 40.5279V41.6144C264.884 41.8159 289.172 63.1309 293.412 90.8883H290.551V90.0627C290.551 89.7047 290.319 89.3999 289.994 89.2854C285.662 66.8044 267.373 49.1709 244.311 45.4018V44.3724C268.07 48.1822 286.887 66.4332 291.114 89.6499H292.199C287.708 64.4999 266.418 45.0285 240.11 42.8029V43.4176H240.107V47.5463H244.311V46.4266C266.788 50.1716 284.613 67.3384 288.937 89.2371H287.844C283.911 69.73 269.044 54.085 249.778 48.7181L249.777 51.2607L249.778 52.1105C266.663 57.1537 279.8 70.6524 284.074 87.5859H285.322C281.062 70.2749 267.769 56.4258 250.618 51.1198V50.2547C268.777 55.773 282.726 70.701 286.557 89.2371H285.927C285.463 89.2371 285.086 89.6067 285.086 90.0627V90.8883H282.984L275.418 82.6322H271.215V81.3938H267.012V85.5219H271.215V83.8706H275.418L282.984 92.1267H285.086V93.3651H282.564L277.94 88.8243H271.215V87.5859H267.012V91.7139H271.215V90.0627H277.94L282.564 94.6035H285.086V95.8419H271.215V94.6035H267.012V98.7315H271.215V97.0803H285.086V98.3187H282.564L277.94 102.859H271.215V101.621H267.012V105.749H271.215V104.098H277.94L282.564 99.5571H285.086V100.795H282.984L277.94 109.052H271.215V107.4H267.012V111.528H271.215V110.29H277.94L282.984 102.034H285.086V103.685C285.086 104.141 285.463 104.511 285.927 104.511H287.369C285.305 125.792 270.079 143.304 249.776 149.108V148.247C269.085 142.629 283.679 126.236 286.334 106.162H285.112C282.441 125.866 267.988 141.913 248.937 147.247L248.935 149.92L248.937 150.623C270.36 145.025 286.528 126.771 288.636 104.511H289.713C287.186 131.749 264.019 153.13 235.7 153.446L234.645 153.634V154.458L234.917 154.459L235.066 154.46C265.096 154.46 289.596 131.206 290.915 102.034H291.504C291.649 102.281 291.921 102.447 292.232 102.447H293.996C292.47 132.97 266.894 157.284 235.486 157.5V156.522C266.06 156.309 291.011 132.867 292.951 103.272H291.881C289.934 132.423 265.241 155.475 235.066 155.475C234.925 155.475 234.785 155.475 234.645 155.474V156.522C234.645 156.522 234.645 156.522 234.645 156.522V158.586C234.785 158.587 234.925 158.588 235.066 158.588C267.276 158.588 293.569 133.706 295.104 102.447H296.015C296.326 102.447 296.598 102.281 296.743 102.034H298.145C297.032 129.858 277.246 152.971 250.752 159.624C250.478 159.308 250.043 159.143 249.598 159.227L245.08 160.082C244.619 160.17 244.269 160.503 244.145 160.917ZM291.391 100.795V99.5571H290.551V100.795H291.391ZM291.391 98.3187H290.957C290.948 97.9047 290.934 97.4919 290.915 97.0803H291.391V98.3187ZM291.504 95.8419H290.845C290.817 95.4278 290.784 95.015 290.747 94.6035H298.117V95.8419H296.743C296.598 95.5951 296.326 95.4291 296.015 95.4291H292.232C291.921 95.4291 291.649 95.5951 291.504 95.8419ZM299.956 93.3651C299.916 92.9511 299.871 92.5383 299.823 92.1267H290.551V93.3651H299.956Z" fill="#C5D82E"/>
<path fill-rule="evenodd" clip-rule="evenodd" d="M318.416 153.601C300.739 180.559 270.253 198.364 235.608 198.364C200.963 198.364 170.477 180.559 152.8 153.601H161.396C178.111 176.453 205.126 191.295 235.607 191.295C266.088 191.295 293.103 176.453 309.818 153.601H318.416ZM321.321 49.938C304.212 20.3614 272.234 0.462402 235.608 0.462402C198.982 0.462402 167.004 20.3614 149.895 49.938H158.168C174.496 24.4344 203.077 7.52984 235.607 7.52984C268.137 7.52984 296.718 24.4344 313.046 49.938H321.321Z" fill="url(#paint1_linear_1807_1907)"/>
<path d="M233.52 174.129L232.978 174.11C232.913 174.108 232.879 174.139 232.877 174.204L232.73 178.389L230.972 178.327L231.138 173.589C231.146 173.333 231.247 173.117 231.437 172.943C231.629 172.764 231.977 172.685 232.484 172.702L233.568 172.74L233.52 174.129Z" fill="#012426"/>
<path d="M213.071 169.42L211.504 174.874L213.195 175.358L213.897 172.916L214.027 175.596L215.646 176.059L217.214 170.605L215.522 170.121L214.821 172.559L214.69 169.883L213.071 169.42Z" fill="#012426"/>
<path fill-rule="evenodd" clip-rule="evenodd" d="M202.458 165.077C202.3 165.044 202.116 165.067 201.906 165.145C201.49 165.3 201.152 165.654 200.895 166.204L199.916 168.3C199.658 168.85 199.604 169.336 199.752 169.754C199.827 169.965 199.928 170.12 200.055 170.22L202.974 171.578L205.377 166.435L202.458 165.077ZM202.731 166.432C202.757 166.375 202.798 166.361 202.854 166.387L203.35 166.618L201.811 169.911L201.315 169.68C201.258 169.654 201.244 169.613 201.27 169.557L202.731 166.432Z" fill="#012426"/>
<path d="M198.257 169.34L195.51 167.757L196.021 166.874L197.244 167.578L197.839 166.551L196.616 165.846L197.119 164.976L198.342 165.68L199.065 164.431L197.842 163.727L198.353 162.843L201.1 164.426L198.257 169.34Z" fill="#012426"/>
<path d="M192.415 165.865C191.991 165.59 191.75 165.324 191.697 165.069C191.642 164.818 191.687 164.583 191.83 164.364L192.486 163.355L193.962 164.311L193.402 165.172C193.367 165.227 193.375 165.27 193.427 165.304L193.808 165.551C193.86 165.585 193.903 165.575 193.939 165.52L195.821 162.629C195.854 162.578 195.844 162.537 195.791 162.503L195.411 162.257C195.359 162.223 195.317 162.231 195.284 162.281L194.719 163.149L193.243 162.193L193.904 161.177C194.044 160.962 194.24 160.827 194.492 160.775C194.747 160.72 195.088 160.831 195.512 161.106L196.8 161.941C197.227 162.217 197.467 162.482 197.519 162.736C197.575 162.988 197.464 163.327 197.189 163.751L195.523 166.311C195.244 166.739 194.978 166.979 194.724 167.03C194.47 167.087 194.13 166.976 193.703 166.7L192.415 165.865Z" fill="#012426"/>
<path d="M190.587 164.709L188.021 162.849L188.622 162.024L189.764 162.852L190.463 161.891L189.321 161.063L189.913 160.25L191.055 161.078L191.905 159.912L190.762 159.083L191.363 158.258L193.929 160.118L190.587 164.709Z" fill="#012426"/>
<path d="M187.614 155.26L184.035 159.669L185.403 160.774L187.005 158.8L186.075 161.318L187.384 162.375L190.963 157.965L189.595 156.86L187.995 158.831L188.923 156.317L187.614 155.26Z" fill="#012426"/>
<path d="M183.304 159.226L180.266 156.299L180.976 155.565L181.862 156.419L185.102 153.071L186.368 154.291L183.128 157.639L184.014 158.493L183.304 159.226Z" fill="#012426"/>
<path fill-rule="evenodd" clip-rule="evenodd" d="M177.757 153.762C177.412 153.392 177.243 153.077 177.253 152.816C177.263 152.558 177.455 152.255 177.827 151.909L177.948 151.797C178.273 151.494 178.531 151.329 178.723 151.301C178.909 151.274 179.174 151.393 179.519 151.659C179.278 151.297 179.179 151.022 179.221 150.837C179.263 150.648 179.355 150.487 179.497 150.355L180.374 149.539C180.669 149.265 180.865 149.041 180.959 148.868L182.159 150.152C182.05 150.339 181.841 150.575 181.533 150.862L180.651 151.683C180.622 151.71 180.615 151.744 180.629 151.785L181.025 152.208L182.659 150.687L183.859 151.971L179.7 155.841L177.757 153.762ZM178.882 153.328C178.835 153.373 178.832 153.417 178.875 153.462L179.248 153.861L180.327 152.858L179.954 152.459C179.911 152.413 179.866 152.412 179.822 152.454L178.882 153.328Z" fill="#012426"/>
<path fill-rule="evenodd" clip-rule="evenodd" d="M175.534 151.329L180.74 148.691L179.688 147.44L178.497 148.116L177.828 147.321L178.699 146.264L177.65 145.017L174.143 149.674L175.534 151.329ZM177.603 148.629L176.006 149.524L177.168 148.112L177.603 148.629Z" fill="#012426"/>
<path d="M172.952 148.258L171.869 146.875L175.253 144.237L174.383 143.127L175.481 142.271L177.433 144.765L172.952 148.258Z" fill="#012426"/>
<path d="M170.6 145.181L169.59 143.742L174.249 140.488L175.258 141.926L170.6 145.181Z" fill="#012426"/>
<path d="M169.168 143.155L170.355 142.415L169.502 141.054L174.039 140.225L171.958 136.902L170.776 137.639L171.548 138.87L167.069 139.804L169.168 143.155Z" fill="#012426"/>
<path d="M166.708 139.307L165.17 136.539L166.064 136.045L166.749 137.277L167.789 136.701L167.105 135.469L167.986 134.982L168.67 136.214L169.934 135.515L169.25 134.283L170.144 133.788L171.681 136.556L166.708 139.307Z" fill="#012426"/>
<path fill-rule="evenodd" clip-rule="evenodd" d="M168.479 130.399C168.375 130.276 168.216 130.181 168.002 130.114C167.578 129.98 167.094 130.051 166.552 130.327L164.487 131.377C163.945 131.653 163.602 132.001 163.461 132.422C163.39 132.634 163.374 132.819 163.412 132.975L164.874 135.838L169.941 133.262L168.479 130.399ZM167.858 131.634C167.913 131.606 167.955 131.619 167.983 131.675L168.231 132.161L164.986 133.811L164.738 133.324C164.71 133.269 164.723 133.228 164.779 133.199L167.858 131.634Z" fill="#012426"/>
<path fill-rule="evenodd" clip-rule="evenodd" d="M165.932 124.284C165.841 124.15 165.693 124.039 165.487 123.95C165.08 123.773 164.591 123.794 164.023 124.011L161.859 124.84C161.291 125.058 160.914 125.369 160.73 125.772C160.637 125.976 160.601 126.158 160.623 126.317L161.777 129.317L167.086 127.284L165.932 124.284ZM165.184 125.447C165.243 125.425 165.282 125.442 165.305 125.501L165.501 126.01L162.101 127.312L161.905 126.803C161.882 126.744 161.9 126.705 161.958 126.683L165.184 125.447Z" fill="#012426"/>
<path d="M160.087 124.672L159.543 123.002L164.951 121.248L165.495 122.918L160.087 124.672Z" fill="#012426"/>
<path d="M158.494 119.494C158.363 119.007 158.363 118.649 158.494 118.424C158.624 118.2 158.937 118.023 159.428 117.892L160.275 117.665L160.73 119.361L159.705 119.635C159.644 119.652 159.62 119.69 159.636 119.75L159.753 120.187C159.77 120.248 159.809 120.269 159.871 120.252L163.21 119.359C163.267 119.344 163.289 119.307 163.272 119.246L163.155 118.809C163.139 118.749 163.101 118.727 163.045 118.743L161.963 119.032L162.045 119.338L161.431 119.503L160.893 117.5L163.648 116.763L163.78 117.253L163.307 117.558C163.652 117.52 163.909 117.793 164.081 118.377L164.385 119.506C164.516 119.996 164.518 120.354 164.389 120.576C164.259 120.802 163.948 120.98 163.459 121.111L160.504 121.901C160.013 122.032 159.654 122.033 159.428 121.902C159.202 121.775 159.023 121.465 158.892 120.975L158.494 119.494Z" fill="#012426"/>
<path d="M158.049 117.533L157.653 115.822L163.194 114.545L163.59 116.256L158.049 117.533Z" fill="#012426"/>
<path d="M157.476 115.167L156.742 111.017L157.749 110.84L157.963 112.05L162.556 111.242L162.862 112.971L158.269 113.779L158.482 114.99L157.476 115.167Z" fill="#012426"/>
<path fill-rule="evenodd" clip-rule="evenodd" d="M156.526 109.584L162.332 110.201L162.132 108.58L160.764 108.499L160.637 107.469L161.945 107.056L161.746 105.44L156.262 107.44L156.526 109.584ZM159.735 108.444L157.906 108.327L159.652 107.773L159.735 108.444Z" fill="#012426"/>
<path d="M156.083 105.553L155.96 103.801L160.244 103.502L160.145 102.097L161.534 102L161.756 105.157L156.083 105.553Z" fill="#012426"/>
<path d="M155.956 96.6081C155.974 96.1034 156.078 95.7615 156.27 95.5843C156.458 95.4083 156.683 95.3255 156.945 95.3347L158.149 95.3766L158.088 97.1315L157.06 97.0957C156.995 97.0935 156.961 97.1229 156.959 97.1854L156.943 97.6377C156.941 97.7002 156.972 97.7318 157.037 97.7341L160.491 97.8544C160.551 97.8565 160.581 97.827 160.583 97.7645L160.599 97.3122C160.601 97.2496 160.573 97.2181 160.513 97.2161L159.476 97.1799L159.537 95.4249L160.751 95.4673C161.007 95.4762 161.224 95.5744 161.399 95.7629C161.578 95.9529 161.657 96.3014 161.64 96.8061L161.586 98.338C161.568 98.8451 161.464 99.1871 161.273 99.3616C161.085 99.5403 160.737 99.6198 160.231 99.6023L157.174 99.4957C156.663 99.4779 156.319 99.3741 156.144 99.183C155.965 98.9956 155.885 98.6471 155.903 98.14L155.956 96.6081Z" fill="#012426"/>
<path d="M156.334 90.3526L160.695 90.7333C161.199 90.7773 161.535 90.8974 161.7 91.095C161.868 91.294 161.93 91.6461 161.885 92.1493L161.752 93.6762C161.707 94.1816 161.586 94.5178 161.385 94.6821C161.188 94.8506 160.836 94.912 160.332 94.8679L155.972 94.4873L156.125 92.7381L160.671 93.135C160.736 93.1407 160.771 93.1118 160.777 93.0469L160.816 92.5998C160.821 92.5376 160.792 92.5044 160.727 92.4987L156.181 92.1019L156.334 90.3526Z" fill="#012426"/>
<path fill-rule="evenodd" clip-rule="evenodd" d="M156.805 86.7111C156.876 86.2111 157.015 85.8818 157.224 85.7257C157.432 85.5705 157.789 85.5291 158.293 85.5997L158.456 85.6227C158.896 85.6844 159.187 85.7807 159.33 85.9115C159.468 86.0391 159.542 86.3199 159.552 86.7538C159.683 86.3396 159.834 86.0903 160.005 86.0061C160.178 85.9197 160.362 85.89 160.554 85.9168L161.741 86.0833C162.141 86.1394 162.439 86.1504 162.632 86.1145L162.387 87.8531C162.174 87.8861 161.858 87.873 161.44 87.8144L160.246 87.6469C160.207 87.6414 160.176 87.6576 160.153 87.6943L160.072 88.2675L162.285 88.578L162.04 90.3166L156.409 89.5268L156.805 86.7111ZM157.852 87.3111C157.787 87.3021 157.751 87.3278 157.742 87.3899L157.666 87.9302L159.127 88.1351L159.203 87.5946C159.211 87.5327 159.184 87.498 159.123 87.4895L157.852 87.3111Z" fill="#012426"/>
<path fill-rule="evenodd" clip-rule="evenodd" d="M157.875 81.4467C157.998 80.9567 158.171 80.6438 158.395 80.5103C158.618 80.3777 158.977 80.3739 159.471 80.4965L159.631 80.5364C160.062 80.6436 160.341 80.7697 160.47 80.9149C160.594 81.056 160.638 81.3429 160.602 81.7757C160.776 81.3773 160.952 81.1453 161.131 81.0792C161.312 81.0113 161.498 81.001 161.687 81.0478L162.849 81.3371C163.241 81.4347 163.536 81.4766 163.733 81.461L163.307 83.1646C163.091 83.1753 162.778 83.1291 162.369 83.0273L161.199 82.7362C161.16 82.7265 161.128 82.7396 161.101 82.7736L160.961 83.3353L163.129 83.8748L162.704 85.5785L157.186 84.2057L157.875 81.4467ZM158.853 82.1525C158.789 82.1368 158.751 82.1587 158.736 82.2194L158.604 82.7489L160.035 83.1049L160.167 82.5754C160.182 82.5147 160.158 82.4773 160.099 82.4626L158.853 82.1525Z" fill="#012426"/>
<path d="M158.342 79.3499L159.217 76.3078L160.199 76.589L159.81 77.9433L160.954 78.2706L161.343 76.9162L162.311 77.1931L161.922 78.5475L163.311 78.9451L163.7 77.5906L164.683 77.8719L163.809 80.9141L158.342 79.3499Z" fill="#012426"/>
<path d="M166.237 73.3335L160.86 71.4862L160.287 73.1462L162.694 73.9731L160.005 73.9625L159.457 75.5514L164.834 77.3988L165.407 75.7388L163.004 74.913L165.689 74.9225L166.237 73.3335Z" fill="#012426"/>
<path d="M162.178 68.0512C162.367 67.5831 162.583 67.2971 162.823 67.196C163.06 67.0948 163.3 67.0939 163.543 67.1919L164.66 67.6423L164.001 69.2705L163.047 68.8859C162.987 68.8616 162.946 68.8779 162.922 68.936L162.752 69.3555C162.729 69.4136 162.747 69.4538 162.808 69.4781L166.011 70.7697C166.067 70.7922 166.106 70.7748 166.129 70.7168L166.299 70.2972C166.323 70.2392 166.307 70.2 166.251 70.1775L165.289 69.7896L165.948 68.1616L167.074 68.6153C167.312 68.7113 167.482 68.8774 167.582 69.1143C167.685 69.3539 167.64 69.7087 167.451 70.1768L166.875 71.5979C166.685 72.0685 166.47 72.3545 166.23 72.4529C165.992 72.5567 165.638 72.5128 165.169 72.3236L162.332 71.1802C161.858 70.989 161.57 70.774 161.471 70.5348C161.368 70.2976 161.412 69.9429 161.602 69.4723L162.178 68.0512Z" fill="#012426"/>
<path d="M166.524 66.3132L163.051 65.9981L163.833 64.5301L165.759 64.9091L164.366 63.5303L165.148 62.0633L167.352 64.7594L169.535 65.9172L168.707 67.471L166.524 66.3132Z" fill="#012426"/>
<path d="M225.098 177.777C224.597 177.706 224.267 177.567 224.11 177.359C223.954 177.154 223.895 176.922 223.932 176.663L224.1 175.472L225.842 175.716L225.699 176.733C225.69 176.797 225.716 176.833 225.778 176.842L226.227 176.905C226.289 176.913 226.324 176.886 226.333 176.822L226.814 173.407C226.822 173.348 226.796 173.315 226.734 173.306L226.285 173.243C226.223 173.234 226.188 173.259 226.18 173.319L226.036 174.344L224.293 174.099L224.462 172.9C224.498 172.646 224.618 172.442 224.824 172.288C225.032 172.13 225.388 172.087 225.889 172.158L227.41 172.371C227.914 172.442 228.244 172.58 228.398 172.789C228.556 172.994 228.599 173.348 228.529 173.848L228.103 176.87C228.032 177.376 227.893 177.706 227.684 177.86C227.478 178.018 227.123 178.061 226.619 177.99L225.098 177.777Z" fill="#012426"/>
<path fill-rule="evenodd" clip-rule="evenodd" d="M220.16 177.032C219.663 176.935 219.341 176.779 219.196 176.563C219.051 176.35 219.028 175.992 219.126 175.492L219.709 172.495C219.806 171.999 219.961 171.679 220.175 171.536C220.391 171.389 220.748 171.365 221.245 171.462L222.753 171.754C223.252 171.851 223.575 172.007 223.717 172.223C223.865 172.436 223.889 172.792 223.793 173.287L223.209 176.284C223.111 176.784 222.955 177.107 222.738 177.25C222.525 177.397 222.167 177.421 221.668 177.324L220.16 177.032ZM220.814 176.028C220.802 176.087 220.827 176.122 220.888 176.134L221.334 176.22C221.395 176.232 221.431 176.209 221.442 176.15L222.102 172.766C222.114 172.702 222.09 172.665 222.029 172.653L221.583 172.566C221.522 172.554 221.486 172.58 221.473 172.644L220.814 176.028Z" fill="#012426"/>
<path d="M218.171 176.606L216.456 176.211L217.736 170.682L219.45 171.077L218.171 176.606Z" fill="#012426"/>
<path d="M173.001 57.1827L173.32 56.7453C173.358 56.6927 173.352 56.6472 173.299 56.609L169.904 54.1475L170.938 52.7272L174.782 55.5138C174.99 55.6644 175.113 55.8686 175.151 56.1235C175.193 56.3818 175.064 56.7142 174.766 57.1238L174.128 57.9996L173.001 57.1827Z" fill="#012426"/>
<path d="M174.387 48.2514C174.705 47.8591 174.995 47.6484 175.255 47.622C175.511 47.5941 175.741 47.6634 175.944 47.8279L176.881 48.5846L175.773 49.9492L174.974 49.3032C174.923 49.2624 174.879 49.266 174.84 49.3146L174.554 49.6664C174.515 49.7149 174.52 49.7588 174.571 49.7997L177.256 51.9695C177.303 52.0072 177.345 52.0019 177.385 51.9533L177.67 51.6015C177.709 51.553 177.706 51.5108 177.659 51.4731L176.853 50.8216L177.96 49.4569L178.904 50.2192C179.103 50.3804 179.217 50.5889 179.243 50.8445C179.271 51.1037 179.125 51.4299 178.806 51.8224L177.84 53.0135C177.519 53.4079 177.23 53.6187 176.972 53.6429C176.714 53.6728 176.388 53.5273 175.995 53.2095L173.617 51.2886C173.22 50.9676 173.008 50.678 172.984 50.4203C172.954 50.1634 173.1 49.837 173.42 49.4425L174.387 48.2514Z" fill="#012426"/>
<path fill-rule="evenodd" clip-rule="evenodd" d="M177.839 44.4644C178.19 44.1011 178.497 43.9164 178.758 43.9127C179.016 43.9072 179.329 44.0831 179.697 44.4374L181.897 46.5579C182.261 46.9087 182.447 47.213 182.45 47.4699C182.456 47.7304 182.281 48.0427 181.93 48.4061L180.862 49.5086C180.509 49.8736 180.203 50.0584 179.943 50.0601C179.684 50.0674 179.372 49.8943 179.008 49.5434L176.807 47.423C176.439 47.0687 176.253 46.7617 176.251 46.503C176.244 46.2444 176.419 45.9319 176.772 45.5669L177.839 44.4644ZM178.326 45.5579C178.283 45.5162 178.241 45.5179 178.197 45.5629L177.882 45.8884C177.838 45.9334 177.838 45.9758 177.881 46.0174L180.367 48.4124C180.414 48.4576 180.458 48.4578 180.502 48.4129L180.817 48.0873C180.86 48.0422 180.859 47.9982 180.812 47.953L178.326 45.5579Z" fill="#012426"/>
<path d="M179.385 42.945L180.671 41.7476L184.55 45.8974L183.263 47.0948L179.385 42.945Z" fill="#012426"/>
<path d="M188.167 42.6584L184.511 38.3116L183.163 39.4403L184.8 41.3859L182.501 39.9951L181.21 41.0755L184.866 45.4221L186.214 44.2934L184.58 42.3506L186.876 43.7386L188.167 42.6584Z" fill="#012426"/>
<path fill-rule="evenodd" clip-rule="evenodd" d="M195.829 37.0162C195.942 36.9018 196.024 36.7354 196.072 36.5171C196.169 36.0842 196.055 35.6091 195.733 35.0944L194.504 33.133C194.182 32.6182 193.804 32.3082 193.372 32.2048C193.154 32.1527 192.968 32.1526 192.815 32.2043L190.084 33.907L193.098 38.7191L195.829 37.0162ZM194.542 36.5061C194.575 36.5591 194.565 36.6012 194.512 36.6344L194.048 36.9234L192.118 33.8418L192.582 33.5525C192.635 33.5193 192.677 33.5293 192.711 33.5822L194.542 36.5061Z" fill="#012426"/>
<path d="M194.341 31.2434L197.115 29.7091L197.611 30.6013L196.376 31.2844L196.953 32.3225L198.188 31.6396L198.676 32.5184L197.441 33.2014L198.142 34.4627L199.377 33.7797L199.872 34.6719L197.098 36.2061L194.341 31.2434Z" fill="#012426"/>
<path d="M200.219 28.0316C200.67 27.8022 201.02 27.7273 201.268 27.8087C201.513 27.8871 201.695 28.0437 201.814 28.2766L202.361 29.348L200.793 30.1452L200.326 29.2307C200.297 29.1726 200.255 29.1581 200.199 29.1865L199.795 29.392C199.739 29.4204 199.726 29.4626 199.756 29.5206L201.324 32.5926C201.352 32.646 201.392 32.6583 201.448 32.63L201.852 32.4245C201.908 32.3961 201.922 32.3561 201.895 32.3027L201.424 31.3802L202.992 30.5831L203.543 31.6623C203.66 31.8906 203.678 32.1272 203.598 32.3712C203.518 32.6195 203.251 32.858 202.8 33.0872L201.432 33.7832C200.979 34.0136 200.628 34.0887 200.383 34.0059C200.135 33.9287 199.896 33.6636 199.667 33.2137L198.278 30.4938C198.046 30.0393 197.97 29.6886 198.053 29.4434C198.13 29.1965 198.397 28.9578 198.85 28.7274L200.219 28.0316Z" fill="#012426"/>
<path d="M202.178 27.1411L205.075 25.8539L205.491 26.7857L204.201 27.3589L204.685 28.4434L205.975 27.8703L206.385 28.7883L205.095 29.3613L205.682 30.6787L206.972 30.1057L207.388 31.0375L204.491 32.3249L202.178 27.1411Z" fill="#012426"/>
<path d="M211.908 29.3431L209.87 24.0457L208.227 24.675L209.139 27.0463L207.419 24.9843L205.847 25.5867L207.885 30.8839L209.528 30.2548L208.617 27.8869L210.335 29.9453L211.908 29.3431Z" fill="#012426"/>
<path d="M210.804 23.7081L214.883 22.6174L215.148 23.6026L213.958 23.9208L215.165 28.4164L213.465 28.8708L212.258 24.3752L211.068 24.6933L210.804 23.7081Z" fill="#012426"/>
<path fill-rule="evenodd" clip-rule="evenodd" d="M218.245 21.7981C218.74 21.693 219.098 21.7112 219.317 21.8539C219.534 21.9955 219.695 22.316 219.801 22.8122L219.835 22.9732C219.927 23.4073 219.936 23.7131 219.862 23.8918C219.789 24.0649 219.55 24.2304 219.144 24.388C219.579 24.3687 219.866 24.4254 220.003 24.5565C220.144 24.6897 220.235 24.8515 220.275 25.0411L220.524 26.2109C220.608 26.6051 220.7 26.8882 220.8 27.0573L219.079 27.4223C218.975 27.2333 218.879 26.9327 218.791 26.5212L218.541 25.3439C218.532 25.3052 218.507 25.282 218.464 25.2729L217.897 25.3931L218.361 27.5745L216.64 27.9395L215.458 22.3892L218.245 21.7981ZM218.038 22.9841C218.024 22.9204 217.988 22.8957 217.926 22.9087L217.391 23.0221L217.698 24.4615L218.233 24.348C218.294 24.335 218.318 24.2975 218.305 24.2376L218.038 22.9841Z" fill="#012426"/>
<path fill-rule="evenodd" clip-rule="evenodd" d="M221.434 21.0993L221.12 26.9162L222.732 26.6326L222.741 25.2652L223.766 25.0849L224.248 26.366L225.855 26.0833L223.566 20.7242L221.434 21.0993ZM222.743 24.2369L222.765 22.4085L223.409 24.1195L222.743 24.2369Z" fill="#012426"/>
<path d="M225.456 20.4939L227.202 20.2799L227.726 24.5323L229.127 24.3607L229.297 25.7401L226.149 26.1258L225.456 20.4939Z" fill="#012426"/>
<path d="M229.318 20.1731L231.073 20.0505L231.47 25.7111L229.714 25.8335L229.318 20.1731Z" fill="#012426"/>
<path d="M231.821 19.9456L231.846 21.3417L233.454 21.3137L231.83 25.6205L235.756 25.5521L235.732 24.1627L234.277 24.188L235.781 19.8767L231.821 19.9456Z" fill="#012426"/>
<path d="M236.335 19.9534L239.507 20.0087L239.489 21.0286L238.077 21.0039L238.056 22.1908L239.468 22.2155L239.45 23.2201L238.039 23.1954L238.013 24.6374L239.425 24.662L239.407 25.6819L236.236 25.6267L236.335 19.9534Z" fill="#012426"/>
<path fill-rule="evenodd" clip-rule="evenodd" d="M243.144 25.941C243.303 25.915 243.467 25.828 243.635 25.6799C243.968 25.3863 244.156 24.9354 244.198 24.3298L244.36 22.0225C244.402 21.417 244.279 20.9445 243.99 20.6072C243.845 20.4374 243.695 20.3285 243.54 20.2806L240.328 20.0564L239.931 25.7168L243.144 25.941ZM242.403 24.7734C242.399 24.8358 242.366 24.8641 242.303 24.8598L241.758 24.8216L242.012 21.1964L242.558 21.2346C242.62 21.239 242.648 21.2717 242.644 21.3339L242.403 24.7734Z" fill="#012426"/>
<path fill-rule="evenodd" clip-rule="evenodd" d="M249.65 26.9906C249.811 26.9814 249.983 26.912 250.165 26.7821C250.527 26.5248 250.762 26.0959 250.867 25.4984L251.27 23.2204C251.375 22.6226 251.302 22.14 251.05 21.7744C250.923 21.5903 250.786 21.4663 250.637 21.4026L247.466 20.8446L246.478 26.4326L249.65 26.9906ZM249.035 25.7521C249.025 25.8137 248.989 25.8385 248.927 25.8277L248.389 25.7329L249.021 22.1541L249.56 22.2489C249.622 22.2597 249.646 22.2953 249.635 22.3567L249.035 25.7521Z" fill="#012426"/>
<path d="M252.266 21.7329L253.987 22.0979L252.805 27.6482L251.084 27.2832L252.266 21.7329Z" fill="#012426"/>
<path d="M257.512 23.0104C258 23.1412 258.311 23.3194 258.441 23.5454C258.57 23.77 258.568 24.1285 258.436 24.6186L258.209 25.4635L256.509 25.0089L256.784 23.9868C256.8 23.9253 256.779 23.8852 256.719 23.8691L256.281 23.7519C256.22 23.7358 256.182 23.76 256.165 23.8215L255.271 27.1531C255.255 27.2096 255.277 27.2472 255.338 27.2634L255.776 27.3805C255.836 27.3968 255.874 27.375 255.889 27.3184L256.179 26.2394L255.871 26.1573L256.036 25.5439L258.043 26.0806L257.305 28.8296L256.814 28.6982L256.786 28.1377C256.646 28.4543 256.281 28.5399 255.688 28.3973L254.556 28.0946C254.065 27.9633 253.754 27.7863 253.626 27.5635C253.494 27.3383 253.495 26.9806 253.626 26.493L254.418 23.5444C254.55 23.0543 254.728 22.743 254.955 22.6134C255.178 22.4818 255.537 22.4824 256.028 22.6137L257.512 23.0104Z" fill="#012426"/>
<path d="M259.571 23.6727L261.244 24.2152L259.487 29.6119L257.813 29.0692L259.571 23.6727Z" fill="#012426"/>
<path d="M261.914 24.4197L265.857 25.93L265.491 26.8823L264.341 26.4418L262.669 30.7868L261.026 30.1577L262.698 25.8127L261.548 25.3721L261.914 24.4197Z" fill="#012426"/>
<path fill-rule="evenodd" clip-rule="evenodd" d="M267.166 26.4982L263.646 31.1456L265.142 31.8101L265.916 30.6812L266.866 31.1032L266.547 32.4345L268.038 33.0968L269.144 27.3768L267.166 26.4982ZM266.493 29.8294L267.536 28.326L267.112 30.1043L266.493 29.8294Z" fill="#012426"/>
<path d="M270.849 28.2591L272.417 29.0562L270.468 32.8737L271.726 33.5133L271.093 34.7516L268.267 33.3148L270.849 28.2591Z" fill="#012426"/>
<path d="M278.581 32.6307C279.01 32.8982 279.255 33.1593 279.313 33.4134C279.372 33.6636 279.331 33.8997 279.192 34.1214L278.553 35.1411L277.061 34.2106L277.606 33.3401C277.641 33.2849 277.632 33.2417 277.578 33.2085L277.194 32.9688C277.141 32.9356 277.098 32.9465 277.063 33.0017L275.232 35.9255C275.2 35.9764 275.211 36.0175 275.264 36.0507L275.648 36.2904C275.702 36.3236 275.743 36.3149 275.775 36.264L276.325 35.386L277.817 36.3166L277.174 37.3439C277.038 37.5612 276.844 37.6992 276.593 37.7561C276.339 37.8156 275.997 37.7104 275.567 37.4428L274.265 36.6305C273.833 36.3616 273.588 36.1007 273.533 35.848C273.472 35.5964 273.577 35.2558 273.845 34.8275L275.466 32.2388C275.737 31.8062 275.999 31.5607 276.252 31.5053C276.504 31.4444 276.847 31.5495 277.278 31.8184L278.581 32.6307Z" fill="#012426"/>
<path d="M283.729 36.2046L281.218 39.7819C280.928 40.1957 280.656 40.4257 280.402 40.4694C280.145 40.5156 279.809 40.3927 279.394 40.1029L278.136 39.2238C277.719 38.9328 277.488 38.6594 277.446 38.404C277.398 38.1498 277.521 37.815 277.811 37.4014L280.321 33.8239L281.763 34.831L279.146 38.561C279.108 38.6142 279.116 38.6586 279.169 38.6959L279.538 38.9533C279.589 38.9892 279.633 38.9805 279.67 38.9273L282.287 35.1974L283.729 36.2046Z" fill="#012426"/>
<path fill-rule="evenodd" clip-rule="evenodd" d="M286.724 38.6487C287.112 38.9734 287.318 39.2658 287.34 39.5255C287.361 39.7834 287.208 40.1072 286.881 40.4961L286.775 40.622C286.489 40.962 286.253 41.1572 286.066 41.2087C285.884 41.2581 285.606 41.1721 285.232 40.9503C285.515 41.2803 285.647 41.5404 285.628 41.7294C285.61 41.9221 285.538 42.0931 285.413 42.2415L284.642 43.1577C284.383 43.4665 284.216 43.7127 284.144 43.8954L282.796 42.7667C282.881 42.5685 283.059 42.3084 283.33 41.9861L284.106 41.0641C284.131 41.0337 284.134 40.9992 284.115 40.9602L283.67 40.588L282.234 42.2964L280.886 41.1677L284.541 36.821L286.724 38.6487ZM285.66 39.2159C285.702 39.166 285.699 39.122 285.651 39.0818L285.232 38.7311L284.284 39.8583L284.703 40.2092C284.751 40.2494 284.795 40.2445 284.834 40.1977L285.66 39.2159Z" fill="#012426"/>
<path fill-rule="evenodd" clip-rule="evenodd" d="M290.466 42.1041C290.836 42.4484 291.026 42.7513 291.035 43.0117C291.043 43.2705 290.872 43.5859 290.525 43.957L290.413 44.0772C290.11 44.4019 289.864 44.5845 289.674 44.6262C289.49 44.6659 289.217 44.5655 288.855 44.3246C289.121 44.6689 289.239 44.9355 289.21 45.1232C289.181 45.3147 289.1 45.4817 288.968 45.6235L288.15 46.4981C287.875 46.7929 287.695 47.03 287.614 47.2088L286.327 46.0114C286.422 45.8177 286.614 45.5673 286.902 45.2597L287.724 44.3793C287.751 44.3503 287.756 44.3159 287.739 44.2761L287.314 43.8812L285.79 45.5122L284.503 44.3148L288.382 40.1648L290.466 42.1041ZM289.373 42.6149C289.418 42.5673 289.417 42.5231 289.371 42.4806L288.972 42.1084L287.966 43.1846L288.366 43.5567C288.411 43.5995 288.456 43.5969 288.498 43.5521L289.373 42.6149Z" fill="#012426"/>
<path d="M292.058 43.6727L294.261 45.9493L293.526 46.6579L292.545 45.6443L291.689 46.4689L292.67 47.4825L291.945 48.1805L290.965 47.1669L289.925 48.1687L290.906 49.1823L290.17 49.8909L287.967 47.6143L292.058 43.6727Z" fill="#012426"/>
<path d="M293.33 53.5463L297.622 49.8235L296.467 48.4985L294.546 50.1649L295.899 47.8469L294.795 46.5785L290.503 50.3013L291.657 51.6264L293.575 49.9625L292.225 52.278L293.33 53.5463Z" fill="#012426"/>
<path d="M299.907 52.8764C300.204 53.2849 300.333 53.6185 300.291 53.8758C300.252 54.1297 300.126 54.3334 299.914 54.487L298.939 55.1938L297.904 53.7732L298.737 53.1698C298.789 53.1316 298.797 53.0882 298.76 53.0375L298.494 52.6713C298.457 52.6208 298.413 52.6148 298.36 52.6531L295.565 54.6797C295.516 54.7149 295.51 54.7568 295.547 54.8075L295.814 55.1736C295.851 55.2242 295.892 55.2317 295.941 55.1965L296.78 54.5879L297.815 56.0086L296.833 56.7204C296.625 56.8711 296.394 56.9268 296.14 56.8856C295.881 56.8459 295.603 56.6201 295.306 56.2116L294.403 54.9716C294.104 54.5611 293.975 54.2276 294.018 53.9725C294.056 53.7165 294.281 53.4399 294.691 53.1429L297.166 51.3488C297.579 51.049 297.914 50.9194 298.17 50.9626C298.427 51.0005 298.705 51.2258 299.004 51.6364L299.907 52.8764Z" fill="#012426"/>
<path d="M299.073 57.3442L301.033 54.4657L301.941 55.8601L300.675 57.3568L302.559 56.8097L303.466 58.2031L300.033 58.82L297.961 60.1633L297 58.6874L299.073 57.3442Z" fill="#012426"/>
<path d="M302.773 65.8806L303.002 66.3705C303.03 66.4296 303.073 66.4459 303.132 66.4186L306.936 64.6488L307.679 66.2401L303.373 68.2436C303.14 68.3518 302.902 68.3603 302.66 68.2704C302.413 68.1812 302.184 67.9077 301.97 67.449L301.511 66.4679L302.773 65.8806Z" fill="#012426"/>
<path d="M309.838 71.4372C310.028 71.9053 310.072 72.2601 309.969 72.4997C309.87 72.7366 309.697 72.9037 309.454 73.0016L308.337 73.452L307.678 71.8239L308.632 71.4393C308.692 71.415 308.71 71.3748 308.687 71.3167L308.517 70.8972C308.493 70.8391 308.452 70.8228 308.392 70.8471L305.188 72.1387C305.132 72.1612 305.117 72.2004 305.14 72.2584L305.31 72.6782C305.333 72.736 305.372 72.7534 305.428 72.7311L306.39 72.3432L307.049 73.9712L305.924 74.4249C305.686 74.521 305.448 74.5192 305.211 74.4179C304.97 74.3168 304.755 74.0309 304.566 73.5628L303.99 72.1417C303.8 71.6711 303.755 71.3164 303.859 71.0794C303.958 70.84 304.243 70.6259 304.712 70.4368L307.549 69.2932C308.023 69.1022 308.38 69.0573 308.618 69.1611C308.857 69.2597 309.072 69.5454 309.263 70.016L309.838 71.4372Z" fill="#012426"/>
<path fill-rule="evenodd" clip-rule="evenodd" d="M311.483 76.1332C311.648 76.6106 311.673 76.9673 311.558 77.2012C311.446 77.4324 311.147 77.6309 310.664 77.7971L307.771 78.7908C307.293 78.9553 306.937 78.9817 306.706 78.8682C306.47 78.7548 306.271 78.458 306.106 77.9806L305.606 76.5314C305.44 76.0515 305.415 75.6949 305.531 75.4636C305.642 75.2297 305.938 75.0308 306.417 74.8665L309.309 73.8728C309.793 73.7066 310.151 73.6804 310.383 73.7964C310.617 73.9075 310.817 74.2041 310.983 74.684L311.483 76.1332ZM310.285 76.07C310.342 76.0504 310.36 76.0121 310.34 75.9528L310.192 75.525C310.171 75.4657 310.134 75.4464 310.077 75.4659L306.81 76.5884C306.748 76.6096 306.728 76.6488 306.748 76.7081L306.896 77.1359C306.916 77.1952 306.956 77.2137 307.018 77.1925L310.285 76.07Z" fill="#012426"/>
<path d="M312.018 78.1694L312.503 79.8571L307.037 81.4212L306.552 79.7333L312.018 78.1694Z" fill="#012426"/>
<path d="M308.105 86.1264L313.623 84.7537L313.198 83.0501L310.728 83.6645L312.988 82.2123L312.581 80.5818L307.063 81.9544L307.489 83.6581L309.955 83.0446L307.698 84.4957L308.105 86.1264Z" fill="#012426"/>
<path fill-rule="evenodd" clip-rule="evenodd" d="M308.97 93.731C309.02 93.8839 309.132 94.0316 309.305 94.1739C309.648 94.4563 310.124 94.5709 310.729 94.518L313.039 94.3165C313.645 94.2636 314.093 94.0683 314.382 93.7306C314.527 93.5606 314.612 93.3958 314.635 93.2363L314.354 90.0354L308.689 90.5298L308.97 93.731ZM310.01 92.8183C309.947 92.8238 309.914 92.7959 309.909 92.7337L309.861 92.19L313.489 91.8732L313.537 92.4169C313.542 92.4793 313.514 92.5123 313.452 92.5177L310.01 92.8183Z" fill="#012426"/>
<path d="M314.748 94.9996L314.859 98.1624L313.837 98.1981L313.788 96.79L312.599 96.8313L312.648 98.2395L311.642 98.2745L311.593 96.8665L310.148 96.9167L310.197 98.3249L309.176 98.3604L309.065 95.1976L314.748 94.9996Z" fill="#012426"/>
<path d="M314.779 101.812C314.771 102.317 314.672 102.661 314.484 102.841C314.299 103.02 314.076 103.107 313.814 103.102L312.609 103.081L312.639 101.326L313.668 101.344C313.733 101.345 313.766 101.315 313.767 101.252L313.775 100.8C313.776 100.737 313.744 100.706 313.679 100.705L310.224 100.645C310.164 100.644 310.134 100.674 310.133 100.736L310.125 101.189C310.124 101.251 310.153 101.282 310.213 101.284L311.25 101.302L311.22 103.057L310.006 103.036C309.749 103.032 309.531 102.937 309.353 102.752C309.171 102.565 309.085 102.218 309.094 101.713L309.12 100.181C309.129 99.6731 309.227 99.3293 309.416 99.1515C309.6 98.9698 309.947 98.8841 310.453 98.8929L313.512 98.9461C314.023 98.955 314.369 99.0527 314.547 99.2409C314.729 99.4251 314.815 99.7722 314.806 100.28L314.779 101.812Z" fill="#012426"/>
<path d="M314.732 103.932L314.511 107.089L313.491 107.018L313.59 105.612L312.403 105.53L312.304 106.935L311.3 106.865L311.398 105.459L309.956 105.359L309.858 106.765L308.838 106.693L309.059 103.536L314.732 103.932Z" fill="#012426"/>
<path d="M308.229 111.475L313.873 112.166L314.088 110.424L311.561 110.114L314.193 109.567L314.399 107.899L308.754 107.207L308.54 108.95L311.063 109.259L308.434 109.807L308.229 111.475Z" fill="#012426"/>
<path d="M313.68 112.787L312.946 116.937L311.939 116.76L312.153 115.549L307.56 114.741L307.865 113.012L312.459 113.82L312.673 112.61L313.68 112.787Z" fill="#012426"/>
<path fill-rule="evenodd" clip-rule="evenodd" d="M311.943 120.52C311.812 121.007 311.633 121.317 311.407 121.447C311.182 121.575 310.822 121.573 310.331 121.442L310.172 121.399C309.742 121.284 309.465 121.153 309.339 121.006C309.218 120.863 309.179 120.575 309.222 120.143C309.042 120.539 308.861 120.767 308.682 120.83C308.499 120.895 308.313 120.902 308.125 120.852L306.968 120.543C306.577 120.438 306.283 120.391 306.087 120.403L306.542 118.707C306.758 118.701 307.07 118.752 307.477 118.861L308.642 119.172C308.681 119.183 308.713 119.17 308.741 119.137L308.891 118.578L306.732 118L307.187 116.304L312.68 117.773L311.943 120.52ZM310.978 119.797C311.041 119.814 311.08 119.793 311.096 119.732L311.238 119.205L309.813 118.824L309.671 119.351C309.655 119.412 309.678 119.449 309.737 119.465L310.978 119.797Z" fill="#012426"/>
<path fill-rule="evenodd" clip-rule="evenodd" d="M310.963 123.685L305.963 120.677L305.457 122.231L306.663 122.881L306.342 123.868L304.982 123.691L304.478 125.24L310.294 125.739L310.963 123.685ZM307.573 123.364L309.18 124.242L307.363 124.007L307.573 123.364Z" fill="#012426"/>
<path d="M309.554 127.51L308.923 129.149L304.915 127.614L304.409 128.929L303.108 128.431L304.245 125.477L309.554 127.51Z" fill="#012426"/>
<path d="M308.161 131.146L307.445 132.75L302.25 130.442L302.966 128.838L308.161 131.146Z" fill="#012426"/>
<path d="M307.119 133.404L305.872 132.77L305.142 134.201L302.094 130.747L300.311 134.239L301.552 134.869L302.213 133.576L305.321 136.925L307.119 133.404Z" fill="#012426"/>
<path d="M305.01 137.393L303.472 140.161L302.578 139.666L303.262 138.434L302.222 137.858L301.537 139.091L300.656 138.604L301.341 137.371L300.077 136.672L299.392 137.904L298.498 137.41L300.036 134.642L305.01 137.393Z" fill="#012426"/>
<path fill-rule="evenodd" clip-rule="evenodd" d="M296.493 140.497C296.441 140.649 296.441 140.834 296.493 141.052C296.596 141.483 296.907 141.86 297.423 142.182L299.389 143.408C299.905 143.729 300.381 143.843 300.815 143.746C301.034 143.698 301.2 143.617 301.315 143.504L303.022 140.779L298.199 137.772L296.493 140.497ZM297.873 140.392C297.82 140.359 297.811 140.317 297.844 140.264L298.134 139.801L301.222 141.727L300.933 142.19C300.899 142.243 300.857 142.252 300.804 142.219L297.873 140.392Z" fill="#012426"/>
<path fill-rule="evenodd" clip-rule="evenodd" d="M292.47 145.796C292.403 145.943 292.383 146.127 292.413 146.349C292.47 146.788 292.74 147.196 293.219 147.57L295.046 148.994C295.525 149.367 295.987 149.53 296.428 149.479C296.651 149.454 296.825 149.391 296.951 149.29L298.934 146.758L294.453 143.264L292.47 145.796ZM293.854 145.837C293.805 145.798 293.8 145.755 293.838 145.706L294.175 145.276L297.045 147.513L296.708 147.943C296.67 147.993 296.627 147.998 296.577 147.959L293.854 145.837Z" fill="#012426"/>
<path d="M295.895 150.578L294.764 151.923L290.407 148.276L291.539 146.931L295.895 150.578Z" fill="#012426"/>
<path d="M292.194 154.554C291.848 154.924 291.545 155.114 291.284 155.122C291.025 155.13 290.708 154.96 290.337 154.614L289.695 154.017L290.896 152.733L291.671 153.455C291.718 153.498 291.763 153.499 291.806 153.453L292.115 153.122C292.158 153.076 292.155 153.031 292.108 152.988L289.58 150.635C289.537 150.595 289.493 150.597 289.451 150.642L289.141 150.973C289.099 151.019 289.1 151.062 289.143 151.102L289.962 151.864L290.179 151.632L290.644 152.065L289.227 153.581L287.141 151.64L287.488 151.269L287.997 151.508C287.783 151.236 287.878 150.874 288.283 150.419L289.082 149.564C289.429 149.192 289.732 149.002 289.989 148.994C290.25 148.983 290.566 149.152 290.936 149.496L293.173 151.578C293.545 151.924 293.737 152.228 293.745 152.488C293.757 152.747 293.588 153.062 293.241 153.434L292.194 154.554Z" fill="#012426"/>
<path d="M290.705 156.043L289.439 157.263L285.488 153.181L286.754 151.962L290.705 156.043Z" fill="#012426"/>
<path d="M288.962 157.743L285.775 160.508L285.104 159.738L286.033 158.931L282.973 155.419L284.301 154.267L287.362 157.779L288.291 156.973L288.962 157.743Z" fill="#012426"/>
<path fill-rule="evenodd" clip-rule="evenodd" d="M284.703 161.327L282.151 156.088L280.879 157.116L281.536 158.316L280.727 158.969L279.683 158.082L278.415 159.107L283.021 162.687L284.703 161.327ZM282.034 159.216L282.903 160.826L281.508 159.641L282.034 159.216Z" fill="#012426"/>
<path d="M281.374 163.792L279.951 164.824L277.427 161.358L276.285 162.186L275.466 161.062L278.032 159.202L281.374 163.792Z" fill="#012426"/>
<path d="M273.856 168.575C273.418 168.827 273.072 168.92 272.82 168.852C272.571 168.787 272.381 168.64 272.25 168.413L271.647 167.372L273.171 166.494L273.686 167.383C273.718 167.439 273.761 167.452 273.815 167.42L274.208 167.194C274.262 167.163 274.273 167.12 274.24 167.064L272.512 164.078C272.483 164.026 272.441 164.016 272.387 164.047L271.994 164.273C271.94 164.305 271.928 164.345 271.958 164.397L272.477 165.294L270.953 166.172L270.346 165.123C270.217 164.901 270.186 164.665 270.254 164.417C270.32 164.165 270.574 163.913 271.013 163.661L272.343 162.894C272.783 162.641 273.129 162.547 273.379 162.617C273.63 162.681 273.882 162.934 274.135 163.371L275.665 166.014C275.921 166.456 276.015 166.803 275.945 167.052C275.88 167.302 275.627 167.555 275.186 167.808L273.856 168.575Z" fill="#012426"/>
<path d="M268.339 171.408L266.284 167.552C266.047 167.106 265.965 166.76 266.041 166.515C266.116 166.265 266.379 166.022 266.826 165.785L268.182 165.065C268.631 164.827 268.98 164.746 269.227 164.824C269.476 164.897 269.719 165.158 269.957 165.604L272.012 169.46L270.458 170.284L268.316 166.264C268.285 166.206 268.242 166.193 268.184 166.224L267.787 166.434C267.732 166.464 267.72 166.506 267.75 166.564L269.893 170.584L268.339 171.408Z" fill="#012426"/>
<path fill-rule="evenodd" clip-rule="evenodd" d="M264.684 172.893C264.215 173.083 263.86 173.127 263.62 173.024C263.381 172.922 263.167 172.635 262.976 172.164L262.914 172.012C262.748 171.6 262.686 171.301 262.728 171.112C262.77 170.928 262.976 170.724 263.348 170.499C262.923 170.593 262.631 170.587 262.473 170.482C262.311 170.375 262.194 170.231 262.121 170.051L261.672 168.942C261.52 168.569 261.381 168.306 261.253 168.157L262.885 167.499C263.02 167.667 263.167 167.947 263.324 168.337L263.776 169.453C263.791 169.489 263.821 169.508 263.864 169.509L264.402 169.292L263.565 167.225L265.196 166.567L267.327 171.828L264.684 172.893ZM264.682 171.69C264.707 171.75 264.747 171.768 264.805 171.745L265.312 171.54L264.76 170.176L264.252 170.38C264.194 170.404 264.178 170.445 264.201 170.501L264.682 171.69Z" fill="#012426"/>
<path fill-rule="evenodd" clip-rule="evenodd" d="M259.924 174.605C259.446 174.769 259.088 174.795 258.854 174.68C258.621 174.566 258.422 174.267 258.257 173.787L258.203 173.632C258.058 173.212 258.012 172.91 258.064 172.723C258.115 172.543 258.332 172.349 258.716 172.143C258.286 172.216 257.995 172.194 257.842 172.081C257.686 171.966 257.576 171.816 257.513 171.633L257.123 170.502C256.991 170.121 256.866 169.851 256.746 169.696L258.41 169.124C258.536 169.299 258.668 169.585 258.805 169.983L259.198 171.121C259.211 171.159 259.239 171.179 259.283 171.183L259.831 170.994L259.104 168.886L260.767 168.314L262.619 173.679L259.924 174.605ZM259.985 173.402C260.006 173.464 260.046 173.484 260.105 173.464L260.622 173.286L260.142 171.895L259.625 172.072C259.566 172.093 259.547 172.133 259.567 172.191L259.985 173.402Z" fill="#012426"/>
<path d="M257.753 175.285L254.704 176.158L254.422 175.177L255.78 174.789L255.452 173.648L254.094 174.036L253.817 173.07L255.174 172.682L254.776 171.296L253.418 171.684L253.137 170.703L256.186 169.831L257.753 175.285Z" fill="#012426"/>
<path d="M248.395 171.703L249.674 177.232L251.389 176.837L250.816 174.362L252.232 176.643L253.873 176.265L252.594 170.736L250.879 171.131L251.451 173.602L250.036 171.325L248.395 171.703Z" fill="#012426"/>
<path d="M245.885 177.799C245.383 177.87 245.028 177.827 244.82 177.669C244.614 177.515 244.493 177.308 244.456 177.049L244.288 175.859L246.031 175.614L246.174 176.631C246.183 176.695 246.218 176.722 246.28 176.714L246.729 176.651C246.791 176.642 246.817 176.606 246.808 176.542L246.327 173.127C246.319 173.068 246.285 173.043 246.223 173.052L245.773 173.115C245.711 173.124 245.685 173.157 245.693 173.216L245.838 174.242L244.095 174.486L243.926 173.286C243.89 173.033 243.95 172.803 244.105 172.598C244.262 172.389 244.592 172.251 245.093 172.18L246.614 171.967C247.118 171.896 247.474 171.939 247.679 172.097C247.888 172.251 248.027 172.579 248.098 173.079L248.523 176.102C248.594 176.607 248.552 176.963 248.393 177.168C248.239 177.376 247.909 177.515 247.406 177.586L245.885 177.799Z" fill="#012426"/>
<path d="M242.335 174.938L243.962 178.016L242.302 178.161L241.572 176.343L241.172 178.26L239.513 178.404L240.578 175.091L240.363 172.634L242.12 172.481L242.335 174.938Z" fill="#012426"/>
<path d="M302.539 60.5797C303.019 60.5797 303.408 60.9679 303.408 61.4465C303.408 61.9251 303.019 62.3133 302.539 62.3133C302.06 62.3133 301.671 61.9251 301.671 61.4465C301.671 60.9679 302.06 60.5797 302.539 60.5797Z" fill="#012426"/>
<path d="M311.998 87.8449C311.998 87.3663 311.609 86.9782 311.129 86.9782C310.65 86.9782 310.26 87.3663 310.26 87.8449C310.26 88.3236 310.65 88.7118 311.129 88.7118C311.609 88.7118 311.998 88.3236 311.998 87.8449Z" fill="#012426"/>
<path d="M169.334 58.7306C169.814 58.7306 170.203 59.1188 170.203 59.5974C170.203 60.076 169.814 60.4642 169.334 60.4642C168.854 60.4642 168.465 60.076 168.465 59.5974C168.465 59.1188 168.854 58.7306 169.334 58.7306Z" fill="#012426"/>
<path d="M189.822 38.3164C189.822 37.8378 189.433 37.4496 188.953 37.4496C188.473 37.4496 188.084 37.8378 188.084 38.3164C188.084 38.7951 188.473 39.1832 188.953 39.1832C189.433 39.1832 189.822 38.7951 189.822 38.3164Z" fill="#012426"/>
<path d="M207.869 169.709C208.348 169.709 208.737 170.098 208.737 170.576C208.737 171.055 208.348 171.443 207.869 171.443C207.389 171.443 207 171.055 207 170.576C207 170.098 207.389 169.709 207.869 169.709Z" fill="#012426"/>
<path d="M237.402 175.623C237.402 175.145 237.013 174.756 236.533 174.756C236.054 174.756 235.665 175.145 235.665 175.623C235.665 176.102 236.054 176.49 236.533 176.49C237.013 176.49 237.402 176.102 237.402 175.623Z" fill="#012426"/>
<defs>
<radialGradient id="paint0_radial_1807_1907" cx="0" cy="0" r="1" gradientUnits="userSpaceOnUse" gradientTransform="translate(229.847 91.0597) rotate(-162.134) scale(220.072 379.011)">
<stop stop-color="#90C626"/>
<stop offset="1" stop-color="#20934A"/>
</radialGradient>
<linearGradient id="paint1_linear_1807_1907" x1="311.333" y1="168.961" x2="135.317" y2="138.533" gradientUnits="userSpaceOnUse">
<stop stop-color="#90C626"/>
<stop offset="1" stop-color="#20934A"/>
</linearGradient>
</defs>
</svg>
