<svg width="173" height="173" viewBox="0 0 173 173" fill="none" xmlns="http://www.w3.org/2000/svg">
<path fill-rule="evenodd" clip-rule="evenodd" d="M86.1667 172.333C133.755 172.333 172.333 133.755 172.333 86.1666C172.333 38.5781 133.755 0 86.1667 0C54.1775 0 26.2597 17.4319 11.3943 43.3147L7.58512 50.7649C6.2104 53.8117 5.00765 56.9526 3.98927 60.1755C3.54319 61.6041 2.53228 65.0422 2.0572 67.3659C0.71043 73.4177 9.15527e-05 79.7092 9.15527e-05 86.1666C9.15527e-05 94.6201 1.21744 102.789 3.48638 110.508C4.05042 112.543 5.36523 116.15 5.95214 117.699C7.27462 121.06 8.8023 124.319 10.5198 127.459L14.8022 134.471C30.298 157.319 56.479 172.333 86.1667 172.333ZM86.1667 166.778C130.626 166.778 166.667 130.737 166.667 86.2777C166.667 41.8188 130.626 5.77771 86.1667 5.77771C41.7078 5.77771 5.66672 41.8188 5.66672 86.2777C5.66672 130.737 41.7078 166.778 86.1667 166.778Z" fill="url(#paint0_linear_1502_1336)"/>
<ellipse cx="87.3335" cy="87.6946" rx="65" ry="64" fill="#38ED7A" fill-opacity="0.1"/>
<path d="M106.917 84.7812C106.917 87.4439 109.091 89.6182 111.754 89.6182H124.667V79.9445H111.754C109.091 79.9445 106.917 82.1186 106.917 84.7812ZM116.605 84.7812C116.605 85.669 115.88 86.3933 114.993 86.3933H111.768C110.881 86.3933 110.156 85.6684 110.156 84.7812C110.156 83.8935 110.881 83.1692 111.768 83.1692H114.993C115.88 83.1692 116.605 83.8941 116.605 84.7812Z" fill="url(#paint1_linear_1502_1336)"/>
<path d="M79.374 65.4193C78.9896 64.6647 78.7525 63.8221 78.7525 62.9196C78.7525 62.0318 79.4774 61.3075 80.3646 61.3075C81.2523 61.3075 81.9767 62.0324 81.9767 62.9196C81.9767 64.2215 83.0266 65.2715 84.3285 65.2715C85.6304 65.2715 86.6804 64.2215 86.6804 62.9196C86.6804 61.6177 85.6305 60.5677 84.3285 60.5677C81.2518 60.5677 78.7518 58.0679 78.7518 54.991C78.7518 52.4763 80.4234 50.3758 82.7158 49.6805L82.7171 48.4083C82.7171 47.5206 83.442 46.7962 84.3291 46.7962C85.2169 46.7962 85.9412 47.5212 85.9412 48.4083V49.6954C88.2194 50.3906 89.9052 52.4912 89.9052 55.0058C89.9052 55.8936 89.1803 56.6179 88.2931 56.6179C87.4053 56.6179 86.681 55.893 86.681 55.0058C86.681 53.7039 85.6311 52.6539 84.3291 52.6539C83.0272 52.6539 81.9773 53.7039 81.9773 55.0058C81.9773 56.3078 83.0272 57.3577 84.3291 57.3577C87.4059 57.3577 89.9058 59.8575 89.9058 62.9344C89.9058 63.8364 89.6693 64.6797 89.2843 65.4342H97.3013C98.2924 63.437 98.8545 61.2331 98.8545 58.9854C98.8545 58.4827 98.8248 57.9942 98.7808 57.5212C98.041 50.0651 91.8287 44.4445 84.3291 44.4445C76.8298 44.4445 70.6172 50.0651 69.8774 57.5057C69.8329 57.9793 69.8038 58.4671 69.8038 58.9556C69.8038 61.2041 70.351 63.408 71.357 65.4044H79.374L79.374 65.4193Z" fill="url(#paint2_linear_1502_1336)"/>
<path d="M124.667 65.4193V76.7206H119.83V71.8837C119.83 68.3191 116.931 65.42 113.366 65.42H100.837C101.636 63.3789 102.08 61.1899 102.08 58.9711H118.396C121.857 58.9699 124.667 61.8688 124.667 65.4193Z" fill="url(#paint3_linear_1502_1336)"/>
<path d="M67.808 65.4193H56.7879C55.0576 65.4193 53.6672 63.9695 53.6672 62.1945C53.6672 61.3216 53.9929 60.5081 54.5989 59.9021C55.1908 59.2954 55.9596 58.9704 56.7879 58.9704H66.5797C66.5803 61.1885 67.0094 63.3778 67.808 65.4193Z" fill="url(#paint4_linear_1502_1336)"/>
<path d="M103.692 84.7813C103.692 89.2337 107.316 92.8577 111.753 92.8577H116.605V112.22C116.605 113.994 115.155 115.444 113.365 115.444H56.8916C55.1167 115.444 53.6667 113.995 53.6667 112.22V67.7857C54.5836 68.3181 55.649 68.6437 56.7874 68.6437H113.366C115.155 68.6437 116.605 70.0936 116.605 71.8833V76.7202H111.754C107.316 76.7196 103.692 80.3437 103.692 84.7813Z" fill="url(#paint5_linear_1502_1336)"/>
<path d="M124.667 92.8576V102.531C124.667 104.321 123.276 105.756 121.546 105.756H119.83V92.8576H124.667Z" fill="url(#paint6_linear_1502_1336)"/>
<defs>
<linearGradient id="paint0_linear_1502_1336" x1="162.292" y1="146.729" x2="-12.9633" y2="111.753" gradientUnits="userSpaceOnUse">
<stop stop-color="#90C626"/>
<stop offset="1" stop-color="#20934A"/>
</linearGradient>
<linearGradient id="paint1_linear_1502_1336" x1="120.53" y1="104.896" x2="48.3259" y2="90.4859" gradientUnits="userSpaceOnUse">
<stop stop-color="#90C626"/>
<stop offset="1" stop-color="#20934A"/>
</linearGradient>
<linearGradient id="paint2_linear_1502_1336" x1="120.53" y1="104.896" x2="48.3259" y2="90.4859" gradientUnits="userSpaceOnUse">
<stop stop-color="#90C626"/>
<stop offset="1" stop-color="#20934A"/>
</linearGradient>
<linearGradient id="paint3_linear_1502_1336" x1="120.53" y1="104.896" x2="48.3259" y2="90.4859" gradientUnits="userSpaceOnUse">
<stop stop-color="#90C626"/>
<stop offset="1" stop-color="#20934A"/>
</linearGradient>
<linearGradient id="paint4_linear_1502_1336" x1="120.53" y1="104.896" x2="48.3259" y2="90.4859" gradientUnits="userSpaceOnUse">
<stop stop-color="#90C626"/>
<stop offset="1" stop-color="#20934A"/>
</linearGradient>
<linearGradient id="paint5_linear_1502_1336" x1="120.53" y1="104.896" x2="48.3259" y2="90.4859" gradientUnits="userSpaceOnUse">
<stop stop-color="#90C626"/>
<stop offset="1" stop-color="#20934A"/>
</linearGradient>
<linearGradient id="paint6_linear_1502_1336" x1="120.53" y1="104.896" x2="48.3259" y2="90.4859" gradientUnits="userSpaceOnUse">
<stop stop-color="#90C626"/>
<stop offset="1" stop-color="#20934A"/>
</linearGradient>
</defs>
</svg>
