<svg width="76" height="75" viewBox="0 0 76 75" fill="none" xmlns="http://www.w3.org/2000/svg">
<path fill-rule="evenodd" clip-rule="evenodd" d="M38.1667 75C58.8774 75 75.6667 58.2107 75.6667 37.5C75.6667 16.7893 58.8774 0 38.1667 0C24.2449 0 12.095 7.58642 5.62553 18.8507L3.96778 22.0931C3.36949 23.419 2.84605 24.786 2.40285 26.1886C2.20872 26.8103 1.76876 28.3066 1.56201 29.3179C0.97589 31.9516 0.666748 34.6897 0.666748 37.5C0.666748 41.179 1.19654 44.7343 2.18399 48.0936C2.42946 48.979 3.00168 50.5488 3.2571 51.223C3.83265 52.6859 4.4975 54.104 5.24494 55.4704L7.10867 58.522C13.8525 68.466 25.2466 75 38.1667 75ZM38.1668 72.5822C57.5155 72.5822 73.2007 56.897 73.2007 37.5483C73.2007 18.1997 57.5155 2.51447 38.1668 2.51447C18.8182 2.51447 3.13296 18.1997 3.13296 37.5483C3.13296 56.897 18.8182 72.5822 38.1668 72.5822Z" fill="url(#paint0_linear_1838_310)"/>
<ellipse cx="38.6747" cy="38.165" rx="28.2882" ry="27.853" fill="#38ED7A" fill-opacity="0.1"/>
<path d="M53.9064 24.3809L39.5414 19.1973C39.327 19.12 39.1061 19.0813 38.8815 19.0813C38.6558 19.0813 38.4318 19.1204 38.2164 19.1985L23.9028 24.382C23.1292 24.6626 22.5864 25.3976 22.5864 26.2207V38.5022C22.5864 41.2441 23.4702 43.9865 25.1568 46.6528C26.4496 48.6964 28.249 50.7005 30.477 52.6098C34.2022 55.802 37.8985 57.6434 38.0538 57.7202C38.3271 57.8554 38.6277 57.9232 38.9249 57.9232C39.2176 57.9232 39.5123 57.8575 39.7825 57.726C39.9378 57.6504 43.6324 55.8377 47.3611 52.6582C49.5913 50.7566 51.3637 48.7525 52.6574 46.7017C54.3433 44.0297 55.1837 41.271 55.1837 38.5022V26.2207C55.1838 25.3963 54.6818 24.6604 53.9064 24.3809ZM25.7158 38.4931V27.683C25.7158 27.2715 25.968 26.9039 26.3548 26.7636L38.5217 22.3373C38.6302 22.298 38.7547 22.2691 38.8851 22.2691V38.5023H52.1472C52.148 38.5023 52.1489 38.5199 52.1489 38.5311C52.1463 42.0685 50.3646 45.5743 46.8542 48.9877C44.1127 51.6535 40.9981 53.5561 39.396 54.4535C39.2475 54.5368 39.0156 54.5761 38.8853 54.5761C38.8853 54.2719 38.8853 38.6709 38.8853 38.4972L25.7158 38.4931Z" fill="url(#paint1_linear_1838_310)"/>
<defs>
<linearGradient id="paint0_linear_1838_310" x1="71.2968" y1="63.8571" x2="-4.97498" y2="48.6353" gradientUnits="userSpaceOnUse">
<stop stop-color="#90C626"/>
<stop offset="1" stop-color="#20934A"/>
</linearGradient>
<linearGradient id="paint1_linear_1838_310" x1="53.2844" y1="52.1524" x2="19.7546" y2="46.5366" gradientUnits="userSpaceOnUse">
<stop stop-color="#90C626"/>
<stop offset="1" stop-color="#20934A"/>
</linearGradient>
</defs>
</svg>
