<svg width="696" height="696" viewBox="0 0 696 696" fill="none" xmlns="http://www.w3.org/2000/svg">
<g opacity="0.3">
<path fill-rule="evenodd" clip-rule="evenodd" d="M347.657 696C539.663 696 695.315 540.349 695.315 348.343C695.315 156.337 539.663 0.685303 347.657 0.685303C155.652 0.685303 0 156.337 0 348.343C0 540.349 155.652 696 347.657 696ZM347.657 673.174C527.057 673.174 672.489 527.742 672.489 348.343C672.489 168.943 527.057 23.5113 347.657 23.5113C168.258 23.5113 22.826 168.943 22.826 348.343C22.826 527.742 168.258 673.174 347.657 673.174Z" fill="#063318"/>
<path fill-rule="evenodd" clip-rule="evenodd" d="M347.657 616.535C494.126 616.535 613.172 499.119 615.805 353.278H607.576C607.607 351.637 607.622 349.991 607.622 348.342C607.622 346.693 607.607 345.048 607.576 343.406H589.523V338.47H599.206C599.078 335.163 598.887 331.872 598.633 328.598H606.884C606.635 325.29 606.325 321.999 605.954 318.726H614.232C599.492 184.543 485.766 80.1499 347.657 80.1499C199.538 80.1499 79.4641 200.224 79.4641 348.342C79.4641 496.461 199.538 616.535 347.657 616.535ZM602.791 353.278C602.822 351.637 602.838 349.991 602.838 348.342H589.523V353.278H602.791ZM383.561 597.54C371.834 599.215 359.846 600.081 347.657 600.081C208.625 600.081 95.9176 487.374 95.9176 348.342C95.9176 325.155 99.0525 302.701 104.921 281.379C103.657 280.595 103.046 279.022 103.534 277.548L110.117 257.681C110.616 256.175 112.097 255.272 113.613 255.446C150.579 162.392 241.435 96.6034 347.657 96.6034C474.966 96.6034 580.204 191.107 597.044 313.79H608.666C591.746 184.726 481.337 85.0859 347.657 85.0859C202.264 85.0859 84.4002 202.95 84.4002 348.342C84.4002 493.735 202.264 611.599 347.657 611.599C489.744 611.599 605.54 499.033 610.731 358.214H599.206C594.85 471.159 516.085 565.019 410.546 592.162L410.638 592.64C410.847 593.725 410.137 594.774 409.053 594.983L385.963 599.435C384.878 599.644 383.83 598.934 383.621 597.85L383.561 597.54ZM382.683 592.985C371.241 594.608 359.547 595.448 347.657 595.448C211.184 595.448 100.551 484.815 100.551 348.342C100.551 325.648 103.61 303.667 109.339 282.792C110.754 282.832 112.087 281.949 112.555 280.536L119.137 260.67C119.595 259.29 119.088 257.822 117.983 256.997C154.309 165.74 243.45 101.237 347.657 101.237C472.403 101.237 575.56 193.675 592.366 313.79H580.423C563.788 200.754 466.77 113.867 349.302 113.063V117.393C464.374 118.196 559.447 203.154 576.044 313.79H564.843V310.499C564.843 309.072 563.935 307.858 562.665 307.401C545.707 217.799 474.124 147.516 383.854 132.49V128.387C476.851 143.575 550.504 216.319 567.049 308.854H571.294C553.715 208.611 470.382 131.001 367.401 122.13V124.575H367.397V141.031H383.854V136.575C471.831 151.505 541.6 219.927 558.526 307.209H554.247C538.853 229.457 480.661 167.098 405.244 145.707V147.61H405.243V155.838H405.244V159.229C471.34 179.33 522.761 233.133 539.493 300.627H544.378C527.701 231.629 475.669 176.43 408.534 155.28V151.832C479.614 173.828 534.214 233.327 549.212 307.209H546.744C544.927 307.209 543.454 308.682 543.454 310.499V313.79H535.227L505.61 280.883H489.157V275.947H472.703V292.4H489.157V285.819H505.61L535.227 318.726H543.454V323.662H533.581L515.483 305.563H489.157V300.627H472.703V317.081H489.157V310.499H515.483L533.581 328.598H543.454V333.534H489.157V328.598H472.703V345.052H489.157V338.47H543.454V343.406H533.581L515.483 361.505H489.157V356.569H472.703V373.023H489.157V366.441H515.483L533.581 348.342H543.454V353.278H535.227L515.483 386.185H489.157V379.604H472.703V396.058H489.157V391.121H515.483L535.227 358.214H543.454V364.796C543.454 366.613 544.927 368.087 546.744 368.087H552.39C544.311 452.909 484.714 522.709 405.241 545.841V542.411C480.82 520.019 537.945 454.679 548.338 374.668H543.554C533.1 453.204 476.526 517.164 401.953 538.426V540.849H401.95V549.077H401.953V551.882C485.809 529.57 549.099 456.813 557.348 368.087H561.565C551.672 476.655 460.991 561.876 350.141 563.133L346.011 563.884V567.168C346.195 567.17 346.379 567.171 346.563 567.172C346.733 567.172 346.903 567.173 347.073 567.173C347.268 567.174 347.462 567.174 347.657 567.174C465.206 567.174 561.107 474.49 566.27 358.214H568.574C569.143 359.198 570.206 359.86 571.424 359.86H578.329C572.354 481.519 472.243 578.433 349.304 579.292V575.395C468.98 574.545 566.647 481.109 574.24 363.15H570.052C562.431 479.34 465.774 571.222 347.656 571.222C347.108 571.222 346.559 571.22 346.011 571.216V575.395C346.012 575.395 346.012 575.395 346.013 575.395V579.292H346.011V583.622C346.559 583.626 347.108 583.628 347.657 583.628C473.739 583.628 576.659 484.455 582.665 359.86H586.233C587.451 359.86 588.514 359.198 589.083 358.214H594.569C590.22 468.899 513.067 560.881 409.667 587.603L409.596 587.235C409.387 586.151 408.338 585.441 407.253 585.65L384.164 590.102C383.079 590.312 382.369 591.36 382.578 592.445L382.683 592.985ZM568.134 353.278V348.342H564.843V353.278H568.134ZM568.134 343.406H566.434C566.397 341.756 566.342 340.111 566.27 338.47H568.134V343.406ZM568.574 333.534H565.995C565.885 331.884 565.756 330.238 565.61 328.598H594.459V333.534H589.083C588.514 332.551 587.451 331.889 586.233 331.889H571.424C570.206 331.889 569.143 332.551 568.574 333.534ZM601.659 323.662C601.501 322.012 601.327 320.367 601.137 318.726H564.843V323.662H601.659ZM607.208 363.15C599.532 499.836 486.262 608.308 347.657 608.308C204.081 608.308 87.6909 491.917 87.6909 348.342C87.6909 204.767 204.081 88.3766 347.657 88.3766C477.807 88.3766 585.619 184.019 604.642 308.854H599.801C580.82 186.672 475.159 93.1613 347.657 93.1613C206.724 93.1613 92.4755 207.41 92.4755 348.342C92.4755 489.275 206.724 603.523 347.657 603.523C483.619 603.523 594.746 497.192 602.415 363.15H607.208ZM521.602 177.928C555.915 212.947 579.737 258.284 587.983 308.854H583.44C575.253 259.601 552.006 215.44 518.592 181.26L518.381 181.493C517.641 182.313 516.376 182.377 515.557 181.637L498.106 165.876C497.286 165.135 497.222 163.87 497.962 163.051L498.264 162.717C457.157 129.325 404.744 109.312 347.657 109.312C346.557 109.312 345.46 109.319 344.364 109.334V113.079C344.364 113.079 344.365 113.079 344.366 113.079V117.17L344.603 117.407C344.523 117.408 344.443 117.409 344.364 117.41V121.307C345.46 121.291 346.557 121.284 347.657 121.284L347.656 125.463C346.557 125.463 345.459 125.471 344.364 125.487V129.535C345.459 129.519 346.557 129.51 347.657 129.51L347.656 133.538C346.557 133.538 345.459 133.546 344.364 133.563V134.447H345.657C346.762 134.447 347.657 135.343 347.657 136.447V171.942C347.657 173.047 346.762 173.942 345.657 173.942H338.138C337.033 173.942 336.138 173.047 336.138 171.942V136.447C336.138 135.343 337.033 134.447 338.138 134.447H339.427V133.693C338.604 133.724 337.782 133.759 336.962 133.8V129.767C337.782 129.728 338.604 129.693 339.427 129.662V125.612C338.604 125.642 337.782 125.676 336.962 125.715V121.531C337.782 121.493 338.604 121.459 339.427 121.43V117.531C339.335 117.534 339.243 117.538 339.152 117.541L339.427 117.174V109.451C211.225 113.789 108.626 219.084 108.626 348.342C108.626 474.825 206.865 578.362 331.203 586.815V586.918H332.798C333.907 586.987 335.019 587.047 336.133 587.1L336.133 562.238H334.85C333.746 562.238 332.85 561.342 332.85 560.238V524.743C332.85 523.638 333.746 522.743 334.85 522.743H342.37C343.474 522.743 344.37 523.638 344.37 524.743V560.238C344.37 561.342 343.474 562.238 342.37 562.238H341.07V563.048C341.072 563.048 341.073 563.048 341.075 563.048V567.077C341.073 567.077 341.072 567.077 341.07 567.077V571.127C341.072 571.127 341.073 571.127 341.075 571.127V575.307C341.073 575.307 341.072 575.307 341.07 575.307V579.205C341.072 579.205 341.073 579.205 341.075 579.205V583.537C341.073 583.537 341.072 583.537 341.07 583.537V587.284C343.258 587.343 345.454 587.373 347.657 587.373C474.696 587.373 578.589 488.266 586.236 363.15H590.726C583.072 490.743 477.172 591.854 347.657 591.854C345.454 591.854 343.258 591.825 341.07 591.767V591.854H336.133V591.587C206.996 585.571 104.144 478.968 104.144 348.342C104.144 216.608 208.749 109.306 339.427 104.967V104.831H344.364V104.852C345.46 104.837 346.557 104.83 347.657 104.83C405.9 104.83 459.367 125.278 501.272 159.387L501.652 158.966C502.392 158.146 503.657 158.082 504.477 158.822L521.927 174.584C522.747 175.324 522.811 176.589 522.071 177.409L521.602 177.928ZM331.203 572.11L331.203 570.624C215.793 562.203 124.777 465.901 124.777 348.342C124.777 241.625 199.779 152.425 299.947 130.581V134.726C202.033 156.499 128.825 243.871 128.825 348.342C128.825 463.665 218.031 558.152 331.203 566.565V563.884L313.104 560.593L276.906 553.189V551.223C193.032 521.976 132.852 442.187 132.852 348.342C132.852 253.275 194.611 172.631 280.197 144.345V143.496L288.368 141.825C292.185 140.731 296.046 139.74 299.947 138.855V142.677H316.403V126.22H316.395V123.418C310.981 124.164 305.628 125.1 300.343 126.22H299.947V126.305C197.453 148.222 120.598 239.307 120.598 348.342C120.598 467.091 211.756 564.549 327.912 574.554V578.465C209.601 568.448 116.701 469.244 116.701 348.342C116.701 225.207 213.065 124.579 334.494 117.756V113.419C210.672 120.247 112.371 222.815 112.371 348.342C112.371 472.756 208.935 574.615 331.203 583.061L331.203 580.339V572.11ZM276.906 544.14V546.769C195.395 517.703 137.051 439.836 137.051 348.342C137.051 255.622 196.969 176.896 280.197 148.773V153.992C280.195 153.993 280.192 153.994 280.19 153.995V157.482C280.192 157.481 280.195 157.481 280.197 157.48V162.519C215.763 185.916 166.948 241.872 153.641 310.499H157.191C170.367 243.808 217.696 189.392 280.197 166.231V171.093C280.195 171.094 280.192 171.095 280.19 171.096V175.037C280.192 175.036 280.195 175.035 280.197 175.034V179.72C230.401 199.66 191.494 241.018 174.871 292.4H225.9C225.9 290.583 227.374 289.11 229.191 289.11H262.098C263.916 289.11 265.389 290.583 265.389 292.4H291.715V297.336H265.389C265.389 299.154 263.916 300.627 262.098 300.627H229.191C227.374 300.627 225.9 299.154 225.9 297.336H168.815C184.451 242.408 224.71 197.85 276.898 176.355V172.385C218.56 195.867 174.589 247.52 161.832 310.499H225.9C225.9 308.682 227.374 307.209 229.191 307.209H262.098C263.916 307.209 265.389 308.682 265.389 310.499H291.715V315.435H265.389C265.389 317.253 263.916 318.726 262.098 318.726H229.191C227.374 318.726 225.9 317.253 225.9 315.435H147.94C159.768 243.106 209.938 183.67 276.898 158.678V155.169C204.079 181.85 150.549 248.531 142.923 328.598H225.9C225.9 326.781 227.374 325.307 229.191 325.307H262.098C263.916 325.307 265.389 326.781 265.389 328.598H291.715V333.534H265.389C265.389 335.352 263.916 336.825 262.098 336.825H229.191C227.374 336.825 225.9 335.352 225.9 333.534H142.512C142.164 338.425 141.988 343.363 141.988 348.342C141.988 435.831 196.614 510.56 273.62 540.283V536.75C198.471 507.197 145.278 433.981 145.278 348.342C145.278 347.793 145.28 347.245 145.285 346.697H225.9C225.9 344.88 227.374 343.406 229.191 343.406H262.098C263.916 343.406 265.389 344.88 265.389 346.697H291.715V351.633H265.389C265.389 353.45 263.916 354.924 262.098 354.924H229.191C227.374 354.924 225.9 353.45 225.9 351.633H158.083C159.394 428.666 206.646 494.509 273.62 522.944V518.942C210.154 491.361 165.082 429.401 161.91 356.569H166.272C169.467 428.202 214.168 489.039 276.906 515.609V517.814H276.911V526.042H276.906V529.2C205.632 501.297 154.876 432.477 153.532 351.633H150.048C151.4 434.432 203.669 504.85 276.906 532.937V535.912H276.911V544.14H276.906ZM401.953 522.75V521.652C463.443 502.407 510.867 451.34 524.938 387.738L531.723 374.734C521.656 445.578 471.656 503.565 405.241 525.178V529.041C473.72 507.237 525.316 447.584 535.445 374.668H540.038C529.654 451.272 474.592 513.683 401.953 534.8V530.978H401.95V522.75H401.953ZM531.203 300.627H535.901C519.334 235.062 469.412 182.776 405.244 162.874V165.708H405.243V173.937H405.244V176.098C458.064 193.749 500.072 235.018 518.732 287.368L526.492 297.317C509.879 238.978 465.49 192.341 408.534 172.613V168.726C468.597 189.076 515.152 238.709 531.203 300.627ZM322.976 152.545H290.069V212.444H263.515V262.001H407.932V374.01C407.932 416.718 385.873 450.16 338.604 450.16C291.729 450.16 268.882 425.582 268.882 377.233H217.674C217.674 435.607 244.67 474.35 286.779 490.936V545.785H319.686V499.032C325.806 499.756 332.12 500.121 338.604 500.121C344.554 500.121 350.316 499.795 355.883 499.159V545.785H392.081V489.634C435.374 470.691 459.928 427.701 459.928 374.01V212.444H395.372V152.545H359.174V212.444H322.976V152.545ZM375.628 289.11H301.587V366.418C300.517 369.811 299.941 373.409 299.941 377.136C299.941 397.582 317.253 414.156 338.607 414.156C359.962 414.156 377.273 397.582 377.273 377.136C377.273 373.409 376.698 369.811 375.628 366.418V289.11Z" fill="#063318"/>
<path fill-rule="evenodd" clip-rule="evenodd" d="M171.508 112.211C171.508 110.348 169.996 108.836 168.133 108.836C166.27 108.836 164.758 110.348 164.758 112.211C164.758 114.074 166.27 115.586 168.133 115.586C169.996 115.586 171.508 114.074 171.508 112.211ZM91.9277 191.69C93.7911 191.69 95.3025 193.202 95.3025 195.065C95.3025 196.928 93.7911 198.44 91.9277 198.44C90.0643 198.44 88.5529 196.928 88.5529 195.065C88.5529 193.202 90.0643 191.69 91.9277 191.69ZM612.773 202.263C612.773 200.4 611.262 198.888 609.398 198.888C607.535 198.888 606.023 200.4 606.023 202.263C606.023 204.127 607.535 205.638 609.398 205.638C611.262 205.638 612.773 204.127 612.773 202.263ZM646.137 305.047C646.137 303.184 644.626 301.672 642.762 301.672C640.899 301.672 639.388 303.184 639.388 305.047C639.388 306.911 640.899 308.422 642.762 308.422C644.626 308.422 646.137 306.911 646.137 305.047ZM241.623 623.775C243.486 623.775 244.997 625.286 244.997 627.15C244.997 629.013 243.486 630.524 241.623 630.524C239.759 630.524 238.248 629.013 238.248 627.15C238.248 625.286 239.759 623.775 241.623 623.775ZM356.356 646.799C356.356 644.935 354.845 643.424 352.982 643.424C351.118 643.424 349.607 644.935 349.607 646.799C349.607 648.662 351.118 650.173 352.982 650.173C354.845 650.173 356.356 648.662 356.356 646.799Z" fill="#063318"/>
</g>
</svg>
