<svg width="96" height="95" viewBox="0 0 96 95" fill="none" xmlns="http://www.w3.org/2000/svg">
<path fill-rule="evenodd" clip-rule="evenodd" d="M47.8791 94.3982C73.9304 94.3982 95.0491 73.2794 95.0491 47.2282C95.0491 21.1769 73.9304 0.0581665 47.8791 0.0581665C30.3673 0.0581665 15.0843 9.60087 6.94659 23.7698L4.86136 27.8483C4.1088 29.5162 3.45038 31.2356 2.89289 32.9999C2.6487 33.782 2.0953 35.6641 1.83522 36.9361C1.09797 40.249 0.709106 43.6932 0.709106 47.2282C0.709106 51.8559 1.37552 56.3279 2.61759 60.5536C2.92637 61.6673 3.64613 63.6418 3.96742 64.4898C4.69138 66.33 5.52768 68.1137 6.46786 69.8325L8.81218 73.6711C17.295 86.1792 31.6272 94.3982 47.8791 94.3982ZM47.8791 91.3569C72.2171 91.3569 91.947 71.627 91.947 47.289C91.947 22.9509 72.2171 3.22105 47.8791 3.22105C23.5411 3.22105 3.81117 22.9509 3.81117 47.289C3.81117 71.627 23.5411 91.3569 47.8791 91.3569Z" fill="url(#paint0_linear_1051_1585)"/>
<ellipse cx="48.5178" cy="48.0647" rx="35.5828" ry="35.0354" fill="#38ED7A" fill-opacity="0.1"/>
<path d="M59.2382 46.4698C59.2382 47.9274 60.4284 49.1176 61.8861 49.1176H68.9551V43.822H61.8861C60.4284 43.822 59.2382 45.0122 59.2382 46.4698ZM64.542 46.4698C64.542 46.9558 64.1451 47.3523 63.6595 47.3523H61.8941C61.4081 47.3523 61.0116 46.9554 61.0116 46.4698C61.0116 45.9838 61.4085 45.5873 61.8941 45.5873H63.6595C64.1451 45.5873 64.542 45.9841 64.542 46.4698Z" fill="url(#paint1_linear_1051_1585)"/>
<path d="M44.1606 35.8705C43.9501 35.4574 43.8203 34.9962 43.8203 34.5021C43.8203 34.0161 44.2172 33.6196 44.7028 33.6196C45.1888 33.6196 45.5853 34.0164 45.5853 34.5021C45.5853 35.2148 46.1601 35.7896 46.8728 35.7896C47.5855 35.7896 48.1603 35.2148 48.1603 34.5021C48.1603 33.7894 47.5855 33.2146 46.8728 33.2146C45.1885 33.2146 43.82 31.8462 43.82 30.1618C43.82 28.7852 44.735 27.6353 45.99 27.2547L45.9906 26.5582C45.9906 26.0722 46.3875 25.6757 46.8731 25.6757C47.3591 25.6757 47.7556 26.0726 47.7556 26.5582V27.2628C49.0028 27.6434 49.9256 28.7933 49.9256 30.1699C49.9256 30.6559 49.5288 31.0524 49.0431 31.0524C48.5571 31.0524 48.1606 30.6556 48.1606 30.1699C48.1606 29.4572 47.5859 28.8824 46.8731 28.8824C46.1604 28.8824 45.5857 29.4572 45.5857 30.1699C45.5857 30.8826 46.1604 31.4574 46.8731 31.4574C48.5575 31.4574 49.926 32.8258 49.926 34.5102C49.926 35.004 49.7965 35.4656 49.5857 35.8787H53.9744C54.517 34.7853 54.8247 33.5789 54.8247 32.3484C54.8247 32.0732 54.8085 31.8058 54.7844 31.5469C54.3794 27.4652 50.9786 24.3883 46.8732 24.3883C42.7678 24.3883 39.3669 27.4652 38.9619 31.5384C38.9375 31.7977 38.9216 32.0647 38.9216 32.3321C38.9216 33.563 39.2211 34.7695 39.7719 35.8624H44.1606L44.1606 35.8705Z" fill="url(#paint2_linear_1051_1585)"/>
<path d="M68.9551 35.8705V42.0572H66.3072V39.4093C66.3072 37.458 64.7202 35.8709 62.7688 35.8709H55.9102C56.3474 34.7535 56.5903 33.5552 56.5903 32.3406H65.5221C67.4168 32.3399 68.9551 33.9269 68.9551 35.8705Z" fill="url(#paint3_linear_1051_1585)"/>
<path d="M37.829 35.8705H31.7963C30.8491 35.8705 30.088 35.0768 30.088 34.1052C30.088 33.6273 30.2662 33.182 30.598 32.8502C30.922 32.5181 31.3429 32.3402 31.7963 32.3402H37.1566C37.157 33.5545 37.3918 34.7529 37.829 35.8705Z" fill="url(#paint4_linear_1051_1585)"/>
<path d="M57.4727 46.4698C57.4727 48.9072 59.4566 50.8911 61.8858 50.8911H64.5417V61.4903C64.5417 62.4619 63.748 63.2557 62.7683 63.2557H31.8531C30.8815 63.2557 30.0877 62.462 30.0877 61.4903V37.1659C30.5896 37.4574 31.1729 37.6356 31.7961 37.6356H62.7686C63.7483 37.6356 64.542 38.4293 64.542 39.4091V42.0569H61.8861C59.4568 42.0566 57.4727 44.0406 57.4727 46.4698Z" fill="url(#paint5_linear_1051_1585)"/>
<path d="M68.9551 50.891V56.1866C68.9551 57.1664 68.1939 57.952 67.2467 57.952H66.3073V50.891H68.9551Z" fill="url(#paint6_linear_1051_1585)"/>
<defs>
<linearGradient id="paint0_linear_1051_1585" x1="89.5523" y1="80.3819" x2="-6.38744" y2="61.2349" gradientUnits="userSpaceOnUse">
<stop stop-color="#90C626"/>
<stop offset="1" stop-color="#20934A"/>
</linearGradient>
<linearGradient id="paint1_linear_1051_1585" x1="66.6904" y1="57.4811" x2="27.164" y2="49.5927" gradientUnits="userSpaceOnUse">
<stop stop-color="#90C626"/>
<stop offset="1" stop-color="#20934A"/>
</linearGradient>
<linearGradient id="paint2_linear_1051_1585" x1="66.6904" y1="57.4811" x2="27.164" y2="49.5927" gradientUnits="userSpaceOnUse">
<stop stop-color="#90C626"/>
<stop offset="1" stop-color="#20934A"/>
</linearGradient>
<linearGradient id="paint3_linear_1051_1585" x1="66.6904" y1="57.4811" x2="27.164" y2="49.5927" gradientUnits="userSpaceOnUse">
<stop stop-color="#90C626"/>
<stop offset="1" stop-color="#20934A"/>
</linearGradient>
<linearGradient id="paint4_linear_1051_1585" x1="66.6904" y1="57.4811" x2="27.164" y2="49.5927" gradientUnits="userSpaceOnUse">
<stop stop-color="#90C626"/>
<stop offset="1" stop-color="#20934A"/>
</linearGradient>
<linearGradient id="paint5_linear_1051_1585" x1="66.6904" y1="57.4811" x2="27.164" y2="49.5927" gradientUnits="userSpaceOnUse">
<stop stop-color="#90C626"/>
<stop offset="1" stop-color="#20934A"/>
</linearGradient>
<linearGradient id="paint6_linear_1051_1585" x1="66.6904" y1="57.4811" x2="27.164" y2="49.5927" gradientUnits="userSpaceOnUse">
<stop stop-color="#90C626"/>
<stop offset="1" stop-color="#20934A"/>
</linearGradient>
</defs>
</svg>
