<svg width="76" height="76" viewBox="0 0 76 76" fill="none" xmlns="http://www.w3.org/2000/svg">
<path fill-rule="evenodd" clip-rule="evenodd" d="M37.8335 75.3333C58.5442 75.3333 75.3335 58.5439 75.3335 37.8333C75.3335 17.1226 58.5442 0.333252 37.8335 0.333252C23.9117 0.333252 11.7618 7.91967 5.29228 19.184L3.63452 22.4263C3.03624 23.7523 2.5128 25.1192 2.0696 26.5218C1.87547 27.1436 1.43551 28.6398 1.22875 29.6511C0.642638 32.2849 0.333496 35.023 0.333496 37.8333C0.333496 41.5122 0.86329 45.0675 1.85074 48.4269C2.09621 49.3123 2.66842 50.882 2.92385 51.5562C3.49939 53.0192 4.16424 54.4372 4.91169 55.8036L6.77542 58.8553C13.5192 68.7992 24.9133 75.3333 37.8335 75.3333ZM37.8334 72.9155C57.1821 72.9155 72.8673 57.2303 72.8673 37.8816C72.8673 18.5329 57.1821 2.84773 37.8334 2.84773C18.4848 2.84773 2.79958 18.5329 2.79958 37.8816C2.79958 57.2303 18.4848 72.9155 37.8334 72.9155Z" fill="url(#paint0_linear_1838_429)"/>
<ellipse cx="38.1962" cy="37.7124" rx="28.2882" ry="27.853" fill="#38ED7A" fill-opacity="0.1"/>
<path fill-rule="evenodd" clip-rule="evenodd" d="M59.6164 37.9784C59.6164 50.1164 49.7766 59.9561 37.6387 59.9561C25.5007 59.9561 15.6609 50.1164 15.6609 37.9784C15.6609 25.8404 25.5007 16.0006 37.6387 16.0006C49.7766 16.0006 59.6164 25.8404 59.6164 37.9784ZM39.0262 47.8528C40.3648 49.1913 42.1796 49.9443 44.0726 49.9464C45.9659 49.9446 47.7811 49.1918 49.1199 47.8532C50.4588 46.5147 51.2119 44.6996 51.2141 42.8064V42.7657C51.2119 40.8724 50.4588 39.0574 49.1199 37.7188C47.7811 36.3802 45.9659 35.6274 44.0726 35.6256C42.1796 35.6277 40.3648 36.3807 39.0262 37.7192C37.6877 39.0578 36.9347 40.8727 36.9326 42.7657V42.8064C36.9347 44.6994 37.6877 46.5142 39.0262 47.8528ZM41.4828 45.1181C41.5343 44.9553 41.5832 44.8617 41.6849 44.8617H41.6863C41.7677 44.8667 41.8467 44.8909 41.9169 44.9322C42.3546 45.1551 42.8289 45.2971 43.317 45.3514C43.4007 45.3621 43.485 45.3676 43.5693 45.3677C43.7979 45.3692 44.0244 45.323 44.2341 45.2321C44.3542 45.1853 44.4601 45.1081 44.5412 45.0079C44.6224 44.9077 44.676 44.7881 44.6967 44.6609C44.711 44.5323 44.6916 44.4021 44.6405 44.2832C44.5893 44.1643 44.5082 44.0607 44.405 43.9826C44.247 43.8555 44.0716 43.7518 43.8841 43.6746C43.7308 43.6081 43.5748 43.5444 43.4228 43.4833C43.0877 43.3585 42.7629 43.2074 42.4514 43.0316C42.0898 42.8591 41.7878 42.5829 41.5839 42.2381C41.3799 41.8933 41.2833 41.4955 41.3064 41.0956C41.3231 40.6438 41.483 40.209 41.7629 39.8539C42.0429 39.4989 42.4284 39.242 42.8639 39.1203L42.8829 39.1135C43.2492 38.9806 43.2492 38.9806 43.2492 38.5885V38.4027V38.1829C43.2587 37.8803 43.3088 37.8288 43.6073 37.822H43.8786C44.519 37.822 44.519 37.822 44.519 38.4583C44.5217 38.9128 44.5217 38.9128 44.9721 38.9819C45.3143 39.0369 45.6478 39.1368 45.9638 39.279C46.0026 39.29 46.0387 39.3091 46.0697 39.3349C46.1007 39.3607 46.1259 39.3928 46.1437 39.429C46.1614 39.4652 46.1714 39.5047 46.1729 39.5451C46.1744 39.5854 46.1674 39.6255 46.1524 39.663C46.1324 39.7298 46.113 39.7966 46.0933 39.8643C46.0851 39.8929 46.0767 39.9216 46.0683 39.9506C46.0181 40.131 45.9652 40.3169 45.9082 40.4933C45.8512 40.6696 45.7956 40.7347 45.7033 40.7347C45.6298 40.7284 45.5585 40.7061 45.4944 40.6696C45.0612 40.4606 44.5862 40.3526 44.1052 40.3535H43.9221C43.7783 40.3573 43.6363 40.3867 43.5028 40.4403C43.3978 40.4795 43.3048 40.5456 43.2334 40.6321C43.1619 40.7185 43.1145 40.8222 43.0959 40.9328C43.0855 41.0414 43.1038 41.1509 43.1491 41.2501C43.1943 41.3494 43.2649 41.4351 43.3536 41.4985C43.5603 41.6582 43.7887 41.7874 44.0319 41.8825L44.1798 41.9435C44.5548 42.0901 44.9212 42.2577 45.2774 42.4455C45.5796 42.6084 45.8422 42.8359 46.0465 43.1119C46.2507 43.3879 46.3916 43.7056 46.459 44.0423C46.5187 44.3581 46.5079 44.6832 46.4275 44.9944C46.347 45.3056 46.1989 45.5952 45.9937 45.8425C45.6753 46.2319 45.2416 46.5103 44.755 46.6375C44.7093 46.6434 44.6651 46.6583 44.6251 46.6814C44.5852 46.7044 44.5502 46.7353 44.5223 46.772C44.4944 46.8088 44.4741 46.8507 44.4625 46.8954C44.451 46.9401 44.4485 46.9867 44.4552 47.0323V47.4624V47.6903C44.4605 47.7306 44.4566 47.7715 44.4439 47.8101C44.4312 47.8487 44.41 47.8839 44.3819 47.9132C44.3538 47.9425 44.3194 47.9651 44.2814 47.9794C44.2434 47.9936 44.2026 47.9991 44.1622 47.9956H43.7633H43.454C43.4112 47.9992 43.3682 47.9932 43.328 47.9779C43.2879 47.9627 43.2517 47.9386 43.2221 47.9075C43.1925 47.8763 43.1703 47.8389 43.1571 47.7981C43.144 47.7572 43.1402 47.7139 43.146 47.6713V47.5099V47.1897C43.142 46.8343 43.1325 46.8234 42.7906 46.7678C42.3548 46.7091 41.9298 46.5875 41.5289 46.4069C41.2182 46.255 41.1816 46.1763 41.2725 45.848C41.278 45.8283 41.2834 45.8085 41.2889 45.7887C41.3502 45.5672 41.413 45.3398 41.4828 45.1181ZM24.081 44.4723H35.6668V44.4655C35.5592 43.9181 35.5052 43.3615 35.5054 42.8036V42.7562C35.5071 41.5438 35.7658 40.3455 36.2643 39.2403C36.7629 38.1352 37.49 37.1483 38.3978 36.3446V29.4257C38.4029 29.1827 38.3115 28.9477 38.1437 28.772C37.9759 28.5963 37.7453 28.4943 37.5024 28.4882H33.9249C33.682 28.4943 33.4514 28.5963 33.2836 28.772C33.1157 28.9477 33.0244 29.1827 33.0295 29.4257V42.5988H31.2387V35.0504C31.2438 34.8074 31.1524 34.5724 30.9846 34.3967C30.8168 34.221 30.5862 34.119 30.3433 34.1129H26.7658C26.5229 34.119 26.2923 34.221 26.1245 34.3967C25.9567 34.5724 25.8653 34.8074 25.8704 35.0504V42.5974H24.081V44.4723ZM40.1872 25.1061V35.1223L40.1899 35.1209C41.3921 34.5062 42.7238 34.1876 44.074 34.1916C44.5706 34.1915 45.0662 34.2342 45.5555 34.3191V25.1061C45.5606 24.8633 45.4692 24.6284 45.3013 24.4529C45.1335 24.2774 44.9028 24.1757 44.6601 24.17H41.0826C40.8398 24.1757 40.6092 24.2774 40.4413 24.4529C40.2735 24.6284 40.1821 24.8633 40.1872 25.1061Z" fill="url(#paint1_linear_1838_429)"/>
<defs>
<linearGradient id="paint0_linear_1838_429" x1="70.9636" y1="64.1904" x2="-5.30823" y2="48.9686" gradientUnits="userSpaceOnUse">
<stop stop-color="#90C626"/>
<stop offset="1" stop-color="#20934A"/>
</linearGradient>
<linearGradient id="paint1_linear_1838_429" x1="57.0553" y1="53.4256" x2="12.3544" y2="44.5045" gradientUnits="userSpaceOnUse">
<stop stop-color="#90C626"/>
<stop offset="1" stop-color="#20934A"/>
</linearGradient>
</defs>
</svg>
