<svg width="369" height="201" viewBox="0 0 369 201" fill="none" xmlns="http://www.w3.org/2000/svg">
<rect width="371" height="201" rx="20" fill="url(#paint0_radial_1067_3285)"/>
<path d="M57.92 45.68C59.5867 45.68 60.8867 46.18 61.82 47.18C62.7533 48.18 63.22 49.62 63.22 51.5V60H58.5V51.64C58.5 50.9467 58.32 50.42 57.96 50.06C57.6 49.6867 57.1067 49.5 56.48 49.5C55.84 49.5 55.3267 49.7 54.94 50.1C54.5667 50.4867 54.38 51.0533 54.38 51.8V60H49.66V51.64C49.66 50.9467 49.4933 50.42 49.16 50.06C48.84 49.6867 48.3867 49.5 47.8 49.5C47.2 49.5 46.7267 49.7 46.38 50.1C46.0333 50.4867 45.86 51.0533 45.86 51.8V60H41.14V46H45.7V47.4C46.5667 46.2533 47.8533 45.68 49.56 45.68C51.3467 45.68 52.6733 46.3067 53.54 47.56C54.0333 46.9333 54.6533 46.4667 55.4 46.16C56.16 45.84 57 45.68 57.92 45.68ZM72.7183 60.32C71.2116 60.32 69.8583 60.0067 68.6583 59.38C67.4583 58.7533 66.5183 57.8867 65.8383 56.78C65.1583 55.66 64.8183 54.4 64.8183 53C64.8183 51.6 65.1583 50.3467 65.8383 49.24C66.5183 48.12 67.4583 47.2467 68.6583 46.62C69.8583 45.9933 71.2116 45.68 72.7183 45.68C74.2249 45.68 75.5783 45.9933 76.7783 46.62C77.9783 47.2467 78.9183 48.12 79.5983 49.24C80.2783 50.3467 80.6183 51.6 80.6183 53C80.6183 54.4 80.2783 55.66 79.5983 56.78C78.9183 57.8867 77.9783 58.7533 76.7783 59.38C75.5783 60.0067 74.2249 60.32 72.7183 60.32ZM72.7183 56.5C73.3049 56.5 73.8316 56.36 74.2983 56.08C74.7783 55.7867 75.1583 55.38 75.4383 54.86C75.7183 54.3267 75.8583 53.7067 75.8583 53C75.8583 52.2933 75.7183 51.68 75.4383 51.16C75.1583 50.6267 74.7783 50.22 74.2983 49.94C73.8316 49.6467 73.3049 49.5 72.7183 49.5C72.1316 49.5 71.5983 49.6467 71.1183 49.94C70.6516 50.22 70.2783 50.6267 69.9983 51.16C69.7183 51.68 69.5783 52.2933 69.5783 53C69.5783 53.7067 69.7183 54.3267 69.9983 54.86C70.2783 55.38 70.6516 55.7867 71.1183 56.08C71.5983 56.36 72.1316 56.5 72.7183 56.5ZM90.8314 45.68C92.4847 45.68 93.7647 46.22 94.6714 47.3C95.5914 48.38 96.0514 49.9133 96.0514 51.9V60H91.3314V52.04C91.3314 51.1867 91.1447 50.5533 90.7714 50.14C90.4114 49.7133 89.9047 49.5 89.2514 49.5C88.5981 49.5 88.0647 49.7267 87.6514 50.18C87.2514 50.6333 87.0514 51.3067 87.0514 52.2V60H82.3314V46H86.9114V47.5C87.8581 46.2867 89.1647 45.68 90.8314 45.68ZM104.59 49.56V56.44H106.69V60H97.7703V56.44H99.8703V49.56H97.7703V46H106.69V49.56H104.59ZM119.863 50.9C118.783 50.3 117.689 49.8867 116.583 49.66V60H111.863V49.66C110.756 49.8867 109.663 50.3 108.583 50.9L107.023 47.54C108.023 46.94 109.143 46.48 110.383 46.16C111.623 45.84 112.903 45.68 114.223 45.68C115.543 45.68 116.823 45.84 118.063 46.16C119.303 46.48 120.423 46.94 121.423 47.54L119.863 50.9ZM129.339 60.32C127.833 60.32 126.479 60.0067 125.279 59.38C124.079 58.7533 123.139 57.8867 122.459 56.78C121.779 55.66 121.439 54.4 121.439 53C121.439 51.6 121.779 50.3467 122.459 49.24C123.139 48.12 124.079 47.2467 125.279 46.62C126.479 45.9933 127.833 45.68 129.339 45.68C130.846 45.68 132.199 45.9933 133.399 46.62C134.599 47.2467 135.539 48.12 136.219 49.24C136.899 50.3467 137.239 51.6 137.239 53C137.239 54.4 136.899 55.66 136.219 56.78C135.539 57.8867 134.599 58.7533 133.399 59.38C132.199 60.0067 130.846 60.32 129.339 60.32ZM129.339 56.5C129.926 56.5 130.453 56.36 130.919 56.08C131.399 55.7867 131.779 55.38 132.059 54.86C132.339 54.3267 132.479 53.7067 132.479 53C132.479 52.2933 132.339 51.68 132.059 51.16C131.779 50.6267 131.399 50.22 130.919 49.94C130.453 49.6467 129.926 49.5 129.339 49.5C128.753 49.5 128.219 49.6467 127.739 49.94C127.273 50.22 126.899 50.6267 126.619 51.16C126.339 51.68 126.199 52.2933 126.199 53C126.199 53.7067 126.339 54.3267 126.619 54.86C126.899 55.38 127.273 55.7867 127.739 56.08C128.219 56.36 128.753 56.5 129.339 56.5ZM144.953 56.48H143.673V60H138.953V46H145.693C146.986 46 148.113 46.2133 149.073 46.64C150.033 47.0667 150.773 47.68 151.293 48.48C151.813 49.28 152.073 50.2133 152.073 51.28C152.073 52.28 151.846 53.1533 151.393 53.9C150.939 54.6467 150.286 55.24 149.433 55.68L152.373 60H147.333L144.953 56.48ZM147.313 51.28C147.313 50.76 147.153 50.36 146.833 50.08C146.513 49.7867 146.033 49.64 145.393 49.64H143.673V52.92H145.393C146.033 52.92 146.513 52.78 146.833 52.5C147.153 52.2067 147.313 51.8 147.313 51.28ZM166.631 45.68C167.991 45.68 169.191 45.9533 170.231 46.5C171.271 47.0333 172.078 47.82 172.651 48.86C173.238 49.8867 173.531 51.1133 173.531 52.54V60H168.811V57.18H164.371V60H159.731V52.54C159.731 51.1133 160.018 49.8867 160.591 48.86C161.178 47.82 161.991 47.0333 163.031 46.5C164.071 45.9533 165.271 45.68 166.631 45.68ZM168.811 53.62V52.14C168.811 51.2733 168.604 50.62 168.191 50.18C167.791 49.7267 167.258 49.5 166.591 49.5C165.924 49.5 165.384 49.7267 164.971 50.18C164.571 50.62 164.371 51.2733 164.371 52.14V53.62H168.811ZM184.191 45.68C185.844 45.68 187.124 46.22 188.031 47.3C188.951 48.38 189.411 49.9133 189.411 51.9V60H184.691V52.04C184.691 51.1867 184.504 50.5533 184.131 50.14C183.771 49.7133 183.264 49.5 182.611 49.5C181.957 49.5 181.424 49.7267 181.011 50.18C180.611 50.6333 180.411 51.3067 180.411 52.2V60H175.691V46H180.271V47.5C181.217 46.2867 182.524 45.68 184.191 45.68ZM191.57 46H198.47C200.03 46 201.403 46.2867 202.59 46.86C203.79 47.42 204.716 48.2267 205.37 49.28C206.036 50.3333 206.37 51.5733 206.37 53C206.37 54.4267 206.036 55.6667 205.37 56.72C204.716 57.7733 203.79 58.5867 202.59 59.16C201.403 59.72 200.03 60 198.47 60H191.57V46ZM198.27 56.32C199.283 56.32 200.09 56.0333 200.69 55.46C201.303 54.8733 201.61 54.0533 201.61 53C201.61 51.9467 201.303 51.1333 200.69 50.56C200.09 49.9733 199.283 49.68 198.27 49.68H196.29V56.32H198.27ZM57.92 69.68C59.5867 69.68 60.8867 70.18 61.82 71.18C62.7533 72.18 63.22 73.62 63.22 75.5V84H58.5V75.64C58.5 74.9467 58.32 74.42 57.96 74.06C57.6 73.6867 57.1067 73.5 56.48 73.5C55.84 73.5 55.3267 73.7 54.94 74.1C54.5667 74.4867 54.38 75.0533 54.38 75.8V84H49.66V75.64C49.66 74.9467 49.4933 74.42 49.16 74.06C48.84 73.6867 48.3867 73.5 47.8 73.5C47.2 73.5 46.7267 73.7 46.38 74.1C46.0333 74.4867 45.86 75.0533 45.86 75.8V84H41.14V70H45.7V71.4C46.5667 70.2533 47.8533 69.68 49.56 69.68C51.3467 69.68 52.6733 70.3067 53.54 71.56C54.0333 70.9333 54.6533 70.4667 55.4 70.16C56.16 69.84 57 69.68 57.92 69.68ZM72.1583 69.68C73.5183 69.68 74.7183 69.9533 75.7583 70.5C76.7983 71.0333 77.6049 71.82 78.1783 72.86C78.7649 73.8867 79.0583 75.1133 79.0583 76.54V84H74.3383V81.18H69.8983V84H65.2583V76.54C65.2583 75.1133 65.5449 73.8867 66.1183 72.86C66.7049 71.82 67.5183 71.0333 68.5583 70.5C69.5983 69.9533 70.7983 69.68 72.1583 69.68ZM74.3383 77.62V76.14C74.3383 75.2733 74.1316 74.62 73.7183 74.18C73.3183 73.7267 72.7849 73.5 72.1183 73.5C71.4516 73.5 70.9116 73.7267 70.4983 74.18C70.0983 74.62 69.8983 75.2733 69.8983 76.14V77.62H74.3383ZM89.7181 69.68C91.3715 69.68 92.6515 70.22 93.5581 71.3C94.4781 72.38 94.9381 73.9133 94.9381 75.9V84H90.2181V76.04C90.2181 75.1867 90.0315 74.5533 89.6581 74.14C89.2981 73.7133 88.7915 73.5 88.1381 73.5C87.4848 73.5 86.9515 73.7267 86.5381 74.18C86.1381 74.6333 85.9381 75.3067 85.9381 76.2V84H81.2181V70H85.7981V71.5C86.7448 70.2867 88.0515 69.68 89.7181 69.68ZM103.877 69.68C105.237 69.68 106.437 69.9533 107.477 70.5C108.517 71.0333 109.324 71.82 109.897 72.86C110.484 73.8867 110.777 75.1133 110.777 76.54V84H106.057V81.18H101.617V84H96.977V76.54C96.977 75.1133 97.2637 73.8867 97.837 72.86C98.4237 71.82 99.237 71.0333 100.277 70.5C101.317 69.9533 102.517 69.68 103.877 69.68ZM106.057 77.62V76.14C106.057 75.2733 105.85 74.62 105.437 74.18C105.037 73.7267 104.504 73.5 103.837 73.5C103.17 73.5 102.63 73.7267 102.217 74.18C101.817 74.62 101.617 75.2733 101.617 76.14V77.62H106.057ZM122.197 76.62H126.297V84H123.217V83.14C122.284 83.9267 121.03 84.32 119.457 84.32C118.137 84.32 116.937 84.04 115.857 83.48C114.79 82.92 113.944 82.1067 113.317 81.04C112.69 79.96 112.377 78.6733 112.377 77.18C112.377 75.7133 112.71 74.4133 113.377 73.28C114.057 72.1333 114.997 71.2467 116.197 70.62C117.397 69.9933 118.764 69.68 120.297 69.68C121.67 69.68 122.897 69.9133 123.977 70.38C125.07 70.8333 125.977 71.5 126.697 72.38L123.677 75.04C122.797 74.0133 121.75 73.5 120.537 73.5C119.484 73.5 118.65 73.82 118.037 74.46C117.437 75.1 117.137 75.9933 117.137 77.14C117.137 78.2867 117.41 79.1467 117.957 79.72C118.517 80.2933 119.237 80.58 120.117 80.58C120.93 80.58 121.624 80.38 122.197 79.98V76.62ZM140.948 83.08C140.201 83.4667 139.301 83.7733 138.248 84C137.195 84.2133 136.121 84.32 135.028 84.32C133.455 84.32 132.115 84.14 131.008 83.78C129.915 83.4067 129.088 82.8933 128.528 82.24C127.968 81.5733 127.688 80.8133 127.688 79.96C127.688 79.2533 127.875 78.62 128.248 78.06C128.635 77.5 129.181 77.0667 129.888 76.76C129.355 76.4667 128.948 76.0867 128.668 75.62C128.401 75.14 128.268 74.6133 128.268 74.04C128.268 73.2533 128.521 72.5333 129.028 71.88C129.548 71.2133 130.335 70.68 131.388 70.28C132.455 69.88 133.761 69.68 135.308 69.68C136.255 69.68 137.181 69.7667 138.088 69.94C139.008 70.1 139.828 70.32 140.548 70.6L139.268 74.04C138.015 73.5333 136.755 73.28 135.488 73.28C134.661 73.28 134.041 73.3733 133.628 73.56C133.228 73.7467 133.028 74.0067 133.028 74.34C133.028 74.62 133.128 74.8333 133.328 74.98C133.528 75.1267 133.861 75.2 134.328 75.2H138.428V78.68H134.008C133.488 78.68 133.095 78.7667 132.828 78.94C132.575 79.1 132.448 79.3333 132.448 79.64C132.448 80.36 133.368 80.72 135.208 80.72C135.915 80.72 136.661 80.6267 137.448 80.44C138.248 80.24 138.955 79.98 139.568 79.66L140.948 83.08Z" fill="white"/>
<path opacity="0.6" fill-rule="evenodd" clip-rule="evenodd" d="M286.024 109.976C310.864 109.976 331 89.8396 331 65.0001C331 40.1606 310.864 20.0242 286.024 20.0242C269.327 20.0242 254.755 29.123 246.996 42.6329L245.007 46.5217C244.29 48.1119 243.662 49.7514 243.13 51.4337C242.898 52.1793 242.37 53.9739 242.122 55.1868C241.419 58.3456 241.048 61.6295 241.048 65.0001C241.048 69.4125 241.684 73.6765 242.868 77.7057C243.162 78.7676 243.849 80.6502 244.155 81.4588C244.845 83.2134 245.643 84.9142 246.539 86.553L248.774 90.213C256.863 102.139 270.528 109.976 286.024 109.976ZM286.024 107.076C309.23 107.076 328.042 88.2641 328.042 65.0581C328.042 41.8521 309.23 23.04 286.024 23.04C262.818 23.04 244.006 41.8521 244.006 65.0581C244.006 88.2641 262.818 107.076 286.024 107.076Z" fill="#C5D82E"/>
<circle cx="286.647" cy="65.0049" r="35.9807" fill="#022426"/>
<path d="M295.32 60.6202C298.56 61.4202 301.04 62.8802 302.76 65.0002C304.52 67.0802 305.4 69.6002 305.4 72.5602C305.4 75.0802 304.7 77.4402 303.3 79.6402C301.94 81.8002 299.82 83.5602 296.94 84.9202C294.06 86.2802 290.48 86.9602 286.2 86.9602C283.24 86.9602 280.28 86.6402 277.32 86.0002C274.4 85.3602 271.84 84.4202 269.64 83.1802L274.44 72.7402C276.16 73.7402 278 74.5002 279.96 75.0202C281.96 75.5402 283.88 75.8002 285.72 75.8002C287.36 75.8002 288.68 75.5202 289.68 74.9602C290.68 74.4002 291.18 73.6002 291.18 72.5602C291.18 70.6402 289.52 69.6802 286.2 69.6802H280.62V60.9802L286.8 54.6802H271.8V44.0002H303.12V52.7002L295.32 60.6202Z" fill="white"/>
<path d="M45.894 139.088C44.9047 139.088 44.0133 138.873 43.22 138.444C42.4267 138.005 41.8013 137.403 41.344 136.638C40.896 135.872 40.672 135.018 40.672 134.076C40.672 133.133 40.896 132.279 41.344 131.514C41.8013 130.748 42.4267 130.151 43.22 129.722C44.0133 129.283 44.9047 129.064 45.894 129.064C46.874 129.064 47.7607 129.283 48.554 129.722C49.3473 130.151 49.968 130.748 50.416 131.514C50.864 132.27 51.088 133.124 51.088 134.076C51.088 135.028 50.864 135.886 50.416 136.652C49.968 137.408 49.3473 138.005 48.554 138.444C47.7607 138.873 46.874 139.088 45.894 139.088ZM45.894 137.842C46.6127 137.842 47.2567 137.678 47.826 137.352C48.4047 137.025 48.8573 136.577 49.184 136.008C49.52 135.429 49.688 134.785 49.688 134.076C49.688 133.366 49.52 132.727 49.184 132.158C48.8573 131.579 48.4047 131.126 47.826 130.8C47.2567 130.473 46.6127 130.31 45.894 130.31C45.1753 130.31 44.522 130.473 43.934 130.8C43.3553 131.126 42.898 131.579 42.562 132.158C42.2353 132.727 42.072 133.366 42.072 134.076C42.072 134.785 42.2353 135.429 42.562 136.008C42.898 136.577 43.3553 137.025 43.934 137.352C44.522 137.678 45.1753 137.842 45.894 137.842ZM56.9938 131.486C57.9365 131.486 58.6831 131.761 59.2338 132.312C59.7938 132.853 60.0738 133.651 60.0738 134.706V138.976H58.7298V134.86C58.7298 134.141 58.5571 133.6 58.2118 133.236C57.8665 132.872 57.3718 132.69 56.7278 132.69C55.9998 132.69 55.4258 132.904 55.0058 133.334C54.5858 133.754 54.3758 134.36 54.3758 135.154V138.976H53.0318V131.556H54.3198V132.676C54.5905 132.293 54.9545 131.999 55.4118 131.794C55.8785 131.588 56.4058 131.486 56.9938 131.486ZM65.8361 139.06C65.0801 139.06 64.4035 138.896 63.8061 138.57C63.2181 138.243 62.7561 137.795 62.4201 137.226C62.0841 136.647 61.9161 135.994 61.9161 135.266C61.9161 134.538 62.0841 133.889 62.4201 133.32C62.7561 132.741 63.2181 132.293 63.8061 131.976C64.4035 131.649 65.0801 131.486 65.8361 131.486C66.5081 131.486 67.1055 131.621 67.6281 131.892C68.1601 132.162 68.5708 132.554 68.8601 133.068L67.8381 133.726C67.6048 133.371 67.3155 133.105 66.9701 132.928C66.6248 132.75 66.2421 132.662 65.8221 132.662C65.3368 132.662 64.8981 132.769 64.5061 132.984C64.1235 133.198 63.8201 133.506 63.5961 133.908C63.3815 134.3 63.2741 134.752 63.2741 135.266C63.2741 135.788 63.3815 136.25 63.5961 136.652C63.8201 137.044 64.1235 137.347 64.5061 137.562C64.8981 137.776 65.3368 137.884 65.8221 137.884C66.2421 137.884 66.6248 137.795 66.9701 137.618C67.3155 137.44 67.6048 137.174 67.8381 136.82L68.8601 137.464C68.5708 137.977 68.1601 138.374 67.6281 138.654C67.1055 138.924 66.5081 139.06 65.8361 139.06ZM73.8368 137.884C74.7235 137.884 75.4375 137.585 75.9788 136.988L76.7068 137.856C76.3801 138.248 75.9648 138.546 75.4608 138.752C74.9661 138.957 74.4108 139.06 73.7948 139.06C73.0108 139.06 72.3155 138.901 71.7088 138.584C71.1021 138.257 70.6308 137.804 70.2948 137.226C69.9681 136.647 69.8048 135.994 69.8048 135.266C69.8048 134.547 69.9635 133.898 70.2808 133.32C70.6075 132.741 71.0508 132.293 71.6108 131.976C72.1801 131.649 72.8195 131.486 73.5288 131.486C74.2008 131.486 74.8121 131.64 75.3628 131.948C75.9135 132.246 76.3521 132.671 76.6788 133.222C77.0055 133.772 77.1735 134.407 77.1828 135.126L71.2888 136.274C71.4755 136.787 71.7881 137.184 72.2268 137.464C72.6748 137.744 73.2115 137.884 73.8368 137.884ZM73.5288 132.62C73.0621 132.62 72.6421 132.727 72.2688 132.942C71.9048 133.156 71.6201 133.46 71.4148 133.852C71.2095 134.234 71.1068 134.682 71.1068 135.196V135.336L75.8528 134.44C75.7315 133.898 75.4608 133.46 75.0408 133.124C74.6208 132.788 74.1168 132.62 73.5288 132.62ZM89.7388 131.556V137.968C89.7388 139.265 89.4355 140.222 88.8288 140.838C88.2222 141.463 87.3122 141.776 86.0988 141.776C85.4362 141.776 84.8015 141.678 84.1948 141.482C83.5975 141.295 83.1075 141.024 82.7248 140.67L83.3828 139.634C83.7095 139.932 84.1015 140.166 84.5588 140.334C85.0255 140.502 85.5155 140.586 86.0288 140.586C86.8408 140.586 87.4382 140.38 87.8208 139.97C88.2035 139.568 88.3948 138.948 88.3948 138.108V137.562C88.1242 137.916 87.7742 138.192 87.3448 138.388C86.9155 138.574 86.4488 138.668 85.9448 138.668C84.9555 138.668 84.1762 138.397 83.6068 137.856C83.0375 137.314 82.7528 136.512 82.7528 135.448V131.556H84.0968V135.294C84.0968 136.003 84.2695 136.544 84.6148 136.918C84.9602 137.282 85.4548 137.464 86.0988 137.464C86.8082 137.464 87.3682 137.249 87.7788 136.82C88.1895 136.39 88.3948 135.784 88.3948 135V131.556H89.7388ZM95.4754 139.06C94.7381 139.06 94.0754 138.896 93.4874 138.57C92.8994 138.243 92.4374 137.795 92.1014 137.226C91.7748 136.647 91.6114 135.994 91.6114 135.266C91.6114 134.538 91.7748 133.889 92.1014 133.32C92.4374 132.741 92.8994 132.293 93.4874 131.976C94.0754 131.649 94.7381 131.486 95.4754 131.486C96.2128 131.486 96.8708 131.649 97.4494 131.976C98.0374 132.293 98.4948 132.741 98.8214 133.32C99.1574 133.889 99.3254 134.538 99.3254 135.266C99.3254 135.994 99.1574 136.647 98.8214 137.226C98.4948 137.795 98.0374 138.243 97.4494 138.57C96.8708 138.896 96.2128 139.06 95.4754 139.06ZM95.4754 137.884C95.9514 137.884 96.3761 137.776 96.7494 137.562C97.1321 137.338 97.4308 137.03 97.6454 136.638C97.8601 136.236 97.9674 135.779 97.9674 135.266C97.9674 134.752 97.8601 134.3 97.6454 133.908C97.4308 133.506 97.1321 133.198 96.7494 132.984C96.3761 132.769 95.9514 132.662 95.4754 132.662C94.9994 132.662 94.5701 132.769 94.1874 132.984C93.8141 133.198 93.5154 133.506 93.2914 133.908C93.0768 134.3 92.9694 134.752 92.9694 135.266C92.9694 135.779 93.0768 136.236 93.2914 136.638C93.5154 137.03 93.8141 137.338 94.1874 137.562C94.5701 137.776 94.9994 137.884 95.4754 137.884ZM108.1 131.556V138.976H106.826V137.856C106.555 138.238 106.196 138.537 105.748 138.752C105.309 138.957 104.829 139.06 104.306 139.06C103.317 139.06 102.537 138.789 101.968 138.248C101.399 137.697 101.114 136.89 101.114 135.826V131.556H102.458V135.672C102.458 136.39 102.631 136.936 102.976 137.31C103.321 137.674 103.816 137.856 104.46 137.856C105.169 137.856 105.729 137.641 106.14 137.212C106.551 136.782 106.756 136.176 106.756 135.392V131.556H108.1ZM111.947 132.802C112.18 132.372 112.525 132.046 112.983 131.822C113.44 131.598 113.995 131.486 114.649 131.486V132.788C114.574 132.778 114.471 132.774 114.341 132.774C113.613 132.774 113.039 132.993 112.619 133.432C112.208 133.861 112.003 134.477 112.003 135.28V138.976H110.659V131.556H111.947V132.802ZM127.161 131.556V138.976H125.873V137.8C125.574 138.21 125.196 138.523 124.739 138.738C124.281 138.952 123.777 139.06 123.227 139.06C122.508 139.06 121.864 138.901 121.295 138.584C120.725 138.266 120.277 137.823 119.951 137.254C119.633 136.675 119.475 136.012 119.475 135.266C119.475 134.519 119.633 133.861 119.951 133.292C120.277 132.722 120.725 132.279 121.295 131.962C121.864 131.644 122.508 131.486 123.227 131.486C123.759 131.486 124.249 131.588 124.697 131.794C125.145 131.99 125.518 132.284 125.817 132.676V131.556H127.161ZM123.339 137.884C123.805 137.884 124.23 137.776 124.613 137.562C124.995 137.338 125.294 137.03 125.509 136.638C125.723 136.236 125.831 135.779 125.831 135.266C125.831 134.752 125.723 134.3 125.509 133.908C125.294 133.506 124.995 133.198 124.613 132.984C124.23 132.769 123.805 132.662 123.339 132.662C122.863 132.662 122.433 132.769 122.051 132.984C121.677 133.198 121.379 133.506 121.155 133.908C120.94 134.3 120.833 134.752 120.833 135.266C120.833 135.779 120.94 136.236 121.155 136.638C121.379 137.03 121.677 137.338 122.051 137.562C122.433 137.776 122.863 137.884 123.339 137.884ZM132.938 139.06C132.182 139.06 131.505 138.896 130.908 138.57C130.32 138.243 129.858 137.795 129.522 137.226C129.186 136.647 129.018 135.994 129.018 135.266C129.018 134.538 129.186 133.889 129.522 133.32C129.858 132.741 130.32 132.293 130.908 131.976C131.505 131.649 132.182 131.486 132.938 131.486C133.61 131.486 134.207 131.621 134.73 131.892C135.262 132.162 135.672 132.554 135.962 133.068L134.94 133.726C134.706 133.371 134.417 133.105 134.072 132.928C133.726 132.75 133.344 132.662 132.924 132.662C132.438 132.662 132 132.769 131.608 132.984C131.225 133.198 130.922 133.506 130.698 133.908C130.483 134.3 130.376 134.752 130.376 135.266C130.376 135.788 130.483 136.25 130.698 136.652C130.922 137.044 131.225 137.347 131.608 137.562C132 137.776 132.438 137.884 132.924 137.884C133.344 137.884 133.726 137.795 134.072 137.618C134.417 137.44 134.706 137.174 134.94 136.82L135.962 137.464C135.672 137.977 135.262 138.374 134.73 138.654C134.207 138.924 133.61 139.06 132.938 139.06ZM140.826 139.06C140.07 139.06 139.394 138.896 138.796 138.57C138.208 138.243 137.746 137.795 137.41 137.226C137.074 136.647 136.906 135.994 136.906 135.266C136.906 134.538 137.074 133.889 137.41 133.32C137.746 132.741 138.208 132.293 138.796 131.976C139.394 131.649 140.07 131.486 140.826 131.486C141.498 131.486 142.096 131.621 142.618 131.892C143.15 132.162 143.561 132.554 143.85 133.068L142.828 133.726C142.595 133.371 142.306 133.105 141.96 132.928C141.615 132.75 141.232 132.662 140.812 132.662C140.327 132.662 139.888 132.769 139.496 132.984C139.114 133.198 138.81 133.506 138.586 133.908C138.372 134.3 138.264 134.752 138.264 135.266C138.264 135.788 138.372 136.25 138.586 136.652C138.81 137.044 139.114 137.347 139.496 137.562C139.888 137.776 140.327 137.884 140.812 137.884C141.232 137.884 141.615 137.795 141.96 137.618C142.306 137.44 142.595 137.174 142.828 136.82L143.85 137.464C143.561 137.977 143.15 138.374 142.618 138.654C142.096 138.924 141.498 139.06 140.826 139.06ZM148.659 139.06C147.922 139.06 147.259 138.896 146.671 138.57C146.083 138.243 145.621 137.795 145.285 137.226C144.958 136.647 144.795 135.994 144.795 135.266C144.795 134.538 144.958 133.889 145.285 133.32C145.621 132.741 146.083 132.293 146.671 131.976C147.259 131.649 147.922 131.486 148.659 131.486C149.396 131.486 150.054 131.649 150.633 131.976C151.221 132.293 151.678 132.741 152.005 133.32C152.341 133.889 152.509 134.538 152.509 135.266C152.509 135.994 152.341 136.647 152.005 137.226C151.678 137.795 151.221 138.243 150.633 138.57C150.054 138.896 149.396 139.06 148.659 139.06ZM148.659 137.884C149.135 137.884 149.56 137.776 149.933 137.562C150.316 137.338 150.614 137.03 150.829 136.638C151.044 136.236 151.151 135.779 151.151 135.266C151.151 134.752 151.044 134.3 150.829 133.908C150.614 133.506 150.316 133.198 149.933 132.984C149.56 132.769 149.135 132.662 148.659 132.662C148.183 132.662 147.754 132.769 147.371 132.984C146.998 133.198 146.699 133.506 146.475 133.908C146.26 134.3 146.153 134.752 146.153 135.266C146.153 135.779 146.26 136.236 146.475 136.638C146.699 137.03 146.998 137.338 147.371 137.562C147.754 137.776 148.183 137.884 148.659 137.884ZM161.284 131.556V138.976H160.01V137.856C159.739 138.238 159.38 138.537 158.932 138.752C158.493 138.957 158.012 139.06 157.49 139.06C156.5 139.06 155.721 138.789 155.152 138.248C154.582 137.697 154.298 136.89 154.298 135.826V131.556H155.642V135.672C155.642 136.39 155.814 136.936 156.16 137.31C156.505 137.674 157 137.856 157.644 137.856C158.353 137.856 158.913 137.641 159.324 137.212C159.734 136.782 159.94 136.176 159.94 135.392V131.556H161.284ZM167.804 131.486C168.747 131.486 169.494 131.761 170.044 132.312C170.604 132.853 170.884 133.651 170.884 134.706V138.976H169.54V134.86C169.54 134.141 169.368 133.6 169.022 133.236C168.677 132.872 168.182 132.69 167.538 132.69C166.81 132.69 166.236 132.904 165.816 133.334C165.396 133.754 165.186 134.36 165.186 135.154V138.976H163.842V131.556H165.13V132.676C165.401 132.293 165.765 131.999 166.222 131.794C166.689 131.588 167.216 131.486 167.804 131.486ZM177.278 138.542C177.082 138.71 176.839 138.84 176.55 138.934C176.26 139.018 175.962 139.06 175.654 139.06C174.907 139.06 174.328 138.859 173.918 138.458C173.507 138.056 173.302 137.482 173.302 136.736V129.932H174.646V131.556H176.774V132.662H174.646V136.68C174.646 137.081 174.744 137.389 174.94 137.604C175.145 137.818 175.434 137.926 175.808 137.926C176.218 137.926 176.568 137.809 176.858 137.576L177.278 138.542ZM182.655 131.556H183.999V138.976H182.655V131.556ZM183.327 130.128C183.066 130.128 182.846 130.044 182.669 129.876C182.501 129.708 182.417 129.502 182.417 129.26C182.417 129.017 182.501 128.812 182.669 128.644C182.846 128.466 183.066 128.378 183.327 128.378C183.588 128.378 183.803 128.462 183.971 128.63C184.148 128.788 184.237 128.989 184.237 129.232C184.237 129.484 184.148 129.698 183.971 129.876C183.803 130.044 183.588 130.128 183.327 130.128ZM188.693 139.06C188.086 139.06 187.503 138.98 186.943 138.822C186.383 138.654 185.944 138.444 185.627 138.192L186.187 137.128C186.514 137.361 186.91 137.548 187.377 137.688C187.844 137.828 188.315 137.898 188.791 137.898C189.967 137.898 190.555 137.562 190.555 136.89C190.555 136.666 190.476 136.488 190.317 136.358C190.158 136.227 189.958 136.134 189.715 136.078C189.482 136.012 189.146 135.942 188.707 135.868C188.11 135.774 187.62 135.667 187.237 135.546C186.864 135.424 186.542 135.219 186.271 134.93C186 134.64 185.865 134.234 185.865 133.712C185.865 133.04 186.145 132.503 186.705 132.102C187.265 131.691 188.016 131.486 188.959 131.486C189.454 131.486 189.948 131.546 190.443 131.668C190.938 131.789 191.344 131.952 191.661 132.158L191.087 133.222C190.48 132.83 189.766 132.634 188.945 132.634C188.376 132.634 187.942 132.727 187.643 132.914C187.344 133.1 187.195 133.348 187.195 133.656C187.195 133.898 187.279 134.09 187.447 134.23C187.615 134.37 187.82 134.472 188.063 134.538C188.315 134.603 188.665 134.678 189.113 134.762C189.71 134.864 190.191 134.976 190.555 135.098C190.928 135.21 191.246 135.406 191.507 135.686C191.768 135.966 191.899 136.358 191.899 136.862C191.899 137.534 191.61 138.07 191.031 138.472C190.462 138.864 189.682 139.06 188.693 139.06ZM199.858 129.61C199.056 129.61 198.654 130.044 198.654 130.912V131.556H200.824V132.662H198.682V138.976H197.338V130.898C197.338 130.16 197.553 129.577 197.982 129.148C198.412 128.718 199.014 128.504 199.788 128.504C200.087 128.504 200.367 128.541 200.628 128.616C200.89 128.69 201.114 128.798 201.3 128.938L200.894 129.96C200.586 129.726 200.241 129.61 199.858 129.61ZM208.999 131.556V138.976H207.725V137.856C207.454 138.238 207.095 138.537 206.647 138.752C206.208 138.957 205.727 139.06 205.205 139.06C204.215 139.06 203.436 138.789 202.867 138.248C202.297 137.697 202.013 136.89 202.013 135.826V131.556H203.357V135.672C203.357 136.39 203.529 136.936 203.875 137.31C204.22 137.674 204.715 137.856 205.359 137.856C206.068 137.856 206.628 137.641 207.039 137.212C207.449 136.782 207.655 136.176 207.655 135.392V131.556H208.999ZM215.519 131.486C216.462 131.486 217.209 131.761 217.759 132.312C218.319 132.853 218.599 133.651 218.599 134.706V138.976H217.255V134.86C217.255 134.141 217.083 133.6 216.737 133.236C216.392 132.872 215.897 132.69 215.253 132.69C214.525 132.69 213.951 132.904 213.531 133.334C213.111 133.754 212.901 134.36 212.901 135.154V138.976H211.557V131.556H212.845V132.676C213.116 132.293 213.48 131.999 213.937 131.794C214.404 131.588 214.931 131.486 215.519 131.486ZM228.128 128.588V138.976H226.84V137.8C226.541 138.21 226.163 138.523 225.706 138.738C225.248 138.952 224.744 139.06 224.194 139.06C223.475 139.06 222.831 138.901 222.262 138.584C221.692 138.266 221.244 137.823 220.918 137.254C220.6 136.675 220.442 136.012 220.442 135.266C220.442 134.519 220.6 133.861 220.918 133.292C221.244 132.722 221.692 132.279 222.262 131.962C222.831 131.644 223.475 131.486 224.194 131.486C224.726 131.486 225.216 131.588 225.664 131.794C226.112 131.99 226.485 132.284 226.784 132.676V128.588H228.128ZM224.306 137.884C224.772 137.884 225.197 137.776 225.58 137.562C225.962 137.338 226.261 137.03 226.476 136.638C226.69 136.236 226.798 135.779 226.798 135.266C226.798 134.752 226.69 134.3 226.476 133.908C226.261 133.506 225.962 133.198 225.58 132.984C225.197 132.769 224.772 132.662 224.306 132.662C223.83 132.662 223.4 132.769 223.018 132.984C222.644 133.198 222.346 133.506 222.122 133.908C221.907 134.3 221.8 134.752 221.8 135.266C221.8 135.779 221.907 136.236 222.122 136.638C222.346 137.03 222.644 137.338 223.018 137.562C223.4 137.776 223.83 137.884 224.306 137.884ZM234.016 137.884C234.903 137.884 235.617 137.585 236.158 136.988L236.886 137.856C236.56 138.248 236.144 138.546 235.64 138.752C235.146 138.957 234.59 139.06 233.974 139.06C233.19 139.06 232.495 138.901 231.888 138.584C231.282 138.257 230.81 137.804 230.474 137.226C230.148 136.647 229.984 135.994 229.984 135.266C229.984 134.547 230.143 133.898 230.46 133.32C230.787 132.741 231.23 132.293 231.79 131.976C232.36 131.649 232.999 131.486 233.708 131.486C234.38 131.486 234.992 131.64 235.542 131.948C236.093 132.246 236.532 132.671 236.858 133.222C237.185 133.772 237.353 134.407 237.362 135.126L231.468 136.274C231.655 136.787 231.968 137.184 232.406 137.464C232.854 137.744 233.391 137.884 234.016 137.884ZM233.708 132.62C233.242 132.62 232.822 132.727 232.448 132.942C232.084 133.156 231.8 133.46 231.594 133.852C231.389 134.234 231.286 134.682 231.286 135.196V135.336L236.032 134.44C235.911 133.898 235.64 133.46 235.22 133.124C234.8 132.788 234.296 132.62 233.708 132.62ZM246.243 128.588V138.976H244.955V137.8C244.656 138.21 244.278 138.523 243.821 138.738C243.363 138.952 242.859 139.06 242.309 139.06C241.59 139.06 240.946 138.901 240.377 138.584C239.807 138.266 239.359 137.823 239.033 137.254C238.715 136.675 238.557 136.012 238.557 135.266C238.557 134.519 238.715 133.861 239.033 133.292C239.359 132.722 239.807 132.279 240.377 131.962C240.946 131.644 241.59 131.486 242.309 131.486C242.841 131.486 243.331 131.588 243.779 131.794C244.227 131.99 244.6 132.284 244.899 132.676V128.588H246.243ZM242.421 137.884C242.887 137.884 243.312 137.776 243.695 137.562C244.077 137.338 244.376 137.03 244.591 136.638C244.805 136.236 244.913 135.779 244.913 135.266C244.913 134.752 244.805 134.3 244.591 133.908C244.376 133.506 244.077 133.198 243.695 132.984C243.312 132.769 242.887 132.662 242.421 132.662C241.945 132.662 241.515 132.769 241.133 132.984C240.759 133.198 240.461 133.506 240.237 133.908C240.022 134.3 239.915 134.752 239.915 135.266C239.915 135.779 240.022 136.236 240.237 136.638C240.461 137.03 240.759 137.338 241.133 137.562C241.515 137.776 241.945 137.884 242.421 137.884ZM249.122 137.142C249.383 137.142 249.598 137.235 249.766 137.422C249.943 137.599 250.032 137.823 250.032 138.094C250.032 138.234 250.013 138.369 249.976 138.5C249.948 138.63 249.887 138.831 249.794 139.102L249.136 141.048H248.254L248.772 138.962C248.594 138.896 248.45 138.789 248.338 138.64C248.235 138.481 248.184 138.299 248.184 138.094C248.184 137.814 248.272 137.585 248.45 137.408C248.627 137.23 248.851 137.142 249.122 137.142ZM262.633 131.556V137.968C262.633 139.265 262.33 140.222 261.723 140.838C261.117 141.463 260.207 141.776 258.993 141.776C258.331 141.776 257.696 141.678 257.089 141.482C256.492 141.295 256.002 141.024 255.619 140.67L256.277 139.634C256.604 139.932 256.996 140.166 257.453 140.334C257.92 140.502 258.41 140.586 258.923 140.586C259.735 140.586 260.333 140.38 260.715 139.97C261.098 139.568 261.289 138.948 261.289 138.108V137.562C261.019 137.916 260.669 138.192 260.239 138.388C259.81 138.574 259.343 138.668 258.839 138.668C257.85 138.668 257.071 138.397 256.501 137.856C255.932 137.314 255.647 136.512 255.647 135.448V131.556H256.991V135.294C256.991 136.003 257.164 136.544 257.509 136.918C257.855 137.282 258.349 137.464 258.993 137.464C259.703 137.464 260.263 137.249 260.673 136.82C261.084 136.39 261.289 135.784 261.289 135V131.556H262.633ZM268.37 139.06C267.633 139.06 266.97 138.896 266.382 138.57C265.794 138.243 265.332 137.795 264.996 137.226C264.669 136.647 264.506 135.994 264.506 135.266C264.506 134.538 264.669 133.889 264.996 133.32C265.332 132.741 265.794 132.293 266.382 131.976C266.97 131.649 267.633 131.486 268.37 131.486C269.107 131.486 269.765 131.649 270.344 131.976C270.932 132.293 271.389 132.741 271.716 133.32C272.052 133.889 272.22 134.538 272.22 135.266C272.22 135.994 272.052 136.647 271.716 137.226C271.389 137.795 270.932 138.243 270.344 138.57C269.765 138.896 269.107 139.06 268.37 139.06ZM268.37 137.884C268.846 137.884 269.271 137.776 269.644 137.562C270.027 137.338 270.325 137.03 270.54 136.638C270.755 136.236 270.862 135.779 270.862 135.266C270.862 134.752 270.755 134.3 270.54 133.908C270.325 133.506 270.027 133.198 269.644 132.984C269.271 132.769 268.846 132.662 268.37 132.662C267.894 132.662 267.465 132.769 267.082 132.984C266.709 133.198 266.41 133.506 266.186 133.908C265.971 134.3 265.864 134.752 265.864 135.266C265.864 135.779 265.971 136.236 266.186 136.638C266.41 137.03 266.709 137.338 267.082 137.562C267.465 137.776 267.894 137.884 268.37 137.884ZM280.995 131.556V138.976H279.721V137.856C279.45 138.238 279.091 138.537 278.643 138.752C278.204 138.957 277.723 139.06 277.201 139.06C276.211 139.06 275.432 138.789 274.863 138.248C274.293 137.697 274.009 136.89 274.009 135.826V131.556H275.353V135.672C275.353 136.39 275.525 136.936 275.871 137.31C276.216 137.674 276.711 137.856 277.355 137.856C278.064 137.856 278.624 137.641 279.035 137.212C279.445 136.782 279.651 136.176 279.651 135.392V131.556H280.995ZM283.889 128.504C284.151 128.504 284.365 128.597 284.533 128.784C284.711 128.961 284.799 129.185 284.799 129.456C284.799 129.596 284.785 129.736 284.757 129.876C284.729 130.006 284.669 130.198 284.575 130.45L283.903 132.41H283.021L283.539 130.324C283.362 130.258 283.217 130.151 283.105 130.002C283.003 129.843 282.951 129.661 282.951 129.456C282.951 129.176 283.04 128.947 283.217 128.77C283.395 128.592 283.619 128.504 283.889 128.504ZM288.013 132.802C288.247 132.372 288.592 132.046 289.049 131.822C289.507 131.598 290.062 131.486 290.715 131.486V132.788C290.641 132.778 290.538 132.774 290.407 132.774C289.679 132.774 289.105 132.993 288.685 133.432C288.275 133.861 288.069 134.477 288.069 135.28V138.976H286.725V131.556H288.013V132.802ZM295.649 137.884C296.536 137.884 297.25 137.585 297.791 136.988L298.519 137.856C298.193 138.248 297.777 138.546 297.273 138.752C296.779 138.957 296.223 139.06 295.607 139.06C294.823 139.06 294.128 138.901 293.521 138.584C292.915 138.257 292.443 137.804 292.107 137.226C291.781 136.647 291.617 135.994 291.617 135.266C291.617 134.547 291.776 133.898 292.093 133.32C292.42 132.741 292.863 132.293 293.423 131.976C293.993 131.649 294.632 131.486 295.341 131.486C296.013 131.486 296.625 131.64 297.175 131.948C297.726 132.246 298.165 132.671 298.491 133.222C298.818 133.772 298.986 134.407 298.995 135.126L293.101 136.274C293.288 136.787 293.601 137.184 294.039 137.464C294.487 137.744 295.024 137.884 295.649 137.884ZM295.341 132.62C294.875 132.62 294.455 132.727 294.081 132.942C293.717 133.156 293.433 133.46 293.227 133.852C293.022 134.234 292.919 134.682 292.919 135.196V135.336L297.665 134.44C297.544 133.898 297.273 133.46 296.853 133.124C296.433 132.788 295.929 132.62 295.341 132.62ZM42.562 149.802C42.7953 149.372 43.1407 149.046 43.598 148.822C44.0553 148.598 44.6107 148.486 45.264 148.486V149.788C45.1893 149.778 45.0867 149.774 44.956 149.774C44.228 149.774 43.654 149.993 43.234 150.432C42.8233 150.861 42.618 151.477 42.618 152.28V155.976H41.274V148.556H42.562V149.802ZM50.1981 154.884C51.0848 154.884 51.7988 154.585 52.3401 153.988L53.0681 154.856C52.7415 155.248 52.3261 155.546 51.8221 155.752C51.3275 155.957 50.7721 156.06 50.1561 156.06C49.3721 156.06 48.6768 155.901 48.0701 155.584C47.4635 155.257 46.9921 154.804 46.6561 154.226C46.3295 153.647 46.1661 152.994 46.1661 152.266C46.1661 151.547 46.3248 150.898 46.6421 150.32C46.9688 149.741 47.4121 149.293 47.9721 148.976C48.5415 148.649 49.1808 148.486 49.8901 148.486C50.5621 148.486 51.1735 148.64 51.7241 148.948C52.2748 149.246 52.7135 149.671 53.0401 150.222C53.3668 150.772 53.5348 151.407 53.5441 152.126L47.6501 153.274C47.8368 153.787 48.1495 154.184 48.5881 154.464C49.0361 154.744 49.5728 154.884 50.1981 154.884ZM49.8901 149.62C49.4235 149.62 49.0035 149.727 48.6301 149.942C48.2661 150.156 47.9815 150.46 47.7761 150.852C47.5708 151.234 47.4681 151.682 47.4681 152.196V152.336L52.2141 151.44C52.0928 150.898 51.8221 150.46 51.4021 150.124C50.9821 149.788 50.4781 149.62 49.8901 149.62ZM62.4244 148.556V155.976H61.1364V154.8C60.8377 155.21 60.4597 155.523 60.0024 155.738C59.5451 155.952 59.0411 156.06 58.4904 156.06C57.7717 156.06 57.1277 155.901 56.5584 155.584C55.9891 155.266 55.5411 154.823 55.2144 154.254C54.8971 153.675 54.7384 153.012 54.7384 152.266C54.7384 151.519 54.8971 150.861 55.2144 150.292C55.5411 149.722 55.9891 149.279 56.5584 148.962C57.1277 148.644 57.7717 148.486 58.4904 148.486C59.0224 148.486 59.5124 148.588 59.9604 148.794C60.4084 148.99 60.7817 149.284 61.0804 149.676V148.556H62.4244ZM58.6024 154.884C59.0691 154.884 59.4937 154.776 59.8764 154.562C60.2591 154.338 60.5577 154.03 60.7724 153.638C60.9871 153.236 61.0944 152.779 61.0944 152.266C61.0944 151.752 60.9871 151.3 60.7724 150.908C60.5577 150.506 60.2591 150.198 59.8764 149.984C59.4937 149.769 59.0691 149.662 58.6024 149.662C58.1264 149.662 57.6971 149.769 57.3144 149.984C56.9411 150.198 56.6424 150.506 56.4184 150.908C56.2037 151.3 56.0964 151.752 56.0964 152.266C56.0964 152.779 56.2037 153.236 56.4184 153.638C56.6424 154.03 56.9411 154.338 57.3144 154.562C57.6971 154.776 58.1264 154.884 58.6024 154.884ZM71.9674 145.588V155.976H70.6794V154.8C70.3807 155.21 70.0027 155.523 69.5454 155.738C69.088 155.952 68.584 156.06 68.0334 156.06C67.3147 156.06 66.6707 155.901 66.1014 155.584C65.532 155.266 65.084 154.823 64.7574 154.254C64.44 153.675 64.2814 153.012 64.2814 152.266C64.2814 151.519 64.44 150.861 64.7574 150.292C65.084 149.722 65.532 149.279 66.1014 148.962C66.6707 148.644 67.3147 148.486 68.0334 148.486C68.5654 148.486 69.0554 148.588 69.5034 148.794C69.9514 148.99 70.3247 149.284 70.6234 149.676V145.588H71.9674ZM68.1454 154.884C68.612 154.884 69.0367 154.776 69.4194 154.562C69.802 154.338 70.1007 154.03 70.3154 153.638C70.53 153.236 70.6374 152.779 70.6374 152.266C70.6374 151.752 70.53 151.3 70.3154 150.908C70.1007 150.506 69.802 150.198 69.4194 149.984C69.0367 149.769 68.612 149.662 68.1454 149.662C67.6694 149.662 67.24 149.769 66.8574 149.984C66.484 150.198 66.1854 150.506 65.9614 150.908C65.7467 151.3 65.6394 151.752 65.6394 152.266C65.6394 152.779 65.7467 153.236 65.9614 153.638C66.1854 154.03 66.484 154.338 66.8574 154.562C67.24 154.776 67.6694 154.884 68.1454 154.884ZM81.4263 148.556V154.968C81.4263 156.265 81.123 157.222 80.5163 157.838C79.9097 158.463 78.9997 158.776 77.7863 158.776C77.1237 158.776 76.489 158.678 75.8823 158.482C75.285 158.295 74.795 158.024 74.4123 157.67L75.0703 156.634C75.397 156.932 75.789 157.166 76.2463 157.334C76.713 157.502 77.203 157.586 77.7163 157.586C78.5283 157.586 79.1257 157.38 79.5083 156.97C79.891 156.568 80.0823 155.948 80.0823 155.108V154.562C79.8117 154.916 79.4617 155.192 79.0323 155.388C78.603 155.574 78.1363 155.668 77.6323 155.668C76.643 155.668 75.8637 155.397 75.2943 154.856C74.725 154.314 74.4403 153.512 74.4403 152.448V148.556H75.7843V152.294C75.7843 153.003 75.957 153.544 76.3023 153.918C76.6477 154.282 77.1423 154.464 77.7863 154.464C78.4957 154.464 79.0557 154.249 79.4663 153.82C79.877 153.39 80.0823 152.784 80.0823 152V148.556H81.4263ZM91.6507 155.542C91.4547 155.71 91.212 155.84 90.9227 155.934C90.6334 156.018 90.3347 156.06 90.0267 156.06C89.28 156.06 88.7014 155.859 88.2907 155.458C87.88 155.056 87.6747 154.482 87.6747 153.736V146.932H89.0187V148.556H91.1467V149.662H89.0187V153.68C89.0187 154.081 89.1167 154.389 89.3127 154.604C89.518 154.818 89.8074 154.926 90.1807 154.926C90.5914 154.926 90.9414 154.809 91.2307 154.576L91.6507 155.542ZM96.2 156.06C95.4627 156.06 94.8 155.896 94.212 155.57C93.624 155.243 93.162 154.795 92.826 154.226C92.4994 153.647 92.336 152.994 92.336 152.266C92.336 151.538 92.4994 150.889 92.826 150.32C93.162 149.741 93.624 149.293 94.212 148.976C94.8 148.649 95.4627 148.486 96.2 148.486C96.9374 148.486 97.5954 148.649 98.174 148.976C98.762 149.293 99.2194 149.741 99.546 150.32C99.882 150.889 100.05 151.538 100.05 152.266C100.05 152.994 99.882 153.647 99.546 154.226C99.2194 154.795 98.762 155.243 98.174 155.57C97.5954 155.896 96.9374 156.06 96.2 156.06ZM96.2 154.884C96.676 154.884 97.1007 154.776 97.474 154.562C97.8567 154.338 98.1554 154.03 98.37 153.638C98.5847 153.236 98.692 152.779 98.692 152.266C98.692 151.752 98.5847 151.3 98.37 150.908C98.1554 150.506 97.8567 150.198 97.474 149.984C97.1007 149.769 96.676 149.662 96.2 149.662C95.724 149.662 95.2947 149.769 94.912 149.984C94.5387 150.198 94.24 150.506 94.016 150.908C93.8014 151.3 93.694 151.752 93.694 152.266C93.694 152.779 93.8014 153.236 94.016 153.638C94.24 154.03 94.5387 154.338 94.912 154.562C95.2947 154.776 95.724 154.884 96.2 154.884ZM112.669 145.588V155.976H111.381V154.8C111.082 155.21 110.704 155.523 110.247 155.738C109.789 155.952 109.285 156.06 108.735 156.06C108.016 156.06 107.372 155.901 106.803 155.584C106.233 155.266 105.785 154.823 105.459 154.254C105.141 153.675 104.983 153.012 104.983 152.266C104.983 151.519 105.141 150.861 105.459 150.292C105.785 149.722 106.233 149.279 106.803 148.962C107.372 148.644 108.016 148.486 108.735 148.486C109.267 148.486 109.757 148.588 110.205 148.794C110.653 148.99 111.026 149.284 111.325 149.676V145.588H112.669ZM108.847 154.884C109.313 154.884 109.738 154.776 110.121 154.562C110.503 154.338 110.802 154.03 111.017 153.638C111.231 153.236 111.339 152.779 111.339 152.266C111.339 151.752 111.231 151.3 111.017 150.908C110.802 150.506 110.503 150.198 110.121 149.984C109.738 149.769 109.313 149.662 108.847 149.662C108.371 149.662 107.941 149.769 107.559 149.984C107.185 150.198 106.887 150.506 106.663 150.908C106.448 151.3 106.341 151.752 106.341 152.266C106.341 152.779 106.448 153.236 106.663 153.638C106.887 154.03 107.185 154.338 107.559 154.562C107.941 154.776 108.371 154.884 108.847 154.884ZM115.212 148.556H116.556V155.976H115.212V148.556ZM115.884 147.128C115.622 147.128 115.403 147.044 115.226 146.876C115.058 146.708 114.974 146.502 114.974 146.26C114.974 146.017 115.058 145.812 115.226 145.644C115.403 145.466 115.622 145.378 115.884 145.378C116.145 145.378 116.36 145.462 116.528 145.63C116.705 145.788 116.794 145.989 116.794 146.232C116.794 146.484 116.705 146.698 116.528 146.876C116.36 147.044 116.145 147.128 115.884 147.128ZM125.688 148.556L122.44 155.976H121.068L117.82 148.556H119.22L121.768 154.506L124.372 148.556H125.688ZM130.083 154.884C130.97 154.884 131.684 154.585 132.225 153.988L132.953 154.856C132.626 155.248 132.211 155.546 131.707 155.752C131.212 155.957 130.657 156.06 130.041 156.06C129.257 156.06 128.562 155.901 127.955 155.584C127.348 155.257 126.877 154.804 126.541 154.226C126.214 153.647 126.051 152.994 126.051 152.266C126.051 151.547 126.21 150.898 126.527 150.32C126.854 149.741 127.297 149.293 127.857 148.976C128.426 148.649 129.066 148.486 129.775 148.486C130.447 148.486 131.058 148.64 131.609 148.948C132.16 149.246 132.598 149.671 132.925 150.222C133.252 150.772 133.42 151.407 133.429 152.126L127.535 153.274C127.722 153.787 128.034 154.184 128.473 154.464C128.921 154.744 129.458 154.884 130.083 154.884ZM129.775 149.62C129.308 149.62 128.888 149.727 128.515 149.942C128.151 150.156 127.866 150.46 127.661 150.852C127.456 151.234 127.353 151.682 127.353 152.196V152.336L132.099 151.44C131.978 150.898 131.707 150.46 131.287 150.124C130.867 149.788 130.363 149.62 129.775 149.62ZM139.069 148.556H140.413V155.976H139.069V148.556ZM139.741 147.128C139.48 147.128 139.26 147.044 139.083 146.876C138.915 146.708 138.831 146.502 138.831 146.26C138.831 146.017 138.915 145.812 139.083 145.644C139.26 145.466 139.48 145.378 139.741 145.378C140.002 145.378 140.217 145.462 140.385 145.63C140.562 145.788 140.651 145.989 140.651 146.232C140.651 146.484 140.562 146.698 140.385 146.876C140.217 147.044 140.002 147.128 139.741 147.128ZM146.941 148.486C147.884 148.486 148.63 148.761 149.181 149.312C149.741 149.853 150.021 150.651 150.021 151.706V155.976H148.677V151.86C148.677 151.141 148.504 150.6 148.159 150.236C147.814 149.872 147.319 149.69 146.675 149.69C145.947 149.69 145.373 149.904 144.953 150.334C144.533 150.754 144.323 151.36 144.323 152.154V155.976H142.979V148.556H144.267V149.676C144.538 149.293 144.902 148.999 145.359 148.794C145.826 148.588 146.353 148.486 146.941 148.486ZM156.414 155.542C156.218 155.71 155.976 155.84 155.686 155.934C155.397 156.018 155.098 156.06 154.79 156.06C154.044 156.06 153.465 155.859 153.054 155.458C152.644 155.056 152.438 154.482 152.438 153.736V146.932H153.782V148.556H155.91V149.662H153.782V153.68C153.782 154.081 153.88 154.389 154.076 154.604C154.282 154.818 154.571 154.926 154.944 154.926C155.355 154.926 155.705 154.809 155.994 154.576L156.414 155.542ZM160.964 156.06C160.226 156.06 159.564 155.896 158.976 155.57C158.388 155.243 157.926 154.795 157.59 154.226C157.263 153.647 157.1 152.994 157.1 152.266C157.1 151.538 157.263 150.889 157.59 150.32C157.926 149.741 158.388 149.293 158.976 148.976C159.564 148.649 160.226 148.486 160.964 148.486C161.701 148.486 162.359 148.649 162.938 148.976C163.526 149.293 163.983 149.741 164.31 150.32C164.646 150.889 164.814 151.538 164.814 152.266C164.814 152.994 164.646 153.647 164.31 154.226C163.983 154.795 163.526 155.243 162.938 155.57C162.359 155.896 161.701 156.06 160.964 156.06ZM160.964 154.884C161.44 154.884 161.864 154.776 162.238 154.562C162.62 154.338 162.919 154.03 163.134 153.638C163.348 153.236 163.456 152.779 163.456 152.266C163.456 151.752 163.348 151.3 163.134 150.908C162.919 150.506 162.62 150.198 162.238 149.984C161.864 149.769 161.44 149.662 160.964 149.662C160.488 149.662 160.058 149.769 159.676 149.984C159.302 150.198 159.004 150.506 158.78 150.908C158.565 151.3 158.458 151.752 158.458 152.266C158.458 152.779 158.565 153.236 158.78 153.638C159.004 154.03 159.302 154.338 159.676 154.562C160.058 154.776 160.488 154.884 160.964 154.884ZM174.338 155.542C174.142 155.71 173.9 155.84 173.61 155.934C173.321 156.018 173.022 156.06 172.714 156.06C171.968 156.06 171.389 155.859 170.978 155.458C170.568 155.056 170.362 154.482 170.362 153.736V146.932H171.706V148.556H173.834V149.662H171.706V153.68C171.706 154.081 171.804 154.389 172 154.604C172.206 154.818 172.495 154.926 172.868 154.926C173.279 154.926 173.629 154.809 173.918 154.576L174.338 155.542ZM179.918 148.486C180.86 148.486 181.607 148.761 182.158 149.312C182.718 149.853 182.998 150.651 182.998 151.706V155.976H181.654V151.86C181.654 151.141 181.481 150.6 181.136 150.236C180.79 149.872 180.296 149.69 179.652 149.69C178.924 149.69 178.35 149.904 177.93 150.334C177.51 150.754 177.3 151.36 177.3 152.154V155.976H175.956V145.588H177.3V149.606C177.58 149.251 177.944 148.976 178.392 148.78C178.849 148.584 179.358 148.486 179.918 148.486ZM188.872 154.884C189.759 154.884 190.473 154.585 191.014 153.988L191.742 154.856C191.415 155.248 191 155.546 190.496 155.752C190.001 155.957 189.446 156.06 188.83 156.06C188.046 156.06 187.351 155.901 186.744 155.584C186.137 155.257 185.666 154.804 185.33 154.226C185.003 153.647 184.84 152.994 184.84 152.266C184.84 151.547 184.999 150.898 185.316 150.32C185.643 149.741 186.086 149.293 186.646 148.976C187.215 148.649 187.855 148.486 188.564 148.486C189.236 148.486 189.847 148.64 190.398 148.948C190.949 149.246 191.387 149.671 191.714 150.222C192.041 150.772 192.209 151.407 192.218 152.126L186.324 153.274C186.511 153.787 186.823 154.184 187.262 154.464C187.71 154.744 188.247 154.884 188.872 154.884ZM188.564 149.62C188.097 149.62 187.677 149.727 187.304 149.942C186.94 150.156 186.655 150.46 186.45 150.852C186.245 151.234 186.142 151.682 186.142 152.196V152.336L190.888 151.44C190.767 150.898 190.496 150.46 190.076 150.124C189.656 149.788 189.152 149.62 188.564 149.62ZM209.17 148.556V152.658C209.17 153.75 208.899 154.59 208.358 155.178C207.817 155.766 207.033 156.06 206.006 156.06C204.793 156.06 203.953 155.616 203.486 154.73C203.243 155.178 202.912 155.514 202.492 155.738C202.081 155.952 201.568 156.06 200.952 156.06C199.916 156.06 199.127 155.766 198.586 155.178C198.054 154.59 197.788 153.75 197.788 152.658V148.556H199.132V152.532C199.132 153.325 199.277 153.913 199.566 154.296C199.855 154.669 200.317 154.856 200.952 154.856C201.587 154.856 202.053 154.664 202.352 154.282C202.66 153.899 202.814 153.316 202.814 152.532V148.556H204.158V152.532C204.158 153.316 204.307 153.899 204.606 154.282C204.914 154.664 205.385 154.856 206.02 154.856C206.645 154.856 207.103 154.669 207.392 154.296C207.681 153.913 207.826 153.325 207.826 152.532V148.556H209.17ZM214.831 156.06C214.094 156.06 213.431 155.896 212.843 155.57C212.255 155.243 211.793 154.795 211.457 154.226C211.13 153.647 210.967 152.994 210.967 152.266C210.967 151.538 211.13 150.889 211.457 150.32C211.793 149.741 212.255 149.293 212.843 148.976C213.431 148.649 214.094 148.486 214.831 148.486C215.568 148.486 216.226 148.649 216.805 148.976C217.393 149.293 217.85 149.741 218.177 150.32C218.513 150.889 218.681 151.538 218.681 152.266C218.681 152.994 218.513 153.647 218.177 154.226C217.85 154.795 217.393 155.243 216.805 155.57C216.226 155.896 215.568 156.06 214.831 156.06ZM214.831 154.884C215.307 154.884 215.732 154.776 216.105 154.562C216.488 154.338 216.786 154.03 217.001 153.638C217.216 153.236 217.323 152.779 217.323 152.266C217.323 151.752 217.216 151.3 217.001 150.908C216.786 150.506 216.488 150.198 216.105 149.984C215.732 149.769 215.307 149.662 214.831 149.662C214.355 149.662 213.926 149.769 213.543 149.984C213.17 150.198 212.871 150.506 212.647 150.908C212.432 151.3 212.325 151.752 212.325 152.266C212.325 152.779 212.432 153.236 212.647 153.638C212.871 154.03 213.17 154.338 213.543 154.562C213.926 154.776 214.355 154.884 214.831 154.884ZM221.828 149.802C222.061 149.372 222.406 149.046 222.864 148.822C223.321 148.598 223.876 148.486 224.53 148.486V149.788C224.455 149.778 224.352 149.774 224.222 149.774C223.494 149.774 222.92 149.993 222.5 150.432C222.089 150.861 221.884 151.477 221.884 152.28V155.976H220.54V148.556H221.828V149.802ZM228.44 156.06C227.721 156.06 227.166 155.864 226.774 155.472C226.382 155.07 226.186 154.51 226.186 153.792V145.588H227.53V153.68C227.53 154.081 227.623 154.389 227.81 154.604C228.006 154.818 228.295 154.926 228.678 154.926C228.911 154.926 229.131 154.879 229.336 154.786L229.406 155.892C229.098 156.004 228.776 156.06 228.44 156.06ZM237.547 145.588V155.976H236.259V154.8C235.961 155.21 235.583 155.523 235.125 155.738C234.668 155.952 234.164 156.06 233.613 156.06C232.895 156.06 232.251 155.901 231.681 155.584C231.112 155.266 230.664 154.823 230.337 154.254C230.02 153.675 229.861 153.012 229.861 152.266C229.861 151.519 230.02 150.861 230.337 150.292C230.664 149.722 231.112 149.279 231.681 148.962C232.251 148.644 232.895 148.486 233.613 148.486C234.145 148.486 234.635 148.588 235.083 148.794C235.531 148.99 235.905 149.284 236.203 149.676V145.588H237.547ZM233.725 154.884C234.192 154.884 234.617 154.776 234.999 154.562C235.382 154.338 235.681 154.03 235.895 153.638C236.11 153.236 236.217 152.779 236.217 152.266C236.217 151.752 236.11 151.3 235.895 150.908C235.681 150.506 235.382 150.198 234.999 149.984C234.617 149.769 234.192 149.662 233.725 149.662C233.249 149.662 232.82 149.769 232.437 149.984C232.064 150.198 231.765 150.506 231.541 150.908C231.327 151.3 231.219 151.752 231.219 152.266C231.219 152.779 231.327 153.236 231.541 153.638C231.765 154.03 232.064 154.338 232.437 154.562C232.82 154.776 233.249 154.884 233.725 154.884ZM247.028 156.06C246.291 156.06 245.628 155.896 245.04 155.57C244.452 155.243 243.99 154.795 243.654 154.226C243.328 153.647 243.164 152.994 243.164 152.266C243.164 151.538 243.328 150.889 243.654 150.32C243.99 149.741 244.452 149.293 245.04 148.976C245.628 148.649 246.291 148.486 247.028 148.486C247.766 148.486 248.424 148.649 249.002 148.976C249.59 149.293 250.048 149.741 250.374 150.32C250.71 150.889 250.878 151.538 250.878 152.266C250.878 152.994 250.71 153.647 250.374 154.226C250.048 154.795 249.59 155.243 249.002 155.57C248.424 155.896 247.766 156.06 247.028 156.06ZM247.028 154.884C247.504 154.884 247.929 154.776 248.302 154.562C248.685 154.338 248.984 154.03 249.198 153.638C249.413 153.236 249.52 152.779 249.52 152.266C249.52 151.752 249.413 151.3 249.198 150.908C248.984 150.506 248.685 150.198 248.302 149.984C247.929 149.769 247.504 149.662 247.028 149.662C246.552 149.662 246.123 149.769 245.74 149.984C245.367 150.198 245.068 150.506 244.844 150.908C244.63 151.3 244.522 151.752 244.522 152.266C244.522 152.779 244.63 153.236 244.844 153.638C245.068 154.03 245.367 154.338 245.74 154.562C246.123 154.776 246.552 154.884 247.028 154.884ZM255.257 146.61C254.454 146.61 254.053 147.044 254.053 147.912V148.556H256.223V149.662H254.081V155.976H252.737V147.898C252.737 147.16 252.952 146.577 253.381 146.148C253.81 145.718 254.412 145.504 255.187 145.504C255.486 145.504 255.766 145.541 256.027 145.616C256.288 145.69 256.512 145.798 256.699 145.938L256.293 146.96C255.985 146.726 255.64 146.61 255.257 146.61ZM44.508 173.06C43.752 173.06 43.0753 172.896 42.478 172.57C41.89 172.243 41.428 171.795 41.092 171.226C40.756 170.647 40.588 169.994 40.588 169.266C40.588 168.538 40.756 167.889 41.092 167.32C41.428 166.741 41.89 166.293 42.478 165.976C43.0753 165.649 43.752 165.486 44.508 165.486C45.18 165.486 45.7773 165.621 46.3 165.892C46.832 166.162 47.2427 166.554 47.532 167.068L46.51 167.726C46.2767 167.371 45.9873 167.105 45.642 166.928C45.2967 166.75 44.914 166.662 44.494 166.662C44.0087 166.662 43.57 166.769 43.178 166.984C42.7953 167.198 42.492 167.506 42.268 167.908C42.0533 168.3 41.946 168.752 41.946 169.266C41.946 169.788 42.0533 170.25 42.268 170.652C42.492 171.044 42.7953 171.347 43.178 171.562C43.57 171.776 44.0087 171.884 44.494 171.884C44.914 171.884 45.2967 171.795 45.642 171.618C45.9873 171.44 46.2767 171.174 46.51 170.82L47.532 171.464C47.2427 171.977 46.832 172.374 46.3 172.654C45.7773 172.924 45.18 173.06 44.508 173.06ZM50.56 166.802C50.7934 166.372 51.1387 166.046 51.596 165.822C52.0534 165.598 52.6087 165.486 53.262 165.486V166.788C53.1874 166.778 53.0847 166.774 52.954 166.774C52.226 166.774 51.652 166.993 51.232 167.432C50.8214 167.861 50.616 168.477 50.616 169.28V172.976H49.272V165.556H50.56V166.802ZM61.9302 165.556V171.968C61.9302 173.265 61.6269 174.222 61.0202 174.838C60.4136 175.463 59.5036 175.776 58.2902 175.776C57.6276 175.776 56.9929 175.678 56.3862 175.482C55.7889 175.295 55.2989 175.024 54.9162 174.67L55.5742 173.634C55.9009 173.932 56.2929 174.166 56.7502 174.334C57.2169 174.502 57.7069 174.586 58.2202 174.586C59.0322 174.586 59.6296 174.38 60.0122 173.97C60.3949 173.568 60.5862 172.948 60.5862 172.108V171.562C60.3156 171.916 59.9656 172.192 59.5362 172.388C59.1069 172.574 58.6402 172.668 58.1362 172.668C57.1469 172.668 56.3676 172.397 55.7982 171.856C55.2289 171.314 54.9442 170.512 54.9442 169.448V165.556H56.2882V169.294C56.2882 170.003 56.4609 170.544 56.8062 170.918C57.1516 171.282 57.6462 171.464 58.2902 171.464C58.9996 171.464 59.5596 171.249 59.9702 170.82C60.3809 170.39 60.5862 169.784 60.5862 169V165.556H61.9302ZM68.4228 165.486C69.1415 165.486 69.7855 165.644 70.3548 165.962C70.9242 166.279 71.3675 166.722 71.6848 167.292C72.0115 167.861 72.1748 168.519 72.1748 169.266C72.1748 170.012 72.0115 170.675 71.6848 171.254C71.3675 171.823 70.9242 172.266 70.3548 172.584C69.7855 172.901 69.1415 173.06 68.4228 173.06C67.8908 173.06 67.4008 172.957 66.9528 172.752C66.5142 172.546 66.1408 172.248 65.8328 171.856V175.692H64.4888V165.556H65.7768V166.732C66.0755 166.321 66.4535 166.013 66.9108 165.808C67.3682 165.593 67.8722 165.486 68.4228 165.486ZM68.3108 171.884C68.7868 171.884 69.2115 171.776 69.5848 171.562C69.9675 171.338 70.2662 171.03 70.4808 170.638C70.7048 170.236 70.8168 169.779 70.8168 169.266C70.8168 168.752 70.7048 168.3 70.4808 167.908C70.2662 167.506 69.9675 167.198 69.5848 166.984C69.2115 166.769 68.7868 166.662 68.3108 166.662C67.8442 166.662 67.4195 166.774 67.0368 166.998C66.6635 167.212 66.3648 167.516 66.1408 167.908C65.9262 168.3 65.8188 168.752 65.8188 169.266C65.8188 169.779 65.9262 170.236 66.1408 170.638C66.3555 171.03 66.6542 171.338 67.0368 171.562C67.4195 171.776 67.8442 171.884 68.3108 171.884ZM77.9378 172.542C77.7418 172.71 77.4991 172.84 77.2098 172.934C76.9205 173.018 76.6218 173.06 76.3138 173.06C75.5671 173.06 74.9885 172.859 74.5778 172.458C74.1671 172.056 73.9618 171.482 73.9618 170.736V163.932H75.3058V165.556H77.4338V166.662H75.3058V170.68C75.3058 171.081 75.4038 171.389 75.5998 171.604C75.8051 171.818 76.0945 171.926 76.4678 171.926C76.8785 171.926 77.2285 171.809 77.5178 171.576L77.9378 172.542ZM82.4872 173.06C81.7498 173.06 81.0872 172.896 80.4992 172.57C79.9112 172.243 79.4492 171.795 79.1132 171.226C78.7865 170.647 78.6232 169.994 78.6232 169.266C78.6232 168.538 78.7865 167.889 79.1132 167.32C79.4492 166.741 79.9112 166.293 80.4992 165.976C81.0872 165.649 81.7498 165.486 82.4872 165.486C83.2245 165.486 83.8825 165.649 84.4612 165.976C85.0492 166.293 85.5065 166.741 85.8332 167.32C86.1692 167.889 86.3372 168.538 86.3372 169.266C86.3372 169.994 86.1692 170.647 85.8332 171.226C85.5065 171.795 85.0492 172.243 84.4612 172.57C83.8825 172.896 83.2245 173.06 82.4872 173.06ZM82.4872 171.884C82.9632 171.884 83.3878 171.776 83.7612 171.562C84.1438 171.338 84.4425 171.03 84.6572 170.638C84.8718 170.236 84.9792 169.779 84.9792 169.266C84.9792 168.752 84.8718 168.3 84.6572 167.908C84.4425 167.506 84.1438 167.198 83.7612 166.984C83.3878 166.769 82.9632 166.662 82.4872 166.662C82.0112 166.662 81.5818 166.769 81.1992 166.984C80.8258 167.198 80.5272 167.506 80.3032 167.908C80.0885 168.3 79.9812 168.752 79.9812 169.266C79.9812 169.779 80.0885 170.236 80.3032 170.638C80.5272 171.03 80.8258 171.338 81.1992 171.562C81.5818 171.776 82.0112 171.884 82.4872 171.884ZM91.4299 173.06C90.6739 173.06 89.9972 172.896 89.3999 172.57C88.8119 172.243 88.3499 171.795 88.0139 171.226C87.6779 170.647 87.5099 169.994 87.5099 169.266C87.5099 168.538 87.6779 167.889 88.0139 167.32C88.3499 166.741 88.8119 166.293 89.3999 165.976C89.9972 165.649 90.6739 165.486 91.4299 165.486C92.1019 165.486 92.6992 165.621 93.2219 165.892C93.7539 166.162 94.1645 166.554 94.4539 167.068L93.4319 167.726C93.1985 167.371 92.9092 167.105 92.5639 166.928C92.2185 166.75 91.8359 166.662 91.4159 166.662C90.9305 166.662 90.4919 166.769 90.0999 166.984C89.7172 167.198 89.4139 167.506 89.1899 167.908C88.9752 168.3 88.8679 168.752 88.8679 169.266C88.8679 169.788 88.9752 170.25 89.1899 170.652C89.4139 171.044 89.7172 171.347 90.0999 171.562C90.4919 171.776 90.9305 171.884 91.4159 171.884C91.8359 171.884 92.2185 171.795 92.5639 171.618C92.9092 171.44 93.1985 171.174 93.4319 170.82L94.4539 171.464C94.1645 171.977 93.7539 172.374 93.2219 172.654C92.6992 172.924 92.1019 173.06 91.4299 173.06ZM103.11 165.556V172.976H101.836V171.856C101.565 172.238 101.206 172.537 100.758 172.752C100.319 172.957 99.8386 173.06 99.3159 173.06C98.3266 173.06 97.5473 172.789 96.9779 172.248C96.4086 171.697 96.1239 170.89 96.1239 169.826V165.556H97.4679V169.672C97.4679 170.39 97.6406 170.936 97.9859 171.31C98.3313 171.674 98.8259 171.856 99.4699 171.856C100.179 171.856 100.739 171.641 101.15 171.212C101.561 170.782 101.766 170.176 101.766 169.392V165.556H103.11ZM106.957 166.802C107.19 166.372 107.535 166.046 107.993 165.822C108.45 165.598 109.005 165.486 109.659 165.486V166.788C109.584 166.778 109.481 166.774 109.351 166.774C108.623 166.774 108.049 166.993 107.629 167.432C107.218 167.861 107.013 168.477 107.013 169.28V172.976H105.669V165.556H106.957V166.802ZM112.603 166.802C112.836 166.372 113.182 166.046 113.639 165.822C114.096 165.598 114.652 165.486 115.305 165.486V166.788C115.23 166.778 115.128 166.774 114.997 166.774C114.269 166.774 113.695 166.993 113.275 167.432C112.864 167.861 112.659 168.477 112.659 169.28V172.976H111.315V165.556H112.603V166.802ZM120.239 171.884C121.126 171.884 121.84 171.585 122.381 170.988L123.109 171.856C122.782 172.248 122.367 172.546 121.863 172.752C121.368 172.957 120.813 173.06 120.197 173.06C119.413 173.06 118.718 172.901 118.111 172.584C117.504 172.257 117.033 171.804 116.697 171.226C116.37 170.647 116.207 169.994 116.207 169.266C116.207 168.547 116.366 167.898 116.683 167.32C117.01 166.741 117.453 166.293 118.013 165.976C118.582 165.649 119.222 165.486 119.931 165.486C120.603 165.486 121.214 165.64 121.765 165.948C122.316 166.246 122.754 166.671 123.081 167.222C123.408 167.772 123.576 168.407 123.585 169.126L117.691 170.274C117.878 170.787 118.19 171.184 118.629 171.464C119.077 171.744 119.614 171.884 120.239 171.884ZM119.931 166.62C119.464 166.62 119.044 166.727 118.671 166.942C118.307 167.156 118.022 167.46 117.817 167.852C117.612 168.234 117.509 168.682 117.509 169.196V169.336L122.255 168.44C122.134 167.898 121.863 167.46 121.443 167.124C121.023 166.788 120.519 166.62 119.931 166.62ZM129.427 165.486C130.37 165.486 131.117 165.761 131.667 166.312C132.227 166.853 132.507 167.651 132.507 168.706V172.976H131.163V168.86C131.163 168.141 130.991 167.6 130.645 167.236C130.3 166.872 129.805 166.69 129.161 166.69C128.433 166.69 127.859 166.904 127.439 167.334C127.019 167.754 126.809 168.36 126.809 169.154V172.976H125.465V165.556H126.753V166.676C127.024 166.293 127.388 165.999 127.845 165.794C128.312 165.588 128.839 165.486 129.427 165.486ZM138.27 173.06C137.514 173.06 136.837 172.896 136.24 172.57C135.652 172.243 135.19 171.795 134.854 171.226C134.518 170.647 134.35 169.994 134.35 169.266C134.35 168.538 134.518 167.889 134.854 167.32C135.19 166.741 135.652 166.293 136.24 165.976C136.837 165.649 137.514 165.486 138.27 165.486C138.942 165.486 139.539 165.621 140.062 165.892C140.594 166.162 141.004 166.554 141.294 167.068L140.272 167.726C140.038 167.371 139.749 167.105 139.404 166.928C139.058 166.75 138.676 166.662 138.256 166.662C137.77 166.662 137.332 166.769 136.94 166.984C136.557 167.198 136.254 167.506 136.03 167.908C135.815 168.3 135.708 168.752 135.708 169.266C135.708 169.788 135.815 170.25 136.03 170.652C136.254 171.044 136.557 171.347 136.94 171.562C137.332 171.776 137.77 171.884 138.256 171.884C138.676 171.884 139.058 171.795 139.404 171.618C139.749 171.44 140.038 171.174 140.272 170.82L141.294 171.464C141.004 171.977 140.594 172.374 140.062 172.654C139.539 172.924 138.942 173.06 138.27 173.06ZM149.95 165.556V171.968C149.95 173.265 149.646 174.222 149.04 174.838C148.433 175.463 147.523 175.776 146.31 175.776C145.647 175.776 145.012 175.678 144.406 175.482C143.808 175.295 143.318 175.024 142.936 174.67L143.594 173.634C143.92 173.932 144.312 174.166 144.77 174.334C145.236 174.502 145.726 174.586 146.24 174.586C147.052 174.586 147.649 174.38 148.032 173.97C148.414 173.568 148.606 172.948 148.606 172.108V171.562C148.335 171.916 147.985 172.192 147.556 172.388C147.126 172.574 146.66 172.668 146.156 172.668C145.166 172.668 144.387 172.397 143.818 171.856C143.248 171.314 142.964 170.512 142.964 169.448V165.556H144.308V169.294C144.308 170.003 144.48 170.544 144.826 170.918C145.171 171.282 145.666 171.464 146.31 171.464C147.019 171.464 147.579 171.249 147.99 170.82C148.4 170.39 148.606 169.784 148.606 169V165.556H149.95ZM156.268 165.556H157.612V172.976H156.268V165.556ZM156.94 164.128C156.679 164.128 156.459 164.044 156.282 163.876C156.114 163.708 156.03 163.502 156.03 163.26C156.03 163.017 156.114 162.812 156.282 162.644C156.459 162.466 156.679 162.378 156.94 162.378C157.201 162.378 157.416 162.462 157.584 162.63C157.761 162.788 157.85 162.989 157.85 163.232C157.85 163.484 157.761 163.698 157.584 163.876C157.416 164.044 157.201 164.128 156.94 164.128ZM164.14 165.486C165.083 165.486 165.83 165.761 166.38 166.312C166.94 166.853 167.22 167.651 167.22 168.706V172.976H165.876V168.86C165.876 168.141 165.704 167.6 165.358 167.236C165.013 166.872 164.518 166.69 163.874 166.69C163.146 166.69 162.572 166.904 162.152 167.334C161.732 167.754 161.522 168.36 161.522 169.154V172.976H160.178V165.556H161.466V166.676C161.737 166.293 162.101 165.999 162.558 165.794C163.025 165.588 163.552 165.486 164.14 165.486ZM176.137 165.556L172.889 172.976H171.517L168.269 165.556H169.669L172.217 171.506L174.821 165.556H176.137ZM180.532 171.884C181.419 171.884 182.133 171.585 182.674 170.988L183.402 171.856C183.075 172.248 182.66 172.546 182.156 172.752C181.661 172.957 181.106 173.06 180.49 173.06C179.706 173.06 179.011 172.901 178.404 172.584C177.797 172.257 177.326 171.804 176.99 171.226C176.663 170.647 176.5 169.994 176.5 169.266C176.5 168.547 176.659 167.898 176.976 167.32C177.303 166.741 177.746 166.293 178.306 165.976C178.875 165.649 179.515 165.486 180.224 165.486C180.896 165.486 181.507 165.64 182.058 165.948C182.609 166.246 183.047 166.671 183.374 167.222C183.701 167.772 183.869 168.407 183.878 169.126L177.984 170.274C178.171 170.787 178.483 171.184 178.922 171.464C179.37 171.744 179.907 171.884 180.532 171.884ZM180.224 166.62C179.757 166.62 179.337 166.727 178.964 166.942C178.6 167.156 178.315 167.46 178.11 167.852C177.905 168.234 177.802 168.682 177.802 169.196V169.336L182.548 168.44C182.427 167.898 182.156 167.46 181.736 167.124C181.316 166.788 180.812 166.62 180.224 166.62ZM187.886 173.06C187.28 173.06 186.696 172.98 186.136 172.822C185.576 172.654 185.138 172.444 184.82 172.192L185.38 171.128C185.707 171.361 186.104 171.548 186.57 171.688C187.037 171.828 187.508 171.898 187.984 171.898C189.16 171.898 189.748 171.562 189.748 170.89C189.748 170.666 189.669 170.488 189.51 170.358C189.352 170.227 189.151 170.134 188.908 170.078C188.675 170.012 188.339 169.942 187.9 169.868C187.303 169.774 186.813 169.667 186.43 169.546C186.057 169.424 185.735 169.219 185.464 168.93C185.194 168.64 185.058 168.234 185.058 167.712C185.058 167.04 185.338 166.503 185.898 166.102C186.458 165.691 187.21 165.486 188.152 165.486C188.647 165.486 189.142 165.546 189.636 165.668C190.131 165.789 190.537 165.952 190.854 166.158L190.28 167.222C189.674 166.83 188.96 166.634 188.138 166.634C187.569 166.634 187.135 166.727 186.836 166.914C186.538 167.1 186.388 167.348 186.388 167.656C186.388 167.898 186.472 168.09 186.64 168.23C186.808 168.37 187.014 168.472 187.256 168.538C187.508 168.603 187.858 168.678 188.306 168.762C188.904 168.864 189.384 168.976 189.748 169.098C190.122 169.21 190.439 169.406 190.7 169.686C190.962 169.966 191.092 170.358 191.092 170.862C191.092 171.534 190.803 172.07 190.224 172.472C189.655 172.864 188.876 173.06 187.886 173.06ZM196.678 172.542C196.482 172.71 196.239 172.84 195.95 172.934C195.661 173.018 195.362 173.06 195.054 173.06C194.307 173.06 193.729 172.859 193.318 172.458C192.907 172.056 192.702 171.482 192.702 170.736V163.932H194.046V165.556H196.174V166.662H194.046V170.68C194.046 171.081 194.144 171.389 194.34 171.604C194.545 171.818 194.835 171.926 195.208 171.926C195.619 171.926 195.969 171.809 196.258 171.576L196.678 172.542ZM207.577 165.486C208.511 165.486 209.248 165.756 209.789 166.298C210.34 166.839 210.615 167.642 210.615 168.706V172.976H209.271V168.86C209.271 168.141 209.103 167.6 208.767 167.236C208.441 166.872 207.969 166.69 207.353 166.69C206.672 166.69 206.131 166.904 205.729 167.334C205.328 167.754 205.127 168.36 205.127 169.154V172.976H203.783V168.86C203.783 168.141 203.615 167.6 203.279 167.236C202.953 166.872 202.481 166.69 201.865 166.69C201.184 166.69 200.643 166.904 200.241 167.334C199.84 167.754 199.639 168.36 199.639 169.154V172.976H198.295V165.556H199.583V166.662C199.854 166.279 200.209 165.99 200.647 165.794C201.086 165.588 201.585 165.486 202.145 165.486C202.724 165.486 203.237 165.602 203.685 165.836C204.133 166.069 204.479 166.41 204.721 166.858C205.001 166.428 205.389 166.092 205.883 165.85C206.387 165.607 206.952 165.486 207.577 165.486ZM216.475 171.884C217.362 171.884 218.076 171.585 218.617 170.988L219.345 171.856C219.019 172.248 218.603 172.546 218.099 172.752C217.605 172.957 217.049 173.06 216.433 173.06C215.649 173.06 214.954 172.901 214.347 172.584C213.741 172.257 213.269 171.804 212.933 171.226C212.607 170.647 212.443 169.994 212.443 169.266C212.443 168.547 212.602 167.898 212.919 167.32C213.246 166.741 213.689 166.293 214.249 165.976C214.819 165.649 215.458 165.486 216.167 165.486C216.839 165.486 217.451 165.64 218.001 165.948C218.552 166.246 218.991 166.671 219.317 167.222C219.644 167.772 219.812 168.407 219.821 169.126L213.927 170.274C214.114 170.787 214.427 171.184 214.865 171.464C215.313 171.744 215.85 171.884 216.475 171.884ZM216.167 166.62C215.701 166.62 215.281 166.727 214.907 166.942C214.543 167.156 214.259 167.46 214.053 167.852C213.848 168.234 213.745 168.682 213.745 169.196V169.336L218.491 168.44C218.37 167.898 218.099 167.46 217.679 167.124C217.259 166.788 216.755 166.62 216.167 166.62ZM225.664 165.486C226.606 165.486 227.353 165.761 227.904 166.312C228.464 166.853 228.744 167.651 228.744 168.706V172.976H227.4V168.86C227.4 168.141 227.227 167.6 226.882 167.236C226.536 166.872 226.042 166.69 225.398 166.69C224.67 166.69 224.096 166.904 223.676 167.334C223.256 167.754 223.046 168.36 223.046 169.154V172.976H221.702V165.556H222.99V166.676C223.26 166.293 223.624 165.999 224.082 165.794C224.548 165.588 225.076 165.486 225.664 165.486ZM235.137 172.542C234.941 172.71 234.698 172.84 234.409 172.934C234.12 173.018 233.821 173.06 233.513 173.06C232.766 173.06 232.188 172.859 231.777 172.458C231.366 172.056 231.161 171.482 231.161 170.736V163.932H232.505V165.556H234.633V166.662H232.505V170.68C232.505 171.081 232.603 171.389 232.799 171.604C233.004 171.818 233.294 171.926 233.667 171.926C234.078 171.926 234.428 171.809 234.717 171.576L235.137 172.542ZM237.213 173.06C236.952 173.06 236.728 172.971 236.541 172.794C236.355 172.607 236.261 172.374 236.261 172.094C236.261 171.823 236.355 171.599 236.541 171.422C236.728 171.235 236.952 171.142 237.213 171.142C237.475 171.142 237.694 171.23 237.871 171.408C238.049 171.585 238.137 171.814 238.137 172.094C238.137 172.374 238.044 172.607 237.857 172.794C237.68 172.971 237.465 173.06 237.213 173.06Z" fill="#021516"/>
<defs>
<radialGradient id="paint0_radial_1067_3285" cx="0" cy="0" r="1" gradientUnits="userSpaceOnUse" gradientTransform="translate(287.483 53.3564) rotate(152.811) scale(323.195 294.41)">
<stop stop-color="#90C626"/>
<stop offset="1" stop-color="#20934A"/>
</radialGradient>
</defs>
</svg>
