<svg width="371" height="201" viewBox="0 0 371 201" fill="none" xmlns="http://www.w3.org/2000/svg">
<rect width="371" height="201" rx="20" fill="url(#paint0_radial_1067_3247)"/>
<path d="M48.38 60.32C46.9 60.32 45.5667 60.0133 44.38 59.4C43.1933 58.7733 42.26 57.9067 41.58 56.8C40.9133 55.68 40.58 54.4133 40.58 53C40.58 51.5867 40.9133 50.3267 41.58 49.22C42.26 48.1 43.1933 47.2333 44.38 46.62C45.5667 45.9933 46.9 45.68 48.38 45.68C49.74 45.68 50.9533 45.92 52.02 46.4C53.0867 46.88 53.9667 47.5733 54.66 48.48L51.68 51.14C50.8133 50.0467 49.7933 49.5 48.62 49.5C47.6333 49.5 46.84 49.82 46.24 50.46C45.64 51.0867 45.34 51.9333 45.34 53C45.34 54.0667 45.64 54.92 46.24 55.56C46.84 56.1867 47.6333 56.5 48.62 56.5C49.7933 56.5 50.8133 55.9533 51.68 54.86L54.66 57.52C53.9667 58.4267 53.0867 59.12 52.02 59.6C50.9533 60.08 49.74 60.32 48.38 60.32ZM62.0228 56.48H60.7428V60H56.0228V46H62.7628C64.0561 46 65.1828 46.2133 66.1428 46.64C67.1028 47.0667 67.8428 47.68 68.3628 48.48C68.8828 49.28 69.1428 50.2133 69.1428 51.28C69.1428 52.28 68.9161 53.1533 68.4628 53.9C68.0095 54.6467 67.3561 55.24 66.5028 55.68L69.4428 60H64.4028L62.0228 56.48ZM64.3828 51.28C64.3828 50.76 64.2228 50.36 63.9028 50.08C63.5828 49.7867 63.1028 49.64 62.4628 49.64H60.7428V52.92H62.4628C63.1028 52.92 63.5828 52.78 63.9028 52.5C64.2228 52.2067 64.3828 51.8 64.3828 51.28ZM83.5652 59.08C82.8185 59.4667 81.9185 59.7733 80.8652 60C79.8118 60.2133 78.7385 60.32 77.6452 60.32C76.0718 60.32 74.7318 60.14 73.6252 59.78C72.5318 59.4067 71.7052 58.8933 71.1452 58.24C70.5852 57.5733 70.3052 56.8133 70.3052 55.96C70.3052 55.2533 70.4918 54.62 70.8652 54.06C71.2518 53.5 71.7985 53.0667 72.5052 52.76C71.9718 52.4667 71.5652 52.0867 71.2852 51.62C71.0185 51.14 70.8852 50.6133 70.8852 50.04C70.8852 49.2533 71.1385 48.5333 71.6452 47.88C72.1652 47.2133 72.9518 46.68 74.0052 46.28C75.0718 45.88 76.3785 45.68 77.9252 45.68C78.8718 45.68 79.7985 45.7667 80.7052 45.94C81.6252 46.1 82.4452 46.32 83.1652 46.6L81.8852 50.04C80.6318 49.5333 79.3718 49.28 78.1052 49.28C77.2785 49.28 76.6585 49.3733 76.2452 49.56C75.8452 49.7467 75.6452 50.0067 75.6452 50.34C75.6452 50.62 75.7452 50.8333 75.9452 50.98C76.1452 51.1267 76.4785 51.2 76.9452 51.2H81.0452V54.68H76.6252C76.1052 54.68 75.7118 54.7667 75.4452 54.94C75.1918 55.1 75.0652 55.3333 75.0652 55.64C75.0652 56.36 75.9852 56.72 77.8252 56.72C78.5318 56.72 79.2785 56.6267 80.0652 56.44C80.8652 56.24 81.5718 55.98 82.1852 55.66L83.5652 59.08ZM91.1036 45.68C92.4636 45.68 93.6636 45.9533 94.7036 46.5C95.7436 47.0333 96.5503 47.82 97.1236 48.86C97.7103 49.8867 98.0036 51.1133 98.0036 52.54V60H93.2836V57.18H88.8436V60H84.2036V52.54C84.2036 51.1133 84.4903 49.8867 85.0636 48.86C85.6503 47.82 86.4636 47.0333 87.5036 46.5C88.5436 45.9533 89.7436 45.68 91.1036 45.68ZM93.2836 53.62V52.14C93.2836 51.2733 93.0769 50.62 92.6636 50.18C92.2636 49.7267 91.7303 49.5 91.0636 49.5C90.3969 49.5 89.8569 49.7267 89.4436 50.18C89.0436 50.62 88.8436 51.2733 88.8436 52.14V53.62H93.2836ZM111.308 50.9C110.228 50.3 109.135 49.8867 108.028 49.66V60H103.308V49.66C102.201 49.8867 101.108 50.3 100.028 50.9L98.4681 47.54C99.4681 46.94 100.588 46.48 101.828 46.16C103.068 45.84 104.348 45.68 105.668 45.68C106.988 45.68 108.268 45.84 109.508 46.16C110.748 46.48 111.868 46.94 112.868 47.54L111.308 50.9ZM120.02 49.56V56.44H122.12V60H113.2V56.44H115.3V49.56H113.2V46H122.12V49.56H120.02ZM132.453 45.68C134.106 45.68 135.386 46.22 136.293 47.3C137.213 48.38 137.673 49.9133 137.673 51.9V60H132.953V52.04C132.953 51.1867 132.766 50.5533 132.393 50.14C132.033 49.7133 131.526 49.5 130.873 49.5C130.219 49.5 129.686 49.7267 129.273 50.18C128.873 50.6333 128.673 51.3067 128.673 52.2V60H123.953V46H128.533V47.5C129.479 46.2867 130.786 45.68 132.453 45.68ZM149.091 52.62H153.191V60H150.111V59.14C149.178 59.9267 147.925 60.32 146.351 60.32C145.031 60.32 143.831 60.04 142.751 59.48C141.685 58.92 140.838 58.1067 140.211 57.04C139.585 55.96 139.271 54.6733 139.271 53.18C139.271 51.7133 139.605 50.4133 140.271 49.28C140.951 48.1333 141.891 47.2467 143.091 46.62C144.291 45.9933 145.658 45.68 147.191 45.68C148.565 45.68 149.791 45.9133 150.871 46.38C151.965 46.8333 152.871 47.5 153.591 48.38L150.571 51.04C149.691 50.0133 148.645 49.5 147.431 49.5C146.378 49.5 145.545 49.82 144.931 50.46C144.331 51.1 144.031 51.9933 144.031 53.14C144.031 54.2867 144.305 55.1467 144.851 55.72C145.411 56.2933 146.131 56.58 147.011 56.58C147.825 56.58 148.518 56.38 149.091 55.98V52.62ZM47.92 69.68C49.28 69.68 50.48 69.9533 51.52 70.5C52.56 71.0333 53.3667 71.82 53.94 72.86C54.5267 73.8867 54.82 75.1133 54.82 76.54V84H50.1V81.18H45.66V84H41.02V76.54C41.02 75.1133 41.3067 73.8867 41.88 72.86C42.4667 71.82 43.28 71.0333 44.32 70.5C45.36 69.9533 46.56 69.68 47.92 69.68ZM50.1 77.62V76.14C50.1 75.2733 49.8933 74.62 49.48 74.18C49.08 73.7267 48.5467 73.5 47.88 73.5C47.2133 73.5 46.6733 73.7267 46.26 74.18C45.86 74.62 45.66 75.2733 45.66 76.14V77.62H50.1ZM64.2198 84.32C62.7398 84.32 61.4065 84.0133 60.2198 83.4C59.0332 82.7733 58.0998 81.9067 57.4198 80.8C56.7532 79.68 56.4198 78.4133 56.4198 77C56.4198 75.5867 56.7532 74.3267 57.4198 73.22C58.0998 72.1 59.0332 71.2333 60.2198 70.62C61.4065 69.9933 62.7398 69.68 64.2198 69.68C65.5798 69.68 66.7932 69.92 67.8598 70.4C68.9265 70.88 69.8065 71.5733 70.4998 72.48L67.5198 75.14C66.6532 74.0467 65.6332 73.5 64.4598 73.5C63.4732 73.5 62.6798 73.82 62.0798 74.46C61.4798 75.0867 61.1798 75.9333 61.1798 77C61.1798 78.0667 61.4798 78.92 62.0798 79.56C62.6798 80.1867 63.4732 80.5 64.4598 80.5C65.6332 80.5 66.6532 79.9533 67.5198 78.86L70.4998 81.52C69.8065 82.4267 68.9265 83.12 67.8598 83.6C66.7932 84.08 65.5798 84.32 64.2198 84.32ZM78.8097 84.32C77.3297 84.32 75.9964 84.0133 74.8097 83.4C73.623 82.7733 72.6897 81.9067 72.0097 80.8C71.343 79.68 71.0097 78.4133 71.0097 77C71.0097 75.5867 71.343 74.3267 72.0097 73.22C72.6897 72.1 73.623 71.2333 74.8097 70.62C75.9964 69.9933 77.3297 69.68 78.8097 69.68C80.1697 69.68 81.383 69.92 82.4497 70.4C83.5164 70.88 84.3964 71.5733 85.0897 72.48L82.1097 75.14C81.243 74.0467 80.223 73.5 79.0497 73.5C78.063 73.5 77.2697 73.82 76.6697 74.46C76.0697 75.0867 75.7697 75.9333 75.7697 77C75.7697 78.0667 76.0697 78.92 76.6697 79.56C77.2697 80.1867 78.063 80.5 79.0497 80.5C80.223 80.5 81.243 79.9533 82.1097 78.86L85.0897 81.52C84.3964 82.4267 83.5164 83.12 82.4497 83.6C81.383 84.08 80.1697 84.32 78.8097 84.32ZM93.4995 84.32C91.9929 84.32 90.6395 84.0067 89.4395 83.38C88.2395 82.7533 87.2995 81.8867 86.6195 80.78C85.9395 79.66 85.5995 78.4 85.5995 77C85.5995 75.6 85.9395 74.3467 86.6195 73.24C87.2995 72.12 88.2395 71.2467 89.4395 70.62C90.6395 69.9933 91.9929 69.68 93.4995 69.68C95.0062 69.68 96.3595 69.9933 97.5595 70.62C98.7595 71.2467 99.6995 72.12 100.38 73.24C101.06 74.3467 101.4 75.6 101.4 77C101.4 78.4 101.06 79.66 100.38 80.78C99.6995 81.8867 98.7595 82.7533 97.5595 83.38C96.3595 84.0067 95.0062 84.32 93.4995 84.32ZM93.4995 80.5C94.0862 80.5 94.6129 80.36 95.0795 80.08C95.5595 79.7867 95.9395 79.38 96.2195 78.86C96.4995 78.3267 96.6395 77.7067 96.6395 77C96.6395 76.2933 96.4995 75.68 96.2195 75.16C95.9395 74.6267 95.5595 74.22 95.0795 73.94C94.6129 73.6467 94.0862 73.5 93.4995 73.5C92.9129 73.5 92.3795 73.6467 91.8995 73.94C91.4329 74.22 91.0595 74.6267 90.7795 75.16C90.4995 75.68 90.3595 76.2933 90.3595 77C90.3595 77.7067 90.4995 78.3267 90.7795 78.86C91.0595 79.38 91.4329 79.7867 91.8995 80.08C92.3795 80.36 92.9129 80.5 93.4995 80.5ZM116.633 70V84H112.053V82.5C111.106 83.7133 109.813 84.32 108.173 84.32C106.533 84.32 105.259 83.78 104.353 82.7C103.446 81.62 102.993 80.0867 102.993 78.1V70H107.713V77.96C107.713 78.8133 107.893 79.4533 108.253 79.88C108.613 80.2933 109.113 80.5 109.753 80.5C110.379 80.5 110.893 80.2733 111.293 79.82C111.706 79.3533 111.913 78.68 111.913 77.8V70H116.633ZM127.413 69.68C129.067 69.68 130.347 70.22 131.253 71.3C132.173 72.38 132.633 73.9133 132.633 75.9V84H127.913V76.04C127.913 75.1867 127.727 74.5533 127.353 74.14C126.993 73.7133 126.487 73.5 125.833 73.5C125.18 73.5 124.647 73.7267 124.233 74.18C123.833 74.6333 123.633 75.3067 123.633 76.2V84H118.913V70H123.493V71.5C124.44 70.2867 125.747 69.68 127.413 69.68ZM146.132 74.9C145.052 74.3 143.959 73.8867 142.852 73.66V84H138.132V73.66C137.026 73.8867 135.932 74.3 134.852 74.9L133.292 71.54C134.292 70.94 135.412 70.48 136.652 70.16C137.892 69.84 139.172 69.68 140.492 69.68C141.812 69.68 143.092 69.84 144.332 70.16C145.572 70.48 146.692 70.94 147.692 71.54L146.132 74.9Z" fill="white"/>
<path opacity="0.6" fill-rule="evenodd" clip-rule="evenodd" d="M286.024 109.976C310.864 109.976 331 89.8396 331 65.0001C331 40.1606 310.864 20.0242 286.024 20.0242C269.327 20.0242 254.755 29.123 246.996 42.6329L245.007 46.5217C244.29 48.1119 243.662 49.7514 243.13 51.4337C242.898 52.1793 242.37 53.9739 242.122 55.1868C241.419 58.3456 241.048 61.6295 241.048 65.0001C241.048 69.4125 241.684 73.6765 242.868 77.7057C243.162 78.7676 243.849 80.6502 244.155 81.4588C244.845 83.2134 245.643 84.9142 246.539 86.553L248.774 90.213C256.863 102.139 270.528 109.976 286.024 109.976ZM286.024 107.076C309.23 107.076 328.042 88.2641 328.042 65.0581C328.042 41.8521 309.23 23.04 286.024 23.04C262.818 23.04 244.006 41.8521 244.006 65.0581C244.006 88.2641 262.818 107.076 286.024 107.076Z" fill="#C5D82E"/>
<circle cx="286.647" cy="65.0049" r="35.9807" fill="#022426"/>
<path d="M295.66 44.0002V86.0002H281.5V54.6802H274.3V44.0002H295.66Z" fill="white"/>
<path d="M48.064 133.894C48.6333 134.052 49.0813 134.342 49.408 134.762C49.7347 135.172 49.898 135.695 49.898 136.33C49.898 137.179 49.576 137.832 48.932 138.29C48.2973 138.747 47.3687 138.976 46.146 138.976H41.47V129.176H45.866C46.986 129.176 47.8493 129.4 48.456 129.848C49.072 130.296 49.38 130.916 49.38 131.71C49.38 132.223 49.2587 132.666 49.016 133.04C48.7827 133.413 48.4653 133.698 48.064 133.894ZM42.87 130.31V133.446H45.74C46.4587 133.446 47.0093 133.315 47.392 133.054C47.784 132.783 47.98 132.391 47.98 131.878C47.98 131.364 47.784 130.977 47.392 130.716C47.0093 130.445 46.4587 130.31 45.74 130.31H42.87ZM46.09 137.842C46.8833 137.842 47.4807 137.711 47.882 137.45C48.2833 137.188 48.484 136.778 48.484 136.218C48.484 135.126 47.686 134.58 46.09 134.58H42.87V137.842H46.09ZM55.2157 137.884C56.1024 137.884 56.8164 137.585 57.3577 136.988L58.0857 137.856C57.759 138.248 57.3437 138.546 56.8397 138.752C56.345 138.957 55.7897 139.06 55.1737 139.06C54.3897 139.06 53.6944 138.901 53.0877 138.584C52.481 138.257 52.0097 137.804 51.6737 137.226C51.347 136.647 51.1837 135.994 51.1837 135.266C51.1837 134.547 51.3424 133.898 51.6597 133.32C51.9864 132.741 52.4297 132.293 52.9897 131.976C53.559 131.649 54.1984 131.486 54.9077 131.486C55.5797 131.486 56.191 131.64 56.7417 131.948C57.2924 132.246 57.731 132.671 58.0577 133.222C58.3844 133.772 58.5524 134.407 58.5617 135.126L52.6677 136.274C52.8544 136.787 53.167 137.184 53.6057 137.464C54.0537 137.744 54.5904 137.884 55.2157 137.884ZM54.9077 132.62C54.441 132.62 54.021 132.727 53.6477 132.942C53.2837 133.156 52.999 133.46 52.7937 133.852C52.5884 134.234 52.4857 134.682 52.4857 135.196V135.336L57.2317 134.44C57.1104 133.898 56.8397 133.46 56.4197 133.124C55.9997 132.788 55.4957 132.62 54.9077 132.62ZM67.54 131.556V137.968C67.54 139.265 67.218 140.222 66.574 140.838C65.93 141.463 64.9686 141.776 63.69 141.776C62.99 141.776 62.3226 141.678 61.688 141.482C61.0533 141.295 60.54 141.024 60.148 140.67L60.792 139.634C61.1373 139.932 61.562 140.166 62.066 140.334C62.5793 140.511 63.1066 140.6 63.648 140.6C64.516 140.6 65.1553 140.394 65.566 139.984C65.986 139.573 66.196 138.948 66.196 138.108V137.52C65.8786 137.902 65.4866 138.192 65.02 138.388C64.5626 138.574 64.0633 138.668 63.522 138.668C62.8126 138.668 62.1686 138.518 61.59 138.22C61.0206 137.912 60.5726 137.487 60.246 136.946C59.9193 136.395 59.756 135.77 59.756 135.07C59.756 134.37 59.9193 133.749 60.246 133.208C60.5726 132.657 61.0206 132.232 61.59 131.934C62.1686 131.635 62.8126 131.486 63.522 131.486C64.082 131.486 64.6 131.588 65.076 131.794C65.5613 131.999 65.958 132.302 66.266 132.704V131.556H67.54ZM63.676 137.492C64.1613 137.492 64.5953 137.389 64.978 137.184C65.37 136.978 65.6733 136.694 65.888 136.33C66.112 135.956 66.224 135.536 66.224 135.07C66.224 134.351 65.986 133.772 65.51 133.334C65.034 132.886 64.4226 132.662 63.676 132.662C62.92 132.662 62.304 132.886 61.828 133.334C61.352 133.772 61.114 134.351 61.114 135.07C61.114 135.536 61.2213 135.956 61.436 136.33C61.66 136.694 61.9633 136.978 62.346 137.184C62.738 137.389 63.1813 137.492 63.676 137.492ZM70.108 131.556H71.452V138.976H70.108V131.556ZM70.78 130.128C70.5187 130.128 70.2993 130.044 70.122 129.876C69.954 129.708 69.87 129.502 69.87 129.26C69.87 129.017 69.954 128.812 70.122 128.644C70.2993 128.466 70.5187 128.378 70.78 128.378C71.0413 128.378 71.256 128.462 71.424 128.63C71.6013 128.788 71.69 128.989 71.69 129.232C71.69 129.484 71.6013 129.698 71.424 129.876C71.256 130.044 71.0413 130.128 70.78 130.128ZM77.9801 131.486C78.9228 131.486 79.6695 131.761 80.2201 132.312C80.7801 132.853 81.0601 133.651 81.0601 134.706V138.976H79.7161V134.86C79.7161 134.141 79.5435 133.6 79.1981 133.236C78.8528 132.872 78.3581 132.69 77.7141 132.69C76.9861 132.69 76.4121 132.904 75.9921 133.334C75.5721 133.754 75.3621 134.36 75.3621 135.154V138.976H74.0181V131.556H75.3061V132.676C75.5768 132.293 75.9408 131.999 76.3981 131.794C76.8648 131.588 77.3921 131.486 77.9801 131.486ZM91.2412 131.486C91.9599 131.486 92.6039 131.644 93.1732 131.962C93.7425 132.279 94.1859 132.722 94.5032 133.292C94.8299 133.861 94.9932 134.519 94.9932 135.266C94.9932 136.012 94.8299 136.675 94.5032 137.254C94.1859 137.823 93.7425 138.266 93.1732 138.584C92.6039 138.901 91.9599 139.06 91.2412 139.06C90.6905 139.06 90.1865 138.952 89.7292 138.738C89.2719 138.523 88.8939 138.21 88.5952 137.8V138.976H87.3072V128.588H88.6512V132.676C88.9499 132.284 89.3232 131.99 89.7712 131.794C90.2192 131.588 90.7092 131.486 91.2412 131.486ZM91.1292 137.884C91.6052 137.884 92.0299 137.776 92.4032 137.562C92.7859 137.338 93.0845 137.03 93.2992 136.638C93.5232 136.236 93.6352 135.779 93.6352 135.266C93.6352 134.752 93.5232 134.3 93.2992 133.908C93.0845 133.506 92.7859 133.198 92.4032 132.984C92.0299 132.769 91.6052 132.662 91.1292 132.662C90.6625 132.662 90.2379 132.769 89.8552 132.984C89.4725 133.198 89.1739 133.506 88.9592 133.908C88.7445 134.3 88.6372 134.752 88.6372 135.266C88.6372 135.779 88.7445 136.236 88.9592 136.638C89.1739 137.03 89.4725 137.338 89.8552 137.562C90.2379 137.776 90.6625 137.884 91.1292 137.884ZM103.766 131.556V137.968C103.766 139.265 103.463 140.222 102.856 140.838C102.25 141.463 101.34 141.776 100.126 141.776C99.4635 141.776 98.8288 141.678 98.2222 141.482C97.6248 141.295 97.1348 141.024 96.7522 140.67L97.4102 139.634C97.7368 139.932 98.1288 140.166 98.5862 140.334C99.0528 140.502 99.5428 140.586 100.056 140.586C100.868 140.586 101.466 140.38 101.848 139.97C102.231 139.568 102.422 138.948 102.422 138.108V137.562C102.152 137.916 101.802 138.192 101.372 138.388C100.943 138.574 100.476 138.668 99.9722 138.668C98.9828 138.668 98.2035 138.397 97.6342 137.856C97.0648 137.314 96.7802 136.512 96.7802 135.448V131.556H98.1242V135.294C98.1242 136.003 98.2968 136.544 98.6422 136.918C98.9875 137.282 99.4822 137.464 100.126 137.464C100.836 137.464 101.396 137.249 101.806 136.82C102.217 136.39 102.422 135.784 102.422 135V131.556H103.766ZM112.213 139.06C111.606 139.06 111.023 138.98 110.463 138.822C109.903 138.654 109.464 138.444 109.147 138.192L109.707 137.128C110.033 137.361 110.43 137.548 110.897 137.688C111.363 137.828 111.835 137.898 112.311 137.898C113.487 137.898 114.075 137.562 114.075 136.89C114.075 136.666 113.995 136.488 113.837 136.358C113.678 136.227 113.477 136.134 113.235 136.078C113.001 136.012 112.665 135.942 112.227 135.868C111.629 135.774 111.139 135.667 110.757 135.546C110.383 135.424 110.061 135.219 109.791 134.93C109.52 134.64 109.385 134.234 109.385 133.712C109.385 133.04 109.665 132.503 110.225 132.102C110.785 131.691 111.536 131.486 112.479 131.486C112.973 131.486 113.468 131.546 113.963 131.668C114.457 131.789 114.863 131.952 115.181 132.158L114.607 133.222C114 132.83 113.286 132.634 112.465 132.634C111.895 132.634 111.461 132.727 111.163 132.914C110.864 133.1 110.715 133.348 110.715 133.656C110.715 133.898 110.799 134.09 110.967 134.23C111.135 134.37 111.34 134.472 111.583 134.538C111.835 134.603 112.185 134.678 112.633 134.762C113.23 134.864 113.711 134.976 114.075 135.098C114.448 135.21 114.765 135.406 115.027 135.686C115.288 135.966 115.419 136.358 115.419 136.862C115.419 137.534 115.129 138.07 114.551 138.472C113.981 138.864 113.202 139.06 112.213 139.06ZM117.098 131.556H118.442V138.976H117.098V131.556ZM117.77 130.128C117.509 130.128 117.29 130.044 117.112 129.876C116.944 129.708 116.86 129.502 116.86 129.26C116.86 129.017 116.944 128.812 117.112 128.644C117.29 128.466 117.509 128.378 117.77 128.378C118.032 128.378 118.246 128.462 118.414 128.63C118.592 128.788 118.68 128.989 118.68 129.232C118.68 129.484 118.592 129.698 118.414 129.876C118.246 130.044 118.032 130.128 117.77 130.128ZM128.106 131.556V137.968C128.106 139.265 127.784 140.222 127.14 140.838C126.496 141.463 125.535 141.776 124.256 141.776C123.556 141.776 122.889 141.678 122.254 141.482C121.62 141.295 121.106 141.024 120.714 140.67L121.358 139.634C121.704 139.932 122.128 140.166 122.632 140.334C123.146 140.511 123.673 140.6 124.214 140.6C125.082 140.6 125.722 140.394 126.132 139.984C126.552 139.573 126.762 138.948 126.762 138.108V137.52C126.445 137.902 126.053 138.192 125.586 138.388C125.129 138.574 124.63 138.668 124.088 138.668C123.379 138.668 122.735 138.518 122.156 138.22C121.587 137.912 121.139 137.487 120.812 136.946C120.486 136.395 120.322 135.77 120.322 135.07C120.322 134.37 120.486 133.749 120.812 133.208C121.139 132.657 121.587 132.232 122.156 131.934C122.735 131.635 123.379 131.486 124.088 131.486C124.648 131.486 125.166 131.588 125.642 131.794C126.128 131.999 126.524 132.302 126.832 132.704V131.556H128.106ZM124.242 137.492C124.728 137.492 125.162 137.389 125.544 137.184C125.936 136.978 126.24 136.694 126.454 136.33C126.678 135.956 126.79 135.536 126.79 135.07C126.79 134.351 126.552 133.772 126.076 133.334C125.6 132.886 124.989 132.662 124.242 132.662C123.486 132.662 122.87 132.886 122.394 133.334C121.918 133.772 121.68 134.351 121.68 135.07C121.68 135.536 121.788 135.956 122.002 136.33C122.226 136.694 122.53 136.978 122.912 137.184C123.304 137.389 123.748 137.492 124.242 137.492ZM134.636 131.486C135.579 131.486 136.326 131.761 136.876 132.312C137.436 132.853 137.716 133.651 137.716 134.706V138.976H136.372V134.86C136.372 134.141 136.2 133.6 135.854 133.236C135.509 132.872 135.014 132.69 134.37 132.69C133.642 132.69 133.068 132.904 132.648 133.334C132.228 133.754 132.018 134.36 132.018 135.154V138.976H130.674V131.556H131.962V132.676C132.233 132.293 132.597 131.999 133.054 131.794C133.521 131.588 134.048 131.486 134.636 131.486ZM140.204 131.556H141.548V138.976H140.204V131.556ZM140.876 130.128C140.614 130.128 140.395 130.044 140.218 129.876C140.05 129.708 139.966 129.502 139.966 129.26C139.966 129.017 140.05 128.812 140.218 128.644C140.395 128.466 140.614 128.378 140.876 128.378C141.137 128.378 141.352 128.462 141.52 128.63C141.697 128.788 141.786 128.989 141.786 129.232C141.786 129.484 141.697 129.698 141.52 129.876C141.352 130.044 141.137 130.128 140.876 130.128ZM148.076 131.486C149.019 131.486 149.765 131.761 150.316 132.312C150.876 132.853 151.156 133.651 151.156 134.706V138.976H149.812V134.86C149.812 134.141 149.639 133.6 149.294 133.236C148.949 132.872 148.454 132.69 147.81 132.69C147.082 132.69 146.508 132.904 146.088 133.334C145.668 133.754 145.458 134.36 145.458 135.154V138.976H144.114V131.556H145.402V132.676C145.673 132.293 146.037 131.999 146.494 131.794C146.961 131.588 147.488 131.486 148.076 131.486ZM160.782 131.556V137.968C160.782 139.265 160.46 140.222 159.816 140.838C159.172 141.463 158.211 141.776 156.932 141.776C156.232 141.776 155.565 141.678 154.93 141.482C154.295 141.295 153.782 141.024 153.39 140.67L154.034 139.634C154.379 139.932 154.804 140.166 155.308 140.334C155.821 140.511 156.349 140.6 156.89 140.6C157.758 140.6 158.397 140.394 158.808 139.984C159.228 139.573 159.438 138.948 159.438 138.108V137.52C159.121 137.902 158.729 138.192 158.262 138.388C157.805 138.574 157.305 138.668 156.764 138.668C156.055 138.668 155.411 138.518 154.832 138.22C154.263 137.912 153.815 137.487 153.488 136.946C153.161 136.395 152.998 135.77 152.998 135.07C152.998 134.37 153.161 133.749 153.488 133.208C153.815 132.657 154.263 132.232 154.832 131.934C155.411 131.635 156.055 131.486 156.764 131.486C157.324 131.486 157.842 131.588 158.318 131.794C158.803 131.999 159.2 132.302 159.508 132.704V131.556H160.782ZM156.918 137.492C157.403 137.492 157.837 137.389 158.22 137.184C158.612 136.978 158.915 136.694 159.13 136.33C159.354 135.956 159.466 135.536 159.466 135.07C159.466 134.351 159.228 133.772 158.752 133.334C158.276 132.886 157.665 132.662 156.918 132.662C156.162 132.662 155.546 132.886 155.07 133.334C154.594 133.772 154.356 134.351 154.356 135.07C154.356 135.536 154.463 135.956 154.678 136.33C154.902 136.694 155.205 136.978 155.588 137.184C155.98 137.389 156.423 137.492 156.918 137.492ZM174.026 131.556V138.976H172.752V137.856C172.481 138.238 172.122 138.537 171.674 138.752C171.235 138.957 170.755 139.06 170.232 139.06C169.243 139.06 168.463 138.789 167.894 138.248C167.325 137.697 167.04 136.89 167.04 135.826V131.556H168.384V135.672C168.384 136.39 168.557 136.936 168.902 137.31C169.247 137.674 169.742 137.856 170.386 137.856C171.095 137.856 171.655 137.641 172.066 137.212C172.477 136.782 172.682 136.176 172.682 135.392V131.556H174.026ZM180.519 131.486C181.237 131.486 181.881 131.644 182.451 131.962C183.02 132.279 183.463 132.722 183.781 133.292C184.107 133.861 184.271 134.519 184.271 135.266C184.271 136.012 184.107 136.675 183.781 137.254C183.463 137.823 183.02 138.266 182.451 138.584C181.881 138.901 181.237 139.06 180.519 139.06C179.987 139.06 179.497 138.957 179.049 138.752C178.61 138.546 178.237 138.248 177.929 137.856V141.692H176.585V131.556H177.873V132.732C178.171 132.321 178.549 132.013 179.007 131.808C179.464 131.593 179.968 131.486 180.519 131.486ZM180.407 137.884C180.883 137.884 181.307 137.776 181.681 137.562C182.063 137.338 182.362 137.03 182.577 136.638C182.801 136.236 182.913 135.779 182.913 135.266C182.913 134.752 182.801 134.3 182.577 133.908C182.362 133.506 182.063 133.198 181.681 132.984C181.307 132.769 180.883 132.662 180.407 132.662C179.94 132.662 179.515 132.774 179.133 132.998C178.759 133.212 178.461 133.516 178.237 133.908C178.022 134.3 177.915 134.752 177.915 135.266C177.915 135.779 178.022 136.236 178.237 136.638C178.451 137.03 178.75 137.338 179.133 137.562C179.515 137.776 179.94 137.884 180.407 137.884ZM192.407 129.61C191.605 129.61 191.203 130.044 191.203 130.912V131.556H193.373V132.662H191.231V138.976H189.887V130.898C189.887 130.16 190.102 129.577 190.531 129.148C190.961 128.718 191.563 128.504 192.337 128.504C192.636 128.504 192.916 128.541 193.177 128.616C193.439 128.69 193.663 128.798 193.849 128.938L193.443 129.96C193.135 129.726 192.79 129.61 192.407 129.61ZM197.7 139.06C196.963 139.06 196.3 138.896 195.712 138.57C195.124 138.243 194.662 137.795 194.326 137.226C193.999 136.647 193.836 135.994 193.836 135.266C193.836 134.538 193.999 133.889 194.326 133.32C194.662 132.741 195.124 132.293 195.712 131.976C196.3 131.649 196.963 131.486 197.7 131.486C198.437 131.486 199.095 131.649 199.674 131.976C200.262 132.293 200.719 132.741 201.046 133.32C201.382 133.889 201.55 134.538 201.55 135.266C201.55 135.994 201.382 136.647 201.046 137.226C200.719 137.795 200.262 138.243 199.674 138.57C199.095 138.896 198.437 139.06 197.7 139.06ZM197.7 137.884C198.176 137.884 198.601 137.776 198.974 137.562C199.357 137.338 199.655 137.03 199.87 136.638C200.085 136.236 200.192 135.779 200.192 135.266C200.192 134.752 200.085 134.3 199.87 133.908C199.655 133.506 199.357 133.198 198.974 132.984C198.601 132.769 198.176 132.662 197.7 132.662C197.224 132.662 196.795 132.769 196.412 132.984C196.039 133.198 195.74 133.506 195.516 133.908C195.301 134.3 195.194 134.752 195.194 135.266C195.194 135.779 195.301 136.236 195.516 136.638C195.74 137.03 196.039 137.338 196.412 137.562C196.795 137.776 197.224 137.884 197.7 137.884ZM204.697 132.802C204.93 132.372 205.275 132.046 205.733 131.822C206.19 131.598 206.745 131.486 207.399 131.486V132.788C207.324 132.778 207.221 132.774 207.091 132.774C206.363 132.774 205.789 132.993 205.369 133.432C204.958 133.861 204.753 134.477 204.753 135.28V138.976H203.409V131.556H204.697V132.802ZM219.911 131.556V138.976H218.623V137.8C218.324 138.21 217.946 138.523 217.489 138.738C217.031 138.952 216.527 139.06 215.977 139.06C215.258 139.06 214.614 138.901 214.045 138.584C213.475 138.266 213.027 137.823 212.701 137.254C212.383 136.675 212.225 136.012 212.225 135.266C212.225 134.519 212.383 133.861 212.701 133.292C213.027 132.722 213.475 132.279 214.045 131.962C214.614 131.644 215.258 131.486 215.977 131.486C216.509 131.486 216.999 131.588 217.447 131.794C217.895 131.99 218.268 132.284 218.567 132.676V131.556H219.911ZM216.089 137.884C216.555 137.884 216.98 137.776 217.363 137.562C217.745 137.338 218.044 137.03 218.259 136.638C218.473 136.236 218.581 135.779 218.581 135.266C218.581 134.752 218.473 134.3 218.259 133.908C218.044 133.506 217.745 133.198 217.363 132.984C216.98 132.769 216.555 132.662 216.089 132.662C215.613 132.662 215.183 132.769 214.801 132.984C214.427 133.198 214.129 133.506 213.905 133.908C213.69 134.3 213.583 134.752 213.583 135.266C213.583 135.779 213.69 136.236 213.905 136.638C214.129 137.03 214.427 137.338 214.801 137.562C215.183 137.776 215.613 137.884 216.089 137.884ZM227.627 140.488C227.049 140.488 226.512 140.362 226.017 140.11C225.532 139.867 225.131 139.522 224.813 139.074L225.597 138.122C226.139 138.896 226.811 139.284 227.613 139.284C228.743 139.284 229.307 138.621 229.307 137.296V130.394H225.779V129.176H230.707V137.226C230.707 138.308 230.446 139.12 229.923 139.662C229.41 140.212 228.645 140.488 227.627 140.488ZM240.364 131.556V138.976H239.076V137.8C238.777 138.21 238.399 138.523 237.942 138.738C237.485 138.952 236.981 139.06 236.43 139.06C235.711 139.06 235.067 138.901 234.498 138.584C233.929 138.266 233.481 137.823 233.154 137.254C232.837 136.675 232.678 136.012 232.678 135.266C232.678 134.519 232.837 133.861 233.154 133.292C233.481 132.722 233.929 132.279 234.498 131.962C235.067 131.644 235.711 131.486 236.43 131.486C236.962 131.486 237.452 131.588 237.9 131.794C238.348 131.99 238.721 132.284 239.02 132.676V131.556H240.364ZM236.542 137.884C237.009 137.884 237.433 137.776 237.816 137.562C238.199 137.338 238.497 137.03 238.712 136.638C238.927 136.236 239.034 135.779 239.034 135.266C239.034 134.752 238.927 134.3 238.712 133.908C238.497 133.506 238.199 133.198 237.816 132.984C237.433 132.769 237.009 132.662 236.542 132.662C236.066 132.662 235.637 132.769 235.254 132.984C234.881 133.198 234.582 133.506 234.358 133.908C234.143 134.3 234.036 134.752 234.036 135.266C234.036 135.779 234.143 136.236 234.358 136.638C234.582 137.03 234.881 137.338 235.254 137.562C235.637 137.776 236.066 137.884 236.542 137.884ZM242.907 131.556H244.251V138.976H242.907V131.556ZM243.579 130.128C243.317 130.128 243.098 130.044 242.921 129.876C242.753 129.708 242.669 129.502 242.669 129.26C242.669 129.017 242.753 128.812 242.921 128.644C243.098 128.466 243.317 128.378 243.579 128.378C243.84 128.378 244.055 128.462 244.223 128.63C244.4 128.788 244.489 128.989 244.489 129.232C244.489 129.484 244.4 129.698 244.223 129.876C244.055 130.044 243.84 130.128 243.579 130.128ZM256.099 131.486C257.032 131.486 257.77 131.756 258.311 132.298C258.862 132.839 259.137 133.642 259.137 134.706V138.976H257.793V134.86C257.793 134.141 257.625 133.6 257.289 133.236C256.962 132.872 256.491 132.69 255.875 132.69C255.194 132.69 254.652 132.904 254.251 133.334C253.85 133.754 253.649 134.36 253.649 135.154V138.976H252.305V134.86C252.305 134.141 252.137 133.6 251.801 133.236C251.474 132.872 251.003 132.69 250.387 132.69C249.706 132.69 249.164 132.904 248.763 133.334C248.362 133.754 248.161 134.36 248.161 135.154V138.976H246.817V131.556H248.105V132.662C248.376 132.279 248.73 131.99 249.169 131.794C249.608 131.588 250.107 131.486 250.667 131.486C251.246 131.486 251.759 131.602 252.207 131.836C252.655 132.069 253 132.41 253.243 132.858C253.523 132.428 253.91 132.092 254.405 131.85C254.909 131.607 255.474 131.486 256.099 131.486ZM268.651 131.556V138.976H267.363V137.8C267.064 138.21 266.686 138.523 266.229 138.738C265.772 138.952 265.268 139.06 264.717 139.06C263.998 139.06 263.354 138.901 262.785 138.584C262.216 138.266 261.768 137.823 261.441 137.254C261.124 136.675 260.965 136.012 260.965 135.266C260.965 134.519 261.124 133.861 261.441 133.292C261.768 132.722 262.216 132.279 262.785 131.962C263.354 131.644 263.998 131.486 264.717 131.486C265.249 131.486 265.739 131.588 266.187 131.794C266.635 131.99 267.008 132.284 267.307 132.676V131.556H268.651ZM264.829 137.884C265.296 137.884 265.72 137.776 266.103 137.562C266.486 137.338 266.784 137.03 266.999 136.638C267.214 136.236 267.321 135.779 267.321 135.266C267.321 134.752 267.214 134.3 266.999 133.908C266.784 133.506 266.486 133.198 266.103 132.984C265.72 132.769 265.296 132.662 264.829 132.662C264.353 132.662 263.924 132.769 263.541 132.984C263.168 133.198 262.869 133.506 262.645 133.908C262.43 134.3 262.323 134.752 262.323 135.266C262.323 135.779 262.43 136.236 262.645 136.638C262.869 137.03 263.168 137.338 263.541 137.562C263.924 137.776 264.353 137.884 264.829 137.884ZM275.926 138.976L273.784 136.134L271.614 138.976H270.116L273.042 135.182L270.256 131.556H271.754L273.798 134.23L275.828 131.556H277.298L274.498 135.182L277.452 138.976H275.926ZM287.256 139.088C286.276 139.088 285.39 138.873 284.596 138.444C283.812 138.005 283.196 137.408 282.748 136.652C282.3 135.886 282.076 135.028 282.076 134.076C282.076 133.124 282.3 132.27 282.748 131.514C283.196 130.748 283.817 130.151 284.61 129.722C285.404 129.283 286.29 129.064 287.27 129.064C288.036 129.064 288.736 129.194 289.37 129.456C290.005 129.708 290.546 130.086 290.994 130.59L290.084 131.472C289.347 130.697 288.428 130.31 287.326 130.31C286.598 130.31 285.94 130.473 285.352 130.8C284.764 131.126 284.302 131.579 283.966 132.158C283.64 132.727 283.476 133.366 283.476 134.076C283.476 134.785 283.64 135.429 283.966 136.008C284.302 136.577 284.764 137.025 285.352 137.352C285.94 137.678 286.598 137.842 287.326 137.842C288.418 137.842 289.338 137.45 290.084 136.666L290.994 137.548C290.546 138.052 290 138.434 289.356 138.696C288.722 138.957 288.022 139.088 287.256 139.088ZM295.659 139.06C294.922 139.06 294.259 138.896 293.671 138.57C293.083 138.243 292.621 137.795 292.285 137.226C291.958 136.647 291.795 135.994 291.795 135.266C291.795 134.538 291.958 133.889 292.285 133.32C292.621 132.741 293.083 132.293 293.671 131.976C294.259 131.649 294.922 131.486 295.659 131.486C296.396 131.486 297.054 131.649 297.633 131.976C298.221 132.293 298.678 132.741 299.005 133.32C299.341 133.889 299.509 134.538 299.509 135.266C299.509 135.994 299.341 136.647 299.005 137.226C298.678 137.795 298.221 138.243 297.633 138.57C297.054 138.896 296.396 139.06 295.659 139.06ZM295.659 137.884C296.135 137.884 296.56 137.776 296.933 137.562C297.316 137.338 297.614 137.03 297.829 136.638C298.044 136.236 298.151 135.779 298.151 135.266C298.151 134.752 298.044 134.3 297.829 133.908C297.614 133.506 297.316 133.198 296.933 132.984C296.56 132.769 296.135 132.662 295.659 132.662C295.183 132.662 294.754 132.769 294.371 132.984C293.998 133.198 293.699 133.506 293.475 133.908C293.26 134.3 293.153 134.752 293.153 135.266C293.153 135.779 293.26 136.236 293.475 136.638C293.699 137.03 293.998 137.338 294.371 137.562C294.754 137.776 295.183 137.884 295.659 137.884ZM301.368 131.556H302.712V138.976H301.368V131.556ZM302.04 130.128C301.778 130.128 301.559 130.044 301.382 129.876C301.214 129.708 301.13 129.502 301.13 129.26C301.13 129.017 301.214 128.812 301.382 128.644C301.559 128.466 301.778 128.378 302.04 128.378C302.301 128.378 302.516 128.462 302.684 128.63C302.861 128.788 302.95 128.989 302.95 129.232C302.95 129.484 302.861 129.698 302.684 129.876C302.516 130.044 302.301 130.128 302.04 130.128ZM309.24 131.486C310.183 131.486 310.929 131.761 311.48 132.312C312.04 132.853 312.32 133.651 312.32 134.706V138.976H310.976V134.86C310.976 134.141 310.803 133.6 310.458 133.236C310.113 132.872 309.618 132.69 308.974 132.69C308.246 132.69 307.672 132.904 307.252 133.334C306.832 133.754 306.622 134.36 306.622 135.154V138.976H305.278V131.556H306.566V132.676C306.837 132.293 307.201 131.999 307.658 131.794C308.125 131.588 308.652 131.486 309.24 131.486ZM48.274 148.556V155.976H46.986V154.8C46.6873 155.21 46.3093 155.523 45.852 155.738C45.3947 155.952 44.8907 156.06 44.34 156.06C43.6213 156.06 42.9773 155.901 42.408 155.584C41.8387 155.266 41.3907 154.823 41.064 154.254C40.7467 153.675 40.588 153.012 40.588 152.266C40.588 151.519 40.7467 150.861 41.064 150.292C41.3907 149.722 41.8387 149.279 42.408 148.962C42.9773 148.644 43.6213 148.486 44.34 148.486C44.872 148.486 45.362 148.588 45.81 148.794C46.258 148.99 46.6313 149.284 46.93 149.676V148.556H48.274ZM44.452 154.884C44.9187 154.884 45.3433 154.776 45.726 154.562C46.1087 154.338 46.4073 154.03 46.622 153.638C46.8367 153.236 46.944 152.779 46.944 152.266C46.944 151.752 46.8367 151.3 46.622 150.908C46.4073 150.506 46.1087 150.198 45.726 149.984C45.3433 149.769 44.9187 149.662 44.452 149.662C43.976 149.662 43.5467 149.769 43.164 149.984C42.7907 150.198 42.492 150.506 42.268 150.908C42.0533 151.3 41.946 151.752 41.946 152.266C41.946 152.779 42.0533 153.236 42.268 153.638C42.492 154.03 42.7907 154.338 43.164 154.562C43.5467 154.776 43.976 154.884 44.452 154.884ZM54.051 156.06C53.295 156.06 52.6183 155.896 52.021 155.57C51.433 155.243 50.971 154.795 50.635 154.226C50.299 153.647 50.131 152.994 50.131 152.266C50.131 151.538 50.299 150.889 50.635 150.32C50.971 149.741 51.433 149.293 52.021 148.976C52.6183 148.649 53.295 148.486 54.051 148.486C54.723 148.486 55.3203 148.621 55.843 148.892C56.375 149.162 56.7856 149.554 57.075 150.068L56.053 150.726C55.8196 150.371 55.5303 150.105 55.185 149.928C54.8396 149.75 54.457 149.662 54.037 149.662C53.5516 149.662 53.113 149.769 52.721 149.984C52.3383 150.198 52.035 150.506 51.811 150.908C51.5963 151.3 51.489 151.752 51.489 152.266C51.489 152.788 51.5963 153.25 51.811 153.652C52.035 154.044 52.3383 154.347 52.721 154.562C53.113 154.776 53.5516 154.884 54.037 154.884C54.457 154.884 54.8396 154.795 55.185 154.618C55.5303 154.44 55.8196 154.174 56.053 153.82L57.075 154.464C56.7856 154.977 56.375 155.374 55.843 155.654C55.3203 155.924 54.723 156.06 54.051 156.06ZM61.9396 156.06C61.1836 156.06 60.507 155.896 59.9096 155.57C59.3216 155.243 58.8596 154.795 58.5236 154.226C58.1876 153.647 58.0196 152.994 58.0196 152.266C58.0196 151.538 58.1876 150.889 58.5236 150.32C58.8596 149.741 59.3216 149.293 59.9096 148.976C60.507 148.649 61.1836 148.486 61.9396 148.486C62.6116 148.486 63.209 148.621 63.7316 148.892C64.2636 149.162 64.6743 149.554 64.9636 150.068L63.9416 150.726C63.7083 150.371 63.419 150.105 63.0736 149.928C62.7283 149.75 62.3456 149.662 61.9256 149.662C61.4403 149.662 61.0016 149.769 60.6096 149.984C60.227 150.198 59.9236 150.506 59.6996 150.908C59.485 151.3 59.3776 151.752 59.3776 152.266C59.3776 152.788 59.485 153.25 59.6996 153.652C59.9236 154.044 60.227 154.347 60.6096 154.562C61.0016 154.776 61.4403 154.884 61.9256 154.884C62.3456 154.884 62.7283 154.795 63.0736 154.618C63.419 154.44 63.7083 154.174 63.9416 153.82L64.9636 154.464C64.6743 154.977 64.2636 155.374 63.7316 155.654C63.209 155.924 62.6116 156.06 61.9396 156.06ZM69.7723 156.06C69.035 156.06 68.3723 155.896 67.7843 155.57C67.1963 155.243 66.7343 154.795 66.3983 154.226C66.0716 153.647 65.9083 152.994 65.9083 152.266C65.9083 151.538 66.0716 150.889 66.3983 150.32C66.7343 149.741 67.1963 149.293 67.7843 148.976C68.3723 148.649 69.035 148.486 69.7723 148.486C70.5096 148.486 71.1676 148.649 71.7463 148.976C72.3343 149.293 72.7916 149.741 73.1183 150.32C73.4543 150.889 73.6223 151.538 73.6223 152.266C73.6223 152.994 73.4543 153.647 73.1183 154.226C72.7916 154.795 72.3343 155.243 71.7463 155.57C71.1676 155.896 70.5096 156.06 69.7723 156.06ZM69.7723 154.884C70.2483 154.884 70.673 154.776 71.0463 154.562C71.429 154.338 71.7276 154.03 71.9423 153.638C72.157 153.236 72.2643 152.779 72.2643 152.266C72.2643 151.752 72.157 151.3 71.9423 150.908C71.7276 150.506 71.429 150.198 71.0463 149.984C70.673 149.769 70.2483 149.662 69.7723 149.662C69.2963 149.662 68.867 149.769 68.4843 149.984C68.111 150.198 67.8123 150.506 67.5883 150.908C67.3736 151.3 67.2663 151.752 67.2663 152.266C67.2663 152.779 67.3736 153.236 67.5883 153.638C67.8123 154.03 68.111 154.338 68.4843 154.562C68.867 154.776 69.2963 154.884 69.7723 154.884ZM82.397 148.556V155.976H81.123V154.856C80.8524 155.238 80.493 155.537 80.045 155.752C79.6064 155.957 79.1257 156.06 78.603 156.06C77.6137 156.06 76.8344 155.789 76.265 155.248C75.6957 154.697 75.411 153.89 75.411 152.826V148.556H76.755V152.672C76.755 153.39 76.9277 153.936 77.273 154.31C77.6184 154.674 78.113 154.856 78.757 154.856C79.4664 154.856 80.0264 154.641 80.437 154.212C80.8477 153.782 81.053 153.176 81.053 152.392V148.556H82.397ZM88.9176 148.486C89.8603 148.486 90.607 148.761 91.1576 149.312C91.7176 149.853 91.9976 150.651 91.9976 151.706V155.976H90.6536V151.86C90.6536 151.141 90.481 150.6 90.1356 150.236C89.7903 149.872 89.2956 149.69 88.6516 149.69C87.9236 149.69 87.3496 149.904 86.9296 150.334C86.5096 150.754 86.2996 151.36 86.2996 152.154V155.976H84.9556V148.556H86.2436V149.676C86.5143 149.293 86.8783 148.999 87.3356 148.794C87.8023 148.588 88.3296 148.486 88.9176 148.486ZM98.3909 155.542C98.1949 155.71 97.9523 155.84 97.6629 155.934C97.3736 156.018 97.0749 156.06 96.7669 156.06C96.0203 156.06 95.4416 155.859 95.0309 155.458C94.6203 155.056 94.4149 154.482 94.4149 153.736V146.932H95.7589V148.556H97.8869V149.662H95.7589V153.68C95.7589 154.081 95.8569 154.389 96.0529 154.604C96.2583 154.818 96.5476 154.926 96.9209 154.926C97.3316 154.926 97.6816 154.809 97.9709 154.576L98.3909 155.542ZM100.467 156.06C100.206 156.06 99.9818 155.971 99.7951 155.794C99.6084 155.607 99.5151 155.374 99.5151 155.094C99.5151 154.823 99.6084 154.599 99.7951 154.422C99.9818 154.235 100.206 154.142 100.467 154.142C100.728 154.142 100.948 154.23 101.125 154.408C101.302 154.585 101.391 154.814 101.391 155.094C101.391 155.374 101.298 155.607 101.111 155.794C100.934 155.971 100.719 156.06 100.467 156.06ZM111.095 146.176C112.364 146.176 113.363 146.479 114.091 147.086C114.819 147.692 115.183 148.528 115.183 149.592C115.183 150.656 114.819 151.491 114.091 152.098C113.363 152.704 112.364 153.008 111.095 153.008H108.673V155.976H107.273V146.176H111.095ZM111.053 151.79C111.939 151.79 112.616 151.603 113.083 151.23C113.549 150.847 113.783 150.301 113.783 149.592C113.783 148.882 113.549 148.341 113.083 147.968C112.616 147.585 111.939 147.394 111.053 147.394H108.673V151.79H111.053ZM118.208 149.802C118.442 149.372 118.787 149.046 119.244 148.822C119.702 148.598 120.257 148.486 120.91 148.486V149.788C120.836 149.778 120.733 149.774 120.602 149.774C119.874 149.774 119.3 149.993 118.88 150.432C118.47 150.861 118.264 151.477 118.264 152.28V155.976H116.92V148.556H118.208V149.802ZM125.677 156.06C124.939 156.06 124.277 155.896 123.689 155.57C123.101 155.243 122.639 154.795 122.303 154.226C121.976 153.647 121.813 152.994 121.813 152.266C121.813 151.538 121.976 150.889 122.303 150.32C122.639 149.741 123.101 149.293 123.689 148.976C124.277 148.649 124.939 148.486 125.677 148.486C126.414 148.486 127.072 148.649 127.651 148.976C128.239 149.293 128.696 149.741 129.023 150.32C129.359 150.889 129.527 151.538 129.527 152.266C129.527 152.994 129.359 153.647 129.023 154.226C128.696 154.795 128.239 155.243 127.651 155.57C127.072 155.896 126.414 156.06 125.677 156.06ZM125.677 154.884C126.153 154.884 126.577 154.776 126.951 154.562C127.333 154.338 127.632 154.03 127.847 153.638C128.061 153.236 128.169 152.779 128.169 152.266C128.169 151.752 128.061 151.3 127.847 150.908C127.632 150.506 127.333 150.198 126.951 149.984C126.577 149.769 126.153 149.662 125.677 149.662C125.201 149.662 124.771 149.769 124.389 149.984C124.015 150.198 123.717 150.506 123.493 150.908C123.278 151.3 123.171 151.752 123.171 152.266C123.171 152.779 123.278 153.236 123.493 153.638C123.717 154.03 124.015 154.338 124.389 154.562C124.771 154.776 125.201 154.884 125.677 154.884ZM137.746 148.556L134.498 155.976H133.126L129.878 148.556H131.278L133.826 154.506L136.43 148.556H137.746ZM139.001 148.556H140.345V155.976H139.001V148.556ZM139.673 147.128C139.411 147.128 139.192 147.044 139.015 146.876C138.847 146.708 138.763 146.502 138.763 146.26C138.763 146.017 138.847 145.812 139.015 145.644C139.192 145.466 139.411 145.378 139.673 145.378C139.934 145.378 140.149 145.462 140.317 145.63C140.494 145.788 140.583 145.989 140.583 146.232C140.583 146.484 140.494 146.698 140.317 146.876C140.149 147.044 139.934 147.128 139.673 147.128ZM149.911 145.588V155.976H148.623V154.8C148.324 155.21 147.946 155.523 147.489 155.738C147.031 155.952 146.527 156.06 145.977 156.06C145.258 156.06 144.614 155.901 144.045 155.584C143.475 155.266 143.027 154.823 142.701 154.254C142.383 153.675 142.225 153.012 142.225 152.266C142.225 151.519 142.383 150.861 142.701 150.292C143.027 149.722 143.475 149.279 144.045 148.962C144.614 148.644 145.258 148.486 145.977 148.486C146.509 148.486 146.999 148.588 147.447 148.794C147.895 148.99 148.268 149.284 148.567 149.676V145.588H149.911ZM146.089 154.884C146.555 154.884 146.98 154.776 147.363 154.562C147.745 154.338 148.044 154.03 148.259 153.638C148.473 153.236 148.581 152.779 148.581 152.266C148.581 151.752 148.473 151.3 148.259 150.908C148.044 150.506 147.745 150.198 147.363 149.984C146.98 149.769 146.555 149.662 146.089 149.662C145.613 149.662 145.183 149.769 144.801 149.984C144.427 150.198 144.129 150.506 143.905 150.908C143.69 151.3 143.583 151.752 143.583 152.266C143.583 152.779 143.69 153.236 143.905 153.638C144.129 154.03 144.427 154.338 144.801 154.562C145.183 154.776 145.613 154.884 146.089 154.884ZM155.8 154.884C156.686 154.884 157.4 154.585 157.942 153.988L158.67 154.856C158.343 155.248 157.928 155.546 157.424 155.752C156.929 155.957 156.374 156.06 155.758 156.06C154.974 156.06 154.278 155.901 153.672 155.584C153.065 155.257 152.594 154.804 152.258 154.226C151.931 153.647 151.768 152.994 151.768 152.266C151.768 151.547 151.926 150.898 152.244 150.32C152.57 149.741 153.014 149.293 153.574 148.976C154.143 148.649 154.782 148.486 155.492 148.486C156.164 148.486 156.775 148.64 157.326 148.948C157.876 149.246 158.315 149.671 158.642 150.222C158.968 150.772 159.136 151.407 159.146 152.126L153.252 153.274C153.438 153.787 153.751 154.184 154.19 154.464C154.638 154.744 155.174 154.884 155.8 154.884ZM155.492 149.62C155.025 149.62 154.605 149.727 154.232 149.942C153.868 150.156 153.583 150.46 153.378 150.852C153.172 151.234 153.07 151.682 153.07 152.196V152.336L157.816 151.44C157.694 150.898 157.424 150.46 157.004 150.124C156.584 149.788 156.08 149.62 155.492 149.62ZM171.702 148.556V154.968C171.702 156.265 171.398 157.222 170.792 157.838C170.185 158.463 169.275 158.776 168.062 158.776C167.399 158.776 166.764 158.678 166.158 158.482C165.56 158.295 165.07 158.024 164.688 157.67L165.346 156.634C165.672 156.932 166.064 157.166 166.522 157.334C166.988 157.502 167.478 157.586 167.992 157.586C168.804 157.586 169.401 157.38 169.784 156.97C170.166 156.568 170.358 155.948 170.358 155.108V154.562C170.087 154.916 169.737 155.192 169.308 155.388C168.878 155.574 168.412 155.668 167.908 155.668C166.918 155.668 166.139 155.397 165.57 154.856C165 154.314 164.716 153.512 164.716 152.448V148.556H166.06V152.294C166.06 153.003 166.232 153.544 166.578 153.918C166.923 154.282 167.418 154.464 168.062 154.464C168.771 154.464 169.331 154.249 169.742 153.82C170.152 153.39 170.358 152.784 170.358 152V148.556H171.702ZM177.438 156.06C176.701 156.06 176.038 155.896 175.45 155.57C174.862 155.243 174.4 154.795 174.064 154.226C173.738 153.647 173.574 152.994 173.574 152.266C173.574 151.538 173.738 150.889 174.064 150.32C174.4 149.741 174.862 149.293 175.45 148.976C176.038 148.649 176.701 148.486 177.438 148.486C178.176 148.486 178.834 148.649 179.412 148.976C180 149.293 180.458 149.741 180.784 150.32C181.12 150.889 181.288 151.538 181.288 152.266C181.288 152.994 181.12 153.647 180.784 154.226C180.458 154.795 180 155.243 179.412 155.57C178.834 155.896 178.176 156.06 177.438 156.06ZM177.438 154.884C177.914 154.884 178.339 154.776 178.712 154.562C179.095 154.338 179.394 154.03 179.608 153.638C179.823 153.236 179.93 152.779 179.93 152.266C179.93 151.752 179.823 151.3 179.608 150.908C179.394 150.506 179.095 150.198 178.712 149.984C178.339 149.769 177.914 149.662 177.438 149.662C176.962 149.662 176.533 149.769 176.15 149.984C175.777 150.198 175.478 150.506 175.254 150.908C175.04 151.3 174.932 151.752 174.932 152.266C174.932 152.779 175.04 153.236 175.254 153.638C175.478 154.03 175.777 154.338 176.15 154.562C176.533 154.776 176.962 154.884 177.438 154.884ZM190.063 148.556V155.976H188.789V154.856C188.518 155.238 188.159 155.537 187.711 155.752C187.272 155.957 186.792 156.06 186.269 156.06C185.28 156.06 184.5 155.789 183.931 155.248C183.362 154.697 183.077 153.89 183.077 152.826V148.556H184.421V152.672C184.421 153.39 184.594 153.936 184.939 154.31C185.284 154.674 185.779 154.856 186.423 154.856C187.132 154.856 187.692 154.641 188.103 154.212C188.514 153.782 188.719 153.176 188.719 152.392V148.556H190.063ZM193.91 149.802C194.143 149.372 194.488 149.046 194.946 148.822C195.403 148.598 195.958 148.486 196.612 148.486V149.788C196.537 149.778 196.434 149.774 196.304 149.774C195.576 149.774 195.002 149.993 194.582 150.432C194.171 150.861 193.966 151.477 193.966 152.28V155.976H192.622V148.556H193.91V149.802ZM205.47 154.884C206.356 154.884 207.07 154.585 207.612 153.988L208.34 154.856C208.013 155.248 207.598 155.546 207.094 155.752C206.599 155.957 206.044 156.06 205.428 156.06C204.644 156.06 203.948 155.901 203.342 155.584C202.735 155.257 202.264 154.804 201.928 154.226C201.601 153.647 201.438 152.994 201.438 152.266C201.438 151.547 201.596 150.898 201.914 150.32C202.24 149.741 202.684 149.293 203.244 148.976C203.813 148.649 204.452 148.486 205.162 148.486C205.834 148.486 206.445 148.64 206.996 148.948C207.546 149.246 207.985 149.671 208.312 150.222C208.638 150.772 208.806 151.407 208.816 152.126L202.922 153.274C203.108 153.787 203.421 154.184 203.86 154.464C204.308 154.744 204.844 154.884 205.47 154.884ZM205.162 149.62C204.695 149.62 204.275 149.727 203.902 149.942C203.538 150.156 203.253 150.46 203.048 150.852C202.842 151.234 202.74 151.682 202.74 152.196V152.336L207.486 151.44C207.364 150.898 207.094 150.46 206.674 150.124C206.254 149.788 205.75 149.62 205.162 149.62ZM212.824 156.06C212.217 156.06 211.634 155.98 211.074 155.822C210.514 155.654 210.075 155.444 209.758 155.192L210.318 154.128C210.645 154.361 211.041 154.548 211.508 154.688C211.975 154.828 212.446 154.898 212.922 154.898C214.098 154.898 214.686 154.562 214.686 153.89C214.686 153.666 214.607 153.488 214.448 153.358C214.289 153.227 214.089 153.134 213.846 153.078C213.613 153.012 213.277 152.942 212.838 152.868C212.241 152.774 211.751 152.667 211.368 152.546C210.995 152.424 210.673 152.219 210.402 151.93C210.131 151.64 209.996 151.234 209.996 150.712C209.996 150.04 210.276 149.503 210.836 149.102C211.396 148.691 212.147 148.486 213.09 148.486C213.585 148.486 214.079 148.546 214.574 148.668C215.069 148.789 215.475 148.952 215.792 149.158L215.218 150.222C214.611 149.83 213.897 149.634 213.076 149.634C212.507 149.634 212.073 149.727 211.774 149.914C211.475 150.1 211.326 150.348 211.326 150.656C211.326 150.898 211.41 151.09 211.578 151.23C211.746 151.37 211.951 151.472 212.194 151.538C212.446 151.603 212.796 151.678 213.244 151.762C213.841 151.864 214.322 151.976 214.686 152.098C215.059 152.21 215.377 152.406 215.638 152.686C215.899 152.966 216.03 153.358 216.03 153.862C216.03 154.534 215.741 155.07 215.162 155.472C214.593 155.864 213.813 156.06 212.824 156.06ZM219.838 156.06C219.231 156.06 218.648 155.98 218.088 155.822C217.528 155.654 217.089 155.444 216.772 155.192L217.332 154.128C217.658 154.361 218.055 154.548 218.522 154.688C218.988 154.828 219.46 154.898 219.936 154.898C221.112 154.898 221.7 154.562 221.7 153.89C221.7 153.666 221.62 153.488 221.462 153.358C221.303 153.227 221.102 153.134 220.86 153.078C220.626 153.012 220.29 152.942 219.852 152.868C219.254 152.774 218.764 152.667 218.382 152.546C218.008 152.424 217.686 152.219 217.416 151.93C217.145 151.64 217.01 151.234 217.01 150.712C217.01 150.04 217.29 149.503 217.85 149.102C218.41 148.691 219.161 148.486 220.104 148.486C220.598 148.486 221.093 148.546 221.588 148.668C222.082 148.789 222.488 148.952 222.806 149.158L222.232 150.222C221.625 149.83 220.911 149.634 220.09 149.634C219.52 149.634 219.086 149.727 218.788 149.914C218.489 150.1 218.34 150.348 218.34 150.656C218.34 150.898 218.424 151.09 218.592 151.23C218.76 151.37 218.965 151.472 219.208 151.538C219.46 151.603 219.81 151.678 220.258 151.762C220.855 151.864 221.336 151.976 221.7 152.098C222.073 152.21 222.39 152.406 222.652 152.686C222.913 152.966 223.044 153.358 223.044 153.862C223.044 154.534 222.754 155.07 222.176 155.472C221.606 155.864 220.827 156.06 219.838 156.06ZM228.069 154.884C228.956 154.884 229.67 154.585 230.211 153.988L230.939 154.856C230.613 155.248 230.197 155.546 229.693 155.752C229.199 155.957 228.643 156.06 228.027 156.06C227.243 156.06 226.548 155.901 225.941 155.584C225.335 155.257 224.863 154.804 224.527 154.226C224.201 153.647 224.037 152.994 224.037 152.266C224.037 151.547 224.196 150.898 224.513 150.32C224.84 149.741 225.283 149.293 225.843 148.976C226.413 148.649 227.052 148.486 227.761 148.486C228.433 148.486 229.045 148.64 229.595 148.948C230.146 149.246 230.585 149.671 230.911 150.222C231.238 150.772 231.406 151.407 231.415 152.126L225.521 153.274C225.708 153.787 226.021 154.184 226.459 154.464C226.907 154.744 227.444 154.884 228.069 154.884ZM227.761 149.62C227.295 149.62 226.875 149.727 226.501 149.942C226.137 150.156 225.853 150.46 225.647 150.852C225.442 151.234 225.339 151.682 225.339 152.196V152.336L230.085 151.44C229.964 150.898 229.693 150.46 229.273 150.124C228.853 149.788 228.349 149.62 227.761 149.62ZM237.257 148.486C238.2 148.486 238.947 148.761 239.497 149.312C240.057 149.853 240.337 150.651 240.337 151.706V155.976H238.993V151.86C238.993 151.141 238.821 150.6 238.475 150.236C238.13 149.872 237.635 149.69 236.991 149.69C236.263 149.69 235.689 149.904 235.269 150.334C234.849 150.754 234.639 151.36 234.639 152.154V155.976H233.295V148.556H234.583V149.676C234.854 149.293 235.218 148.999 235.675 148.794C236.142 148.588 236.669 148.486 237.257 148.486ZM246.731 155.542C246.535 155.71 246.292 155.84 246.003 155.934C245.713 156.018 245.415 156.06 245.107 156.06C244.36 156.06 243.781 155.859 243.371 155.458C242.96 155.056 242.755 154.482 242.755 153.736V146.932H244.099V148.556H246.227V149.662H244.099V153.68C244.099 154.081 244.197 154.389 244.393 154.604C244.598 154.818 244.887 154.926 245.261 154.926C245.671 154.926 246.021 154.809 246.311 154.576L246.731 155.542ZM248.348 148.556H249.692V155.976H248.348V148.556ZM249.02 147.128C248.759 147.128 248.54 147.044 248.362 146.876C248.194 146.708 248.11 146.502 248.11 146.26C248.11 146.017 248.194 145.812 248.362 145.644C248.54 145.466 248.759 145.378 249.02 145.378C249.282 145.378 249.496 145.462 249.664 145.63C249.842 145.788 249.93 145.989 249.93 146.232C249.93 146.484 249.842 146.698 249.664 146.876C249.496 147.044 249.282 147.128 249.02 147.128ZM259.258 148.556V155.976H257.97V154.8C257.672 155.21 257.294 155.523 256.836 155.738C256.379 155.952 255.875 156.06 255.324 156.06C254.606 156.06 253.962 155.901 253.392 155.584C252.823 155.266 252.375 154.823 252.048 154.254C251.731 153.675 251.572 153.012 251.572 152.266C251.572 151.519 251.731 150.861 252.048 150.292C252.375 149.722 252.823 149.279 253.392 148.962C253.962 148.644 254.606 148.486 255.324 148.486C255.856 148.486 256.346 148.588 256.794 148.794C257.242 148.99 257.616 149.284 257.914 149.676V148.556H259.258ZM255.436 154.884C255.903 154.884 256.328 154.776 256.71 154.562C257.093 154.338 257.392 154.03 257.606 153.638C257.821 153.236 257.928 152.779 257.928 152.266C257.928 151.752 257.821 151.3 257.606 150.908C257.392 150.506 257.093 150.198 256.71 149.984C256.328 149.769 255.903 149.662 255.436 149.662C254.96 149.662 254.531 149.769 254.148 149.984C253.775 150.198 253.476 150.506 253.252 150.908C253.038 151.3 252.93 151.752 252.93 152.266C252.93 152.779 253.038 153.236 253.252 153.638C253.476 154.03 253.775 154.338 254.148 154.562C254.531 154.776 254.96 154.884 255.436 154.884ZM264.055 156.06C263.337 156.06 262.781 155.864 262.389 155.472C261.997 155.07 261.801 154.51 261.801 153.792V145.588H263.145V153.68C263.145 154.081 263.239 154.389 263.425 154.604C263.621 154.818 263.911 154.926 264.293 154.926C264.527 154.926 264.746 154.879 264.951 154.786L265.021 155.892C264.713 156.004 264.391 156.06 264.055 156.06ZM277.059 145.588V155.976H275.771V154.8C275.472 155.21 275.094 155.523 274.637 155.738C274.18 155.952 273.676 156.06 273.125 156.06C272.406 156.06 271.762 155.901 271.193 155.584C270.624 155.266 270.176 154.823 269.849 154.254C269.532 153.675 269.373 153.012 269.373 152.266C269.373 151.519 269.532 150.861 269.849 150.292C270.176 149.722 270.624 149.279 271.193 148.962C271.762 148.644 272.406 148.486 273.125 148.486C273.657 148.486 274.147 148.588 274.595 148.794C275.043 148.99 275.416 149.284 275.715 149.676V145.588H277.059ZM273.237 154.884C273.704 154.884 274.128 154.776 274.511 154.562C274.894 154.338 275.192 154.03 275.407 153.638C275.622 153.236 275.729 152.779 275.729 152.266C275.729 151.752 275.622 151.3 275.407 150.908C275.192 150.506 274.894 150.198 274.511 149.984C274.128 149.769 273.704 149.662 273.237 149.662C272.761 149.662 272.332 149.769 271.949 149.984C271.576 150.198 271.277 150.506 271.053 150.908C270.838 151.3 270.731 151.752 270.731 152.266C270.731 152.779 270.838 153.236 271.053 153.638C271.277 154.03 271.576 154.338 271.949 154.562C272.332 154.776 272.761 154.884 273.237 154.884ZM282.948 154.884C283.835 154.884 284.549 154.585 285.09 153.988L285.818 154.856C285.491 155.248 285.076 155.546 284.572 155.752C284.077 155.957 283.522 156.06 282.906 156.06C282.122 156.06 281.427 155.901 280.82 155.584C280.213 155.257 279.742 154.804 279.406 154.226C279.079 153.647 278.916 152.994 278.916 152.266C278.916 151.547 279.075 150.898 279.392 150.32C279.719 149.741 280.162 149.293 280.722 148.976C281.291 148.649 281.931 148.486 282.64 148.486C283.312 148.486 283.923 148.64 284.474 148.948C285.025 149.246 285.463 149.671 285.79 150.222C286.117 150.772 286.285 151.407 286.294 152.126L280.4 153.274C280.587 153.787 280.899 154.184 281.338 154.464C281.786 154.744 282.323 154.884 282.948 154.884ZM282.64 149.62C282.173 149.62 281.753 149.727 281.38 149.942C281.016 150.156 280.731 150.46 280.526 150.852C280.321 151.234 280.218 151.682 280.218 152.196V152.336L284.964 151.44C284.843 150.898 284.572 150.46 284.152 150.124C283.732 149.788 283.228 149.62 282.64 149.62ZM292.08 155.542C291.884 155.71 291.642 155.84 291.352 155.934C291.063 156.018 290.764 156.06 290.456 156.06C289.71 156.06 289.131 155.859 288.72 155.458C288.31 155.056 288.104 154.482 288.104 153.736V146.932H289.448V148.556H291.576V149.662H289.448V153.68C289.448 154.081 289.546 154.389 289.742 154.604C289.948 154.818 290.237 154.926 290.61 154.926C291.021 154.926 291.371 154.809 291.66 154.576L292.08 155.542ZM300.452 148.556V155.976H299.164V154.8C298.865 155.21 298.487 155.523 298.03 155.738C297.572 155.952 297.068 156.06 296.518 156.06C295.799 156.06 295.155 155.901 294.586 155.584C294.016 155.266 293.568 154.823 293.242 154.254C292.924 153.675 292.766 153.012 292.766 152.266C292.766 151.519 292.924 150.861 293.242 150.292C293.568 149.722 294.016 149.279 294.586 148.962C295.155 148.644 295.799 148.486 296.518 148.486C297.05 148.486 297.54 148.588 297.988 148.794C298.436 148.99 298.809 149.284 299.108 149.676V148.556H300.452ZM296.63 154.884C297.096 154.884 297.521 154.776 297.904 154.562C298.286 154.338 298.585 154.03 298.8 153.638C299.014 153.236 299.122 152.779 299.122 152.266C299.122 151.752 299.014 151.3 298.8 150.908C298.585 150.506 298.286 150.198 297.904 149.984C297.521 149.769 297.096 149.662 296.63 149.662C296.154 149.662 295.724 149.769 295.342 149.984C294.968 150.198 294.67 150.506 294.446 150.908C294.231 151.3 294.124 151.752 294.124 152.266C294.124 152.779 294.231 153.236 294.446 153.638C294.67 154.03 294.968 154.338 295.342 154.562C295.724 154.776 296.154 154.884 296.63 154.884ZM302.995 148.556H304.339V155.976H302.995V148.556ZM303.667 147.128C303.405 147.128 303.186 147.044 303.009 146.876C302.841 146.708 302.757 146.502 302.757 146.26C302.757 146.017 302.841 145.812 303.009 145.644C303.186 145.466 303.405 145.378 303.667 145.378C303.928 145.378 304.143 145.462 304.311 145.63C304.488 145.788 304.577 145.989 304.577 146.232C304.577 146.484 304.488 146.698 304.311 146.876C304.143 147.044 303.928 147.128 303.667 147.128ZM309.159 156.06C308.44 156.06 307.885 155.864 307.493 155.472C307.101 155.07 306.905 154.51 306.905 153.792V145.588H308.249V153.68C308.249 154.081 308.342 154.389 308.529 154.604C308.725 154.818 309.014 154.926 309.397 154.926C309.63 154.926 309.85 154.879 310.055 154.786L310.125 155.892C309.817 156.004 309.495 156.06 309.159 156.06ZM313.531 156.06C312.924 156.06 312.341 155.98 311.781 155.822C311.221 155.654 310.782 155.444 310.465 155.192L311.025 154.128C311.352 154.361 311.748 154.548 312.215 154.688C312.682 154.828 313.153 154.898 313.629 154.898C314.805 154.898 315.393 154.562 315.393 153.89C315.393 153.666 315.314 153.488 315.155 153.358C314.996 153.227 314.796 153.134 314.553 153.078C314.32 153.012 313.984 152.942 313.545 152.868C312.948 152.774 312.458 152.667 312.075 152.546C311.702 152.424 311.38 152.219 311.109 151.93C310.838 151.64 310.703 151.234 310.703 150.712C310.703 150.04 310.983 149.503 311.543 149.102C312.103 148.691 312.854 148.486 313.797 148.486C314.292 148.486 314.786 148.546 315.281 148.668C315.776 148.789 316.182 148.952 316.499 149.158L315.925 150.222C315.318 149.83 314.604 149.634 313.783 149.634C313.214 149.634 312.78 149.727 312.481 149.914C312.182 150.1 312.033 150.348 312.033 150.656C312.033 150.898 312.117 151.09 312.285 151.23C312.453 151.37 312.658 151.472 312.901 151.538C313.153 151.603 313.503 151.678 313.951 151.762C314.548 151.864 315.029 151.976 315.393 152.098C315.766 152.21 316.084 152.406 316.345 152.686C316.606 152.966 316.737 153.358 316.737 153.862C316.737 154.534 316.448 155.07 315.869 155.472C315.3 155.864 314.52 156.06 313.531 156.06ZM48.274 165.556V172.976H46.986V171.8C46.6873 172.21 46.3093 172.523 45.852 172.738C45.3947 172.952 44.8907 173.06 44.34 173.06C43.6213 173.06 42.9773 172.901 42.408 172.584C41.8387 172.266 41.3907 171.823 41.064 171.254C40.7467 170.675 40.588 170.012 40.588 169.266C40.588 168.519 40.7467 167.861 41.064 167.292C41.3907 166.722 41.8387 166.279 42.408 165.962C42.9773 165.644 43.6213 165.486 44.34 165.486C44.872 165.486 45.362 165.588 45.81 165.794C46.258 165.99 46.6313 166.284 46.93 166.676V165.556H48.274ZM44.452 171.884C44.9187 171.884 45.3433 171.776 45.726 171.562C46.1087 171.338 46.4073 171.03 46.622 170.638C46.8367 170.236 46.944 169.779 46.944 169.266C46.944 168.752 46.8367 168.3 46.622 167.908C46.4073 167.506 46.1087 167.198 45.726 166.984C45.3433 166.769 44.9187 166.662 44.452 166.662C43.976 166.662 43.5467 166.769 43.164 166.984C42.7907 167.198 42.492 167.506 42.268 167.908C42.0533 168.3 41.946 168.752 41.946 169.266C41.946 169.779 42.0533 170.236 42.268 170.638C42.492 171.03 42.7907 171.338 43.164 171.562C43.5467 171.776 43.976 171.884 44.452 171.884ZM54.779 165.486C55.7216 165.486 56.4683 165.761 57.019 166.312C57.579 166.853 57.859 167.651 57.859 168.706V172.976H56.515V168.86C56.515 168.141 56.3423 167.6 55.997 167.236C55.6516 166.872 55.157 166.69 54.513 166.69C53.785 166.69 53.211 166.904 52.791 167.334C52.371 167.754 52.161 168.36 52.161 169.154V172.976H50.817V165.556H52.105V166.676C52.3756 166.293 52.7396 165.999 53.197 165.794C53.6636 165.588 54.191 165.486 54.779 165.486ZM67.3873 162.588V172.976H66.0993V171.8C65.8006 172.21 65.4226 172.523 64.9653 172.738C64.5079 172.952 64.0039 173.06 63.4533 173.06C62.7346 173.06 62.0906 172.901 61.5213 172.584C60.9519 172.266 60.5039 171.823 60.1773 171.254C59.8599 170.675 59.7013 170.012 59.7013 169.266C59.7013 168.519 59.8599 167.861 60.1773 167.292C60.5039 166.722 60.9519 166.279 61.5213 165.962C62.0906 165.644 62.7346 165.486 63.4533 165.486C63.9853 165.486 64.4753 165.588 64.9233 165.794C65.3713 165.99 65.7446 166.284 66.0433 166.676V162.588H67.3873ZM63.5653 171.884C64.0319 171.884 64.4566 171.776 64.8393 171.562C65.2219 171.338 65.5206 171.03 65.7353 170.638C65.9499 170.236 66.0573 169.779 66.0573 169.266C66.0573 168.752 65.9499 168.3 65.7353 167.908C65.5206 167.506 65.2219 167.198 64.8393 166.984C64.4566 166.769 64.0319 166.662 63.5653 166.662C63.0893 166.662 62.6599 166.769 62.2773 166.984C61.9039 167.198 61.6053 167.506 61.3813 167.908C61.1666 168.3 61.0593 168.752 61.0593 169.266C61.0593 169.779 61.1666 170.236 61.3813 170.638C61.6053 171.03 61.9039 171.338 62.2773 171.562C62.6599 171.776 63.0893 171.884 63.5653 171.884ZM76.924 173.06C76.168 173.06 75.4913 172.896 74.894 172.57C74.306 172.243 73.844 171.795 73.508 171.226C73.172 170.647 73.004 169.994 73.004 169.266C73.004 168.538 73.172 167.889 73.508 167.32C73.844 166.741 74.306 166.293 74.894 165.976C75.4913 165.649 76.168 165.486 76.924 165.486C77.596 165.486 78.1933 165.621 78.716 165.892C79.248 166.162 79.6587 166.554 79.948 167.068L78.926 167.726C78.6927 167.371 78.4033 167.105 78.058 166.928C77.7127 166.75 77.33 166.662 76.91 166.662C76.4247 166.662 75.986 166.769 75.594 166.984C75.2113 167.198 74.908 167.506 74.684 167.908C74.4693 168.3 74.362 168.752 74.362 169.266C74.362 169.788 74.4693 170.25 74.684 170.652C74.908 171.044 75.2113 171.347 75.594 171.562C75.986 171.776 76.4247 171.884 76.91 171.884C77.33 171.884 77.7127 171.795 78.058 171.618C78.4033 171.44 78.6927 171.174 78.926 170.82L79.948 171.464C79.6587 171.977 79.248 172.374 78.716 172.654C78.1933 172.924 77.596 173.06 76.924 173.06ZM82.9761 166.802C83.2094 166.372 83.5547 166.046 84.0121 165.822C84.4694 165.598 85.0247 165.486 85.6781 165.486V166.788C85.6034 166.778 85.5007 166.774 85.3701 166.774C84.6421 166.774 84.0681 166.993 83.6481 167.432C83.2374 167.861 83.0321 168.477 83.0321 169.28V172.976H81.6881V165.556H82.9761V166.802ZM90.6122 171.884C91.4989 171.884 92.2129 171.585 92.7542 170.988L93.4822 171.856C93.1555 172.248 92.7402 172.546 92.2362 172.752C91.7415 172.957 91.1862 173.06 90.5702 173.06C89.7862 173.06 89.0909 172.901 88.4842 172.584C87.8775 172.257 87.4062 171.804 87.0702 171.226C86.7435 170.647 86.5802 169.994 86.5802 169.266C86.5802 168.547 86.7389 167.898 87.0562 167.32C87.3829 166.741 87.8262 166.293 88.3862 165.976C88.9555 165.649 89.5949 165.486 90.3042 165.486C90.9762 165.486 91.5875 165.64 92.1382 165.948C92.6889 166.246 93.1275 166.671 93.4542 167.222C93.7809 167.772 93.9489 168.407 93.9582 169.126L88.0642 170.274C88.2509 170.787 88.5635 171.184 89.0022 171.464C89.4502 171.744 89.9869 171.884 90.6122 171.884ZM90.3042 166.62C89.8375 166.62 89.4175 166.727 89.0442 166.942C88.6802 167.156 88.3955 167.46 88.1902 167.852C87.9849 168.234 87.8822 168.682 87.8822 169.196V169.336L92.6282 168.44C92.5069 167.898 92.2362 167.46 91.8162 167.124C91.3962 166.788 90.8922 166.62 90.3042 166.62ZM102.838 165.556V172.976H101.55V171.8C101.252 172.21 100.874 172.523 100.416 172.738C99.9591 172.952 99.4551 173.06 98.9045 173.06C98.1858 173.06 97.5418 172.901 96.9725 172.584C96.4031 172.266 95.9551 171.823 95.6285 171.254C95.3111 170.675 95.1525 170.012 95.1525 169.266C95.1525 168.519 95.3111 167.861 95.6285 167.292C95.9551 166.722 96.4031 166.279 96.9725 165.962C97.5418 165.644 98.1858 165.486 98.9045 165.486C99.4365 165.486 99.9265 165.588 100.374 165.794C100.822 165.99 101.196 166.284 101.494 166.676V165.556H102.838ZM99.0165 171.884C99.4831 171.884 99.9078 171.776 100.29 171.562C100.673 171.338 100.972 171.03 101.186 170.638C101.401 170.236 101.508 169.779 101.508 169.266C101.508 168.752 101.401 168.3 101.186 167.908C100.972 167.506 100.673 167.198 100.29 166.984C99.9078 166.769 99.4831 166.662 99.0165 166.662C98.5405 166.662 98.1111 166.769 97.7285 166.984C97.3551 167.198 97.0565 167.506 96.8325 167.908C96.6178 168.3 96.5105 168.752 96.5105 169.266C96.5105 169.779 96.6178 170.236 96.8325 170.638C97.0565 171.03 97.3551 171.338 97.7285 171.562C98.1111 171.776 98.5405 171.884 99.0165 171.884ZM109.287 172.542C109.091 172.71 108.849 172.84 108.559 172.934C108.27 173.018 107.971 173.06 107.663 173.06C106.917 173.06 106.338 172.859 105.927 172.458C105.517 172.056 105.311 171.482 105.311 170.736V163.932H106.655V165.556H108.783V166.662H106.655V170.68C106.655 171.081 106.753 171.389 106.949 171.604C107.155 171.818 107.444 171.926 107.817 171.926C108.228 171.926 108.578 171.809 108.867 171.576L109.287 172.542ZM114.005 171.884C114.891 171.884 115.605 171.585 116.147 170.988L116.875 171.856C116.548 172.248 116.133 172.546 115.629 172.752C115.134 172.957 114.579 173.06 113.963 173.06C113.179 173.06 112.483 172.901 111.877 172.584C111.27 172.257 110.799 171.804 110.463 171.226C110.136 170.647 109.973 169.994 109.973 169.266C109.973 168.547 110.131 167.898 110.449 167.32C110.775 166.741 111.219 166.293 111.779 165.976C112.348 165.649 112.987 165.486 113.697 165.486C114.369 165.486 114.98 165.64 115.531 165.948C116.081 166.246 116.52 166.671 116.847 167.222C117.173 167.772 117.341 168.407 117.351 169.126L111.457 170.274C111.643 170.787 111.956 171.184 112.395 171.464C112.843 171.744 113.379 171.884 114.005 171.884ZM113.697 166.62C113.23 166.62 112.81 166.727 112.437 166.942C112.073 167.156 111.788 167.46 111.583 167.852C111.377 168.234 111.275 168.682 111.275 169.196V169.336L116.021 168.44C115.899 167.898 115.629 167.46 115.209 167.124C114.789 166.788 114.285 166.62 113.697 166.62ZM129.991 165.556V172.976H128.703V171.8C128.404 172.21 128.026 172.523 127.569 172.738C127.111 172.952 126.607 173.06 126.057 173.06C125.338 173.06 124.694 172.901 124.125 172.584C123.555 172.266 123.107 171.823 122.781 171.254C122.463 170.675 122.305 170.012 122.305 169.266C122.305 168.519 122.463 167.861 122.781 167.292C123.107 166.722 123.555 166.279 124.125 165.962C124.694 165.644 125.338 165.486 126.057 165.486C126.589 165.486 127.079 165.588 127.527 165.794C127.975 165.99 128.348 166.284 128.647 166.676V165.556H129.991ZM126.169 171.884C126.635 171.884 127.06 171.776 127.443 171.562C127.825 171.338 128.124 171.03 128.339 170.638C128.553 170.236 128.661 169.779 128.661 169.266C128.661 168.752 128.553 168.3 128.339 167.908C128.124 167.506 127.825 167.198 127.443 166.984C127.06 166.769 126.635 166.662 126.169 166.662C125.693 166.662 125.263 166.769 124.881 166.984C124.507 167.198 124.209 167.506 123.985 167.908C123.77 168.3 123.663 168.752 123.663 169.266C123.663 169.779 123.77 170.236 123.985 170.638C124.209 171.03 124.507 171.338 124.881 171.562C125.263 171.776 125.693 171.884 126.169 171.884ZM138.422 173.06C137.815 173.06 137.232 172.98 136.672 172.822C136.112 172.654 135.673 172.444 135.356 172.192L135.916 171.128C136.242 171.361 136.639 171.548 137.106 171.688C137.572 171.828 138.044 171.898 138.52 171.898C139.696 171.898 140.284 171.562 140.284 170.89C140.284 170.666 140.204 170.488 140.046 170.358C139.887 170.227 139.686 170.134 139.444 170.078C139.21 170.012 138.874 169.942 138.436 169.868C137.838 169.774 137.348 169.667 136.966 169.546C136.592 169.424 136.27 169.219 136 168.93C135.729 168.64 135.594 168.234 135.594 167.712C135.594 167.04 135.874 166.503 136.434 166.102C136.994 165.691 137.745 165.486 138.688 165.486C139.182 165.486 139.677 165.546 140.172 165.668C140.666 165.789 141.072 165.952 141.39 166.158L140.816 167.222C140.209 166.83 139.495 166.634 138.674 166.634C138.104 166.634 137.67 166.727 137.372 166.914C137.073 167.1 136.924 167.348 136.924 167.656C136.924 167.898 137.008 168.09 137.176 168.23C137.344 168.37 137.549 168.472 137.792 168.538C138.044 168.603 138.394 168.678 138.842 168.762C139.439 168.864 139.92 168.976 140.284 169.098C140.657 169.21 140.974 169.406 141.236 169.686C141.497 169.966 141.628 170.358 141.628 170.862C141.628 171.534 141.338 172.07 140.76 172.472C140.19 172.864 139.411 173.06 138.422 173.06ZM146.653 171.884C147.54 171.884 148.254 171.585 148.795 170.988L149.523 171.856C149.197 172.248 148.781 172.546 148.277 172.752C147.783 172.957 147.227 173.06 146.611 173.06C145.827 173.06 145.132 172.901 144.525 172.584C143.919 172.257 143.447 171.804 143.111 171.226C142.785 170.647 142.621 169.994 142.621 169.266C142.621 168.547 142.78 167.898 143.097 167.32C143.424 166.741 143.867 166.293 144.427 165.976C144.997 165.649 145.636 165.486 146.345 165.486C147.017 165.486 147.629 165.64 148.179 165.948C148.73 166.246 149.169 166.671 149.495 167.222C149.822 167.772 149.99 168.407 149.999 169.126L144.105 170.274C144.292 170.787 144.605 171.184 145.043 171.464C145.491 171.744 146.028 171.884 146.653 171.884ZM146.345 166.62C145.879 166.62 145.459 166.727 145.085 166.942C144.721 167.156 144.437 167.46 144.231 167.852C144.026 168.234 143.923 168.682 143.923 169.196V169.336L148.669 168.44C148.548 167.898 148.277 167.46 147.857 167.124C147.437 166.788 146.933 166.62 146.345 166.62ZM155.113 173.06C154.357 173.06 153.681 172.896 153.083 172.57C152.495 172.243 152.033 171.795 151.697 171.226C151.361 170.647 151.193 169.994 151.193 169.266C151.193 168.538 151.361 167.889 151.697 167.32C152.033 166.741 152.495 166.293 153.083 165.976C153.681 165.649 154.357 165.486 155.113 165.486C155.785 165.486 156.383 165.621 156.905 165.892C157.437 166.162 157.848 166.554 158.137 167.068L157.115 167.726C156.882 167.371 156.593 167.105 156.247 166.928C155.902 166.75 155.519 166.662 155.099 166.662C154.614 166.662 154.175 166.769 153.783 166.984C153.401 167.198 153.097 167.506 152.873 167.908C152.659 168.3 152.551 168.752 152.551 169.266C152.551 169.788 152.659 170.25 152.873 170.652C153.097 171.044 153.401 171.347 153.783 171.562C154.175 171.776 154.614 171.884 155.099 171.884C155.519 171.884 155.902 171.795 156.247 171.618C156.593 171.44 156.882 171.174 157.115 170.82L158.137 171.464C157.848 171.977 157.437 172.374 156.905 172.654C156.383 172.924 155.785 173.06 155.113 173.06ZM166.794 165.556V172.976H165.52V171.856C165.249 172.238 164.89 172.537 164.442 172.752C164.003 172.957 163.522 173.06 163 173.06C162.01 173.06 161.231 172.789 160.662 172.248C160.092 171.697 159.808 170.89 159.808 169.826V165.556H161.152V169.672C161.152 170.39 161.324 170.936 161.67 171.31C162.015 171.674 162.51 171.856 163.154 171.856C163.863 171.856 164.423 171.641 164.834 171.212C165.244 170.782 165.45 170.176 165.45 169.392V165.556H166.794ZM170.64 166.802C170.873 166.372 171.219 166.046 171.676 165.822C172.133 165.598 172.689 165.486 173.342 165.486V166.788C173.267 166.778 173.165 166.774 173.034 166.774C172.306 166.774 171.732 166.993 171.312 167.432C170.901 167.861 170.696 168.477 170.696 169.28V172.976H169.352V165.556H170.64V166.802ZM178.276 171.884C179.163 171.884 179.877 171.585 180.418 170.988L181.146 171.856C180.82 172.248 180.404 172.546 179.9 172.752C179.406 172.957 178.85 173.06 178.234 173.06C177.45 173.06 176.755 172.901 176.148 172.584C175.542 172.257 175.07 171.804 174.734 171.226C174.408 170.647 174.244 169.994 174.244 169.266C174.244 168.547 174.403 167.898 174.72 167.32C175.047 166.741 175.49 166.293 176.05 165.976C176.62 165.649 177.259 165.486 177.968 165.486C178.64 165.486 179.252 165.64 179.802 165.948C180.353 166.246 180.792 166.671 181.118 167.222C181.445 167.772 181.613 168.407 181.622 169.126L175.728 170.274C175.915 170.787 176.228 171.184 176.666 171.464C177.114 171.744 177.651 171.884 178.276 171.884ZM177.968 166.62C177.502 166.62 177.082 166.727 176.708 166.942C176.344 167.156 176.06 167.46 175.854 167.852C175.649 168.234 175.546 168.682 175.546 169.196V169.336L180.292 168.44C180.171 167.898 179.9 167.46 179.48 167.124C179.06 166.788 178.556 166.62 177.968 166.62ZM189.516 173.06C188.798 173.06 188.242 172.864 187.85 172.472C187.458 172.07 187.262 171.51 187.262 170.792V162.588H188.606V170.68C188.606 171.081 188.7 171.389 188.886 171.604C189.082 171.818 189.372 171.926 189.754 171.926C189.988 171.926 190.207 171.879 190.412 171.786L190.482 172.892C190.174 173.004 189.852 173.06 189.516 173.06ZM194.802 173.06C194.064 173.06 193.402 172.896 192.814 172.57C192.226 172.243 191.764 171.795 191.428 171.226C191.101 170.647 190.938 169.994 190.938 169.266C190.938 168.538 191.101 167.889 191.428 167.32C191.764 166.741 192.226 166.293 192.814 165.976C193.402 165.649 194.064 165.486 194.802 165.486C195.539 165.486 196.197 165.649 196.776 165.976C197.364 166.293 197.821 166.741 198.148 167.32C198.484 167.889 198.652 168.538 198.652 169.266C198.652 169.994 198.484 170.647 198.148 171.226C197.821 171.795 197.364 172.243 196.776 172.57C196.197 172.896 195.539 173.06 194.802 173.06ZM194.802 171.884C195.278 171.884 195.702 171.776 196.076 171.562C196.458 171.338 196.757 171.03 196.972 170.638C197.186 170.236 197.294 169.779 197.294 169.266C197.294 168.752 197.186 168.3 196.972 167.908C196.757 167.506 196.458 167.198 196.076 166.984C195.702 166.769 195.278 166.662 194.802 166.662C194.326 166.662 193.896 166.769 193.514 166.984C193.14 167.198 192.842 167.506 192.618 167.908C192.403 168.3 192.296 168.752 192.296 169.266C192.296 169.779 192.403 170.236 192.618 170.638C192.842 171.03 193.14 171.338 193.514 171.562C193.896 171.776 194.326 171.884 194.802 171.884ZM207.608 165.556V171.968C207.608 173.265 207.286 174.222 206.642 174.838C205.998 175.463 205.037 175.776 203.758 175.776C203.058 175.776 202.391 175.678 201.756 175.482C201.122 175.295 200.608 175.024 200.216 174.67L200.86 173.634C201.206 173.932 201.63 174.166 202.134 174.334C202.648 174.511 203.175 174.6 203.716 174.6C204.584 174.6 205.224 174.394 205.634 173.984C206.054 173.573 206.264 172.948 206.264 172.108V171.52C205.947 171.902 205.555 172.192 205.088 172.388C204.631 172.574 204.132 172.668 203.59 172.668C202.881 172.668 202.237 172.518 201.658 172.22C201.089 171.912 200.641 171.487 200.314 170.946C199.988 170.395 199.824 169.77 199.824 169.07C199.824 168.37 199.988 167.749 200.314 167.208C200.641 166.657 201.089 166.232 201.658 165.934C202.237 165.635 202.881 165.486 203.59 165.486C204.15 165.486 204.668 165.588 205.144 165.794C205.63 165.999 206.026 166.302 206.334 166.704V165.556H207.608ZM203.744 171.492C204.23 171.492 204.664 171.389 205.046 171.184C205.438 170.978 205.742 170.694 205.956 170.33C206.18 169.956 206.292 169.536 206.292 169.07C206.292 168.351 206.054 167.772 205.578 167.334C205.102 166.886 204.491 166.662 203.744 166.662C202.988 166.662 202.372 166.886 201.896 167.334C201.42 167.772 201.182 168.351 201.182 169.07C201.182 169.536 201.29 169.956 201.504 170.33C201.728 170.694 202.032 170.978 202.414 171.184C202.806 171.389 203.25 171.492 203.744 171.492ZM210.176 165.556H211.52V172.976H210.176V165.556ZM210.848 164.128C210.587 164.128 210.368 164.044 210.19 163.876C210.022 163.708 209.938 163.502 209.938 163.26C209.938 163.017 210.022 162.812 210.19 162.644C210.368 162.466 210.587 162.378 210.848 162.378C211.11 162.378 211.324 162.462 211.492 162.63C211.67 162.788 211.758 162.989 211.758 163.232C211.758 163.484 211.67 163.698 211.492 163.876C211.324 164.044 211.11 164.128 210.848 164.128ZM218.049 165.486C218.991 165.486 219.738 165.761 220.289 166.312C220.849 166.853 221.129 167.651 221.129 168.706V172.976H219.785V168.86C219.785 168.141 219.612 167.6 219.267 167.236C218.921 166.872 218.427 166.69 217.783 166.69C217.055 166.69 216.481 166.904 216.061 167.334C215.641 167.754 215.431 168.36 215.431 169.154V172.976H214.087V165.556H215.375V166.676C215.645 166.293 216.009 165.999 216.467 165.794C216.933 165.588 217.461 165.486 218.049 165.486ZM223.938 173.06C223.676 173.06 223.452 172.971 223.266 172.794C223.079 172.607 222.986 172.374 222.986 172.094C222.986 171.823 223.079 171.599 223.266 171.422C223.452 171.235 223.676 171.142 223.938 171.142C224.199 171.142 224.418 171.23 224.596 171.408C224.773 171.585 224.862 171.814 224.862 172.094C224.862 172.374 224.768 172.607 224.582 172.794C224.404 172.971 224.19 173.06 223.938 173.06Z" fill="#021516"/>
<defs>
<radialGradient id="paint0_radial_1067_3247" cx="0" cy="0" r="1" gradientUnits="userSpaceOnUse" gradientTransform="translate(287.483 53.3564) rotate(152.811) scale(323.195 294.41)">
<stop stop-color="#90C626"/>
<stop offset="1" stop-color="#20934A"/>
</radialGradient>
</defs>
</svg>
