<svg width="701" height="111" viewBox="0 0 701 111" fill="none" xmlns="http://www.w3.org/2000/svg">
<path d="M59.3227 110.4C48.2227 110.4 38.2227 108.1 29.3227 103.5C20.4227 98.8 13.4227 92.3 8.32266 84C3.32266 75.6 0.822656 66.1 0.822656 55.5C0.822656 44.9 3.32266 35.45 8.32266 27.15C13.4227 18.75 20.4227 12.25 29.3227 7.65C38.2227 2.95 48.2227 0.599997 59.3227 0.599997C69.5227 0.599997 78.6227 2.4 86.6227 6C94.6227 9.59999 101.223 14.8 106.423 21.6L84.0727 41.55C77.5727 33.35 69.9227 29.25 61.1227 29.25C53.7227 29.25 47.7727 31.65 43.2727 36.45C38.7727 41.15 36.5227 47.5 36.5227 55.5C36.5227 63.5 38.7727 69.9 43.2727 74.7C47.7727 79.4 53.7227 81.75 61.1227 81.75C69.9227 81.75 77.5727 77.65 84.0727 69.45L106.423 89.4C101.223 96.2 94.6227 101.4 86.6227 105C78.6227 108.6 69.5227 110.4 59.3227 110.4ZM116.644 2.99999H152.044V80.55H199.444V108H116.644V2.99999ZM257.072 29.7V81.3H272.822V108H205.922V81.3H221.672V29.7H205.922V2.99999H272.822V29.7H257.072ZM381.366 101.1C375.766 104 369.016 106.3 361.116 108C353.216 109.6 345.166 110.4 336.966 110.4C325.166 110.4 315.116 109.05 306.816 106.35C298.616 103.55 292.416 99.7 288.216 94.8C284.016 89.8 281.916 84.1 281.916 77.7C281.916 72.4 283.316 67.65 286.116 63.45C289.016 59.25 293.116 56 298.416 53.7C294.416 51.5 291.366 48.65 289.266 45.15C287.266 41.55 286.266 37.6 286.266 33.3C286.266 27.4 288.166 22 291.966 17.1C295.866 12.1 301.766 8.1 309.666 5.09999C317.666 2.1 327.466 0.599997 339.066 0.599997C346.166 0.599997 353.116 1.25 359.916 2.55C366.816 3.75 372.966 5.39999 378.366 7.5L368.766 33.3C359.366 29.5 349.916 27.6 340.416 27.6C334.216 27.6 329.566 28.3 326.466 29.7C323.466 31.1 321.966 33.05 321.966 35.55C321.966 37.65 322.716 39.25 324.216 40.35C325.716 41.45 328.216 42 331.716 42H362.466V68.1H329.316C325.416 68.1 322.466 68.75 320.466 70.05C318.566 71.25 317.616 73 317.616 75.3C317.616 80.7 324.516 83.4 338.316 83.4C343.616 83.4 349.216 82.7 355.116 81.3C361.116 79.8 366.416 77.85 371.016 75.45L381.366 101.1ZM454.613 0.599997C467.013 0.599997 476.613 4.65 483.413 12.75C490.313 20.85 493.763 32.35 493.763 47.25V108H458.363V48.3C458.363 41.9 456.963 37.15 454.163 34.05C451.463 30.85 447.663 29.25 442.763 29.25C437.863 29.25 433.863 30.95 430.763 34.35C427.763 37.75 426.263 42.8 426.263 49.5V108H390.863V2.99999H425.213V14.25C432.313 5.15 442.113 0.599997 454.613 0.599997ZM595.004 39.75C586.904 35.25 578.704 32.15 570.404 30.45V108H535.004V30.45C526.704 32.15 518.504 35.25 510.404 39.75L498.704 14.55C506.204 10.05 514.604 6.59999 523.904 4.2C533.204 1.8 542.804 0.599997 552.704 0.599997C562.604 0.599997 572.204 1.8 581.504 4.2C590.804 6.59999 599.204 10.05 606.704 14.55L595.004 39.75ZM651.643 110.4C642.943 110.4 634.443 109.45 626.143 107.55C617.943 105.55 611.193 102.9 605.893 99.6L617.293 73.8C622.293 76.7 627.893 79.05 634.093 80.85C640.293 82.55 646.243 83.4 651.943 83.4C656.843 83.4 660.343 82.95 662.443 82.05C664.543 81.05 665.593 79.6 665.593 77.7C665.593 75.5 664.193 73.85 661.393 72.75C658.693 71.65 654.193 70.45 647.893 69.15C639.793 67.45 633.043 65.65 627.643 63.75C622.243 61.75 617.543 58.55 613.543 54.15C609.543 49.65 607.543 43.6 607.543 36C607.543 29.4 609.393 23.4 613.093 18C616.793 12.6 622.293 8.34999 629.593 5.24999C636.993 2.14999 645.943 0.599997 656.443 0.599997C663.643 0.599997 670.693 1.4 677.593 2.99999C684.593 4.49999 690.743 6.74999 696.043 9.75L685.393 35.4C675.093 30.2 665.343 27.6 656.143 27.6C647.043 27.6 642.493 29.8 642.493 34.2C642.493 36.3 643.843 37.9 646.543 39C649.243 40 653.693 41.1 659.893 42.3C667.893 43.8 674.643 45.55 680.143 47.55C685.643 49.45 690.393 52.6 694.393 57C698.493 61.4 700.543 67.4 700.543 75C700.543 81.6 698.693 87.6 694.993 93C691.293 98.3 685.743 102.55 678.343 105.75C671.043 108.85 662.143 110.4 651.643 110.4Z" fill="#20934A" fill-opacity="0.05"/>
</svg>
