<svg width="1047" height="111" viewBox="0 0 1047 111" fill="none" xmlns="http://www.w3.org/2000/svg">
<path d="M59.4711 110.4C48.3711 110.4 38.3711 108.1 29.4711 103.5C20.5711 98.8 13.5711 92.3 8.47109 84C3.47109 75.6 0.971094 66.1 0.971094 55.5C0.971094 44.9 3.47109 35.45 8.47109 27.15C13.5711 18.75 20.5711 12.25 29.4711 7.65C38.3711 2.95 48.3711 0.599997 59.4711 0.599997C69.6711 0.599997 78.7711 2.4 86.7711 6C94.7711 9.59999 101.371 14.8 106.571 21.6L84.2211 41.55C77.7211 33.35 70.0711 29.25 61.2711 29.25C53.8711 29.25 47.9211 31.65 43.4211 36.45C38.9211 41.15 36.6711 47.5 36.6711 55.5C36.6711 63.5 38.9211 69.9 43.4211 74.7C47.9211 79.4 53.8711 81.75 61.2711 81.75C70.0711 81.75 77.7211 77.65 84.2211 69.45L106.571 89.4C101.371 96.2 94.7711 101.4 86.7711 105C78.7711 108.6 69.6711 110.4 59.4711 110.4ZM169.645 110.4C158.345 110.4 148.195 108.05 139.195 103.35C130.195 98.65 123.145 92.15 118.045 83.85C112.945 75.45 110.395 66 110.395 55.5C110.395 45 112.945 35.6 118.045 27.3C123.145 18.9 130.195 12.35 139.195 7.65C148.195 2.95 158.345 0.599997 169.645 0.599997C180.945 0.599997 191.095 2.95 200.095 7.65C209.095 12.35 216.145 18.9 221.245 27.3C226.345 35.6 228.895 45 228.895 55.5C228.895 66 226.345 75.45 221.245 83.85C216.145 92.15 209.095 98.65 200.095 103.35C191.095 108.05 180.945 110.4 169.645 110.4ZM169.645 81.75C174.045 81.75 177.995 80.7 181.495 78.6C185.095 76.4 187.945 73.35 190.045 69.45C192.145 65.45 193.195 60.8 193.195 55.5C193.195 50.2 192.145 45.6 190.045 41.7C187.945 37.7 185.095 34.65 181.495 32.55C177.995 30.35 174.045 29.25 169.645 29.25C165.245 29.25 161.245 30.35 157.645 32.55C154.145 34.65 151.345 37.7 149.245 41.7C147.145 45.6 146.095 50.2 146.095 55.5C146.095 60.8 147.145 65.45 149.245 69.45C151.345 73.35 154.145 76.4 157.645 78.6C161.245 80.7 165.245 81.75 169.645 81.75ZM305.493 0.599997C317.893 0.599997 327.493 4.65 334.293 12.75C341.193 20.85 344.643 32.35 344.643 47.25V108H309.243V48.3C309.243 41.9 307.843 37.15 305.043 34.05C302.343 30.85 298.543 29.25 293.643 29.25C288.743 29.25 284.743 30.95 281.643 34.35C278.643 37.75 277.143 42.8 277.143 49.5V108H241.743V2.99999H276.093V14.25C283.193 5.15 292.993 0.599997 305.493 0.599997ZM445.885 39.75C437.785 35.25 429.585 32.15 421.285 30.45V108H385.885V30.45C377.585 32.15 369.385 35.25 361.285 39.75L349.585 14.55C357.085 10.05 365.485 6.59999 374.785 4.2C384.085 1.8 393.685 0.599997 403.585 0.599997C413.485 0.599997 423.085 1.8 432.385 4.2C441.685 6.59999 450.085 10.05 457.585 14.55L445.885 39.75ZM512.759 0.599997C522.959 0.599997 531.959 2.65 539.759 6.75C547.559 10.75 553.609 16.65 557.909 24.45C562.309 32.15 564.509 41.35 564.509 52.05V108H529.109V86.85H495.809V108H461.009V52.05C461.009 41.35 463.159 32.15 467.459 24.45C471.859 16.65 477.959 10.75 485.759 6.75C493.559 2.65 502.559 0.599997 512.759 0.599997ZM529.109 60.15V49.05C529.109 42.55 527.559 37.65 524.459 34.35C521.459 30.95 517.459 29.25 512.459 29.25C507.459 29.25 503.409 30.95 500.309 34.35C497.309 37.65 495.809 42.55 495.809 49.05V60.15H529.109ZM635.008 110.4C623.908 110.4 613.908 108.1 605.008 103.5C596.108 98.8 589.108 92.3 584.008 84C579.008 75.6 576.508 66.1 576.508 55.5C576.508 44.9 579.008 35.45 584.008 27.15C589.108 18.75 596.108 12.25 605.008 7.65C613.908 2.95 623.908 0.599997 635.008 0.599997C645.208 0.599997 654.308 2.4 662.308 6C670.308 9.59999 676.908 14.8 682.108 21.6L659.758 41.55C653.258 33.35 645.608 29.25 636.808 29.25C629.408 29.25 623.458 31.65 618.958 36.45C614.458 41.15 612.208 47.5 612.208 55.5C612.208 63.5 614.458 69.9 618.958 74.7C623.458 79.4 629.408 81.75 636.808 81.75C645.608 81.75 653.258 77.65 659.758 69.45L682.108 89.4C676.908 96.2 670.308 101.4 662.308 105C654.308 108.6 645.208 110.4 635.008 110.4ZM777.379 39.75C769.279 35.25 761.079 32.15 752.779 30.45V108H717.379V30.45C709.079 32.15 700.879 35.25 692.779 39.75L681.079 14.55C688.579 10.05 696.979 6.59999 706.279 4.2C715.579 1.8 725.179 0.599997 735.079 0.599997C744.979 0.599997 754.579 1.8 763.879 4.2C773.179 6.59999 781.579 10.05 789.079 14.55L777.379 39.75ZM941.239 2.99999V108H906.889V96.75C899.789 105.85 890.089 110.4 877.789 110.4C865.489 110.4 855.939 106.35 849.139 98.25C842.339 90.15 838.939 78.65 838.939 63.75V2.99999H874.339V62.7C874.339 69.1 875.689 73.9 878.389 77.1C881.089 80.2 884.839 81.75 889.639 81.75C894.339 81.75 898.189 80.05 901.189 76.65C904.289 73.15 905.839 68.1 905.839 61.5V2.99999H941.239ZM997.495 110.4C988.795 110.4 980.295 109.45 971.995 107.55C963.795 105.55 957.045 102.9 951.745 99.6L963.145 73.8C968.145 76.7 973.745 79.05 979.945 80.85C986.145 82.55 992.095 83.4 997.795 83.4C1002.69 83.4 1006.19 82.95 1008.29 82.05C1010.39 81.05 1011.44 79.6 1011.44 77.7C1011.44 75.5 1010.04 73.85 1007.24 72.75C1004.54 71.65 1000.04 70.45 993.745 69.15C985.645 67.45 978.895 65.65 973.495 63.75C968.095 61.75 963.395 58.55 959.395 54.15C955.395 49.65 953.395 43.6 953.395 36C953.395 29.4 955.245 23.4 958.945 18C962.645 12.6 968.145 8.34999 975.445 5.24999C982.845 2.14999 991.795 0.599997 1002.29 0.599997C1009.49 0.599997 1016.54 1.4 1023.44 2.99999C1030.44 4.49999 1036.59 6.74999 1041.89 9.75L1031.24 35.4C1020.94 30.2 1011.19 27.6 1001.99 27.6C992.895 27.6 988.345 29.8 988.345 34.2C988.345 36.3 989.695 37.9 992.395 39C995.095 40 999.545 41.1 1005.74 42.3C1013.74 43.8 1020.49 45.55 1025.99 47.55C1031.49 49.45 1036.24 52.6 1040.24 57C1044.34 61.4 1046.39 67.4 1046.39 75C1046.39 81.6 1044.54 87.6 1040.84 93C1037.14 98.3 1031.59 102.55 1024.19 105.75C1016.89 108.85 1007.99 110.4 997.495 110.4Z" fill="#20934A" fill-opacity="0.05"/>
</svg>
