<svg width="71" height="21" viewBox="0 0 71 21" fill="none" xmlns="http://www.w3.org/2000/svg">
<path d="M18.125 0.102783C19.1605 0.102783 20 0.942236 20 1.97778V13.2278C20 14.2633 19.1605 15.1028 18.125 15.1028H6.875C5.83945 15.1028 5 14.2633 5 13.2278V1.97778C5 0.942236 5.83945 0.102783 6.875 0.102783H18.125ZM6.875 16.3528C5.15188 16.3528 3.75 14.9509 3.75 13.2278V5.10278H1.875C0.839453 5.10278 0 5.94224 0 6.97778V18.2278C0 19.2633 0.839453 20.1028 1.875 20.1028H13.125C14.1605 20.1028 15 19.2633 15 18.2278V16.3528H6.875Z" fill="black"/>
<path d="M30.8915 15.7708C29.8928 15.7708 28.9875 15.5561 28.1755 15.1268C27.3728 14.6881 26.7381 14.0861 26.2715 13.3208C25.8141 12.5461 25.5855 11.6734 25.5855 10.7028C25.5855 9.73212 25.8141 8.86412 26.2715 8.09878C26.7381 7.32412 27.3728 6.72212 28.1755 6.29278C28.9875 5.85412 29.8975 5.63478 30.9055 5.63478C31.7548 5.63478 32.5201 5.78412 33.2015 6.08278C33.8921 6.38145 34.4708 6.81078 34.9375 7.37078L33.4815 8.71478C32.8188 7.94945 31.9975 7.56678 31.0175 7.56678C30.4108 7.56678 29.8695 7.70212 29.3935 7.97278C28.9175 8.23412 28.5441 8.60278 28.2735 9.07878C28.0121 9.55478 27.8815 10.0961 27.8815 10.7028C27.8815 11.3094 28.0121 11.8508 28.2735 12.3268C28.5441 12.8028 28.9175 13.1761 29.3935 13.4468C29.8695 13.7081 30.4108 13.8388 31.0175 13.8388C31.9975 13.8388 32.8188 13.4514 33.4815 12.6768L34.9375 14.0208C34.4708 14.5901 33.8921 15.0241 33.2015 15.3228C32.5108 15.6214 31.7408 15.7708 30.8915 15.7708ZM41.71 15.7708C40.6926 15.7708 39.7733 15.5514 38.952 15.1128C38.14 14.6741 37.5006 14.0721 37.034 13.3068C36.5766 12.5321 36.348 11.6641 36.348 10.7028C36.348 9.74145 36.5766 8.87812 37.034 8.11278C37.5006 7.33812 38.14 6.73145 38.952 6.29278C39.7733 5.85412 40.6926 5.63478 41.71 5.63478C42.7273 5.63478 43.642 5.85412 44.454 6.29278C45.266 6.73145 45.9053 7.33812 46.372 8.11278C46.8386 8.87812 47.072 9.74145 47.072 10.7028C47.072 11.6641 46.8386 12.5321 46.372 13.3068C45.9053 14.0721 45.266 14.6741 44.454 15.1128C43.642 15.5514 42.7273 15.7708 41.71 15.7708ZM41.71 13.8388C42.2886 13.8388 42.8113 13.7081 43.278 13.4468C43.7446 13.1761 44.1086 12.8028 44.37 12.3268C44.6406 11.8508 44.776 11.3094 44.776 10.7028C44.776 10.0961 44.6406 9.55478 44.37 9.07878C44.1086 8.60278 43.7446 8.23412 43.278 7.97278C42.8113 7.70212 42.2886 7.56678 41.71 7.56678C41.1313 7.56678 40.6086 7.70212 40.142 7.97278C39.6753 8.23412 39.3066 8.60278 39.036 9.07878C38.7746 9.55478 38.644 10.0961 38.644 10.7028C38.644 11.3094 38.7746 11.8508 39.036 12.3268C39.3066 12.8028 39.6753 13.1761 40.142 13.4468C40.6086 13.7081 41.1313 13.8388 41.71 13.8388ZM53.7185 5.80278C54.5865 5.80278 55.3378 5.94745 55.9725 6.23678C56.6165 6.52612 57.1111 6.93678 57.4565 7.46878C57.8018 8.00078 57.9745 8.63078 57.9745 9.35878C57.9745 10.0774 57.8018 10.7074 57.4565 11.2488C57.1111 11.7808 56.6165 12.1914 55.9725 12.4808C55.3378 12.7608 54.5865 12.9008 53.7185 12.9008H51.7445V15.6028H49.4765V5.80278H53.7185ZM53.5925 11.0528C54.2738 11.0528 54.7918 10.9081 55.1465 10.6188C55.5011 10.3201 55.6785 9.90012 55.6785 9.35878C55.6785 8.80812 55.5011 8.38812 55.1465 8.09878C54.7918 7.80012 54.2738 7.65078 53.5925 7.65078H51.7445V11.0528H53.5925ZM69.1804 5.80278V12.5368C69.1804 14.0114 68.7697 15.1408 67.9484 15.9248C67.127 16.7181 65.993 17.1148 64.5464 17.1148C63.7157 17.1148 62.955 16.9981 62.2644 16.7648C61.5737 16.5408 60.9857 16.2188 60.5004 15.7988L61.3824 14.1188C62.269 14.8374 63.305 15.1968 64.4904 15.1968C65.3117 15.1968 65.9184 14.9914 66.3104 14.5808C66.7117 14.1608 66.9124 13.5168 66.9124 12.6488V12.0468C66.259 12.8494 65.335 13.2508 64.1404 13.2508C62.899 13.2508 61.9424 12.9008 61.2704 12.2008C60.6077 11.4914 60.2764 10.4741 60.2764 9.14878V5.80278H62.5444V9.00878C62.5444 9.77412 62.7264 10.3528 63.0904 10.7448C63.4544 11.1368 63.9677 11.3328 64.6304 11.3328C65.3304 11.3328 65.8857 11.1274 66.2964 10.7168C66.707 10.3061 66.9124 9.68545 66.9124 8.85478V5.80278H69.1804Z" fill="#012426"/>
</svg>
