<svg width="12" height="13" viewBox="0 0 12 13" fill="none" xmlns="http://www.w3.org/2000/svg">
<path d="M3.32932 11.8981H10.5736C10.6867 11.8981 10.7951 11.8531 10.8751 11.7732C10.9551 11.6932 11 11.5847 11 11.4716V4.2274C11 3.99123 10.809 3.80095 10.5736 3.80095H3.32932C3.21622 3.80095 3.10775 3.84588 3.02778 3.92585C2.94781 4.00583 2.90288 4.11429 2.90288 4.2274V11.4716C2.90288 11.5847 2.94781 11.6932 3.02778 11.7732C3.10775 11.8531 3.21622 11.8981 3.32932 11.8981V11.8981ZM3.7551 4.65317H10.1478V11.0458H3.7551V4.65317ZM1.10329 3.12619V2.00136H2.22812V1.10191H0.653899C0.534534 1.10191 0.420059 1.14932 0.335656 1.23373C0.251252 1.31813 0.203835 1.43261 0.203835 1.55197V3.12619H1.10329ZM7.4015 2.00136V3.12619H8.30096V1.55197C8.30096 1.30366 8.09921 1.10191 7.85089 1.10191H2.22812V2.00136H7.4015ZM0.653899 9.19903H2.22812V8.29957H1.10329V3.12619H0.203835V8.74896C0.203835 8.86833 0.251252 8.98281 0.335656 9.06721C0.420059 9.15161 0.534534 9.19903 0.653899 9.19903Z" fill="black" stroke="black" stroke-width="0.3"/>
</svg>
