<svg width="380" height="149" viewBox="0 0 380 149" fill="none" xmlns="http://www.w3.org/2000/svg">
<rect x="0.5" y="0.84906" width="379" height="147.302" rx="19.5" fill="#042325"/>
<rect x="0.5" y="0.84906" width="379" height="147.302" rx="19.5" stroke="#0D5357"/>
<path fill-rule="evenodd" clip-rule="evenodd" d="M66.8795 114.399C92.9311 114.399 114.05 93.2802 114.05 67.2286C114.05 41.1771 92.9311 20.0582 66.8795 20.0582C49.3676 20.0582 34.0845 29.601 25.9467 43.7701L23.8614 47.8486C23.1088 49.5165 22.4504 51.2359 21.8929 53.0003C21.6487 53.7823 21.0953 55.6644 20.8352 56.9365C20.098 60.2494 19.7091 63.6936 19.7091 67.2286C19.7091 71.8564 20.3755 76.3285 21.6176 80.5542C21.9264 81.6679 22.6462 83.6424 22.9675 84.4904C23.6914 86.3307 24.5277 88.1144 25.4679 89.8332L27.8123 93.6718C36.2952 106.18 50.6275 114.399 66.8795 114.399ZM66.8796 111.358C91.2178 111.358 110.948 91.6277 110.948 67.2895C110.948 42.9512 91.2178 23.2211 66.8796 23.2211C42.5413 23.2211 22.8112 42.9512 22.8112 67.2895C22.8112 91.6277 42.5413 111.358 66.8796 111.358Z" fill="url(#paint0_linear_1051_1520)"/>
<ellipse cx="67.5183" cy="68.0652" rx="35.5831" ry="35.0357" fill="#38ED7A" fill-opacity="0.1"/>
<path d="M86.6782 50.7264L68.6087 44.2062C68.3391 44.1089 68.0612 44.0602 67.7786 44.0602C67.4947 44.0602 67.213 44.1094 66.942 44.2076L48.9373 50.7279C47.9642 51.0808 47.2814 52.0054 47.2814 53.0406V68.4893C47.2814 71.9384 48.3931 75.3879 50.5147 78.7418C52.1409 81.3124 54.4043 83.8333 57.2068 86.235C61.8927 90.2504 66.5421 92.5666 66.7375 92.6632C67.0813 92.8333 67.4595 92.9186 67.8333 92.9186C68.2015 92.9186 68.5721 92.8359 68.912 92.6706C69.1073 92.5755 73.7547 90.2953 78.445 86.2958C81.2503 83.9038 83.4797 81.3829 85.1071 78.8033C87.2278 75.4422 88.2849 71.9721 88.2849 68.4893V53.0406C88.285 52.0037 87.6536 51.078 86.6782 50.7264ZM51.2178 68.4778V54.88C51.2178 54.3624 51.535 53.9001 52.0216 53.7236L67.3261 48.1558C67.4626 48.1064 67.6192 48.07 67.7832 48.07V68.4895H84.4653C84.4663 68.4895 84.4674 68.5116 84.4674 68.5257C84.4641 72.9752 82.2231 77.3851 77.8073 81.6788C74.3589 85.0321 70.4411 87.4252 68.4258 88.5541C68.239 88.659 67.9474 88.7083 67.7834 88.7083C67.7834 88.3257 67.7834 68.7015 67.7834 68.4831L51.2178 68.4778Z" fill="url(#paint1_linear_1051_1520)"/>
<path d="M152.353 41.3987C151.119 41.3987 149.913 41.2639 148.735 40.9943C147.571 40.7105 146.613 40.3344 145.861 39.8662L147.479 36.205C148.189 36.6165 148.983 36.95 149.863 37.2054C150.743 37.4467 151.587 37.5673 152.396 37.5673C153.091 37.5673 153.588 37.5034 153.886 37.3757C154.184 37.2338 154.333 37.028 154.333 36.7584C154.333 36.4462 154.134 36.2121 153.737 36.056C153.354 35.8999 152.715 35.7296 151.821 35.5451C150.672 35.3039 149.714 35.0485 148.948 34.7788C148.181 34.495 147.514 34.0409 146.947 33.4166C146.379 32.778 146.095 31.9194 146.095 30.841C146.095 29.9044 146.358 29.053 146.883 28.2867C147.408 27.5204 148.189 26.9173 149.224 26.4774C150.275 26.0375 151.545 25.8175 153.035 25.8175C154.056 25.8175 155.057 25.931 156.036 26.1581C157.029 26.3709 157.902 26.6902 158.654 27.1159L157.143 30.7558C155.681 30.0179 154.298 29.649 152.992 29.649C151.701 29.649 151.055 29.9612 151.055 30.5855C151.055 30.8835 151.247 31.1106 151.63 31.2667C152.013 31.4086 152.644 31.5647 153.524 31.735C154.659 31.9478 155.617 32.1962 156.398 32.48C157.178 32.7496 157.852 33.1966 158.42 33.821C159.002 34.4454 159.293 35.2968 159.293 36.3753C159.293 37.3119 159.03 38.1633 158.505 38.9296C157.98 39.6817 157.192 40.2848 156.142 40.7389C155.106 41.1788 153.843 41.3987 152.353 41.3987ZM173.41 29.4148V41.0582H168.834V40.1003C168.138 40.8808 167.074 41.271 165.641 41.271C164.619 41.271 163.675 41.0298 162.81 40.5473C161.958 40.0506 161.277 39.3411 160.766 38.4187C160.27 37.4963 160.021 36.432 160.021 35.2258C160.021 34.0197 160.27 32.9625 160.766 32.0543C161.277 31.1319 161.958 30.4294 162.81 29.947C163.675 29.4503 164.619 29.202 165.641 29.202C166.932 29.202 167.918 29.5354 168.599 30.2024V29.4148H173.41ZM166.79 37.5247C167.344 37.5247 167.798 37.3261 168.152 36.9287C168.507 36.5172 168.685 35.9496 168.685 35.2258C168.685 34.5021 168.507 33.9416 168.152 33.5443C167.798 33.1469 167.344 32.9483 166.79 32.9483C166.237 32.9483 165.783 33.1469 165.428 33.5443C165.073 33.9416 164.896 34.5021 164.896 35.2258C164.896 35.9496 165.073 36.5172 165.428 36.9287C165.783 37.3261 166.237 37.5247 166.79 37.5247ZM180.204 30.0534H182.737V33.5656H180.353V41.0582H175.543V29.9895C175.543 28.4711 175.997 27.272 176.905 26.3922C177.813 25.4982 179.09 25.0512 180.736 25.0512C181.276 25.0512 181.801 25.1009 182.312 25.2002C182.822 25.2996 183.248 25.4415 183.589 25.6259L182.439 28.9678C182.042 28.7833 181.68 28.6911 181.354 28.6911C180.999 28.6911 180.715 28.8046 180.502 29.0317C180.304 29.2445 180.204 29.578 180.204 30.0321V30.0534ZM190.56 37.7163C191.07 37.7163 191.496 37.6524 191.837 37.5247C192.191 37.397 192.575 37.177 192.986 36.8649L195.498 39.3979C194.334 40.6466 192.638 41.271 190.411 41.271C189.006 41.271 187.771 41.0156 186.707 40.5047C185.643 39.9797 184.819 39.256 184.238 38.3336C183.656 37.4112 183.365 36.3753 183.365 35.2258C183.365 34.0622 183.656 33.0263 184.238 32.1181C184.819 31.1957 185.614 30.4791 186.622 29.9682C187.643 29.4574 188.786 29.202 190.049 29.202C191.198 29.202 192.255 29.4361 193.22 29.9044C194.185 30.3585 194.952 31.0396 195.519 31.9478C196.087 32.8418 196.371 33.9132 196.371 35.162L188.41 36.6946C188.764 37.3757 189.481 37.7163 190.56 37.7163ZM190.07 32.48C189.517 32.48 189.062 32.6432 188.708 32.9695C188.367 33.2959 188.161 33.7784 188.09 34.417L191.815 33.6933C191.688 33.3243 191.468 33.0334 191.156 32.8205C190.858 32.5935 190.496 32.48 190.07 32.48ZM210.894 29.4148V38.738C210.894 40.9517 210.277 42.612 209.042 43.7189C207.822 44.8399 206.077 45.4005 203.806 45.4005C202.643 45.4005 201.557 45.2728 200.549 45.0173C199.542 44.7761 198.683 44.4213 197.974 43.953L199.592 40.675C200.046 41.0156 200.62 41.2923 201.316 41.5052C202.011 41.718 202.678 41.8245 203.317 41.8245C204.282 41.8245 204.984 41.6187 205.424 41.2072C205.864 40.7956 206.084 40.1925 206.084 39.3979V39.185C205.36 40.0081 204.289 40.4196 202.87 40.4196C201.876 40.4196 200.947 40.1925 200.081 39.7384C199.23 39.2702 198.549 38.6103 198.038 37.7589C197.527 36.8932 197.271 35.907 197.271 34.8001C197.271 33.6933 197.527 32.7141 198.038 31.8627C198.549 31.0113 199.23 30.3585 200.081 29.9044C200.947 29.4361 201.876 29.202 202.87 29.202C204.459 29.202 205.608 29.7128 206.318 30.7345V29.4148H210.894ZM204.147 36.6733C204.714 36.6733 205.183 36.503 205.552 36.1624C205.935 35.8077 206.126 35.3536 206.126 34.8001C206.126 34.2467 205.935 33.7997 205.552 33.4591C205.183 33.1186 204.714 32.9483 204.147 32.9483C203.565 32.9483 203.082 33.1186 202.699 33.4591C202.33 33.7997 202.146 34.2467 202.146 34.8001C202.146 35.3536 202.337 35.8077 202.721 36.1624C203.104 36.503 203.579 36.6733 204.147 36.6733ZM225.751 29.4148V41.0582H221.174V39.9513C220.748 40.3912 220.252 40.7247 219.684 40.9517C219.116 41.1646 218.513 41.271 217.875 41.271C216.399 41.271 215.214 40.824 214.32 39.93C213.426 39.0218 212.979 37.6595 212.979 35.8431V29.4148H217.79V35.013C217.79 35.8077 217.917 36.3753 218.173 36.7159C218.428 37.0564 218.804 37.2267 219.301 37.2267C219.769 37.2267 220.159 37.0422 220.472 36.6733C220.784 36.2901 220.94 35.6941 220.94 34.8853V29.4148H225.751ZM240.656 29.4148V41.0582H236.079V40.1003C235.384 40.8808 234.32 41.271 232.886 41.271C231.865 41.271 230.921 41.0298 230.055 40.5473C229.204 40.0506 228.523 39.3411 228.012 38.4187C227.515 37.4963 227.267 36.432 227.267 35.2258C227.267 34.0197 227.515 32.9625 228.012 32.0543C228.523 31.1319 229.204 30.4294 230.055 29.947C230.921 29.4503 231.865 29.202 232.886 29.202C234.178 29.202 235.164 29.5354 235.845 30.2024V29.4148H240.656ZM234.036 37.5247C234.589 37.5247 235.043 37.3261 235.398 36.9287C235.753 36.5172 235.93 35.9496 235.93 35.2258C235.93 34.5021 235.753 33.9416 235.398 33.5443C235.043 33.1469 234.589 32.9483 234.036 32.9483C233.482 32.9483 233.028 33.1469 232.674 33.5443C232.319 33.9416 232.141 34.5021 232.141 35.2258C232.141 35.9496 232.319 36.5172 232.674 36.9287C233.028 37.3261 233.482 37.5247 234.036 37.5247ZM247.365 30.6707C248.216 29.6915 249.472 29.202 251.133 29.202V33.4591C250.749 33.4024 250.395 33.374 250.068 33.374C248.422 33.374 247.599 34.2112 247.599 35.8857V41.0582H242.788V29.4148H247.365V30.6707ZM265.27 25.2641V41.0582H260.694V40.1003C259.998 40.8808 258.934 41.271 257.501 41.271C256.479 41.271 255.535 41.0298 254.67 40.5473C253.818 40.0506 253.137 39.3411 252.626 38.4187C252.13 37.4963 251.881 36.432 251.881 35.2258C251.881 34.0197 252.13 32.9625 252.626 32.0543C253.137 31.1319 253.818 30.4294 254.67 29.947C255.535 29.4503 256.479 29.202 257.501 29.202C258.792 29.202 259.778 29.5354 260.459 30.2024V25.2641H265.27ZM258.65 37.5247C259.204 37.5247 259.658 37.3261 260.012 36.9287C260.367 36.5172 260.545 35.9496 260.545 35.2258C260.545 34.5021 260.367 33.9416 260.012 33.5443C259.658 33.1469 259.204 32.9483 258.65 32.9483C258.097 32.9483 257.643 33.1469 257.288 33.5443C256.933 33.9416 256.756 34.5021 256.756 35.2258C256.756 35.9496 256.933 36.5172 257.288 36.9287C257.643 37.3261 258.097 37.5247 258.65 37.5247ZM281.636 41.3987C280.061 41.3987 278.642 41.0724 277.379 40.4196C276.116 39.7526 275.123 38.8302 274.399 37.6524C273.69 36.4604 273.335 35.1123 273.335 33.6081C273.335 32.1039 273.69 30.7629 274.399 29.5851C275.123 28.3931 276.116 27.4707 277.379 26.8179C278.642 26.151 280.061 25.8175 281.636 25.8175C283.084 25.8175 284.375 26.0729 285.51 26.5838C286.646 27.0947 287.582 27.8326 288.32 28.7975L285.148 31.6285C284.226 30.4649 283.14 29.8831 281.892 29.8831C280.842 29.8831 279.997 30.2237 279.359 30.9048C278.72 31.5718 278.401 32.4729 278.401 33.6081C278.401 34.7434 278.72 35.6516 279.359 36.3327C279.997 36.9997 280.842 37.3331 281.892 37.3331C283.14 37.3331 284.226 36.7513 285.148 35.5877L288.32 38.4187C287.582 39.3837 286.646 40.1216 285.51 40.6324C284.375 41.1433 283.084 41.3987 281.636 41.3987ZM294.198 30.6707C295.049 29.6915 296.305 29.202 297.966 29.202V33.4591C297.582 33.4024 297.228 33.374 296.901 33.374C295.255 33.374 294.432 34.2112 294.432 35.8857V41.0582H289.621V29.4148H294.198V30.6707ZM312.058 29.4148V38.738C312.058 40.9517 311.441 42.612 310.206 43.7189C308.986 44.8399 307.254 45.4005 305.012 45.4005C303.863 45.4005 302.784 45.2728 301.777 45.0173C300.784 44.7761 299.932 44.4213 299.223 43.953L300.84 40.675C301.294 41.0156 301.862 41.2923 302.543 41.5052C303.238 41.718 303.898 41.8245 304.523 41.8245C305.473 41.8245 306.162 41.6187 306.587 41.2072C307.027 40.7956 307.247 40.1925 307.247 39.3979V39.3127C306.41 40.0506 305.388 40.4196 304.182 40.4196C302.706 40.4196 301.521 39.9726 300.627 39.0786C299.733 38.1704 299.286 36.8081 299.286 34.9917V29.4148H304.097V34.1616C304.097 34.9562 304.225 35.5238 304.48 35.8644C304.736 36.205 305.112 36.3753 305.608 36.3753C306.077 36.3753 306.467 36.1908 306.779 35.8219C307.091 35.4387 307.247 34.8427 307.247 34.0338V29.4148H312.058ZM321.961 29.202C322.983 29.202 323.919 29.4503 324.771 29.947C325.636 30.4294 326.317 31.1319 326.814 32.0543C327.325 32.9766 327.58 34.0409 327.58 35.2471C327.58 36.4533 327.325 37.5176 326.814 38.44C326.317 39.3482 325.636 40.0506 324.771 40.5473C323.919 41.0298 322.983 41.271 321.961 41.271C320.67 41.271 319.683 40.9375 319.002 40.2706V45.1876H314.192V29.4148H318.768V30.3727C319.463 29.5922 320.528 29.202 321.961 29.202ZM320.812 37.5247C321.365 37.5247 321.819 37.3261 322.174 36.9287C322.529 36.5314 322.706 35.9709 322.706 35.2471C322.706 34.5234 322.529 33.9629 322.174 33.5656C321.819 33.154 321.365 32.9483 320.812 32.9483C320.258 32.9483 319.804 33.154 319.449 33.5656C319.094 33.9629 318.917 34.5234 318.917 35.2471C318.917 35.9709 319.094 36.5314 319.449 36.9287C319.804 37.3261 320.258 37.5247 320.812 37.5247ZM337.099 40.6537C336.376 41.0653 335.389 41.271 334.141 41.271C332.509 41.271 331.253 40.8808 330.373 40.1003C329.493 39.3056 329.053 38.1207 329.053 36.5456V26.7967H333.864V30.0534H336.248V33.5656H333.864V36.503C333.864 36.8578 333.956 37.1345 334.141 37.3331C334.325 37.5318 334.566 37.6311 334.864 37.6311C335.276 37.6311 335.638 37.5247 335.95 37.3119L337.099 40.6537ZM344.144 41.271C342.853 41.271 341.689 41.0156 340.653 40.5047C339.632 39.9797 338.83 39.2631 338.248 38.3549C337.666 37.4325 337.375 36.3895 337.375 35.2258C337.375 34.0622 337.666 33.0263 338.248 32.1181C338.83 31.1957 339.632 30.4791 340.653 29.9682C341.689 29.4574 342.853 29.202 344.144 29.202C345.45 29.202 346.613 29.4574 347.635 29.9682C348.671 30.4791 349.473 31.1957 350.04 32.1181C350.622 33.0263 350.913 34.0622 350.913 35.2258C350.913 36.3895 350.622 37.4325 350.04 38.3549C349.473 39.2631 348.671 39.9797 347.635 40.5047C346.613 41.0156 345.45 41.271 344.144 41.271ZM344.144 37.5247C344.698 37.5247 345.152 37.3261 345.507 36.9287C345.861 36.5172 346.039 35.9496 346.039 35.2258C346.039 34.5021 345.861 33.9416 345.507 33.5443C345.152 33.1469 344.698 32.9483 344.144 32.9483C343.591 32.9483 343.137 33.1469 342.782 33.5443C342.427 33.9416 342.25 34.5021 342.25 35.2258C342.25 35.9496 342.427 36.5172 342.782 36.9287C343.137 37.3261 343.591 37.5247 344.144 37.5247ZM170.532 54.1581V62.7788C170.532 64.8932 169.886 66.5252 168.595 67.6746C167.317 68.824 165.522 69.3987 163.209 69.3987C161.308 69.3987 159.768 68.9305 158.59 67.9939C157.427 68.9305 155.887 69.3987 153.971 69.3987C151.672 69.3987 149.877 68.824 148.586 67.6746C147.309 66.5252 146.67 64.8932 146.67 62.7788V54.1581H151.694V62.6298C151.694 63.538 151.871 64.2192 152.226 64.6733C152.581 65.1132 153.134 65.3331 153.886 65.3331C154.638 65.3331 155.192 65.1132 155.546 64.6733C155.901 64.2192 156.078 63.538 156.078 62.6298V54.1581H161.102V62.6298C161.102 63.538 161.279 64.2192 161.634 64.6733C162.003 65.1132 162.564 65.3331 163.316 65.3331C164.068 65.3331 164.621 65.1132 164.976 64.6733C165.331 64.2192 165.508 63.538 165.508 62.6298V54.1581H170.532ZM185.446 57.4148V69.0582H180.869V68.1003C180.174 68.8808 179.11 69.271 177.676 69.271C176.655 69.271 175.711 69.0298 174.845 68.5473C173.994 68.0506 173.313 67.3411 172.802 66.4187C172.305 65.4963 172.057 64.432 172.057 63.2258C172.057 62.0197 172.305 60.9625 172.802 60.0543C173.313 59.1319 173.994 58.4294 174.845 57.947C175.711 57.4503 176.655 57.202 177.676 57.202C178.968 57.202 179.954 57.5354 180.635 58.2024V57.4148H185.446ZM178.826 65.5247C179.379 65.5247 179.833 65.3261 180.188 64.9287C180.543 64.5172 180.72 63.9496 180.72 63.2258C180.72 62.5021 180.543 61.9416 180.188 61.5443C179.833 61.1469 179.379 60.9483 178.826 60.9483C178.272 60.9483 177.818 61.1469 177.463 61.5443C177.109 61.9416 176.931 62.5021 176.931 63.2258C176.931 63.9496 177.109 64.5172 177.463 64.9287C177.818 65.3261 178.272 65.5247 178.826 65.5247ZM192.453 69.271C190.92 69.271 189.721 68.8879 188.856 68.1216C188.004 67.3411 187.578 66.2201 187.578 64.7584V53.2641H192.389V64.503C192.389 64.872 192.481 65.1558 192.666 65.3544C192.85 65.5389 193.113 65.6311 193.453 65.6311C193.609 65.6311 193.765 65.6099 193.922 65.5673C194.092 65.5247 194.227 65.4751 194.326 65.4183L194.518 68.973C193.836 69.1717 193.148 69.271 192.453 69.271ZM200.664 69.271C199.131 69.271 197.932 68.8879 197.066 68.1216C196.215 67.3411 195.789 66.2201 195.789 64.7584V53.2641H200.6V64.503C200.6 64.872 200.692 65.1558 200.877 65.3544C201.061 65.5389 201.324 65.6311 201.664 65.6311C201.82 65.6311 201.976 65.6099 202.132 65.5673C202.303 65.5247 202.437 65.4751 202.537 65.4183L202.728 68.973C202.047 69.1717 201.359 69.271 200.664 69.271ZM210.369 65.7163C210.88 65.7163 211.306 65.6524 211.647 65.5247C212.001 65.397 212.385 65.177 212.796 64.8649L215.308 67.3979C214.144 68.6466 212.448 69.271 210.22 69.271C208.816 69.271 207.581 69.0156 206.517 68.5047C205.452 67.9797 204.629 67.256 204.048 66.3336C203.466 65.4112 203.175 64.3753 203.175 63.2258C203.175 62.0622 203.466 61.0263 204.048 60.1181C204.629 59.1957 205.424 58.4791 206.432 57.9682C207.453 57.4574 208.596 57.202 209.859 57.202C211.008 57.202 212.065 57.4361 213.03 57.9044C213.995 58.3585 214.761 59.0396 215.329 59.9478C215.897 60.8418 216.181 61.9132 216.181 63.162L208.22 64.6946C208.574 65.3757 209.291 65.7163 210.369 65.7163ZM209.88 60.48C209.326 60.48 208.872 60.6432 208.518 60.9695C208.177 61.2959 207.971 61.7784 207.9 62.417L211.625 61.6933C211.498 61.3243 211.278 61.0334 210.966 60.8205C210.667 60.5935 210.306 60.48 209.88 60.48ZM225.702 68.6537C224.978 69.0653 223.992 69.271 222.743 69.271C221.111 69.271 219.856 68.8808 218.976 68.1003C218.096 67.3056 217.656 66.1207 217.656 64.5456V54.7967H222.467V58.0534H224.851V61.5656H222.467V64.503C222.467 64.8578 222.559 65.1345 222.743 65.3331C222.928 65.5318 223.169 65.6311 223.467 65.6311C223.879 65.6311 224.24 65.5247 224.553 65.3119L225.702 68.6537Z" fill="url(#paint2_linear_1051_1520)"/>
<path d="M149.457 96.0175C148.801 96.0175 148.17 95.9124 147.565 95.7021C146.968 95.4919 146.505 95.2144 146.177 94.8696L146.543 94.1506C146.863 94.4702 147.287 94.7309 147.817 94.9327C148.347 95.1261 148.894 95.2228 149.457 95.2228C150.247 95.2228 150.84 95.0799 151.236 94.7939C151.631 94.4996 151.828 94.1212 151.828 93.6587C151.828 93.3055 151.719 93.0238 151.5 92.8136C151.29 92.6033 151.03 92.4436 150.718 92.3342C150.407 92.2165 149.974 92.0904 149.419 91.9558C148.755 91.7876 148.225 91.6279 147.83 91.4765C147.435 91.3167 147.094 91.0771 146.808 90.7575C146.531 90.438 146.392 90.0049 146.392 89.4583C146.392 89.0126 146.51 88.609 146.745 88.2474C146.98 87.8774 147.342 87.583 147.83 87.3644C148.318 87.1458 148.923 87.0364 149.646 87.0364C150.151 87.0364 150.643 87.1079 151.122 87.2509C151.61 87.3854 152.03 87.5746 152.383 87.8185L152.068 88.5627C151.698 88.3188 151.303 88.138 150.882 88.0203C150.462 87.8942 150.05 87.8311 149.646 87.8311C148.873 87.8311 148.288 87.9825 147.893 88.2852C147.506 88.5795 147.313 88.9622 147.313 89.4331C147.313 89.7863 147.418 90.0722 147.628 90.2908C147.847 90.501 148.116 90.665 148.435 90.7827C148.763 90.8921 149.201 91.014 149.747 91.1485C150.395 91.3083 150.916 91.4681 151.311 91.6279C151.715 91.7792 152.055 92.0147 152.333 92.3342C152.61 92.6454 152.749 93.0701 152.749 93.6082C152.749 94.0539 152.627 94.4618 152.383 94.8318C152.148 95.1934 151.782 95.4835 151.286 95.7021C150.79 95.9124 150.18 96.0175 149.457 96.0175ZM160.648 89.3069V95.9418H159.791V94.63C159.522 95.0757 159.164 95.4162 158.719 95.6517C158.281 95.8871 157.785 96.0049 157.23 96.0049C156.608 96.0049 156.044 95.8619 155.54 95.576C155.035 95.2901 154.64 94.8907 154.354 94.3777C154.068 93.8647 153.925 93.2803 153.925 92.6244C153.925 91.9684 154.068 91.384 154.354 90.871C154.64 90.3581 155.035 89.9628 155.54 89.6853C156.044 89.3994 156.608 89.2565 157.23 89.2565C157.768 89.2565 158.252 89.37 158.681 89.597C159.118 89.8157 159.475 90.1394 159.753 90.5683V89.3069H160.648ZM157.306 95.2102C157.768 95.2102 158.185 95.1051 158.555 94.8949C158.933 94.6762 159.227 94.3693 159.438 93.974C159.656 93.5788 159.765 93.1289 159.765 92.6244C159.765 92.1198 159.656 91.6699 159.438 91.2747C159.227 90.8795 158.933 90.5767 158.555 90.3665C158.185 90.1479 157.768 90.0385 157.306 90.0385C156.835 90.0385 156.41 90.1479 156.032 90.3665C155.662 90.5767 155.367 90.8795 155.149 91.2747C154.939 91.6699 154.833 92.1198 154.833 92.6244C154.833 93.1289 154.939 93.5788 155.149 93.974C155.367 94.3693 155.662 94.6762 156.032 94.8949C156.41 95.1051 156.835 95.2102 157.306 95.2102ZM165.186 87.2761C164.799 87.2761 164.505 87.3812 164.303 87.5914C164.11 87.8017 164.013 88.1128 164.013 88.5249V89.3069H166.056V90.0638H164.038V95.9418H163.143V88.487C163.143 87.8816 163.315 87.4022 163.66 87.0491C164.013 86.6959 164.509 86.5193 165.148 86.5193C165.4 86.5193 165.644 86.5571 165.88 86.6328C166.115 86.7001 166.313 86.801 166.473 86.9355L166.17 87.6041C165.909 87.3854 165.581 87.2761 165.186 87.2761ZM169.996 95.2102C170.409 95.2102 170.787 95.1387 171.132 94.9958C171.485 94.8444 171.783 94.6258 172.027 94.3398L172.532 94.9201C172.238 95.2733 171.872 95.5424 171.434 95.7274C170.997 95.9124 170.514 96.0049 169.984 96.0049C169.303 96.0049 168.697 95.8619 168.167 95.576C167.638 95.2817 167.226 94.878 166.931 94.3651C166.637 93.8521 166.49 93.2719 166.49 92.6244C166.49 91.9769 166.629 91.3966 166.906 90.8837C167.192 90.3707 167.583 89.9713 168.079 89.6853C168.575 89.3994 169.139 89.2565 169.769 89.2565C170.358 89.2565 170.888 89.391 171.359 89.6601C171.838 89.9292 172.216 90.3034 172.494 90.7827C172.78 91.2621 172.931 91.8087 172.948 92.4225L167.499 93.4821C167.667 94.0203 167.97 94.445 168.407 94.7561C168.853 95.0588 169.383 95.2102 169.996 95.2102ZM169.769 90.0259C169.307 90.0259 168.891 90.1352 168.521 90.3539C168.159 90.5641 167.873 90.8626 167.663 91.2495C167.461 91.6279 167.36 92.0652 167.36 92.5613C167.36 92.6874 167.364 92.7799 167.373 92.8388L172.053 91.9306C171.952 91.3756 171.695 90.9215 171.283 90.5683C170.871 90.2067 170.366 90.0259 169.769 90.0259ZM180.914 89.3069V95.1345C180.914 96.2614 180.636 97.0939 180.081 97.6321C179.535 98.1787 178.707 98.452 177.596 98.452C176.983 98.452 176.398 98.3595 175.843 98.1745C175.297 97.9979 174.851 97.7498 174.506 97.4302L174.96 96.7491C175.28 97.035 175.667 97.2578 176.121 97.4176C176.583 97.5774 177.067 97.6573 177.571 97.6573C178.412 97.6573 179.03 97.4597 179.425 97.0644C179.821 96.6776 180.018 96.0721 180.018 95.248V94.4029C179.741 94.8234 179.375 95.1429 178.921 95.3616C178.475 95.5802 177.979 95.6895 177.433 95.6895C176.81 95.6895 176.243 95.555 175.73 95.2859C175.225 95.0084 174.826 94.6258 174.531 94.138C174.245 93.6419 174.102 93.0827 174.102 92.4604C174.102 91.8381 174.245 91.2831 174.531 90.7954C174.826 90.3076 175.225 89.9292 175.73 89.6601C176.234 89.391 176.802 89.2565 177.433 89.2565C177.996 89.2565 178.505 89.37 178.959 89.597C179.413 89.8241 179.779 90.1521 180.056 90.5809V89.3069H180.914ZM177.521 94.8949C178 94.8949 178.433 94.7939 178.82 94.5921C179.207 94.3819 179.505 94.0918 179.716 93.7218C179.934 93.3518 180.044 92.9313 180.044 92.4604C180.044 91.9895 179.934 91.5732 179.716 91.2116C179.505 90.8416 179.207 90.5557 178.82 90.3539C178.442 90.1436 178.009 90.0385 177.521 90.0385C177.041 90.0385 176.608 90.1394 176.222 90.3413C175.843 90.5431 175.545 90.829 175.326 91.199C175.116 91.569 175.011 91.9895 175.011 92.4604C175.011 92.9313 175.116 93.3518 175.326 93.7218C175.545 94.0918 175.843 94.3819 176.222 94.5921C176.608 94.7939 177.041 94.8949 177.521 94.8949ZM189.397 89.3069V95.9418H188.54V94.7309C188.304 95.1345 187.98 95.4499 187.568 95.6769C187.156 95.8956 186.685 96.0049 186.156 96.0049C185.289 96.0049 184.604 95.7652 184.1 95.2859C183.603 94.7981 183.355 94.0876 183.355 93.1541V89.3069H184.251V93.0659C184.251 93.7638 184.423 94.2936 184.768 94.6552C185.113 95.0168 185.605 95.1976 186.244 95.1976C186.942 95.1976 187.493 94.9874 187.896 94.5669C188.3 94.138 188.502 93.5452 188.502 92.7883V89.3069H189.397ZM197.96 89.3069V95.9418H197.102V94.63C196.833 95.0757 196.476 95.4162 196.03 95.6517C195.593 95.8871 195.097 96.0049 194.542 96.0049C193.92 96.0049 193.356 95.8619 192.852 95.576C192.347 95.2901 191.952 94.8907 191.666 94.3777C191.38 93.8647 191.237 93.2803 191.237 92.6244C191.237 91.9684 191.38 91.384 191.666 90.871C191.952 90.3581 192.347 89.9628 192.852 89.6853C193.356 89.3994 193.92 89.2565 194.542 89.2565C195.08 89.2565 195.564 89.37 195.992 89.597C196.43 89.8157 196.787 90.1394 197.065 90.5683V89.3069H197.96ZM194.618 95.2102C195.08 95.2102 195.496 95.1051 195.866 94.8949C196.245 94.6762 196.539 94.3693 196.749 93.974C196.968 93.5788 197.077 93.1289 197.077 92.6244C197.077 92.1198 196.968 91.6699 196.749 91.2747C196.539 90.8795 196.245 90.5767 195.866 90.3665C195.496 90.1479 195.08 90.0385 194.618 90.0385C194.147 90.0385 193.722 90.1479 193.344 90.3665C192.974 90.5767 192.679 90.8795 192.461 91.2747C192.25 91.6699 192.145 92.1198 192.145 92.6244C192.145 93.1289 192.25 93.5788 192.461 93.974C192.679 94.3693 192.974 94.6762 193.344 94.8949C193.722 95.1051 194.147 95.2102 194.618 95.2102ZM201.312 90.6062C201.522 90.1605 201.834 89.8241 202.246 89.597C202.666 89.37 203.183 89.2565 203.797 89.2565V90.1268L203.583 90.1142C202.885 90.1142 202.338 90.3286 201.943 90.7575C201.548 91.1864 201.35 91.7876 201.35 92.5613V95.9418H200.454V89.3069H201.312V90.6062ZM211.412 86.5823V95.9418H210.554V94.63C210.285 95.0757 209.927 95.4162 209.482 95.6517C209.045 95.8871 208.548 96.0049 207.993 96.0049C207.371 96.0049 206.808 95.8619 206.303 95.576C205.799 95.2901 205.403 94.8907 205.117 94.3777C204.831 93.8647 204.689 93.2803 204.689 92.6244C204.689 91.9684 204.831 91.384 205.117 90.871C205.403 90.3581 205.799 89.9628 206.303 89.6853C206.808 89.3994 207.371 89.2565 207.993 89.2565C208.532 89.2565 209.015 89.37 209.444 89.597C209.881 89.8157 210.239 90.1394 210.516 90.5683V86.5823H211.412ZM208.069 95.2102C208.532 95.2102 208.948 95.1051 209.318 94.8949C209.696 94.6762 209.991 94.3693 210.201 93.974C210.419 93.5788 210.529 93.1289 210.529 92.6244C210.529 92.1198 210.419 91.6699 210.201 91.2747C209.991 90.8795 209.696 90.5767 209.318 90.3665C208.948 90.1479 208.532 90.0385 208.069 90.0385C207.598 90.0385 207.173 90.1479 206.795 90.3665C206.425 90.5767 206.131 90.8795 205.912 91.2747C205.702 91.6699 205.597 92.1198 205.597 92.6244C205.597 93.1289 205.702 93.5788 205.912 93.974C206.131 94.3693 206.425 94.6762 206.795 94.8949C207.173 95.1051 207.598 95.2102 208.069 95.2102ZM223.186 89.3069V95.1345C223.186 96.2614 222.93 97.0939 222.417 97.6321C221.904 98.1787 221.13 98.452 220.096 98.452C219.515 98.452 218.965 98.3595 218.443 98.1745C217.93 97.9979 217.514 97.7498 217.195 97.4302L217.649 96.7491C217.935 97.035 218.288 97.2578 218.708 97.4176C219.129 97.5774 219.579 97.6573 220.058 97.6573C220.823 97.6573 221.387 97.4597 221.748 97.0644C222.11 96.6776 222.291 96.0721 222.291 95.248V94.4786C222.055 94.8654 221.731 95.164 221.319 95.3742C220.916 95.5844 220.457 95.6895 219.944 95.6895C219.078 95.6895 218.393 95.4499 217.888 94.9705C217.392 94.4828 217.144 93.7722 217.144 92.8388V89.3069H218.04V92.7505C218.04 93.4485 218.212 93.9783 218.557 94.3398C218.902 94.7014 219.394 94.8822 220.033 94.8822C220.731 94.8822 221.281 94.672 221.685 94.2516C222.089 93.8227 222.291 93.2298 222.291 92.473V89.3069H223.186ZM228.406 96.0049C227.767 96.0049 227.191 95.8619 226.678 95.576C226.165 95.2817 225.762 94.878 225.467 94.3651C225.173 93.8521 225.026 93.2719 225.026 92.6244C225.026 91.9769 225.173 91.3966 225.467 90.8837C225.762 90.3707 226.165 89.9713 226.678 89.6853C227.191 89.3994 227.767 89.2565 228.406 89.2565C229.045 89.2565 229.621 89.3994 230.134 89.6853C230.647 89.9713 231.047 90.3707 231.333 90.8837C231.627 91.3966 231.774 91.9769 231.774 92.6244C231.774 93.2719 231.627 93.8521 231.333 94.3651C231.047 94.878 230.647 95.2817 230.134 95.576C229.621 95.8619 229.045 96.0049 228.406 96.0049ZM228.406 95.2102C228.877 95.2102 229.298 95.1051 229.668 94.8949C230.046 94.6762 230.34 94.3693 230.551 93.974C230.761 93.5788 230.866 93.1289 230.866 92.6244C230.866 92.1198 230.761 91.6699 230.551 91.2747C230.34 90.8795 230.046 90.5767 229.668 90.3665C229.298 90.1479 228.877 90.0385 228.406 90.0385C227.935 90.0385 227.511 90.1479 227.132 90.3665C226.762 90.5767 226.468 90.8795 226.249 91.2747C226.039 91.6699 225.934 92.1198 225.934 92.6244C225.934 93.1289 226.039 93.5788 226.249 93.974C226.468 94.3693 226.762 94.6762 227.132 94.8949C227.511 95.1051 227.935 95.2102 228.406 95.2102ZM239.582 89.3069V95.9418H238.724V94.7309C238.488 95.1345 238.165 95.4499 237.753 95.6769C237.341 95.8956 236.87 96.0049 236.34 96.0049C235.474 96.0049 234.788 95.7652 234.284 95.2859C233.788 94.7981 233.54 94.0876 233.54 93.1541V89.3069H234.435V93.0659C234.435 93.7638 234.608 94.2936 234.952 94.6552C235.297 95.0168 235.789 95.1976 236.428 95.1976C237.126 95.1976 237.677 94.9874 238.081 94.5669C238.484 94.138 238.686 93.5452 238.686 92.7883V89.3069H239.582ZM242.948 90.6062C243.158 90.1605 243.469 89.8241 243.881 89.597C244.302 89.37 244.819 89.2565 245.433 89.2565V90.1268L245.218 90.1142C244.52 90.1142 243.974 90.3286 243.578 90.7575C243.183 91.1864 242.985 91.7876 242.985 92.5613V95.9418H242.09V89.3069H242.948V90.6062ZM256.509 86.5823V95.9418H255.651V94.63C255.382 95.0757 255.024 95.4162 254.579 95.6517C254.141 95.8871 253.645 96.0049 253.09 96.0049C252.468 96.0049 251.905 95.8619 251.4 95.576C250.895 95.2901 250.5 94.8907 250.214 94.3777C249.928 93.8647 249.785 93.2803 249.785 92.6244C249.785 91.9684 249.928 91.384 250.214 90.871C250.5 90.3581 250.895 89.9628 251.4 89.6853C251.905 89.3994 252.468 89.2565 253.09 89.2565C253.628 89.2565 254.112 89.37 254.541 89.597C254.978 89.8157 255.336 90.1394 255.613 90.5683V86.5823H256.509ZM253.166 95.2102C253.628 95.2102 254.045 95.1051 254.415 94.8949C254.793 94.6762 255.087 94.3693 255.298 93.974C255.516 93.5788 255.626 93.1289 255.626 92.6244C255.626 92.1198 255.516 91.6699 255.298 91.2747C255.087 90.8795 254.793 90.5767 254.415 90.3665C254.045 90.1479 253.628 90.0385 253.166 90.0385C252.695 90.0385 252.27 90.1479 251.892 90.3665C251.522 90.5767 251.228 90.8795 251.009 91.2747C250.799 91.6699 250.694 92.1198 250.694 92.6244C250.694 93.1289 250.799 93.5788 251.009 93.974C251.228 94.3693 251.522 94.6762 251.892 94.8949C252.27 95.1051 252.695 95.2102 253.166 95.2102ZM259.003 89.3069H259.898V95.9418H259.003V89.3069ZM259.457 87.8563C259.272 87.8563 259.116 87.7933 258.99 87.6671C258.864 87.541 258.801 87.3896 258.801 87.213C258.801 87.0448 258.864 86.8977 258.99 86.7715C259.116 86.6454 259.272 86.5823 259.457 86.5823C259.642 86.5823 259.797 86.6454 259.924 86.7715C260.05 86.8893 260.113 87.0322 260.113 87.2004C260.113 87.3854 260.05 87.541 259.924 87.6671C259.797 87.7933 259.642 87.8563 259.457 87.8563ZM268.533 89.3069V95.1345C268.533 96.2614 268.256 97.0939 267.701 97.6321C267.154 98.1787 266.326 98.452 265.216 98.452C264.602 98.452 264.017 98.3595 263.462 98.1745C262.916 97.9979 262.47 97.7498 262.125 97.4302L262.579 96.7491C262.899 97.035 263.286 97.2578 263.74 97.4176C264.202 97.5774 264.686 97.6573 265.191 97.6573C266.031 97.6573 266.65 97.4597 267.045 97.0644C267.44 96.6776 267.638 96.0721 267.638 95.248V94.4029C267.36 94.8234 266.994 95.1429 266.54 95.3616C266.095 95.5802 265.598 95.6895 265.052 95.6895C264.43 95.6895 263.862 95.555 263.349 95.2859C262.844 95.0084 262.445 94.6258 262.151 94.138C261.865 93.6419 261.722 93.0827 261.722 92.4604C261.722 91.8381 261.865 91.2831 262.151 90.7954C262.445 90.3076 262.844 89.9292 263.349 89.6601C263.853 89.391 264.421 89.2565 265.052 89.2565C265.615 89.2565 266.124 89.37 266.578 89.597C267.032 89.8241 267.398 90.1521 267.675 90.5809V89.3069H268.533ZM265.14 94.8949C265.619 94.8949 266.053 94.7939 266.439 94.5921C266.826 94.3819 267.125 94.0918 267.335 93.7218C267.554 93.3518 267.663 92.9313 267.663 92.4604C267.663 91.9895 267.554 91.5732 267.335 91.2116C267.125 90.8416 266.826 90.5557 266.439 90.3539C266.061 90.1436 265.628 90.0385 265.14 90.0385C264.661 90.0385 264.228 90.1394 263.841 90.3413C263.462 90.5431 263.164 90.829 262.945 91.199C262.735 91.569 262.63 91.9895 262.63 92.4604C262.63 92.9313 262.735 93.3518 262.945 93.7218C263.164 94.0918 263.462 94.3819 263.841 94.5921C264.228 94.7939 264.661 94.8949 265.14 94.8949ZM271.038 89.3069H271.933V95.9418H271.038V89.3069ZM271.492 87.8563C271.307 87.8563 271.151 87.7933 271.025 87.6671C270.899 87.541 270.836 87.3896 270.836 87.213C270.836 87.0448 270.899 86.8977 271.025 86.7715C271.151 86.6454 271.307 86.5823 271.492 86.5823C271.677 86.5823 271.832 86.6454 271.958 86.7715C272.085 86.8893 272.148 87.0322 272.148 87.2004C272.148 87.3854 272.085 87.541 271.958 87.6671C271.832 87.7933 271.677 87.8563 271.492 87.8563ZM277.692 95.5382C277.524 95.6895 277.318 95.8073 277.074 95.8913C276.83 95.967 276.574 96.0049 276.305 96.0049C275.682 96.0049 275.203 95.8367 274.867 95.5003C274.53 95.164 274.362 94.6888 274.362 94.075V87.8563H275.258V89.3069H277.263V90.0638H275.258V94.0245C275.258 94.4197 275.354 94.7225 275.548 94.9327C275.741 95.1345 276.023 95.2354 276.393 95.2354C276.797 95.2354 277.125 95.1219 277.377 94.8949L277.692 95.5382ZM285.136 89.3069V95.9418H284.278V94.63C284.009 95.0757 283.652 95.4162 283.206 95.6517C282.769 95.8871 282.273 96.0049 281.718 96.0049C281.095 96.0049 280.532 95.8619 280.027 95.576C279.523 95.2901 279.128 94.8907 278.842 94.3777C278.556 93.8647 278.413 93.2803 278.413 92.6244C278.413 91.9684 278.556 91.384 278.842 90.871C279.128 90.3581 279.523 89.9628 280.027 89.6853C280.532 89.3994 281.095 89.2565 281.718 89.2565C282.256 89.2565 282.739 89.37 283.168 89.597C283.606 89.8157 283.963 90.1394 284.24 90.5683V89.3069H285.136ZM281.793 95.2102C282.256 95.2102 282.672 95.1051 283.042 94.8949C283.421 94.6762 283.715 94.3693 283.925 93.974C284.144 93.5788 284.253 93.1289 284.253 92.6244C284.253 92.1198 284.144 91.6699 283.925 91.2747C283.715 90.8795 283.421 90.5767 283.042 90.3665C282.672 90.1479 282.256 90.0385 281.793 90.0385C281.322 90.0385 280.898 90.1479 280.519 90.3665C280.149 90.5767 279.855 90.8795 279.636 91.2747C279.426 91.6699 279.321 92.1198 279.321 92.6244C279.321 93.1289 279.426 93.5788 279.636 93.974C279.855 94.3693 280.149 94.6762 280.519 94.8949C280.898 95.1051 281.322 95.2102 281.793 95.2102ZM289.497 96.0049C288.9 96.0049 288.438 95.8367 288.11 95.5003C287.79 95.164 287.63 94.6972 287.63 94.1002V86.5823H288.526V94.0245C288.526 94.4197 288.618 94.7225 288.803 94.9327C288.988 95.1345 289.266 95.2354 289.636 95.2354C289.871 95.2354 290.073 95.1976 290.241 95.1219L290.304 95.8661C290.044 95.9586 289.775 96.0049 289.497 96.0049ZM300.879 89.3069V95.9418H300.021V94.63C299.752 95.0757 299.394 95.4162 298.949 95.6517C298.512 95.8871 298.015 96.0049 297.46 96.0049C296.838 96.0049 296.275 95.8619 295.77 95.576C295.266 95.2901 294.87 94.8907 294.584 94.3777C294.299 93.8647 294.156 93.2803 294.156 92.6244C294.156 91.9684 294.299 91.384 294.584 90.871C294.87 90.3581 295.266 89.9628 295.77 89.6853C296.275 89.3994 296.838 89.2565 297.46 89.2565C297.999 89.2565 298.482 89.37 298.911 89.597C299.348 89.8157 299.706 90.1394 299.983 90.5683V89.3069H300.879ZM297.536 95.2102C297.999 95.2102 298.415 95.1051 298.785 94.8949C299.163 94.6762 299.458 94.3693 299.668 93.974C299.886 93.5788 299.996 93.1289 299.996 92.6244C299.996 92.1198 299.886 91.6699 299.668 91.2747C299.458 90.8795 299.163 90.5767 298.785 90.3665C298.415 90.1479 297.999 90.0385 297.536 90.0385C297.065 90.0385 296.64 90.1479 296.262 90.3665C295.892 90.5767 295.598 90.8795 295.379 91.2747C295.169 91.6699 295.064 92.1198 295.064 92.6244C295.064 93.1289 295.169 93.5788 295.379 93.974C295.598 94.3693 295.892 94.6762 296.262 94.8949C296.64 95.1051 297.065 95.2102 297.536 95.2102ZM305.151 96.0049C304.613 96.0049 304.096 95.9292 303.6 95.7778C303.112 95.618 302.73 95.4204 302.452 95.185L302.856 94.4786C303.133 94.6972 303.482 94.878 303.903 95.021C304.323 95.1555 304.76 95.2228 305.215 95.2228C305.82 95.2228 306.266 95.1303 306.552 94.9453C306.846 94.7519 306.993 94.4828 306.993 94.138C306.993 93.8942 306.913 93.705 306.753 93.5704C306.594 93.4274 306.392 93.3223 306.148 93.2551C305.904 93.1794 305.58 93.1079 305.177 93.0406C304.638 92.9397 304.205 92.8388 303.877 92.7379C303.549 92.6286 303.268 92.4478 303.032 92.1955C302.805 91.9432 302.692 91.5942 302.692 91.1485C302.692 90.5935 302.923 90.1394 303.386 89.7863C303.848 89.4331 304.491 89.2565 305.315 89.2565C305.744 89.2565 306.173 89.3153 306.602 89.4331C307.031 89.5424 307.384 89.6895 307.662 89.8746L307.271 90.5935C306.724 90.2151 306.072 90.0259 305.315 90.0259C304.744 90.0259 304.311 90.1268 304.016 90.3286C303.73 90.5305 303.587 90.7954 303.587 91.1233C303.587 91.3756 303.667 91.5774 303.827 91.7288C303.995 91.8802 304.201 91.9937 304.445 92.0694C304.689 92.1366 305.025 92.2081 305.454 92.2838C305.984 92.3847 306.409 92.4856 306.728 92.5865C307.048 92.6874 307.321 92.8598 307.548 93.1037C307.775 93.3476 307.889 93.6839 307.889 94.1128C307.889 94.693 307.645 95.1555 307.157 95.5003C306.678 95.8367 306.009 96.0049 305.151 96.0049ZM311.323 96.0049C310.785 96.0049 310.268 95.9292 309.771 95.7778C309.284 95.618 308.901 95.4204 308.624 95.185L309.027 94.4786C309.305 94.6972 309.654 94.878 310.074 95.021C310.495 95.1555 310.932 95.2228 311.386 95.2228C311.991 95.2228 312.437 95.1303 312.723 94.9453C313.017 94.7519 313.164 94.4828 313.164 94.138C313.164 93.8942 313.085 93.705 312.925 93.5704C312.765 93.4274 312.563 93.3223 312.319 93.2551C312.075 93.1794 311.752 93.1079 311.348 93.0406C310.81 92.9397 310.377 92.8388 310.049 92.7379C309.721 92.6286 309.439 92.4478 309.204 92.1955C308.977 91.9432 308.863 91.5942 308.863 91.1485C308.863 90.5935 309.094 90.1394 309.557 89.7863C310.019 89.4331 310.663 89.2565 311.487 89.2565C311.916 89.2565 312.345 89.3153 312.773 89.4331C313.202 89.5424 313.556 89.6895 313.833 89.8746L313.442 90.5935C312.895 90.2151 312.244 90.0259 311.487 90.0259C310.915 90.0259 310.482 90.1268 310.188 90.3286C309.902 90.5305 309.759 90.7954 309.759 91.1233C309.759 91.3756 309.839 91.5774 309.998 91.7288C310.167 91.8802 310.373 91.9937 310.616 92.0694C310.86 92.1366 311.197 92.2081 311.626 92.2838C312.155 92.3847 312.58 92.4856 312.9 92.5865C313.219 92.6874 313.492 92.8598 313.719 93.1037C313.947 93.3476 314.06 93.6839 314.06 94.1128C314.06 94.693 313.816 95.1555 313.328 95.5003C312.849 95.8367 312.181 96.0049 311.323 96.0049ZM318.554 95.2102C318.966 95.2102 319.344 95.1387 319.689 94.9958C320.042 94.8444 320.341 94.6258 320.585 94.3398L321.089 94.9201C320.795 95.2733 320.429 95.5424 319.992 95.7274C319.555 95.9124 319.071 96.0049 318.541 96.0049C317.86 96.0049 317.255 95.8619 316.725 95.576C316.195 95.2817 315.783 94.878 315.489 94.3651C315.194 93.8521 315.047 93.2719 315.047 92.6244C315.047 91.9769 315.186 91.3966 315.463 90.8837C315.749 90.3707 316.14 89.9713 316.637 89.6853C317.133 89.3994 317.696 89.2565 318.327 89.2565C318.915 89.2565 319.445 89.391 319.916 89.6601C320.395 89.9292 320.774 90.3034 321.051 90.7827C321.337 91.2621 321.489 91.8087 321.505 92.4225L316.056 93.4821C316.224 94.0203 316.527 94.445 316.965 94.7561C317.41 95.0588 317.94 95.2102 318.554 95.2102ZM318.327 90.0259C317.864 90.0259 317.448 90.1352 317.078 90.3539C316.716 90.5641 316.431 90.8626 316.22 91.2495C316.018 91.6279 315.918 92.0652 315.918 92.5613C315.918 92.6874 315.922 92.7799 315.93 92.8388L320.61 91.9306C320.509 91.3756 320.253 90.9215 319.84 90.5683C319.428 90.2067 318.924 90.0259 318.327 90.0259ZM326.595 95.5382C326.427 95.6895 326.221 95.8073 325.977 95.8913C325.733 95.967 325.477 96.0049 325.208 96.0049C324.586 96.0049 324.106 95.8367 323.77 95.5003C323.433 95.164 323.265 94.6888 323.265 94.075V87.8563H324.161V89.3069H326.166V90.0638H324.161V94.0245C324.161 94.4197 324.258 94.7225 324.451 94.9327C324.644 95.1345 324.926 95.2354 325.296 95.2354C325.7 95.2354 326.028 95.1219 326.28 94.8949L326.595 95.5382ZM329.997 96.0049C329.459 96.0049 328.942 95.9292 328.446 95.7778C327.958 95.618 327.575 95.4204 327.298 95.185L327.702 94.4786C327.979 94.6972 328.328 94.878 328.748 95.021C329.169 95.1555 329.606 95.2228 330.06 95.2228C330.666 95.2228 331.111 95.1303 331.397 94.9453C331.692 94.7519 331.839 94.4828 331.839 94.138C331.839 93.8942 331.759 93.705 331.599 93.5704C331.439 93.4274 331.238 93.3223 330.994 93.2551C330.75 93.1794 330.426 93.1079 330.022 93.0406C329.484 92.9397 329.051 92.8388 328.723 92.7379C328.395 92.6286 328.114 92.4478 327.878 92.1955C327.651 91.9432 327.538 91.5942 327.538 91.1485C327.538 90.5935 327.769 90.1394 328.231 89.7863C328.694 89.4331 329.337 89.2565 330.161 89.2565C330.59 89.2565 331.019 89.3153 331.448 89.4331C331.877 89.5424 332.23 89.6895 332.507 89.8746L332.116 90.5935C331.57 90.2151 330.918 90.0259 330.161 90.0259C329.589 90.0259 329.156 90.1268 328.862 90.3286C328.576 90.5305 328.433 90.7954 328.433 91.1233C328.433 91.3756 328.513 91.5774 328.673 91.7288C328.841 91.8802 329.047 91.9937 329.291 92.0694C329.535 92.1366 329.871 92.2081 330.3 92.2838C330.83 92.3847 331.254 92.4856 331.574 92.5865C331.894 92.6874 332.167 92.8598 332.394 93.1037C332.621 93.3476 332.734 93.6839 332.734 94.1128C332.734 94.693 332.491 95.1555 332.003 95.5003C331.524 95.8367 330.855 96.0049 329.997 96.0049ZM337.691 89.3069H338.587V95.9418H337.691V89.3069ZM338.145 87.8563C337.96 87.8563 337.805 87.7933 337.679 87.6671C337.553 87.541 337.49 87.3896 337.49 87.213C337.49 87.0448 337.553 86.8977 337.679 86.7715C337.805 86.6454 337.96 86.5823 338.145 86.5823C338.33 86.5823 338.486 86.6454 338.612 86.7715C338.738 86.8893 338.801 87.0322 338.801 87.2004C338.801 87.3854 338.738 87.541 338.612 87.6671C338.486 87.7933 338.33 87.8563 338.145 87.8563ZM344.459 89.2565C345.292 89.2565 345.952 89.5003 346.44 89.9881C346.936 90.4674 347.184 91.1696 347.184 92.0946V95.9418H346.288V92.1829C346.288 91.4933 346.116 90.9678 345.771 90.6062C345.426 90.2446 344.935 90.0638 344.295 90.0638C343.581 90.0638 343.013 90.2782 342.593 90.7071C342.181 91.1275 341.974 91.712 341.974 92.4604V95.9418H341.079V89.3069H341.937V90.5305C342.181 90.1268 342.517 89.8157 342.946 89.597C343.383 89.37 343.888 89.2565 344.459 89.2565ZM149.545 111.005C148.906 111.005 148.33 110.862 147.817 110.576C147.304 110.282 146.901 109.878 146.606 109.365C146.312 108.852 146.165 108.272 146.165 107.624C146.165 106.977 146.312 106.397 146.606 105.884C146.901 105.371 147.304 104.971 147.817 104.685C148.33 104.399 148.906 104.256 149.545 104.256C150.184 104.256 150.76 104.399 151.273 104.685C151.786 104.971 152.186 105.371 152.472 105.884C152.766 106.397 152.913 106.977 152.913 107.624C152.913 108.272 152.766 108.852 152.472 109.365C152.186 109.878 151.786 110.282 151.273 110.576C150.76 110.862 150.184 111.005 149.545 111.005ZM149.545 110.21C150.016 110.21 150.437 110.105 150.807 109.895C151.185 109.676 151.479 109.369 151.69 108.974C151.9 108.579 152.005 108.129 152.005 107.624C152.005 107.12 151.9 106.67 151.69 106.275C151.479 105.879 151.185 105.577 150.807 105.366C150.437 105.148 150.016 105.039 149.545 105.039C149.074 105.039 148.65 105.148 148.271 105.366C147.901 105.577 147.607 105.879 147.388 106.275C147.178 106.67 147.073 107.12 147.073 107.624C147.073 108.129 147.178 108.579 147.388 108.974C147.607 109.369 147.901 109.676 148.271 109.895C148.65 110.105 149.074 110.21 149.545 110.21ZM160.721 104.307V110.942H159.863V109.731C159.627 110.135 159.304 110.45 158.892 110.677C158.48 110.896 158.009 111.005 157.479 111.005C156.613 111.005 155.927 110.765 155.423 110.286C154.927 109.798 154.679 109.088 154.679 108.154V104.307H155.574V108.066C155.574 108.764 155.747 109.294 156.091 109.655C156.436 110.017 156.928 110.198 157.567 110.198C158.265 110.198 158.816 109.987 159.22 109.567C159.623 109.138 159.825 108.545 159.825 107.788V104.307H160.721ZM164.087 105.606C164.297 105.16 164.608 104.824 165.02 104.597C165.44 104.37 165.958 104.256 166.572 104.256V105.127L166.357 105.114C165.659 105.114 165.113 105.329 164.717 105.758C164.322 106.186 164.124 106.788 164.124 107.561V110.942H163.229V104.307H164.087V105.606ZM173.371 111.005C172.833 111.005 172.316 110.929 171.82 110.778C171.332 110.618 170.95 110.42 170.672 110.185L171.076 109.479C171.353 109.697 171.702 109.878 172.123 110.021C172.543 110.156 172.98 110.223 173.435 110.223C174.04 110.223 174.486 110.13 174.772 109.945C175.066 109.752 175.213 109.483 175.213 109.138C175.213 108.894 175.133 108.705 174.973 108.57C174.814 108.427 174.612 108.322 174.368 108.255C174.124 108.179 173.8 108.108 173.397 108.041C172.858 107.94 172.425 107.839 172.097 107.738C171.769 107.629 171.488 107.448 171.252 107.195C171.025 106.943 170.912 106.594 170.912 106.149C170.912 105.594 171.143 105.139 171.606 104.786C172.068 104.433 172.711 104.256 173.535 104.256C173.964 104.256 174.393 104.315 174.822 104.433C175.251 104.542 175.604 104.69 175.882 104.875L175.491 105.594C174.944 105.215 174.292 105.026 173.535 105.026C172.964 105.026 172.531 105.127 172.236 105.329C171.95 105.53 171.807 105.795 171.807 106.123C171.807 106.376 171.887 106.577 172.047 106.729C172.215 106.88 172.421 106.994 172.665 107.069C172.909 107.137 173.245 107.208 173.674 107.284C174.204 107.385 174.629 107.486 174.948 107.587C175.268 107.687 175.541 107.86 175.768 108.104C175.995 108.348 176.109 108.684 176.109 109.113C176.109 109.693 175.865 110.156 175.377 110.5C174.898 110.837 174.229 111.005 173.371 111.005ZM181.031 110.538C180.863 110.69 180.657 110.807 180.413 110.891C180.169 110.967 179.913 111.005 179.644 111.005C179.021 111.005 178.542 110.837 178.206 110.5C177.869 110.164 177.701 109.689 177.701 109.075V102.856H178.597V104.307H180.602V105.064H178.597V109.025C178.597 109.42 178.694 109.722 178.887 109.933C179.08 110.135 179.362 110.235 179.732 110.235C180.136 110.235 180.464 110.122 180.716 109.895L181.031 110.538ZM188.475 104.307V110.942H187.617V109.63C187.348 110.076 186.991 110.416 186.545 110.652C186.108 110.887 185.612 111.005 185.057 111.005C184.435 111.005 183.871 110.862 183.367 110.576C182.862 110.29 182.467 109.891 182.181 109.378C181.895 108.865 181.752 108.28 181.752 107.624C181.752 106.968 181.895 106.384 182.181 105.871C182.467 105.358 182.862 104.963 183.367 104.685C183.871 104.399 184.435 104.256 185.057 104.256C185.595 104.256 186.079 104.37 186.507 104.597C186.945 104.816 187.302 105.139 187.58 105.568V104.307H188.475ZM185.133 110.21C185.595 110.21 186.011 110.105 186.381 109.895C186.76 109.676 187.054 109.369 187.264 108.974C187.483 108.579 187.592 108.129 187.592 107.624C187.592 107.12 187.483 106.67 187.264 106.275C187.054 105.879 186.76 105.577 186.381 105.366C186.011 105.148 185.595 105.039 185.133 105.039C184.662 105.039 184.237 105.148 183.859 105.366C183.489 105.577 183.194 105.879 182.976 106.275C182.765 106.67 182.66 107.12 182.66 107.624C182.66 108.129 182.765 108.579 182.976 108.974C183.194 109.369 183.489 109.676 183.859 109.895C184.237 110.105 184.662 110.21 185.133 110.21ZM194.236 110.538C194.068 110.69 193.862 110.807 193.618 110.891C193.374 110.967 193.118 111.005 192.849 111.005C192.227 111.005 191.747 110.837 191.411 110.5C191.075 110.164 190.906 109.689 190.906 109.075V102.856H191.802V104.307H193.808V105.064H191.802V109.025C191.802 109.42 191.899 109.722 192.092 109.933C192.285 110.135 192.567 110.235 192.937 110.235C193.341 110.235 193.669 110.122 193.921 109.895L194.236 110.538ZM198.464 110.21C198.876 110.21 199.254 110.139 199.599 109.996C199.952 109.844 200.251 109.626 200.495 109.34L200.999 109.92C200.705 110.273 200.339 110.542 199.902 110.727C199.464 110.912 198.981 111.005 198.451 111.005C197.77 111.005 197.165 110.862 196.635 110.576C196.105 110.282 195.693 109.878 195.399 109.365C195.104 108.852 194.957 108.272 194.957 107.624C194.957 106.977 195.096 106.397 195.373 105.884C195.659 105.371 196.05 104.971 196.546 104.685C197.043 104.399 197.606 104.256 198.237 104.256C198.825 104.256 199.355 104.391 199.826 104.66C200.305 104.929 200.684 105.303 200.961 105.783C201.247 106.262 201.399 106.809 201.415 107.423L195.966 108.482C196.134 109.02 196.437 109.445 196.874 109.756C197.32 110.059 197.85 110.21 198.464 110.21ZM198.237 105.026C197.774 105.026 197.358 105.135 196.988 105.354C196.626 105.564 196.34 105.863 196.13 106.249C195.928 106.628 195.828 107.065 195.828 107.561C195.828 107.687 195.832 107.78 195.84 107.839L200.52 106.931C200.419 106.376 200.162 105.921 199.75 105.568C199.338 105.207 198.834 105.026 198.237 105.026ZM202.87 107.132H206.174V107.914H202.87V107.132ZM211.013 111.005C210.374 111.005 209.798 110.862 209.285 110.576C208.772 110.282 208.368 109.878 208.074 109.365C207.78 108.852 207.633 108.272 207.633 107.624C207.633 106.977 207.78 106.397 208.074 105.884C208.368 105.371 208.772 104.971 209.285 104.685C209.798 104.399 210.374 104.256 211.013 104.256C211.652 104.256 212.228 104.399 212.741 104.685C213.254 104.971 213.654 105.371 213.939 105.884C214.234 106.397 214.381 106.977 214.381 107.624C214.381 108.272 214.234 108.852 213.939 109.365C213.654 109.878 213.254 110.282 212.741 110.576C212.228 110.862 211.652 111.005 211.013 111.005ZM211.013 110.21C211.484 110.21 211.904 110.105 212.274 109.895C212.653 109.676 212.947 109.369 213.157 108.974C213.368 108.579 213.473 108.129 213.473 107.624C213.473 107.12 213.368 106.67 213.157 106.275C212.947 105.879 212.653 105.577 212.274 105.366C211.904 105.148 211.484 105.039 211.013 105.039C210.542 105.039 210.117 105.148 209.739 105.366C209.369 105.577 209.075 105.879 208.856 106.275C208.646 106.67 208.541 107.12 208.541 107.624C208.541 108.129 208.646 108.579 208.856 108.974C209.075 109.369 209.369 109.676 209.739 109.895C210.117 110.105 210.542 110.21 211.013 110.21ZM218.253 102.276C217.866 102.276 217.572 102.381 217.37 102.591C217.176 102.802 217.08 103.113 217.08 103.525V104.307H219.123V105.064H217.105V110.942H216.209V103.487C216.209 102.882 216.382 102.402 216.727 102.049C217.08 101.696 217.576 101.519 218.215 101.519C218.467 101.519 218.711 101.557 218.947 101.633C219.182 101.7 219.38 101.801 219.539 101.936L219.237 102.604C218.976 102.385 218.648 102.276 218.253 102.276ZM219.721 107.132H223.026V107.914H219.721V107.132ZM228.296 110.538C228.128 110.69 227.922 110.807 227.678 110.891C227.434 110.967 227.178 111.005 226.909 111.005C226.286 111.005 225.807 110.837 225.471 110.5C225.134 110.164 224.966 109.689 224.966 109.075V102.856H225.862V104.307H227.867V105.064H225.862V109.025C225.862 109.42 225.958 109.722 226.152 109.933C226.345 110.135 226.627 110.235 226.997 110.235C227.401 110.235 227.729 110.122 227.981 109.895L228.296 110.538ZM233.3 104.256C234.133 104.256 234.793 104.5 235.28 104.988C235.777 105.467 236.025 106.17 236.025 107.095V110.942H235.129V107.183C235.129 106.493 234.957 105.968 234.612 105.606C234.267 105.245 233.775 105.064 233.136 105.064C232.421 105.064 231.854 105.278 231.433 105.707C231.021 106.128 230.815 106.712 230.815 107.46V110.942H229.92V101.582H230.815V105.467C231.059 105.081 231.395 104.782 231.824 104.572C232.253 104.362 232.745 104.256 233.3 104.256ZM241.319 110.21C241.731 110.21 242.109 110.139 242.454 109.996C242.807 109.844 243.106 109.626 243.35 109.34L243.854 109.92C243.56 110.273 243.194 110.542 242.757 110.727C242.319 110.912 241.836 111.005 241.306 111.005C240.625 111.005 240.02 110.862 239.49 110.576C238.96 110.282 238.548 109.878 238.254 109.365C237.959 108.852 237.812 108.272 237.812 107.624C237.812 106.977 237.951 106.397 238.228 105.884C238.514 105.371 238.905 104.971 239.401 104.685C239.898 104.399 240.461 104.256 241.092 104.256C241.68 104.256 242.21 104.391 242.681 104.66C243.16 104.929 243.539 105.303 243.816 105.783C244.102 106.262 244.254 106.809 244.27 107.423L238.821 108.482C238.989 109.02 239.292 109.445 239.729 109.756C240.175 110.059 240.705 110.21 241.319 110.21ZM241.092 105.026C240.629 105.026 240.213 105.135 239.843 105.354C239.481 105.564 239.195 105.863 238.985 106.249C238.783 106.628 238.682 107.065 238.682 107.561C238.682 107.687 238.687 107.78 238.695 107.839L243.375 106.931C243.274 106.376 243.017 105.921 242.605 105.568C242.193 105.207 241.689 105.026 241.092 105.026ZM245.725 107.132H249.029V107.914H245.725V107.132ZM257.211 104.307V110.942H256.353V109.63C256.084 110.076 255.727 110.416 255.281 110.652C254.844 110.887 254.347 111.005 253.792 111.005C253.17 111.005 252.607 110.862 252.102 110.576C251.598 110.29 251.202 109.891 250.916 109.378C250.631 108.865 250.488 108.28 250.488 107.624C250.488 106.968 250.631 106.384 250.916 105.871C251.202 105.358 251.598 104.963 252.102 104.685C252.607 104.399 253.17 104.256 253.792 104.256C254.331 104.256 254.814 104.37 255.243 104.597C255.68 104.816 256.038 105.139 256.315 105.568V104.307H257.211ZM253.868 110.21C254.331 110.21 254.747 110.105 255.117 109.895C255.495 109.676 255.79 109.369 256 108.974C256.218 108.579 256.328 108.129 256.328 107.624C256.328 107.12 256.218 106.67 256 106.275C255.79 105.879 255.495 105.577 255.117 105.366C254.747 105.148 254.331 105.039 253.868 105.039C253.397 105.039 252.972 105.148 252.594 105.366C252.224 105.577 251.93 105.879 251.711 106.275C251.501 106.67 251.396 107.12 251.396 107.624C251.396 108.129 251.501 108.579 251.711 108.974C251.93 109.369 252.224 109.676 252.594 109.895C252.972 110.105 253.397 110.21 253.868 110.21ZM260.563 105.606C260.773 105.16 261.084 104.824 261.496 104.597C261.917 104.37 262.434 104.256 263.048 104.256V105.127L262.833 105.114C262.135 105.114 261.589 105.329 261.193 105.758C260.798 106.186 260.6 106.788 260.6 107.561V110.942H259.705V104.307H260.563V105.606ZM267.936 110.538C267.768 110.69 267.562 110.807 267.318 110.891C267.074 110.967 266.818 111.005 266.549 111.005C265.926 111.005 265.447 110.837 265.111 110.5C264.774 110.164 264.606 109.689 264.606 109.075V102.856H265.502V104.307H267.507V105.064H265.502V109.025C265.502 109.42 265.598 109.722 265.792 109.933C265.985 110.135 266.267 110.235 266.637 110.235C267.041 110.235 267.369 110.122 267.621 109.895L267.936 110.538ZM149.583 126.005C148.927 126.005 148.339 125.862 147.817 125.576C147.304 125.29 146.901 124.891 146.606 124.378C146.312 123.856 146.165 123.272 146.165 122.624C146.165 121.977 146.312 121.397 146.606 120.884C146.901 120.371 147.304 119.971 147.817 119.685C148.339 119.399 148.927 119.256 149.583 119.256C150.155 119.256 150.664 119.37 151.109 119.597C151.564 119.816 151.921 120.139 152.182 120.568L151.513 121.022C151.294 120.694 151.017 120.451 150.681 120.291C150.344 120.123 149.978 120.039 149.583 120.039C149.104 120.039 148.671 120.148 148.284 120.366C147.906 120.577 147.607 120.879 147.388 121.275C147.178 121.67 147.073 122.12 147.073 122.624C147.073 123.137 147.178 123.591 147.388 123.987C147.607 124.373 147.906 124.676 148.284 124.895C148.671 125.105 149.104 125.21 149.583 125.21C149.978 125.21 150.344 125.13 150.681 124.971C151.017 124.811 151.294 124.567 151.513 124.239L152.182 124.693C151.921 125.122 151.564 125.45 151.109 125.677C150.655 125.896 150.147 126.005 149.583 126.005ZM154.799 120.606C155.009 120.16 155.32 119.824 155.732 119.597C156.153 119.37 156.67 119.256 157.284 119.256V120.127L157.069 120.114C156.371 120.114 155.825 120.329 155.429 120.758C155.034 121.186 154.837 121.788 154.837 122.561V125.942H153.941V119.307H154.799V120.606ZM164.983 119.307V125.135C164.983 126.261 164.726 127.094 164.213 127.632C163.7 128.179 162.927 128.452 161.892 128.452C161.312 128.452 160.761 128.359 160.24 128.174C159.727 127.998 159.311 127.75 158.991 127.43L159.445 126.749C159.731 127.035 160.084 127.258 160.505 127.418C160.925 127.577 161.375 127.657 161.854 127.657C162.62 127.657 163.183 127.46 163.545 127.064C163.906 126.678 164.087 126.072 164.087 125.248V124.479C163.852 124.865 163.528 125.164 163.116 125.374C162.712 125.584 162.254 125.69 161.741 125.69C160.875 125.69 160.189 125.45 159.685 124.971C159.189 124.483 158.941 123.772 158.941 122.839V119.307H159.836V122.751C159.836 123.448 160.009 123.978 160.353 124.34C160.698 124.701 161.19 124.882 161.829 124.882C162.527 124.882 163.078 124.672 163.482 124.252C163.885 123.823 164.087 123.23 164.087 122.473V119.307H164.983ZM170.909 119.256C171.532 119.256 172.095 119.399 172.6 119.685C173.104 119.963 173.499 120.358 173.785 120.871C174.071 121.384 174.214 121.968 174.214 122.624C174.214 123.289 174.071 123.877 173.785 124.39C173.499 124.903 173.104 125.303 172.6 125.589C172.103 125.866 171.54 126.005 170.909 126.005C170.371 126.005 169.883 125.896 169.446 125.677C169.017 125.45 168.664 125.122 168.387 124.693V128.389H167.491V119.307H168.349V120.619C168.618 120.181 168.971 119.845 169.408 119.61C169.854 119.374 170.354 119.256 170.909 119.256ZM170.846 125.21C171.309 125.21 171.729 125.105 172.108 124.895C172.486 124.676 172.78 124.369 172.991 123.974C173.209 123.579 173.319 123.129 173.319 122.624C173.319 122.12 173.209 121.674 172.991 121.287C172.78 120.892 172.486 120.585 172.108 120.366C171.729 120.148 171.309 120.039 170.846 120.039C170.375 120.039 169.951 120.148 169.572 120.366C169.202 120.585 168.908 120.892 168.689 121.287C168.479 121.674 168.374 122.12 168.374 122.624C168.374 123.129 168.479 123.579 168.689 123.974C168.908 124.369 169.202 124.676 169.572 124.895C169.951 125.105 170.375 125.21 170.846 125.21ZM179.307 125.538C179.139 125.69 178.933 125.807 178.689 125.891C178.445 125.967 178.188 126.005 177.919 126.005C177.297 126.005 176.818 125.837 176.481 125.5C176.145 125.164 175.977 124.689 175.977 124.075V117.856H176.872V119.307H178.878V120.064H176.872V124.025C176.872 124.42 176.969 124.722 177.162 124.933C177.356 125.135 177.638 125.235 178.008 125.235C178.411 125.235 178.739 125.122 178.991 124.895L179.307 125.538ZM183.408 126.005C182.769 126.005 182.193 125.862 181.68 125.576C181.167 125.282 180.763 124.878 180.469 124.365C180.175 123.852 180.028 123.272 180.028 122.624C180.028 121.977 180.175 121.397 180.469 120.884C180.763 120.371 181.167 119.971 181.68 119.685C182.193 119.399 182.769 119.256 183.408 119.256C184.047 119.256 184.623 119.399 185.136 119.685C185.649 119.971 186.049 120.371 186.334 120.884C186.629 121.397 186.776 121.977 186.776 122.624C186.776 123.272 186.629 123.852 186.334 124.365C186.049 124.878 185.649 125.282 185.136 125.576C184.623 125.862 184.047 126.005 183.408 126.005ZM183.408 125.21C183.879 125.21 184.299 125.105 184.669 124.895C185.048 124.676 185.342 124.369 185.552 123.974C185.763 123.579 185.868 123.129 185.868 122.624C185.868 122.12 185.763 121.67 185.552 121.275C185.342 120.879 185.048 120.577 184.669 120.366C184.299 120.148 183.879 120.039 183.408 120.039C182.937 120.039 182.512 120.148 182.134 120.366C181.764 120.577 181.47 120.879 181.251 121.275C181.041 121.67 180.936 122.12 180.936 122.624C180.936 123.129 181.041 123.579 181.251 123.974C181.47 124.369 181.764 124.676 182.134 124.895C182.512 125.105 182.937 125.21 183.408 125.21ZM191.354 126.005C190.698 126.005 190.11 125.862 189.588 125.576C189.075 125.29 188.672 124.891 188.377 124.378C188.083 123.856 187.936 123.272 187.936 122.624C187.936 121.977 188.083 121.397 188.377 120.884C188.672 120.371 189.075 119.971 189.588 119.685C190.11 119.399 190.698 119.256 191.354 119.256C191.926 119.256 192.435 119.37 192.88 119.597C193.335 119.816 193.692 120.139 193.953 120.568L193.284 121.022C193.065 120.694 192.788 120.451 192.452 120.291C192.115 120.123 191.749 120.039 191.354 120.039C190.875 120.039 190.442 120.148 190.055 120.366C189.676 120.577 189.378 120.879 189.159 121.275C188.949 121.67 188.844 122.12 188.844 122.624C188.844 123.137 188.949 123.591 189.159 123.987C189.378 124.373 189.676 124.676 190.055 124.895C190.442 125.105 190.875 125.21 191.354 125.21C191.749 125.21 192.115 125.13 192.452 124.971C192.788 124.811 193.065 124.567 193.284 124.239L193.953 124.693C193.692 125.122 193.335 125.45 192.88 125.677C192.426 125.896 191.918 126.005 191.354 126.005ZM201.691 119.307V125.942H200.833V124.731C200.598 125.135 200.274 125.45 199.862 125.677C199.45 125.896 198.979 126.005 198.449 126.005C197.583 126.005 196.898 125.765 196.393 125.286C195.897 124.798 195.649 124.088 195.649 123.154V119.307H196.544V123.066C196.544 123.764 196.717 124.294 197.062 124.655C197.406 125.017 197.898 125.198 198.537 125.198C199.235 125.198 199.786 124.987 200.19 124.567C200.593 124.138 200.795 123.545 200.795 122.788V119.307H201.691ZM205.057 120.606C205.267 120.16 205.578 119.824 205.99 119.597C206.411 119.37 206.928 119.256 207.542 119.256V120.127L207.327 120.114C206.629 120.114 206.083 120.329 205.688 120.758C205.292 121.186 205.095 121.788 205.095 122.561V125.942H204.199V119.307H205.057V120.606ZM210.021 120.606C210.231 120.16 210.542 119.824 210.955 119.597C211.375 119.37 211.892 119.256 212.506 119.256V120.127L212.292 120.114C211.594 120.114 211.047 120.329 210.652 120.758C210.257 121.186 210.059 121.788 210.059 122.561V125.942H209.163V119.307H210.021V120.606ZM216.904 125.21C217.316 125.21 217.695 125.139 218.039 124.996C218.393 124.844 218.691 124.626 218.935 124.34L219.44 124.92C219.145 125.273 218.779 125.542 218.342 125.727C217.905 125.912 217.421 126.005 216.892 126.005C216.21 126.005 215.605 125.862 215.075 125.576C214.545 125.282 214.133 124.878 213.839 124.365C213.545 123.852 213.397 123.272 213.397 122.624C213.397 121.977 213.536 121.397 213.814 120.884C214.1 120.371 214.491 119.971 214.987 119.685C215.483 119.399 216.046 119.256 216.677 119.256C217.266 119.256 217.796 119.391 218.266 119.66C218.746 119.929 219.124 120.303 219.402 120.783C219.688 121.262 219.839 121.809 219.856 122.423L214.407 123.482C214.575 124.02 214.878 124.445 215.315 124.756C215.76 125.059 216.29 125.21 216.904 125.21ZM216.677 120.026C216.215 120.026 215.798 120.135 215.428 120.354C215.067 120.564 214.781 120.863 214.571 121.249C214.369 121.628 214.268 122.065 214.268 122.561C214.268 122.687 214.272 122.78 214.28 122.839L218.96 121.931C218.859 121.376 218.603 120.921 218.191 120.568C217.779 120.207 217.274 120.026 216.677 120.026ZM225.059 119.256C225.892 119.256 226.552 119.5 227.04 119.988C227.536 120.467 227.784 121.17 227.784 122.095V125.942H226.888V122.183C226.888 121.493 226.716 120.968 226.371 120.606C226.026 120.245 225.534 120.064 224.895 120.064C224.18 120.064 223.613 120.278 223.192 120.707C222.78 121.128 222.574 121.712 222.574 122.46V125.942H221.679V119.307H222.536V120.53C222.78 120.127 223.117 119.816 223.546 119.597C223.983 119.37 224.487 119.256 225.059 119.256ZM232.99 126.005C232.334 126.005 231.745 125.862 231.224 125.576C230.711 125.29 230.307 124.891 230.013 124.378C229.718 123.856 229.571 123.272 229.571 122.624C229.571 121.977 229.718 121.397 230.013 120.884C230.307 120.371 230.711 119.971 231.224 119.685C231.745 119.399 232.334 119.256 232.99 119.256C233.561 119.256 234.07 119.37 234.516 119.597C234.97 119.816 235.327 120.139 235.588 120.568L234.92 121.022C234.701 120.694 234.423 120.451 234.087 120.291C233.751 120.123 233.385 120.039 232.99 120.039C232.51 120.039 232.077 120.148 231.69 120.366C231.312 120.577 231.013 120.879 230.795 121.275C230.585 121.67 230.479 122.12 230.479 122.624C230.479 123.137 230.585 123.591 230.795 123.987C231.013 124.373 231.312 124.676 231.69 124.895C232.077 125.105 232.51 125.21 232.99 125.21C233.385 125.21 233.751 125.13 234.087 124.971C234.423 124.811 234.701 124.567 234.92 124.239L235.588 124.693C235.327 125.122 234.97 125.45 234.516 125.677C234.062 125.896 233.553 126.005 232.99 126.005ZM243.326 119.307V125.135C243.326 126.261 243.07 127.094 242.557 127.632C242.044 128.179 241.27 128.452 240.236 128.452C239.656 128.452 239.105 128.359 238.584 128.174C238.071 127.998 237.654 127.75 237.335 127.43L237.789 126.749C238.075 127.035 238.428 127.258 238.848 127.418C239.269 127.577 239.719 127.657 240.198 127.657C240.963 127.657 241.527 127.46 241.888 127.064C242.25 126.678 242.431 126.072 242.431 125.248V124.479C242.195 124.865 241.872 125.164 241.46 125.374C241.056 125.584 240.598 125.69 240.085 125.69C239.218 125.69 238.533 125.45 238.029 124.971C237.532 124.483 237.284 123.772 237.284 122.839V119.307H238.18V122.751C238.18 123.448 238.352 123.978 238.697 124.34C239.042 124.701 239.534 124.882 240.173 124.882C240.871 124.882 241.422 124.672 241.825 124.252C242.229 123.823 242.431 123.23 242.431 122.473V119.307H243.326ZM259.366 119.307V122.978C259.366 123.961 259.13 124.714 258.659 125.235C258.188 125.748 257.495 126.005 256.578 126.005C255.998 126.005 255.51 125.896 255.115 125.677C254.728 125.45 254.43 125.092 254.219 124.605C254.009 125.084 253.711 125.437 253.324 125.664C252.937 125.891 252.449 126.005 251.861 126.005C250.944 126.005 250.25 125.748 249.779 125.235C249.308 124.714 249.073 123.961 249.073 122.978V119.307H249.968V122.902C249.968 123.684 250.12 124.264 250.423 124.643C250.725 125.013 251.205 125.198 251.861 125.198C252.508 125.198 252.987 125.008 253.298 124.63C253.618 124.252 253.778 123.667 253.778 122.877V119.307H254.673V122.877C254.673 123.667 254.829 124.252 255.14 124.63C255.451 125.008 255.935 125.198 256.591 125.198C257.23 125.198 257.701 125.013 258.003 124.643C258.315 124.264 258.47 123.684 258.47 122.902V119.307H259.366ZM267.854 119.307V125.942H266.996V124.63C266.727 125.076 266.369 125.416 265.924 125.652C265.486 125.887 264.99 126.005 264.435 126.005C263.813 126.005 263.25 125.862 262.745 125.576C262.24 125.29 261.845 124.891 261.559 124.378C261.273 123.865 261.13 123.28 261.13 122.624C261.13 121.968 261.273 121.384 261.559 120.871C261.845 120.358 262.24 119.963 262.745 119.685C263.25 119.399 263.813 119.256 264.435 119.256C264.973 119.256 265.457 119.37 265.886 119.597C266.323 119.816 266.681 120.139 266.958 120.568V119.307H267.854ZM264.511 125.21C264.973 125.21 265.39 125.105 265.76 124.895C266.138 124.676 266.432 124.369 266.643 123.974C266.861 123.579 266.971 123.129 266.971 122.624C266.971 122.12 266.861 121.67 266.643 121.275C266.432 120.879 266.138 120.577 265.76 120.366C265.39 120.148 264.973 120.039 264.511 120.039C264.04 120.039 263.615 120.148 263.237 120.366C262.867 120.577 262.573 120.879 262.354 121.275C262.144 121.67 262.039 122.12 262.039 122.624C262.039 123.129 262.144 123.579 262.354 123.974C262.573 124.369 262.867 124.676 263.237 124.895C263.615 125.105 264.04 125.21 264.511 125.21ZM272.215 126.005C271.618 126.005 271.155 125.837 270.827 125.5C270.508 125.164 270.348 124.697 270.348 124.1V116.582H271.243V124.025C271.243 124.42 271.336 124.722 271.521 124.933C271.706 125.135 271.983 125.235 272.353 125.235C272.589 125.235 272.791 125.198 272.959 125.122L273.022 125.866C272.761 125.959 272.492 126.005 272.215 126.005ZM276.107 126.005C275.51 126.005 275.048 125.837 274.72 125.5C274.4 125.164 274.24 124.697 274.24 124.1V116.582H275.136V124.025C275.136 124.42 275.228 124.722 275.413 124.933C275.598 125.135 275.876 125.235 276.246 125.235C276.481 125.235 276.683 125.198 276.851 125.122L276.915 125.866C276.654 125.959 276.385 126.005 276.107 126.005ZM280.848 125.21C281.26 125.21 281.638 125.139 281.983 124.996C282.336 124.844 282.635 124.626 282.879 124.34L283.383 124.92C283.089 125.273 282.723 125.542 282.286 125.727C281.849 125.912 281.365 126.005 280.835 126.005C280.154 126.005 279.549 125.862 279.019 125.576C278.489 125.282 278.077 124.878 277.783 124.365C277.488 123.852 277.341 123.272 277.341 122.624C277.341 121.977 277.48 121.397 277.757 120.884C278.043 120.371 278.434 119.971 278.931 119.685C279.427 119.399 279.99 119.256 280.621 119.256C281.209 119.256 281.739 119.391 282.21 119.66C282.689 119.929 283.068 120.303 283.345 120.783C283.631 121.262 283.783 121.809 283.8 122.423L278.35 123.482C278.519 124.02 278.821 124.445 279.259 124.756C279.704 125.059 280.234 125.21 280.848 125.21ZM280.621 120.026C280.158 120.026 279.742 120.135 279.372 120.354C279.01 120.564 278.725 120.863 278.514 121.249C278.312 121.628 278.212 122.065 278.212 122.561C278.212 122.687 278.216 122.78 278.224 122.839L282.904 121.931C282.803 121.376 282.547 120.921 282.134 120.568C281.722 120.207 281.218 120.026 280.621 120.026ZM288.889 125.538C288.721 125.69 288.515 125.807 288.271 125.891C288.027 125.967 287.771 126.005 287.502 126.005C286.88 126.005 286.4 125.837 286.064 125.5C285.728 125.164 285.559 124.689 285.559 124.075V117.856H286.455V119.307H288.461V120.064H286.455V124.025C286.455 124.42 286.552 124.722 286.745 124.933C286.938 125.135 287.22 125.235 287.59 125.235C287.994 125.235 288.322 125.122 288.574 124.895L288.889 125.538ZM290.724 126.005C290.539 126.005 290.379 125.938 290.245 125.803C290.119 125.669 290.056 125.505 290.056 125.311C290.056 125.118 290.119 124.958 290.245 124.832C290.379 124.697 290.539 124.63 290.724 124.63C290.909 124.63 291.069 124.697 291.204 124.832C291.338 124.958 291.405 125.118 291.405 125.311C291.405 125.505 291.338 125.669 291.204 125.803C291.069 125.938 290.909 126.005 290.724 126.005Z" fill="#C9C9C9"/>
<defs>
<linearGradient id="paint0_linear_1051_1520" x1="108.553" y1="100.383" x2="12.6125" y2="81.2355" gradientUnits="userSpaceOnUse">
<stop stop-color="#90C626"/>
<stop offset="1" stop-color="#20934A"/>
</linearGradient>
<linearGradient id="paint1_linear_1051_1520" x1="85.8958" y1="85.6596" x2="43.7193" y2="78.5956" gradientUnits="userSpaceOnUse">
<stop stop-color="#90C626"/>
<stop offset="1" stop-color="#20934A"/>
</linearGradient>
<linearGradient id="paint2_linear_1051_1520" x1="261.098" y1="22.9748" x2="261.098" y2="76.0582" gradientUnits="userSpaceOnUse">
<stop stop-color="#90C626"/>
<stop offset="1" stop-color="#20934A"/>
</linearGradient>
</defs>
</svg>
