<svg width="19" height="20" viewBox="0 0 19 20" fill="none" xmlns="http://www.w3.org/2000/svg">
<path d="M8.76138 10.8284L4.34185 15.0729C3.88605 15.5107 3.88605 16.234 4.34185 16.6717C4.79764 17.1094 5.55078 17.1094 6.00657 16.6717L9.5739 13.2457L13.1412 16.6717C13.597 17.1094 14.3502 17.1094 14.806 16.6717C15.0437 16.4433 15.1429 16.1578 15.1429 15.8723C15.1429 15.5868 15.024 15.2823 14.806 15.0729L10.3864 10.8284C9.97017 10.3905 9.21703 10.3905 8.76124 10.8284L8.76138 10.8284Z" fill="#C5D82E"/>
<path d="M8.75293 4.32523L4.34124 8.55885C3.88626 8.99547 3.88626 9.71693 4.34124 10.1536C4.79622 10.5902 5.54802 10.5902 6.003 10.1536L9.56401 6.73627L13.1448 10.1725C13.5998 10.6092 14.3516 10.6092 14.8066 10.1725C15.0439 9.94476 15.1429 9.65991 15.1429 9.37517C15.1429 9.09045 15.0242 8.78667 14.8066 8.57781L10.3949 4.34418C9.95964 3.8885 9.2078 3.8885 8.75286 4.32511L8.75293 4.32523Z" fill="#C5D82E"/>
</svg>
