<svg width="173" height="173" viewBox="0 0 173 173" fill="none" xmlns="http://www.w3.org/2000/svg">
<path fill-rule="evenodd" clip-rule="evenodd" d="M86.5 172.333C134.089 172.333 172.667 133.755 172.667 86.1666C172.667 38.5781 134.089 0 86.5 0C54.5107 0 26.593 17.4319 11.7275 43.3147L7.9184 50.7649C6.54368 53.8117 5.34093 56.9526 4.32255 60.1755C3.87648 61.6041 2.86556 65.0422 2.39048 67.3659C1.04371 73.4177 0.333374 79.7092 0.333374 86.1666C0.333374 94.6201 1.55072 102.789 3.81966 110.508C4.3837 112.543 5.69852 116.15 6.28542 117.699C7.6079 121.06 9.13558 124.319 10.853 127.459L15.1355 134.471C30.6312 157.319 56.8123 172.333 86.5 172.333ZM86.5 166.778C130.959 166.778 167 130.737 167 86.2777C167 41.8188 130.959 5.77771 86.5 5.77771C42.0411 5.77771 6 41.8188 6 86.2777C6 130.737 42.0411 166.778 86.5 166.778Z" fill="url(#paint0_linear_1502_1362)"/>
<ellipse cx="87.3334" cy="85.8889" rx="65" ry="64" fill="#38ED7A" fill-opacity="0.1"/>
<path fill-rule="evenodd" clip-rule="evenodd" d="M136.552 86.5C136.552 114.39 113.943 137 86.0521 137C58.1617 137 35.5521 114.39 35.5521 86.5C35.5521 58.6096 58.1617 36 86.0521 36C113.943 36 136.552 58.6096 136.552 86.5ZM96.0771 56.3282L101.355 61.6066C107.769 68.0199 107.769 78.4182 101.355 84.8319L96.0766 90.11L93.1496 87.183L93.5512 88.676L88.7789 89.9598C82.9811 91.5192 77.0168 88.0836 75.4572 82.2857L74.1734 77.5135L78.9457 76.2297C81.5335 75.5337 84.1545 75.8328 86.4022 76.8928C85.1855 71.5679 86.6509 65.7541 90.7982 61.6067L96.0771 56.3282ZM108.096 89.1043C108.97 88.7754 109.963 89.0739 110.509 89.833C111.132 90.6978 110.99 91.9064 110.191 92.6051L92.3178 104.915C90.3426 106.323 87.9312 106.923 85.5256 106.604L72.3977 104.422C70.3733 104.086 68.3274 104.6 66.7108 105.835L68.349 108.232L62.9695 111.909L55.8076 101.431L61.1871 97.7537L61.9901 98.9284L73.8092 92.4201C74.978 91.7764 76.2999 91.4825 77.6312 91.5689L89.4859 92.3418C89.971 92.3729 90.4146 92.5917 90.7354 92.9572C91.0561 93.3226 91.2151 93.7909 91.1835 94.2758C91.1256 95.1639 90.4369 95.8717 89.5557 95.9675L80.6269 96.8949C80.0621 96.9408 79.652 97.4589 79.7108 98.0236C79.7698 98.588 80.2748 98.9985 80.8395 98.9397L89.7684 98.0124C91.6485 97.8216 93.1114 96.3019 93.2353 94.4097C93.243 94.289 93.2458 94.1693 93.2424 94.0503L108.058 89.1179L108.083 89.1088L108.096 89.1043Z" fill="url(#paint1_linear_1502_1362)"/>
<defs>
<linearGradient id="paint0_linear_1502_1362" x1="162.626" y1="146.729" x2="-12.6301" y2="111.753" gradientUnits="userSpaceOnUse">
<stop stop-color="#90C626"/>
<stop offset="1" stop-color="#20934A"/>
</linearGradient>
<linearGradient id="paint1_linear_1502_1362" x1="130.667" y1="121.994" x2="27.9546" y2="101.496" gradientUnits="userSpaceOnUse">
<stop stop-color="#90C626"/>
<stop offset="1" stop-color="#20934A"/>
</linearGradient>
</defs>
</svg>
