<svg width="36" height="36" viewBox="0 0 36 36" fill="none" xmlns="http://www.w3.org/2000/svg">
<path d="M30.816 3.6001H5.18398C4.76387 3.6001 4.36098 3.76698 4.06392 4.06404C3.76686 4.3611 3.59998 4.76399 3.59998 5.1841V30.8161C3.59998 31.0241 3.64095 31.2301 3.72055 31.4223C3.80015 31.6145 3.91683 31.7891 4.06392 31.9362C4.21101 32.0832 4.38563 32.1999 4.57781 32.2795C4.76999 32.3591 4.97596 32.4001 5.18398 32.4001H18.9792V21.2401H15.2352V16.9201H18.9792V13.6801C18.9016 12.9194 18.9914 12.151 19.2423 11.4287C19.4932 10.7064 19.899 10.0478 20.4314 9.49893C20.9637 8.9501 21.6097 8.52438 22.324 8.25164C23.0384 7.9789 23.8037 7.86574 24.5664 7.9201C25.6872 7.9132 26.8074 7.9709 27.9216 8.0929V11.9809H25.632C23.8176 11.9809 23.472 12.8449 23.472 14.0977V16.8769H27.792L27.2304 21.1969H23.472V32.4001H30.816C31.024 32.4001 31.23 32.3591 31.4221 32.2795C31.6143 32.1999 31.7889 32.0832 31.936 31.9362C32.0831 31.7891 32.1998 31.6145 32.2794 31.4223C32.359 31.2301 32.4 31.0241 32.4 30.8161V5.1841C32.4 4.97608 32.359 4.77011 32.2794 4.57793C32.1998 4.38575 32.0831 4.21113 31.936 4.06404C31.7889 3.91695 31.6143 3.80028 31.4221 3.72067C31.23 3.64107 31.024 3.6001 30.816 3.6001Z" fill="url(#paint0_linear_1268_135)"/>
<defs>
<linearGradient id="paint0_linear_1268_135" x1="19.0946" y1="5.1001" x2="19.0946" y2="32.4001" gradientUnits="userSpaceOnUse">
<stop stop-color="#90C626"/>
<stop offset="1" stop-color="#20934A"/>
</linearGradient>
</defs>
</svg>
