<svg width="207" height="55" viewBox="0 0 251 66" fill="none" xmlns="http://www.w3.org/2000/svg">
<path fill-rule="evenodd" clip-rule="evenodd" d="M97.7759 44.5691C93.7954 50.9745 86.6121 55.2505 78.4118 55.2505C65.8921 55.2505 55.7429 45.2834 55.7429 32.9883C55.7429 20.6932 65.8921 10.7261 78.4118 10.7261C87.0246 10.7261 94.5155 15.4431 98.352 22.3901C98.2422 22.4791 98.1341 22.5699 98.0275 22.6624C94.2745 15.801 86.8979 11.1358 78.4118 11.1358C66.1226 11.1358 56.1601 20.9195 56.1601 32.9883C56.1601 45.0571 66.1226 54.8408 78.4118 54.8408C86.4945 54.8408 93.5706 50.6087 97.4679 44.2778C97.5689 44.3765 97.6716 44.4736 97.7759 44.5691ZM97.2665 44.0766C93.4258 50.3616 86.419 54.5677 78.4118 54.5677C66.2762 54.5677 56.4383 44.9063 56.4383 32.9883C56.4383 21.0704 66.2762 11.409 78.4118 11.409C86.8164 11.409 94.119 16.0429 97.8148 22.8511C97.7119 22.9445 97.6105 23.0394 97.5107 23.1361C93.9001 16.3995 86.7022 11.8061 78.4118 11.8061C66.4995 11.8061 56.8427 21.2897 56.8427 32.9883C56.8427 44.6869 66.4995 54.1705 78.4118 54.1705C86.3135 54.1705 93.2227 49.9978 96.9795 43.7737C97.0736 43.8763 97.1693 43.9772 97.2665 44.0766ZM96.7772 43.5481C93.9401 48.2966 89.2479 51.8471 83.6781 53.2398C83.6342 53.3718 83.5207 53.477 83.3721 53.5051L81.8773 53.7882C81.7344 53.8152 81.5947 53.7644 81.5035 53.6658C80.4942 53.8101 79.4619 53.8848 78.4118 53.8848C66.6602 53.8848 57.1336 44.5291 57.1336 32.9883C57.1336 31.0636 57.3986 29.1997 57.8947 27.4298C57.7878 27.3647 57.7361 27.2341 57.7774 27.1118L58.3338 25.4627C58.376 25.3377 58.5012 25.2627 58.6293 25.2771C61.7539 17.5529 69.4335 12.0919 78.4118 12.0919C86.6232 12.0919 93.7482 16.6597 97.2958 23.3491C97.1996 23.4468 97.1048 23.5461 97.0116 23.6469C93.5512 17.0151 86.5212 12.4765 78.4118 12.4765C69.6038 12.4765 62.0692 17.8308 58.9987 25.4059C59.0921 25.4744 59.1349 25.5962 59.0963 25.7108L58.5399 27.3599C58.5003 27.4771 58.3877 27.5504 58.2681 27.5471C57.7839 29.2799 57.5253 31.1045 57.5253 32.9883C57.5253 44.3167 66.8765 53.5002 78.4118 53.5002C79.4319 53.5002 80.4348 53.4284 81.4158 53.2896C81.4569 53.1526 81.5725 53.0424 81.7252 53.0135L83.22 52.7305C83.3671 52.7026 83.511 52.7575 83.6018 52.8619C89.107 51.4795 93.7367 47.949 96.5104 43.2335C96.5978 43.3399 96.6867 43.4447 96.7772 43.5481ZM96.3079 42.9807C92.7659 49.0856 86.0783 53.2019 78.4118 53.2019C78.2257 53.2019 78.0402 53.1995 77.8553 53.1946V53.2022H77.4381V53.1797C66.5226 52.6804 57.829 43.8314 57.829 32.9883C57.829 22.0533 66.6706 13.1464 77.716 12.7861V12.7752H78.1333V12.7766C78.226 12.7754 78.3188 12.7747 78.4118 12.7747C83.3515 12.7747 87.8848 14.4836 91.4321 17.3322C91.5675 17.2837 91.725 17.3086 91.8394 17.41L92.9692 18.4121C93.0868 18.5165 93.127 18.6737 93.086 18.814C94.5736 20.2991 95.8292 22.009 96.7951 23.887C96.7052 23.9892 96.6169 24.093 96.53 24.1983C95.5736 22.3007 94.3173 20.575 92.8219 19.0808C92.6902 19.1218 92.5406 19.095 92.4307 18.9976L91.3009 17.9955C91.1878 17.8952 91.1464 17.7461 91.1797 17.6101C87.6995 14.8201 83.2546 13.1468 78.4118 13.1468C78.3188 13.1468 78.226 13.1474 78.1333 13.1486V13.4595L78.1337 13.7991L78.1537 13.8187L78.1333 13.819V14.1425C78.226 14.1412 78.3188 14.1405 78.4118 14.1405L78.4118 14.4874C78.3188 14.4874 78.226 14.4881 78.1333 14.4894V14.8254C78.226 14.8241 78.3188 14.8234 78.4118 14.8234L78.4118 15.1577C78.3188 15.1577 78.226 15.1584 78.1333 15.1598V15.234H77.9423C78.1289 15.2404 78.2887 15.3499 78.3646 15.5064L78.4118 15.5063V15.916L78.4117 16.1892L78.4118 16.5829L78.4117 16.8721L78.4118 17.2498L78.4117 17.555L78.4118 17.9167L78.4117 18.034C78.4117 18.298 78.1938 18.5121 77.9249 18.5121C77.656 18.5121 77.4381 18.298 77.4381 18.034V15.7118C77.4381 15.4534 77.6467 15.243 77.9075 15.234H77.716V15.1706C77.6465 15.1732 77.5771 15.1761 77.5078 15.1795V14.8447C77.5771 14.8415 77.6465 14.8386 77.716 14.836V14.4998C77.6465 14.5023 77.5771 14.5051 77.5078 14.5083V14.1611C77.5771 14.1579 77.6465 14.1551 77.716 14.1527V13.8291L77.6929 13.8299L77.716 13.7996V13.1583C66.8799 13.5185 58.2078 22.2588 58.2078 32.9883C58.2078 43.4874 66.5114 52.0819 77.0211 52.7836V52.7921H77.1559C77.2497 52.7978 77.3438 52.8028 77.4381 52.8072V50.7434H77.6297C77.3688 50.7344 77.1601 50.5239 77.1601 50.2655V47.9433C77.1601 47.6793 77.3781 47.4652 77.647 47.4652C77.9159 47.4652 78.1338 47.6793 78.1338 47.9433V50.2655C78.1338 50.5239 77.9251 50.7344 77.6643 50.7434H77.8553V50.8107L77.8555 51.1452L77.8553 51.4813L77.8555 51.8283L77.8553 52.1519L77.8555 52.5115L77.8553 52.8225C78.0402 52.8274 78.2257 52.8299 78.4118 52.8299C85.9969 52.8299 92.6057 48.725 96.0606 42.6539C96.1415 42.7643 96.2239 42.8733 96.3079 42.9807ZM95.8584 42.3706C92.4787 48.4189 85.9328 52.519 78.4118 52.519C78.3654 52.519 78.3191 52.5188 78.2727 52.5185V51.8356V51.4887L78.3319 51.4891L78.4118 51.4892C85.7493 51.4892 92.1071 47.3696 95.2176 41.3571C95.2865 41.4769 95.3568 41.5953 95.4286 41.7124C92.2435 47.6919 85.8864 51.7845 78.551 51.8356V52.1591C85.9441 52.1084 92.3606 48.0216 95.6297 42.0306C95.7045 42.1454 95.7807 42.2587 95.8584 42.3706ZM95.018 40.9976C92.0039 47.0134 85.7001 51.1532 78.4118 51.1532L78.3625 51.1531L78.2727 51.1527V50.88L78.6218 50.8177C85.7782 50.7381 91.9401 46.5923 94.8244 40.6226C94.8869 40.7484 94.9515 40.8735 95.018 40.9976ZM94.628 40.2102C92.4451 44.9298 88.1888 48.5283 83.0012 49.8838L83.0007 49.6512L83.0012 48.7668C88.1051 47.3378 92.2115 43.5849 94.0585 38.7475C94.1216 38.9408 94.1887 39.1325 94.26 39.3227C92.3145 44.0124 88.2734 47.6446 83.2789 49.0977V49.3824C88.2959 47.9484 92.3758 44.3536 94.4044 39.6922C94.4754 39.8663 94.5499 40.039 94.628 40.2102ZM93.3656 35.2817L92.5972 36.5393H90.3721V36.9491H88.9814V35.5833H90.3721V36.1296H92.5972L93.338 34.9172C93.3459 35.0392 93.3551 35.1607 93.3656 35.2817ZM93.4616 36.1359L93.3965 36.2585C92.2072 41.538 88.1987 45.777 83.0012 47.3745V48.4658C88.1039 47.0091 92.1805 43.1846 93.9159 38.2839C93.8511 38.0597 93.7915 37.8336 93.7371 37.6055C92.2006 42.5302 88.2703 46.4272 83.2789 47.9879V47.6672C88.3118 46.0589 92.2295 42.0236 93.5996 36.9681C93.5464 36.6932 93.5004 36.4158 93.4616 36.1359ZM93.2998 33.8007L92.5972 34.4907H90.3721V35.037H88.9814V33.6712H90.3721V34.0809H92.5972L93.3027 33.3881C93.3007 33.501 93.2997 33.6142 93.2997 33.7278C93.2997 33.7521 93.2997 33.7764 93.2998 33.8007ZM93.366 32.1688H90.3721V32.7152H88.9814V31.3494H90.3721V31.7591H93.4066C93.3915 31.8951 93.3779 32.0317 93.366 32.1688ZM93.5461 30.7788L92.5972 29.847H90.3721V30.3933H88.9814V29.0275H90.3721V29.4373H92.5972L93.6104 30.4322C93.5877 30.5473 93.5662 30.6628 93.5461 30.7788ZM93.7179 29.9317L91.7628 27.7983H90.3721V28.3447H88.9814V26.9789H90.3721V27.3886H91.7628L93.7969 29.6082C93.7694 29.7156 93.743 29.8234 93.7179 29.9317ZM93.9584 29.0275H93.926C92.5693 23.8877 88.6342 19.7678 83.5573 18.0786V18.4012C88.3716 20.0388 92.1236 23.9101 93.5278 28.7528L92.8719 27.9269C91.2947 23.5814 87.744 20.1558 83.2794 18.6905L83.2791 18.5114L83.2794 17.5928C88.5009 19.1833 92.6063 23.2651 94.1548 28.4233C94.0849 28.623 94.0195 28.8245 93.9584 29.0275ZM94.3214 27.9718C92.654 22.8677 88.5105 18.8526 83.2794 17.2903L83.2791 17.0091L83.2794 16.1679C88.6232 17.6564 92.9438 21.5347 94.968 26.5522C94.8807 26.718 94.7971 26.8853 94.717 27.0541C92.8502 22.109 88.7175 18.2444 83.5573 16.6763V16.9625C88.6877 18.5496 92.7746 22.4471 94.553 27.4126C94.4717 27.5974 94.3945 27.7838 94.3214 27.9718ZM95.1863 26.1533C92.8322 20.5876 87.6896 16.4459 81.4706 15.4097V15.7802H80.0797V14.4142H80.0807V14.2108C87.0937 14.8041 93.0287 19.1012 95.8475 25.1006C95.7695 25.2134 95.6929 25.3275 95.6179 25.4432C93.077 19.8634 87.8046 15.7457 81.4706 14.7301V15.0706C87.7441 16.0959 92.9499 20.2219 95.3996 25.7906C95.327 25.9101 95.2559 26.031 95.1863 26.1533ZM96.0656 24.7948C92.9558 18.3442 86.2882 13.8706 78.5509 13.8176V13.4581C86.3653 13.5107 93.1091 17.9894 96.3125 24.4689C96.2287 24.5761 96.1464 24.6847 96.0656 24.7948ZM77.0211 51.7874V51.4396C67.2661 50.7405 59.573 42.7467 59.573 32.9883C59.573 24.1299 65.9125 16.7256 74.3791 14.9123V15.2564C66.1029 17.0637 59.9151 24.3164 59.9151 32.9883C59.9151 42.5611 67.4552 50.4043 77.0211 51.1026V50.88L75.4913 50.6069L72.4317 49.9923V49.8291C65.3423 47.4014 60.2555 40.7782 60.2555 32.9883C60.2555 25.0969 65.4757 18.4028 72.7098 16.0548V15.9843L73.4005 15.8456C73.7231 15.7548 74.0494 15.6726 74.3791 15.5991V15.9166H75.77L75.7694 14.3177C75.3113 14.3797 74.8583 14.4575 74.4111 14.5506H74.3791V14.5573C65.7159 16.3767 59.2197 23.9375 59.2197 32.9883C59.2197 42.8454 66.9248 50.9352 76.7428 51.7658V52.0904C66.7427 51.2589 58.8904 43.0242 58.8904 32.9883C58.8904 22.7671 67.0355 14.4141 77.2992 13.8477V13.4877C66.8332 14.0545 58.5244 22.5685 58.5244 32.9883C58.5244 43.3157 66.6864 51.7709 77.0211 52.472L77.021 52.1116L77.0211 51.7874ZM72.4317 49.4594C65.5419 47.0467 60.6105 40.5831 60.6105 32.9883C60.6105 25.2917 65.675 18.7568 72.7098 16.4224V16.8556L72.7089 16.8559V17.1454L72.7098 17.1451V17.5634C67.2636 19.5056 63.1375 24.1504 62.0127 29.847H62.3128C63.4265 24.3111 67.4269 19.7941 72.7098 17.8715V18.2751L72.7089 18.2755V18.6026L72.7098 18.6022V18.9913C68.5008 20.6464 65.2123 24.0795 63.8071 28.3447H68.1204C68.1204 28.1938 68.2449 28.0715 68.3986 28.0715H71.18C71.3336 28.0715 71.4582 28.1938 71.4582 28.3447H73.6833V28.7544H71.4582C71.4582 28.9053 71.3336 29.0275 71.18 29.0275H68.3986C68.2449 29.0275 68.1204 28.9053 68.1204 28.7544H63.2953C64.6169 24.195 68.0196 20.4963 72.4307 18.7121V18.3825C67.4998 20.3317 63.7833 24.6193 62.7051 29.847H68.1204C68.1204 29.6962 68.2449 29.5739 68.3986 29.5739H71.18C71.3336 29.5739 71.4582 29.6962 71.4582 29.847H73.6833V30.2568H71.4582C71.4582 30.4076 71.3336 30.5299 71.18 30.5299H68.3986C68.2449 30.5299 68.1204 30.4076 68.1204 30.2568H61.5308C62.5305 24.253 66.771 19.3193 72.4307 17.2447V16.9534C66.2758 19.1682 61.7513 24.7032 61.1068 31.3494H68.1204C68.1204 31.1985 68.2449 31.0762 68.3986 31.0762H71.18C71.3336 31.0762 71.4582 31.1985 71.4582 31.3494H73.6833V31.7591H71.4582C71.4582 31.91 71.3336 32.0323 71.18 32.0323H68.3986C68.2449 32.0323 68.1204 31.91 68.1204 31.7591H61.0721C61.0426 32.1651 61.0277 32.575 61.0277 32.9883C61.0277 40.2505 65.645 46.4537 72.1538 48.921V48.6277C65.8019 46.1745 61.3058 40.097 61.3058 32.9883C61.3058 32.9427 61.306 32.8972 61.3064 32.8517H68.1204C68.1204 32.7009 68.2449 32.5786 68.3986 32.5786H71.18C71.3336 32.5786 71.4582 32.7009 71.4582 32.8517H73.6833V33.2615H71.4582C71.4582 33.4123 71.3336 33.5346 71.18 33.5346H68.3986C68.2449 33.5346 68.1204 33.4123 68.1204 33.2615H62.3882C62.499 39.6558 66.4929 45.1214 72.1538 47.4817V47.1495C66.7894 44.86 62.9797 39.7168 62.7117 33.6712H63.0804C63.3504 39.6174 67.1287 44.6673 72.4317 46.8729L72.432 47.7392L72.4317 48.001C66.4072 45.6848 62.1171 39.9722 62.0035 33.2615H61.709C61.8233 40.1345 66.2413 45.9797 72.4317 48.3112V49.4594ZM73.5443 16.7355H76.3257V21.7076H79.3853V16.7355H82.4449V21.7076H87.9015V35.119C87.9015 39.5758 85.8261 43.1443 82.1668 44.7167V49.3777H79.1072V45.5074C78.6366 45.5601 78.1496 45.5872 77.6466 45.5872C77.0986 45.5872 76.5649 45.5569 76.0476 45.4968V49.3777H73.2661V44.8248C69.7069 43.448 67.425 40.232 67.425 35.3865H71.7534C71.7534 39.3999 73.6845 41.44 77.6466 41.44C81.642 41.44 83.5066 38.6641 83.5066 35.119V25.8213H71.2998V21.7076H73.5443V16.7355ZM80.7761 28.0715H74.5178V34.4887C74.4273 34.7704 74.3787 35.0691 74.3787 35.3784C74.3787 37.0756 75.8419 38.4514 77.6469 38.4514C79.4519 38.4514 80.9151 37.0756 80.9151 35.3784C80.9151 35.0691 80.8665 34.7704 80.7761 34.4887V28.0715Z" fill="#C5D82E"/>
<path d="M106.067 50.6667C100.219 59.5862 90.1321 65.4771 78.6696 65.4771C67.207 65.4771 57.1204 59.5862 51.2719 50.6667H54.1158C59.646 58.2276 68.5841 63.1385 78.6692 63.1385C88.7543 63.1385 97.6924 58.2276 103.223 50.6667H106.067Z" fill="url(#paint0_linear_1072_4176)"/>
<path d="M107.028 16.3692C101.368 6.58369 90.7874 0 78.6696 0C66.5517 0 55.9715 6.58369 50.3109 16.3692H53.0481C58.4503 7.93131 67.9066 2.33841 78.6692 2.33841C89.4318 2.33841 98.8881 7.93131 104.29 16.3692H107.028Z" fill="url(#paint1_linear_1072_4176)"/>
<path fill-rule="evenodd" clip-rule="evenodd" d="M241.381 22.5818C240.289 22.5818 239.346 21.9424 238.907 21.0175L222.541 21.0175L224.366 18.6707H238.906C239.346 17.7456 240.289 17.106 241.381 17.106C242.893 17.106 244.119 18.3318 244.119 19.8439C244.119 21.356 242.893 22.5818 241.381 22.5818ZM241.381 21.0177C240.733 21.0177 240.207 20.4924 240.207 19.8443C240.207 19.1963 240.733 18.6709 241.381 18.6709C242.029 18.6709 242.554 19.1963 242.554 19.8443C242.554 20.4924 242.029 21.0177 241.381 21.0177ZM245.295 37.8359C245.734 36.911 246.677 36.2715 247.769 36.2715C249.281 36.2715 250.507 37.4973 250.507 39.0095C250.507 40.5216 249.281 41.7474 247.769 41.7474C246.677 41.7474 245.734 41.1078 245.295 40.1827H227.104L225.279 37.8359L245.295 37.8359ZM207.026 49.3093H235.256C235.695 50.2344 236.638 50.874 237.73 50.874C239.242 50.874 240.468 49.6482 240.468 48.136C240.468 46.6239 239.242 45.3981 237.73 45.3981C236.638 45.3981 235.695 46.0375 235.256 46.9624L205.201 46.9625L207.026 49.3093ZM231.605 29.2311C232.045 30.156 232.987 30.7955 234.079 30.7955C235.592 30.7955 236.817 29.5696 236.817 28.0575C236.817 26.5454 235.592 25.3196 234.079 25.3196C232.987 25.3196 232.044 25.9592 231.605 26.8843H228.017L226.192 29.2311L231.605 29.2311ZM237.73 46.9626C237.082 46.9626 236.557 47.488 236.557 48.136C236.557 48.7841 237.082 49.3094 237.73 49.3094C238.378 49.3094 238.904 48.7841 238.904 48.136C238.904 47.488 238.378 46.9626 237.73 46.9626ZM246.596 39.0094C246.596 38.3613 247.121 37.836 247.769 37.836C248.417 37.836 248.942 38.3613 248.942 39.0094C248.942 39.6574 248.417 40.1828 247.769 40.1828C247.121 40.1828 246.596 39.6574 246.596 39.0094ZM232.906 28.0577C232.906 28.7057 233.432 29.2311 234.08 29.2311C234.728 29.2311 235.253 28.7057 235.253 28.0577C235.253 27.4096 234.728 26.8843 234.08 26.8843C233.432 26.8843 232.906 27.4096 232.906 28.0577Z" fill="url(#paint2_linear_1072_4176)"/>
<path d="M109.78 53.645H108.699L108.706 53.0865H109.78C110.15 53.0865 110.459 53.0094 110.705 52.8553C110.952 52.6987 111.137 52.4805 111.26 52.2007C111.386 51.9184 111.449 51.5888 111.449 51.2117V50.8951C111.449 50.5986 111.413 50.3353 111.342 50.1053C111.271 49.8729 111.167 49.6772 111.029 49.5183C110.891 49.357 110.723 49.2349 110.524 49.1519C110.327 49.0689 110.101 49.0274 109.844 49.0274H108.678V48.4653H109.844C110.184 48.4653 110.493 48.5222 110.773 48.636C111.053 48.7475 111.293 48.91 111.495 49.1234C111.699 49.3345 111.856 49.5906 111.965 49.8918C112.074 50.1907 112.128 50.5274 112.128 50.9022V51.2117C112.128 51.5864 112.074 51.9244 111.965 52.2256C111.856 52.5244 111.698 52.7794 111.492 52.9904C111.288 53.2015 111.041 53.364 110.752 53.4778C110.465 53.5893 110.141 53.645 109.78 53.645ZM109.065 48.4653V53.645H108.379V48.4653H109.065Z" fill="#C5D82E"/>
<path d="M114.658 53.7162C114.39 53.7162 114.147 53.6711 113.928 53.581C113.713 53.4885 113.526 53.3592 113.37 53.1932C113.216 53.0272 113.097 52.8304 113.014 52.6027C112.931 52.375 112.89 52.126 112.89 51.8556V51.7062C112.89 51.3931 112.936 51.1144 113.028 50.8702C113.121 50.6235 113.247 50.4148 113.405 50.244C113.564 50.0733 113.745 49.944 113.946 49.8563C114.148 49.7685 114.357 49.7246 114.572 49.7246C114.847 49.7246 115.085 49.7721 115.284 49.8669C115.485 49.9618 115.65 50.0946 115.778 50.2654C115.906 50.4338 116.001 50.633 116.063 50.863C116.125 51.0907 116.155 51.3398 116.155 51.6101V51.9054H113.281V51.3682H115.497V51.3184C115.488 51.1476 115.452 50.9816 115.391 50.8204C115.331 50.6591 115.236 50.5263 115.106 50.4219C114.976 50.3176 114.798 50.2654 114.572 50.2654C114.423 50.2654 114.285 50.2974 114.16 50.3614C114.034 50.4231 113.926 50.5156 113.836 50.6389C113.746 50.7622 113.676 50.9128 113.626 51.0907C113.576 51.2686 113.551 51.4738 113.551 51.7062V51.8556C113.551 52.0382 113.576 52.2102 113.626 52.3714C113.678 52.5303 113.753 52.6703 113.85 52.7912C113.95 52.9122 114.07 53.007 114.209 53.0758C114.352 53.1446 114.513 53.179 114.693 53.179C114.926 53.179 115.123 53.1316 115.284 53.0367C115.445 52.9418 115.586 52.8149 115.707 52.656L116.106 52.9727C116.023 53.0984 115.917 53.2181 115.789 53.332C115.661 53.4458 115.503 53.5383 115.316 53.6095C115.131 53.6806 114.912 53.7162 114.658 53.7162Z" fill="#C5D82E"/>
<path d="M118.464 53.1754C118.621 53.1754 118.765 53.1434 118.898 53.0794C119.031 53.0153 119.14 52.9276 119.226 52.8161C119.311 52.7023 119.36 52.573 119.371 52.4284H119.998C119.986 52.656 119.909 52.8683 119.766 53.0652C119.626 53.2596 119.443 53.4173 119.215 53.5383C118.987 53.6569 118.737 53.7162 118.464 53.7162C118.175 53.7162 117.922 53.6652 117.707 53.5632C117.493 53.4612 117.315 53.3213 117.173 53.1434C117.033 52.9655 116.927 52.7616 116.856 52.5315C116.788 52.2991 116.753 52.0536 116.753 51.7951V51.6457C116.753 51.3872 116.788 51.1429 116.856 50.9128C116.927 50.6804 117.033 50.4753 117.173 50.2974C117.315 50.1195 117.493 49.9796 117.707 49.8776C117.922 49.7756 118.175 49.7246 118.464 49.7246C118.765 49.7246 119.029 49.7863 119.254 49.9096C119.479 50.0306 119.656 50.1966 119.784 50.4077C119.915 50.6164 119.986 50.8536 119.998 51.1192H119.371C119.36 50.9603 119.315 50.8168 119.236 50.6887C119.16 50.5607 119.056 50.4587 118.923 50.3828C118.793 50.3045 118.64 50.2654 118.464 50.2654C118.263 50.2654 118.093 50.3057 117.956 50.3863C117.82 50.4646 117.712 50.5713 117.632 50.7065C117.554 50.8393 117.497 50.9876 117.461 51.1512C117.428 51.3125 117.411 51.4773 117.411 51.6457V51.7951C117.411 51.9635 117.428 52.1295 117.461 52.2932C117.494 52.4568 117.55 52.605 117.628 52.7379C117.709 52.8707 117.817 52.9774 117.952 53.058C118.09 53.1363 118.26 53.1754 118.464 53.1754Z" fill="#C5D82E"/>
<path d="M122.335 53.7162C122.067 53.7162 121.824 53.6711 121.606 53.581C121.39 53.4885 121.204 53.3592 121.047 53.1932C120.893 53.0272 120.774 52.8304 120.691 52.6027C120.608 52.375 120.567 52.126 120.567 51.8556V51.7062C120.567 51.3931 120.613 51.1144 120.706 50.8702C120.798 50.6235 120.924 50.4148 121.083 50.244C121.242 50.0733 121.422 49.944 121.623 49.8563C121.825 49.7685 122.034 49.7246 122.25 49.7246C122.525 49.7246 122.762 49.7721 122.961 49.8669C123.163 49.9618 123.327 50.0946 123.456 50.2654C123.584 50.4338 123.678 50.633 123.74 50.863C123.802 51.0907 123.833 51.3398 123.833 51.6101V51.9054H120.958V51.3682H123.174V51.3184C123.165 51.1476 123.129 50.9816 123.068 50.8204C123.008 50.6591 122.914 50.5263 122.783 50.4219C122.653 50.3176 122.475 50.2654 122.25 50.2654C122.1 50.2654 121.963 50.2974 121.837 50.3614C121.711 50.4231 121.603 50.5156 121.513 50.6389C121.423 50.7622 121.353 50.9128 121.303 51.0907C121.253 51.2686 121.228 51.4738 121.228 51.7062V51.8556C121.228 52.0382 121.253 52.2102 121.303 52.3714C121.355 52.5303 121.43 52.6703 121.527 52.7912C121.627 52.9122 121.747 53.007 121.887 53.0758C122.029 53.1446 122.19 53.179 122.37 53.179C122.603 53.179 122.8 53.1316 122.961 53.0367C123.122 52.9418 123.263 52.8149 123.384 52.656L123.783 52.9727C123.7 53.0984 123.594 53.2181 123.466 53.332C123.338 53.4458 123.18 53.5383 122.993 53.6095C122.808 53.6806 122.589 53.7162 122.335 53.7162Z" fill="#C5D82E"/>
<path d="M125.259 50.6176V53.645H124.601V49.7958H125.224L125.259 50.6176ZM125.103 51.5745L124.829 51.5639C124.831 51.3006 124.87 51.0575 124.946 50.8346C125.022 50.6093 125.129 50.4136 125.266 50.2476C125.404 50.0816 125.567 49.9535 125.757 49.8634C125.949 49.7709 126.162 49.7246 126.394 49.7246C126.584 49.7246 126.755 49.7507 126.906 49.8029C127.058 49.8527 127.187 49.9333 127.294 50.0448C127.403 50.1563 127.486 50.301 127.543 50.4788C127.6 50.6543 127.628 50.869 127.628 51.1227V53.645H126.967V51.1156C126.967 50.914 126.937 50.7528 126.878 50.6318C126.819 50.5085 126.732 50.4195 126.618 50.365C126.504 50.3081 126.364 50.2796 126.198 50.2796C126.035 50.2796 125.885 50.314 125.75 50.3828C125.617 50.4516 125.502 50.5464 125.405 50.6674C125.31 50.7883 125.235 50.9271 125.181 51.0836C125.129 51.2378 125.103 51.4014 125.103 51.5745Z" fill="#C5D82E"/>
<path d="M130.24 49.7958V50.301H128.159V49.7958H130.24ZM128.863 48.8602H129.521V52.6916C129.521 52.8221 129.541 52.9205 129.582 52.9869C129.622 53.0533 129.674 53.0972 129.738 53.1185C129.802 53.1399 129.871 53.1505 129.944 53.1505C129.999 53.1505 130.056 53.1458 130.115 53.1363C130.177 53.1244 130.223 53.115 130.254 53.1078L130.258 53.645C130.205 53.6616 130.137 53.677 130.051 53.6913C129.968 53.7079 129.867 53.7162 129.749 53.7162C129.588 53.7162 129.439 53.6842 129.304 53.6201C129.169 53.5561 129.061 53.4494 128.98 53.3C128.902 53.1482 128.863 52.9442 128.863 52.6881V48.8602Z" fill="#C5D82E"/>
<path d="M131.67 50.4006V53.645H131.012V49.7958H131.652L131.67 50.4006ZM132.872 49.7744L132.869 50.3863C132.814 50.3745 132.762 50.3674 132.712 50.365C132.665 50.3602 132.61 50.3579 132.549 50.3579C132.397 50.3579 132.263 50.3816 132.147 50.429C132.03 50.4765 131.932 50.5429 131.851 50.6282C131.771 50.7136 131.707 50.8156 131.659 50.9342C131.614 51.0504 131.584 51.1785 131.57 51.3184L131.385 51.4251C131.385 51.1927 131.408 50.9745 131.453 50.7705C131.5 50.5666 131.573 50.3863 131.67 50.2298C131.767 50.0709 131.89 49.9476 132.04 49.8598C132.192 49.7697 132.372 49.7246 132.581 49.7246C132.628 49.7246 132.683 49.7306 132.744 49.7424C132.806 49.7519 132.849 49.7626 132.872 49.7744Z" fill="#C5D82E"/>
<path d="M135.608 52.9869V51.0053C135.608 50.8536 135.577 50.7219 135.516 50.6105C135.456 50.4966 135.366 50.4089 135.245 50.3472C135.124 50.2855 134.975 50.2547 134.797 50.2547C134.631 50.2547 134.485 50.2832 134.359 50.3401C134.236 50.397 134.139 50.4717 134.068 50.5642C133.999 50.6567 133.964 50.7563 133.964 50.863H133.306C133.306 50.7255 133.342 50.5891 133.413 50.4539C133.484 50.3187 133.586 50.1966 133.719 50.0875C133.854 49.976 134.015 49.8883 134.203 49.8242C134.393 49.7578 134.604 49.7246 134.836 49.7246C135.116 49.7246 135.363 49.7721 135.576 49.8669C135.792 49.9618 135.96 50.1053 136.081 50.2974C136.205 50.4871 136.266 50.7255 136.266 51.0125V52.8055C136.266 52.9335 136.277 53.0699 136.298 53.2146C136.322 53.3592 136.356 53.4838 136.401 53.5881V53.645H135.715C135.682 53.5691 135.655 53.4683 135.636 53.3426C135.618 53.2146 135.608 53.096 135.608 52.9869ZM135.722 51.3113L135.729 51.7738H135.064C134.876 51.7738 134.709 51.7892 134.562 51.82C134.415 51.8485 134.292 51.8924 134.192 51.9516C134.093 52.0109 134.017 52.0856 133.964 52.1758C133.912 52.2635 133.886 52.3667 133.886 52.4853C133.886 52.6062 133.913 52.7165 133.968 52.8161C134.023 52.9157 134.104 52.9952 134.213 53.0545C134.325 53.1114 134.461 53.1399 134.623 53.1399C134.824 53.1399 135.002 53.0972 135.156 53.0118C135.31 52.9264 135.433 52.8221 135.523 52.6987C135.615 52.5754 135.665 52.4556 135.672 52.3394L135.953 52.656C135.937 52.7556 135.891 52.8659 135.818 52.9869C135.744 53.1078 135.646 53.2241 135.523 53.3355C135.402 53.4446 135.257 53.5359 135.089 53.6095C134.923 53.6806 134.735 53.7162 134.527 53.7162C134.266 53.7162 134.037 53.6652 133.84 53.5632C133.645 53.4612 133.494 53.3249 133.385 53.1541C133.278 52.981 133.224 52.7877 133.224 52.5742C133.224 52.3679 133.265 52.1864 133.345 52.0299C133.426 51.871 133.542 51.7394 133.694 51.635C133.846 51.5283 134.028 51.4477 134.242 51.3931C134.455 51.3386 134.694 51.3113 134.957 51.3113H135.722Z" fill="#C5D82E"/>
<path d="M138.016 48.1807V53.645H137.355V48.1807H138.016Z" fill="#C5D82E"/>
<path d="M139.788 49.7958V53.645H139.126V49.7958H139.788ZM139.077 48.7748C139.077 48.668 139.109 48.5779 139.173 48.5044C139.239 48.4309 139.336 48.3941 139.464 48.3941C139.59 48.3941 139.686 48.4309 139.753 48.5044C139.821 48.5779 139.856 48.668 139.856 48.7748C139.856 48.8768 139.821 48.9645 139.753 49.038C139.686 49.1092 139.59 49.1448 139.464 49.1448C139.336 49.1448 139.239 49.1092 139.173 49.038C139.109 48.9645 139.077 48.8768 139.077 48.7748Z" fill="#C5D82E"/>
<path d="M143.712 53.1043V53.645H140.912V53.1043H143.712ZM143.609 50.2618L141.062 53.645H140.66V53.1612L143.189 49.7958H143.609V50.2618ZM143.317 49.7958V50.3401H140.688V49.7958H143.317Z" fill="#C5D82E"/>
<path d="M146 53.7162C145.732 53.7162 145.488 53.6711 145.27 53.581C145.054 53.4885 144.868 53.3592 144.712 53.1932C144.558 53.0272 144.439 52.8304 144.356 52.6027C144.273 52.375 144.231 52.126 144.231 51.8556V51.7062C144.231 51.3931 144.278 51.1144 144.37 50.8702C144.463 50.6235 144.588 50.4148 144.747 50.244C144.906 50.0733 145.086 49.944 145.288 49.8563C145.49 49.7685 145.698 49.7246 145.914 49.7246C146.189 49.7246 146.426 49.7721 146.626 49.8669C146.827 49.9618 146.992 50.0946 147.12 50.2654C147.248 50.4338 147.343 50.633 147.405 50.863C147.466 51.0907 147.497 51.3398 147.497 51.6101V51.9054H144.623V51.3682H146.839V51.3184C146.83 51.1476 146.794 50.9816 146.732 50.8204C146.673 50.6591 146.578 50.5263 146.448 50.4219C146.317 50.3176 146.139 50.2654 145.914 50.2654C145.765 50.2654 145.627 50.2974 145.502 50.3614C145.376 50.4231 145.268 50.5156 145.178 50.6389C145.088 50.7622 145.018 50.9128 144.968 51.0907C144.918 51.2686 144.893 51.4738 144.893 51.7062V51.8556C144.893 52.0382 144.918 52.2102 144.968 52.3714C145.02 52.5303 145.095 52.6703 145.192 52.7912C145.292 52.9122 145.411 53.007 145.551 53.0758C145.694 53.1446 145.855 53.179 146.035 53.179C146.268 53.179 146.464 53.1316 146.626 53.0367C146.787 52.9418 146.928 52.8149 147.049 52.656L147.447 52.9727C147.364 53.0984 147.259 53.2181 147.131 53.332C147.003 53.4458 146.845 53.5383 146.658 53.6095C146.473 53.6806 146.253 53.7162 146 53.7162Z" fill="#C5D82E"/>
<path d="M150.692 52.8979V48.1807H151.354V53.645H150.749L150.692 52.8979ZM148.102 51.7631V51.6884C148.102 51.3943 148.138 51.1275 148.209 50.8879C148.282 50.646 148.385 50.4385 148.518 50.2654C148.653 50.0922 148.814 49.9594 148.999 49.8669C149.186 49.7721 149.395 49.7246 149.625 49.7246C149.867 49.7246 150.078 49.7673 150.258 49.8527C150.441 49.9357 150.595 50.0579 150.72 50.2191C150.848 50.378 150.949 50.5701 151.023 50.7954C151.096 51.0208 151.147 51.2757 151.176 51.5603V51.8876C151.15 52.1698 151.099 52.4236 151.023 52.6489C150.949 52.8742 150.848 53.0663 150.72 53.2252C150.595 53.3841 150.441 53.5063 150.258 53.5917C150.075 53.6747 149.862 53.7162 149.618 53.7162C149.392 53.7162 149.186 53.6676 148.999 53.5703C148.814 53.4731 148.653 53.3367 148.518 53.1612C148.385 52.9857 148.282 52.7794 148.209 52.5422C148.138 52.3027 148.102 52.043 148.102 51.7631ZM148.764 51.6884V51.7631C148.764 51.9552 148.783 52.1355 148.821 52.3038C148.861 52.4722 148.923 52.6205 149.006 52.7485C149.089 52.8766 149.194 52.9774 149.322 53.0509C149.45 53.1221 149.603 53.1576 149.781 53.1576C149.999 53.1576 150.178 53.1114 150.318 53.0189C150.461 52.9264 150.575 52.8043 150.66 52.6525C150.745 52.5007 150.812 52.3359 150.859 52.158V51.3006C150.831 51.1702 150.789 51.0445 150.735 50.9235C150.682 50.8002 150.614 50.6911 150.528 50.5962C150.445 50.499 150.342 50.4219 150.219 50.365C150.098 50.3081 149.954 50.2796 149.788 50.2796C149.608 50.2796 149.453 50.3176 149.322 50.3934C149.194 50.467 149.089 50.569 149.006 50.6994C148.923 50.8275 148.861 50.9769 148.821 51.1476C148.783 51.316 148.764 51.4963 148.764 51.6884Z" fill="#C5D82E"/>
<path d="M155.687 53.645H154.605L154.612 53.0865H155.687C156.057 53.0865 156.365 53.0094 156.612 52.8553C156.858 52.6987 157.043 52.4805 157.167 52.2007C157.292 51.9184 157.355 51.5888 157.355 51.2117V50.8951C157.355 50.5986 157.32 50.3353 157.248 50.1053C157.177 49.8729 157.073 49.6772 156.935 49.5183C156.798 49.357 156.629 49.2349 156.43 49.1519C156.233 49.0689 156.007 49.0274 155.751 49.0274H154.584V48.4653H155.751C156.09 48.4653 156.399 48.5222 156.679 48.636C156.959 48.7475 157.2 48.91 157.401 49.1234C157.605 49.3345 157.762 49.5906 157.871 49.8918C157.98 50.1907 158.035 50.5274 158.035 50.9022V51.2117C158.035 51.5864 157.98 51.9244 157.871 52.2256C157.762 52.5244 157.604 52.7794 157.398 52.9904C157.194 53.2015 156.947 53.364 156.658 53.4778C156.371 53.5893 156.047 53.645 155.687 53.645ZM154.972 48.4653V53.645H154.285V48.4653H154.972Z" fill="#C5D82E"/>
<path d="M159.682 49.7958V53.645H159.02V49.7958H159.682ZM158.97 48.7748C158.97 48.668 159.002 48.5779 159.066 48.5044C159.133 48.4309 159.23 48.3941 159.358 48.3941C159.484 48.3941 159.58 48.4309 159.646 48.5044C159.715 48.5779 159.749 48.668 159.749 48.7748C159.749 48.8768 159.715 48.9645 159.646 49.038C159.58 49.1092 159.484 49.1448 159.358 49.1448C159.23 49.1448 159.133 49.1092 159.066 49.038C159.002 48.9645 158.97 48.8768 158.97 48.7748Z" fill="#C5D82E"/>
<path d="M163.232 49.7958H163.83V53.5632C163.83 53.9024 163.761 54.1917 163.624 54.4312C163.486 54.6708 163.294 54.8522 163.047 54.9755C162.803 55.1012 162.521 55.1641 162.201 55.1641C162.068 55.1641 161.911 55.1428 161.731 55.1001C161.553 55.0597 161.378 54.9898 161.204 54.8902C161.034 54.7929 160.89 54.6613 160.774 54.4953L161.119 54.104C161.28 54.2984 161.449 54.4336 161.624 54.5095C161.802 54.5854 161.978 54.6234 162.151 54.6234C162.359 54.6234 162.54 54.5842 162.692 54.506C162.843 54.4277 162.961 54.3115 163.044 54.1573C163.129 54.0055 163.172 53.8182 163.172 53.5952V50.6425L163.232 49.7958ZM160.582 51.7631V51.6884C160.582 51.3943 160.616 51.1275 160.685 50.8879C160.756 50.646 160.857 50.4385 160.987 50.2654C161.12 50.0922 161.28 49.9594 161.468 49.8669C161.655 49.7721 161.866 49.7246 162.101 49.7246C162.343 49.7246 162.554 49.7673 162.734 49.8527C162.917 49.9357 163.071 50.0579 163.197 50.2191C163.325 50.378 163.426 50.5701 163.499 50.7954C163.573 51.0208 163.624 51.2757 163.652 51.5603V51.8876C163.626 52.1698 163.575 52.4236 163.499 52.6489C163.426 52.8742 163.325 53.0663 163.197 53.2252C163.071 53.3841 162.917 53.5063 162.734 53.5917C162.552 53.6747 162.338 53.7162 162.094 53.7162C161.864 53.7162 161.655 53.6676 161.468 53.5703C161.283 53.4731 161.124 53.3367 160.991 53.1612C160.858 52.9857 160.756 52.7794 160.685 52.5422C160.616 52.3027 160.582 52.043 160.582 51.7631ZM161.24 51.6884V51.7631C161.24 51.9552 161.259 52.1355 161.297 52.3038C161.337 52.4722 161.398 52.6205 161.478 52.7485C161.561 52.8766 161.667 52.9774 161.795 53.0509C161.923 53.1221 162.076 53.1576 162.254 53.1576C162.472 53.1576 162.652 53.1114 162.795 53.0189C162.937 52.9264 163.05 52.8043 163.133 52.6525C163.218 52.5007 163.284 52.3359 163.332 52.158V51.3006C163.306 51.1702 163.265 51.0445 163.211 50.9235C163.159 50.8002 163.09 50.6911 163.005 50.5962C162.922 50.499 162.818 50.4219 162.695 50.365C162.572 50.3081 162.427 50.2796 162.261 50.2796C162.081 50.2796 161.925 50.3176 161.795 50.3934C161.667 50.467 161.561 50.569 161.478 50.6994C161.398 50.8275 161.337 50.9769 161.297 51.1476C161.259 51.316 161.24 51.4963 161.24 51.6884Z" fill="#C5D82E"/>
<path d="M165.545 49.7958V53.645H164.883V49.7958H165.545ZM164.833 48.7748C164.833 48.668 164.865 48.5779 164.929 48.5044C164.996 48.4309 165.093 48.3941 165.221 48.3941C165.347 48.3941 165.443 48.4309 165.509 48.5044C165.578 48.5779 165.612 48.668 165.612 48.7748C165.612 48.8768 165.578 48.9645 165.509 49.038C165.443 49.1092 165.347 49.1448 165.221 49.1448C165.093 49.1448 164.996 49.1092 164.929 49.038C164.865 48.9645 164.833 48.8768 164.833 48.7748Z" fill="#C5D82E"/>
<path d="M168.213 49.7958V50.301H166.132V49.7958H168.213ZM166.836 48.8602H167.494V52.6916C167.494 52.8221 167.514 52.9205 167.555 52.9869C167.595 53.0533 167.647 53.0972 167.711 53.1185C167.775 53.1399 167.844 53.1505 167.918 53.1505C167.972 53.1505 168.029 53.1458 168.088 53.1363C168.15 53.1244 168.196 53.115 168.227 53.1078L168.231 53.645C168.178 53.6616 168.11 53.677 168.024 53.6913C167.941 53.7079 167.84 53.7162 167.722 53.7162C167.561 53.7162 167.412 53.6842 167.277 53.6201C167.142 53.5561 167.034 53.4494 166.953 53.3C166.875 53.1482 166.836 52.9442 166.836 52.6881V48.8602Z" fill="#C5D82E"/>
<path d="M171.254 52.9869V51.0053C171.254 50.8536 171.224 50.7219 171.162 50.6105C171.103 50.4966 171.013 50.4089 170.892 50.3472C170.771 50.2855 170.621 50.2547 170.443 50.2547C170.277 50.2547 170.131 50.2832 170.006 50.3401C169.882 50.397 169.785 50.4717 169.714 50.5642C169.645 50.6567 169.611 50.7563 169.611 50.863H168.953C168.953 50.7255 168.988 50.5891 169.059 50.4539C169.131 50.3187 169.233 50.1966 169.365 50.0875C169.501 49.976 169.662 49.8883 169.849 49.8242C170.039 49.7578 170.25 49.7246 170.482 49.7246C170.762 49.7246 171.009 49.7721 171.222 49.8669C171.438 49.9618 171.607 50.1053 171.728 50.2974C171.851 50.4871 171.913 50.7255 171.913 51.0125V52.8055C171.913 52.9335 171.923 53.0699 171.945 53.2146C171.968 53.3592 172.003 53.4838 172.048 53.5881V53.645H171.361C171.328 53.5691 171.302 53.4683 171.283 53.3426C171.264 53.2146 171.254 53.096 171.254 52.9869ZM171.368 51.3113L171.375 51.7738H170.71C170.523 51.7738 170.356 51.7892 170.209 51.82C170.062 51.8485 169.938 51.8924 169.839 51.9516C169.739 52.0109 169.663 52.0856 169.611 52.1758C169.559 52.2635 169.533 52.3667 169.533 52.4853C169.533 52.6062 169.56 52.7165 169.614 52.8161C169.669 52.9157 169.751 52.9952 169.86 53.0545C169.971 53.1114 170.108 53.1399 170.269 53.1399C170.471 53.1399 170.649 53.0972 170.803 53.0118C170.957 52.9264 171.079 52.8221 171.169 52.6987C171.262 52.5754 171.311 52.4556 171.319 52.3394L171.6 52.656C171.583 52.7556 171.538 52.8659 171.464 52.9869C171.391 53.1078 171.292 53.2241 171.169 53.3355C171.048 53.4446 170.903 53.5359 170.735 53.6095C170.569 53.6806 170.382 53.7162 170.173 53.7162C169.912 53.7162 169.683 53.6652 169.486 53.5632C169.292 53.4612 169.14 53.3249 169.031 53.1541C168.924 52.981 168.871 52.7877 168.871 52.5742C168.871 52.3679 168.911 52.1864 168.992 52.0299C169.073 51.871 169.189 51.7394 169.341 51.635C169.492 51.5283 169.675 51.4477 169.888 51.3931C170.102 51.3386 170.34 51.3113 170.603 51.3113H171.368Z" fill="#C5D82E"/>
<path d="M173.663 48.1807V53.645H173.001V48.1807H173.663Z" fill="#C5D82E"/>
<path d="M179.753 51.9979H180.436C180.401 52.3252 180.307 52.6181 180.155 52.8766C180.004 53.1351 179.789 53.3403 179.512 53.4921C179.234 53.6415 178.888 53.7162 178.473 53.7162C178.169 53.7162 177.893 53.6593 177.644 53.5454C177.397 53.4316 177.185 53.2703 177.007 53.0616C176.829 52.8505 176.692 52.5979 176.594 52.3038C176.499 52.0074 176.452 51.6777 176.452 51.3148V50.799C176.452 50.4361 176.499 50.1077 176.594 49.8136C176.692 49.5171 176.83 49.2633 177.011 49.0523C177.193 48.8412 177.413 48.6787 177.669 48.5649C177.925 48.451 178.213 48.3941 178.533 48.3941C178.925 48.3941 179.255 48.4676 179.526 48.6147C179.796 48.7617 180.006 48.9657 180.155 49.2266C180.307 49.4851 180.401 49.7851 180.436 50.1266H179.753C179.72 49.8847 179.659 49.6772 179.568 49.5041C179.478 49.3286 179.35 49.1934 179.184 49.0985C179.018 49.0036 178.801 48.9562 178.533 48.9562C178.303 48.9562 178.1 49.0001 177.925 49.0878C177.752 49.1756 177.606 49.3001 177.487 49.4614C177.371 49.6226 177.283 49.8159 177.224 50.0413C177.165 50.2666 177.135 50.5168 177.135 50.7919V51.3148C177.135 51.5686 177.161 51.807 177.213 52.0299C177.268 52.2529 177.35 52.4485 177.459 52.6169C177.568 52.7853 177.707 52.9181 177.875 53.0153C178.043 53.1102 178.243 53.1576 178.473 53.1576C178.764 53.1576 178.997 53.1114 179.17 53.0189C179.343 52.9264 179.474 52.7936 179.561 52.6205C179.651 52.4473 179.715 52.2398 179.753 51.9979Z" fill="#C5D82E"/>
<path d="M183.628 52.7556V49.7958H184.289V53.645H183.66L183.628 52.7556ZM183.752 51.9445L184.026 51.9374C184.026 52.1936 183.999 52.4307 183.944 52.6489C183.892 52.8647 183.807 53.0521 183.688 53.211C183.569 53.3699 183.414 53.4944 183.222 53.5846C183.03 53.6723 182.796 53.7162 182.521 53.7162C182.334 53.7162 182.162 53.6889 182.005 53.6344C181.851 53.5798 181.718 53.4956 181.607 53.3818C181.495 53.2679 181.409 53.1197 181.347 52.9371C181.288 52.7545 181.258 52.5351 181.258 52.2789V49.7958H181.916V52.2861C181.916 52.4592 181.935 52.6027 181.973 52.7165C182.014 52.828 182.067 52.9169 182.133 52.9833C182.202 53.0474 182.278 53.0924 182.361 53.1185C182.446 53.1446 182.534 53.1576 182.624 53.1576C182.904 53.1576 183.126 53.1043 183.29 52.9976C183.453 52.8885 183.571 52.7426 183.642 52.56C183.715 52.375 183.752 52.1698 183.752 51.9445Z" fill="#C5D82E"/>
<path d="M185.951 50.4006V53.645H185.292V49.7958H185.933L185.951 50.4006ZM187.153 49.7744L187.15 50.3863C187.095 50.3745 187.043 50.3674 186.993 50.365C186.946 50.3602 186.891 50.3579 186.829 50.3579C186.678 50.3579 186.544 50.3816 186.427 50.429C186.311 50.4765 186.213 50.5429 186.132 50.6282C186.051 50.7136 185.987 50.8156 185.94 50.9342C185.895 51.0504 185.865 51.1785 185.851 51.3184L185.666 51.4251C185.666 51.1927 185.689 50.9745 185.734 50.7705C185.781 50.5666 185.853 50.3863 185.951 50.2298C186.048 50.0709 186.171 49.9476 186.321 49.8598C186.472 49.7697 186.653 49.7246 186.861 49.7246C186.909 49.7246 186.963 49.7306 187.025 49.7424C187.087 49.7519 187.129 49.7626 187.153 49.7744Z" fill="#C5D82E"/>
<path d="M188.42 50.4006V53.645H187.761V49.7958H188.402L188.42 50.4006ZM189.622 49.7744L189.618 50.3863C189.564 50.3745 189.512 50.3674 189.462 50.365C189.414 50.3602 189.36 50.3579 189.298 50.3579C189.146 50.3579 189.012 50.3816 188.896 50.429C188.78 50.4765 188.682 50.5429 188.601 50.6282C188.52 50.7136 188.456 50.8156 188.409 50.9342C188.364 51.0504 188.334 51.1785 188.32 51.3184L188.135 51.4251C188.135 51.1927 188.157 50.9745 188.203 50.7705C188.25 50.5666 188.322 50.3863 188.42 50.2298C188.517 50.0709 188.64 49.9476 188.79 49.8598C188.941 49.7697 189.122 49.7246 189.33 49.7246C189.378 49.7246 189.432 49.7306 189.494 49.7424C189.556 49.7519 189.598 49.7626 189.622 49.7744Z" fill="#C5D82E"/>
<path d="M191.757 53.7162C191.489 53.7162 191.245 53.6711 191.027 53.581C190.811 53.4885 190.625 53.3592 190.469 53.1932C190.315 53.0272 190.196 52.8304 190.113 52.6027C190.03 52.375 189.988 52.126 189.988 51.8556V51.7062C189.988 51.3931 190.035 51.1144 190.127 50.8702C190.22 50.6235 190.345 50.4148 190.504 50.244C190.663 50.0733 190.843 49.944 191.045 49.8563C191.247 49.7685 191.455 49.7246 191.671 49.7246C191.946 49.7246 192.183 49.7721 192.383 49.8669C192.584 49.9618 192.749 50.0946 192.877 50.2654C193.005 50.4338 193.1 50.633 193.162 50.863C193.223 51.0907 193.254 51.3398 193.254 51.6101V51.9054H190.38V51.3682H192.596V51.3184C192.587 51.1476 192.551 50.9816 192.489 50.8204C192.43 50.6591 192.335 50.5263 192.205 50.4219C192.074 50.3176 191.896 50.2654 191.671 50.2654C191.522 50.2654 191.384 50.2974 191.258 50.3614C191.133 50.4231 191.025 50.5156 190.935 50.6389C190.845 50.7622 190.775 50.9128 190.725 51.0907C190.675 51.2686 190.65 51.4738 190.65 51.7062V51.8556C190.65 52.0382 190.675 52.2102 190.725 52.3714C190.777 52.5303 190.852 52.6703 190.949 52.7912C191.049 52.9122 191.168 53.007 191.308 53.0758C191.451 53.1446 191.612 53.179 191.792 53.179C192.025 53.179 192.221 53.1316 192.383 53.0367C192.544 52.9418 192.685 52.8149 192.806 52.656L193.204 52.9727C193.121 53.0984 193.016 53.2181 192.888 53.332C192.76 53.4458 192.602 53.5383 192.415 53.6095C192.23 53.6806 192.01 53.7162 191.757 53.7162Z" fill="#C5D82E"/>
<path d="M194.681 50.6176V53.645H194.023V49.7958H194.645L194.681 50.6176ZM194.524 51.5745L194.25 51.5639C194.253 51.3006 194.292 51.0575 194.368 50.8346C194.444 50.6093 194.55 50.4136 194.688 50.2476C194.825 50.0816 194.989 49.9535 195.179 49.8634C195.371 49.7709 195.583 49.7246 195.816 49.7246C196.005 49.7246 196.176 49.7507 196.328 49.8029C196.48 49.8527 196.609 49.9333 196.716 50.0448C196.825 50.1563 196.908 50.301 196.965 50.4788C197.022 50.6543 197.05 50.869 197.05 51.1227V53.645H196.388V51.1156C196.388 50.914 196.359 50.7528 196.3 50.6318C196.24 50.5085 196.154 50.4195 196.04 50.365C195.926 50.3081 195.786 50.2796 195.62 50.2796C195.456 50.2796 195.307 50.314 195.172 50.3828C195.039 50.4516 194.924 50.5464 194.827 50.6674C194.732 50.7883 194.657 50.9271 194.603 51.0836C194.55 51.2378 194.524 51.4014 194.524 51.5745Z" fill="#C5D82E"/>
<path d="M199.59 53.1754C199.747 53.1754 199.891 53.1434 200.024 53.0794C200.157 53.0153 200.266 52.9276 200.352 52.8161C200.437 52.7023 200.486 52.573 200.497 52.4284H201.124C201.112 52.656 201.035 52.8683 200.892 53.0652C200.752 53.2596 200.569 53.4173 200.341 53.5383C200.113 53.6569 199.863 53.7162 199.59 53.7162C199.301 53.7162 199.048 53.6652 198.832 53.5632C198.619 53.4612 198.441 53.3213 198.299 53.1434C198.159 52.9655 198.053 52.7616 197.982 52.5315C197.913 52.2991 197.879 52.0536 197.879 51.7951V51.6457C197.879 51.3872 197.913 51.1429 197.982 50.9128C198.053 50.6804 198.159 50.4753 198.299 50.2974C198.441 50.1195 198.619 49.9796 198.832 49.8776C199.048 49.7756 199.301 49.7246 199.59 49.7246C199.891 49.7246 200.155 49.7863 200.38 49.9096C200.605 50.0306 200.782 50.1966 200.91 50.4077C201.04 50.6164 201.112 50.8536 201.124 51.1192H200.497C200.486 50.9603 200.44 50.8168 200.362 50.6887C200.286 50.5607 200.182 50.4587 200.049 50.3828C199.919 50.3045 199.766 50.2654 199.59 50.2654C199.389 50.2654 199.219 50.3057 199.081 50.3863C198.946 50.4646 198.838 50.5713 198.758 50.7065C198.679 50.8393 198.623 50.9876 198.587 51.1512C198.554 51.3125 198.537 51.4773 198.537 51.6457V51.7951C198.537 51.9635 198.554 52.1295 198.587 52.2932C198.62 52.4568 198.676 52.605 198.754 52.7379C198.835 52.8707 198.943 52.9774 199.078 53.058C199.215 53.1363 199.386 53.1754 199.59 53.1754Z" fill="#C5D82E"/>
<path d="M202.945 53.2466L204.016 49.7958H204.72L203.176 54.2391C203.141 54.334 203.093 54.436 203.034 54.5451C202.977 54.6566 202.903 54.7621 202.813 54.8617C202.723 54.9613 202.614 55.042 202.486 55.1036C202.36 55.1677 202.21 55.1997 202.034 55.1997C201.982 55.1997 201.916 55.1926 201.835 55.1783C201.754 55.1641 201.697 55.1522 201.664 55.1428L201.661 54.6091C201.68 54.6115 201.709 54.6139 201.75 54.6162C201.792 54.621 201.822 54.6234 201.839 54.6234C201.988 54.6234 202.115 54.6032 202.219 54.5629C202.324 54.5249 202.411 54.4597 202.482 54.3672C202.556 54.2771 202.619 54.1526 202.671 53.9937L202.945 53.2466ZM202.159 49.7958L203.158 52.7841L203.329 53.4778L202.856 53.7197L201.44 49.7958H202.159Z" fill="#C5D82E"/>
<path d="M222.057 44.5555L217.307 37.9139L212.396 44.5555H205.553L213.886 33.6472L205.835 22.8999H212.879L217.468 29.2195L222.177 22.8999H228.859L220.809 33.4862L229.181 44.5555H222.057Z" fill="url(#paint3_linear_1072_4176)"/>
<path d="M202.477 22.9001V44.5557H196.479V42.0601C194.923 43.9385 192.669 44.8777 189.717 44.8777C187.678 44.8777 185.826 44.4215 184.162 43.5092C182.525 42.5968 181.237 41.2953 180.298 39.6047C179.359 37.9141 178.889 35.9552 178.889 33.7279C178.889 31.5007 179.359 29.5417 180.298 27.8511C181.237 26.1606 182.525 24.8591 184.162 23.9467C185.826 23.0343 187.678 22.5781 189.717 22.5781C192.481 22.5781 194.641 23.4503 196.198 25.1945V22.9001H202.477ZM190.804 39.7255C192.387 39.7255 193.702 39.1888 194.749 38.1154C195.795 37.0152 196.318 35.5527 196.318 33.7279C196.318 31.9032 195.795 30.4541 194.749 29.3807C193.702 28.2805 192.387 27.7304 190.804 27.7304C189.194 27.7304 187.866 28.2805 186.819 29.3807C185.772 30.4541 185.249 31.9032 185.249 33.7279C185.249 35.5527 185.772 37.0152 186.819 38.1154C187.866 39.1888 189.194 39.7255 190.804 39.7255Z" fill="url(#paint4_linear_1072_4176)"/>
<path d="M165.78 22.5781C168.49 22.5781 170.637 23.3832 172.22 24.9932C173.83 26.5765 174.635 28.9648 174.635 32.1581V44.5557H168.356V33.1242C168.356 31.4067 167.994 30.1321 167.269 29.3002C166.571 28.4415 165.565 28.0121 164.25 28.0121C162.774 28.0121 161.607 28.4952 160.748 29.4612C159.89 30.4004 159.46 31.8093 159.46 33.6877V44.5557H153.181V33.1242C153.181 29.7161 151.812 28.0121 149.075 28.0121C147.626 28.0121 146.472 28.4952 145.613 29.4612C144.755 30.4004 144.325 31.8093 144.325 33.6877V44.5557H138.046V22.9001H144.044V25.3958C144.849 24.4834 145.828 23.7857 146.982 23.3027C148.163 22.8196 149.451 22.5781 150.846 22.5781C152.376 22.5781 153.758 22.8867 154.992 23.5039C156.227 24.0943 157.219 24.9664 157.971 26.1203C158.856 24.9932 159.97 24.1211 161.312 23.5039C162.68 22.8867 164.17 22.5781 165.78 22.5781Z" fill="url(#paint5_linear_1072_4176)"/>
<path d="M125.939 22.8997H132.218V44.5553H125.939V22.8997ZM129.079 19.8808C127.925 19.8808 126.986 19.5454 126.261 18.8745C125.536 18.2036 125.174 17.3718 125.174 16.3789C125.174 15.386 125.536 14.5541 126.261 13.8833C126.986 13.2124 127.925 12.877 129.079 12.877C130.233 12.877 131.172 13.199 131.896 13.843C132.621 14.487 132.983 15.2921 132.983 16.2581C132.983 17.3047 132.621 18.1768 131.896 18.8745C131.172 19.5454 130.233 19.8808 129.079 19.8808Z" fill="url(#paint6_linear_1072_4176)"/>
<path d="M120.125 22.9001V44.5557H114.128V42.0601C112.571 43.9385 110.317 44.8777 107.366 44.8777C105.326 44.8777 103.474 44.4215 101.811 43.5092C100.174 42.5968 98.8858 41.2953 97.9465 39.6047C97.0073 37.9141 96.5377 35.9552 96.5377 33.7279C96.5377 31.5007 97.0073 29.5417 97.9465 27.8511C98.8858 26.1606 100.174 24.8591 101.811 23.9467C103.474 23.0343 105.326 22.5781 107.366 22.5781C110.129 22.5781 112.29 23.4503 113.846 25.1945V22.9001H120.125ZM108.452 39.7255C110.036 39.7255 111.35 39.1888 112.397 38.1154C113.444 37.0152 113.967 35.5527 113.967 33.7279C113.967 31.9032 113.444 30.4541 112.397 29.3807C111.35 28.2805 110.036 27.7304 108.452 27.7304C106.842 27.7304 105.514 28.2805 104.467 29.3807C103.421 30.4541 102.898 31.9032 102.898 33.7279C102.898 35.5527 103.421 37.0152 104.467 38.1154C105.514 39.1888 106.842 39.7255 108.452 39.7255Z" fill="url(#paint7_linear_1072_4176)"/>
<path d="M73.8812 7.75055L73.8886 7.13396L74.106 7.71094L73.8812 7.75055Z" fill="url(#paint8_linear_1072_4176)"/>
<path d="M72.2573 7.30262C72.278 7.29824 72.2903 7.30656 72.2949 7.32805L72.3849 7.75078C72.3892 7.77097 72.3814 7.78363 72.3607 7.78802L72.1803 7.82627L72.0769 7.34088L72.2573 7.30262Z" fill="url(#paint9_linear_1072_4176)"/>
<path d="M64.3625 11.9314C64.3804 11.9202 64.3837 11.906 64.3725 11.8881L63.7551 10.9021C63.7439 10.8843 63.7296 10.8809 63.7117 10.8921L63.5553 10.9896L64.2061 12.0289L64.3625 11.9314Z" fill="url(#paint10_linear_1072_4176)"/>
<path d="M58.905 14.9407C58.8904 14.9266 58.8761 14.9272 58.8614 14.9424L58.7552 15.0522C58.7405 15.0673 58.7405 15.0816 58.755 15.0956L59.5931 15.9033C59.6089 15.9186 59.6238 15.9186 59.6385 15.9035L59.7447 15.7937C59.7595 15.7785 59.7588 15.7636 59.743 15.7484L58.905 14.9407Z" fill="url(#paint11_linear_1072_4176)"/>
<path d="M52.339 27.2816C52.3176 27.2763 52.3047 27.2837 52.2995 27.3042L52.255 27.4827L52.7374 27.6028L52.782 27.4242C52.7872 27.4038 52.7792 27.3912 52.7592 27.3862L52.339 27.2816Z" fill="url(#paint12_linear_1072_4176)"/>
<path d="M51.9646 29.0478C51.9675 29.0269 51.9796 29.0182 52.0014 29.0213L52.4302 29.0814C52.4507 29.0843 52.4599 29.096 52.457 29.1169L52.4313 29.2991L51.9389 29.23L51.9646 29.0478Z" fill="url(#paint13_linear_1072_4176)"/>
<path d="M52.0198 36.1084L52.6364 36.148L52.6086 35.9218L52.0198 36.1084Z" fill="url(#paint14_linear_1072_4176)"/>
<path d="M54.4739 41.882C54.4936 41.8744 54.5069 41.8803 54.5145 41.9L54.5806 42.0718L53.4342 42.511L53.368 42.3392C53.3605 42.3195 53.3665 42.3062 53.3861 42.2987L54.4739 41.882Z" fill="url(#paint15_linear_1072_4176)"/>
<path d="M55.4176 43.9822C55.408 43.9633 55.394 43.9589 55.3752 43.9684L54.3371 44.4963C54.3184 44.5059 54.3138 44.5197 54.3234 44.5385L54.4071 44.7025L55.5013 44.1461L55.4176 43.9822Z" fill="url(#paint16_linear_1072_4176)"/>
<path d="M58.6613 49.6998L58.1225 50.0017L58.5145 49.5252L58.6613 49.6998Z" fill="url(#paint17_linear_1072_4176)"/>
<path d="M59.09 51.3296C59.0756 51.3142 59.0765 51.2994 59.0925 51.2844L59.4092 50.9897C59.4243 50.9756 59.4393 50.9758 59.4537 50.9912L59.5795 51.1258L59.2158 51.4643L59.09 51.3296Z" fill="url(#paint18_linear_1072_4176)"/>
<path d="M67.1753 55.6882C67.1562 55.6794 67.1425 55.6843 67.1336 55.7035L66.6412 56.7573C66.6323 56.7763 66.6372 56.7901 66.6564 56.799L66.8235 56.8768L67.3425 55.7661L67.1753 55.6882Z" fill="url(#paint19_linear_1072_4176)"/>
<path d="M73.2309 58.9396C73.227 58.9595 73.2353 58.9711 73.256 58.9752L73.4061 59.0043C73.4269 59.0083 73.4389 59.0005 73.4428 58.9807L73.6651 57.8394C73.6693 57.8178 73.6612 57.8053 73.6405 57.8013L73.4903 57.7722C73.4695 57.7682 73.4574 57.7767 73.4532 57.7983L73.2309 58.9396Z" fill="url(#paint20_linear_1072_4176)"/>
<path d="M80.4767 7.96061C80.4977 7.96207 80.5088 7.95251 80.5103 7.93147L80.5915 6.77156C80.593 6.75057 80.5834 6.73955 80.5624 6.73808L80.3784 6.7252L80.2927 7.94773L80.4767 7.96061Z" fill="url(#paint21_linear_1072_4176)"/>
<path d="M82.7466 8.26154C82.7429 8.28229 82.7309 8.29068 82.7101 8.28702L82.5285 8.25506L82.7418 7.04817L82.9233 7.08013C82.9442 7.08378 82.9525 7.09576 82.9489 7.11647L82.7466 8.26154Z" fill="url(#paint22_linear_1072_4176)"/>
<path d="M88.9844 9.12953L88.6328 9.63653L88.8414 9.72924L88.9844 9.12953Z" fill="url(#paint23_linear_1072_4176)"/>
<path d="M95.0925 12.7567C95.1087 12.7703 95.1097 12.7851 95.0955 12.802L94.8172 13.133C94.8038 13.1489 94.789 13.1505 94.7729 13.1369L94.6316 13.0186L94.9512 12.6385L95.0925 12.7567Z" fill="url(#paint24_linear_1072_4176)"/>
<path d="M96.3476 13.9482C96.3626 13.9322 96.3624 13.9173 96.3469 13.9029L96.2121 13.7774L95.873 14.1403L96.0078 14.2658C96.0232 14.2802 96.0381 14.2794 96.0523 14.2643L96.3476 13.9482Z" fill="url(#paint25_linear_1072_4176)"/>
<path d="M97.8585 48.758C97.8419 48.745 97.8401 48.7306 97.8531 48.714L97.9666 48.5689L98.9343 49.3235L98.8208 49.4685C98.8077 49.4851 98.7933 49.4868 98.7766 49.4739L97.8585 48.758Z" fill="url(#paint26_linear_1072_4176)"/>
<path d="M94.1659 53.8128L93.873 53.2699L93.6955 53.4134L94.1659 53.8128Z" fill="url(#paint27_linear_1072_4176)"/>
<path d="M88.0637 57.4951C88.0441 57.5029 88.0305 57.4968 88.0223 57.4765L87.86 57.0758C87.8523 57.0566 87.8578 57.0428 87.8774 57.0349L88.0484 56.966L88.2347 57.4261L88.0637 57.4951Z" fill="url(#paint28_linear_1072_4176)"/>
<path d="M86.4385 58.0541C86.4457 58.0749 86.459 58.0817 86.479 58.0748L86.6533 58.0149L86.4914 57.5457L86.3171 57.6056C86.2971 57.6125 86.2909 57.626 86.2976 57.6455L86.4385 58.0541Z" fill="url(#paint29_linear_1072_4176)"/>
<path fill-rule="evenodd" clip-rule="evenodd" d="M78.3653 61.1692C88.5302 61.1692 97.4404 55.7874 102.412 47.7125C101.906 47.5368 101.408 47.3321 100.921 47.0979L100.374 47.9713C100.335 48.0095 100.279 48.0367 100.205 48.0531C100.059 48.0856 99.8986 48.0474 99.7246 47.9389L99.0618 47.5256C98.8878 47.4171 98.7831 47.2899 98.7482 47.1444C98.7306 47.0711 98.7305 47.0087 98.748 46.9572L99.2562 46.1456C98.9336 45.9283 98.6226 45.6982 98.3234 45.4555C94.1355 51.9964 86.7332 56.342 78.3 56.342C65.2367 56.342 54.6468 45.9148 54.6468 33.0523C54.6468 20.1898 65.2367 9.76262 78.3 9.76262C87.2858 9.76262 95.1014 14.6964 99.1048 21.9628C99.4588 21.7172 99.8272 21.4874 100.21 21.2737L100.22 21.2682L100.229 21.2628C101.27 20.6912 102.359 20.2603 103.491 19.9654C98.8072 10.8377 89.3141 4.59375 78.3653 4.59375C67.8836 4.59375 58.7358 10.3165 53.8649 18.8136H43.1528V18.8827L37.697 24.3488L30.3643 24.3488C29.9231 23.4184 28.9766 22.7751 27.8801 22.7751C26.362 22.7751 25.1313 24.0081 25.1313 25.5291C25.1313 27.0501 26.362 28.2831 27.8801 28.2831C28.9766 28.2831 29.9231 27.6398 30.3643 26.7094L39.2677 26.7094L44.7073 21.2594H52.6168C52.1664 22.2596 51.7723 23.2908 51.4386 24.3488H44.765V43.2333H52.0817C52.5151 44.3368 53.0156 45.4065 53.5784 46.4373H29.0206L29.0582 46.3807L24.3132 41.6266C24.1087 40.3081 22.9706 39.299 21.5972 39.299C20.0792 39.299 18.8485 40.532 18.8485 42.053C18.8485 43.574 20.0792 44.807 21.5972 44.807C22.1555 44.807 22.6748 44.6403 23.1084 44.3538L27.4875 48.7413L27.5005 48.7218V48.7392H54.9816C60.059 56.2403 68.6377 61.1692 78.3653 61.1692ZM47.1213 26.7094H50.8055C50.3642 28.6961 50.1315 30.7616 50.1315 32.8815C50.1315 35.6567 50.5303 38.3386 51.2738 40.8727H47.1213V26.7094ZM27.8801 24.3488C28.5234 24.3488 29.0464 24.8656 29.0579 25.5074V25.5508C29.0464 26.1927 28.5234 26.7094 27.8801 26.7094C27.2295 26.7094 26.702 26.181 26.702 25.5291C26.702 24.8773 27.2295 24.3488 27.8801 24.3488ZM22.7753 42.053C22.7753 42.7049 22.2478 43.2333 21.5972 43.2333C20.9466 43.2333 20.4192 42.7049 20.4192 42.053C20.4192 41.4012 20.9466 40.8727 21.5972 40.8727C22.2478 40.8727 22.7753 41.4012 22.7753 42.053ZM76.9506 6.7742L76.9424 6.30338L78.2775 6.28015L77.7702 7.73407L78.2609 7.72551L78.2691 8.19408L76.9452 8.21715L77.493 6.76475L76.9506 6.7742ZM76.0981 6.38012L76.69 6.33877L76.8238 8.2477L76.2319 8.28899L76.0981 6.38012ZM75.385 6.41612L74.796 6.4883L75.0297 8.38756L76.0912 8.25749L76.034 7.79229L75.5614 7.85018L75.385 6.41612ZM73.44 6.69246L73.3342 8.6541L73.8778 8.55846L73.8807 8.09732L74.2262 8.03651L74.3887 8.46856L74.9306 8.37321L74.1588 6.56593L73.44 6.69246ZM72.726 6.94691C72.6524 6.89881 72.5317 6.89268 72.3648 6.92812L71.4249 7.12744L71.8236 8.99919L72.4039 8.87609L72.2472 8.14047L72.4386 8.09991C72.4529 8.103 72.4616 8.11082 72.4644 8.12387L72.5489 8.52088C72.5785 8.65967 72.6107 8.76105 72.6458 8.82479L73.2262 8.70169C73.1925 8.64465 73.1616 8.54918 73.1333 8.41624L73.0493 8.02176C73.0356 7.9578 73.005 7.90323 72.9576 7.85834C72.9112 7.81412 72.8146 7.79499 72.668 7.80152C72.8046 7.74835 72.8852 7.69255 72.9098 7.63415C72.9349 7.5739 72.9319 7.47078 72.9007 7.3244L72.8892 7.27011C72.8535 7.10274 72.7992 6.99467 72.726 6.94691ZM69.8557 7.57221L71.2312 7.2044L71.3204 7.53665L70.9192 7.64394L71.3262 9.16002L70.7531 9.31327L70.3461 7.79718L69.9449 7.90447L69.8557 7.57221ZM69.5408 7.68608L70.228 9.47254L69.6978 9.67562L69.1183 8.98146L69.4254 9.77998L68.8715 9.99213L68.1844 8.20573L68.7145 8.00258L69.2945 8.69798L68.9869 7.89828L69.5408 7.68608ZM66.9472 8.72993L67.9242 8.29585L68.0644 8.6101L67.6294 8.80341L67.7926 9.16914L68.2275 8.97583L68.3656 9.28542L67.9307 9.47866L68.1289 9.92293L68.5639 9.72969L68.7041 10.0439L67.7271 10.4781L66.9472 8.72993ZM66.6405 8.95508C66.5568 8.92762 66.4387 8.95288 66.2866 9.03024L65.8252 9.26488C65.6723 9.34258 65.5824 9.42308 65.5563 9.50634C65.5284 9.58904 65.554 9.7073 65.6322 9.8606L66.1005 10.7778C66.1779 10.9295 66.2585 11.0189 66.3419 11.045C66.4248 11.0729 66.5428 11.0476 66.6957 10.9699L67.1571 10.7352C67.3092 10.6579 67.3991 10.5774 67.4261 10.4937C67.4532 10.4114 67.4468 10.3316 67.4075 10.2546L67.2217 9.8907L66.693 10.1595L66.8518 10.4706C66.861 10.4886 66.8563 10.5021 66.8374 10.5117L66.7012 10.581C66.6824 10.5905 66.6687 10.5864 66.6595 10.5684L66.1305 9.53239C66.1206 9.51281 66.1248 9.49858 66.1437 9.48902L66.28 9.41971C66.2988 9.41014 66.3129 9.41504 66.3229 9.43462L66.4803 9.74302L67.009 9.47416L66.8245 9.11288C66.7845 9.03434 66.7231 8.98152 66.6405 8.95508ZM64.3049 10.1134L65.2403 9.59596L65.4073 9.89683L64.9909 10.1272L65.1854 10.4773L65.6018 10.247L65.7664 10.5433L65.35 10.7737L65.5863 11.199L66.0027 10.9687L66.1698 11.2696L65.2345 11.787L64.3049 10.1134ZM64.8885 11.8918C64.8721 11.9655 64.8448 12.0216 64.8065 12.0602L63.8856 12.6344L62.8695 11.0116L63.7904 10.4374C63.8419 10.42 63.9045 10.42 63.978 10.4376C64.1237 10.4725 64.2512 10.577 64.3599 10.7506L64.7741 11.4121C64.8828 11.5856 64.9211 11.7458 64.8885 11.8918ZM62.2229 13.9629L60.9905 12.497L60.5359 12.8776L61.0876 13.5338L60.3125 13.0647L59.8774 13.4291L61.1099 14.8949L61.5644 14.5143L61.0136 13.8591L61.7879 14.3272L62.2229 13.9629ZM59.6958 13.6557L59.2619 14.0595L60.5695 15.459L61.0035 15.0552L59.6958 13.6557ZM58.7406 14.5719C58.8592 14.4494 58.9626 14.3871 59.0507 14.3859C59.1375 14.384 59.243 14.4433 59.3671 14.5628L60.1091 15.2779C60.2318 15.3962 60.2943 15.4988 60.2954 15.5855C60.2973 15.6733 60.2385 15.7787 60.12 15.9012L59.7601 16.273C59.641 16.3961 59.5376 16.4584 59.4502 16.459C59.3628 16.4615 59.2575 16.4031 59.1348 16.2848L58.3928 15.5697C58.2688 15.4502 58.206 15.3467 58.2054 15.2594C58.203 15.1722 58.2618 15.0668 58.3809 14.9437L58.7406 14.5719ZM57.8694 15.6368C57.7817 15.6457 57.6841 15.7167 57.5767 15.849L57.2508 16.2507C57.1428 16.3838 57.0935 16.4938 57.1036 16.5804C57.1118 16.6674 57.1833 16.765 57.3173 16.8733L58.1189 17.5211C58.2516 17.6282 58.3615 17.6773 58.4484 17.6672C58.5354 17.6591 58.633 17.588 58.7409 17.455L59.0669 17.0533C59.1743 16.9209 59.2236 16.8109 59.2141 16.7235C59.2053 16.6373 59.167 16.567 59.0997 16.5127L58.7816 16.2556L58.4082 16.7158L58.68 16.9355C58.6958 16.9482 58.697 16.9624 58.6837 16.9788L58.5875 17.0975C58.5742 17.1138 58.56 17.1156 58.5442 17.1029L57.6388 16.3712C57.6217 16.3574 57.6198 16.3426 57.6331 16.3262L57.7294 16.2076C57.7427 16.1912 57.7575 16.19 57.7746 16.2037L58.0442 16.4216L58.4176 15.9614L58.1018 15.7062C58.0332 15.6507 57.9557 15.6274 57.8694 15.6368ZM57.1096 18.861L57.217 18.7135C57.2299 18.6957 57.2277 18.6804 57.21 18.6675L56.0652 17.8374L56.4139 17.3584L57.71 18.2982C57.78 18.349 57.8215 18.4178 57.8345 18.5038C57.8484 18.5909 57.8051 18.703 57.7045 18.8411L57.4895 19.1364L57.1096 18.861ZM54.9257 21.9401L53.7545 21.8338L54.0183 21.3387L54.6675 21.4666L54.1979 21.0016L54.4615 20.5069L55.2049 21.4161L55.9407 21.8065L55.6615 22.3305L54.9257 21.9401ZM53.6777 22.2378C53.5966 22.2719 53.5241 22.3683 53.4601 22.5262L53.2661 23.0054C53.2019 23.1641 53.187 23.2837 53.2219 23.3637C53.2552 23.4444 53.3523 23.5169 53.5121 23.5814L54.4685 23.967C54.6267 24.0308 54.7462 24.0456 54.8263 24.0106C54.9072 23.9774 54.9797 23.881 55.0439 23.7223L55.238 23.243C55.3019 23.0851 55.3169 22.9655 55.2822 22.8847C55.2486 22.8048 55.1913 22.7488 55.111 22.7164L54.7314 22.5634L54.5092 23.1124L54.8335 23.2432C54.8523 23.2508 54.8577 23.264 54.8497 23.2836L54.7924 23.4251C54.7846 23.4447 54.7715 23.4505 54.7527 23.4429L53.6724 23.0074C53.652 22.9992 53.6459 22.9856 53.6538 22.9661L53.7112 22.8246C53.7191 22.805 53.7329 22.7995 53.7533 22.8077L54.0749 22.9374L54.2972 22.3883L53.9204 22.2364C53.8385 22.2034 53.7576 22.2036 53.6777 22.2378ZM54.8288 24.3076L53.0158 23.6846L52.8226 24.2444L53.6342 24.5233L52.7276 24.5197L52.5427 25.0555L54.3557 25.6785L54.5489 25.1187L53.7386 24.8402L54.6439 24.8434L54.8288 24.3076ZM52.4617 25.3106L52.1669 26.3365L54.0101 26.864L54.3048 25.8381L53.9735 25.7432L53.8422 26.2L53.3738 26.0659L53.505 25.6091L53.1786 25.5158L53.0474 25.9725L52.6618 25.8621L52.793 25.4054L52.4617 25.3106ZM52.0094 27.0436C52.0507 26.8784 52.1091 26.7728 52.1847 26.7278C52.2598 26.6831 52.381 26.6818 52.5473 26.7232L52.6013 26.7366C52.7467 26.7728 52.8409 26.8153 52.8842 26.8642C52.9261 26.9118 52.941 27.0086 52.9289 27.1545C52.9873 27.0202 53.0469 26.9419 53.107 26.9197C53.1683 26.8968 53.2309 26.8933 53.2945 26.9091L53.6866 27.0066C53.8187 27.0395 53.9182 27.0537 53.9843 27.0484L53.8408 27.6229C53.768 27.6265 53.6626 27.611 53.5246 27.5766L53.13 27.4785C53.1171 27.4752 53.1062 27.4796 53.0971 27.4911L53.0497 27.6805L53.781 27.8624L53.6374 28.437L51.7769 27.974L52.0094 27.0436ZM51.7899 28.4866C51.7194 28.5393 51.6725 28.6503 51.6487 28.8189L51.515 29.7685L53.4137 30.0348L53.4963 29.4485L52.7501 29.3438L52.7773 29.1505C52.7851 29.1381 52.7955 29.1327 52.8087 29.1345L53.2115 29.191C53.3522 29.2108 53.4587 29.2152 53.5307 29.2041L53.6133 28.6177C53.5481 28.6298 53.4477 28.6261 53.3128 28.6072L52.9126 28.5511C52.8477 28.542 52.7859 28.552 52.7274 28.5812C52.6698 28.6096 52.6188 28.6936 52.5748 28.8333C52.5715 28.687 52.5465 28.5923 52.4999 28.5493C52.4518 28.5052 52.3537 28.4727 52.2051 28.4519L52.1501 28.4441C51.9803 28.4203 51.86 28.4343 51.7899 28.4866ZM51.4899 30.047L52.9601 30.1753C53.13 30.1902 53.2433 30.2307 53.2989 30.2973C53.3557 30.3644 53.3764 30.4832 53.3615 30.6529L53.3164 31.1678C53.3014 31.3382 53.2604 31.4516 53.1928 31.507C53.1264 31.5638 53.0078 31.5845 52.8378 31.5697L51.3677 31.4413L51.4193 30.8514L52.9522 30.9853C52.9741 30.9872 52.9858 30.9775 52.9877 30.9556L53.0009 30.8048C53.0027 30.7838 52.9929 30.7726 52.971 30.7707L51.4382 30.6369L51.4899 30.047ZM51.4681 31.8113C51.4035 31.871 51.3684 31.9863 51.3624 32.1565L51.3444 32.6731C51.3383 32.8441 51.3653 32.9617 51.4256 33.0248C51.4846 33.0893 51.6006 33.1243 51.7729 33.1303L52.8037 33.1663C52.9743 33.1722 53.0917 33.1453 53.155 33.0851C53.2196 33.0262 53.2547 32.9109 53.2606 32.7399L53.2787 32.2233C53.2847 32.0531 53.2578 31.9356 53.1974 31.8715C53.1385 31.8079 53.0654 31.7748 52.9789 31.7718L52.5699 31.7575L52.5491 32.3494L52.8988 32.3616C52.919 32.3622 52.9286 32.3729 52.9278 32.394L52.9225 32.5465C52.9217 32.5676 52.9115 32.5775 52.8912 32.5768L51.7269 32.5363C51.7049 32.5355 51.6944 32.5248 51.6952 32.5037L51.7005 32.3512C51.7013 32.3301 51.7124 32.3202 51.7344 32.321L52.0811 32.333L52.1017 31.7412L51.6956 31.7271C51.6074 31.724 51.5314 31.7519 51.4681 31.8113ZM51.405 35.1729L51.3636 34.5822L52.8079 34.4815L52.7747 34.0074L53.2432 33.9747L53.3178 35.0394L51.405 35.1729ZM53.512 36.7404L51.5545 36.5323L51.4656 35.8093L53.3145 35.1348L53.3815 35.6798L52.9407 35.8192L52.9834 36.1666L53.4448 36.1937L53.512 36.7404ZM51.8746 38.4152L51.6273 37.0156L51.9668 36.956L52.0389 37.3642L53.5878 37.0916L53.6908 37.6747L52.142 37.9473L52.2141 38.3555L51.8746 38.4152ZM51.9345 38.636L52.0679 39.213L53.9363 38.7825L53.8028 38.2056L51.9345 38.636ZM52.2181 39.8745C52.1739 39.71 52.1737 39.5895 52.218 39.5135C52.262 39.4381 52.3673 39.3783 52.5329 39.334L52.8184 39.2577L52.972 39.8296L52.6265 39.922C52.6057 39.9276 52.5975 39.9404 52.6031 39.9608L52.6426 40.1082C52.6481 40.1286 52.6616 40.1357 52.6824 40.1301L53.8082 39.829C53.8274 39.824 53.8347 39.8113 53.8292 39.7909L53.7896 39.6435C53.7842 39.6231 53.7715 39.6159 53.7524 39.621L53.3878 39.7185L53.4155 39.8219L53.2083 39.8773L53.0269 39.2019L53.9559 38.9535L54.0003 39.1188L53.8409 39.2215C53.9571 39.2087 54.0438 39.3009 54.102 39.4976L54.2043 39.8785C54.2486 40.0438 54.2493 40.1643 54.2056 40.2391C54.1619 40.3154 54.0571 40.3755 53.8922 40.4196L52.8959 40.686C52.7303 40.7303 52.609 40.7307 52.5329 40.6865C52.4567 40.6436 52.3965 40.5391 52.3521 40.3738L52.2181 39.8745ZM52.5717 41.0574L52.755 41.6205L54.5786 41.0292L54.3952 40.4661L52.5717 41.0574ZM54.7259 41.4896C54.6952 41.4447 54.6453 41.4073 54.576 41.3772C54.4386 41.3174 54.2737 41.3244 54.0822 41.3977L53.3525 41.6773C53.161 41.7506 53.0339 41.8555 52.9718 41.9917C52.9405 42.0603 52.9285 42.1216 52.9358 42.1754L53.325 43.1871L55.115 42.5013L54.7259 41.4896ZM55.4239 43.4557C55.496 43.4784 55.5496 43.5105 55.5848 43.552L56.0778 44.5175L54.3693 45.3863L53.8763 44.4207C53.8634 44.3679 53.8689 44.3058 53.8928 44.2343C53.9404 44.0923 54.0558 43.9748 54.2386 43.8818L54.935 43.5277C55.1178 43.4347 55.281 43.4107 55.4239 43.4557ZM54.9875 46.5561L54.469 45.6226L54.7705 45.4558L55.0014 45.8714L55.3522 45.6773L55.1214 45.2618L55.4183 45.0975L55.6491 45.5131L56.0754 45.2773L55.8446 44.8617L56.1461 44.6949L56.6645 45.6283L54.9875 46.5561ZM56.2171 47.6043L55.817 47.8538L55.1094 46.7237L56.6194 46.4087L56.3594 45.9934L56.7577 45.7451L57.4593 46.8657L55.9297 47.1451L56.2171 47.6043ZM56.2998 48.5368L55.9595 48.0518L57.5301 46.9543L57.8704 47.4393L56.2998 48.5368ZM56.7277 49.1081L57.093 49.5747L58.6039 48.3966L57.9456 47.5556L57.5755 47.8441L57.8686 48.2185L56.7277 49.1081ZM57.9637 50.6102L59.7189 49.7207L59.3641 49.2988L58.9624 49.5268L58.737 49.2587L59.0306 48.9022L58.6769 48.4815L57.4945 50.0521L57.9637 50.6102ZM58.5431 51.1119C58.5397 51.1997 58.5966 51.3061 58.713 51.4306L59.3683 52.1319L60.7706 50.8269L60.366 50.3938L59.8149 50.9067L59.6814 50.764C59.6768 50.7501 59.679 50.7387 59.6888 50.7295L59.9862 50.4527C60.0902 50.3559 60.1607 50.2762 60.1973 50.2133L59.7927 49.7803C59.761 49.8385 59.695 49.914 59.5954 50.0067L59.2998 50.2818C59.2519 50.3264 59.2208 50.3807 59.2067 50.4444C59.1926 50.5069 59.226 50.5993 59.307 50.7214C59.1909 50.6319 59.1015 50.5917 59.0387 50.6007C58.974 50.6103 58.887 50.666 58.7773 50.768L58.7367 50.8059C58.6113 50.9226 58.5464 51.0247 58.5431 51.1119ZM60.5833 53.2735L59.559 52.2863L59.7984 52.0389L60.0972 52.3268L61.1897 51.1978L61.6165 51.6091L60.524 52.7381L60.8228 53.026L60.5833 53.2735ZM60.8299 53.4229L62.0366 51.9358L62.4779 52.2924L62.1653 53.1403L62.7046 52.4756L63.1657 52.8483L61.959 54.3354L61.5177 53.9787L61.8311 53.1298L61.291 53.7955L60.8299 53.4229ZM63.0389 55.1224L62.1737 54.4951L62.3764 54.2168L62.7616 54.496L62.9973 54.1722L62.6121 53.8929L62.8117 53.6188L63.1969 53.8981L63.4834 53.5046L63.0982 53.2253L63.3008 52.947L64.166 53.5743L63.0389 55.1224ZM63.4133 55.2439C63.4313 55.33 63.5123 55.4194 63.6554 55.5122L64.0898 55.7937C64.2336 55.8869 64.3484 55.9243 64.4338 55.9053C64.5195 55.8881 64.6093 55.8068 64.7033 55.6626L65.2651 54.7993C65.358 54.6564 65.3953 54.5422 65.3762 54.457C65.359 54.3714 65.278 54.282 65.1341 54.1888L64.6998 53.9073C64.5566 53.8146 64.4418 53.7771 64.3557 53.7956C64.2708 53.8134 64.2047 53.8588 64.1575 53.9312L63.9346 54.2738L64.4323 54.5964L64.6228 54.3035C64.6338 54.2866 64.6479 54.2839 64.6656 54.2954L64.7938 54.3785C64.8116 54.39 64.8148 54.4039 64.8038 54.4208L64.1692 55.396C64.1573 55.4144 64.1427 55.4178 64.125 55.4063L63.9968 55.3232C63.979 55.3117 63.9763 55.2971 63.9882 55.2787L64.1771 54.9884L63.6795 54.6658L63.4582 55.006C63.4101 55.0799 63.3949 55.1593 63.4133 55.2439ZM65.625 56.6841L64.6989 56.1505L64.8712 55.8525L65.2836 56.0901L65.4842 55.7434L65.0718 55.5059L65.2416 55.2124L65.6539 55.45L65.8976 55.0288L65.4852 54.7912L65.6576 54.4933L66.5838 55.0269L65.625 56.6841ZM66.8556 55.2695C66.9264 55.2431 66.9885 55.2355 67.0418 55.2465L68.0259 55.7045L67.2155 57.4388L66.2314 56.9808C66.1887 56.9471 66.1547 56.8947 66.1294 56.8237C66.0793 56.6827 66.0977 56.5191 66.1844 56.3335L66.5147 55.6266C66.6014 55.4411 66.7152 55.3218 66.8556 55.2695ZM70.6203 56.711L70.0918 58.5504L70.6621 58.7136L70.8987 57.8902L70.9425 58.7939L71.4884 58.9501L72.0169 57.1107L71.4466 56.9475L71.2104 57.7696L71.1662 56.8672L70.6203 56.711ZM77.5151 58.2991L77.3325 58.2928C77.3105 58.292 77.299 58.3024 77.2982 58.3243L77.2488 59.7356L76.6559 59.715L76.7118 58.1171C76.7148 58.0308 76.7488 57.9579 76.8129 57.8991C76.8775 57.839 76.9949 57.8121 77.1659 57.818L77.5314 57.8307L77.5151 58.2991ZM74.3423 59.3883C74.3951 59.4587 74.5063 59.5055 74.6753 59.5293L75.1882 59.6012C75.358 59.625 75.478 59.6105 75.5472 59.5573C75.6177 59.5055 75.6647 59.394 75.6886 59.2237L75.8322 58.2043C75.8559 58.0356 75.8415 57.9163 75.7881 57.8472C75.7362 57.7769 75.6249 57.7301 75.4551 57.7062L74.9422 57.6343C74.7732 57.6106 74.6533 57.625 74.5831 57.6782C74.5136 57.7301 74.4729 57.7991 74.4609 57.8847L74.4039 58.2892L74.9915 58.3716L75.0402 58.0259C75.043 58.0059 75.0546 57.9975 75.0755 58.0004L75.227 58.0217C75.2479 58.0246 75.2568 58.0358 75.2539 58.0558L75.0918 59.2072C75.0887 59.229 75.077 59.2382 75.0561 59.2352L74.9047 59.214C74.8837 59.2111 74.875 59.199 74.8781 59.1772L74.9263 58.8345L74.3388 58.7521L74.2822 59.1536C74.2699 59.2409 74.2898 59.3193 74.3423 59.3883ZM73.0105 59.278C72.8429 59.2455 72.7343 59.1928 72.6852 59.1198C72.6364 59.0482 72.6288 58.9275 72.6616 58.7587L72.8585 57.7482C72.891 57.581 72.9433 57.4729 73.0154 57.4246C73.0883 57.3753 73.2088 57.3671 73.3763 57.3996L73.8847 57.4982C74.0531 57.5309 74.1617 57.5835 74.2099 57.6564C74.2596 57.7282 74.2678 57.8481 74.2353 58.0152L74.0384 59.0257C74.0055 59.1946 73.9527 59.3035 73.8797 59.3515C73.8077 59.4011 73.6872 59.4092 73.5189 59.3766L73.0105 59.278ZM71.7616 59.0013L72.3398 59.1345L72.7711 57.27L72.193 57.1368L71.7616 59.0013ZM78.4643 6.30602L79.5336 6.32465L79.5276 6.6686L79.0516 6.66028L79.0446 7.06055L79.5207 7.06888L79.5147 7.40766L79.0387 7.39933L79.0301 7.88562L79.5062 7.89389L79.5002 8.23785L78.4309 8.21923L78.4643 6.30602ZM80.9256 8.23718C80.8689 8.28713 80.8137 8.31644 80.76 8.32522L79.6768 8.24961L79.8106 6.34073L80.8938 6.41634C80.9457 6.43249 80.9963 6.46923 81.0454 6.5265C81.1428 6.64025 81.1844 6.79957 81.17 7.00379L81.1155 7.78188C81.1013 7.9861 81.0379 8.13816 80.9256 8.23718ZM82.9537 8.67919C83.0081 8.6761 83.066 8.65269 83.1275 8.60887C83.2496 8.52212 83.3286 8.37748 83.3642 8.17596L83.4999 7.40777C83.5355 7.20614 83.5109 7.04339 83.4259 6.92013C83.3831 6.85802 83.3367 6.81622 83.2867 6.79473L82.2173 6.60654L81.8843 8.49101L82.9537 8.67919ZM84.4161 7.02921L83.8358 6.90612L83.4371 8.77787L84.0175 8.90096L84.4161 7.02921ZM85.6045 7.33694C85.7693 7.38105 85.8741 7.44113 85.9179 7.51736C85.9613 7.59308 85.9606 7.71398 85.9162 7.87926L85.8397 8.16421L85.2665 8.01091L85.3591 7.66622C85.3647 7.64546 85.3576 7.63195 85.3372 7.6265L85.1895 7.58701C85.169 7.58155 85.1562 7.5897 85.1506 7.61046L84.8489 8.73399C84.8438 8.75306 84.8511 8.76571 84.8715 8.77117L85.0192 8.81067C85.0397 8.81618 85.0523 8.80881 85.0574 8.78974L85.1551 8.42586L85.0515 8.39818L85.107 8.19132L85.7838 8.3723L85.5349 9.29938L85.3692 9.25504L85.3598 9.06602C85.3128 9.17279 85.1895 9.20166 84.9897 9.15356L84.608 9.0515C84.4423 9.00723 84.3375 8.94754 84.2944 8.87238C84.25 8.79643 84.2503 8.67582 84.2944 8.51138L84.5614 7.51702C84.6058 7.35174 84.6661 7.24676 84.7425 7.20305C84.8178 7.15866 84.9386 7.15889 85.1042 7.20316L85.6045 7.33694ZM86.8631 7.74323L86.2988 7.56028L85.7063 9.38016L86.2706 9.56316L86.8631 7.74323ZM87.089 7.81221L88.4184 8.3215L88.2949 8.64268L87.9071 8.4941L87.3435 9.95939L86.7896 9.74724L87.3532 8.28196L86.9654 8.13338L87.089 7.81221ZM87.673 10.0804L88.8599 8.51312L89.5267 8.80943L89.1539 10.7384L88.6512 10.515L88.7585 10.0661L88.4381 9.92378L88.1772 10.3045L87.673 10.0804ZM90.1016 9.10698L90.6303 9.37577L89.973 10.6632L90.3972 10.8789L90.184 11.2965L89.2311 10.8119L90.1016 9.10698ZM92.9553 10.8452C92.9358 10.7595 92.8533 10.6714 92.7086 10.5812L92.2694 10.3073C92.1239 10.2166 92.0085 10.1812 91.9235 10.2017C91.8381 10.2204 91.7497 10.3032 91.6583 10.4491L91.1117 11.3221C91.0213 11.4665 90.9859 11.5814 91.0065 11.6662C91.0252 11.7514 91.1078 11.8394 91.2533 11.9301L91.6925 12.204C91.8372 12.2942 91.9527 12.3297 92.0384 12.3097C92.1231 12.2905 92.1883 12.244 92.2342 12.1706L92.4511 11.8242L91.9479 11.5104L91.7625 11.8065C91.7517 11.8237 91.7378 11.8266 91.7198 11.8154L91.5901 11.7345C91.5722 11.7233 91.5687 11.7095 91.5795 11.6923L92.1969 10.7063C92.2085 10.6877 92.223 10.684 92.2409 10.6952L92.3706 10.7761C92.3885 10.7873 92.3916 10.8018 92.3799 10.8205L92.1961 11.114L92.6993 11.4278L92.9146 11.0839C92.9614 11.0092 92.9752 10.9295 92.9553 10.8452ZM94.4444 11.7865L93.5979 12.9929C93.5001 13.1324 93.4082 13.21 93.3227 13.2247C93.236 13.2403 93.1226 13.1988 92.9828 13.1011L92.5585 12.8046C92.4181 12.7065 92.3402 12.6143 92.326 12.5282C92.3098 12.4424 92.3511 12.3295 92.4491 12.1901L93.2955 10.9836L93.7815 11.3232L92.899 12.5811C92.8864 12.5991 92.889 12.614 92.9071 12.6266L93.0312 12.7134C93.0485 12.7255 93.0632 12.7226 93.0758 12.7046L93.9583 11.4468L94.4444 11.7865ZM95.6619 12.9064C95.6546 12.8188 95.5851 12.7202 95.4543 12.6107L94.7183 11.9943L93.4858 13.4602L93.9403 13.8408L94.4247 13.2647L94.5745 13.3902C94.5809 13.4034 94.58 13.415 94.5715 13.4252L94.31 13.7362C94.2187 13.8449 94.1584 13.9326 94.1298 13.9994L94.5842 14.38C94.6085 14.3184 94.6649 14.2354 94.7524 14.1313L95.0122 13.8223C95.0543 13.7722 95.0785 13.7146 95.0848 13.6496C95.0911 13.5859 95.0468 13.4982 94.9514 13.3869C95.0775 13.4616 95.1712 13.4907 95.2324 13.474C95.2954 13.4566 95.375 13.3908 95.4714 13.2762L95.5071 13.2337C95.6174 13.1026 95.6692 12.9934 95.6619 12.9064ZM96.716 13.776C96.8408 13.8921 96.905 13.9942 96.9078 14.0821C96.9105 14.1693 96.8529 14.2757 96.736 14.4008L96.6981 14.4414C96.5958 14.5508 96.5129 14.6124 96.4491 14.6265C96.387 14.6399 96.295 14.606 96.173 14.5248C96.2624 14.6409 96.3021 14.7308 96.2924 14.7941C96.2828 14.8587 96.2555 14.915 96.2108 14.9628L95.9352 15.2578C95.8423 15.3572 95.7817 15.4371 95.7542 15.4974L95.3203 15.0936C95.3525 15.0283 95.4172 14.9439 95.5142 14.8401L95.7916 14.5432C95.8007 14.5335 95.8021 14.5219 95.7964 14.5084L95.6534 14.3753L95.1395 14.9253L94.7055 14.5215L96.0133 13.122L96.716 13.776ZM97.9957 15.0727L97.2527 14.3049L95.8735 15.6342L96.6163 16.4019L96.8643 16.163L96.5336 15.8211L96.8841 15.4833L97.2148 15.8251L97.4591 15.5898L97.1284 15.2479L97.4169 14.9698L97.7477 15.3117L97.9957 15.0727ZM97.6815 17.6347L99.1287 16.3792L98.7394 15.9324L98.0917 16.4943L98.548 15.7126L98.1755 15.2849L96.7283 16.5403L97.1176 16.9872L97.7644 16.4261L97.309 17.2069L97.6815 17.6347ZM100.029 17.7458C100.043 17.659 99.9995 17.5465 99.8992 17.4087L99.5947 16.9906C99.4939 16.8521 99.4002 16.7761 99.3137 16.7633C99.2274 16.7488 99.1144 16.7925 98.9749 16.8936L98.1405 17.4986C98.0024 17.5988 97.9265 17.692 97.9137 17.7784C97.8991 17.8644 97.9427 17.9769 98.0435 18.1153L98.3479 18.5335C98.4482 18.6713 98.5419 18.7474 98.629 18.7608C98.7147 18.7747 98.7926 18.7559 98.8627 18.7051L99.1938 18.465L98.8451 17.9859L98.562 18.1912C98.5457 18.203 98.5316 18.2005 98.5191 18.1834L98.4293 18.06C98.4168 18.0429 98.4188 18.0287 98.4351 18.0169L99.3777 17.3335C99.3955 17.3205 99.4103 17.3225 99.4227 17.3396L99.5126 17.4631C99.525 17.4802 99.5224 17.4948 99.5046 17.5077L99.224 17.7112L99.5728 18.1903L99.9015 17.9519C99.973 17.9001 100.016 17.8314 100.029 17.7458ZM99.618 18.9154L100.279 17.9447L100.585 18.4149L100.158 18.9197L100.793 18.7352L101.099 19.2051L99.9419 19.4131L99.243 19.8661L98.9191 19.3684L99.618 18.9154ZM97.3917 48.7445C97.369 48.7939 97.3625 48.8559 97.3723 48.9307C97.3918 49.079 97.4827 49.2165 97.6443 49.3425L98.2602 49.8227C98.4218 49.9487 98.5775 50.0035 98.7264 49.9865C98.8014 49.9779 98.8602 49.9566 98.9027 49.9226L99.5713 49.0687L98.0602 47.8906L97.3917 48.7445ZM98.1651 50.8106L98.5465 50.357L97.0776 49.127L96.6962 49.5806L98.1651 50.8106ZM97.2985 51.6979C97.1821 51.8225 97.0798 51.8866 96.9918 51.8894C96.9043 51.8921 96.7977 51.8346 96.6724 51.718L96.4562 51.5168L96.8609 51.0837L97.1224 51.3271C97.1382 51.3418 97.1534 51.3419 97.1678 51.3265L97.2721 51.2148C97.2865 51.1994 97.2854 51.1842 97.2696 51.1696L96.4172 50.3763C96.4027 50.3628 96.3881 50.3633 96.3737 50.3787L96.2694 50.4903C96.255 50.5058 96.2555 50.5204 96.27 50.5338L96.546 50.7907L96.6192 50.7124L96.7761 50.8585L96.2983 51.3698L95.5949 50.7153L95.712 50.5901L95.8836 50.6706C95.8112 50.579 95.8435 50.4568 95.9799 50.3033L96.2494 50.0149C96.3663 49.8897 96.4684 49.8253 96.5551 49.8226C96.6431 49.8192 96.7497 49.8761 96.8745 49.9922L97.6289 50.6943C97.7543 50.811 97.8189 50.9134 97.8216 51.0012C97.8256 51.0884 97.7687 51.1948 97.6517 51.32L97.2985 51.6979ZM96.3696 52.6114L96.7964 52.2001L95.4645 50.8236L95.0377 51.2349L96.3696 52.6114ZM96.2088 52.7732L95.1341 53.7055L94.908 53.4459L95.2214 53.174L94.1896 51.9894L94.6374 51.601L95.6692 52.7855L95.9827 52.5136L96.2088 52.7732ZM93.9123 52.2151L94.7728 53.9819L94.2056 54.4404L92.6526 53.2331L93.0802 52.8875L93.4323 53.1867L93.7049 52.9665L93.4834 52.5617L93.9123 52.2151ZM93.6505 54.8133L93.1705 55.1613L92.3195 53.9924L91.9343 54.2717L91.6583 53.8925L92.5235 53.2652L93.6505 54.8133ZM90.7661 56.5197C90.851 56.5427 90.9677 56.5112 91.1155 56.4261L91.564 56.1676C91.7125 56.0821 91.7981 55.997 91.8198 55.9125C91.8434 55.8284 91.8116 55.7117 91.7254 55.5627L91.2097 54.6712C91.1244 54.5237 91.0394 54.4386 90.9546 54.417C90.8704 54.3935 90.7538 54.4249 90.6053 54.5105L90.1567 54.7689C90.0089 54.8541 89.9234 54.9391 89.9009 55.0241C89.878 55.1077 89.8886 55.1871 89.9319 55.2619L90.1366 55.6156L90.6505 55.3196L90.4755 55.0172C90.4654 54.9997 90.4694 54.986 90.4877 54.9754L90.6201 54.8992C90.6385 54.8886 90.6524 54.892 90.6625 54.9095L91.245 55.9165C91.256 55.9355 91.2524 55.9499 91.2341 55.9605L91.1017 56.0368C91.0834 56.0473 91.0691 56.0432 91.0581 56.0242L90.8847 55.7244L90.3708 56.0205L90.574 56.3717C90.6181 56.448 90.6821 56.4976 90.7661 56.5197ZM89.2552 57.3817L88.5624 56.0813C88.4823 55.9309 88.4547 55.8141 88.4804 55.7313C88.5059 55.6472 88.5944 55.5651 88.7451 55.4852L89.2024 55.2425C89.3538 55.1622 89.4714 55.1348 89.5548 55.1612C89.6387 55.1858 89.7207 55.2738 89.8008 55.4242L90.4936 56.7245L89.9698 57.0025L89.2474 55.6467C89.2371 55.6274 89.2225 55.6229 89.2031 55.6332L89.0692 55.7043C89.0506 55.7142 89.0465 55.7285 89.0568 55.7479L89.7792 57.1037L89.2552 57.3817ZM87.664 57.9266C87.7449 57.9612 87.8648 57.9462 88.023 57.8824L88.9139 57.5232L88.1956 55.749L87.6455 55.9709L87.9278 56.6681L87.7464 56.7413C87.7318 56.7407 87.7219 56.7345 87.7168 56.7221L87.5645 56.3458C87.5113 56.2142 87.4619 56.12 87.4162 56.0633L86.8661 56.2851C86.9092 56.3355 86.9562 56.4241 87.0072 56.5501L87.1586 56.924C87.1832 56.9846 87.2228 57.0331 87.2774 57.0691C87.3307 57.1046 87.4292 57.1066 87.5725 57.0749C87.4471 57.1509 87.3774 57.2198 87.3634 57.2816C87.3492 57.3453 87.3701 57.4463 87.4262 57.5851L87.4471 57.6365C87.5113 57.7952 87.5836 57.8922 87.664 57.9266ZM86.418 58.4596C86.2567 58.5151 86.1362 58.5237 86.0571 58.4849C85.9787 58.4464 85.9116 58.3457 85.8558 58.1839L85.8377 58.1314C85.7889 57.99 85.7733 57.8879 85.7908 57.8251C85.8081 57.7642 85.8813 57.699 86.0105 57.6296C85.8657 57.6539 85.7675 57.6467 85.7161 57.6084C85.6634 57.5696 85.6264 57.5191 85.6051 57.4574L85.4735 57.076C85.4292 56.9475 85.3869 56.8565 85.3464 56.804L85.9075 56.6112C85.9501 56.6703 85.9944 56.7669 86.0407 56.9011L86.1731 57.2849C86.1775 57.2975 86.1871 57.3042 86.2017 57.3055L86.3866 57.242L86.1413 56.5309L86.7023 56.3381L87.3265 58.1474L86.418 58.4596ZM84.6579 58.9833L85.6859 58.6891L85.1574 56.8497L84.1294 57.1439L84.2244 57.4746L84.6821 57.3436L84.8164 57.8111L84.3588 57.9421L84.4523 58.2678L84.91 58.1368L85.0206 58.5216L84.5629 58.6526L84.6579 58.9833ZM82.5306 57.481L82.962 59.3455L83.54 59.2123L83.347 58.3777L83.8243 59.1468L84.3777 59.0194L83.9463 57.1548L83.3682 57.288L83.561 58.1214L83.084 57.3535L82.5306 57.481ZM81.3251 59.493C81.3953 59.5461 81.5152 59.5606 81.6842 59.5369L82.1971 59.465C82.3669 59.4411 82.4782 59.3942 82.53 59.324C82.5835 59.2549 82.5978 59.1347 82.5738 58.9644L82.4303 57.945C82.4065 57.7763 82.3596 57.6657 82.2892 57.6139C82.2199 57.5606 82.1 57.5462 81.9302 57.57L81.4173 57.6419C81.2484 57.6657 81.137 57.7125 81.0843 57.7829C81.0318 57.8519 81.0118 57.9294 81.0238 58.015L81.0808 58.4195L81.6684 58.3371L81.6197 57.9914C81.6169 57.9714 81.6257 57.9601 81.6467 57.9572L81.7981 57.936C81.8191 57.933 81.8306 57.9414 81.8334 57.9614L81.9956 59.1128C81.9987 59.1345 81.9899 59.1466 81.969 59.1495L81.8176 59.1708C81.7966 59.1737 81.7849 59.1645 81.7819 59.1428L81.7336 58.8L81.146 58.8824L81.2025 59.284C81.2148 59.3712 81.2556 59.4411 81.3251 59.493ZM80.4874 58.5719L81.036 59.61L80.4763 59.6589L80.2301 59.0459L80.0951 59.6921L79.5358 59.741L79.895 58.6236L79.8224 57.7951L80.4148 57.7434L80.4874 58.5719ZM101.08 20.2989C101.08 20.1375 100.949 20.0066 100.787 20.0066C100.625 20.0066 100.494 20.1375 100.494 20.2989C100.494 20.4603 100.625 20.5912 100.787 20.5912C100.949 20.5912 101.08 20.4603 101.08 20.2989ZM55.873 19.383C56.0347 19.383 56.1659 19.5139 56.1659 19.6753C56.1659 19.8367 56.0347 19.9676 55.873 19.9676C55.7112 19.9676 55.5801 19.8367 55.5801 19.6753C55.5801 19.5139 55.7112 19.383 55.873 19.383ZM62.4881 12.2063C62.6498 12.2063 62.781 12.3372 62.781 12.4986C62.781 12.66 62.6498 12.791 62.4881 12.791C62.3264 12.791 62.1952 12.66 62.1952 12.4986C62.1952 12.3372 62.3264 12.2063 62.4881 12.2063ZM68.866 56.8087C69.0278 56.8087 69.159 56.9396 69.159 57.101C69.159 57.2624 69.0278 57.3934 68.866 57.3934C68.7043 57.3934 68.5731 57.2624 68.5731 57.101C68.5731 56.9396 68.7043 56.8087 68.866 56.8087ZM78.5311 58.5108C78.6929 58.5108 78.824 58.6417 78.824 58.8031C78.824 58.9645 78.6929 59.0954 78.5311 59.0954C78.3694 59.0954 78.2382 58.9645 78.2382 58.8031C78.2382 58.6417 78.3694 58.5108 78.5311 58.5108Z" fill="url(#paint30_linear_1072_4176)"/>
<path fill-rule="evenodd" clip-rule="evenodd" d="M25.1311 20.0211C25.1311 21.5421 23.9004 22.7751 22.3824 22.7751C20.8643 22.7751 19.6336 21.5421 19.6336 20.0211C19.6336 18.5002 20.8643 17.2672 22.3824 17.2672C23.9004 17.2672 25.1311 18.5002 25.1311 20.0211ZM23.5604 20.0212C23.5604 20.673 23.033 21.2014 22.3824 21.2014C21.7318 21.2014 21.2044 20.673 21.2044 20.0212C21.2044 19.3693 21.7318 18.8409 22.3824 18.8409C23.033 18.8409 23.5604 19.3693 23.5604 20.0212Z" fill="url(#paint31_linear_1072_4176)"/>
<path fill-rule="evenodd" clip-rule="evenodd" d="M31.3219 37.7253L19.2413 26.7094L17.013 26.7094C16.5719 27.6398 15.6253 28.2831 14.5288 28.2831C13.0107 28.2831 11.7801 27.0501 11.7801 25.5291C11.7801 24.0081 13.0107 22.7751 14.5288 22.7751C15.6253 22.7751 16.5719 23.4184 17.013 24.3488L20.812 24.3489L32.8492 35.3648H43.1945V37.7253H31.4142V37.6012L31.3219 37.7253ZM14.5288 26.7094C15.1794 26.7094 15.7068 26.181 15.7068 25.5291C15.7068 24.8773 15.1794 24.3488 14.5288 24.3488C13.8782 24.3488 13.3508 24.8773 13.3508 25.5291C13.3508 26.181 13.8782 26.7094 14.5288 26.7094Z" fill="url(#paint32_linear_1072_4176)"/>
<path fill-rule="evenodd" clip-rule="evenodd" d="M5.23295 29.8568H20.4192L22.7752 32.2174H5.23295C4.79179 33.1478 3.84524 33.7911 2.74873 33.7911C1.23065 33.7911 0 32.5581 0 31.0371C0 29.5161 1.23065 28.2831 2.74873 28.2831C3.84524 28.2831 4.79179 28.9264 5.23295 29.8568ZM3.92678 31.0371C3.92678 31.6889 3.39936 32.2174 2.74875 32.2174C2.09815 32.2174 1.57073 31.6889 1.57073 31.0371C1.57073 30.3852 2.09815 29.8568 2.74875 29.8568C3.39936 29.8568 3.92678 30.3852 3.92678 31.0371Z" fill="url(#paint33_linear_1072_4176)"/>
<path d="M31.414 32.2174H43.1943V29.8568H29.0579L31.414 32.2174Z" fill="url(#paint34_linear_1072_4176)"/>
<path d="M43.1947 40.8727H25.9169L28.273 43.2333H43.1947V40.8727Z" fill="url(#paint35_linear_1072_4176)"/>
<path d="M25.1313 18.8409H40.8384L38.4823 21.2014H25.1313V18.8409Z" fill="url(#paint36_linear_1072_4176)"/>
<path fill-rule="evenodd" clip-rule="evenodd" d="M26.702 35.3648H13.0865C12.6453 34.4343 11.6988 33.7911 10.6023 33.7911C9.08419 33.7911 7.85354 35.0241 7.85354 36.545C7.85354 38.066 9.08419 39.299 10.6023 39.299C11.6988 39.299 12.6453 38.6558 13.0865 37.7253H29.0581L26.702 35.3648ZM10.6023 37.7253C11.2529 37.7253 11.7803 37.1969 11.7803 36.5451C11.7803 35.8932 11.2529 35.3648 10.6023 35.3648C9.95165 35.3648 9.42423 35.8932 9.42423 36.5451C9.42423 37.1969 9.95165 37.7253 10.6023 37.7253Z" fill="url(#paint37_linear_1072_4176)"/>
<path d="M99.2036 46.8787C99.1924 46.8966 99.1957 46.9108 99.2136 46.922L100.202 47.5381C100.22 47.5493 100.234 47.5461 100.245 47.5282L100.343 47.3721L99.3013 46.7227L99.2036 46.8787Z" fill="url(#paint38_linear_1072_4176)"/>
<defs>
<linearGradient id="paint0_linear_1072_4176" x1="103.724" y1="55.749" x2="45.4875" y2="45.6815" gradientUnits="userSpaceOnUse">
<stop stop-color="#90C626"/>
<stop offset="1" stop-color="#20934A"/>
</linearGradient>
<linearGradient id="paint1_linear_1072_4176" x1="103.724" y1="55.749" x2="45.4875" y2="45.6815" gradientUnits="userSpaceOnUse">
<stop stop-color="#90C626"/>
<stop offset="1" stop-color="#20934A"/>
</linearGradient>
<linearGradient id="paint2_linear_1072_4176" x1="199.83" y1="36.1127" x2="238.986" y2="31.304" gradientUnits="userSpaceOnUse">
<stop stop-color="#90C626"/>
<stop offset="1" stop-color="#20934A"/>
</linearGradient>
<linearGradient id="paint3_linear_1072_4176" x1="79.1986" y1="33.5963" x2="191.013" y2="5.65818" gradientUnits="userSpaceOnUse">
<stop stop-color="#90C626"/>
<stop offset="1" stop-color="#20934A"/>
</linearGradient>
<linearGradient id="paint4_linear_1072_4176" x1="79.1986" y1="33.5965" x2="191.013" y2="5.6584" gradientUnits="userSpaceOnUse">
<stop stop-color="#90C626"/>
<stop offset="1" stop-color="#20934A"/>
</linearGradient>
<linearGradient id="paint5_linear_1072_4176" x1="79.1986" y1="33.5965" x2="191.013" y2="5.65841" gradientUnits="userSpaceOnUse">
<stop stop-color="#90C626"/>
<stop offset="1" stop-color="#20934A"/>
</linearGradient>
<linearGradient id="paint6_linear_1072_4176" x1="79.1986" y1="33.5961" x2="191.013" y2="5.65797" gradientUnits="userSpaceOnUse">
<stop stop-color="#90C626"/>
<stop offset="1" stop-color="#20934A"/>
</linearGradient>
<linearGradient id="paint7_linear_1072_4176" x1="79.1986" y1="33.5965" x2="191.013" y2="5.6584" gradientUnits="userSpaceOnUse">
<stop stop-color="#90C626"/>
<stop offset="1" stop-color="#20934A"/>
</linearGradient>
<linearGradient id="paint8_linear_1072_4176" x1="-12.2671" y1="36.4381" x2="76.0469" y2="21.651" gradientUnits="userSpaceOnUse">
<stop stop-color="#90C626"/>
<stop offset="1" stop-color="#20934A"/>
</linearGradient>
<linearGradient id="paint9_linear_1072_4176" x1="-12.2671" y1="36.4381" x2="76.0469" y2="21.651" gradientUnits="userSpaceOnUse">
<stop stop-color="#90C626"/>
<stop offset="1" stop-color="#20934A"/>
</linearGradient>
<linearGradient id="paint10_linear_1072_4176" x1="-12.2671" y1="36.4381" x2="76.0469" y2="21.651" gradientUnits="userSpaceOnUse">
<stop stop-color="#90C626"/>
<stop offset="1" stop-color="#20934A"/>
</linearGradient>
<linearGradient id="paint11_linear_1072_4176" x1="-12.2671" y1="36.4381" x2="76.0469" y2="21.651" gradientUnits="userSpaceOnUse">
<stop stop-color="#90C626"/>
<stop offset="1" stop-color="#20934A"/>
</linearGradient>
<linearGradient id="paint12_linear_1072_4176" x1="-12.2671" y1="36.4381" x2="76.0469" y2="21.651" gradientUnits="userSpaceOnUse">
<stop stop-color="#90C626"/>
<stop offset="1" stop-color="#20934A"/>
</linearGradient>
<linearGradient id="paint13_linear_1072_4176" x1="-12.2671" y1="36.4381" x2="76.0469" y2="21.651" gradientUnits="userSpaceOnUse">
<stop stop-color="#90C626"/>
<stop offset="1" stop-color="#20934A"/>
</linearGradient>
<linearGradient id="paint14_linear_1072_4176" x1="-12.2671" y1="36.4381" x2="76.0469" y2="21.651" gradientUnits="userSpaceOnUse">
<stop stop-color="#90C626"/>
<stop offset="1" stop-color="#20934A"/>
</linearGradient>
<linearGradient id="paint15_linear_1072_4176" x1="-12.2671" y1="36.4381" x2="76.0469" y2="21.651" gradientUnits="userSpaceOnUse">
<stop stop-color="#90C626"/>
<stop offset="1" stop-color="#20934A"/>
</linearGradient>
<linearGradient id="paint16_linear_1072_4176" x1="-12.2671" y1="36.4381" x2="76.0469" y2="21.651" gradientUnits="userSpaceOnUse">
<stop stop-color="#90C626"/>
<stop offset="1" stop-color="#20934A"/>
</linearGradient>
<linearGradient id="paint17_linear_1072_4176" x1="-12.2671" y1="36.4381" x2="76.0469" y2="21.651" gradientUnits="userSpaceOnUse">
<stop stop-color="#90C626"/>
<stop offset="1" stop-color="#20934A"/>
</linearGradient>
<linearGradient id="paint18_linear_1072_4176" x1="-12.2671" y1="36.4381" x2="76.0469" y2="21.651" gradientUnits="userSpaceOnUse">
<stop stop-color="#90C626"/>
<stop offset="1" stop-color="#20934A"/>
</linearGradient>
<linearGradient id="paint19_linear_1072_4176" x1="-12.2671" y1="36.4381" x2="76.0469" y2="21.651" gradientUnits="userSpaceOnUse">
<stop stop-color="#90C626"/>
<stop offset="1" stop-color="#20934A"/>
</linearGradient>
<linearGradient id="paint20_linear_1072_4176" x1="-12.2671" y1="36.4381" x2="76.0469" y2="21.651" gradientUnits="userSpaceOnUse">
<stop stop-color="#90C626"/>
<stop offset="1" stop-color="#20934A"/>
</linearGradient>
<linearGradient id="paint21_linear_1072_4176" x1="-12.2671" y1="36.4381" x2="76.0469" y2="21.651" gradientUnits="userSpaceOnUse">
<stop stop-color="#90C626"/>
<stop offset="1" stop-color="#20934A"/>
</linearGradient>
<linearGradient id="paint22_linear_1072_4176" x1="-12.2671" y1="36.4381" x2="76.0469" y2="21.651" gradientUnits="userSpaceOnUse">
<stop stop-color="#90C626"/>
<stop offset="1" stop-color="#20934A"/>
</linearGradient>
<linearGradient id="paint23_linear_1072_4176" x1="-12.2671" y1="36.4381" x2="76.0469" y2="21.651" gradientUnits="userSpaceOnUse">
<stop stop-color="#90C626"/>
<stop offset="1" stop-color="#20934A"/>
</linearGradient>
<linearGradient id="paint24_linear_1072_4176" x1="-12.2671" y1="36.4381" x2="76.0469" y2="21.651" gradientUnits="userSpaceOnUse">
<stop stop-color="#90C626"/>
<stop offset="1" stop-color="#20934A"/>
</linearGradient>
<linearGradient id="paint25_linear_1072_4176" x1="-12.2671" y1="36.4381" x2="76.0469" y2="21.651" gradientUnits="userSpaceOnUse">
<stop stop-color="#90C626"/>
<stop offset="1" stop-color="#20934A"/>
</linearGradient>
<linearGradient id="paint26_linear_1072_4176" x1="-12.2671" y1="36.4381" x2="76.0469" y2="21.651" gradientUnits="userSpaceOnUse">
<stop stop-color="#90C626"/>
<stop offset="1" stop-color="#20934A"/>
</linearGradient>
<linearGradient id="paint27_linear_1072_4176" x1="-12.2671" y1="36.4381" x2="76.0469" y2="21.651" gradientUnits="userSpaceOnUse">
<stop stop-color="#90C626"/>
<stop offset="1" stop-color="#20934A"/>
</linearGradient>
<linearGradient id="paint28_linear_1072_4176" x1="-12.2671" y1="36.4381" x2="76.0469" y2="21.651" gradientUnits="userSpaceOnUse">
<stop stop-color="#90C626"/>
<stop offset="1" stop-color="#20934A"/>
</linearGradient>
<linearGradient id="paint29_linear_1072_4176" x1="-12.2671" y1="36.4381" x2="76.0469" y2="21.651" gradientUnits="userSpaceOnUse">
<stop stop-color="#90C626"/>
<stop offset="1" stop-color="#20934A"/>
</linearGradient>
<linearGradient id="paint30_linear_1072_4176" x1="-12.2671" y1="36.4381" x2="76.0469" y2="21.651" gradientUnits="userSpaceOnUse">
<stop stop-color="#90C626"/>
<stop offset="1" stop-color="#20934A"/>
</linearGradient>
<linearGradient id="paint31_linear_1072_4176" x1="-12.2671" y1="36.4381" x2="76.0469" y2="21.651" gradientUnits="userSpaceOnUse">
<stop stop-color="#90C626"/>
<stop offset="1" stop-color="#20934A"/>
</linearGradient>
<linearGradient id="paint32_linear_1072_4176" x1="-12.2671" y1="36.4381" x2="76.0469" y2="21.651" gradientUnits="userSpaceOnUse">
<stop stop-color="#90C626"/>
<stop offset="1" stop-color="#20934A"/>
</linearGradient>
<linearGradient id="paint33_linear_1072_4176" x1="-12.2671" y1="36.4381" x2="76.0469" y2="21.651" gradientUnits="userSpaceOnUse">
<stop stop-color="#90C626"/>
<stop offset="1" stop-color="#20934A"/>
</linearGradient>
<linearGradient id="paint34_linear_1072_4176" x1="-12.2671" y1="36.4381" x2="76.0469" y2="21.651" gradientUnits="userSpaceOnUse">
<stop stop-color="#90C626"/>
<stop offset="1" stop-color="#20934A"/>
</linearGradient>
<linearGradient id="paint35_linear_1072_4176" x1="-12.2671" y1="36.4381" x2="76.0469" y2="21.651" gradientUnits="userSpaceOnUse">
<stop stop-color="#90C626"/>
<stop offset="1" stop-color="#20934A"/>
</linearGradient>
<linearGradient id="paint36_linear_1072_4176" x1="-12.2671" y1="36.4381" x2="76.0469" y2="21.651" gradientUnits="userSpaceOnUse">
<stop stop-color="#90C626"/>
<stop offset="1" stop-color="#20934A"/>
</linearGradient>
<linearGradient id="paint37_linear_1072_4176" x1="-12.2671" y1="36.4381" x2="76.0469" y2="21.651" gradientUnits="userSpaceOnUse">
<stop stop-color="#90C626"/>
<stop offset="1" stop-color="#20934A"/>
</linearGradient>
<linearGradient id="paint38_linear_1072_4176" x1="-12.2671" y1="36.4381" x2="76.0469" y2="21.651" gradientUnits="userSpaceOnUse">
<stop stop-color="#90C626"/>
<stop offset="1" stop-color="#20934A"/>
</linearGradient>
</defs>
</svg>
