<svg width="373" height="253" viewBox="0 0 373 253" fill="none" xmlns="http://www.w3.org/2000/svg">
<path fill-rule="evenodd" clip-rule="evenodd" d="M186.5 212.333C234.089 212.333 272.667 173.755 272.667 126.167C272.667 78.5781 234.089 40 186.5 40C154.511 40 126.593 57.4319 111.728 83.3147L107.918 90.7649C106.544 93.8117 105.341 96.9526 104.323 100.176C103.876 101.604 102.866 105.042 102.39 107.366C101.044 113.418 100.333 119.709 100.333 126.167C100.333 134.62 101.551 142.789 103.82 150.508C104.384 152.543 105.699 156.15 106.285 157.699C107.608 161.06 109.136 164.319 110.853 167.459L115.135 174.471C130.631 197.319 156.812 212.333 186.5 212.333ZM186.5 206.778C230.959 206.778 267 170.737 267 126.278C267 81.8188 230.959 45.7777 186.5 45.7777C142.041 45.7777 106 81.8188 106 126.278C106 170.737 142.041 206.778 186.5 206.778Z" fill="url(#paint0_linear_1061_1654)"/>
<ellipse cx="187.667" cy="127.695" rx="65" ry="64" fill="#38ED7A" fill-opacity="0.1"/>
<path d="M222.666 96.0216L189.659 84.1111C189.166 83.9334 188.659 83.8445 188.142 83.8445C187.624 83.8445 187.109 83.9343 186.614 84.1138L153.725 96.0243C151.947 96.6691 150.7 98.358 150.7 100.249V128.469C150.7 134.77 152.731 141.071 156.606 147.198C159.577 151.893 163.711 156.498 168.831 160.885C177.39 168.22 185.884 172.451 186.24 172.628C186.868 172.939 187.559 173.094 188.242 173.094C188.915 173.094 189.592 172.943 190.213 172.641C190.569 172.468 199.059 168.303 207.627 160.997C212.751 156.627 216.824 152.022 219.796 147.31C223.67 141.17 225.601 134.831 225.601 128.469V100.249C225.602 98.355 224.448 96.664 222.666 96.0216ZM157.891 128.448V103.609C157.891 102.664 158.47 101.819 159.359 101.497L187.316 91.3259C187.565 91.2357 187.851 91.1692 188.151 91.1692V128.47H218.624C218.626 128.47 218.628 128.51 218.628 128.536C218.622 136.664 214.528 144.719 206.462 152.563C200.163 158.688 193.006 163.06 189.325 165.122C188.983 165.313 188.451 165.404 188.151 165.404C188.151 164.705 188.151 128.857 188.151 128.458L157.891 128.448Z" fill="url(#paint1_linear_1061_1654)"/>
<defs>
<linearGradient id="paint0_linear_1061_1654" x1="262.626" y1="186.729" x2="87.3699" y2="151.753" gradientUnits="userSpaceOnUse">
<stop stop-color="#90C626"/>
<stop offset="1" stop-color="#20934A"/>
</linearGradient>
<linearGradient id="paint1_linear_1061_1654" x1="221.237" y1="159.834" x2="144.193" y2="146.931" gradientUnits="userSpaceOnUse">
<stop stop-color="#90C626"/>
<stop offset="1" stop-color="#20934A"/>
</linearGradient>
</defs>
</svg>
