<svg width="373" height="253" viewBox="0 0 373 253" fill="none" xmlns="http://www.w3.org/2000/svg">
<path fill-rule="evenodd" clip-rule="evenodd" d="M186.5 212.333C234.089 212.333 272.667 173.755 272.667 126.167C272.667 78.5781 234.089 40 186.5 40C154.511 40 126.593 57.4319 111.728 83.3147L107.918 90.7649C106.544 93.8117 105.341 96.9526 104.323 100.176C103.876 101.604 102.866 105.042 102.39 107.366C101.044 113.418 100.333 119.709 100.333 126.167C100.333 134.62 101.551 142.789 103.82 150.508C104.384 152.543 105.699 156.15 106.285 157.699C107.608 161.06 109.136 164.319 110.853 167.459L115.135 174.471C130.631 197.319 156.812 212.333 186.5 212.333ZM186.5 206.778C230.959 206.778 267 170.737 267 126.278C267 81.8188 230.959 45.7777 186.5 45.7777C142.041 45.7777 106 81.8188 106 126.278C106 170.737 142.041 206.778 186.5 206.778Z" fill="url(#paint0_linear_1502_1361)"/>
<ellipse cx="187.333" cy="125.889" rx="65" ry="64" fill="#38ED7A" fill-opacity="0.1"/>
<path fill-rule="evenodd" clip-rule="evenodd" d="M236.552 126.5C236.552 154.39 213.943 177 186.052 177C158.162 177 135.552 154.39 135.552 126.5C135.552 98.6096 158.162 76 186.052 76C213.943 76 236.552 98.6096 236.552 126.5ZM196.077 96.3282L201.355 101.607C207.769 108.02 207.769 118.418 201.355 124.832L196.077 130.11L193.15 127.183L193.551 128.676L188.779 129.96C182.981 131.519 177.017 128.084 175.457 122.286L174.173 117.513L178.946 116.23C181.533 115.534 184.154 115.833 186.402 116.893C185.186 111.568 186.651 105.754 190.798 101.607L196.077 96.3282ZM208.096 129.104C208.97 128.775 209.963 129.074 210.509 129.833C211.132 130.698 210.99 131.906 210.191 132.605L192.318 144.915C190.343 146.323 187.931 146.923 185.526 146.604L172.398 144.422C170.373 144.086 168.327 144.6 166.711 145.835L168.349 148.232L162.97 151.909L155.808 141.431L161.187 137.754L161.99 138.928L173.809 132.42C174.978 131.776 176.3 131.482 177.631 131.569L189.486 132.342C189.971 132.373 190.415 132.592 190.735 132.957C191.056 133.323 191.215 133.791 191.184 134.276C191.126 135.164 190.437 135.872 189.556 135.968L180.627 136.895C180.062 136.941 179.652 137.459 179.711 138.024C179.77 138.588 180.275 138.999 180.84 138.94L189.768 138.012C191.649 137.822 193.111 136.302 193.235 134.41C193.243 134.289 193.246 134.169 193.242 134.05L208.058 129.118L208.083 129.109L208.096 129.104Z" fill="url(#paint1_linear_1502_1361)"/>
<defs>
<linearGradient id="paint0_linear_1502_1361" x1="262.626" y1="186.729" x2="87.3699" y2="151.753" gradientUnits="userSpaceOnUse">
<stop stop-color="#90C626"/>
<stop offset="1" stop-color="#20934A"/>
</linearGradient>
<linearGradient id="paint1_linear_1502_1361" x1="230.667" y1="161.994" x2="127.955" y2="141.496" gradientUnits="userSpaceOnUse">
<stop stop-color="#90C626"/>
<stop offset="1" stop-color="#20934A"/>
</linearGradient>
</defs>
</svg>
