<svg width="372" height="253" viewBox="0 0 372 253" fill="none" xmlns="http://www.w3.org/2000/svg">
<path fill-rule="evenodd" clip-rule="evenodd" d="M186.167 212.333C233.755 212.333 272.333 173.755 272.333 126.167C272.333 78.5781 233.755 40 186.167 40C154.177 40 126.26 57.4319 111.394 83.3147L107.585 90.7649C106.21 93.8117 105.008 96.9526 103.989 100.176C103.543 101.604 102.532 105.042 102.057 107.366C100.71 113.418 100 119.709 100 126.167C100 134.62 101.217 142.789 103.486 150.508C104.05 152.543 105.365 156.15 105.952 157.699C107.275 161.06 108.802 164.319 110.52 167.459L114.802 174.471C130.298 197.319 156.479 212.333 186.167 212.333ZM186.167 206.778C230.626 206.778 266.667 170.737 266.667 126.278C266.667 81.8188 230.626 45.7777 186.167 45.7777C141.708 45.7777 105.667 81.8188 105.667 126.278C105.667 170.737 141.708 206.778 186.167 206.778Z" fill="url(#paint0_linear_1061_1744)"/>
<ellipse cx="187.333" cy="127.695" rx="65" ry="64" fill="#38ED7A" fill-opacity="0.1"/>
<path d="M206.917 124.781C206.917 127.444 209.091 129.618 211.754 129.618H224.667V119.944H211.754C209.091 119.944 206.917 122.119 206.917 124.781ZM216.605 124.781C216.605 125.669 215.88 126.393 214.993 126.393H211.768C210.881 126.393 210.156 125.668 210.156 124.781C210.156 123.893 210.881 123.169 211.768 123.169H214.993C215.88 123.169 216.605 123.894 216.605 124.781Z" fill="url(#paint1_linear_1061_1744)"/>
<path d="M179.374 105.419C178.99 104.665 178.752 103.822 178.752 102.92C178.752 102.032 179.477 101.307 180.365 101.307C181.252 101.307 181.977 102.032 181.977 102.92C181.977 104.221 183.027 105.271 184.329 105.271C185.63 105.271 186.68 104.222 186.68 102.92C186.68 101.618 185.63 100.568 184.329 100.568C181.252 100.568 178.752 98.0679 178.752 94.991C178.752 92.4763 180.423 90.3758 182.716 89.6805L182.717 88.4083C182.717 87.5206 183.442 86.7962 184.329 86.7962C185.217 86.7962 185.941 87.5212 185.941 88.4083V89.6954C188.219 90.3906 189.905 92.4912 189.905 95.0058C189.905 95.8936 189.18 96.6179 188.293 96.6179C187.405 96.6179 186.681 95.893 186.681 95.0058C186.681 93.7039 185.631 92.6539 184.329 92.6539C183.027 92.6539 181.977 93.7039 181.977 95.0058C181.977 96.3078 183.027 97.3577 184.329 97.3577C187.406 97.3577 189.906 99.8575 189.906 102.934C189.906 103.836 189.669 104.68 189.284 105.434H197.301C198.292 103.437 198.855 101.233 198.855 98.9854C198.855 98.4827 198.825 97.9942 198.781 97.5212C198.041 90.0651 191.829 84.4445 184.329 84.4445C176.83 84.4445 170.617 90.0651 169.877 97.5057C169.833 97.9793 169.804 98.4671 169.804 98.9556C169.804 101.204 170.351 103.408 171.357 105.404H179.374L179.374 105.419Z" fill="url(#paint2_linear_1061_1744)"/>
<path d="M224.667 105.419V116.721H219.83V111.884C219.83 108.319 216.931 105.42 213.366 105.42H200.837C201.636 103.379 202.08 101.19 202.08 98.9711H218.396C221.857 98.9699 224.667 101.869 224.667 105.419Z" fill="url(#paint3_linear_1061_1744)"/>
<path d="M167.808 105.419H156.788C155.058 105.419 153.667 103.969 153.667 102.195C153.667 101.322 153.993 100.508 154.599 99.9021C155.191 99.2954 155.96 98.9704 156.788 98.9704H166.58C166.58 101.188 167.009 103.378 167.808 105.419Z" fill="url(#paint4_linear_1061_1744)"/>
<path d="M203.692 124.781C203.692 129.234 207.316 132.858 211.753 132.858H216.605V152.22C216.605 153.994 215.155 155.444 213.365 155.444H156.892C155.117 155.444 153.667 153.995 153.667 152.22V107.786C154.584 108.318 155.649 108.644 156.787 108.644H213.366C215.155 108.644 216.605 110.094 216.605 111.883V116.72H211.754C207.316 116.72 203.692 120.344 203.692 124.781Z" fill="url(#paint5_linear_1061_1744)"/>
<path d="M224.667 132.858V142.531C224.667 144.321 223.276 145.756 221.546 145.756H219.83V132.858H224.667Z" fill="url(#paint6_linear_1061_1744)"/>
<defs>
<linearGradient id="paint0_linear_1061_1744" x1="262.292" y1="186.729" x2="87.0367" y2="151.753" gradientUnits="userSpaceOnUse">
<stop stop-color="#90C626"/>
<stop offset="1" stop-color="#20934A"/>
</linearGradient>
<linearGradient id="paint1_linear_1061_1744" x1="220.53" y1="144.896" x2="148.326" y2="130.486" gradientUnits="userSpaceOnUse">
<stop stop-color="#90C626"/>
<stop offset="1" stop-color="#20934A"/>
</linearGradient>
<linearGradient id="paint2_linear_1061_1744" x1="220.53" y1="144.896" x2="148.326" y2="130.486" gradientUnits="userSpaceOnUse">
<stop stop-color="#90C626"/>
<stop offset="1" stop-color="#20934A"/>
</linearGradient>
<linearGradient id="paint3_linear_1061_1744" x1="220.53" y1="144.896" x2="148.326" y2="130.486" gradientUnits="userSpaceOnUse">
<stop stop-color="#90C626"/>
<stop offset="1" stop-color="#20934A"/>
</linearGradient>
<linearGradient id="paint4_linear_1061_1744" x1="220.53" y1="144.896" x2="148.326" y2="130.486" gradientUnits="userSpaceOnUse">
<stop stop-color="#90C626"/>
<stop offset="1" stop-color="#20934A"/>
</linearGradient>
<linearGradient id="paint5_linear_1061_1744" x1="220.53" y1="144.896" x2="148.326" y2="130.486" gradientUnits="userSpaceOnUse">
<stop stop-color="#90C626"/>
<stop offset="1" stop-color="#20934A"/>
</linearGradient>
<linearGradient id="paint6_linear_1061_1744" x1="220.53" y1="144.896" x2="148.326" y2="130.486" gradientUnits="userSpaceOnUse">
<stop stop-color="#90C626"/>
<stop offset="1" stop-color="#20934A"/>
</linearGradient>
</defs>
</svg>
