<svg width="642" height="111" viewBox="0 0 642 111" fill="none" xmlns="http://www.w3.org/2000/svg">
<path d="M57.0174 29.25C42.9174 29.25 35.8674 35.25 35.8674 47.25V47.7H73.0674V74.4H35.8674V108H0.467383V48C0.467383 32.8 5.11738 21.1 14.4174 12.9C23.7174 4.7 36.9174 0.599997 54.0174 0.599997C60.1174 0.599997 65.8674 1.2 71.2674 2.39999C76.6674 3.5 81.3174 5.05 85.2174 7.04999L75.0174 33.75C72.2174 32.25 69.2174 31.15 66.0174 30.45C62.9174 29.65 59.9174 29.25 57.0174 29.25ZM196.517 2.99999V108H162.167V96.75C155.067 105.85 145.367 110.4 133.067 110.4C120.767 110.4 111.217 106.35 104.417 98.25C97.6174 90.15 94.2174 78.65 94.2174 63.75V2.99999H129.617V62.7C129.617 69.1 130.967 73.9 133.667 77.1C136.367 80.2 140.117 81.75 144.917 81.75C149.617 81.75 153.467 80.05 156.467 76.65C159.567 73.15 161.117 68.1 161.117 61.5V2.99999H196.517ZM298.673 39.75C290.573 35.25 282.373 32.15 274.073 30.45V108H238.673V30.45C230.373 32.15 222.173 35.25 214.073 39.75L202.373 14.55C209.873 10.05 218.273 6.59999 227.573 4.2C236.873 1.8 246.473 0.599997 256.373 0.599997C266.273 0.599997 275.873 1.8 285.173 4.2C294.473 6.59999 302.873 10.05 310.373 14.55L298.673 39.75ZM417.562 2.99999V108H383.212V96.75C376.112 105.85 366.412 110.4 354.112 110.4C341.812 110.4 332.262 106.35 325.462 98.25C318.662 90.15 315.262 78.65 315.262 63.75V2.99999H350.662V62.7C350.662 69.1 352.012 73.9 354.712 77.1C357.412 80.2 361.162 81.75 365.962 81.75C370.662 81.75 374.512 80.05 377.512 76.65C380.612 73.15 382.162 68.1 382.162 61.5V2.99999H417.562ZM479.668 81.6H470.068V108H434.668V2.99999H485.218C494.918 2.99999 503.368 4.59999 510.568 7.79999C517.768 11 523.318 15.6 527.218 21.6C531.118 27.6 533.068 34.6 533.068 42.6C533.068 50.1 531.368 56.65 527.968 62.25C524.568 67.85 519.668 72.3 513.268 75.6L535.318 108H497.518L479.668 81.6ZM497.368 42.6C497.368 38.7 496.168 35.7 493.768 33.6C491.368 31.4 487.768 30.3 482.968 30.3H470.068V54.9H482.968C487.768 54.9 491.368 53.85 493.768 51.75C496.168 49.55 497.368 46.5 497.368 42.6ZM641.236 101.1C635.636 104 628.886 106.3 620.986 108C613.086 109.6 605.036 110.4 596.836 110.4C585.036 110.4 574.986 109.05 566.686 106.35C558.486 103.55 552.286 99.7 548.086 94.8C543.886 89.8 541.786 84.1 541.786 77.7C541.786 72.4 543.186 67.65 545.986 63.45C548.886 59.25 552.986 56 558.286 53.7C554.286 51.5 551.236 48.65 549.136 45.15C547.136 41.55 546.136 37.6 546.136 33.3C546.136 27.4 548.036 22 551.836 17.1C555.736 12.1 561.636 8.1 569.536 5.09999C577.536 2.1 587.336 0.599997 598.936 0.599997C606.036 0.599997 612.986 1.25 619.786 2.55C626.686 3.75 632.836 5.39999 638.236 7.5L628.636 33.3C619.236 29.5 609.786 27.6 600.286 27.6C594.086 27.6 589.436 28.3 586.336 29.7C583.336 31.1 581.836 33.05 581.836 35.55C581.836 37.65 582.586 39.25 584.086 40.35C585.586 41.45 588.086 42 591.586 42H622.336V68.1H589.186C585.286 68.1 582.336 68.75 580.336 70.05C578.436 71.25 577.486 73 577.486 75.3C577.486 80.7 584.386 83.4 598.186 83.4C603.486 83.4 609.086 82.7 614.986 81.3C620.986 79.8 626.286 77.85 630.886 75.45L641.236 101.1Z" fill="#c7c7c70f" fill-opacity="0.05"/>
</svg>
