<svg width="1179" height="369" viewBox="0 0 1179 369" fill="none" xmlns="http://www.w3.org/2000/svg">
<path fill-rule="evenodd" clip-rule="evenodd" d="M282.534 179.098C302.168 179.098 318.084 163.182 318.084 143.549C318.084 123.916 302.168 108 282.534 108C269.337 108 257.819 115.192 251.686 125.87L250.115 128.944C249.547 130.201 249.051 131.497 248.631 132.826C248.447 133.416 248.03 134.834 247.834 135.793C247.278 138.289 246.985 140.885 246.985 143.549C246.985 147.037 247.488 150.407 248.424 153.592C248.656 154.431 249.199 155.919 249.441 156.558C249.986 157.945 250.617 159.289 251.325 160.585L253.092 163.478C259.485 172.904 270.286 179.098 282.534 179.098ZM282.534 176.806C300.876 176.806 315.746 161.937 315.746 143.595C315.746 125.253 300.876 110.383 282.534 110.383C264.192 110.383 249.323 125.253 249.323 143.595C249.323 161.937 264.192 176.806 282.534 176.806Z" fill="#20934A"/>
<ellipse cx="283.016" cy="144.18" rx="26.8166" ry="26.404" fill="#38ED7A" fill-opacity="0.1"/>
<path d="M297.455 131.112L283.838 126.198C283.634 126.125 283.425 126.088 283.212 126.088C282.998 126.088 282.786 126.125 282.581 126.2L269.013 131.113C268.279 131.379 267.765 132.076 267.765 132.856V144.499C267.765 147.098 268.602 149.698 270.201 152.226C271.427 154.163 273.133 156.063 275.245 157.873C278.776 160.899 282.28 162.644 282.427 162.717C282.686 162.845 282.971 162.91 283.253 162.91C283.531 162.91 283.81 162.847 284.066 162.723C284.213 162.651 287.716 160.933 291.25 157.918C293.365 156.116 295.045 154.216 296.271 152.272C297.869 149.739 298.666 147.124 298.666 144.499V132.856C298.666 132.075 298.19 131.377 297.455 131.112ZM270.731 144.49V134.243C270.731 133.852 270.97 133.504 271.337 133.371L282.871 129.175C282.974 129.138 283.092 129.11 283.215 129.11V144.499H295.788C295.788 144.499 295.789 144.516 295.789 144.526C295.787 147.88 294.098 151.203 290.77 154.439C288.171 156.966 285.218 158.77 283.7 159.62C283.559 159.699 283.339 159.737 283.216 159.737C283.216 159.448 283.216 144.659 283.216 144.494L270.731 144.49Z" fill="#20934A"/>
<rect x="302.999" y="202.638" width="102.833" height="90.1847" fill="#C5D82E"/>
<rect x="62.6894" y="122.902" width="81.9361" height="245.258" fill="#C5D82E"/>
<rect y="49.2141" width="62.6894" height="318.946" fill="#20934A"/>
<rect x="75.3372" y="251.03" width="34.6441" height="117.13" fill="#20934A"/>
<rect x="144.625" y="251.03" width="39.5933" height="116.58" fill="#C5D82E"/>
<rect x="184.219" y="306.571" width="18.1469" height="61.5896" fill="#20934A"/>
<path d="M185.319 306.021V368.16H127.028L185.319 306.021Z" fill="#0D5357"/>
<path d="M48.3918 275.674L76.437 251.03V368.16H48.3918V275.674Z" fill="#0D5357"/>
<path d="M279.903 202.088V367.61H239.759V202.088H279.903Z" fill="#20934A"/>
<rect x="343.692" y="247.73" width="103.932" height="74.2374" fill="#20934A"/>
<rect x="330.494" y="321.968" width="75.8871" height="46.1922" fill="#C5D82E"/>
<path d="M219.963 368.16L343.692 247.73V368.16H219.963Z" fill="#0D5357"/>
<path d="M302.999 202.088V367.61H279.902V202.088H302.999Z" fill="#20934A"/>
<rect x="477.869" y="268.627" width="76.437" height="99.5331" fill="#20934A"/>
<rect x="554.306" y="268.627" width="61.0396" height="99.5331" fill="#C5D82E"/>
<rect x="615.346" y="293.373" width="21.9963" height="74.7873" fill="#20934A"/>
<rect x="786.917" y="246.081" width="96.2337" height="122.079" fill="#20934A"/>
<rect x="883.15" y="247.73" width="62.1395" height="119.33" fill="#392BA6"/>
<path d="M879.301 251.855L1119.06 63.5117V368.16H879.301V251.855Z" fill="#0D5357"/>
<rect x="637.342" y="293.373" width="73.6875" height="74.7873" fill="#C5D82E"/>
<rect x="455.323" y="321.968" width="48.3918" height="46.1922" fill="#0D5357"/>
<path d="M503.715 321.968H406.381V368.16H457.186L503.715 321.968Z" fill="#C5D82E"/>
<path d="M786.917 246.081L659.338 368.16H786.917V246.081Z" fill="#0D5357"/>
<rect x="711.029" y="194.939" width="50.5914" height="173.221" fill="#20934A"/>
<path d="M761.621 342.864H798.464L772.894 368.16H761.621V342.864Z" fill="#C5D82E"/>
<rect x="922.194" y="134.45" width="61.5896" height="233.71" fill="#20934A"/>
<rect x="970.585" y="24.4683" width="86.3354" height="109.981" fill="#20934A"/>
<rect x="1080.02" y="188.89" width="63.2393" height="179.27" fill="#20934A"/>
<rect x="1032.17" y="129.5" width="24.7458" height="238.66" fill="#20934A"/>
<path d="M1119 64H1179V232L1119 187.474V64Z" fill="#20934A"/>
<path d="M1056.92 44.4683H1118.51V65.1614L1056.92 117.952V44.4683Z" fill="#C5D82E"/>
<path d="M879.301 246.081H940.89L879.301 303.271V246.081Z" fill="#C5D82E"/>
<path d="M1047.02 368.16L1047.02 311.52L1104.21 368.16L1047.02 368.16Z" fill="#C5D82E"/>
<rect x="524.276" y="271.572" width="9.89832" height="20.8965" fill="#C5D82E"/>
<rect x="536.375" y="264.423" width="9.89832" height="28.0452" fill="#C5D82E"/>
<rect x="548.473" y="251.225" width="9.89832" height="41.243" fill="#0D5357"/>
<rect x="560.57" y="228.679" width="9.89832" height="63.7892" fill="#20934A"/>
<rect x="572.668" y="202.284" width="9.89832" height="90.1847" fill="#20934A"/>
<path d="M803.964 246.081C808.096 246.081 811.954 244.994 816.637 225.158C819.047 214.956 819.003 199.488 818.25 186.47C817.563 179.788 817.015 173.458 816.637 168.369C817.195 172.767 817.832 179.241 818.25 186.47C820.401 207.38 823.925 231.729 827.933 232.223C834.546 233.038 837.301 232.223 838.128 219.18C838.789 208.746 840.424 171.177 841.158 153.696C841.617 159.584 843.087 172.227 845.291 175.705C847.495 179.183 849.699 169.728 850.526 164.565L854.658 190.65L857.138 184.129L860.444 209.67C861.179 211.844 863.585 215.539 867.332 212.931C872.016 209.67 878.077 184.129 883.863 184.129C889.649 184.129 886.343 226.245 896.261 229.234C906.18 232.223 901.496 202.606 909.486 201.247C917.476 199.888 909.211 235.212 917.752 239.016C924.584 242.059 931.068 243.545 933.456 243.907L938.691 246.081H803.964Z" fill="#0D5357"/>
<path fill-rule="evenodd" clip-rule="evenodd" d="M1035.47 90.6369C1027.05 99.9302 1013.01 102.432 1001.7 95.9065C988.686 88.3897 984.225 71.742 991.741 58.7227C999.258 45.7034 1015.91 41.2427 1028.93 48.7594C1041.06 55.765 1045.76 70.702 1040.26 83.241L1063.74 96.7968L1059.34 104.417L1035.47 90.6369ZM1034.6 83.4684C1028.45 94.1206 1014.83 97.7703 1004.18 91.6203C993.527 85.4702 989.878 71.8494 996.028 61.1972C1002.18 50.5451 1015.8 46.8954 1026.45 53.0454C1037.1 59.1954 1040.75 72.8163 1034.6 83.4684Z" fill="#C5D82E"/>
<path d="M342.592 248.83L307.398 212.536L312.897 205.113L342.592 234.258L454.773 118.227L456.148 120.152L532.86 186.141L555.956 165.244H544.133V151.497H577.677V183.391H568.878V165.244L532.86 198.789L456.148 133.625L342.592 248.83Z" fill="#20934A"/>
<path d="M196.608 59.9526L152.509 95.2681L205.641 120.567C207.227 115.821 210.155 102.81 209.181 88.7262C208.207 74.6426 200.393 63.6756 196.608 59.9526Z" fill="#0D5357"/>
<path d="M122.242 152.812C152.642 167.287 189.021 154.377 203.496 123.977L93.4073 71.5584C78.9323 101.958 91.8421 138.337 122.242 152.812Z" fill="#0D5357"/>
<path d="M95.1276 67.9456C109.659 37.4282 145.036 23.9249 174.144 37.7851L147.834 93.0418L95.1276 67.9456Z" fill="#C5D82E"/>
<path d="M181.5 35.4998L156.5 87L200 52C199.667 50.8333 198.1 47.5 194.5 43.5C190.9 39.5 184.333 36.4998 181.5 35.4998Z" fill="#20934A"/>
<path fill-rule="evenodd" clip-rule="evenodd" d="M626.435 264.456C644.51 264.456 659.163 249.803 659.163 231.728C659.163 213.653 644.51 199 626.435 199C614.285 199 603.681 205.621 598.035 215.452L596.588 218.282C596.066 219.439 595.609 220.632 595.223 221.856C595.053 222.399 594.669 223.704 594.489 224.587C593.977 226.886 593.708 229.275 593.708 231.728C593.708 234.939 594.17 238.041 595.032 240.973C595.246 241.746 595.745 243.116 595.968 243.704C596.471 244.981 597.051 246.219 597.703 247.411L599.33 250.075C605.215 258.753 615.159 264.456 626.435 264.456ZM626.435 262.345C643.322 262.345 657.011 248.656 657.011 231.77C657.011 214.883 643.322 201.194 626.435 201.194C609.549 201.194 595.86 214.883 595.86 231.77C595.86 248.656 609.549 262.345 626.435 262.345Z" fill="#20934A"/>
<ellipse cx="626.752" cy="231.622" rx="24.6883" ry="24.3085" fill="#38ED7A" fill-opacity="0.1"/>
<path fill-rule="evenodd" clip-rule="evenodd" d="M645.446 231.855C645.446 242.448 636.859 251.035 626.265 251.035C615.672 251.035 607.084 242.448 607.084 231.855C607.084 221.261 615.672 212.674 626.265 212.674C636.859 212.674 645.446 221.261 645.446 231.855ZM627.476 240.472C628.645 241.64 630.228 242.297 631.881 242.299C633.533 242.298 635.117 241.641 636.286 240.473C637.454 239.304 638.111 237.72 638.113 236.068V236.032C638.111 234.38 637.454 232.796 636.286 231.628C635.117 230.459 633.533 229.802 631.881 229.801C630.228 229.803 628.645 230.46 627.476 231.628C626.308 232.796 625.651 234.38 625.649 236.032V236.068C625.651 237.72 626.308 239.304 627.476 240.472ZM629.62 238.085C629.665 237.943 629.708 237.862 629.797 237.862H629.798C629.869 237.866 629.938 237.887 629.999 237.923C630.381 238.118 630.795 238.242 631.221 238.289C631.294 238.298 631.368 238.303 631.441 238.303C631.641 238.305 631.838 238.264 632.021 238.185C632.126 238.144 632.219 238.077 632.29 237.989C632.36 237.902 632.407 237.797 632.425 237.686C632.438 237.574 632.421 237.461 632.376 237.357C632.332 237.253 632.261 237.163 632.171 237.094C632.033 236.984 631.88 236.893 631.716 236.826C631.582 236.768 631.446 236.712 631.313 236.659C631.021 236.55 630.737 236.418 630.466 236.264C630.15 236.114 629.886 235.873 629.708 235.572C629.531 235.271 629.446 234.924 629.466 234.575C629.481 234.181 629.62 233.801 629.865 233.491C630.109 233.181 630.446 232.957 630.826 232.851L630.842 232.845C631.002 232.787 631.082 232.758 631.122 232.701C631.162 232.644 631.162 232.558 631.162 232.387V232.225V232.033C631.17 231.769 631.214 231.724 631.474 231.718H631.711C631.991 231.718 632.131 231.718 632.201 231.788C632.27 231.857 632.27 231.996 632.27 232.273C632.271 232.471 632.272 232.57 632.321 232.628C632.371 232.685 632.469 232.7 632.666 232.73C632.964 232.778 633.255 232.865 633.531 232.989C633.565 232.999 633.596 233.016 633.623 233.038C633.651 233.061 633.673 233.089 633.688 233.12C633.704 233.152 633.712 233.186 633.714 233.222C633.715 233.257 633.709 233.292 633.696 233.325C633.678 233.383 633.661 233.441 633.644 233.5C633.637 233.525 633.63 233.55 633.622 233.576C633.578 233.733 633.532 233.895 633.483 234.049C633.433 234.203 633.384 234.26 633.304 234.26C633.24 234.254 633.177 234.235 633.121 234.203C632.743 234.021 632.329 233.926 631.909 233.927H631.749C631.624 233.931 631.5 233.956 631.383 234.003C631.292 234.037 631.21 234.095 631.148 234.17C631.086 234.246 631.044 234.336 631.028 234.433C631.019 234.528 631.035 234.623 631.075 234.71C631.114 234.796 631.176 234.871 631.253 234.926C631.433 235.066 631.633 235.179 631.845 235.262L631.974 235.315C632.301 235.443 632.621 235.589 632.932 235.753C633.196 235.895 633.425 236.094 633.603 236.335C633.781 236.575 633.904 236.853 633.963 237.147C634.015 237.422 634.006 237.706 633.936 237.977C633.866 238.249 633.736 238.502 633.557 238.718C633.279 239.058 632.901 239.3 632.476 239.412C632.436 239.417 632.398 239.43 632.363 239.45C632.328 239.47 632.297 239.497 632.273 239.529C632.249 239.561 632.231 239.598 632.221 239.637C632.211 239.676 632.209 239.716 632.214 239.756V240.131V240.33C632.219 240.365 632.216 240.401 632.205 240.435C632.194 240.469 632.175 240.499 632.15 240.525C632.126 240.55 632.096 240.57 632.063 240.583C632.03 240.595 631.994 240.6 631.959 240.597H631.611H631.341C631.303 240.6 631.266 240.595 631.231 240.581C631.196 240.568 631.164 240.547 631.138 240.52C631.112 240.493 631.093 240.46 631.082 240.424C631.07 240.389 631.067 240.351 631.072 240.314V240.173V239.893C631.068 239.583 631.06 239.574 630.762 239.525C630.381 239.474 630.01 239.368 629.661 239.21C629.389 239.078 629.357 239.009 629.437 238.722C629.442 238.705 629.446 238.688 629.451 238.671C629.505 238.477 629.559 238.279 629.62 238.085ZM614.433 237.522H624.544V237.516C624.451 237.038 624.403 236.552 624.404 236.065V236.024C624.405 234.966 624.631 233.92 625.066 232.956C625.501 231.991 626.136 231.13 626.928 230.428V224.39C626.932 224.178 626.853 223.973 626.706 223.819C626.56 223.666 626.358 223.577 626.146 223.572H623.024C622.812 223.577 622.611 223.666 622.464 223.819C622.318 223.973 622.238 224.178 622.243 224.39V235.887H620.68V229.299C620.684 229.087 620.605 228.882 620.458 228.728C620.312 228.575 620.11 228.486 619.898 228.481H616.776C616.564 228.486 616.363 228.575 616.216 228.728C616.07 228.882 615.99 229.087 615.995 229.299V235.886H614.433V237.522ZM628.49 220.62V229.362L628.492 229.36C629.541 228.824 630.703 228.546 631.882 228.549C632.315 228.549 632.748 228.587 633.175 228.661V220.62C633.179 220.408 633.099 220.203 632.953 220.05C632.806 219.897 632.605 219.808 632.393 219.803H629.271C629.059 219.808 628.858 219.897 628.711 220.05C628.565 220.203 628.485 220.408 628.49 220.62Z" fill="#20934A"/>
<path fill-rule="evenodd" clip-rule="evenodd" d="M739.716 167.883C758.738 167.883 774.158 152.463 774.158 133.441C774.158 114.42 758.738 99 739.716 99C726.93 99 715.771 105.968 709.829 116.313L708.307 119.291C707.757 120.509 707.276 121.764 706.869 123.053C706.691 123.624 706.287 124.998 706.097 125.927C705.559 128.346 705.275 130.86 705.275 133.441C705.275 136.82 705.761 140.086 706.668 143.171C706.894 143.984 707.419 145.426 707.654 146.045C708.182 147.389 708.793 148.691 709.48 149.946L711.191 152.749C717.385 161.882 727.85 167.883 739.716 167.883ZM739.716 165.663C757.487 165.663 771.893 151.257 771.893 133.486C771.893 115.716 757.487 101.31 739.716 101.31C721.946 101.31 707.54 115.716 707.54 133.486C707.54 151.257 721.946 165.663 739.716 165.663Z" fill="#20934A"/>
<ellipse cx="740.183" cy="134.052" rx="25.981" ry="25.5813" fill="#38ED7A" fill-opacity="0.1"/>
<path d="M748.01 132.888C748.01 133.952 748.879 134.821 749.943 134.821H755.105V130.955H749.943C748.879 130.955 748.01 131.824 748.01 132.888ZM751.883 132.888C751.883 133.243 751.593 133.532 751.238 133.532H749.949C749.595 133.532 749.305 133.243 749.305 132.888C749.305 132.533 749.595 132.244 749.949 132.244H751.238C751.593 132.244 751.883 132.533 751.883 132.888Z" fill="#20934A"/>
<path d="M737.001 125.149C736.847 124.847 736.753 124.511 736.753 124.15C736.753 123.795 737.042 123.505 737.397 123.505C737.752 123.505 738.041 123.795 738.041 124.15C738.041 124.67 738.461 125.09 738.981 125.09C739.502 125.09 739.922 124.67 739.922 124.15C739.922 123.629 739.502 123.21 738.981 123.21C737.752 123.21 736.752 122.211 736.752 120.981C736.752 119.976 737.421 119.136 738.337 118.858L738.337 118.35C738.337 117.995 738.627 117.705 738.982 117.705C739.337 117.705 739.626 117.995 739.626 118.35V118.864C740.537 119.142 741.211 119.981 741.211 120.987C741.211 121.341 740.921 121.631 740.566 121.631C740.211 121.631 739.922 121.341 739.922 120.987C739.922 120.466 739.502 120.047 738.982 120.047C738.461 120.047 738.042 120.466 738.042 120.987C738.042 121.507 738.461 121.927 738.982 121.927C740.212 121.927 741.211 122.926 741.211 124.156C741.211 124.516 741.116 124.853 740.962 125.155H744.167C744.563 124.357 744.788 123.476 744.788 122.577C744.788 122.376 744.776 122.181 744.758 121.992C744.462 119.012 741.979 116.765 738.982 116.765C735.984 116.765 733.501 119.012 733.205 121.986C733.187 122.175 733.176 122.37 733.176 122.565C733.176 123.464 733.395 124.345 733.797 125.143H737.001L737.001 125.149Z" fill="#20934A"/>
<path d="M755.105 125.149V129.666H753.172V127.733C753.172 126.308 752.013 125.149 750.588 125.149H745.58C745.899 124.333 746.077 123.458 746.077 122.572H752.598C753.982 122.571 755.105 123.73 755.105 125.149Z" fill="#20934A"/>
<path d="M732.378 125.149H727.973C727.282 125.149 726.726 124.569 726.726 123.86C726.726 123.511 726.856 123.186 727.098 122.944C727.335 122.701 727.642 122.571 727.973 122.571H731.887C731.887 123.458 732.059 124.333 732.378 125.149Z" fill="#20934A"/>
<path d="M746.721 132.888C746.721 134.668 748.17 136.116 749.943 136.116H751.883V143.855C751.883 144.565 751.303 145.144 750.588 145.144H728.015C727.305 145.144 726.726 144.565 726.726 143.855V126.095C727.092 126.308 727.518 126.438 727.973 126.438H750.588C751.303 126.438 751.883 127.017 751.883 127.733V129.666H749.943C748.17 129.666 746.721 131.114 746.721 132.888Z" fill="#20934A"/>
<path d="M755.105 136.116V139.983C755.105 140.698 754.549 141.272 753.858 141.272H753.172V136.116H755.105Z" fill="#20934A"/>
<path fill-rule="evenodd" clip-rule="evenodd" d="M910.371 113.303C931.441 113.303 948.522 96.2219 948.522 75.1514C948.522 54.081 931.441 37 910.371 37C896.207 37 883.846 44.7182 877.264 56.1782L875.577 59.4769C874.969 60.8258 874.436 62.2165 873.985 63.6435C873.788 64.276 873.34 65.7983 873.13 66.8272C872.534 69.5067 872.219 72.2923 872.219 75.1514C872.219 78.8943 872.758 82.5114 873.763 85.9291C874.012 86.8299 874.595 88.4269 874.854 89.1128C875.44 90.6012 876.116 92.0438 876.877 93.434L878.773 96.5386C885.634 106.655 897.226 113.303 910.371 113.303ZM910.371 110.843C930.055 110.843 946.013 94.8854 946.013 75.2006C946.013 55.5159 930.055 39.5582 910.371 39.5582C890.686 39.5582 874.728 55.5159 874.728 75.2006C874.728 94.8854 890.686 110.843 910.371 110.843Z" fill="url(#paint0_linear_1862_2699)"/>
<ellipse cx="910.74" cy="75.0283" rx="28.7796" ry="28.3369" fill="#38ED7A" fill-opacity="0.1"/>
<path fill-rule="evenodd" clip-rule="evenodd" d="M932.532 75.299C932.532 87.6478 922.521 97.6586 910.172 97.6586C897.823 97.6586 887.813 87.6478 887.813 75.299C887.813 62.9502 897.823 52.9395 910.172 52.9395C922.521 52.9395 932.532 62.9502 932.532 75.299ZM914.611 61.9399L916.948 64.277C919.788 67.1166 919.788 71.7206 916.948 74.5603L914.611 76.8973L913.315 75.6013L913.493 76.2624L911.38 76.8308C908.813 77.5212 906.172 76.0001 905.481 73.433L904.913 71.32L907.026 70.7516C908.172 70.4434 909.332 70.5758 910.327 71.0452C909.789 68.6875 910.437 66.1134 912.274 64.2771L914.611 61.9399ZM919.932 76.452C920.32 76.3064 920.759 76.4385 921.001 76.7746C921.277 77.1575 921.214 77.6927 920.86 78.002L912.946 83.4522C912.072 84.076 911.004 84.3416 909.939 84.2001L904.127 83.2343C903.23 83.0852 902.324 83.3128 901.609 83.8597L902.334 84.921L899.952 86.549L896.781 81.9096L899.163 80.2816L899.518 80.8018L904.752 77.9201C905.269 77.6351 905.854 77.505 906.444 77.5432L911.693 77.8854C911.907 77.8992 912.104 77.9961 912.246 78.1579C912.388 78.3197 912.458 78.5271 912.444 78.7417C912.419 79.135 912.114 79.4483 911.724 79.4908L907.77 79.9014C907.52 79.9217 907.339 80.1511 907.365 80.4011C907.391 80.651 907.614 80.8328 907.864 80.8068L911.818 80.3962C912.65 80.3117 913.298 79.6388 913.353 78.801C913.356 78.7476 913.357 78.6946 913.356 78.6419L919.916 76.458L919.927 76.454L919.932 76.452Z" fill="url(#paint1_linear_1862_2699)"/>
<path d="M165.969 229.343V234.284H150.822V230.369L157.653 224.051C158.247 223.493 158.643 223.016 158.841 222.62C159.039 222.224 159.138 221.837 159.138 221.459C159.138 220.991 158.976 220.631 158.652 220.379C158.346 220.109 157.896 219.974 157.302 219.974C156.726 219.974 156.186 220.127 155.682 220.433C155.178 220.739 154.791 221.171 154.521 221.729L149.715 219.326C150.435 217.976 151.488 216.914 152.874 216.14C154.26 215.348 155.934 214.952 157.896 214.952C159.39 214.952 160.713 215.195 161.865 215.681C163.017 216.167 163.917 216.86 164.565 217.76C165.213 218.66 165.537 219.695 165.537 220.865C165.537 221.909 165.312 222.89 164.862 223.808C164.43 224.708 163.575 225.734 162.297 226.886L159.597 229.343H165.969ZM175.834 234.716C174.16 234.716 172.675 234.329 171.379 233.555C170.101 232.763 169.093 231.629 168.355 230.153C167.635 228.659 167.275 226.886 167.275 224.834C167.275 222.782 167.635 221.018 168.355 219.542C169.093 218.048 170.101 216.914 171.379 216.14C172.675 215.348 174.16 214.952 175.834 214.952C177.508 214.952 178.984 215.348 180.262 216.14C181.558 216.914 182.566 218.048 183.286 219.542C184.024 221.018 184.393 222.782 184.393 224.834C184.393 226.886 184.024 228.659 183.286 230.153C182.566 231.629 181.558 232.763 180.262 233.555C178.984 234.329 177.508 234.716 175.834 234.716ZM175.834 229.613C177.274 229.613 177.994 228.02 177.994 224.834C177.994 221.648 177.274 220.055 175.834 220.055C174.394 220.055 173.674 221.648 173.674 224.834C173.674 228.02 174.394 229.613 175.834 229.613ZM200.826 229.343V234.284H185.679V230.369L192.51 224.051C193.104 223.493 193.5 223.016 193.698 222.62C193.896 222.224 193.995 221.837 193.995 221.459C193.995 220.991 193.833 220.631 193.509 220.379C193.203 220.109 192.753 219.974 192.159 219.974C191.583 219.974 191.043 220.127 190.539 220.433C190.035 220.739 189.648 221.171 189.378 221.729L184.572 219.326C185.292 217.976 186.345 216.914 187.731 216.14C189.117 215.348 190.791 214.952 192.753 214.952C194.247 214.952 195.57 215.195 196.722 215.681C197.874 216.167 198.774 216.86 199.422 217.76C200.07 218.66 200.394 219.695 200.394 220.865C200.394 221.909 200.169 222.89 199.719 223.808C199.287 224.708 198.432 225.734 197.154 226.886L194.454 229.343H200.826ZM220.466 231.044H217.955V234.284H211.772V231.044H201.971V226.994L209.99 215.384H216.524L209.396 226.103H211.961V223.214H217.955V226.103H220.466V231.044Z" fill="#20934A"/>
<path d="M608.654 170.501V175.442H593.507V171.527L600.338 165.209C600.932 164.651 601.328 164.174 601.526 163.778C601.724 163.382 601.823 162.995 601.823 162.617C601.823 162.149 601.661 161.789 601.337 161.537C601.031 161.267 600.581 161.132 599.987 161.132C599.411 161.132 598.871 161.285 598.367 161.591C597.863 161.897 597.476 162.329 597.206 162.887L592.4 160.484C593.12 159.134 594.173 158.072 595.559 157.298C596.945 156.506 598.619 156.11 600.581 156.11C602.075 156.11 603.398 156.353 604.55 156.839C605.702 157.325 606.602 158.018 607.25 158.918C607.898 159.818 608.222 160.853 608.222 162.023C608.222 163.067 607.997 164.048 607.547 164.966C607.115 165.866 606.26 166.892 604.982 168.044L602.282 170.501H608.654ZM618.52 175.874C616.846 175.874 615.361 175.487 614.065 174.713C612.787 173.921 611.779 172.787 611.041 171.311C610.321 169.817 609.961 168.044 609.961 165.992C609.961 163.94 610.321 162.176 611.041 160.7C611.779 159.206 612.787 158.072 614.065 157.298C615.361 156.506 616.846 156.11 618.52 156.11C620.194 156.11 621.67 156.506 622.948 157.298C624.244 158.072 625.252 159.206 625.972 160.7C626.71 162.176 627.079 163.94 627.079 165.992C627.079 168.044 626.71 169.817 625.972 171.311C625.252 172.787 624.244 173.921 622.948 174.713C621.67 175.487 620.194 175.874 618.52 175.874ZM618.52 170.771C619.96 170.771 620.68 169.178 620.68 165.992C620.68 162.806 619.96 161.213 618.52 161.213C617.08 161.213 616.36 162.806 616.36 165.992C616.36 169.178 617.08 170.771 618.52 170.771ZM643.512 170.501V175.442H628.365V171.527L635.196 165.209C635.79 164.651 636.186 164.174 636.384 163.778C636.582 163.382 636.681 162.995 636.681 162.617C636.681 162.149 636.519 161.789 636.195 161.537C635.889 161.267 635.439 161.132 634.845 161.132C634.269 161.132 633.729 161.285 633.225 161.591C632.721 161.897 632.334 162.329 632.064 162.887L627.258 160.484C627.978 159.134 629.031 158.072 630.417 157.298C631.803 156.506 633.477 156.11 635.439 156.11C636.933 156.11 638.256 156.353 639.408 156.839C640.56 157.325 641.46 158.018 642.108 158.918C642.756 159.818 643.08 160.853 643.08 162.023C643.08 163.067 642.855 164.048 642.405 164.966C641.973 165.866 641.118 166.892 639.84 168.044L637.14 170.501H643.512ZM652.541 163.211C655.187 163.211 657.131 163.769 658.373 164.885C659.633 165.983 660.263 167.432 660.263 169.232C660.263 170.42 659.948 171.518 659.318 172.526C658.706 173.516 657.752 174.326 656.456 174.956C655.16 175.568 653.549 175.874 651.623 175.874C650.291 175.874 648.959 175.73 647.627 175.442C646.313 175.154 645.161 174.731 644.171 174.173L646.331 169.475C647.123 169.925 647.951 170.267 648.815 170.501C649.697 170.735 650.552 170.852 651.38 170.852C652.118 170.852 652.712 170.726 653.162 170.474C653.63 170.204 653.864 169.835 653.864 169.367C653.864 168.917 653.657 168.584 653.243 168.368C652.829 168.134 652.082 168.017 651.002 168.017H645.521L646.466 156.542H659.021V161.348H651.704L651.569 163.211H652.541Z" fill="#20934A"/>
<path d="M1080.84 33.3139V38.2549H1065.69V34.3399L1072.52 28.0219C1073.11 27.4639 1073.51 26.9869 1073.71 26.5909C1073.91 26.1949 1074 25.8079 1074 25.4299C1074 24.9619 1073.84 24.6019 1073.52 24.3499C1073.21 24.0799 1072.76 23.9449 1072.17 23.9449C1071.59 23.9449 1071.05 24.0979 1070.55 24.4039C1070.04 24.7099 1069.66 25.1419 1069.39 25.6999L1064.58 23.2969C1065.3 21.9469 1066.35 20.8849 1067.74 20.1109C1069.13 19.3189 1070.8 18.9229 1072.76 18.9229C1074.26 18.9229 1075.58 19.1659 1076.73 19.6519C1077.88 20.1379 1078.78 20.8309 1079.43 21.7309C1080.08 22.6309 1080.4 23.6659 1080.4 24.8359C1080.4 25.8799 1080.18 26.8609 1079.73 27.7789C1079.3 28.6789 1078.44 29.7049 1077.16 30.8569L1074.46 33.3139H1080.84ZM1090.7 38.6869C1089.03 38.6869 1087.54 38.2999 1086.25 37.5259C1084.97 36.7339 1083.96 35.5999 1083.22 34.1239C1082.5 32.6299 1082.14 30.8569 1082.14 28.8049C1082.14 26.7529 1082.5 24.9889 1083.22 23.5129C1083.96 22.0189 1084.97 20.8849 1086.25 20.1109C1087.54 19.3189 1089.03 18.9229 1090.7 18.9229C1092.38 18.9229 1093.85 19.3189 1095.13 20.1109C1096.43 20.8849 1097.43 22.0189 1098.15 23.5129C1098.89 24.9889 1099.26 26.7529 1099.26 28.8049C1099.26 30.8569 1098.89 32.6299 1098.15 34.1239C1097.43 35.5999 1096.43 36.7339 1095.13 37.5259C1093.85 38.2999 1092.38 38.6869 1090.7 38.6869ZM1090.7 33.5839C1092.14 33.5839 1092.86 31.9909 1092.86 28.8049C1092.86 25.6189 1092.14 24.0259 1090.7 24.0259C1089.26 24.0259 1088.54 25.6189 1088.54 28.8049C1088.54 31.9909 1089.26 33.5839 1090.7 33.5839ZM1115.69 33.3139V38.2549H1100.55V34.3399L1107.38 28.0219C1107.97 27.4639 1108.37 26.9869 1108.56 26.5909C1108.76 26.1949 1108.86 25.8079 1108.86 25.4299C1108.86 24.9619 1108.7 24.6019 1108.38 24.3499C1108.07 24.0799 1107.62 23.9449 1107.03 23.9449C1106.45 23.9449 1105.91 24.0979 1105.41 24.4039C1104.9 24.7099 1104.51 25.1419 1104.24 25.6999L1099.44 23.2969C1100.16 21.9469 1101.21 20.8849 1102.6 20.1109C1103.98 19.3189 1105.66 18.9229 1107.62 18.9229C1109.11 18.9229 1110.44 19.1659 1111.59 19.6519C1112.74 20.1379 1113.64 20.8309 1114.29 21.7309C1114.94 22.6309 1115.26 23.6659 1115.26 24.8359C1115.26 25.8799 1115.04 26.8609 1114.59 27.7789C1114.15 28.6789 1113.3 29.7049 1112.02 30.8569L1109.32 33.3139H1115.69ZM1127.26 26.0239C1128.41 26.0239 1129.48 26.2759 1130.47 26.7799C1131.46 27.2839 1132.25 27.9949 1132.85 28.9129C1133.44 29.8309 1133.74 30.8839 1133.74 32.0719C1133.74 33.3859 1133.4 34.5469 1132.71 35.5549C1132.05 36.5629 1131.13 37.3369 1129.96 37.8769C1128.79 38.4169 1127.49 38.6869 1126.07 38.6869C1124.25 38.6869 1122.66 38.3359 1121.29 37.6339C1119.94 36.9319 1118.89 35.8879 1118.13 34.5019C1117.38 33.1159 1117 31.4149 1117 29.3989C1117 27.2389 1117.43 25.3669 1118.3 23.7829C1119.18 22.1989 1120.4 20.9929 1121.97 20.1649C1123.55 19.3369 1125.39 18.9229 1127.48 18.9229C1128.61 18.9229 1129.69 19.0579 1130.72 19.3279C1131.74 19.5799 1132.61 19.9399 1133.33 20.4079L1131.04 24.8629C1130.1 24.1969 1128.96 23.8639 1127.61 23.8639C1126.51 23.8639 1125.6 24.1429 1124.88 24.7009C1124.18 25.2409 1123.72 26.0329 1123.51 27.0769C1124.5 26.3749 1125.75 26.0239 1127.26 26.0239ZM1125.64 34.2859C1126.22 34.2859 1126.68 34.1149 1127.04 33.7729C1127.4 33.4309 1127.58 32.9629 1127.58 32.3689C1127.58 31.7749 1127.4 31.3069 1127.04 30.9649C1126.68 30.6049 1126.22 30.4249 1125.64 30.4249C1125.06 30.4249 1124.6 30.6049 1124.24 30.9649C1123.88 31.3069 1123.7 31.7749 1123.7 32.3689C1123.7 32.9629 1123.88 33.4309 1124.24 33.7729C1124.6 34.1149 1125.06 34.2859 1125.64 34.2859Z" fill="#20934A"/>
<rect x="1143" y="189" width="36" height="179" fill="#C5D82E"/>
<defs>
<linearGradient id="paint0_linear_1862_2699" x1="944.076" y1="101.966" x2="866.479" y2="86.4802" gradientUnits="userSpaceOnUse">
<stop stop-color="#90C626"/>
<stop offset="1" stop-color="#20934A"/>
</linearGradient>
<linearGradient id="paint1_linear_1862_2699" x1="929.926" y1="91.0146" x2="884.449" y2="81.9385" gradientUnits="userSpaceOnUse">
<stop stop-color="#90C626"/>
<stop offset="1" stop-color="#20934A"/>
</linearGradient>
</defs>
</svg>
