<svg width="1060" height="88" viewBox="0 0 1060 88" fill="none" xmlns="http://www.w3.org/2000/svg">
<path d="M83.4095 1.99999V86H55.0895V55.04H28.9295V86H0.609532V1.99999H28.9295V31.76H55.0895V1.99999H83.4095ZM141.095 87.92C132.055 87.92 123.935 86.04 116.735 82.28C109.535 78.52 103.895 73.32 99.8148 66.68C95.7348 59.96 93.6948 52.4 93.6948 44C93.6948 35.6 95.7348 28.08 99.8148 21.44C103.895 14.72 109.535 9.48 116.735 5.72C123.935 1.96 132.055 0.0799975 141.095 0.0799975C150.135 0.0799975 158.255 1.96 165.455 5.72C172.655 9.48 178.295 14.72 182.375 21.44C186.455 28.08 188.495 35.6 188.495 44C188.495 52.4 186.455 59.96 182.375 66.68C178.295 73.32 172.655 78.52 165.455 82.28C158.255 86.04 150.135 87.92 141.095 87.92ZM141.095 65C144.615 65 147.775 64.16 150.575 62.48C153.455 60.72 155.735 58.28 157.415 55.16C159.095 51.96 159.935 48.24 159.935 44C159.935 39.76 159.095 36.08 157.415 32.96C155.735 29.76 153.455 27.32 150.575 25.64C147.775 23.88 144.615 23 141.095 23C137.575 23 134.375 23.88 131.495 25.64C128.695 27.32 126.455 29.76 124.775 32.96C123.095 36.08 122.255 39.76 122.255 44C122.255 48.24 123.095 51.96 124.775 55.16C126.455 58.28 128.695 60.72 131.495 62.48C134.375 64.16 137.575 65 141.095 65ZM332.574 1.99999V50.6C332.574 62.52 328.934 71.72 321.654 78.2C314.454 84.68 304.334 87.92 291.294 87.92C280.574 87.92 271.894 85.28 265.254 80C258.694 85.28 250.014 87.92 239.214 87.92C226.254 87.92 216.134 84.68 208.854 78.2C201.654 71.72 198.054 62.52 198.054 50.6V1.99999H226.374V49.76C226.374 54.88 227.374 58.72 229.374 61.28C231.374 63.76 234.494 65 238.734 65C242.974 65 246.094 63.76 248.094 61.28C250.094 58.72 251.094 54.88 251.094 49.76V1.99999H279.414V49.76C279.414 54.88 280.414 58.72 282.414 61.28C284.494 63.76 287.654 65 291.894 65C296.134 65 299.254 63.76 301.254 61.28C303.254 58.72 304.254 54.88 304.254 49.76V1.99999H332.574ZM419.749 23.36V64.64H432.349V86H378.829V64.64H391.429V23.36H378.829V1.99999H432.349V23.36H419.749ZM511.384 31.4C504.904 27.8 498.344 25.32 491.704 23.96V86H463.384V23.96C456.744 25.32 450.184 27.8 443.704 31.4L434.344 11.24C440.344 7.64 447.064 4.88 454.504 2.96C461.944 1.04 469.624 0.0799975 477.544 0.0799975C485.464 0.0799975 493.144 1.04 500.584 2.96C508.024 4.88 514.744 7.64 520.744 11.24L511.384 31.4ZM695.152 1.99999V50.6C695.152 62.52 691.512 71.72 684.232 78.2C677.032 84.68 666.912 87.92 653.872 87.92C643.152 87.92 634.472 85.28 627.832 80C621.272 85.28 612.592 87.92 601.792 87.92C588.832 87.92 578.712 84.68 571.432 78.2C564.232 71.72 560.632 62.52 560.632 50.6V1.99999H588.952V49.76C588.952 54.88 589.952 58.72 591.952 61.28C593.952 63.76 597.072 65 601.312 65C605.552 65 608.672 63.76 610.672 61.28C612.672 58.72 613.672 54.88 613.672 49.76V1.99999H641.992V49.76C641.992 54.88 642.992 58.72 644.992 61.28C647.072 63.76 650.232 65 654.472 65C658.712 65 661.832 63.76 663.832 61.28C665.832 58.72 666.832 54.88 666.832 49.76V1.99999H695.152ZM752.11 87.92C743.07 87.92 734.95 86.04 727.75 82.28C720.55 78.52 714.91 73.32 710.83 66.68C706.75 59.96 704.71 52.4 704.71 44C704.71 35.6 706.75 28.08 710.83 21.44C714.91 14.72 720.55 9.48 727.75 5.72C734.95 1.96 743.07 0.0799975 752.11 0.0799975C761.15 0.0799975 769.27 1.96 776.47 5.72C783.67 9.48 789.31 14.72 793.39 21.44C797.47 28.08 799.51 35.6 799.51 44C799.51 52.4 797.47 59.96 793.39 66.68C789.31 73.32 783.67 78.52 776.47 82.28C769.27 86.04 761.15 87.92 752.11 87.92ZM752.11 65C755.63 65 758.79 64.16 761.59 62.48C764.47 60.72 766.75 58.28 768.43 55.16C770.11 51.96 770.95 48.24 770.95 44C770.95 39.76 770.11 36.08 768.43 32.96C766.75 29.76 764.47 27.32 761.59 25.64C758.79 23.88 755.63 23 752.11 23C748.59 23 745.39 23.88 742.51 25.64C739.71 27.32 737.47 29.76 735.79 32.96C734.11 36.08 733.27 39.76 733.27 44C733.27 48.24 734.11 51.96 735.79 55.16C737.47 58.28 739.71 60.72 742.51 62.48C745.39 64.16 748.59 65 752.11 65ZM845.789 64.88H838.109V86H809.789V1.99999H850.229C857.989 1.99999 864.749 3.27999 870.509 5.83999C876.269 8.4 880.709 12.08 883.829 16.88C886.949 21.68 888.509 27.28 888.509 33.68C888.509 39.68 887.149 44.92 884.429 49.4C881.709 53.88 877.789 57.44 872.669 60.08L890.309 86H860.069L845.789 64.88ZM859.949 33.68C859.949 30.56 858.989 28.16 857.069 26.48C855.149 24.72 852.269 23.84 848.429 23.84H838.109V43.52H848.429C852.269 43.52 855.149 42.68 857.069 41C858.989 39.24 859.949 36.8 859.949 33.68ZM933.403 58.16L927.043 65.24V86H899.203V1.99999H927.043V32.48L954.643 1.99999H985.483L951.883 38.96L987.163 86H954.403L933.403 58.16ZM1020.52 87.92C1013.56 87.92 1006.76 87.16 1000.12 85.64C993.563 84.04 988.163 81.92 983.923 79.28L993.043 58.64C997.043 60.96 1001.52 62.84 1006.48 64.28C1011.44 65.64 1016.2 66.32 1020.76 66.32C1024.68 66.32 1027.48 65.96 1029.16 65.24C1030.84 64.44 1031.68 63.28 1031.68 61.76C1031.68 60 1030.56 58.68 1028.32 57.8C1026.16 56.92 1022.56 55.96 1017.52 54.92C1011.04 53.56 1005.64 52.12 1001.32 50.6C997.003 49 993.243 46.44 990.043 42.92C986.843 39.32 985.243 34.48 985.243 28.4C985.243 23.12 986.723 18.32 989.683 14C992.643 9.68 997.043 6.27999 1002.88 3.79999C1008.8 1.32 1015.96 0.0799975 1024.36 0.0799975C1030.12 0.0799975 1035.76 0.719996 1041.28 1.99999C1046.88 3.19999 1051.8 4.99999 1056.04 7.4L1047.52 27.92C1039.28 23.76 1031.48 21.68 1024.12 21.68C1016.84 21.68 1013.2 23.44 1013.2 26.96C1013.2 28.64 1014.28 29.92 1016.44 30.8C1018.6 31.6 1022.16 32.48 1027.12 33.44C1033.52 34.64 1038.92 36.04 1043.32 37.64C1047.72 39.16 1051.52 41.68 1054.72 45.2C1058 48.72 1059.64 53.52 1059.64 59.6C1059.64 64.88 1058.16 69.68 1055.2 74C1052.24 78.24 1047.8 81.64 1041.88 84.2C1036.04 86.68 1028.92 87.92 1020.52 87.92Z" fill="#20934A" fill-opacity="0.05"/>
</svg>
