<svg width="651" height="294" viewBox="0 0 651 294" fill="none" xmlns="http://www.w3.org/2000/svg">
<path d="M103.571 2.99999V108H68.1715V69.3H35.4715V108H0.0714849V2.99999H35.4715V40.2H68.1715V2.99999H103.571ZM175.678 110.4C164.378 110.4 154.228 108.05 145.228 103.35C136.228 98.65 129.178 92.15 124.078 83.85C118.978 75.45 116.428 66 116.428 55.5C116.428 45 118.978 35.6 124.078 27.3C129.178 18.9 136.228 12.35 145.228 7.65C154.228 2.95 164.378 0.599997 175.678 0.599997C186.978 0.599997 197.128 2.95 206.128 7.65C215.128 12.35 222.178 18.9 227.278 27.3C232.378 35.6 234.928 45 234.928 55.5C234.928 66 232.378 75.45 227.278 83.85C222.178 92.15 215.128 98.65 206.128 103.35C197.128 108.05 186.978 110.4 175.678 110.4ZM175.678 81.75C180.078 81.75 184.028 80.7 187.528 78.6C191.128 76.4 193.978 73.35 196.078 69.45C198.178 65.45 199.228 60.8 199.228 55.5C199.228 50.2 198.178 45.6 196.078 41.7C193.978 37.7 191.128 34.65 187.528 32.55C184.028 30.35 180.078 29.25 175.678 29.25C171.278 29.25 167.278 30.35 163.678 32.55C160.178 34.65 157.378 37.7 155.278 41.7C153.178 45.6 152.128 50.2 152.128 55.5C152.128 60.8 153.178 65.45 155.278 69.45C157.378 73.35 160.178 76.4 163.678 78.6C167.278 80.7 171.278 81.75 175.678 81.75ZM415.027 2.99999V63.75C415.027 78.65 410.477 90.15 401.377 98.25C392.377 106.35 379.727 110.4 363.427 110.4C350.027 110.4 339.177 107.1 330.877 100.5C322.677 107.1 311.827 110.4 298.327 110.4C282.127 110.4 269.477 106.35 260.377 98.25C251.377 90.15 246.877 78.65 246.877 63.75V2.99999H282.277V62.7C282.277 69.1 283.527 73.9 286.027 77.1C288.527 80.2 292.427 81.75 297.727 81.75C303.027 81.75 306.927 80.2 309.427 77.1C311.927 73.9 313.177 69.1 313.177 62.7V2.99999H348.577V62.7C348.577 69.1 349.827 73.9 352.327 77.1C354.927 80.2 358.877 81.75 364.177 81.75C369.477 81.75 373.377 80.2 375.877 77.1C378.377 73.9 379.627 69.1 379.627 62.7V2.99999H415.027ZM523.996 29.7V81.3H539.746V108H472.846V81.3H488.596V29.7H472.846V2.99999H539.746V29.7H523.996ZM638.539 39.75C630.439 35.25 622.239 32.15 613.939 30.45V108H578.539V30.45C570.239 32.15 562.039 35.25 553.939 39.75L542.239 14.55C549.739 10.05 558.139 6.59999 567.439 4.2C576.739 1.8 586.339 0.599997 596.239 0.599997C606.139 0.599997 615.739 1.8 625.039 4.2C634.339 6.59999 642.739 10.05 650.239 14.55L638.539 39.75ZM178.601 186V246.75C178.601 261.65 174.051 273.15 164.951 281.25C155.951 289.35 143.301 293.4 127.001 293.4C113.601 293.4 102.751 290.1 94.4508 283.5C86.2508 290.1 75.4008 293.4 61.9008 293.4C45.7008 293.4 33.0508 289.35 23.9508 281.25C14.9508 273.15 10.4508 261.65 10.4508 246.75V186H45.8508V245.7C45.8508 252.1 47.1008 256.9 49.6008 260.1C52.1008 263.2 56.0008 264.75 61.3008 264.75C66.6008 264.75 70.5008 263.2 73.0008 260.1C75.5008 256.9 76.7508 252.1 76.7508 245.7V186H112.151V245.7C112.151 252.1 113.401 256.9 115.901 260.1C118.501 263.2 122.451 264.75 127.751 264.75C133.051 264.75 136.951 263.2 139.451 260.1C141.951 256.9 143.201 252.1 143.201 245.7V186H178.601ZM249.799 293.4C238.499 293.4 228.349 291.05 219.349 286.35C210.349 281.65 203.299 275.15 198.199 266.85C193.099 258.45 190.549 249 190.549 238.5C190.549 228 193.099 218.6 198.199 210.3C203.299 201.9 210.349 195.35 219.349 190.65C228.349 185.95 238.499 183.6 249.799 183.6C261.099 183.6 271.249 185.95 280.249 190.65C289.249 195.35 296.299 201.9 301.399 210.3C306.499 218.6 309.049 228 309.049 238.5C309.049 249 306.499 258.45 301.399 266.85C296.299 275.15 289.249 281.65 280.249 286.35C271.249 291.05 261.099 293.4 249.799 293.4ZM249.799 264.75C254.199 264.75 258.149 263.7 261.649 261.6C265.249 259.4 268.099 256.35 270.199 252.45C272.299 248.45 273.349 243.8 273.349 238.5C273.349 233.2 272.299 228.6 270.199 224.7C268.099 220.7 265.249 217.65 261.649 215.55C258.149 213.35 254.199 212.25 249.799 212.25C245.399 212.25 241.399 213.35 237.799 215.55C234.299 217.65 231.499 220.7 229.399 224.7C227.299 228.6 226.249 233.2 226.249 238.5C226.249 243.8 227.299 248.45 229.399 252.45C231.499 256.35 234.299 259.4 237.799 261.6C241.399 263.7 245.399 264.75 249.799 264.75ZM366.898 264.6H357.298V291H321.898V186H372.448C382.148 186 390.598 187.6 397.798 190.8C404.998 194 410.548 198.6 414.448 204.6C418.348 210.6 420.298 217.6 420.298 225.6C420.298 233.1 418.598 239.65 415.198 245.25C411.798 250.85 406.898 255.3 400.498 258.6L422.548 291H384.748L366.898 264.6ZM384.598 225.6C384.598 221.7 383.398 218.7 380.998 216.6C378.598 214.4 374.998 213.3 370.198 213.3H357.298V237.9H370.198C374.998 237.9 378.598 236.85 380.998 234.75C383.398 232.55 384.598 229.5 384.598 225.6ZM476.415 256.2L468.465 265.05V291H433.665V186H468.465V224.1L502.965 186H541.515L499.515 232.2L543.615 291H502.665L476.415 256.2ZM585.315 293.4C576.615 293.4 568.115 292.45 559.815 290.55C551.615 288.55 544.865 285.9 539.565 282.6L550.965 256.8C555.965 259.7 561.565 262.05 567.765 263.85C573.965 265.55 579.915 266.4 585.615 266.4C590.515 266.4 594.015 265.95 596.115 265.05C598.215 264.05 599.265 262.6 599.265 260.7C599.265 258.5 597.865 256.85 595.065 255.75C592.365 254.65 587.865 253.45 581.565 252.15C573.465 250.45 566.715 248.65 561.315 246.75C555.915 244.75 551.215 241.55 547.215 237.15C543.215 232.65 541.215 226.6 541.215 219C541.215 212.4 543.065 206.4 546.765 201C550.465 195.6 555.965 191.35 563.265 188.25C570.665 185.15 579.615 183.6 590.115 183.6C597.315 183.6 604.365 184.4 611.265 186C618.265 187.5 624.415 189.75 629.715 192.75L619.065 218.4C608.765 213.2 599.015 210.6 589.815 210.6C580.715 210.6 576.165 212.8 576.165 217.2C576.165 219.3 577.515 220.9 580.215 222C582.915 223 587.365 224.1 593.565 225.3C601.565 226.8 608.315 228.55 613.815 230.55C619.315 232.45 624.065 235.6 628.065 240C632.165 244.4 634.215 250.4 634.215 258C634.215 264.6 632.365 270.6 628.665 276C624.965 281.3 619.415 285.55 612.015 288.75C604.715 291.85 595.815 293.4 585.315 293.4Z" fill="#20934A" fill-opacity="0.05"/>
</svg>
