<svg width="36" height="37" viewBox="0 0 36 37" fill="none" xmlns="http://www.w3.org/2000/svg">
<path d="M15.3148 17.2382C14.9229 17.8247 14.7137 18.5142 14.7136 19.2196C14.7135 20.1654 15.0892 21.0725 15.7579 21.7413C16.4266 22.4102 17.3336 22.7861 18.2794 22.7862C18.9848 22.7863 19.6743 22.5773 20.2609 22.1855C20.8474 21.7937 21.3046 21.2367 21.5747 20.5851C21.8447 19.9334 21.9154 19.2164 21.7779 18.5245C21.6404 17.8327 21.3008 17.1972 20.8021 16.6983C20.3034 16.1995 19.6679 15.8598 18.9761 15.7221C18.2843 15.5844 17.5672 15.6549 16.9155 15.9248C16.2638 16.1947 15.7068 16.6517 15.3148 17.2382Z" fill="url(#paint0_linear_1268_137)"/>
<path fill-rule="evenodd" clip-rule="evenodd" d="M11.9706 27.5616C12.6069 27.797 13.279 27.9212 13.9575 27.9286C15.0849 27.9803 15.4226 27.9913 18.28 27.9913C21.1374 27.9913 21.4762 27.9812 22.6039 27.9292C23.2823 27.9219 23.9545 27.7977 24.5908 27.5622C25.0523 27.3843 25.4714 27.1118 25.8212 26.7621C26.171 26.4125 26.4437 25.9935 26.6217 25.5321C26.8567 24.8956 26.9809 24.2236 26.9888 23.5452C27.0404 22.4163 27.0509 22.0786 27.0509 19.2212C27.0509 16.3639 27.0407 16.0267 26.9888 14.8973C26.9814 14.2189 26.8573 13.5467 26.6217 12.9104C26.4438 12.4488 26.1712 12.0296 25.8214 11.6798C25.4716 11.33 25.0524 11.0574 24.5908 10.8795C23.9542 10.6448 23.2823 10.5207 22.6039 10.5124C21.475 10.4611 21.1359 10.45 18.28 10.45C15.424 10.45 15.0852 10.4602 13.9575 10.5122C13.279 10.5195 12.6069 10.6437 11.9706 10.8792C11.5089 11.0571 11.0897 11.3297 10.7399 11.6795C10.3901 12.0293 10.1175 12.4485 9.93963 12.9102C9.70494 13.5467 9.5808 14.2187 9.57257 14.8971C9.52175 16.0259 9.51046 16.3639 9.51046 19.221C9.51046 22.0781 9.52062 22.4169 9.57257 23.5446C9.57992 24.2231 9.70408 24.8952 9.93963 25.5315C10.1177 25.9929 10.3904 26.4119 10.7402 26.7615C11.09 27.1112 11.5091 27.3837 11.9706 27.5616ZM13.7113 22.2718C13.1077 21.3684 12.7854 20.3062 12.7854 19.2196C12.7854 18.4981 12.9275 17.7836 13.2036 17.1171C13.4797 16.4505 13.8843 15.8448 14.3945 15.3346C14.9047 14.8245 15.5103 14.4198 16.1769 14.1437C16.8435 13.8676 17.5579 13.7255 18.2794 13.7256C19.366 13.7256 20.4282 14.0478 21.3317 14.6515C22.2352 15.2552 22.9393 16.1132 23.3552 17.1171C23.771 18.121 23.8798 19.2257 23.6678 20.2914C23.4558 21.3571 22.9326 22.336 22.1642 23.1044C21.3959 23.8727 20.417 24.396 19.3512 24.608C18.2855 24.8199 17.1808 24.7111 16.177 24.2953C15.1731 23.8795 14.315 23.1753 13.7113 22.2718ZM22.923 14.2213C22.782 14.0101 22.7068 13.7618 22.7069 13.5079C22.7072 13.1675 22.8432 12.8412 23.0839 12.6006C23.3246 12.36 23.651 12.2248 23.9913 12.2246C24.2453 12.2247 24.4935 12.3001 24.7045 12.4413C24.9156 12.5825 25.08 12.783 25.1771 13.0177C25.2742 13.2523 25.2995 13.5105 25.2499 13.7595C25.2002 14.0085 25.0778 14.2372 24.8982 14.4167C24.7186 14.5961 24.4898 14.7183 24.2407 14.7677C23.9916 14.8172 23.7335 14.7916 23.499 14.6944C23.2644 14.5971 23.064 14.4324 22.923 14.2213Z" fill="url(#paint1_linear_1268_137)"/>
<path fill-rule="evenodd" clip-rule="evenodd" d="M7.64097 32.4957C8.68553 32.8829 9.78901 33.0872 10.903 33.0996C12.7543 33.1852 13.3089 33.2019 17.9993 33.2019C22.6897 33.2019 23.2462 33.1846 25.0976 33.0999C26.2115 33.0874 27.315 32.883 28.3595 32.4957C29.1172 32.2036 29.8053 31.7561 30.3796 31.182C30.9538 30.6079 31.4015 29.9199 31.6938 29.1623C32.0802 28.1176 32.2846 27.0144 32.298 25.9006C32.3828 24.0475 32.4 23.4927 32.4 18.8023C32.4 14.1119 32.3828 13.5571 32.298 11.704C32.2855 10.59 32.0811 9.48655 31.6938 8.442C31.4123 7.6787 30.9632 6.98825 30.3795 6.42151C29.8129 5.838 29.1227 5.38905 28.3595 5.10773C27.3149 4.72163 26.2118 4.51736 25.0981 4.50378C23.2451 4.42077 22.6891 4.40186 17.9998 4.40186C13.3106 4.40186 12.7543 4.41908 10.9021 4.50378C9.78816 4.51622 8.68469 4.72052 7.64012 5.10773C6.87668 5.38868 6.18623 5.83778 5.61991 6.42179C5.03724 6.98954 4.58835 7.67994 4.30585 8.44285C3.91985 9.48726 3.71558 10.5901 3.7019 11.7034C3.61889 13.5565 3.59998 14.1099 3.59998 18.8017C3.59998 23.4935 3.6172 24.0489 3.70275 25.9006C3.71494 27.0144 3.91896 28.1178 4.30585 29.1623C4.58698 29.9257 5.03651 30.616 5.62104 31.1819C6.18806 31.7649 6.87819 32.2137 7.64097 32.4957ZM11.2712 9.08261C12.1027 8.77116 12.9811 8.60314 13.8688 8.58568C15.0104 8.53317 15.3763 8.52102 18.2814 8.52102C21.1865 8.52102 21.551 8.53345 22.692 8.58568C23.5798 8.60293 24.4581 8.77096 25.2896 9.08261C26.0002 9.35764 26.6455 9.77805 27.1843 10.3169C27.723 10.8558 28.1432 11.5012 28.418 12.2119C28.7295 13.0434 28.8975 13.9218 28.915 14.8095C28.9666 15.9505 28.9788 16.315 28.9788 19.2207C28.9788 22.1263 28.9669 22.4903 28.915 23.6318C28.8979 24.5196 28.7299 25.3981 28.418 26.2295C28.1432 26.9403 27.7229 27.5858 27.184 28.1247C26.6451 28.6636 25.9996 29.0839 25.2887 29.3587C24.4572 29.6701 23.5789 29.8382 22.6911 29.8557C21.5502 29.9082 21.1856 29.9203 18.28 29.9203C15.3743 29.9203 15.0101 29.9076 13.8688 29.8557C12.9811 29.8381 12.1027 29.6701 11.2712 29.3587C10.5604 29.0839 9.91485 28.6636 9.37597 28.1247C8.83709 27.5858 8.41675 26.9403 8.1419 26.2295C7.83049 25.3979 7.66246 24.5196 7.64497 23.6318C7.59245 22.4909 7.58031 22.1263 7.58031 19.2207C7.58031 16.315 7.59217 15.9502 7.64497 14.8095C7.66247 13.9218 7.83049 13.0434 8.1419 12.2119C8.41673 11.5011 8.83707 10.8555 9.37595 10.3167C9.91483 9.77778 10.5604 9.35744 11.2712 9.08261Z" fill="url(#paint2_linear_1268_137)"/>
<defs>
<linearGradient id="paint0_linear_1268_137" x1="19.0946" y1="5.90186" x2="19.0946" y2="33.2019" gradientUnits="userSpaceOnUse">
<stop stop-color="#90C626"/>
<stop offset="1" stop-color="#20934A"/>
</linearGradient>
<linearGradient id="paint1_linear_1268_137" x1="19.0946" y1="5.90186" x2="19.0946" y2="33.2019" gradientUnits="userSpaceOnUse">
<stop stop-color="#90C626"/>
<stop offset="1" stop-color="#20934A"/>
</linearGradient>
<linearGradient id="paint2_linear_1268_137" x1="19.0946" y1="5.90186" x2="19.0946" y2="33.2019" gradientUnits="userSpaceOnUse">
<stop stop-color="#90C626"/>
<stop offset="1" stop-color="#20934A"/>
</linearGradient>
</defs>
</svg>
