<svg width="91" height="90" viewBox="0 0 91 90" fill="none" xmlns="http://www.w3.org/2000/svg">
<path opacity="0.6" fill-rule="evenodd" clip-rule="evenodd" d="M45.6907 89.9518C70.5302 89.9518 90.6667 69.8154 90.6667 44.9759C90.6667 20.1364 70.5302 0 45.6907 0C28.9935 0 14.4214 9.09883 6.66218 22.6087L4.67394 26.4975C3.95639 28.0878 3.3286 29.7273 2.79704 31.4095C2.5642 32.1552 2.03654 33.9497 1.78856 35.1626C1.0856 38.3214 0.714828 41.6054 0.714828 44.9759C0.714828 49.3883 1.35024 53.6524 2.53454 57.6815C2.82895 58.7434 3.51524 60.6261 3.82159 61.4346C4.51187 63.1893 5.30927 64.89 6.20572 66.5288L8.44099 70.1888C16.5292 82.1152 30.1948 89.9518 45.6907 89.9518ZM45.6906 87.0521C68.8966 87.0521 87.7088 68.2399 87.7088 45.0339C87.7088 21.828 68.8966 3.0158 45.6906 3.0158C22.4847 3.0158 3.6725 21.828 3.6725 45.0339C3.6725 68.2399 22.4847 87.0521 45.6906 87.0521Z" fill="#C5D82E"/>
<circle cx="46.1474" cy="44.9808" r="35.9807" fill="#022426"/>
<path fill-rule="evenodd" clip-rule="evenodd" d="M46.1827 77.3188C63.7589 77.3188 78.0442 63.2291 78.3601 45.7284H77.3727C77.3764 45.5314 77.3782 45.3339 77.3782 45.1361C77.3782 44.9382 77.3764 44.7407 77.3727 44.5437H75.2064V43.9514H76.3682C76.3529 43.5545 76.33 43.1596 76.2995 42.7668H77.2896C77.2598 42.3698 77.2225 41.9749 77.178 41.5821H78.1714C76.4026 25.4804 62.7556 12.9533 46.1827 12.9533C28.4087 12.9533 14 27.362 14 45.1361C14 62.9101 28.4087 77.3188 46.1827 77.3188ZM76.7985 45.7284C76.8022 45.5314 76.8041 45.3339 76.8041 45.1361H75.2064V45.7284H76.7985ZM50.5734 75.0276C49.14 75.2363 47.674 75.3444 46.1827 75.3444C29.4991 75.3444 15.9744 61.8196 15.9744 45.1361C15.9744 42.3537 16.3506 39.6591 17.0548 37.1005C16.9031 37.0065 16.8298 36.8177 16.8884 36.6408L17.6783 34.2568C17.7381 34.0762 17.9159 33.9677 18.0978 33.9886C22.5337 22.8223 33.4363 14.9277 46.1827 14.9277C61.4597 14.9277 74.088 26.268 76.1088 40.9898H77.5034C75.4731 25.5023 62.2242 13.5457 46.1827 13.5457C28.7358 13.5457 14.5923 27.6892 14.5923 45.1361C14.5923 62.5829 28.7358 76.7265 46.1827 76.7265C63.233 76.7265 77.1283 63.2187 77.7513 46.3207H76.3682C75.8446 59.8985 66.3595 71.1779 53.6603 74.4118C53.598 74.6024 53.4368 74.7545 53.2259 74.7951L51.1037 75.2043C50.901 75.2434 50.7027 75.1699 50.5734 75.0276ZM50.4485 74.4838C49.0555 74.6845 47.6312 74.7884 46.1827 74.7884C29.8062 74.7884 16.5304 61.5126 16.5304 45.1361C16.5304 42.4127 16.8975 39.7751 17.585 37.2701C17.7547 37.2749 17.9146 37.1689 17.9708 36.9995L18.7607 34.6155C18.8156 34.4499 18.7548 34.2737 18.6222 34.1748C22.9813 23.224 33.6781 15.4837 46.1827 15.4837C61.1521 15.4837 73.5308 26.5761 75.5475 40.9898H74.1144C72.1182 27.4256 60.4762 16.9994 46.3802 16.9028V17.4225C60.1886 17.5188 71.5973 27.7137 73.5889 40.9898H72.2448V40.5949C72.2448 40.4237 72.1358 40.2779 71.9834 40.2232C69.9485 29.471 61.3587 21.0372 50.5263 19.2341V18.7417C61.6859 20.5643 70.5242 29.2935 72.5095 40.3975H73.0188C70.9094 28.3684 60.9096 19.0554 48.552 17.9909V18.2843H48.5516V20.259H50.5263V19.7243C61.0835 21.5158 69.4557 29.7264 71.4868 40.2001H70.9732C69.126 30.8699 62.143 23.387 53.0931 20.8201V21.0485H53.093V22.0358H53.0931V22.4427C61.0246 24.8548 67.195 31.3111 69.2028 39.4103H69.789C67.7878 31.1307 61.5441 24.5068 53.4879 21.9689V21.5551C62.0174 24.1945 68.5694 31.3344 70.369 40.2001H70.073C69.8549 40.2001 69.6781 40.3769 69.6781 40.5949V40.9898H68.6909L65.137 37.041H63.1626V36.4487H61.1882V38.4231H63.1626V37.6333H65.137L68.6909 41.5821H69.6781V42.1745H68.4934L66.3216 40.0026H63.1626V39.4103H61.1882V41.3847H63.1626V40.5949H66.3216L68.4934 42.7668H69.6781V43.3591H63.1626V42.7668H61.1882V44.7412H63.1626V43.9514H69.6781V44.5437H68.4934L66.3216 46.7156H63.1626V46.1233H61.1882V48.0977H63.1626V47.3079H66.3216L68.4934 45.1361H69.6781V45.7284H68.6909L66.3216 49.6772H63.1626V48.8874H61.1882V50.8618H63.1626V50.2695H66.3216L68.6909 46.3207H69.6781V47.1105C69.6781 47.3285 69.8549 47.5053 70.073 47.5053H70.7505C69.781 57.6839 62.6294 66.0598 53.0928 68.8356V68.424C62.1622 65.737 69.017 57.8963 70.2642 48.2951H69.6901C68.4357 57.7193 61.6469 65.3945 52.6982 67.9458V68.2366H52.6979V69.224H52.6982V69.5605C62.7608 66.8831 70.3555 58.1524 71.3454 47.5053H71.8515C70.6642 60.5334 59.7827 70.7598 46.4809 70.9106L45.9853 71.0007V71.3948C46.0277 71.3952 46.0702 71.3954 46.1127 71.3955L46.1827 71.3956C60.2884 71.3956 71.7965 60.2736 72.416 46.3207H72.6925C72.7608 46.4387 72.8884 46.5181 73.0346 46.5181H73.8631C73.1461 61.1171 61.1329 72.7466 46.3804 72.8497V72.3821C60.7414 72.28 72.4612 61.0678 73.3724 46.913H72.8699C71.9553 60.8556 60.3566 71.8813 46.1827 71.8813C46.1168 71.8813 46.051 71.8811 45.9853 71.8806V72.3821C45.9853 72.3821 45.9854 72.3821 45.9855 72.3821V72.8496H45.9853V73.3693C46.051 73.3698 46.1168 73.37 46.1827 73.37C61.3125 73.37 73.6627 61.4693 74.3834 46.5181H74.8115C74.9577 46.5181 75.0853 46.4387 75.1536 46.3207H75.8118C75.289 59.6283 65.9961 70.6829 53.5521 73.8654C53.4232 73.7143 53.2189 73.635 53.01 73.6753L50.8878 74.0844C50.671 74.1263 50.5068 74.2857 50.4485 74.4838ZM72.6397 45.7284V45.1361H72.2448V45.7284H72.6397ZM72.6397 44.5437H72.4357C72.4313 44.3458 72.4247 44.1483 72.416 43.9514H72.6397V44.5437ZM72.6925 43.3591H72.383C72.3698 43.161 72.3544 42.9636 72.3368 42.7668H75.7987V43.3591H75.1536C75.0853 43.2411 74.9577 43.1617 74.8115 43.1617H73.0346C72.8884 43.1617 72.7608 43.2411 72.6925 43.3591ZM76.6627 42.1745C76.6437 41.9765 76.6228 41.779 76.6001 41.5821H72.2448V42.1745H76.6627ZM77.3285 46.913C76.4074 63.315 62.8151 76.3316 46.1827 76.3316C28.9539 76.3316 14.9872 62.3649 14.9872 45.1361C14.9872 27.9072 28.9539 13.9405 46.1827 13.9405C61.8006 13.9405 74.7378 25.4175 77.0207 40.3975H76.4397C74.162 25.7359 61.4828 14.5147 46.1827 14.5147C29.271 14.5147 15.5613 28.2243 15.5613 45.1361C15.5613 62.0478 29.271 75.7574 46.1827 75.7574C62.498 75.7574 75.8331 62.9978 76.7534 46.913H77.3285ZM67.0156 24.6454C71.1548 28.8533 74.0288 34.3094 75.0216 40.3975H74.4765C73.4895 34.4605 70.6791 29.14 66.6402 25.0308C66.4535 25.0898 66.2412 25.0511 66.0854 24.9103L64.4815 23.4617C64.3211 23.3168 64.2622 23.1015 64.3092 22.9052C59.3685 18.8718 53.0581 16.4528 46.1827 16.4528C46.0508 16.4528 45.9191 16.4536 45.7876 16.4554V16.9048C45.7877 16.9048 45.7878 16.9048 45.7878 16.9048V17.3957L45.8163 17.4242C45.8067 17.4243 45.7971 17.4244 45.7876 17.4245V17.8921C45.9191 17.8903 46.0508 17.8893 46.1827 17.8893L46.1827 18.3908C46.0508 18.3908 45.9191 18.3918 45.7876 18.3937V18.8795C45.9191 18.8775 46.0508 18.8765 46.1827 18.8765L46.1827 19.3598C46.0508 19.3598 45.9191 19.3608 45.7876 19.3628V19.4696H45.5215C45.7844 19.4808 46.0093 19.6389 46.1162 19.8638C46.1384 19.8638 46.1605 19.8637 46.1827 19.8637V20.1525C46.1827 20.155 46.1828 20.1576 46.1828 20.1601V23.5172C46.1828 23.8989 45.8733 24.2083 45.4916 24.2083C45.1099 24.2083 44.8004 23.8989 44.8004 23.5172V20.1601C44.8004 19.7884 45.0939 19.4853 45.4617 19.4696H45.1952V19.3784C45.0964 19.3821 44.9978 19.3864 44.8994 19.3912V18.9074C44.9978 18.9026 45.0964 18.8984 45.1952 18.8948V18.4087C45.0964 18.4123 44.9978 18.4164 44.8994 18.4211V17.919C44.9978 17.9145 45.0964 17.9104 45.1952 17.9069V17.4391C45.1842 17.4394 45.1732 17.4398 45.1621 17.4402L45.1952 17.3962V16.4694C29.8111 16.9899 17.4994 29.6252 17.4994 45.1361C17.4994 60.3138 29.2879 72.7381 44.2083 73.7525V73.7649H44.3997C44.5328 73.773 44.6663 73.7803 44.7999 73.7866V70.8027H45.0688C44.7002 70.7878 44.406 70.4843 44.406 70.1121V66.755C44.406 66.3733 44.7154 66.0639 45.0971 66.0639C45.4788 66.0639 45.7883 66.3733 45.7883 66.755V70.1121C45.7883 70.4843 45.4941 70.7878 45.1255 70.8027H45.3923V70.9004C45.3925 70.9004 45.3927 70.9004 45.393 70.9004V71.3839C45.3927 71.3839 45.3925 71.3839 45.3923 71.3839V71.8699C45.3925 71.8699 45.3927 71.8699 45.393 71.8699V72.3715C45.3927 72.3715 45.3925 72.3715 45.3923 72.3715V72.8393C45.3925 72.8393 45.3927 72.8393 45.393 72.8393V73.3591C45.3927 73.3591 45.3925 73.3591 45.3923 73.3591V73.8087C45.6549 73.8158 45.9184 73.8194 46.1827 73.8194C61.4273 73.8194 73.8942 61.9267 74.8119 46.913H75.3507C74.4323 62.2239 61.7244 74.3572 46.1827 74.3572C45.9184 74.3572 45.6549 74.3537 45.3923 74.3467V74.3572H44.7999V74.325C29.3036 73.6031 16.9616 60.8109 16.9616 45.1361C16.9616 29.3282 29.514 16.4521 45.1952 15.9313V15.9151H45.7876V15.9176C45.9191 15.9158 46.0508 15.9149 46.1827 15.9149C53.1954 15.9149 59.6311 18.3852 64.6672 22.5031C64.8595 22.4327 65.0834 22.4685 65.246 22.6153L66.8499 24.064C67.0171 24.215 67.074 24.4426 67.0156 24.6454ZM44.2083 71.988V71.8095C30.3593 70.799 19.4375 59.243 19.4375 45.1361C19.4375 32.3301 28.4376 21.6263 40.4576 19.005V19.5024C28.7081 22.1151 19.9232 32.5997 19.9232 45.1361C19.9232 58.9746 30.6278 70.313 44.2083 71.3225V71.0007L42.0365 70.6058L37.6928 69.7173V69.4814C27.628 65.9719 20.4065 56.3973 20.4065 45.1361C20.4065 33.7281 27.8175 24.051 38.0877 20.6566V20.5548L39.0682 20.3542C39.5262 20.223 39.9895 20.1041 40.4576 19.9979V20.4565H42.4324V18.4818H42.4314V18.1455C41.7816 18.2349 41.1392 18.3473 40.5049 18.4818H40.4576V18.4918C28.1586 21.1218 18.936 32.0519 18.936 45.1361C18.936 59.3858 29.8749 71.0805 43.8134 72.2812V72.7505C29.6163 71.5485 18.4684 59.6441 18.4684 45.1361C18.4684 30.36 30.0319 18.2847 44.6032 17.466V16.9456C29.7448 17.7649 17.9488 30.0729 17.9488 45.1361C17.9488 60.0655 29.5363 72.2885 44.2083 73.302V72.9753H44.2084V71.988H44.2083ZM37.6928 68.6316V68.947C27.9115 65.4591 20.9104 56.1152 20.9104 45.1361C20.9104 34.0098 28.1005 24.5628 38.0877 21.188V21.8143C38.0874 21.8144 38.0871 21.8145 38.0868 21.8146V22.2331C38.0871 22.233 38.0874 22.2329 38.0877 22.2328V22.8376C30.3557 25.6451 24.498 32.3598 22.9011 40.5949H23.3271C24.9082 32.5921 30.5876 26.0622 38.0877 23.2829V23.8664C38.0874 23.8665 38.0871 23.8666 38.0868 23.8667V24.3396C38.0871 24.3395 38.0874 24.3394 38.0877 24.3393V24.9016C32.1122 27.2944 27.4435 32.2573 25.4487 38.4231H31.5722C31.5722 38.205 31.749 38.0282 31.967 38.0282H35.9158C36.1339 38.0282 36.3107 38.205 36.3107 38.4231H39.4698V39.0154H36.3107C36.3107 39.2335 36.1339 39.4103 35.9158 39.4103H31.967C31.749 39.4103 31.5722 39.2335 31.5722 39.0154H24.722C26.5983 32.4241 31.4293 27.0772 37.6918 24.4979V24.0214C30.6913 26.8392 25.4149 33.0376 23.8841 40.5949H31.5722C31.5722 40.3768 31.749 40.2001 31.967 40.2001H35.9158C36.1339 40.2001 36.3107 40.3768 36.3107 40.5949H39.4698V41.1873H36.3107C36.3107 41.4053 36.1339 41.5821 35.9158 41.5821H31.967C31.749 41.5821 31.5722 41.4053 31.5722 41.1873H22.217C23.6363 32.5079 29.6567 25.3756 37.6918 22.3766V21.9555C28.9536 25.1572 22.5301 33.1588 21.615 42.7668H31.5722C31.5722 42.5487 31.749 42.3719 31.967 42.3719H35.9158C36.1339 42.3719 36.3107 42.5487 36.3107 42.7668H39.4698V43.3591H36.3107C36.3107 43.5772 36.1339 43.754 35.9158 43.754H31.967C31.749 43.754 31.5722 43.5772 31.5722 43.3591H21.5657C21.524 43.946 21.5027 44.5385 21.5027 45.1361C21.5027 55.6345 28.0579 64.6019 37.2984 68.1686V67.7447C28.2807 64.1983 21.8976 55.4126 21.8976 45.1361C21.8976 45.0702 21.8979 45.0044 21.8984 44.9386H31.5722C31.5722 44.7205 31.749 44.5437 31.967 44.5437H35.9158C36.1339 44.5437 36.3107 44.7205 36.3107 44.9386H39.4698V45.5309H36.3107C36.3107 45.749 36.1339 45.9258 35.9158 45.9258H31.967C31.749 45.9258 31.5722 45.749 31.5722 45.5309H23.4342C23.5915 54.7748 29.2617 62.6759 37.2984 66.088V65.6078C29.6826 62.2981 24.274 54.863 23.8934 46.1233H24.4169C24.8002 54.7191 30.1643 62.0195 37.6928 65.2078V65.4725H37.6934V66.4599H37.6928V66.8387C29.1399 63.4903 23.0493 55.232 22.8881 45.5309H22.47C22.6322 55.4667 28.9044 63.9167 37.6928 67.2871V67.6442H37.6934V68.6316H37.6928ZM52.6982 66.0648V65.9329C60.077 63.6236 65.7678 57.4956 67.4562 49.8635L68.2704 48.303C67.0624 56.8042 61.0625 63.7626 53.0928 66.356V66.8196C61.3102 64.2032 67.5016 57.045 68.717 48.2951H69.2683C68.0222 57.4875 61.4147 64.9767 52.6982 67.5107V67.0521H52.6979V66.0648H52.6982ZM68.208 39.4103H68.7718C66.7837 31.5426 60.7933 25.2683 53.0931 22.8801V23.2203H53.093V24.2077H53.0931V24.4669C59.4315 26.5851 64.4723 31.5373 66.7115 37.8192L67.6427 39.0131C65.6492 32.0125 60.3226 26.4161 53.4879 24.0488V23.5823C60.6955 26.0244 66.282 31.9802 68.208 39.4103ZM43.2211 21.6407H39.2723V28.8284H36.0858V34.7753H53.4157V48.2161C53.4157 53.3411 50.7686 57.354 45.0964 57.354C39.4715 57.354 36.7299 54.4048 36.7299 48.6029H30.585C30.585 55.6077 33.8244 60.2568 38.8774 62.2472V68.8289H42.8262V63.2186C43.5607 63.3055 44.3183 63.3492 45.0964 63.3492C45.8104 63.3492 46.5019 63.3101 47.1699 63.2339V68.8289H51.5136V62.0909C56.7086 59.8178 59.6551 54.659 59.6551 48.2161V28.8284H51.9085V21.6407H47.5648V28.8284H43.2211V21.6407ZM49.5392 38.0282H40.6544V47.3051C40.526 47.7122 40.457 48.144 40.457 48.5913C40.457 51.0447 42.5343 53.0337 45.0968 53.0337C47.6593 53.0337 49.7366 51.0447 49.7366 48.5913C49.7366 48.144 49.6676 47.7122 49.5392 47.3051V38.0282Z" fill="url(#paint0_linear_1061_1626)"/>
<path fill-rule="evenodd" clip-rule="evenodd" d="M25.0451 16.8006C25.0451 16.577 24.8638 16.3956 24.6401 16.3956C24.4165 16.3956 24.2352 16.577 24.2352 16.8006C24.2352 17.0242 24.4165 17.2056 24.6401 17.2056C24.8638 17.2056 25.0451 17.0242 25.0451 16.8006ZM15.4957 26.3381C15.7193 26.3381 15.9006 26.5194 15.9006 26.743C15.9006 26.9666 15.7193 27.148 15.4957 27.148C15.272 27.148 15.0907 26.9666 15.0907 26.743C15.0907 26.5194 15.272 26.3381 15.4957 26.3381ZM77.9963 27.6068C77.9963 27.3831 77.815 27.2018 77.5914 27.2018C77.3678 27.2018 77.1864 27.3831 77.1864 27.6068C77.1864 27.8304 77.3678 28.0117 77.5914 28.0117C77.815 28.0117 77.9963 27.8304 77.9963 27.6068ZM82 39.9407C82 39.7171 81.8186 39.5357 81.595 39.5357C81.3714 39.5357 81.19 39.7171 81.19 39.9407C81.19 40.1643 81.3714 40.3456 81.595 40.3456C81.8186 40.3456 82 40.1643 82 39.9407ZM33.4588 78.1876C33.6824 78.1876 33.8638 78.3689 33.8638 78.5926C33.8638 78.8162 33.6824 78.9975 33.4588 78.9975C33.2352 78.9975 33.0538 78.8162 33.0538 78.5926C33.0538 78.3689 33.2352 78.1876 33.4588 78.1876ZM47.2267 80.9504C47.2267 80.7268 47.0453 80.5454 46.8217 80.5454C46.5981 80.5454 46.4168 80.7268 46.4168 80.9504C46.4168 81.174 46.5981 81.3554 46.8217 81.3554C47.0453 81.3554 47.2267 81.174 47.2267 80.9504Z" fill="url(#paint1_linear_1061_1626)"/>
<defs>
<linearGradient id="paint0_linear_1061_1626" x1="74.6101" y1="67.7559" x2="9.15822" y2="54.6945" gradientUnits="userSpaceOnUse">
<stop stop-color="#90C626"/>
<stop offset="1" stop-color="#20934A"/>
</linearGradient>
<linearGradient id="paint1_linear_1061_1626" x1="78.1015" y1="71.7042" x2="10.216" y2="57.7494" gradientUnits="userSpaceOnUse">
<stop stop-color="#90C626"/>
<stop offset="1" stop-color="#20934A"/>
</linearGradient>
</defs>
</svg>
