<svg width="68" height="70" viewBox="0 0 68 70" fill="none" xmlns="http://www.w3.org/2000/svg">
<path fill-rule="evenodd" clip-rule="evenodd" d="M32.1827 65.3188C49.7589 65.3188 64.0442 51.2291 64.3601 33.7284H63.3727C63.3764 33.5314 63.3782 33.3339 63.3782 33.1361C63.3782 32.9382 63.3764 32.7407 63.3727 32.5437H61.2064V31.9514H62.3682C62.3529 31.5545 62.33 31.1596 62.2995 30.7668H63.2896C63.2598 30.3698 63.2225 29.9749 63.178 29.5821H64.1714C62.4026 13.4804 48.7556 0.953339 32.1827 0.953339C14.4087 0.953339 0 15.362 0 33.1361C0 50.9101 14.4087 65.3188 32.1827 65.3188ZM62.7985 33.7284C62.8022 33.5314 62.8041 33.3339 62.8041 33.1361H61.2064V33.7284H62.7985ZM36.5734 63.0276C35.14 63.2363 33.674 63.3444 32.1827 63.3444C15.4991 63.3444 1.9744 49.8196 1.9744 33.1361C1.9744 30.3537 2.35058 27.6591 3.05484 25.1005C2.90313 25.0065 2.82975 24.8177 2.88836 24.6408L3.67828 22.2568C3.73814 22.0762 3.9159 21.9677 4.09778 21.9886C8.5337 10.8223 19.4363 2.92774 32.1827 2.92774C47.4597 2.92774 60.088 14.268 62.1088 28.9898H63.5034C61.4731 13.5023 48.2242 1.54566 32.1827 1.54566C14.7358 1.54566 0.59232 15.6892 0.59232 33.1361C0.59232 50.5829 14.7358 64.7265 32.1827 64.7265C49.233 64.7265 63.1283 51.2187 63.7513 34.3207H62.3682C61.8446 47.8985 52.3595 59.1779 39.6603 62.4118C39.598 62.6024 39.4368 62.7545 39.2259 62.7951L37.1037 63.2043C36.901 63.2434 36.7027 63.1699 36.5734 63.0276ZM36.4485 62.4838C35.0555 62.6845 33.6312 62.7884 32.1827 62.7884C15.8062 62.7884 2.53037 49.5126 2.53037 33.1361C2.53037 30.4127 2.8975 27.7751 3.58497 25.2701C3.75471 25.2749 3.91465 25.1689 3.9708 24.9995L4.76072 22.6155C4.8156 22.4499 4.75476 22.2737 4.62222 22.1748C8.9813 11.224 19.6781 3.48373 32.1827 3.48373C47.1521 3.48373 59.5308 14.5761 61.5475 28.9898H60.1144C58.1182 15.4256 46.4762 4.99935 32.3802 4.90281V5.42248C46.1886 5.51882 57.5973 15.7137 59.5889 28.9898H58.2448V28.5949C58.2448 28.4237 58.1358 28.2779 57.9834 28.2232C55.9485 17.471 47.3587 9.03721 36.5263 7.2341V6.74175C47.6859 8.56432 56.5242 17.2935 58.5095 28.3975H59.0188C56.9094 16.3684 46.9096 7.05538 34.552 5.99092V6.28429H34.5516V8.25902H36.5263V7.72427C47.0835 9.51582 55.4557 17.7264 57.4868 28.2001H56.9732C55.126 18.8699 48.143 11.387 39.0931 8.82013V9.04847H39.093V10.0358H39.0931V10.4427C47.0246 12.8548 53.195 19.3111 55.2028 27.4103H55.789C53.7878 19.1307 47.5441 12.5068 39.4879 9.96891V9.55512C48.0174 12.1945 54.5694 19.3344 56.369 28.2001H56.073C55.8549 28.2001 55.6781 28.3769 55.6781 28.5949V28.9898H54.6909L51.137 25.041H49.1626V24.4487H47.1882V26.4231H49.1626V25.6333H51.137L54.6909 29.5821H55.6781V30.1745H54.4934L52.3216 28.0026H49.1626V27.4103H47.1882V29.3847H49.1626V28.5949H52.3216L54.4934 30.7668H55.6781V31.3591H49.1626V30.7668H47.1882V32.7412H49.1626V31.9514H55.6781V32.5437H54.4934L52.3216 34.7156H49.1626V34.1233H47.1882V36.0977H49.1626V35.3079H52.3216L54.4934 33.1361H55.6781V33.7284H54.6909L52.3216 37.6772H49.1626V36.8874H47.1882V38.8618H49.1626V38.2695H52.3216L54.6909 34.3207H55.6781V35.1105C55.6781 35.3285 55.8549 35.5053 56.073 35.5053H56.7505C55.781 45.6839 48.6294 54.0598 39.0928 56.8356V56.424C48.1622 53.737 55.017 45.8963 56.2642 36.2951H55.6901C54.4357 45.7193 47.6469 53.3945 38.6982 55.9458V56.2366H38.6979V57.224H38.6982V57.5605C48.7608 54.8831 56.3555 46.1524 57.3454 35.5053H57.8515C56.6642 48.5334 45.7827 58.7598 32.4809 58.9106L31.9853 59.0007V59.3948C32.0277 59.3952 32.0702 59.3954 32.1127 59.3955L32.1827 59.3956C46.2884 59.3956 57.7965 48.2736 58.416 34.3207H58.6925C58.7608 34.4387 58.8884 34.5181 59.0346 34.5181H59.8631C59.1461 49.1171 47.1329 60.7466 32.3804 60.8497V60.3821C46.7414 60.28 58.4612 49.0678 59.3724 34.913H58.8699C57.9553 48.8556 46.3566 59.8813 32.1827 59.8813C32.1168 59.8813 32.051 59.8811 31.9853 59.8806V60.3821C31.9853 60.3821 31.9854 60.3821 31.9855 60.3821V60.8496H31.9853V61.3693C32.051 61.3698 32.1168 61.37 32.1827 61.37C47.3125 61.37 59.6627 49.4693 60.3834 34.5181H60.8115C60.9577 34.5181 61.0853 34.4387 61.1536 34.3207H61.8118C61.289 47.6283 51.9961 58.6829 39.5521 61.8654C39.4232 61.7143 39.2189 61.635 39.01 61.6753L36.8878 62.0844C36.671 62.1263 36.5068 62.2857 36.4485 62.4838ZM58.6397 33.7284V33.1361H58.2448V33.7284H58.6397ZM58.6397 32.5437H58.4357C58.4313 32.3458 58.4247 32.1483 58.416 31.9514H58.6397V32.5437ZM58.6925 31.3591H58.383C58.3698 31.161 58.3544 30.9636 58.3368 30.7668H61.7987V31.3591H61.1536C61.0853 31.2411 60.9577 31.1617 60.8115 31.1617H59.0346C58.8884 31.1617 58.7608 31.2411 58.6925 31.3591ZM62.6627 30.1745C62.6437 29.9765 62.6228 29.779 62.6001 29.5821H58.2448V30.1745H62.6627ZM63.3285 34.913C62.4074 51.315 48.8151 64.3316 32.1827 64.3316C14.9539 64.3316 0.9872 50.3649 0.9872 33.1361C0.9872 15.9072 14.9539 1.94054 32.1827 1.94054C47.8006 1.94054 60.7378 13.4175 63.0207 28.3975H62.4397C60.162 13.7359 47.4828 2.51469 32.1827 2.51469C15.271 2.51469 1.56135 16.2243 1.56135 33.1361C1.56135 50.0478 15.271 63.7574 32.1827 63.7574C48.498 63.7574 61.8331 50.9978 62.7534 34.913H63.3285ZM53.0156 12.6454C57.1548 16.8533 60.0288 22.3094 61.0216 28.3975H60.4765C59.4895 22.4605 56.6791 17.14 52.6402 13.0308C52.4535 13.0898 52.2412 13.0511 52.0854 12.9103L50.4815 11.4617C50.3211 11.3168 50.2622 11.1015 50.3092 10.9052C45.3685 6.87178 39.0581 4.45275 32.1827 4.45275C32.0508 4.45275 31.9191 4.45364 31.7876 4.45542V4.90485C31.7877 4.90485 31.7878 4.90484 31.7878 4.90484V5.39574L31.8163 5.42416C31.8067 5.42428 31.7971 5.42441 31.7876 5.42455V5.89215C31.9191 5.89028 32.0508 5.88934 32.1827 5.88934L32.1827 6.39082C32.0508 6.39082 31.9191 6.39177 31.7876 6.39368V6.87945C31.9191 6.87751 32.0508 6.87654 32.1827 6.87654L32.1827 7.35985C32.0508 7.35985 31.9191 7.36084 31.7876 7.36281V7.46963H31.5215C31.7844 7.48081 32.0093 7.63886 32.1162 7.86382C32.1384 7.86377 32.1605 7.86374 32.1827 7.86374V8.15245C32.1827 8.15501 32.1828 8.15758 32.1828 8.16015V11.5172C32.1828 11.8989 31.8733 12.2083 31.4916 12.2083C31.1099 12.2083 30.8004 11.8989 30.8004 11.5172V8.16015C30.8004 7.78845 31.0939 7.48528 31.4617 7.46963H31.1952V7.37842C31.0964 7.38214 30.9978 7.38641 30.8994 7.39124V6.90735C30.9978 6.90261 31.0964 6.89842 31.1952 6.89477V6.40871C31.0964 6.41229 30.9978 6.41641 30.8994 6.42107V5.91903C30.9978 5.91447 31.0964 5.91042 31.1952 5.9069V5.43905C31.1842 5.43944 31.1732 5.43983 31.1621 5.44023L31.1952 5.3962V4.46943C15.8111 4.98993 3.4994 17.6252 3.4994 33.1361C3.4994 48.3138 15.2879 60.7381 30.2083 61.7525V61.7649H30.3997C30.5328 61.773 30.6663 61.7803 30.7999 61.7866V58.8027H31.0688C30.7002 58.7878 30.406 58.4843 30.406 58.1121V54.755C30.406 54.3733 30.7154 54.0639 31.0971 54.0639C31.4788 54.0639 31.7883 54.3733 31.7883 54.755V58.1121C31.7883 58.4843 31.4941 58.7878 31.1255 58.8027H31.3923V58.9004C31.3925 58.9004 31.3927 58.9004 31.393 58.9004V59.3839C31.3927 59.3839 31.3925 59.3839 31.3923 59.3839V59.8699C31.3925 59.8699 31.3927 59.8699 31.393 59.8699V60.3715C31.3927 60.3715 31.3925 60.3715 31.3923 60.3715V60.8393C31.3925 60.8393 31.3927 60.8393 31.393 60.8393V61.3591C31.3927 61.3591 31.3925 61.3591 31.3923 61.3591V61.8087C31.6549 61.8158 31.9184 61.8194 32.1827 61.8194C47.4273 61.8194 59.8942 49.9267 60.8119 34.913H61.3507C60.4323 50.2239 47.7244 62.3572 32.1827 62.3572C31.9184 62.3572 31.6549 62.3537 31.3923 62.3467V62.3572H30.7999V62.325C15.3036 61.6031 2.9616 48.8109 2.9616 33.1361C2.9616 17.3282 15.514 4.45205 31.1952 3.93131V3.91511H31.7876V3.91756C31.9191 3.91581 32.0508 3.91494 32.1827 3.91494C39.1954 3.91494 45.6311 6.38523 50.6672 10.5031C50.8595 10.4327 51.0834 10.4685 51.246 10.6153L52.8499 12.064C53.0171 12.215 53.074 12.4426 53.0156 12.6454ZM30.2083 59.988V59.8095C16.3593 58.799 5.43746 47.243 5.43746 33.1361C5.43746 20.3301 14.4376 9.62631 26.4576 7.00498V7.50245C14.7081 10.1151 5.9232 20.5997 5.9232 33.1361C5.9232 46.9746 16.6278 58.313 30.2083 59.3225V59.0007L28.0365 58.6058L23.6928 57.7173V57.4814C13.628 53.9719 6.4065 44.3973 6.4065 33.1361C6.4065 21.7281 13.8175 12.051 24.0877 8.65661V8.55478L25.0682 8.35422C25.5262 8.22296 25.9895 8.10406 26.4576 7.9979V8.4565H28.4324V6.48177H28.4314V6.14547C27.7816 6.23494 27.1392 6.34732 26.5049 6.48177H26.4576V6.49184C14.1586 9.12184 4.936 20.0519 4.936 33.1361C4.936 47.3858 15.8749 59.0805 29.8134 60.2812V60.7505C15.6163 59.5485 4.46843 47.6441 4.46843 33.1361C4.46843 18.36 16.0319 6.28475 30.6032 5.46604V4.94558C15.7448 5.76492 3.9488 18.0729 3.9488 33.1361C3.9488 48.0655 15.5363 60.2885 30.2083 61.302V60.9753H30.2084V59.988H30.2083ZM23.6928 56.6316V56.947C13.9115 53.4591 6.9104 44.1152 6.9104 33.1361C6.9104 22.0098 14.1005 12.5628 24.0877 9.18803V9.81429C24.0874 9.8144 24.0871 9.8145 24.0868 9.8146V10.2331C24.0871 10.233 24.0874 10.2329 24.0877 10.2328V10.8376C16.3557 13.6451 10.498 20.3598 8.90109 28.5949H9.32711C10.9082 20.5921 16.5876 14.0622 24.0877 11.2829V11.8664C24.0874 11.8665 24.0871 11.8666 24.0868 11.8667V12.3396C24.0871 12.3395 24.0874 12.3394 24.0877 12.3393V12.9016C18.1122 15.2944 13.4435 20.2573 11.4487 26.4231H17.5722C17.5722 26.205 17.749 26.0282 17.967 26.0282H21.9158C22.1339 26.0282 22.3107 26.205 22.3107 26.4231H25.4698V27.0154H22.3107C22.3107 27.2335 22.1339 27.4103 21.9158 27.4103H17.967C17.749 27.4103 17.5722 27.2335 17.5722 27.0154H10.722C12.5983 20.4241 17.4293 15.0772 23.6918 12.4979V12.0214C16.6913 14.8392 11.4149 21.0376 9.88409 28.5949H17.5722C17.5722 28.3768 17.749 28.2001 17.967 28.2001H21.9158C22.1339 28.2001 22.3107 28.3768 22.3107 28.5949H25.4698V29.1873H22.3107C22.3107 29.4053 22.1339 29.5821 21.9158 29.5821H17.967C17.749 29.5821 17.5722 29.4053 17.5722 29.1873H8.21702C9.6363 20.5079 15.6567 13.3756 23.6918 10.3766V9.95549C14.9536 13.1572 8.5301 21.1588 7.61497 30.7668H17.5722C17.5722 30.5487 17.749 30.3719 17.967 30.3719H21.9158C22.1339 30.3719 22.3107 30.5487 22.3107 30.7668H25.4698V31.3591H22.3107C22.3107 31.5772 22.1339 31.754 21.9158 31.754H17.967C17.749 31.754 17.5722 31.5772 17.5722 31.3591H7.56571C7.52395 31.946 7.50272 32.5385 7.50272 33.1361C7.50272 43.6345 14.0579 52.6019 23.2984 56.1686V55.7447C14.2807 52.1983 7.8976 43.4126 7.8976 33.1361C7.8976 33.0702 7.89786 33.0044 7.89838 32.9386H17.5722C17.5722 32.7205 17.749 32.5437 17.967 32.5437H21.9158C22.1339 32.5437 22.3107 32.7205 22.3107 32.9386H25.4698V33.5309H22.3107C22.3107 33.749 22.1339 33.9258 21.9158 33.9258H17.967C17.749 33.9258 17.5722 33.749 17.5722 33.5309H9.43421C9.59152 42.7748 15.2617 50.6759 23.2984 54.088V53.6078C15.6826 50.2981 10.274 42.863 9.89345 34.1233H10.4169C10.8002 42.7191 16.1643 50.0195 23.6928 53.2078V53.4725H23.6934V54.4599H23.6928V54.8387C15.1399 51.4903 9.04929 43.232 8.88808 33.5309H8.47C8.6322 43.4667 14.9044 51.9167 23.6928 55.2871V55.6442H23.6934V56.6316H23.6928ZM38.6982 54.0648V53.9329C46.077 51.6236 51.7678 45.4956 53.4562 37.8635L54.2704 36.303C53.0624 44.8042 47.0625 51.7626 39.0928 54.356V54.8196C47.3102 52.2032 53.5016 45.045 54.717 36.2951H55.2683C54.0222 45.4875 47.4147 52.9767 38.6982 55.5107V55.0521H38.6979V54.0648H38.6982ZM54.208 27.4103H54.7718C52.7837 19.5426 46.7933 13.2683 39.0931 10.8801V11.2203H39.093V12.2077H39.0931V12.4669C45.4315 14.5851 50.4723 19.5373 52.7115 25.8192L53.6427 27.0131C51.6492 20.0125 46.3226 14.4161 39.4879 12.0488V11.5823C46.6955 14.0244 52.282 19.9802 54.208 27.4103ZM29.2211 9.6407H25.2723V16.8284H22.0858V22.7753H39.4157V36.2161C39.4157 41.3411 36.7686 45.354 31.0964 45.354C25.4715 45.354 22.7299 42.4048 22.7299 36.6029H16.585C16.585 43.6077 19.8244 48.2568 24.8774 50.2472V56.8289H28.8262V51.2186C29.5607 51.3055 30.3183 51.3492 31.0964 51.3492C31.8104 51.3492 32.5019 51.3101 33.1699 51.2339V56.8289H37.5136V50.0909C42.7086 47.8178 45.6551 42.659 45.6551 36.2161V16.8284H37.9085V9.6407H33.5648V16.8284H29.2211V9.6407ZM35.5392 26.0282H26.6544V35.3051C26.526 35.7122 26.457 36.144 26.457 36.5913C26.457 39.0447 28.5343 41.0337 31.0968 41.0337C33.6593 41.0337 35.7366 39.0447 35.7366 36.5913C35.7366 36.144 35.6676 35.7122 35.5392 35.3051V26.0282Z" fill="url(#paint0_linear_1502_1415)"/>
<path fill-rule="evenodd" clip-rule="evenodd" d="M11.0451 4.8006C11.0451 4.577 10.8638 4.39563 10.6401 4.39563C10.4165 4.39563 10.2352 4.577 10.2352 4.8006C10.2352 5.02421 10.4165 5.20557 10.6401 5.20557C10.8638 5.20557 11.0451 5.02421 11.0451 4.8006ZM1.49565 14.3381C1.71926 14.3381 1.90063 14.5194 1.90063 14.743C1.90063 14.9666 1.71926 15.148 1.49565 15.148C1.27205 15.148 1.09068 14.9666 1.09068 14.743C1.09068 14.5194 1.27205 14.3381 1.49565 14.3381ZM63.9963 15.6068C63.9963 15.3831 63.815 15.2018 63.5914 15.2018C63.3678 15.2018 63.1864 15.3831 63.1864 15.6068C63.1864 15.8304 63.3678 16.0117 63.5914 16.0117C63.815 16.0117 63.9963 15.8304 63.9963 15.6068ZM68 27.9407C68 27.7171 67.8186 27.5357 67.595 27.5357C67.3714 27.5357 67.19 27.7171 67.19 27.9407C67.19 28.1643 67.3714 28.3456 67.595 28.3456C67.8186 28.3456 68 28.1643 68 27.9407ZM19.4588 66.1876C19.6824 66.1876 19.8638 66.3689 19.8638 66.5926C19.8638 66.8162 19.6824 66.9975 19.4588 66.9975C19.2352 66.9975 19.0538 66.8162 19.0538 66.5926C19.0538 66.3689 19.2352 66.1876 19.4588 66.1876ZM33.2267 68.9504C33.2267 68.7268 33.0453 68.5454 32.8217 68.5454C32.5981 68.5454 32.4168 68.7268 32.4168 68.9504C32.4168 69.174 32.5981 69.3554 32.8217 69.3554C33.0453 69.3554 33.2267 69.174 33.2267 68.9504Z" fill="url(#paint1_linear_1502_1415)"/>
<defs>
<linearGradient id="paint0_linear_1502_1415" x1="60.6101" y1="55.7559" x2="-4.84178" y2="42.6945" gradientUnits="userSpaceOnUse">
<stop stop-color="#90C626"/>
<stop offset="1" stop-color="#20934A"/>
</linearGradient>
<linearGradient id="paint1_linear_1502_1415" x1="64.1015" y1="59.7042" x2="-3.78402" y2="45.7494" gradientUnits="userSpaceOnUse">
<stop stop-color="#90C626"/>
<stop offset="1" stop-color="#20934A"/>
</linearGradient>
</defs>
</svg>
