<svg width="275" height="50" viewBox="0 0 275 50" fill="none" xmlns="http://www.w3.org/2000/svg">
<path d="M15.163 49.7594C12.1193 49.7594 9.35231 49.2257 6.86201 48.1585C4.41124 47.1307 2.39529 45.6286 0.814143 43.6522L7.15848 36.0627C9.37208 38.9483 11.7438 40.3911 14.2736 40.3911C16.0129 40.3911 17.3173 39.8772 18.1869 38.8495C19.0961 37.8218 19.5507 36.3197 19.5507 34.3432V10.5668H5.20181V1.49502H31.1721V33.6317C31.1721 39.0076 29.8083 43.0395 27.0809 45.7275C24.3929 48.4154 20.4203 49.7594 15.163 49.7594ZM58.4861 0.664918C62.3995 0.664918 65.8385 1.45549 68.8031 3.03663C71.8073 4.57825 74.1197 6.85114 75.7404 9.85531C77.4006 12.8199 78.2307 16.3973 78.2307 20.5873V43H66.4907V33.8096H50.3037V43H38.7416V20.5873C38.7416 16.3973 39.552 12.8199 41.1726 9.85531C42.8328 6.85114 45.1453 4.57825 48.1099 3.03663C51.1141 1.45549 54.5728 0.664918 58.4861 0.664918ZM66.4907 24.7378V19.5793C66.4907 16.5356 65.7594 14.243 64.2968 12.7014C62.8343 11.1598 60.8776 10.3889 58.4269 10.3889C55.9366 10.3889 53.9601 11.1598 52.4976 12.7014C51.035 14.243 50.3037 16.5356 50.3037 19.5793V24.7378H66.4907ZM102.715 10.5668V33.9282H109.415V43H84.216V33.9282H90.9754V10.5668H84.216V1.49502H109.415V10.5668H102.715ZM164.322 0.664918C169.224 0.664918 173.038 2.12747 175.766 5.05259C178.533 7.93817 179.916 12.1282 179.916 17.6227V43H168.176V17.9784C168.176 15.4881 167.524 13.6105 166.219 12.3456C164.915 11.0412 163.176 10.3889 161.002 10.3889C158.669 10.3889 156.812 11.0807 155.428 12.4642C154.084 13.8082 153.412 15.8439 153.412 18.5714V43H141.672V17.9784C141.672 15.4881 141.059 13.6105 139.834 12.3456C138.648 11.0412 137.008 10.3889 134.913 10.3889C132.66 10.3889 130.861 11.0807 129.517 12.4642C128.173 13.8082 127.501 15.8439 127.501 18.5714V43H115.761V1.49502H127.145V6.11986C128.41 4.34107 130.031 2.9971 132.007 2.08795C134.023 1.13926 136.356 0.664918 139.004 0.664918C141.731 0.664918 144.103 1.15903 146.119 2.14724C148.175 3.13545 149.835 4.57825 151.1 6.47561C152.523 4.57825 154.381 3.13545 156.673 2.14724C158.966 1.15903 161.515 0.664918 164.322 0.664918ZM207.297 0.664918C211.211 0.664918 214.65 1.45549 217.614 3.03663C220.618 4.57825 222.931 6.85114 224.551 9.85531C226.212 12.8199 227.042 16.3973 227.042 20.5873V43H215.302V33.8096H199.115V43H187.553V20.5873C187.553 16.3973 188.363 12.8199 189.984 9.85531C191.644 6.85114 193.956 4.57825 196.921 3.03663C199.925 1.45549 203.384 0.664918 207.297 0.664918ZM215.302 24.7378V19.5793C215.302 16.5356 214.571 14.243 213.108 12.7014C211.645 11.1598 209.689 10.3889 207.238 10.3889C204.748 10.3889 202.771 11.1598 201.309 12.7014C199.846 14.243 199.115 16.5356 199.115 19.5793V24.7378H215.302ZM260.612 43L252.015 30.1335L243.536 43H230.136L245.255 22.0103L230.788 1.49502H244.01L252.311 13.4722L260.494 1.49502H273.182L258.715 21.536L274.131 43H260.612Z" fill="url(#paint0_linear_1502_1724)"/>
<defs>
<linearGradient id="paint0_linear_1502_1724" x1="6" y1="43" x2="266.961" y2="46.1898" gradientUnits="userSpaceOnUse">
<stop stop-color="#C5D82E"/>
<stop offset="1" stop-color="#20934A"/>
</linearGradient>
</defs>
</svg>
