<svg width="287" height="63" viewBox="0 0 287 63" fill="none" xmlns="http://www.w3.org/2000/svg">
<g filter="url(#filter0_d_1502_1724)">
<path d="M21.163 49.7594C18.1193 49.7594 15.3523 49.2257 12.862 48.1585C10.4112 47.1307 8.39529 45.6286 6.81414 43.6522L13.1585 36.0627C15.3721 38.9483 17.7438 40.3911 20.2736 40.3911C22.0129 40.3911 23.3173 39.8772 24.1869 38.8495C25.0961 37.8218 25.5507 36.3197 25.5507 34.3432V10.5668H11.2018V1.49502H37.1721V33.6317C37.1721 39.0076 35.8083 43.0395 33.0809 45.7275C30.3929 48.4154 26.4203 49.7594 21.163 49.7594ZM64.4861 0.664918C68.3995 0.664918 71.8385 1.45549 74.8031 3.03663C77.8073 4.57825 80.1197 6.85114 81.7404 9.85531C83.4006 12.8199 84.2307 16.3973 84.2307 20.5873V43H72.4907V33.8096H56.3037V43H44.7416V20.5873C44.7416 16.3973 45.552 12.8199 47.1726 9.85531C48.8328 6.85114 51.1453 4.57825 54.1099 3.03663C57.1141 1.45549 60.5728 0.664918 64.4861 0.664918ZM72.4907 24.7378V19.5793C72.4907 16.5356 71.7594 14.243 70.2968 12.7014C68.8343 11.1598 66.8776 10.3889 64.4269 10.3889C61.9366 10.3889 59.9601 11.1598 58.4976 12.7014C57.035 14.243 56.3037 16.5356 56.3037 19.5793V24.7378H72.4907ZM108.715 10.5668V33.9282H115.415V43H90.216V33.9282H96.9754V10.5668H90.216V1.49502H115.415V10.5668H108.715ZM170.322 0.664918C175.224 0.664918 179.038 2.12747 181.766 5.05259C184.533 7.93817 185.916 12.1282 185.916 17.6227V43H174.176V17.9784C174.176 15.4881 173.524 13.6105 172.219 12.3456C170.915 11.0412 169.176 10.3889 167.002 10.3889C164.669 10.3889 162.812 11.0807 161.428 12.4642C160.084 13.8082 159.412 15.8439 159.412 18.5714V43H147.672V17.9784C147.672 15.4881 147.059 13.6105 145.834 12.3456C144.648 11.0412 143.008 10.3889 140.913 10.3889C138.66 10.3889 136.861 11.0807 135.517 12.4642C134.173 13.8082 133.501 15.8439 133.501 18.5714V43H121.761V1.49502H133.145V6.11986C134.41 4.34107 136.031 2.9971 138.007 2.08795C140.023 1.13926 142.356 0.664918 145.004 0.664918C147.731 0.664918 150.103 1.15903 152.119 2.14724C154.175 3.13545 155.835 4.57825 157.1 6.47561C158.523 4.57825 160.381 3.13545 162.673 2.14724C164.966 1.15903 167.515 0.664918 170.322 0.664918ZM213.297 0.664918C217.211 0.664918 220.65 1.45549 223.614 3.03663C226.618 4.57825 228.931 6.85114 230.551 9.85531C232.212 12.8199 233.042 16.3973 233.042 20.5873V43H221.302V33.8096H205.115V43H193.553V20.5873C193.553 16.3973 194.363 12.8199 195.984 9.85531C197.644 6.85114 199.956 4.57825 202.921 3.03663C205.925 1.45549 209.384 0.664918 213.297 0.664918ZM221.302 24.7378V19.5793C221.302 16.5356 220.571 14.243 219.108 12.7014C217.645 11.1598 215.689 10.3889 213.238 10.3889C210.748 10.3889 208.771 11.1598 207.309 12.7014C205.846 14.243 205.115 16.5356 205.115 19.5793V24.7378H221.302ZM266.612 43L258.015 30.1335L249.536 43H236.136L251.255 22.0103L236.788 1.49502H250.01L258.311 13.4722L266.494 1.49502H279.182L264.715 21.536L280.131 43H266.612Z" fill="url(#paint0_linear_1502_1724)"/>
</g>
<defs>
<filter id="filter0_d_1502_1724" x="0.226056" y="0.665039" width="286.493" height="62.2704" filterUnits="userSpaceOnUse" color-interpolation-filters="sRGB">
<feFlood flood-opacity="0" result="BackgroundImageFix"/>
<feColorMatrix in="SourceAlpha" type="matrix" values="0 0 0 0 0 0 0 0 0 0 0 0 0 0 0 0 0 0 127 0" result="hardAlpha"/>
<feOffset dy="6.58809"/>
<feGaussianBlur stdDeviation="3.29405"/>
<feComposite in2="hardAlpha" operator="out"/>
<feColorMatrix type="matrix" values="0 0 0 0 0 0 0 0 0 0 0 0 0 0 0 0 0 0 0.25 0"/>
<feBlend mode="normal" in2="BackgroundImageFix" result="effect1_dropShadow_1502_1724"/>
<feBlend mode="normal" in="SourceGraphic" in2="effect1_dropShadow_1502_1724" result="shape"/>
</filter>
<linearGradient id="paint0_linear_1502_1724" x1="12" y1="43" x2="272.961" y2="46.1898" gradientUnits="userSpaceOnUse">
<stop stop-color="#C5D82E"/>
<stop offset="1" stop-color="#20934A"/>
</linearGradient>
</defs>
</svg>
