<svg width="287" height="63" viewBox="0 0 287 63" fill="none" xmlns="http://www.w3.org/2000/svg">
<g filter="url(#filter0_d_1502_1724)">
<path d="M21.163 49.3587C18.1193 49.3587 15.3523 48.8251 12.862 47.7578C10.4112 46.7301 8.39529 45.228 6.81414 43.2516L13.1585 35.6621C15.3721 38.5477 17.7438 39.9905 20.2736 39.9905C22.0129 39.9905 23.3173 39.4766 24.1869 38.4489C25.0961 37.4211 25.5507 35.919 25.5507 33.9426V10.1662H11.2018V1.09438H37.1721V33.2311C37.1721 38.607 35.8083 42.6389 33.0809 45.3268C30.3929 48.0148 26.4203 49.3587 21.163 49.3587ZM64.4861 0.264284C68.3995 0.264284 71.8385 1.05486 74.8031 2.636C77.8073 4.17761 80.1197 6.4505 81.7404 9.45467C83.4006 12.4193 84.2307 15.9966 84.2307 20.1867V42.5994H72.4907V33.409H56.3037V42.5994H44.7416V20.1867C44.7416 15.9966 45.552 12.4193 47.1726 9.45467C48.8328 6.4505 51.1453 4.17761 54.1099 2.636C57.1141 1.05486 60.5728 0.264284 64.4861 0.264284ZM72.4907 24.3372V19.1787C72.4907 16.135 71.7594 13.8423 70.2968 12.3007C68.8343 10.7591 66.8776 9.98831 64.4269 9.98831C61.9366 9.98831 59.9601 10.7591 58.4976 12.3007C57.035 13.8423 56.3037 16.135 56.3037 19.1787V24.3372H72.4907ZM108.715 10.1662V33.5276H115.415V42.5994H90.216V33.5276H96.9754V10.1662H90.216V1.09438H115.415V10.1662H108.715ZM170.322 0.264284C175.224 0.264284 179.038 1.72684 181.766 4.65195C184.533 7.53754 185.916 11.7276 185.916 17.222V42.5994H174.176V17.5778C174.176 15.0875 173.524 13.2099 172.219 11.945C170.915 10.6405 169.176 9.98831 167.002 9.98831C164.669 9.98831 162.812 10.6801 161.428 12.0636C160.084 13.4075 159.412 15.4432 159.412 18.1707V42.5994H147.672V17.5778C147.672 15.0875 147.059 13.2099 145.834 11.945C144.648 10.6405 143.008 9.98831 140.913 9.98831C138.66 9.98831 136.861 10.6801 135.517 12.0636C134.173 13.4075 133.501 15.4432 133.501 18.1707V42.5994H121.761V1.09438H133.145V5.71922C134.41 3.94044 136.031 2.59647 138.007 1.68731C140.023 0.738626 142.356 0.264284 145.004 0.264284C147.731 0.264284 150.103 0.758391 152.119 1.74661C154.175 2.73482 155.835 4.17761 157.1 6.07498C158.523 4.17761 160.381 2.73482 162.673 1.74661C164.966 0.758391 167.515 0.264284 170.322 0.264284ZM213.297 0.264284C217.211 0.264284 220.65 1.05486 223.614 2.636C226.618 4.17761 228.931 6.4505 230.551 9.45467C232.212 12.4193 233.042 15.9966 233.042 20.1867V42.5994H221.302V33.409H205.115V42.5994H193.553V20.1867C193.553 15.9966 194.363 12.4193 195.984 9.45467C197.644 6.4505 199.956 4.17761 202.921 2.636C205.925 1.05486 209.384 0.264284 213.297 0.264284ZM221.302 24.3372V19.1787C221.302 16.135 220.571 13.8423 219.108 12.3007C217.645 10.7591 215.689 9.98831 213.238 9.98831C210.748 9.98831 208.771 10.7591 207.309 12.3007C205.846 13.8423 205.115 16.135 205.115 19.1787V24.3372H221.302ZM266.612 42.5994L258.015 29.7328L249.536 42.5994H236.136L251.255 21.6097L236.788 1.09438H250.01L258.311 13.0715L266.494 1.09438H279.182L264.715 21.1354L280.131 42.5994H266.612Z" fill="url(#paint0_linear_1502_1724)"/>
</g>
<defs>
<filter id="filter0_d_1502_1724" x="0.226056" y="0.264404" width="286.493" height="62.2704" filterUnits="userSpaceOnUse" color-interpolation-filters="sRGB">
<feFlood flood-opacity="0" result="BackgroundImageFix"/>
<feColorMatrix in="SourceAlpha" type="matrix" values="0 0 0 0 0 0 0 0 0 0 0 0 0 0 0 0 0 0 127 0" result="hardAlpha"/>
<feOffset dy="6.58809"/>
<feGaussianBlur stdDeviation="3.29405"/>
<feComposite in2="hardAlpha" operator="out"/>
<feColorMatrix type="matrix" values="0 0 0 0 0 0 0 0 0 0 0 0 0 0 0 0 0 0 0.25 0"/>
<feBlend mode="normal" in2="BackgroundImageFix" result="effect1_dropShadow_1502_1724"/>
<feBlend mode="normal" in="SourceGraphic" in2="effect1_dropShadow_1502_1724" result="shape"/>
</filter>
<linearGradient id="paint0_linear_1502_1724" x1="167.097" y1="46.2465" x2="304.198" y2="56.4064" gradientUnits="userSpaceOnUse">
<stop stop-color="#C5D82E"/>
<stop offset="1" stop-color="#20934A"/>
</linearGradient>
</defs>
</svg>
