<svg width="200" height="200" viewBox="0 0 961 961" fill="none" xmlns="http://www.w3.org/2000/svg">
<path fill-rule="evenodd" clip-rule="evenodd" d="M480.191 960.574C745.304 960.574 960.221 745.657 960.221 480.544C960.221 215.432 745.304 0.515076 480.191 0.515076C215.079 0.515076 0.162109 215.432 0.162109 480.544C0.162109 745.657 215.079 960.574 480.191 960.574ZM480.191 929.057C727.898 929.057 928.704 728.251 928.704 480.544C928.704 232.838 727.898 32.0322 480.191 32.0322C232.485 32.0322 31.6792 232.838 31.6792 480.544C31.6792 728.251 232.485 929.057 480.191 929.057Z" fill="url(#paint0_radial_1_83)"/>
<path fill-rule="evenodd" clip-rule="evenodd" d="M480.192 850.852C682.431 850.852 846.804 688.73 850.438 487.359H839.077C839.119 485.093 839.141 482.821 839.141 480.544C839.141 478.267 839.119 475.995 839.077 473.728H814.151V466.913H827.519C827.343 462.346 827.079 457.802 826.728 453.282H838.121C837.778 448.714 837.349 444.17 836.837 439.651H848.268C827.915 254.378 670.886 110.236 480.192 110.236C275.677 110.236 109.884 276.029 109.884 480.544C109.884 685.059 275.677 850.852 480.192 850.852ZM832.47 487.359C832.513 485.093 832.534 482.821 832.534 480.544H814.151V487.359H832.47ZM529.768 824.625C513.576 826.937 497.024 828.133 480.192 828.133C288.224 828.133 132.602 672.512 132.602 480.544C132.602 448.528 136.931 417.524 145.034 388.084C143.289 387.002 142.444 384.829 143.119 382.794L152.208 355.363C152.897 353.284 154.942 352.036 157.035 352.276C208.076 223.792 333.526 132.954 480.192 132.954C655.975 132.954 801.282 263.441 824.534 432.836H840.581C817.219 254.63 664.772 117.052 480.192 117.052C279.441 117.052 116.7 279.793 116.7 480.544C116.7 681.295 279.441 844.036 480.192 844.036C676.379 844.036 836.265 688.611 843.433 494.175H827.519C821.505 650.122 712.751 779.721 567.028 817.199L567.299 818.608C567.508 819.692 566.799 820.741 565.714 820.95L532.338 827.386C531.253 827.595 530.204 826.885 529.995 825.8L529.768 824.625ZM528.556 818.335C512.757 820.577 496.61 821.736 480.192 821.736C291.757 821.736 139 668.979 139 480.544C139 449.208 143.224 418.859 151.134 390.035C153.087 390.09 154.928 388.871 155.574 386.921L164.663 359.49C165.294 357.584 164.594 355.558 163.069 354.419C213.227 228.415 336.309 139.352 480.192 139.352C652.436 139.352 794.87 266.986 818.075 432.836H801.585C778.616 276.76 644.658 156.791 482.464 155.68V161.66C641.35 162.768 772.622 280.074 795.539 432.836H780.073V428.292C780.073 426.322 778.819 424.644 777.066 424.015C753.651 300.296 654.813 203.253 530.172 182.505V176.84C658.578 197.812 760.275 298.253 783.119 426.02H788.98C764.708 287.609 649.646 180.449 507.454 168.201V171.576H507.45V194.298H530.172V188.145C651.647 208.76 747.98 303.234 771.352 423.748H765.442C744.187 316.392 663.838 230.291 559.706 200.755V203.382H559.704V214.743H559.706V219.424C650.969 247.179 721.968 321.468 745.071 414.661H751.815C728.79 319.392 656.946 243.174 564.248 213.973V209.212C662.393 239.582 737.783 321.737 758.49 423.748H755.083C752.574 423.748 750.539 425.783 750.539 428.292V432.836H739.18L698.287 387.399H675.569V380.584H652.851V403.302H675.569V394.214H698.287L739.18 439.651H750.539V446.466H736.908L711.918 421.476H675.569V414.661H652.851V437.379H675.569V428.292H711.918L736.908 453.282H750.539V460.097H675.569V453.282H652.851V476H675.569V466.913H750.539V473.728H736.908L711.918 498.719H675.569V491.903H652.851V514.621H675.569V505.534H711.918L736.908 480.544H750.539V487.359H739.18L711.918 532.796H675.569V523.709H652.851V546.427H675.569V539.611H711.918L739.18 494.175H750.539V503.262C750.539 505.771 752.574 507.806 755.083 507.806H762.879C751.724 624.925 669.434 721.301 559.702 753.241V748.505C664.058 717.587 742.933 627.369 757.284 516.893H750.678C736.244 625.333 658.129 713.646 555.162 743.002V746.348H555.158V757.709H555.162V761.582C670.947 730.775 758.334 630.316 769.725 507.806H775.548C761.887 657.712 636.679 775.382 483.622 777.117L477.92 778.153V782.689C478.409 782.692 478.898 782.695 479.387 782.696L479.723 782.697C479.879 782.697 480.036 782.697 480.192 782.697C642.498 782.697 774.915 654.723 782.043 494.175H785.225C786.01 495.533 787.479 496.447 789.16 496.447H798.694C790.444 664.428 652.216 798.242 482.468 799.428V794.048C647.71 792.873 782.563 663.861 793.048 500.99H787.265C776.742 661.419 643.283 788.286 480.192 788.286C479.434 788.286 478.677 788.283 477.92 788.278V794.048C477.921 794.048 477.922 794.048 477.924 794.048V799.428H477.92V805.407C478.124 805.409 478.329 805.41 478.533 805.411C478.83 805.413 479.128 805.414 479.425 805.414C479.681 805.415 479.936 805.415 480.192 805.415C654.281 805.415 796.388 668.482 804.681 496.447H809.607C811.289 496.447 812.757 495.533 813.543 494.175H821.117C815.112 647.003 708.584 774.007 565.814 810.904L565.572 809.649C565.363 808.565 564.314 807.855 563.23 808.064L529.853 814.5C528.768 814.709 528.059 815.758 528.268 816.842L528.556 818.335ZM784.617 487.359V480.544H780.073V487.359H784.617ZM784.617 473.728H782.27C782.219 471.45 782.143 469.178 782.043 466.913H784.617V473.728ZM785.225 460.097H781.664C781.512 457.819 781.334 455.547 781.132 453.282H820.966V460.097H813.543C812.757 458.739 811.289 457.826 809.607 457.826H789.16C787.479 457.826 786.01 458.739 785.225 460.097ZM830.908 446.466C830.689 444.188 830.449 441.916 830.187 439.651H780.073V446.466H830.908ZM838.568 500.99C827.97 689.719 671.572 839.493 480.192 839.493C281.95 839.493 121.243 678.786 121.243 480.544C121.243 282.302 281.95 121.595 480.192 121.595C659.897 121.595 808.759 253.654 835.026 426.02H828.341C802.134 257.317 656.241 128.202 480.192 128.202C285.599 128.202 127.85 285.951 127.85 480.544C127.85 675.137 285.599 832.886 480.192 832.886C667.922 832.886 821.361 686.068 831.951 500.99H838.568ZM720.368 245.243C767.746 293.596 800.638 356.196 812.024 426.02H805.752C794.446 358.015 762.349 297.038 716.212 249.845L715.411 250.732C714.671 251.552 713.406 251.616 712.586 250.876L687.361 228.092C686.541 227.352 686.477 226.087 687.217 225.267L688.144 224.241C631.386 178.135 559.016 150.502 480.192 150.502C478.674 150.502 477.159 150.512 475.646 150.532V155.704C475.647 155.704 475.648 155.704 475.648 155.704V161.352L475.975 161.679C475.866 161.681 475.756 161.682 475.646 161.684V167.064C477.159 167.043 478.674 167.032 480.192 167.032L480.192 172.802C478.674 172.802 477.159 172.813 475.646 172.835V178.424C477.159 178.402 478.674 178.391 480.192 178.391L480.192 183.952C478.674 183.952 477.159 183.963 475.646 183.986V185.208H478.194C479.299 185.208 480.194 186.103 480.194 187.208V237.741C480.194 238.845 479.299 239.741 478.194 239.741H466.289C465.184 239.741 464.289 238.845 464.289 237.741V187.208C464.289 186.103 465.184 185.208 466.289 185.208H468.83V184.166C467.693 184.208 466.558 184.258 465.425 184.313V178.745C466.558 178.691 467.693 178.643 468.83 178.601V173.008C467.693 173.049 466.558 173.096 465.425 173.15V167.373C466.558 167.321 467.693 167.274 468.83 167.234V161.851C468.703 161.855 468.576 161.86 468.449 161.864L468.83 161.356V150.694C291.814 156.682 150.15 302.069 150.15 480.544C150.15 655.185 285.794 798.145 457.474 809.817V809.959H459.675C461.208 810.053 462.744 810.136 464.282 810.209L464.282 775.881H461.749C460.644 775.881 459.749 774.986 459.749 773.881L459.749 723.348C459.749 722.244 460.644 721.348 461.749 721.348H473.654C474.759 721.348 475.654 722.244 475.654 723.348V773.881C475.654 774.986 474.759 775.881 473.654 775.881H471.099V776.999C471.101 776.999 471.103 776.999 471.105 776.999V782.563C471.103 782.563 471.101 782.563 471.099 782.563V788.154C471.101 788.154 471.103 788.154 471.105 788.154V793.927C471.103 793.927 471.101 793.927 471.099 793.927V799.309C471.101 799.309 471.103 799.309 471.105 799.309V805.291C471.103 805.291 471.101 805.29 471.099 805.29V810.463C474.12 810.545 477.151 810.586 480.192 810.586C655.603 810.586 799.052 673.744 809.611 500.99H815.811C805.243 677.164 659.021 816.774 480.192 816.774C477.151 816.774 474.12 816.734 471.099 816.654V816.774H464.282V816.405C285.974 808.098 143.962 660.906 143.962 480.544C143.962 298.651 288.395 150.493 468.83 144.502V144.315H475.646V144.344C477.159 144.324 478.674 144.313 480.192 144.313C560.612 144.313 634.437 172.547 692.297 219.643L693.332 218.497C694.073 217.677 695.337 217.613 696.157 218.353L721.382 241.137C722.202 241.877 722.266 243.142 721.526 243.962L720.368 245.243ZM457.474 789.513V787.46C298.121 775.833 172.45 642.864 172.45 480.544C172.45 333.194 276.01 210.031 414.316 179.869V185.593C279.121 215.655 178.039 336.295 178.039 480.544C178.039 639.776 301.211 770.24 457.474 781.856V778.153L432.484 773.61L382.503 763.386V760.672C266.694 720.29 183.6 610.121 183.6 480.544C183.6 349.279 268.874 237.93 387.047 198.873V197.701L398.329 195.394C403.6 193.883 408.93 192.515 414.316 191.294V196.571H437.038V173.849H437.027V169.979C429.551 171.008 422.159 172.302 414.861 173.849H414.316V173.964C272.798 204.227 166.68 329.993 166.68 480.544C166.68 644.507 292.547 779.072 452.93 792.887V798.287C289.572 784.457 161.3 647.48 161.3 480.544C161.3 310.524 294.354 171.582 462.017 162.161V156.172C291.05 165.6 155.321 307.221 155.321 480.544C155.321 652.328 288.652 792.971 457.474 804.633V800.874H457.475V789.513H457.474ZM382.503 750.894V754.522C269.956 714.389 189.398 606.874 189.398 480.544C189.398 352.52 272.13 243.819 387.047 204.988V212.194C387.044 212.195 387.041 212.196 387.038 212.197V217.013C387.041 217.012 387.044 217.011 387.047 217.01V223.968C298.08 256.273 230.679 333.534 212.304 428.292H217.206C235.399 336.208 300.748 261.072 387.047 229.093V235.806C387.044 235.808 387.041 235.809 387.038 235.81V241.251C387.041 241.25 387.044 241.249 387.047 241.247V247.718C318.291 275.25 264.571 332.355 241.617 403.302H312.077C312.077 400.792 314.111 398.758 316.62 398.758H362.057C364.566 398.758 366.601 400.792 366.601 403.302H402.95V410.117H366.601C366.601 412.627 364.566 414.661 362.057 414.661H316.62C314.111 414.661 312.077 412.627 312.077 410.117H233.256C254.845 334.274 310.433 272.75 382.493 243.072V237.59C301.942 270.012 241.229 341.333 223.615 428.292H312.077C312.077 425.782 314.111 423.748 316.62 423.748H362.057C364.566 423.748 366.601 425.782 366.601 428.292H402.95V435.107H366.601C366.601 437.617 364.566 439.651 362.057 439.651H316.62C314.111 439.651 312.077 437.617 312.077 435.107H204.433C220.763 335.239 290.037 253.171 382.493 218.664V213.818C281.947 250.658 208.035 342.729 197.505 453.282H312.077C312.077 450.773 314.111 448.738 316.62 448.738H362.057C364.566 448.738 366.601 450.773 366.601 453.282H402.95V460.097H366.601C366.601 462.607 364.566 464.641 362.057 464.641H316.62C314.111 464.641 312.077 462.607 312.077 460.097H196.938C196.458 466.85 196.214 473.669 196.214 480.544C196.214 601.344 271.64 704.527 377.967 745.567V740.689C274.204 699.883 200.757 598.791 200.757 480.544C200.757 479.786 200.76 479.029 200.766 478.272H312.077C312.077 475.763 314.111 473.728 316.62 473.728H362.057C364.566 473.728 366.601 475.763 366.601 478.272H402.95V485.088H366.601C366.601 487.597 364.566 489.631 362.057 489.631H316.62C314.111 489.631 312.077 487.597 312.077 485.088H218.438C220.248 591.452 285.492 682.365 377.967 721.626V716.1C290.335 678.018 228.101 592.466 223.722 491.903H229.745C234.156 590.811 295.877 674.812 382.503 711.498V714.543H382.511V725.904H382.503V730.264C284.09 691.736 214.009 596.713 212.154 485.088H207.344C209.21 599.412 281.381 696.642 382.503 735.423V739.533H382.511V750.894H382.503ZM555.162 721.359V719.842C640.065 693.269 705.546 622.758 724.974 534.939L734.342 516.985C720.442 614.803 651.405 694.868 559.702 724.71V730.044C654.255 699.938 725.496 617.573 739.481 516.893H745.824C731.486 622.664 655.458 708.839 555.162 737.996V732.72H555.158V721.359H555.162ZM733.625 414.661H740.112C717.236 324.132 648.307 251.937 559.706 224.457V228.372H559.704V239.733H559.706V242.716C632.638 267.089 690.64 324.071 716.405 396.354L727.12 410.09C704.181 329.539 642.891 265.144 564.248 237.905V232.538C647.181 260.637 711.462 329.167 733.625 414.661ZM446.115 210.196H400.678V292.901H364.013V361.328H563.418V515.985C563.418 574.955 532.96 621.129 467.692 621.129C402.969 621.129 371.424 587.193 371.424 520.435H300.718C300.718 601.035 337.992 654.53 396.134 677.431V753.163H441.571V688.609C450.022 689.609 458.74 690.112 467.692 690.112C475.908 690.112 483.865 689.663 491.551 688.785V753.163H541.531V675.633C601.308 649.478 635.211 590.119 635.211 515.985V292.901H546.075V210.196H496.095V292.901H446.115V210.196ZM518.813 398.758H416.581V505.502C415.103 510.186 414.309 515.155 414.309 520.301C414.309 548.532 438.212 571.417 467.697 571.417C497.182 571.417 521.085 548.532 521.085 520.301C521.085 515.155 520.291 510.186 518.813 505.502V398.758Z" fill="url(#paint1_radial_1_83)"/>
<path fill-rule="evenodd" clip-rule="evenodd" d="M236.973 154.505C236.973 151.932 234.886 149.845 232.313 149.845C229.74 149.845 227.653 151.932 227.653 154.505C227.653 157.078 229.74 159.164 232.313 159.164C234.886 159.164 236.973 157.078 236.973 154.505ZM127.093 264.246C129.665 264.246 131.752 266.333 131.752 268.906C131.752 271.479 129.665 273.566 127.093 273.566C124.52 273.566 122.433 271.479 122.433 268.906C122.433 266.333 124.52 264.246 127.093 264.246ZM846.252 278.845C846.252 276.272 844.165 274.185 841.593 274.185C839.02 274.185 836.933 276.272 836.933 278.845C836.933 281.418 839.02 283.505 841.593 283.505C844.165 283.505 846.252 281.418 846.252 278.845ZM892.32 420.764C892.32 418.191 890.233 416.104 887.66 416.104C885.087 416.104 883 418.191 883 420.764C883 423.337 885.087 425.424 887.66 425.424C890.233 425.424 892.32 423.337 892.32 420.764ZM333.785 860.848C336.358 860.848 338.445 862.935 338.445 865.508C338.445 868.081 336.358 870.168 333.785 870.168C331.212 870.168 329.125 868.081 329.125 865.508C329.125 862.935 331.212 860.848 333.785 860.848ZM492.202 892.639C492.202 890.066 490.116 887.979 487.543 887.979C484.97 887.979 482.883 890.066 482.883 892.639C482.883 895.211 484.97 897.298 487.543 897.298C490.116 897.298 492.202 895.211 492.202 892.639Z" fill="url(#paint2_radial_1_83)"/>
<path d="M469.965 883.573L467.061 883.471C466.712 883.459 466.528 883.624 466.516 883.972L465.731 906.414L456.3 906.086L457.189 880.679C457.237 879.306 457.778 878.147 458.798 877.211C459.825 876.255 461.692 875.827 464.411 875.922L470.225 876.124L469.965 883.573Z" fill="url(#paint3_radial_1_83)"/>
<path d="M360.309 858.32L351.904 887.568L360.974 890.163L364.737 877.07L365.434 891.44L374.116 893.923L382.522 864.674L373.451 862.079L369.694 875.152L368.991 860.804L360.309 858.32Z" fill="url(#paint4_radial_1_83)"/>
<path fill-rule="evenodd" clip-rule="evenodd" d="M303.397 835.032C302.549 834.857 301.561 834.979 300.435 835.398C298.202 836.229 296.393 838.127 295.014 841.076L289.761 852.317C288.382 855.267 288.089 857.87 288.886 860.111C289.288 861.241 289.828 862.074 290.509 862.609L306.16 869.891L319.048 842.315L303.397 835.032ZM304.856 842.298C304.998 841.994 305.216 841.915 305.521 842.056L308.179 843.294L299.924 860.955L297.267 859.718C296.962 859.576 296.883 859.358 297.025 859.055L304.856 842.298Z" fill="url(#paint5_radial_1_83)"/>
<path d="M280.865 857.891L266.135 849.406L268.876 844.669L275.434 848.446L278.624 842.934L272.066 839.156L274.766 834.49L281.324 838.268L285.199 831.57L278.641 827.793L281.383 823.055L296.112 831.54L280.865 857.891Z" fill="url(#paint6_radial_1_83)"/>
<path d="M249.539 839.256C247.264 837.781 245.975 836.359 245.688 834.991C245.396 833.645 245.637 832.383 246.403 831.207L249.922 825.799L257.837 830.927L254.832 835.544C254.642 835.837 254.686 836.069 254.969 836.252L257.008 837.573C257.29 837.756 257.521 837.702 257.711 837.409L267.804 821.903C267.978 821.634 267.927 821.413 267.645 821.23L265.605 819.908C265.324 819.726 265.1 819.769 264.925 820.038L261.895 824.694L253.98 819.566L257.525 814.118C258.275 812.965 259.326 812.244 260.677 811.962C262.047 811.667 263.872 812.263 266.149 813.737L273.057 818.214C275.345 819.696 276.633 821.118 276.907 822.478C277.211 823.833 276.617 825.649 275.139 827.921L266.204 841.649C264.711 843.942 263.282 845.234 261.919 845.508C260.561 845.81 258.735 845.215 256.448 843.733L249.539 839.256Z" fill="url(#paint7_radial_1_83)"/>
<path d="M239.734 833.059L225.974 823.084L229.197 818.658L235.323 823.099L239.073 817.949L232.947 813.508L236.121 809.149L242.247 813.591L246.803 807.334L240.677 802.893L243.899 798.467L257.659 808.443L239.734 833.059Z" fill="url(#paint8_radial_1_83)"/>
<path d="M223.793 782.388L204.601 806.034L211.935 811.959L220.526 801.374L215.541 814.873L222.56 820.544L241.751 796.897L234.418 790.972L225.84 801.541L230.812 788.059L223.793 782.388Z" fill="url(#paint9_radial_1_83)"/>
<path d="M200.681 803.659L184.389 787.962L188.197 784.027L192.949 788.606L210.325 770.653L217.113 777.193L199.737 795.146L204.489 799.724L200.681 803.659Z" fill="url(#paint10_radial_1_83)"/>
<path fill-rule="evenodd" clip-rule="evenodd" d="M170.934 774.355C169.083 772.375 168.179 770.683 168.232 769.287C168.285 767.9 169.317 766.276 171.311 764.421L171.958 763.819C173.702 762.196 175.086 761.311 176.114 761.159C177.114 761.015 178.536 761.654 180.382 763.078C179.093 761.136 178.562 759.667 178.786 758.674C179.01 757.66 179.505 756.797 180.267 756.087L184.968 751.714C186.552 750.24 187.603 749.038 188.106 748.113L194.541 754.999C193.958 755.999 192.838 757.266 191.183 758.805L186.453 763.207C186.297 763.352 186.262 763.534 186.337 763.755L188.459 766.024L197.224 757.869L203.659 764.755L181.356 785.506L170.934 774.355ZM176.97 772.03C176.715 772.268 176.701 772.504 176.93 772.749L178.93 774.89L184.715 769.509L182.715 767.368C182.485 767.123 182.247 767.12 182.007 767.344L176.97 772.03Z" fill="url(#paint11_radial_1_83)"/>
<path fill-rule="evenodd" clip-rule="evenodd" d="M159.017 761.309L186.932 747.166L181.29 740.457L174.901 744.082L171.316 739.819L175.986 734.15L170.361 727.461L151.555 752.436L159.017 761.309ZM170.112 746.833L161.543 751.634L167.777 744.058L170.112 746.833Z" fill="url(#paint12_radial_1_83)"/>
<path d="M145.17 744.844L139.36 737.424L157.505 723.28L152.843 717.326L158.729 712.738L169.2 726.111L145.17 744.844Z" fill="url(#paint13_radial_1_83)"/>
<path d="M132.554 728.341L127.142 720.628L152.122 703.176L157.534 710.888L132.554 728.341Z" fill="url(#paint14_radial_1_83)"/>
<path d="M124.876 717.479L131.24 713.512L126.668 706.211L150.995 701.767L139.837 683.948L133.502 687.898L137.638 694.502L113.623 699.509L124.876 717.479Z" fill="url(#paint15_radial_1_83)"/>
<path d="M111.683 696.844L103.438 682.001L108.233 679.35L111.904 685.958L117.483 682.871L113.813 676.263L118.536 673.651L122.206 680.259L128.985 676.51L125.315 669.902L130.109 667.25L138.355 682.092L111.683 696.844Z" fill="url(#paint16_radial_1_83)"/>
<path fill-rule="evenodd" clip-rule="evenodd" d="M121.183 649.076C120.623 648.417 119.771 647.907 118.625 647.545C116.352 646.829 113.755 647.212 110.849 648.689L99.7736 654.321C96.8661 655.799 95.03 657.668 94.2742 659.925C93.894 661.062 93.8062 662.051 94.0115 662.89L101.852 678.243L129.024 664.429L121.183 649.076ZM117.85 655.698C118.149 655.546 118.371 655.617 118.523 655.917L119.855 658.523L102.453 667.371L101.121 664.763C100.969 664.464 101.041 664.244 101.34 664.092L117.85 655.698Z" fill="url(#paint17_radial_1_83)"/>
<path fill-rule="evenodd" clip-rule="evenodd" d="M107.523 616.282C107.035 615.568 106.241 614.973 105.139 614.494C102.954 613.544 100.331 613.654 97.2858 614.821L85.6808 619.266C82.6352 620.432 80.6135 622.1 79.6255 624.265C79.1279 625.357 78.9369 626.331 79.0535 627.187L85.2424 643.274L113.711 632.369L107.523 616.282ZM103.515 622.521C103.829 622.4 104.04 622.495 104.161 622.808L105.212 625.54L86.979 632.523L85.9273 629.792C85.8072 629.478 85.9022 629.267 86.2151 629.147L103.515 622.521Z" fill="url(#paint18_radial_1_83)"/>
<path d="M76.1782 618.364L73.2617 609.409L102.264 600.007L105.181 608.961L76.1782 618.364Z" fill="url(#paint19_radial_1_83)"/>
<path d="M67.6386 590.6C66.9357 587.985 66.933 586.068 67.6368 584.86C68.337 583.66 70.0109 582.709 72.6449 582.005L77.186 580.791L79.6282 589.887L74.1341 591.355C73.8033 591.444 73.6733 591.648 73.7611 591.973L74.3905 594.316C74.4775 594.64 74.6917 594.753 75.0226 594.664L92.9285 589.877C93.2324 589.796 93.349 589.595 93.262 589.271L92.6326 586.926C92.5457 586.603 92.344 586.487 92.04 586.569L86.2412 588.119L86.6823 589.763L83.3865 590.644L80.5023 579.905L95.2766 575.955L95.9831 578.584L93.4485 580.216C95.2954 580.013 96.6743 581.479 97.6004 584.607L99.2268 590.664C99.9324 593.292 99.9432 595.207 99.2483 596.398C98.5526 597.611 96.8859 598.566 94.2644 599.267L78.4187 603.503C75.7847 604.207 73.8562 604.214 72.6459 603.511C71.4337 602.83 70.4762 601.168 69.7706 598.54L67.6386 590.6Z" fill="url(#paint20_radial_1_83)"/>
<path d="M65.2502 580.081L63.128 570.907L92.8416 564.062L94.9646 573.236L65.2502 580.081Z" fill="url(#paint21_radial_1_83)"/>
<path d="M62.1759 567.395L58.2427 545.141L63.6417 544.192L64.7894 550.682L89.4221 546.348L91.061 555.62L66.4283 559.954L67.5749 566.445L62.1759 567.395Z" fill="url(#paint22_radial_1_83)"/>
<path fill-rule="evenodd" clip-rule="evenodd" d="M57.0853 537.455L88.2172 540.764L87.1475 532.071L79.8101 531.64L79.1306 526.116L86.1416 523.899L85.0756 515.233L55.6705 525.959L57.0853 537.455ZM74.2919 531.345L64.4854 530.714L73.849 527.748L74.2919 531.345Z" fill="url(#paint23_radial_1_83)"/>
<path d="M54.7076 515.839L54.0486 506.446L77.0192 504.844L76.4911 497.307L83.9414 496.787L85.1285 513.717L54.7076 515.839Z" fill="url(#paint24_radial_1_83)"/>
<path d="M54.0298 467.875C54.1248 465.169 54.6834 463.335 55.7108 462.385C56.7168 461.441 57.9253 460.998 59.3293 461.047L65.7881 461.271L65.4591 470.682L59.9453 470.49C59.5965 470.478 59.419 470.636 59.4073 470.971L59.3222 473.396C59.3105 473.732 59.4763 473.901 59.826 473.913L78.3443 474.558C78.6662 474.57 78.8293 474.411 78.841 474.076L78.9262 471.651C78.9378 471.315 78.7854 471.146 78.4645 471.136L72.9031 470.942L73.2331 461.531L79.7385 461.758C81.1147 461.805 82.2766 462.332 83.2144 463.343C84.1737 464.362 84.6014 466.231 84.5072 468.937L84.2194 477.152C84.1244 479.871 83.5667 481.705 82.5393 482.641C81.5325 483.599 79.6658 484.025 76.9528 483.931L60.5585 483.36C57.8178 483.264 55.9727 482.708 55.0349 481.683C54.0765 480.678 53.647 478.809 53.743 476.09L54.0298 467.875Z" fill="url(#paint25_radial_1_83)"/>
<path d="M56.0569 434.331L79.4389 436.372C82.142 436.608 83.9432 437.252 84.8272 438.312C85.7319 439.379 86.0609 441.267 85.8242 443.965L85.1061 452.153C84.8685 454.864 84.2158 456.666 83.1399 457.547C82.0847 458.451 80.1983 458.78 77.4943 458.544L54.1131 456.502L54.9353 447.123L79.3134 449.251C79.6622 449.282 79.8478 449.127 79.8783 448.779L80.0881 446.381C80.1177 446.048 79.9616 445.87 79.6129 445.839L55.2347 443.711L56.0569 434.331Z" fill="url(#paint26_radial_1_83)"/>
<path fill-rule="evenodd" clip-rule="evenodd" d="M58.5825 414.803C58.9608 412.122 59.7077 410.357 60.8292 409.519C61.9428 408.687 63.8569 408.465 66.5573 408.844L67.4324 408.967C69.7948 409.298 71.3548 409.814 72.1204 410.516C72.8619 411.2 73.2591 412.706 73.312 415.032C74.0122 412.811 74.8226 411.475 75.738 411.023C76.6686 410.56 77.6522 410.4 78.6841 410.544L85.0487 411.437C87.1942 411.738 88.7909 411.797 89.8282 411.604L88.5148 420.928C87.369 421.105 85.6763 421.034 83.4376 420.72L77.0317 419.822C76.8211 419.792 76.657 419.879 76.5324 420.076L76.0993 423.15L87.9679 424.814L86.6544 434.138L56.4558 429.903L58.5825 414.803ZM64.1922 418.021C63.8453 417.973 63.6534 418.111 63.6068 418.443L63.1979 421.341L71.0302 422.439L71.4382 419.541C71.4848 419.209 71.3377 419.023 71.0123 418.977L64.1922 418.021Z" fill="url(#paint27_radial_1_83)"/>
<path fill-rule="evenodd" clip-rule="evenodd" d="M64.3196 386.574C64.9758 383.946 65.9046 382.268 67.1069 381.553C68.302 380.841 70.2287 380.821 72.8745 381.478L73.7325 381.692C76.0465 382.267 77.5446 382.944 78.2322 383.722C78.8984 384.479 79.1351 386.017 78.9441 388.338C79.8729 386.202 80.8197 384.957 81.7763 384.603C82.7508 384.239 83.746 384.184 84.7573 384.435L90.9937 385.986C93.0953 386.509 94.6777 386.734 95.7293 386.651L93.4467 395.786C92.2884 395.843 90.6118 395.595 88.418 395.05L82.1421 393.489C81.9359 393.437 81.7628 393.507 81.6185 393.689L80.8654 396.701L92.4946 399.594L90.212 408.73L60.6221 401.369L64.3196 386.574ZM69.5608 390.359C69.2219 390.275 69.0157 390.392 68.9341 390.717L68.2249 393.557L75.8985 395.466L76.6077 392.626C76.6893 392.301 76.5629 392.1 76.2437 392.022L69.5608 390.359Z" fill="url(#paint28_radial_1_83)"/>
<path d="M66.8245 375.33L71.5126 359.017L76.7825 360.525L74.6953 367.787L80.8278 369.542L82.9149 362.279L88.106 363.764L86.0188 371.027L93.4691 373.159L95.5563 365.896L100.826 367.404L96.1382 383.718L66.8245 375.33Z" fill="url(#paint29_radial_1_83)"/>
<path d="M109.159 343.068L80.3248 333.162L77.2533 342.063L90.1599 346.498L75.7425 346.44L72.8018 354.961L101.636 364.867L104.708 355.966L91.8204 351.537L106.219 351.588L109.159 343.068Z" fill="url(#paint30_radial_1_83)"/>
<path d="M87.3923 314.742C88.409 312.232 89.5629 310.698 90.853 310.156C92.1225 309.613 93.41 309.609 94.7127 310.134L100.704 312.549L97.1692 321.28L92.0544 319.218C91.7307 319.087 91.5102 319.175 91.3847 319.486L90.4729 321.736C90.3474 322.047 90.4442 322.263 90.7687 322.394L107.949 329.319C108.248 329.44 108.456 329.347 108.581 329.036L109.492 326.786C109.619 326.475 109.534 326.264 109.235 326.144L104.076 324.064L107.611 315.334L113.648 317.767C114.925 318.281 115.835 319.172 116.37 320.443C116.922 321.727 116.684 323.63 115.667 326.14L112.581 333.761C111.56 336.284 110.407 337.818 109.12 338.345C107.846 338.902 105.946 338.667 103.43 337.652L88.219 331.521C85.6772 330.496 84.1334 329.343 83.6035 328.06C83.0476 326.788 83.2853 324.886 84.3064 322.362L87.3923 314.742Z" fill="url(#paint31_radial_1_83)"/>
<path d="M110.701 305.422L92.0741 303.732L96.2691 295.86L106.595 297.893L99.1255 290.499L103.318 282.632L115.141 297.09L126.843 303.298L122.403 311.63L110.701 305.422Z" fill="url(#paint32_radial_1_83)"/>
<path d="M424.801 903.133C422.114 902.755 420.344 902.01 419.505 900.891C418.669 899.794 418.354 898.548 418.549 897.16L419.448 890.774L428.793 892.085L428.026 897.535C427.977 897.882 428.115 898.073 428.449 898.12L430.857 898.458C431.19 898.504 431.376 898.358 431.425 898.012L434.004 879.703C434.049 879.386 433.908 879.207 433.575 879.16L431.166 878.822C430.834 878.776 430.649 878.909 430.604 879.227L429.83 884.724L420.485 883.414L421.391 876.982C421.582 875.621 422.229 874.524 423.335 873.699C424.45 872.854 426.358 872.624 429.045 873.001L437.203 874.144C439.903 874.524 441.673 875.269 442.499 876.386C443.348 877.486 443.578 879.382 443.201 882.064L440.917 898.273C440.536 900.982 439.789 902.755 438.668 903.578C437.567 904.424 435.659 904.655 432.958 904.276L424.801 903.133Z" fill="url(#paint33_radial_1_83)"/>
<path fill-rule="evenodd" clip-rule="evenodd" d="M398.323 899.138C395.658 898.621 393.931 897.783 393.151 896.622C392.374 895.483 392.252 893.565 392.775 890.88L395.906 874.812C396.423 872.153 397.254 870.434 398.402 869.667C399.561 868.882 401.478 868.752 404.141 869.269L412.228 870.837C414.905 871.356 416.633 872.193 417.399 873.352C418.189 874.494 418.32 876.401 417.802 879.058L414.672 895.126C414.149 897.812 413.309 899.544 412.148 900.307C411.003 901.095 409.086 901.225 406.409 900.706L398.323 899.138ZM401.828 893.757C401.767 894.073 401.898 894.258 402.228 894.322L404.616 894.786C404.946 894.849 405.137 894.726 405.199 894.411L408.734 876.262C408.801 875.919 408.673 875.72 408.343 875.656L405.954 875.193C405.624 875.129 405.431 875.265 405.364 875.608L401.828 893.757Z" fill="url(#paint34_radial_1_83)"/>
<path d="M387.657 896.856L378.462 894.737L385.322 865.09L394.516 867.208L387.657 896.856Z" fill="url(#paint35_radial_1_83)"/>
<path d="M145.433 256.461L147.141 254.115C147.347 253.833 147.312 253.589 147.03 253.384L128.823 240.185L134.369 232.569L154.982 247.511C156.096 248.319 156.756 249.414 156.963 250.781C157.184 252.166 156.495 253.949 154.895 256.145L151.476 260.841L145.433 256.461Z" fill="url(#paint36_radial_1_83)"/>
<path d="M152.863 208.568C154.571 206.464 156.124 205.334 157.517 205.192C158.89 205.043 160.122 205.414 161.214 206.296L166.236 210.354L160.297 217.672L156.01 214.208C155.738 213.989 155.502 214.008 155.291 214.269L153.76 216.155C153.548 216.416 153.578 216.651 153.85 216.87L168.251 228.506C168.501 228.708 168.727 228.679 168.938 228.419L170.469 226.532C170.68 226.272 170.66 226.046 170.41 225.843L166.086 222.35L172.026 215.032L177.085 219.12C178.155 219.984 178.764 221.102 178.904 222.473C179.056 223.863 178.27 225.612 176.563 227.717L171.379 234.104C169.662 236.219 168.111 237.349 166.726 237.479C165.344 237.639 163.596 236.859 161.486 235.155L148.737 224.854C146.606 223.133 145.468 221.58 145.338 220.198C145.178 218.82 145.962 217.07 147.679 214.955L152.863 208.568Z" fill="url(#paint37_radial_1_83)"/>
<path fill-rule="evenodd" clip-rule="evenodd" d="M171.374 188.26C173.26 186.312 174.905 185.322 176.305 185.302C177.686 185.272 179.364 186.215 181.337 188.115L193.138 199.486C195.09 201.367 196.083 202.999 196.102 204.377C196.132 205.774 195.196 207.449 193.311 209.397L187.588 215.309C185.694 217.266 184.05 218.258 182.659 218.266C181.268 218.306 179.595 217.377 177.643 215.496L165.841 204.125C163.869 202.225 162.871 200.579 162.862 199.192C162.823 197.805 163.758 196.13 165.652 194.172L171.374 188.26ZM173.988 194.124C173.755 193.9 173.529 193.909 173.295 194.151L171.605 195.896C171.371 196.138 171.371 196.365 171.603 196.588L184.932 209.431C185.184 209.673 185.42 209.674 185.654 209.434L187.343 207.687C187.577 207.446 187.568 207.21 187.317 206.967L173.988 194.124Z" fill="url(#paint38_radial_1_83)"/>
<path d="M179.664 180.113L186.564 173.691L207.363 195.945L200.461 202.366L179.664 180.113Z" fill="url(#paint39_radial_1_83)"/>
<path d="M226.757 178.576L207.156 155.266L199.927 161.319L208.701 171.752L196.373 164.294L189.454 170.087L209.055 193.396L216.284 187.343L207.523 176.925L219.838 184.368L226.757 178.576Z" fill="url(#paint40_radial_1_83)"/>
<path fill-rule="evenodd" clip-rule="evenodd" d="M267.846 148.32C268.455 147.706 268.89 146.814 269.151 145.643C269.668 143.322 269.06 140.774 267.331 138.015L260.744 127.497C259.015 124.736 256.988 123.074 254.669 122.519C253.5 122.24 252.506 122.239 251.685 122.517L237.04 131.647L253.201 157.452L267.846 148.32ZM260.944 145.584C261.122 145.869 261.07 146.094 260.785 146.272L258.297 147.823L247.948 131.297L250.435 129.746C250.72 129.568 250.947 129.622 251.124 129.906L260.944 145.584Z" fill="url(#paint41_radial_1_83)"/>
<path d="M259.868 117.364L274.745 109.137L277.402 113.921L270.779 117.584L273.872 123.151L280.495 119.488L283.113 124.201L276.49 127.863L280.248 134.627L286.871 130.965L289.529 135.749L274.653 143.976L259.868 117.364Z" fill="url(#paint42_radial_1_83)"/>
<path d="M291.387 100.141C293.805 98.9109 295.684 98.5092 297.014 98.9458C298.329 99.3662 299.304 100.206 299.941 101.455L302.876 107.2L294.467 111.475L291.963 106.571C291.804 106.26 291.58 106.182 291.281 106.334L289.113 107.436C288.813 107.588 288.745 107.814 288.904 108.126L297.316 124.599C297.462 124.885 297.68 124.951 297.98 124.799L300.147 123.697C300.447 123.545 300.521 123.331 300.375 123.044L297.849 118.097L306.258 113.823L309.213 119.61C309.838 120.835 309.94 122.103 309.509 123.412C309.08 124.743 307.649 126.022 305.231 127.251L297.892 130.983C295.461 132.219 293.583 132.621 292.265 132.178C290.938 131.764 289.658 130.342 288.426 127.929L280.979 113.345C279.734 110.907 279.327 109.027 279.772 107.712C280.187 106.388 281.617 105.107 284.047 103.872L291.387 100.141Z" fill="url(#paint43_radial_1_83)"/>
<path d="M301.892 95.3657L317.431 88.4633L319.66 93.4603L312.742 96.534L315.337 102.35L322.255 99.2758L324.451 104.199L317.534 107.271L320.686 114.336L327.604 111.263L329.833 116.26L314.296 123.163L301.892 95.3657Z" fill="url(#paint44_radial_1_83)"/>
<path d="M354.07 107.174L343.141 78.7672L334.332 82.1415L339.224 94.8577L330 83.8L321.568 87.0303L332.497 115.436L341.307 112.063L336.422 99.3653L345.638 110.403L354.07 107.174Z" fill="url(#paint45_radial_1_83)"/>
<path d="M348.149 76.9566L370.025 71.1079L371.444 76.3912L365.063 78.0971L371.537 102.205L362.422 104.641L355.948 80.5339L349.567 82.2398L348.149 76.9566Z" fill="url(#paint46_radial_1_83)"/>
<path fill-rule="evenodd" clip-rule="evenodd" d="M388.054 66.7148C390.708 66.1512 392.628 66.2488 393.8 67.0136C394.963 67.7731 395.827 69.4915 396.394 72.1528L396.578 73.0161C397.074 75.3437 397.121 76.9835 396.722 77.9415C396.332 78.8701 395.05 79.7575 392.876 80.6028C395.208 80.499 396.744 80.8032 397.482 81.5063C398.237 82.2202 398.724 83.0879 398.941 84.105L400.276 90.3777C400.726 92.4915 401.218 94.0096 401.754 94.9166L392.524 96.874C391.965 95.8604 391.453 94.2484 390.983 92.0416L389.638 85.7287C389.594 85.5211 389.456 85.3968 389.228 85.3476L386.184 85.9925L388.677 97.6898L379.447 99.6471L373.106 69.8842L388.054 66.7148ZM386.942 73.0742C386.869 72.7325 386.674 72.6001 386.345 72.6699L383.476 73.2782L385.12 80.9965L387.989 80.3882C388.318 80.3184 388.443 80.1172 388.375 79.796L386.942 73.0742Z" fill="url(#paint47_radial_1_83)"/>
<path fill-rule="evenodd" clip-rule="evenodd" d="M405.155 62.9675L403.473 94.1599L412.117 92.6392L412.164 85.3065L417.658 84.3394L420.243 91.2097L428.861 89.6934L416.586 60.9557L405.155 62.9675ZM412.171 79.7924L412.289 69.988L415.747 79.1626L412.171 79.7924Z" fill="url(#paint48_radial_1_83)"/>
<path d="M426.721 59.7212L436.087 58.5735L438.894 81.3767L446.409 80.4562L447.319 87.8533L430.437 89.9215L426.721 59.7212Z" fill="url(#paint49_radial_1_83)"/>
<path d="M447.43 58.0009L456.843 57.3434L458.971 87.6976L449.557 88.3542L447.43 58.0009Z" fill="url(#paint50_radial_1_83)"/>
<path d="M460.856 56.7808L460.987 64.2673L469.614 64.117L460.902 87.2118L481.957 86.8451L481.827 79.3943L474.023 79.5303L482.09 56.4113L460.856 56.7808Z" fill="url(#paint51_radial_1_83)"/>
<path d="M485.062 56.8228L502.068 57.1189L501.973 62.5882L494.402 62.4558L494.291 68.8206L501.862 68.953L501.767 74.34L494.196 74.2076L494.061 81.9402L501.632 82.0717L501.536 87.541L484.531 87.2449L485.062 56.8228Z" fill="url(#paint52_radial_1_83)"/>
<path fill-rule="evenodd" clip-rule="evenodd" d="M521.573 88.9303C522.427 88.7908 523.305 88.3247 524.206 87.5303C525.992 85.9559 527 83.5379 527.227 80.2906L528.094 67.918C528.322 64.6708 527.661 62.1374 526.112 60.3285C525.331 59.4179 524.527 58.8338 523.7 58.577L506.473 57.3747L504.345 87.728L521.573 88.9303ZM517.601 82.6693C517.578 83.0038 517.402 83.1559 517.067 83.1326L514.141 82.9278L515.504 63.4881L518.429 63.693C518.765 63.7163 518.917 63.8916 518.893 64.2253L517.601 82.6693Z" fill="url(#paint53_radial_1_83)"/>
<path fill-rule="evenodd" clip-rule="evenodd" d="M556.462 94.5588C557.326 94.5096 558.248 94.1375 559.226 93.4406C561.168 92.0612 562.424 89.7613 562.991 86.557L565.149 74.3417C565.715 71.1356 565.323 68.5477 563.972 66.5877C563.291 65.6001 562.552 64.9354 561.757 64.5937L544.75 61.6014L539.454 91.5665L556.462 94.5588ZM553.167 87.9176C553.109 88.2477 552.919 88.381 552.587 88.3229L549.699 87.8147L553.091 68.6238L555.979 69.1319C556.31 69.19 556.443 69.3805 556.385 69.7097L553.167 87.9176Z" fill="url(#paint54_radial_1_83)"/>
<path d="M570.49 66.365L579.72 68.3223L573.38 98.0852L564.15 96.1279L570.49 66.365Z" fill="url(#paint55_radial_1_83)"/>
<path d="M598.621 73.2155C601.242 73.9169 602.908 74.8723 603.604 76.0844C604.295 77.2885 604.283 79.2109 603.578 81.8391L602.361 86.37L593.245 83.9324L594.717 78.4514C594.806 78.1213 594.694 77.9066 594.369 77.8198L592.019 77.1919C591.695 77.1051 591.49 77.2348 591.402 77.5649L586.603 95.4301C586.522 95.7334 586.638 95.9347 586.963 96.0214L589.312 96.6494C589.637 96.7371 589.838 96.6199 589.92 96.3166L591.473 90.5306L589.825 90.0905L590.709 86.8012L601.472 89.679L597.513 104.42L594.878 103.716L594.729 100.71C593.981 102.408 592.02 102.867 588.842 102.102L582.771 100.479C580.137 99.775 578.47 98.8259 577.784 97.6308C577.078 96.4231 577.083 94.5052 577.785 91.8904L582.031 76.079C582.737 73.4508 583.696 71.7816 584.911 71.0865C586.108 70.3807 588.03 70.3843 590.664 71.0883L598.621 73.2155Z" fill="url(#paint56_radial_1_83)"/>
<path d="M609.663 76.7669L618.637 79.676L609.213 108.615L600.239 105.705L609.663 76.7669Z" fill="url(#paint57_radial_1_83)"/>
<path d="M622.23 80.7728L643.373 88.8712L641.409 93.9782L635.241 91.6157L626.277 114.915L617.468 111.542L626.432 88.2423L620.264 85.8798L622.23 80.7728Z" fill="url(#paint58_radial_1_83)"/>
<path fill-rule="evenodd" clip-rule="evenodd" d="M650.395 91.9181L631.519 116.84L639.537 120.403L643.687 114.349L648.783 116.612L647.076 123.751L655.07 127.302L661 96.6298L650.395 91.9181ZM646.782 109.782L652.375 101.72L650.101 111.256L646.782 109.782Z" fill="url(#paint59_radial_1_83)"/>
<path d="M670.143 101.361L678.551 105.635L668.097 126.106L674.844 129.536L671.453 136.176L656.298 128.472L670.143 101.361Z" fill="url(#paint60_radial_1_83)"/>
<path d="M711.605 124.803C713.906 126.238 715.219 127.638 715.529 129C715.845 130.342 715.626 131.608 714.882 132.797L711.457 138.265L703.454 133.275L706.377 128.608C706.563 128.311 706.514 128.08 706.229 127.902L704.166 126.616C703.881 126.438 703.652 126.496 703.466 126.793L693.647 142.471C693.476 142.744 693.531 142.964 693.816 143.142L695.879 144.428C696.165 144.606 696.387 144.559 696.558 144.287L699.506 139.578L707.51 144.568L704.06 150.077C703.33 151.243 702.293 151.982 700.946 152.287C699.582 152.607 697.746 152.042 695.445 150.607L688.459 146.252C686.146 144.81 684.832 143.411 684.535 142.056C684.206 140.707 684.769 138.88 686.208 136.583L694.9 122.702C696.354 120.382 697.76 119.065 699.118 118.768C700.47 118.442 702.306 119.005 704.619 120.447L711.605 124.803Z" fill="url(#paint61_radial_1_83)"/>
<path d="M739.212 143.968L725.749 163.151C724.193 165.37 722.732 166.603 721.372 166.837C719.993 167.085 718.189 166.426 715.966 164.872L709.218 160.158C706.984 158.598 705.746 157.131 705.519 155.762C705.263 154.399 705.92 152.603 707.477 150.386L720.939 131.202L728.669 136.602L714.633 156.604C714.432 156.889 714.474 157.127 714.761 157.327L716.736 158.708C717.011 158.9 717.244 158.854 717.445 158.568L731.481 138.567L739.212 143.968Z" fill="url(#paint62_radial_1_83)"/>
<path fill-rule="evenodd" clip-rule="evenodd" d="M755.273 157.074C757.352 158.815 758.458 160.383 758.575 161.776C758.691 163.159 757.866 164.895 756.113 166.981L755.545 167.656C754.012 169.479 752.746 170.526 751.744 170.802C750.77 171.067 749.28 170.605 747.274 169.416C748.791 171.186 749.497 172.58 749.396 173.594C749.297 174.627 748.911 175.544 748.242 176.34L744.11 181.253C742.718 182.909 741.821 184.229 741.435 185.209L734.207 179.156C734.663 178.094 735.621 176.699 737.074 174.971L741.232 170.026C741.369 169.864 741.382 169.678 741.281 169.469L738.898 167.473L731.194 176.635L723.965 170.582L743.567 147.273L755.273 157.074ZM749.567 160.116C749.792 159.848 749.776 159.612 749.518 159.396L747.272 157.516L742.188 163.561L744.435 165.442C744.692 165.657 744.928 165.632 745.14 165.38L749.567 160.116Z" fill="url(#paint63_radial_1_83)"/>
<path fill-rule="evenodd" clip-rule="evenodd" d="M775.338 175.603C777.323 177.45 778.344 179.074 778.389 180.47C778.432 181.858 777.517 183.55 775.657 185.539L775.054 186.184C773.427 187.925 772.109 188.904 771.094 189.128C770.107 189.341 768.644 188.802 766.702 187.511C768.124 189.357 768.757 190.787 768.602 191.793C768.45 192.82 768.016 193.715 767.305 194.476L762.922 199.166C761.444 200.747 760.48 202.018 760.043 202.977L753.142 196.556C753.654 195.517 754.683 194.174 756.225 192.525L760.637 187.804C760.782 187.648 760.805 187.464 760.714 187.25L758.439 185.133L750.266 193.879L743.364 187.458L764.163 165.204L775.338 175.603ZM769.48 178.342C769.718 178.087 769.715 177.85 769.469 177.622L767.325 175.626L761.931 181.397L764.076 183.393C764.321 183.622 764.558 183.609 764.783 183.368L769.48 178.342Z" fill="url(#paint64_radial_1_83)"/>
<path d="M783.875 184.015L795.691 196.223L791.747 200.023L786.487 194.587L781.897 199.009L787.157 204.445L783.273 208.187L778.013 202.752L772.438 208.124L777.698 213.559L773.754 217.359L761.939 205.151L783.875 184.015Z" fill="url(#paint65_radial_1_83)"/>
<path d="M790.695 236.961L813.711 216.998L807.52 209.893L797.218 218.828L804.476 206.398L798.551 199.597L775.535 219.56L781.726 226.665L792.013 217.743L784.77 230.16L790.695 236.961Z" fill="url(#paint66_radial_1_83)"/>
<path d="M825.965 233.368C827.56 235.559 828.252 237.348 828.028 238.728C827.817 240.089 827.138 241.181 826.001 242.005L820.774 245.796L815.227 238.178L819.69 234.942C819.972 234.737 820.014 234.504 819.817 234.233L818.387 232.269C818.19 231.998 817.955 231.966 817.671 232.171L802.68 243.039C802.42 243.227 802.389 243.452 802.587 243.724L804.016 245.687C804.214 245.958 804.438 245.999 804.698 245.81L809.2 242.546L814.747 250.165L809.481 253.982C808.366 254.79 807.126 255.088 805.763 254.867C804.378 254.654 802.888 253.444 801.293 251.253L796.451 244.604C794.848 242.403 794.156 240.614 794.388 239.247C794.591 237.873 795.798 236.39 797.994 234.798L811.266 225.177C813.484 223.569 815.281 222.874 816.653 223.106C818.028 223.309 819.519 224.518 821.122 226.719L825.965 233.368Z" fill="url(#paint67_radial_1_83)"/>
<path d="M821.494 257.326L832.005 241.891L836.872 249.368L830.084 257.395L840.186 254.46L845.049 261.933L826.644 265.241L815.529 272.444L810.378 264.53L821.494 257.326Z" fill="url(#paint68_radial_1_83)"/>
<path d="M841.338 303.102L842.566 305.729C842.714 306.046 842.944 306.134 843.261 305.987L863.657 296.497L867.645 305.03L844.554 315.773C843.306 316.354 842.025 316.4 840.727 315.917C839.406 315.439 838.177 313.973 837.027 311.513L834.569 306.252L841.338 303.102Z" fill="url(#paint69_radial_1_83)"/>
<path d="M879.222 332.899C880.239 335.409 880.477 337.312 879.925 338.596C879.391 339.867 878.468 340.763 877.165 341.288L871.173 343.703L867.638 334.972L872.753 332.91C873.077 332.78 873.174 332.564 873.049 332.253L872.137 330.003C872.011 329.692 871.791 329.604 871.467 329.735L854.287 336.66C853.988 336.781 853.903 336.991 854.029 337.303L854.94 339.553C855.066 339.864 855.274 339.957 855.572 339.837L860.731 337.757L864.266 346.487L858.231 348.92C856.954 349.436 855.678 349.426 854.409 348.883C853.117 348.341 851.964 346.807 850.948 344.297L847.862 336.677C846.841 334.153 846.602 332.251 847.16 330.98C847.689 329.696 849.22 328.549 851.736 327.534L866.947 321.402C869.489 320.378 871.402 320.137 872.677 320.693C873.961 321.222 875.115 322.755 876.137 325.278L879.222 332.899Z" fill="url(#paint70_radial_1_83)"/>
<path fill-rule="evenodd" clip-rule="evenodd" d="M888.043 358.081C888.927 360.641 889.064 362.553 888.446 363.808C887.845 365.047 886.242 366.112 883.65 367.003L868.138 372.332C865.572 373.214 863.664 373.355 862.425 372.747C861.163 372.139 860.093 370.547 859.209 367.987L856.527 360.216C855.64 357.642 855.502 355.731 856.125 354.49C856.721 353.236 858.31 352.169 860.875 351.288L876.387 345.959C878.98 345.068 880.903 344.928 882.146 345.55C883.401 346.145 884.474 347.736 885.361 350.31L888.043 358.081ZM881.621 357.742C881.925 357.637 882.021 357.431 881.911 357.114L881.119 354.819C881.009 354.501 880.807 354.398 880.503 354.502L862.982 360.522C862.652 360.635 862.543 360.846 862.652 361.163L863.445 363.458C863.554 363.775 863.769 363.875 864.1 363.761L881.621 357.742Z" fill="url(#paint71_radial_1_83)"/>
<path d="M890.913 369L893.513 378.05L864.2 386.437L861.599 377.386L890.913 369Z" fill="url(#paint72_radial_1_83)"/>
<path d="M869.931 411.668L899.52 404.307L897.238 395.172L883.992 398.466L896.115 390.679L893.93 381.936L864.341 389.296L866.623 398.432L879.849 395.142L867.746 402.924L869.931 411.668Z" fill="url(#paint73_radial_1_83)"/>
<path fill-rule="evenodd" clip-rule="evenodd" d="M874.565 452.447C874.836 453.267 875.435 454.059 876.362 454.822C878.201 456.336 880.753 456.951 884.002 456.667L896.385 455.587C899.635 455.303 902.04 454.256 903.587 452.445C904.367 451.533 904.82 450.65 904.945 449.794L903.439 432.63L873.06 435.281L874.565 452.447ZM880.141 447.553C879.807 447.582 879.629 447.433 879.6 447.099L879.344 444.184L898.8 442.485L899.056 445.4C899.085 445.735 898.935 445.912 898.601 445.941L880.141 447.553Z" fill="url(#paint74_radial_1_83)"/>
<path d="M905.553 459.25L906.147 476.21L900.668 476.401L900.404 468.85L894.027 469.072L894.292 476.623L888.895 476.811L888.631 469.261L880.885 469.53L881.149 477.081L875.67 477.272L875.077 460.312L905.553 459.25Z" fill="url(#paint75_radial_1_83)"/>
<path d="M905.72 495.781C905.672 498.488 905.146 500.332 904.136 501.3C903.146 502.26 901.946 502.725 900.541 502.7L894.079 502.588L894.244 493.173L899.76 493.269C900.109 493.275 900.283 493.115 900.29 492.78L900.332 490.353C900.338 490.017 900.169 489.851 899.82 489.845L881.293 489.522C880.971 489.517 880.81 489.678 880.804 490.013L880.762 492.439C880.756 492.775 880.911 492.941 881.232 492.947L886.796 493.044L886.631 502.458L880.123 502.345C878.746 502.321 877.575 501.815 876.62 500.82C875.642 499.818 875.182 497.958 875.229 495.25L875.373 487.032C875.421 484.311 875.946 482.467 876.957 481.514C877.948 480.54 879.806 480.08 882.519 480.127L898.922 480.413C901.663 480.46 903.518 480.984 904.474 481.993C905.45 482.981 905.911 484.842 905.863 487.563L905.72 495.781Z" fill="url(#paint76_radial_1_83)"/>
<path d="M905.466 507.149L904.279 524.079L898.81 523.697L899.339 516.16L892.975 515.715L892.447 523.253L887.059 522.877L887.588 515.34L879.856 514.8L879.327 522.338L873.858 521.956L875.045 505.026L905.466 507.149Z" fill="url(#paint77_radial_1_83)"/>
<path d="M870.594 547.596L900.862 551.304L902.012 541.959L888.463 540.299L902.578 537.364L903.678 528.42L873.41 524.711L872.26 534.057L885.789 535.714L871.695 538.651L870.594 547.596Z" fill="url(#paint78_radial_1_83)"/>
<path d="M899.822 554.632L895.889 576.886L890.49 575.937L891.637 569.446L867.004 565.112L868.643 555.84L893.276 560.173L894.422 553.682L899.822 554.632Z" fill="url(#paint79_radial_1_83)"/>
<path fill-rule="evenodd" clip-rule="evenodd" d="M890.509 596.098C889.806 598.714 888.849 600.376 887.634 601.071C886.427 601.759 884.5 601.748 881.866 601.044L881.012 600.815C878.709 600.199 877.222 599.497 876.548 598.707C875.896 597.939 875.686 596.396 875.918 594.08C874.951 596.2 873.983 597.427 873.02 597.764C872.039 598.111 871.043 598.15 870.037 597.881L863.829 596.221C861.737 595.662 860.159 595.409 859.106 595.474L861.548 586.379C862.707 586.344 864.378 586.62 866.562 587.204L872.81 588.874C873.016 588.929 873.19 588.863 873.337 588.683L874.143 585.684L862.565 582.589L865.008 573.495L894.464 581.37L890.509 596.098ZM885.335 592.223C885.672 592.313 885.88 592.199 885.967 591.875L886.727 589.049L879.087 587.006L878.328 589.832C878.241 590.156 878.364 590.359 878.682 590.444L885.335 592.223Z" fill="url(#paint80_radial_1_83)"/>
<path fill-rule="evenodd" clip-rule="evenodd" d="M885.255 613.07L858.442 596.944L855.73 605.274L862.197 608.758L860.474 614.052L853.18 613.104L850.476 621.408L881.668 624.087L885.255 613.07ZM867.073 611.353L875.694 616.06L865.951 614.799L867.073 611.353Z" fill="url(#paint81_radial_1_83)"/>
<path d="M877.699 633.583L874.317 642.373L852.821 634.14L850.107 641.193L843.134 638.523L849.229 622.68L877.699 633.583Z" fill="url(#paint82_radial_1_83)"/>
<path d="M870.229 653.079L866.391 661.68L838.532 649.304L842.37 640.703L870.229 653.079Z" fill="url(#paint83_radial_1_83)"/>
<path d="M864.643 665.19L857.956 661.791L854.039 669.461L837.692 650.943L828.132 669.665L834.786 673.048L838.33 666.11L855.001 684.07L864.643 665.19Z" fill="url(#paint84_radial_1_83)"/>
<path d="M853.329 686.579L845.083 701.421L840.288 698.77L843.959 692.162L838.379 689.076L834.708 695.684L829.985 693.072L833.656 686.464L826.877 682.714L823.206 689.323L818.411 686.67L826.657 671.828L853.329 686.579Z" fill="url(#paint85_radial_1_83)"/>
<path fill-rule="evenodd" clip-rule="evenodd" d="M807.656 703.223C807.378 704.042 807.379 705.034 807.66 706.199C808.214 708.513 809.88 710.536 812.646 712.261L823.189 718.833C825.956 720.558 828.508 721.165 830.835 720.649C832.008 720.389 832.902 719.955 833.518 719.348L842.669 704.735L816.808 688.61L807.656 703.223ZM815.062 702.663C814.777 702.485 814.724 702.26 814.903 701.975L816.457 699.494L833.019 709.82L831.466 712.302C831.287 712.586 831.061 712.637 830.776 712.46L815.062 702.663Z" fill="url(#paint86_radial_1_83)"/>
<path fill-rule="evenodd" clip-rule="evenodd" d="M786.086 731.642C785.725 732.428 785.621 733.414 785.778 734.603C786.087 736.961 787.532 739.148 790.103 741.151L799.898 748.788C802.469 750.791 804.944 751.662 807.313 751.391C808.506 751.255 809.441 750.917 810.117 750.376L820.749 736.798L796.718 718.065L786.086 731.642ZM793.509 731.858C793.245 731.651 793.216 731.421 793.423 731.157L795.229 728.851L810.619 740.849L808.814 743.155C808.606 743.419 808.376 743.447 808.112 743.241L793.509 731.858Z" fill="url(#paint87_radial_1_83)"/>
<path d="M804.451 757.284L798.386 764.497L775.024 744.938L781.09 737.725L804.451 757.284Z" fill="url(#paint88_radial_1_83)"/>
<path d="M784.603 778.606C782.753 780.586 781.125 781.605 779.725 781.65C778.334 781.693 776.639 780.78 774.645 778.924L771.207 775.725L777.643 768.839L781.803 772.709C782.053 772.942 782.295 772.944 782.525 772.699L784.184 770.923C784.413 770.678 784.394 770.438 784.144 770.204L770.586 757.59C770.357 757.376 770.124 757.383 769.895 757.628L768.236 759.403C768.007 759.649 768.015 759.881 768.246 760.095L772.636 764.18L773.8 762.935L776.296 765.257L768.696 773.389L757.509 762.981L759.371 760.99L762.101 762.269C760.949 760.814 761.463 758.871 763.632 756.43L767.918 751.843C769.778 749.853 771.401 748.83 772.78 748.787C774.18 748.732 775.875 749.636 777.859 751.483L789.858 762.647C791.853 764.502 792.879 766.13 792.923 767.528C792.986 768.914 792.081 770.605 790.221 772.595L784.603 778.606Z" fill="url(#paint89_radial_1_83)"/>
<path d="M776.618 786.591L769.831 793.131L748.647 771.244L755.435 764.703L776.618 786.591Z" fill="url(#paint90_radial_1_83)"/>
<path d="M767.273 795.704L750.181 810.529L746.584 806.401L751.569 802.076L735.159 783.24L742.281 777.064L758.691 795.899L763.676 791.575L767.273 795.704Z" fill="url(#paint91_radial_1_83)"/>
<path fill-rule="evenodd" clip-rule="evenodd" d="M744.434 814.924L730.749 786.829L723.927 792.34L727.45 798.777L723.115 802.279L717.515 797.521L710.715 803.017L735.413 822.214L744.434 814.924ZM730.123 803.603L734.783 812.235L727.3 805.884L730.123 803.603Z" fill="url(#paint92_radial_1_83)"/>
<path d="M726.585 828.144L718.951 833.678L705.417 815.09L699.291 819.532L694.9 813.503L708.661 803.527L726.585 828.144Z" fill="url(#paint93_radial_1_83)"/>
<path d="M686.268 853.789C683.917 855.143 682.062 855.643 680.711 855.277C679.375 854.925 678.357 854.137 677.655 852.923L674.424 847.339L682.597 842.631L685.355 847.398C685.53 847.7 685.757 847.766 686.049 847.599L688.155 846.385C688.446 846.217 688.503 845.988 688.328 845.685L679.063 829.674C678.902 829.395 678.681 829.341 678.389 829.509L676.283 830.722C675.992 830.89 675.929 831.108 676.09 831.387L678.872 836.194L670.699 840.902L667.444 835.277C666.756 834.087 666.587 832.825 666.95 831.496C667.308 830.144 668.669 828.792 671.02 827.438L678.154 823.328C680.515 821.968 682.37 821.468 683.71 821.842C685.057 822.186 686.409 823.539 687.766 825.884L695.968 840.059C697.339 842.429 697.845 844.285 697.47 845.622C697.124 846.965 695.763 848.319 693.401 849.679L686.268 853.789Z" fill="url(#paint94_radial_1_83)"/>
<path d="M656.682 868.984L645.664 848.306C644.39 845.915 643.95 844.057 644.359 842.741C644.764 841.403 646.172 840.099 648.568 838.827L655.841 834.968C658.249 833.691 660.121 833.256 661.446 833.676C662.781 834.068 664.085 835.467 665.359 837.858L676.378 858.535L668.046 862.955L656.558 841.396C656.394 841.088 656.161 841.017 655.853 841.181L653.724 842.311C653.427 842.468 653.362 842.697 653.526 843.004L665.015 864.563L656.682 868.984Z" fill="url(#paint95_radial_1_83)"/>
<path fill-rule="evenodd" clip-rule="evenodd" d="M637.084 876.947C634.569 877.961 632.662 878.198 631.374 877.648C630.096 877.101 628.947 875.559 627.924 873.035L627.594 872.218C626.701 870.012 626.368 868.405 626.594 867.393C626.817 866.41 627.925 865.315 629.919 864.105C627.64 864.61 626.075 864.578 625.226 864.014C624.358 863.441 623.728 862.67 623.338 861.707L620.93 855.761C620.118 853.757 619.37 852.348 618.685 851.547L627.434 848.02C628.16 848.922 628.946 850.42 629.792 852.512L632.215 858.496C632.295 858.693 632.453 858.791 632.686 858.8L635.57 857.637L631.08 846.55L639.83 843.023L651.254 871.235L637.084 876.947ZM637.073 870.491C637.204 870.815 637.42 870.912 637.732 870.787L640.451 869.69L637.488 862.374L634.769 863.47C634.458 863.595 634.37 863.815 634.493 864.12L637.073 870.491Z" fill="url(#paint96_radial_1_83)"/>
<path fill-rule="evenodd" clip-rule="evenodd" d="M611.559 886.124C608.993 887.006 607.076 887.143 605.819 886.526C604.572 885.914 603.504 884.313 602.617 881.741L602.329 880.906C601.552 878.656 601.305 877.034 601.584 876.035C601.858 875.066 603.022 874.029 605.077 872.926C602.774 873.312 601.213 873.198 600.395 872.589C599.558 871.972 598.969 871.17 598.63 870.187L596.537 864.123C595.832 862.08 595.159 860.633 594.516 859.799L603.439 856.733C604.116 857.671 604.822 859.208 605.558 861.342L607.664 867.445C607.733 867.645 607.886 867.751 608.118 867.773L611.059 866.762L607.158 855.456L616.079 852.39L626.007 881.16L611.559 886.124ZM611.885 879.677C611.999 880.007 612.21 880.115 612.528 880.006L615.301 879.053L612.726 871.592L609.953 872.544C609.636 872.654 609.536 872.869 609.643 873.18L611.885 879.677Z" fill="url(#paint97_radial_1_83)"/>
<path d="M599.915 889.774L583.566 894.451L582.055 889.193L589.333 887.111L587.575 880.992L580.296 883.074L578.808 877.895L586.087 875.812L583.95 868.378L576.671 870.461L575.161 865.203L591.51 860.525L599.915 889.774Z" fill="url(#paint98_radial_1_83)"/>
<path d="M549.733 870.563L556.593 900.211L565.787 898.093L562.716 884.821L570.308 897.052L579.109 895.025L572.249 865.376L563.054 867.495L566.121 880.746L558.534 868.536L549.733 870.563Z" fill="url(#paint99_radial_1_83)"/>
<path d="M536.271 903.254C533.583 903.631 531.676 903.4 530.56 902.556C529.454 901.731 528.806 900.62 528.611 899.233L527.711 892.847L537.057 891.537L537.825 896.987C537.873 897.333 538.059 897.479 538.392 897.433L540.801 897.095C541.134 897.048 541.273 896.856 541.224 896.51L538.645 878.202C538.6 877.884 538.416 877.751 538.083 877.797L535.675 878.135C535.341 878.182 535.2 878.361 535.245 878.678L536.02 884.176L526.675 885.487L525.769 879.054C525.577 877.694 525.895 876.461 526.73 875.364C527.569 874.244 529.34 873.5 532.026 873.122L540.184 871.979C542.885 871.6 544.792 871.83 545.894 872.677C547.013 873.5 547.759 875.259 548.138 877.941L550.42 894.151C550.802 896.859 550.574 898.769 549.724 899.869C548.899 900.985 547.129 901.731 544.429 902.11L536.271 903.254Z" fill="url(#paint100_radial_1_83)"/>
<path d="M517.238 887.909L525.962 904.417L517.06 905.194L513.145 895.446L510.999 905.723L502.103 906.499L507.816 888.732L506.661 875.557L516.083 874.735L517.238 887.909Z" fill="url(#paint101_radial_1_83)"/>
<path d="M840.083 274.677C842.655 274.677 844.742 276.759 844.742 279.325C844.742 281.891 842.655 283.973 840.083 283.973C837.511 283.973 835.425 281.891 835.425 279.325C835.425 276.759 837.511 274.677 840.083 274.677Z" fill="url(#paint102_radial_1_83)"/>
<path d="M890.804 420.884C890.804 418.317 888.718 416.236 886.145 416.236C883.573 416.236 881.487 418.317 881.487 420.884C881.487 423.45 883.573 425.532 886.145 425.532C888.718 425.532 890.804 423.45 890.804 420.884Z" fill="url(#paint103_radial_1_83)"/>
<path d="M125.766 264.761C128.338 264.761 130.425 266.843 130.425 269.409C130.425 271.976 128.338 274.057 125.766 274.057C123.194 274.057 121.108 271.976 121.108 269.409C121.108 266.843 123.194 264.761 125.766 264.761Z" fill="url(#paint104_radial_1_83)"/>
<path d="M235.633 155.292C235.633 152.726 233.546 150.644 230.974 150.644C228.402 150.644 226.316 152.726 226.316 155.292C226.316 157.859 228.402 159.941 230.974 159.941C233.546 159.941 235.633 157.859 235.633 155.292Z" fill="url(#paint105_radial_1_83)"/>
<path d="M332.41 859.873C334.982 859.873 337.068 861.955 337.068 864.521C337.068 867.088 334.982 869.17 332.41 869.17C329.837 869.17 327.751 867.088 327.751 864.521C327.751 861.955 329.837 859.873 332.41 859.873Z" fill="url(#paint106_radial_1_83)"/>
<path d="M490.783 891.586C490.783 889.019 488.697 886.937 486.124 886.937C483.552 886.937 481.466 889.019 481.466 891.586C481.466 894.152 483.552 896.234 486.124 896.234C488.697 896.234 490.783 894.152 490.783 891.586Z" fill="url(#paint107_radial_1_83)"/>
<defs>
<radialGradient id="paint0_radial_1_83" cx="0" cy="0" r="1" gradientUnits="userSpaceOnUse" gradientTransform="translate(474.845 486.06) rotate(45) scale(511.603 511.874)">
<stop stop-color="#E8FF30"/>
<stop offset="0.62" stop-color="#A6CB33"/>
<stop offset="1" stop-color="#20934A"/>
</radialGradient>
<radialGradient id="paint1_radial_1_83" cx="0" cy="0" r="1" gradientUnits="userSpaceOnUse" gradientTransform="translate(476.037 484.798) rotate(45.0024) scale(394.649 394.857)">
<stop stop-color="#E8FF30"/>
<stop offset="0.62" stop-color="#A6CB33"/>
<stop offset="1" stop-color="#20934A"/>
</radialGradient>
<radialGradient id="paint2_radial_1_83" cx="0" cy="0" r="1" gradientUnits="userSpaceOnUse" gradientTransform="translate(503.089 527.865) rotate(44.153) scale(404.33 404.367)">
<stop stop-color="#E8FF30"/>
<stop offset="0.62" stop-color="#A6CB33"/>
<stop offset="1" stop-color="#20934A"/>
</radialGradient>
<radialGradient id="paint3_radial_1_83" cx="0" cy="0" r="1" gradientUnits="userSpaceOnUse" gradientTransform="translate(475.191 486.339) rotate(44.9216) scale(453.622 453.861)">
<stop stop-color="#E8FF30"/>
<stop offset="0.62" stop-color="#A6CB33"/>
<stop offset="1" stop-color="#20934A"/>
</radialGradient>
<radialGradient id="paint4_radial_1_83" cx="0" cy="0" r="1" gradientUnits="userSpaceOnUse" gradientTransform="translate(475.191 486.339) rotate(44.9216) scale(453.622 453.861)">
<stop stop-color="#E8FF30"/>
<stop offset="0.62" stop-color="#A6CB33"/>
<stop offset="1" stop-color="#20934A"/>
</radialGradient>
<radialGradient id="paint5_radial_1_83" cx="0" cy="0" r="1" gradientUnits="userSpaceOnUse" gradientTransform="translate(475.191 486.339) rotate(44.9216) scale(453.622 453.861)">
<stop stop-color="#E8FF30"/>
<stop offset="0.62" stop-color="#A6CB33"/>
<stop offset="1" stop-color="#20934A"/>
</radialGradient>
<radialGradient id="paint6_radial_1_83" cx="0" cy="0" r="1" gradientUnits="userSpaceOnUse" gradientTransform="translate(475.191 486.339) rotate(44.9216) scale(453.622 453.861)">
<stop stop-color="#E8FF30"/>
<stop offset="0.62" stop-color="#A6CB33"/>
<stop offset="1" stop-color="#20934A"/>
</radialGradient>
<radialGradient id="paint7_radial_1_83" cx="0" cy="0" r="1" gradientUnits="userSpaceOnUse" gradientTransform="translate(475.191 486.339) rotate(44.9216) scale(453.622 453.861)">
<stop stop-color="#E8FF30"/>
<stop offset="0.62" stop-color="#A6CB33"/>
<stop offset="1" stop-color="#20934A"/>
</radialGradient>
<radialGradient id="paint8_radial_1_83" cx="0" cy="0" r="1" gradientUnits="userSpaceOnUse" gradientTransform="translate(475.191 486.339) rotate(44.9216) scale(453.622 453.861)">
<stop stop-color="#E8FF30"/>
<stop offset="0.62" stop-color="#A6CB33"/>
<stop offset="1" stop-color="#20934A"/>
</radialGradient>
<radialGradient id="paint9_radial_1_83" cx="0" cy="0" r="1" gradientUnits="userSpaceOnUse" gradientTransform="translate(475.191 486.339) rotate(44.9216) scale(453.622 453.861)">
<stop stop-color="#E8FF30"/>
<stop offset="0.62" stop-color="#A6CB33"/>
<stop offset="1" stop-color="#20934A"/>
</radialGradient>
<radialGradient id="paint10_radial_1_83" cx="0" cy="0" r="1" gradientUnits="userSpaceOnUse" gradientTransform="translate(475.191 486.339) rotate(44.9216) scale(453.622 453.861)">
<stop stop-color="#E8FF30"/>
<stop offset="0.62" stop-color="#A6CB33"/>
<stop offset="1" stop-color="#20934A"/>
</radialGradient>
<radialGradient id="paint11_radial_1_83" cx="0" cy="0" r="1" gradientUnits="userSpaceOnUse" gradientTransform="translate(475.191 486.339) rotate(44.9216) scale(453.622 453.861)">
<stop stop-color="#E8FF30"/>
<stop offset="0.62" stop-color="#A6CB33"/>
<stop offset="1" stop-color="#20934A"/>
</radialGradient>
<radialGradient id="paint12_radial_1_83" cx="0" cy="0" r="1" gradientUnits="userSpaceOnUse" gradientTransform="translate(475.191 486.339) rotate(44.9216) scale(453.622 453.861)">
<stop stop-color="#E8FF30"/>
<stop offset="0.62" stop-color="#A6CB33"/>
<stop offset="1" stop-color="#20934A"/>
</radialGradient>
<radialGradient id="paint13_radial_1_83" cx="0" cy="0" r="1" gradientUnits="userSpaceOnUse" gradientTransform="translate(475.191 486.339) rotate(44.9216) scale(453.622 453.861)">
<stop stop-color="#E8FF30"/>
<stop offset="0.62" stop-color="#A6CB33"/>
<stop offset="1" stop-color="#20934A"/>
</radialGradient>
<radialGradient id="paint14_radial_1_83" cx="0" cy="0" r="1" gradientUnits="userSpaceOnUse" gradientTransform="translate(475.191 486.339) rotate(44.9216) scale(453.622 453.861)">
<stop stop-color="#E8FF30"/>
<stop offset="0.62" stop-color="#A6CB33"/>
<stop offset="1" stop-color="#20934A"/>
</radialGradient>
<radialGradient id="paint15_radial_1_83" cx="0" cy="0" r="1" gradientUnits="userSpaceOnUse" gradientTransform="translate(475.191 486.339) rotate(44.9216) scale(453.622 453.861)">
<stop stop-color="#E8FF30"/>
<stop offset="0.62" stop-color="#A6CB33"/>
<stop offset="1" stop-color="#20934A"/>
</radialGradient>
<radialGradient id="paint16_radial_1_83" cx="0" cy="0" r="1" gradientUnits="userSpaceOnUse" gradientTransform="translate(475.191 486.339) rotate(44.9216) scale(453.622 453.861)">
<stop stop-color="#E8FF30"/>
<stop offset="0.62" stop-color="#A6CB33"/>
<stop offset="1" stop-color="#20934A"/>
</radialGradient>
<radialGradient id="paint17_radial_1_83" cx="0" cy="0" r="1" gradientUnits="userSpaceOnUse" gradientTransform="translate(475.191 486.339) rotate(44.9216) scale(453.622 453.861)">
<stop stop-color="#E8FF30"/>
<stop offset="0.62" stop-color="#A6CB33"/>
<stop offset="1" stop-color="#20934A"/>
</radialGradient>
<radialGradient id="paint18_radial_1_83" cx="0" cy="0" r="1" gradientUnits="userSpaceOnUse" gradientTransform="translate(475.191 486.339) rotate(44.9216) scale(453.622 453.861)">
<stop stop-color="#E8FF30"/>
<stop offset="0.62" stop-color="#A6CB33"/>
<stop offset="1" stop-color="#20934A"/>
</radialGradient>
<radialGradient id="paint19_radial_1_83" cx="0" cy="0" r="1" gradientUnits="userSpaceOnUse" gradientTransform="translate(475.191 486.339) rotate(44.9216) scale(453.622 453.861)">
<stop stop-color="#E8FF30"/>
<stop offset="0.62" stop-color="#A6CB33"/>
<stop offset="1" stop-color="#20934A"/>
</radialGradient>
<radialGradient id="paint20_radial_1_83" cx="0" cy="0" r="1" gradientUnits="userSpaceOnUse" gradientTransform="translate(475.191 486.339) rotate(44.9216) scale(453.622 453.861)">
<stop stop-color="#E8FF30"/>
<stop offset="0.62" stop-color="#A6CB33"/>
<stop offset="1" stop-color="#20934A"/>
</radialGradient>
<radialGradient id="paint21_radial_1_83" cx="0" cy="0" r="1" gradientUnits="userSpaceOnUse" gradientTransform="translate(475.191 486.339) rotate(44.9216) scale(453.622 453.861)">
<stop stop-color="#E8FF30"/>
<stop offset="0.62" stop-color="#A6CB33"/>
<stop offset="1" stop-color="#20934A"/>
</radialGradient>
<radialGradient id="paint22_radial_1_83" cx="0" cy="0" r="1" gradientUnits="userSpaceOnUse" gradientTransform="translate(475.191 486.339) rotate(44.9216) scale(453.622 453.861)">
<stop stop-color="#E8FF30"/>
<stop offset="0.62" stop-color="#A6CB33"/>
<stop offset="1" stop-color="#20934A"/>
</radialGradient>
<radialGradient id="paint23_radial_1_83" cx="0" cy="0" r="1" gradientUnits="userSpaceOnUse" gradientTransform="translate(475.191 486.339) rotate(44.9216) scale(453.622 453.861)">
<stop stop-color="#E8FF30"/>
<stop offset="0.62" stop-color="#A6CB33"/>
<stop offset="1" stop-color="#20934A"/>
</radialGradient>
<radialGradient id="paint24_radial_1_83" cx="0" cy="0" r="1" gradientUnits="userSpaceOnUse" gradientTransform="translate(475.191 486.339) rotate(44.9216) scale(453.622 453.861)">
<stop stop-color="#E8FF30"/>
<stop offset="0.62" stop-color="#A6CB33"/>
<stop offset="1" stop-color="#20934A"/>
</radialGradient>
<radialGradient id="paint25_radial_1_83" cx="0" cy="0" r="1" gradientUnits="userSpaceOnUse" gradientTransform="translate(475.191 486.339) rotate(44.9216) scale(453.622 453.861)">
<stop stop-color="#E8FF30"/>
<stop offset="0.62" stop-color="#A6CB33"/>
<stop offset="1" stop-color="#20934A"/>
</radialGradient>
<radialGradient id="paint26_radial_1_83" cx="0" cy="0" r="1" gradientUnits="userSpaceOnUse" gradientTransform="translate(475.191 486.339) rotate(44.9216) scale(453.622 453.861)">
<stop stop-color="#E8FF30"/>
<stop offset="0.62" stop-color="#A6CB33"/>
<stop offset="1" stop-color="#20934A"/>
</radialGradient>
<radialGradient id="paint27_radial_1_83" cx="0" cy="0" r="1" gradientUnits="userSpaceOnUse" gradientTransform="translate(475.191 486.339) rotate(44.9216) scale(453.622 453.861)">
<stop stop-color="#E8FF30"/>
<stop offset="0.62" stop-color="#A6CB33"/>
<stop offset="1" stop-color="#20934A"/>
</radialGradient>
<radialGradient id="paint28_radial_1_83" cx="0" cy="0" r="1" gradientUnits="userSpaceOnUse" gradientTransform="translate(475.191 486.339) rotate(44.9216) scale(453.622 453.861)">
<stop stop-color="#E8FF30"/>
<stop offset="0.62" stop-color="#A6CB33"/>
<stop offset="1" stop-color="#20934A"/>
</radialGradient>
<radialGradient id="paint29_radial_1_83" cx="0" cy="0" r="1" gradientUnits="userSpaceOnUse" gradientTransform="translate(475.191 486.339) rotate(44.9216) scale(453.622 453.861)">
<stop stop-color="#E8FF30"/>
<stop offset="0.62" stop-color="#A6CB33"/>
<stop offset="1" stop-color="#20934A"/>
</radialGradient>
<radialGradient id="paint30_radial_1_83" cx="0" cy="0" r="1" gradientUnits="userSpaceOnUse" gradientTransform="translate(475.191 486.339) rotate(44.9216) scale(453.622 453.861)">
<stop stop-color="#E8FF30"/>
<stop offset="0.62" stop-color="#A6CB33"/>
<stop offset="1" stop-color="#20934A"/>
</radialGradient>
<radialGradient id="paint31_radial_1_83" cx="0" cy="0" r="1" gradientUnits="userSpaceOnUse" gradientTransform="translate(475.191 486.339) rotate(44.9216) scale(453.622 453.861)">
<stop stop-color="#E8FF30"/>
<stop offset="0.62" stop-color="#A6CB33"/>
<stop offset="1" stop-color="#20934A"/>
</radialGradient>
<radialGradient id="paint32_radial_1_83" cx="0" cy="0" r="1" gradientUnits="userSpaceOnUse" gradientTransform="translate(475.191 486.339) rotate(44.9216) scale(453.622 453.861)">
<stop stop-color="#E8FF30"/>
<stop offset="0.62" stop-color="#A6CB33"/>
<stop offset="1" stop-color="#20934A"/>
</radialGradient>
<radialGradient id="paint33_radial_1_83" cx="0" cy="0" r="1" gradientUnits="userSpaceOnUse" gradientTransform="translate(475.191 486.339) rotate(44.9216) scale(453.622 453.861)">
<stop stop-color="#E8FF30"/>
<stop offset="0.62" stop-color="#A6CB33"/>
<stop offset="1" stop-color="#20934A"/>
</radialGradient>
<radialGradient id="paint34_radial_1_83" cx="0" cy="0" r="1" gradientUnits="userSpaceOnUse" gradientTransform="translate(475.191 486.339) rotate(44.9216) scale(453.622 453.861)">
<stop stop-color="#E8FF30"/>
<stop offset="0.62" stop-color="#A6CB33"/>
<stop offset="1" stop-color="#20934A"/>
</radialGradient>
<radialGradient id="paint35_radial_1_83" cx="0" cy="0" r="1" gradientUnits="userSpaceOnUse" gradientTransform="translate(475.191 486.339) rotate(44.9216) scale(453.622 453.861)">
<stop stop-color="#E8FF30"/>
<stop offset="0.62" stop-color="#A6CB33"/>
<stop offset="1" stop-color="#20934A"/>
</radialGradient>
<radialGradient id="paint36_radial_1_83" cx="0" cy="0" r="1" gradientUnits="userSpaceOnUse" gradientTransform="translate(475.191 486.339) rotate(44.9216) scale(453.622 453.861)">
<stop stop-color="#E8FF30"/>
<stop offset="0.62" stop-color="#A6CB33"/>
<stop offset="1" stop-color="#20934A"/>
</radialGradient>
<radialGradient id="paint37_radial_1_83" cx="0" cy="0" r="1" gradientUnits="userSpaceOnUse" gradientTransform="translate(475.191 486.339) rotate(44.9216) scale(453.622 453.861)">
<stop stop-color="#E8FF30"/>
<stop offset="0.62" stop-color="#A6CB33"/>
<stop offset="1" stop-color="#20934A"/>
</radialGradient>
<radialGradient id="paint38_radial_1_83" cx="0" cy="0" r="1" gradientUnits="userSpaceOnUse" gradientTransform="translate(475.191 486.339) rotate(44.9216) scale(453.622 453.861)">
<stop stop-color="#E8FF30"/>
<stop offset="0.62" stop-color="#A6CB33"/>
<stop offset="1" stop-color="#20934A"/>
</radialGradient>
<radialGradient id="paint39_radial_1_83" cx="0" cy="0" r="1" gradientUnits="userSpaceOnUse" gradientTransform="translate(475.191 486.339) rotate(44.9216) scale(453.622 453.861)">
<stop stop-color="#E8FF30"/>
<stop offset="0.62" stop-color="#A6CB33"/>
<stop offset="1" stop-color="#20934A"/>
</radialGradient>
<radialGradient id="paint40_radial_1_83" cx="0" cy="0" r="1" gradientUnits="userSpaceOnUse" gradientTransform="translate(475.191 486.339) rotate(44.9216) scale(453.622 453.861)">
<stop stop-color="#E8FF30"/>
<stop offset="0.62" stop-color="#A6CB33"/>
<stop offset="1" stop-color="#20934A"/>
</radialGradient>
<radialGradient id="paint41_radial_1_83" cx="0" cy="0" r="1" gradientUnits="userSpaceOnUse" gradientTransform="translate(475.191 486.339) rotate(44.9216) scale(453.622 453.861)">
<stop stop-color="#E8FF30"/>
<stop offset="0.62" stop-color="#A6CB33"/>
<stop offset="1" stop-color="#20934A"/>
</radialGradient>
<radialGradient id="paint42_radial_1_83" cx="0" cy="0" r="1" gradientUnits="userSpaceOnUse" gradientTransform="translate(475.191 486.339) rotate(44.9216) scale(453.622 453.861)">
<stop stop-color="#E8FF30"/>
<stop offset="0.62" stop-color="#A6CB33"/>
<stop offset="1" stop-color="#20934A"/>
</radialGradient>
<radialGradient id="paint43_radial_1_83" cx="0" cy="0" r="1" gradientUnits="userSpaceOnUse" gradientTransform="translate(475.191 486.339) rotate(44.9216) scale(453.622 453.861)">
<stop stop-color="#E8FF30"/>
<stop offset="0.62" stop-color="#A6CB33"/>
<stop offset="1" stop-color="#20934A"/>
</radialGradient>
<radialGradient id="paint44_radial_1_83" cx="0" cy="0" r="1" gradientUnits="userSpaceOnUse" gradientTransform="translate(475.191 486.339) rotate(44.9216) scale(453.622 453.861)">
<stop stop-color="#E8FF30"/>
<stop offset="0.62" stop-color="#A6CB33"/>
<stop offset="1" stop-color="#20934A"/>
</radialGradient>
<radialGradient id="paint45_radial_1_83" cx="0" cy="0" r="1" gradientUnits="userSpaceOnUse" gradientTransform="translate(475.191 486.339) rotate(44.9216) scale(453.622 453.861)">
<stop stop-color="#E8FF30"/>
<stop offset="0.62" stop-color="#A6CB33"/>
<stop offset="1" stop-color="#20934A"/>
</radialGradient>
<radialGradient id="paint46_radial_1_83" cx="0" cy="0" r="1" gradientUnits="userSpaceOnUse" gradientTransform="translate(475.191 486.339) rotate(44.9216) scale(453.622 453.861)">
<stop stop-color="#E8FF30"/>
<stop offset="0.62" stop-color="#A6CB33"/>
<stop offset="1" stop-color="#20934A"/>
</radialGradient>
<radialGradient id="paint47_radial_1_83" cx="0" cy="0" r="1" gradientUnits="userSpaceOnUse" gradientTransform="translate(475.191 486.339) rotate(44.9216) scale(453.622 453.861)">
<stop stop-color="#E8FF30"/>
<stop offset="0.62" stop-color="#A6CB33"/>
<stop offset="1" stop-color="#20934A"/>
</radialGradient>
<radialGradient id="paint48_radial_1_83" cx="0" cy="0" r="1" gradientUnits="userSpaceOnUse" gradientTransform="translate(475.191 486.339) rotate(44.9216) scale(453.622 453.861)">
<stop stop-color="#E8FF30"/>
<stop offset="0.62" stop-color="#A6CB33"/>
<stop offset="1" stop-color="#20934A"/>
</radialGradient>
<radialGradient id="paint49_radial_1_83" cx="0" cy="0" r="1" gradientUnits="userSpaceOnUse" gradientTransform="translate(475.191 486.339) rotate(44.9216) scale(453.622 453.861)">
<stop stop-color="#E8FF30"/>
<stop offset="0.62" stop-color="#A6CB33"/>
<stop offset="1" stop-color="#20934A"/>
</radialGradient>
<radialGradient id="paint50_radial_1_83" cx="0" cy="0" r="1" gradientUnits="userSpaceOnUse" gradientTransform="translate(475.191 486.339) rotate(44.9216) scale(453.622 453.861)">
<stop stop-color="#E8FF30"/>
<stop offset="0.62" stop-color="#A6CB33"/>
<stop offset="1" stop-color="#20934A"/>
</radialGradient>
<radialGradient id="paint51_radial_1_83" cx="0" cy="0" r="1" gradientUnits="userSpaceOnUse" gradientTransform="translate(475.191 486.339) rotate(44.9216) scale(453.622 453.861)">
<stop stop-color="#E8FF30"/>
<stop offset="0.62" stop-color="#A6CB33"/>
<stop offset="1" stop-color="#20934A"/>
</radialGradient>
<radialGradient id="paint52_radial_1_83" cx="0" cy="0" r="1" gradientUnits="userSpaceOnUse" gradientTransform="translate(475.191 486.339) rotate(44.9216) scale(453.622 453.861)">
<stop stop-color="#E8FF30"/>
<stop offset="0.62" stop-color="#A6CB33"/>
<stop offset="1" stop-color="#20934A"/>
</radialGradient>
<radialGradient id="paint53_radial_1_83" cx="0" cy="0" r="1" gradientUnits="userSpaceOnUse" gradientTransform="translate(475.191 486.339) rotate(44.9216) scale(453.622 453.861)">
<stop stop-color="#E8FF30"/>
<stop offset="0.62" stop-color="#A6CB33"/>
<stop offset="1" stop-color="#20934A"/>
</radialGradient>
<radialGradient id="paint54_radial_1_83" cx="0" cy="0" r="1" gradientUnits="userSpaceOnUse" gradientTransform="translate(475.191 486.339) rotate(44.9216) scale(453.622 453.861)">
<stop stop-color="#E8FF30"/>
<stop offset="0.62" stop-color="#A6CB33"/>
<stop offset="1" stop-color="#20934A"/>
</radialGradient>
<radialGradient id="paint55_radial_1_83" cx="0" cy="0" r="1" gradientUnits="userSpaceOnUse" gradientTransform="translate(475.191 486.339) rotate(44.9216) scale(453.622 453.861)">
<stop stop-color="#E8FF30"/>
<stop offset="0.62" stop-color="#A6CB33"/>
<stop offset="1" stop-color="#20934A"/>
</radialGradient>
<radialGradient id="paint56_radial_1_83" cx="0" cy="0" r="1" gradientUnits="userSpaceOnUse" gradientTransform="translate(475.191 486.339) rotate(44.9216) scale(453.622 453.861)">
<stop stop-color="#E8FF30"/>
<stop offset="0.62" stop-color="#A6CB33"/>
<stop offset="1" stop-color="#20934A"/>
</radialGradient>
<radialGradient id="paint57_radial_1_83" cx="0" cy="0" r="1" gradientUnits="userSpaceOnUse" gradientTransform="translate(475.191 486.339) rotate(44.9216) scale(453.622 453.861)">
<stop stop-color="#E8FF30"/>
<stop offset="0.62" stop-color="#A6CB33"/>
<stop offset="1" stop-color="#20934A"/>
</radialGradient>
<radialGradient id="paint58_radial_1_83" cx="0" cy="0" r="1" gradientUnits="userSpaceOnUse" gradientTransform="translate(475.191 486.339) rotate(44.9216) scale(453.622 453.861)">
<stop stop-color="#E8FF30"/>
<stop offset="0.62" stop-color="#A6CB33"/>
<stop offset="1" stop-color="#20934A"/>
</radialGradient>
<radialGradient id="paint59_radial_1_83" cx="0" cy="0" r="1" gradientUnits="userSpaceOnUse" gradientTransform="translate(475.191 486.339) rotate(44.9216) scale(453.622 453.861)">
<stop stop-color="#E8FF30"/>
<stop offset="0.62" stop-color="#A6CB33"/>
<stop offset="1" stop-color="#20934A"/>
</radialGradient>
<radialGradient id="paint60_radial_1_83" cx="0" cy="0" r="1" gradientUnits="userSpaceOnUse" gradientTransform="translate(475.191 486.339) rotate(44.9216) scale(453.622 453.861)">
<stop stop-color="#E8FF30"/>
<stop offset="0.62" stop-color="#A6CB33"/>
<stop offset="1" stop-color="#20934A"/>
</radialGradient>
<radialGradient id="paint61_radial_1_83" cx="0" cy="0" r="1" gradientUnits="userSpaceOnUse" gradientTransform="translate(475.191 486.339) rotate(44.9216) scale(453.622 453.861)">
<stop stop-color="#E8FF30"/>
<stop offset="0.62" stop-color="#A6CB33"/>
<stop offset="1" stop-color="#20934A"/>
</radialGradient>
<radialGradient id="paint62_radial_1_83" cx="0" cy="0" r="1" gradientUnits="userSpaceOnUse" gradientTransform="translate(475.191 486.339) rotate(44.9216) scale(453.622 453.861)">
<stop stop-color="#E8FF30"/>
<stop offset="0.62" stop-color="#A6CB33"/>
<stop offset="1" stop-color="#20934A"/>
</radialGradient>
<radialGradient id="paint63_radial_1_83" cx="0" cy="0" r="1" gradientUnits="userSpaceOnUse" gradientTransform="translate(475.191 486.339) rotate(44.9216) scale(453.622 453.861)">
<stop stop-color="#E8FF30"/>
<stop offset="0.62" stop-color="#A6CB33"/>
<stop offset="1" stop-color="#20934A"/>
</radialGradient>
<radialGradient id="paint64_radial_1_83" cx="0" cy="0" r="1" gradientUnits="userSpaceOnUse" gradientTransform="translate(475.191 486.339) rotate(44.9216) scale(453.622 453.861)">
<stop stop-color="#E8FF30"/>
<stop offset="0.62" stop-color="#A6CB33"/>
<stop offset="1" stop-color="#20934A"/>
</radialGradient>
<radialGradient id="paint65_radial_1_83" cx="0" cy="0" r="1" gradientUnits="userSpaceOnUse" gradientTransform="translate(475.191 486.339) rotate(44.9216) scale(453.622 453.861)">
<stop stop-color="#E8FF30"/>
<stop offset="0.62" stop-color="#A6CB33"/>
<stop offset="1" stop-color="#20934A"/>
</radialGradient>
<radialGradient id="paint66_radial_1_83" cx="0" cy="0" r="1" gradientUnits="userSpaceOnUse" gradientTransform="translate(475.191 486.339) rotate(44.9216) scale(453.622 453.861)">
<stop stop-color="#E8FF30"/>
<stop offset="0.62" stop-color="#A6CB33"/>
<stop offset="1" stop-color="#20934A"/>
</radialGradient>
<radialGradient id="paint67_radial_1_83" cx="0" cy="0" r="1" gradientUnits="userSpaceOnUse" gradientTransform="translate(475.191 486.339) rotate(44.9216) scale(453.622 453.861)">
<stop stop-color="#E8FF30"/>
<stop offset="0.62" stop-color="#A6CB33"/>
<stop offset="1" stop-color="#20934A"/>
</radialGradient>
<radialGradient id="paint68_radial_1_83" cx="0" cy="0" r="1" gradientUnits="userSpaceOnUse" gradientTransform="translate(475.191 486.339) rotate(44.9216) scale(453.622 453.861)">
<stop stop-color="#E8FF30"/>
<stop offset="0.62" stop-color="#A6CB33"/>
<stop offset="1" stop-color="#20934A"/>
</radialGradient>
<radialGradient id="paint69_radial_1_83" cx="0" cy="0" r="1" gradientUnits="userSpaceOnUse" gradientTransform="translate(475.191 486.339) rotate(44.9216) scale(453.622 453.861)">
<stop stop-color="#E8FF30"/>
<stop offset="0.62" stop-color="#A6CB33"/>
<stop offset="1" stop-color="#20934A"/>
</radialGradient>
<radialGradient id="paint70_radial_1_83" cx="0" cy="0" r="1" gradientUnits="userSpaceOnUse" gradientTransform="translate(475.191 486.339) rotate(44.9216) scale(453.622 453.861)">
<stop stop-color="#E8FF30"/>
<stop offset="0.62" stop-color="#A6CB33"/>
<stop offset="1" stop-color="#20934A"/>
</radialGradient>
<radialGradient id="paint71_radial_1_83" cx="0" cy="0" r="1" gradientUnits="userSpaceOnUse" gradientTransform="translate(475.191 486.339) rotate(44.9216) scale(453.622 453.861)">
<stop stop-color="#E8FF30"/>
<stop offset="0.62" stop-color="#A6CB33"/>
<stop offset="1" stop-color="#20934A"/>
</radialGradient>
<radialGradient id="paint72_radial_1_83" cx="0" cy="0" r="1" gradientUnits="userSpaceOnUse" gradientTransform="translate(475.191 486.339) rotate(44.9216) scale(453.622 453.861)">
<stop stop-color="#E8FF30"/>
<stop offset="0.62" stop-color="#A6CB33"/>
<stop offset="1" stop-color="#20934A"/>
</radialGradient>
<radialGradient id="paint73_radial_1_83" cx="0" cy="0" r="1" gradientUnits="userSpaceOnUse" gradientTransform="translate(475.191 486.339) rotate(44.9216) scale(453.622 453.861)">
<stop stop-color="#E8FF30"/>
<stop offset="0.62" stop-color="#A6CB33"/>
<stop offset="1" stop-color="#20934A"/>
</radialGradient>
<radialGradient id="paint74_radial_1_83" cx="0" cy="0" r="1" gradientUnits="userSpaceOnUse" gradientTransform="translate(475.191 486.339) rotate(44.9216) scale(453.622 453.861)">
<stop stop-color="#E8FF30"/>
<stop offset="0.62" stop-color="#A6CB33"/>
<stop offset="1" stop-color="#20934A"/>
</radialGradient>
<radialGradient id="paint75_radial_1_83" cx="0" cy="0" r="1" gradientUnits="userSpaceOnUse" gradientTransform="translate(475.191 486.339) rotate(44.9216) scale(453.622 453.861)">
<stop stop-color="#E8FF30"/>
<stop offset="0.62" stop-color="#A6CB33"/>
<stop offset="1" stop-color="#20934A"/>
</radialGradient>
<radialGradient id="paint76_radial_1_83" cx="0" cy="0" r="1" gradientUnits="userSpaceOnUse" gradientTransform="translate(475.191 486.339) rotate(44.9216) scale(453.622 453.861)">
<stop stop-color="#E8FF30"/>
<stop offset="0.62" stop-color="#A6CB33"/>
<stop offset="1" stop-color="#20934A"/>
</radialGradient>
<radialGradient id="paint77_radial_1_83" cx="0" cy="0" r="1" gradientUnits="userSpaceOnUse" gradientTransform="translate(475.191 486.339) rotate(44.9216) scale(453.622 453.861)">
<stop stop-color="#E8FF30"/>
<stop offset="0.62" stop-color="#A6CB33"/>
<stop offset="1" stop-color="#20934A"/>
</radialGradient>
<radialGradient id="paint78_radial_1_83" cx="0" cy="0" r="1" gradientUnits="userSpaceOnUse" gradientTransform="translate(475.191 486.339) rotate(44.9216) scale(453.622 453.861)">
<stop stop-color="#E8FF30"/>
<stop offset="0.62" stop-color="#A6CB33"/>
<stop offset="1" stop-color="#20934A"/>
</radialGradient>
<radialGradient id="paint79_radial_1_83" cx="0" cy="0" r="1" gradientUnits="userSpaceOnUse" gradientTransform="translate(475.191 486.339) rotate(44.9216) scale(453.622 453.861)">
<stop stop-color="#E8FF30"/>
<stop offset="0.62" stop-color="#A6CB33"/>
<stop offset="1" stop-color="#20934A"/>
</radialGradient>
<radialGradient id="paint80_radial_1_83" cx="0" cy="0" r="1" gradientUnits="userSpaceOnUse" gradientTransform="translate(475.191 486.339) rotate(44.9216) scale(453.622 453.861)">
<stop stop-color="#E8FF30"/>
<stop offset="0.62" stop-color="#A6CB33"/>
<stop offset="1" stop-color="#20934A"/>
</radialGradient>
<radialGradient id="paint81_radial_1_83" cx="0" cy="0" r="1" gradientUnits="userSpaceOnUse" gradientTransform="translate(475.191 486.339) rotate(44.9216) scale(453.622 453.861)">
<stop stop-color="#E8FF30"/>
<stop offset="0.62" stop-color="#A6CB33"/>
<stop offset="1" stop-color="#20934A"/>
</radialGradient>
<radialGradient id="paint82_radial_1_83" cx="0" cy="0" r="1" gradientUnits="userSpaceOnUse" gradientTransform="translate(475.191 486.339) rotate(44.9216) scale(453.622 453.861)">
<stop stop-color="#E8FF30"/>
<stop offset="0.62" stop-color="#A6CB33"/>
<stop offset="1" stop-color="#20934A"/>
</radialGradient>
<radialGradient id="paint83_radial_1_83" cx="0" cy="0" r="1" gradientUnits="userSpaceOnUse" gradientTransform="translate(475.191 486.339) rotate(44.9216) scale(453.622 453.861)">
<stop stop-color="#E8FF30"/>
<stop offset="0.62" stop-color="#A6CB33"/>
<stop offset="1" stop-color="#20934A"/>
</radialGradient>
<radialGradient id="paint84_radial_1_83" cx="0" cy="0" r="1" gradientUnits="userSpaceOnUse" gradientTransform="translate(475.191 486.339) rotate(44.9216) scale(453.622 453.861)">
<stop stop-color="#E8FF30"/>
<stop offset="0.62" stop-color="#A6CB33"/>
<stop offset="1" stop-color="#20934A"/>
</radialGradient>
<radialGradient id="paint85_radial_1_83" cx="0" cy="0" r="1" gradientUnits="userSpaceOnUse" gradientTransform="translate(475.191 486.339) rotate(44.9216) scale(453.622 453.861)">
<stop stop-color="#E8FF30"/>
<stop offset="0.62" stop-color="#A6CB33"/>
<stop offset="1" stop-color="#20934A"/>
</radialGradient>
<radialGradient id="paint86_radial_1_83" cx="0" cy="0" r="1" gradientUnits="userSpaceOnUse" gradientTransform="translate(475.191 486.339) rotate(44.9216) scale(453.622 453.861)">
<stop stop-color="#E8FF30"/>
<stop offset="0.62" stop-color="#A6CB33"/>
<stop offset="1" stop-color="#20934A"/>
</radialGradient>
<radialGradient id="paint87_radial_1_83" cx="0" cy="0" r="1" gradientUnits="userSpaceOnUse" gradientTransform="translate(475.191 486.339) rotate(44.9216) scale(453.622 453.861)">
<stop stop-color="#E8FF30"/>
<stop offset="0.62" stop-color="#A6CB33"/>
<stop offset="1" stop-color="#20934A"/>
</radialGradient>
<radialGradient id="paint88_radial_1_83" cx="0" cy="0" r="1" gradientUnits="userSpaceOnUse" gradientTransform="translate(475.191 486.339) rotate(44.9216) scale(453.622 453.861)">
<stop stop-color="#E8FF30"/>
<stop offset="0.62" stop-color="#A6CB33"/>
<stop offset="1" stop-color="#20934A"/>
</radialGradient>
<radialGradient id="paint89_radial_1_83" cx="0" cy="0" r="1" gradientUnits="userSpaceOnUse" gradientTransform="translate(475.191 486.339) rotate(44.9216) scale(453.622 453.861)">
<stop stop-color="#E8FF30"/>
<stop offset="0.62" stop-color="#A6CB33"/>
<stop offset="1" stop-color="#20934A"/>
</radialGradient>
<radialGradient id="paint90_radial_1_83" cx="0" cy="0" r="1" gradientUnits="userSpaceOnUse" gradientTransform="translate(475.191 486.339) rotate(44.9216) scale(453.622 453.861)">
<stop stop-color="#E8FF30"/>
<stop offset="0.62" stop-color="#A6CB33"/>
<stop offset="1" stop-color="#20934A"/>
</radialGradient>
<radialGradient id="paint91_radial_1_83" cx="0" cy="0" r="1" gradientUnits="userSpaceOnUse" gradientTransform="translate(475.191 486.339) rotate(44.9216) scale(453.622 453.861)">
<stop stop-color="#E8FF30"/>
<stop offset="0.62" stop-color="#A6CB33"/>
<stop offset="1" stop-color="#20934A"/>
</radialGradient>
<radialGradient id="paint92_radial_1_83" cx="0" cy="0" r="1" gradientUnits="userSpaceOnUse" gradientTransform="translate(475.191 486.339) rotate(44.9216) scale(453.622 453.861)">
<stop stop-color="#E8FF30"/>
<stop offset="0.62" stop-color="#A6CB33"/>
<stop offset="1" stop-color="#20934A"/>
</radialGradient>
<radialGradient id="paint93_radial_1_83" cx="0" cy="0" r="1" gradientUnits="userSpaceOnUse" gradientTransform="translate(475.191 486.339) rotate(44.9216) scale(453.622 453.861)">
<stop stop-color="#E8FF30"/>
<stop offset="0.62" stop-color="#A6CB33"/>
<stop offset="1" stop-color="#20934A"/>
</radialGradient>
<radialGradient id="paint94_radial_1_83" cx="0" cy="0" r="1" gradientUnits="userSpaceOnUse" gradientTransform="translate(475.191 486.339) rotate(44.9216) scale(453.622 453.861)">
<stop stop-color="#E8FF30"/>
<stop offset="0.62" stop-color="#A6CB33"/>
<stop offset="1" stop-color="#20934A"/>
</radialGradient>
<radialGradient id="paint95_radial_1_83" cx="0" cy="0" r="1" gradientUnits="userSpaceOnUse" gradientTransform="translate(475.191 486.339) rotate(44.9216) scale(453.622 453.861)">
<stop stop-color="#E8FF30"/>
<stop offset="0.62" stop-color="#A6CB33"/>
<stop offset="1" stop-color="#20934A"/>
</radialGradient>
<radialGradient id="paint96_radial_1_83" cx="0" cy="0" r="1" gradientUnits="userSpaceOnUse" gradientTransform="translate(475.191 486.339) rotate(44.9216) scale(453.622 453.861)">
<stop stop-color="#E8FF30"/>
<stop offset="0.62" stop-color="#A6CB33"/>
<stop offset="1" stop-color="#20934A"/>
</radialGradient>
<radialGradient id="paint97_radial_1_83" cx="0" cy="0" r="1" gradientUnits="userSpaceOnUse" gradientTransform="translate(475.191 486.339) rotate(44.9216) scale(453.622 453.861)">
<stop stop-color="#E8FF30"/>
<stop offset="0.62" stop-color="#A6CB33"/>
<stop offset="1" stop-color="#20934A"/>
</radialGradient>
<radialGradient id="paint98_radial_1_83" cx="0" cy="0" r="1" gradientUnits="userSpaceOnUse" gradientTransform="translate(475.191 486.339) rotate(44.9216) scale(453.622 453.861)">
<stop stop-color="#E8FF30"/>
<stop offset="0.62" stop-color="#A6CB33"/>
<stop offset="1" stop-color="#20934A"/>
</radialGradient>
<radialGradient id="paint99_radial_1_83" cx="0" cy="0" r="1" gradientUnits="userSpaceOnUse" gradientTransform="translate(475.191 486.339) rotate(44.9216) scale(453.622 453.861)">
<stop stop-color="#E8FF30"/>
<stop offset="0.62" stop-color="#A6CB33"/>
<stop offset="1" stop-color="#20934A"/>
</radialGradient>
<radialGradient id="paint100_radial_1_83" cx="0" cy="0" r="1" gradientUnits="userSpaceOnUse" gradientTransform="translate(475.191 486.339) rotate(44.9216) scale(453.622 453.861)">
<stop stop-color="#E8FF30"/>
<stop offset="0.62" stop-color="#A6CB33"/>
<stop offset="1" stop-color="#20934A"/>
</radialGradient>
<radialGradient id="paint101_radial_1_83" cx="0" cy="0" r="1" gradientUnits="userSpaceOnUse" gradientTransform="translate(475.191 486.339) rotate(44.9216) scale(453.622 453.861)">
<stop stop-color="#E8FF30"/>
<stop offset="0.62" stop-color="#A6CB33"/>
<stop offset="1" stop-color="#20934A"/>
</radialGradient>
<radialGradient id="paint102_radial_1_83" cx="0" cy="0" r="1" gradientUnits="userSpaceOnUse" gradientTransform="translate(475.191 486.339) rotate(44.9216) scale(453.622 453.861)">
<stop stop-color="#E8FF30"/>
<stop offset="0.62" stop-color="#A6CB33"/>
<stop offset="1" stop-color="#20934A"/>
</radialGradient>
<radialGradient id="paint103_radial_1_83" cx="0" cy="0" r="1" gradientUnits="userSpaceOnUse" gradientTransform="translate(475.191 486.339) rotate(44.9216) scale(453.622 453.861)">
<stop stop-color="#E8FF30"/>
<stop offset="0.62" stop-color="#A6CB33"/>
<stop offset="1" stop-color="#20934A"/>
</radialGradient>
<radialGradient id="paint104_radial_1_83" cx="0" cy="0" r="1" gradientUnits="userSpaceOnUse" gradientTransform="translate(475.191 486.339) rotate(44.9216) scale(453.622 453.861)">
<stop stop-color="#E8FF30"/>
<stop offset="0.62" stop-color="#A6CB33"/>
<stop offset="1" stop-color="#20934A"/>
</radialGradient>
<radialGradient id="paint105_radial_1_83" cx="0" cy="0" r="1" gradientUnits="userSpaceOnUse" gradientTransform="translate(475.191 486.339) rotate(44.9216) scale(453.622 453.861)">
<stop stop-color="#E8FF30"/>
<stop offset="0.62" stop-color="#A6CB33"/>
<stop offset="1" stop-color="#20934A"/>
</radialGradient>
<radialGradient id="paint106_radial_1_83" cx="0" cy="0" r="1" gradientUnits="userSpaceOnUse" gradientTransform="translate(475.191 486.339) rotate(44.9216) scale(453.622 453.861)">
<stop stop-color="#E8FF30"/>
<stop offset="0.62" stop-color="#A6CB33"/>
<stop offset="1" stop-color="#20934A"/>
</radialGradient>
<radialGradient id="paint107_radial_1_83" cx="0" cy="0" r="1" gradientUnits="userSpaceOnUse" gradientTransform="translate(475.191 486.339) rotate(44.9216) scale(453.622 453.861)">
<stop stop-color="#E8FF30"/>
<stop offset="0.62" stop-color="#A6CB33"/>
<stop offset="1" stop-color="#20934A"/>
</radialGradient>
</defs>
</svg>
