<svg width="938" height="111" viewBox="0 0 938 111" fill="none" xmlns="http://www.w3.org/2000/svg">
<path d="M0.612501 2.99999H36.0125V80.55H83.4125V108H0.612501V2.99999ZM141.041 29.7V81.3H156.791V108H89.8906V81.3H105.641V29.7H89.8906V2.99999H156.791V29.7H141.041ZM282.734 2.99999L238.334 108H203.534L159.134 2.99999H197.234L222.284 64.35L247.934 2.99999H282.734ZM379.446 101.1C373.846 104 367.096 106.3 359.196 108C351.296 109.6 343.246 110.4 335.046 110.4C323.246 110.4 313.196 109.05 304.896 106.35C296.696 103.55 290.496 99.7 286.296 94.8C282.096 89.8 279.996 84.1 279.996 77.7C279.996 72.4 281.396 67.65 284.196 63.45C287.096 59.25 291.196 56 296.496 53.7C292.496 51.5 289.446 48.65 287.346 45.15C285.346 41.55 284.346 37.6 284.346 33.3C284.346 27.4 286.246 22 290.046 17.1C293.946 12.1 299.846 8.1 307.746 5.09999C315.746 2.1 325.546 0.599997 337.146 0.599997C344.246 0.599997 351.196 1.25 357.996 2.55C364.896 3.75 371.046 5.39999 376.446 7.5L366.846 33.3C357.446 29.5 347.996 27.6 338.496 27.6C332.296 27.6 327.646 28.3 324.546 29.7C321.546 31.1 320.046 33.05 320.046 35.55C320.046 37.65 320.796 39.25 322.296 40.35C323.796 41.45 326.296 42 329.796 42H360.546V68.1H327.396C323.496 68.1 320.546 68.75 318.546 70.05C316.646 71.25 315.696 73 315.696 75.3C315.696 80.7 322.596 83.4 336.396 83.4C341.696 83.4 347.296 82.7 353.196 81.3C359.196 79.8 364.496 77.85 369.096 75.45L379.446 101.1ZM484.463 2.99999C494.163 2.99999 502.613 4.59999 509.813 7.79999C517.013 11 522.563 15.6 526.463 21.6C530.363 27.6 532.313 34.6 532.313 42.6C532.313 50.6 530.363 57.6 526.463 63.6C522.563 69.6 517.013 74.2 509.813 77.4C502.613 80.6 494.163 82.2 484.463 82.2H469.313V108H433.913V2.99999H484.463ZM482.213 54.9C487.013 54.9 490.613 53.85 493.013 51.75C495.413 49.55 496.613 46.5 496.613 42.6C496.613 38.7 495.413 35.7 493.013 33.6C490.613 31.4 487.013 30.3 482.213 30.3H469.313V54.9H482.213ZM588.923 81.6H579.323V108H543.923V2.99999H594.473C604.173 2.99999 612.623 4.59999 619.823 7.79999C627.023 11 632.573 15.6 636.473 21.6C640.373 27.6 642.323 34.6 642.323 42.6C642.323 50.1 640.623 56.65 637.223 62.25C633.823 67.85 628.923 72.3 622.523 75.6L644.573 108H606.773L588.923 81.6ZM606.623 42.6C606.623 38.7 605.423 35.7 603.023 33.6C600.623 31.4 597.023 30.3 592.223 30.3H579.323V54.9H592.223C597.023 54.9 600.623 53.85 603.023 51.75C605.423 49.55 606.623 46.5 606.623 42.6ZM703.541 29.7V81.3H719.291V108H652.391V81.3H668.141V29.7H652.391V2.99999H719.291V29.7H703.541ZM786.602 110.4C775.502 110.4 765.502 108.1 756.602 103.5C747.702 98.8 740.702 92.3 735.602 84C730.602 75.6 728.102 66.1 728.102 55.5C728.102 44.9 730.602 35.45 735.602 27.15C740.702 18.75 747.702 12.25 756.602 7.65C765.502 2.95 775.502 0.599997 786.602 0.599997C796.802 0.599997 805.902 2.4 813.902 6C821.902 9.59999 828.502 14.8 833.702 21.6L811.352 41.55C804.852 33.35 797.202 29.25 788.402 29.25C781.002 29.25 775.052 31.65 770.552 36.45C766.052 41.15 763.802 47.5 763.802 55.5C763.802 63.5 766.052 69.9 770.552 74.7C775.052 79.4 781.002 81.75 788.402 81.75C797.202 81.75 804.852 77.65 811.352 69.45L833.702 89.4C828.502 96.2 821.902 101.4 813.902 105C805.902 108.6 796.802 110.4 786.602 110.4ZM937.991 101.1C932.391 104 925.641 106.3 917.741 108C909.841 109.6 901.791 110.4 893.591 110.4C881.791 110.4 871.741 109.05 863.441 106.35C855.241 103.55 849.041 99.7 844.841 94.8C840.641 89.8 838.541 84.1 838.541 77.7C838.541 72.4 839.941 67.65 842.741 63.45C845.641 59.25 849.741 56 855.041 53.7C851.041 51.5 847.991 48.65 845.891 45.15C843.891 41.55 842.891 37.6 842.891 33.3C842.891 27.4 844.791 22 848.591 17.1C852.491 12.1 858.391 8.1 866.291 5.09999C874.291 2.1 884.091 0.599997 895.691 0.599997C902.791 0.599997 909.741 1.25 916.541 2.55C923.441 3.75 929.591 5.39999 934.991 7.5L925.391 33.3C915.991 29.5 906.541 27.6 897.041 27.6C890.841 27.6 886.191 28.3 883.091 29.7C880.091 31.1 878.591 33.05 878.591 35.55C878.591 37.65 879.341 39.25 880.841 40.35C882.341 41.45 884.841 42 888.341 42H919.091V68.1H885.941C882.041 68.1 879.091 68.75 877.091 70.05C875.191 71.25 874.241 73 874.241 75.3C874.241 80.7 881.141 83.4 894.941 83.4C900.241 83.4 905.841 82.7 911.741 81.3C917.741 79.8 923.041 77.85 927.641 75.45L937.991 101.1Z" fill="#20934A" fill-opacity="0.05"/>
</svg>
