<svg width="65" height="65" viewBox="0 0 65 65" fill="none" xmlns="http://www.w3.org/2000/svg">
<style xmlns="http://www.w3.org/2000/svg">
@keyframes moveText {
    0% {
        transform:translateY(-1px);
    }
	50% {
        transform:translateY(1px);
    }
	100% {
        transform:translateY(-1px);
    }
}

#move {
    animation:moveText 1s ease-in-out infinite;
    animation-fill-mode:forwards;
} 
</style>

<ellipse cx="32.3977" cy="32.5635" rx="25.4851" ry="25.4851" fill="#20934A"/>
<path d="M52.9544 33.7361C52.3465 44.5599 43.3761 53.1497 32.3993 53.1497C21.0289 53.1497 11.8114 43.9329 11.8114 32.5635C11.8114 21.194 21.0289 11.9773 32.3993 11.9773C42.7065 11.9773 51.2447 19.551 52.7512 29.4364H52.3678C50.8647 19.7611 42.4968 12.3562 32.3993 12.3562C21.2382 12.3562 12.1903 21.4033 12.1903 32.5635C12.1903 43.7237 21.2382 52.7708 32.3993 52.7708C43.1668 52.7708 51.9675 44.3506 52.5749 33.7361H52.9544Z" fill="white"/>
<path d="M46.1482 19.0415C48.8799 21.8183 50.7767 25.4188 51.4319 29.4364H51.0722C50.4208 25.5187 48.5661 22.0077 45.9007 19.296C45.7774 19.3351 45.6371 19.3096 45.5342 19.2166L44.4757 18.2607C44.3697 18.165 44.3309 18.0227 44.3621 17.893C41.1014 15.2314 36.9368 13.6351 32.3993 13.6351C32.3122 13.6351 32.2252 13.6357 32.1384 13.6369V13.9334C32.1383 13.9334 32.1385 13.9334 32.1384 13.9334L32.1387 14.2574L32.1575 14.2761C32.1511 14.2762 32.1448 14.2763 32.1384 14.2764V14.585C32.2252 14.5837 32.3122 14.5831 32.3993 14.5831L32.3993 14.914C32.3122 14.914 32.2252 14.9147 32.1384 14.9159V15.2365C32.2252 15.2352 32.3122 15.2346 32.3993 15.2346L32.3993 15.5535C32.3122 15.5535 32.2252 15.5542 32.1384 15.5555V15.6262H31.9594C32.1342 15.6324 32.284 15.7369 32.3551 15.8861C32.3699 15.8861 32.3846 15.886 32.3993 15.886V16.2769C32.3994 16.2769 32.3993 16.2769 32.3993 16.2769L32.3993 16.5375C32.3992 16.5375 32.3993 16.5375 32.3993 16.5375L32.3993 16.9131C32.3994 16.9131 32.3993 16.9131 32.3993 16.9131L32.3993 17.189C32.3992 17.189 32.3993 17.189 32.3993 17.189L32.3993 17.5493C32.3994 17.5493 32.3993 17.5493 32.3993 17.5493L32.3993 17.8404C32.3992 17.8404 32.3993 17.8404 32.3993 17.8404L32.3993 18.1855C32.3994 18.1855 32.3993 18.1855 32.3993 18.1855L32.3993 18.2974C32.3993 18.5493 32.195 18.7535 31.9431 18.7535C31.6912 18.7535 31.487 18.5493 31.487 18.2974V16.0821C31.487 15.8356 31.6825 15.6348 31.9269 15.6262H31.7474V15.5658C31.6823 15.5682 31.6173 15.571 31.5524 15.5742V15.2549C31.6173 15.2518 31.6823 15.249 31.7474 15.2466V14.9259C31.6823 14.9282 31.6173 14.9309 31.5524 14.934V14.6027C31.6173 14.5997 31.6823 14.597 31.7474 14.5947V14.286C31.7402 14.2862 31.733 14.2865 31.7258 14.2867L31.7474 14.2579V13.6461C21.5946 13.9897 13.4694 22.3278 13.4694 32.5635C13.4694 42.5794 21.2494 50.7783 31.0963 51.4477V51.4559H31.2226C31.3105 51.4613 31.3987 51.4661 31.487 51.4702V49.5014H31.6665C31.4221 49.4928 31.2266 49.292 31.2266 49.0455V46.8302C31.2266 46.5783 31.4308 46.3741 31.6827 46.3741C31.9347 46.3741 32.1389 46.5783 32.1389 46.8302V49.0455C32.1389 49.292 31.9433 49.4928 31.6989 49.5014H31.878V49.5656C31.8779 49.5656 31.878 49.5656 31.878 49.5656L31.8781 49.8847C31.8782 49.8847 31.8781 49.8847 31.8781 49.8847L31.878 50.2053C31.8779 50.2053 31.878 50.2053 31.878 50.2053L31.8781 50.5364C31.8782 50.5364 31.8781 50.5364 31.8781 50.5364L31.878 50.8451C31.8779 50.8451 31.878 50.8451 31.878 50.8451L31.8781 51.1881C31.8782 51.1881 31.8781 51.1881 31.8781 51.1881L31.878 51.4848C32.0512 51.4895 32.225 51.4918 32.3993 51.4918C42.4602 51.4918 50.6879 43.6438 51.2935 33.7361H51.6491C51.043 43.8399 42.6563 51.8467 32.3993 51.8467C32.225 51.8467 32.0512 51.8444 31.878 51.8398V51.847H31.487V51.8255C21.2599 51.3493 13.1145 42.9075 13.1145 32.5635C13.1145 22.1318 21.3985 13.6347 31.7474 13.291V13.2806H32.1384V13.2819C32.2252 13.2808 32.3122 13.2802 32.3993 13.2802C37.0275 13.2802 41.275 14.9104 44.5986 17.6279C44.7254 17.5816 44.873 17.6053 44.9802 17.7021L46.0387 18.6581C46.149 18.7577 46.1866 18.9077 46.1482 19.0415Z" fill="white"/>
<path d="M31.0963 50.1655V50.4973C31.0963 50.4973 31.0963 50.4973 31.0963 50.4973L31.0962 50.8067C31.0962 50.8067 31.0962 50.8067 31.0962 50.8067L31.0963 51.1504C21.4133 50.4816 13.766 42.4155 13.766 32.5635C13.766 22.6232 21.5509 14.501 31.3569 13.9603V14.3038C21.7404 14.8441 14.1089 22.8126 14.1089 32.5635C14.1089 42.1374 21.466 49.9932 30.8355 50.7865V50.4768C21.6367 49.6844 14.4175 41.9669 14.4175 32.5635C14.4175 23.9292 20.504 16.7163 28.6209 14.9807V14.9743H28.6509C29.0699 14.8855 29.4943 14.8112 29.9236 14.7521L29.9241 16.2775H28.6209V15.9746C28.312 16.0446 28.0063 16.1231 27.704 16.2097L27.0569 16.3421V16.4093C20.2789 18.6492 15.388 25.0352 15.388 32.5635C15.388 39.9949 20.1539 46.3132 26.7963 48.6292V48.7849L29.663 49.3712L31.0963 49.6318V49.8441C22.1337 49.1779 15.069 41.6956 15.069 32.5635C15.069 24.2906 20.8666 17.3718 28.6209 15.6476V15.3194C20.6882 17.0492 14.7484 24.1128 14.7484 32.5635C14.7484 41.8728 21.9564 49.4987 31.0963 50.1655Z" fill="white"/>
<path d="M26.7963 48.2765C20.341 45.9748 15.7205 39.8087 15.7205 32.5635C15.7205 25.2211 20.4657 18.987 27.0569 16.76V17.1732C27.0566 17.1733 27.0563 17.1734 27.056 17.1735V17.4497C27.0563 17.4496 27.0566 17.4495 27.0569 17.4494V17.8485C21.9541 19.7012 18.0882 24.1323 17.0343 29.5667H17.3155C18.3589 24.2856 22.1071 19.9765 27.0569 18.1424V18.5274C27.0566 18.5275 27.0563 18.5277 27.056 18.5278V18.8398C27.0563 18.8397 27.0566 18.8396 27.0569 18.8395V19.2106C23.1133 20.7896 20.0321 24.0646 18.7156 28.1335H22.7569C22.7569 27.9896 22.8736 27.8729 23.0175 27.8729H25.6236C25.7675 27.8729 25.8842 27.9896 25.8842 28.1335H27.969V28.5244H25.8842C25.8842 28.6683 25.7675 28.785 25.6236 28.785H23.0175C22.8736 28.785 22.7569 28.6683 22.7569 28.5244H18.236C19.4743 24.1748 22.6624 20.6464 26.7954 18.9443V18.6299C22.1754 20.4894 18.6933 24.5797 17.683 29.5667H22.7569C22.7569 29.4228 22.8736 29.3062 23.0175 29.3062H25.6236C25.7675 29.3062 25.8842 29.4228 25.8842 29.5667H27.969V29.9576H25.8842C25.8842 30.1015 25.7675 30.2182 25.6236 30.2182H23.0175C22.8736 30.2182 22.7569 30.1015 22.7569 29.9576H16.5828C17.5195 24.2301 21.4926 19.5235 26.7954 17.5444V17.2665C21.0286 19.3794 16.7895 24.6597 16.1855 31H22.7569C22.7569 30.856 22.8736 30.7394 23.0175 30.7394H25.6236C25.7675 30.7394 25.8842 30.856 25.8842 31H27.969V31.3908H25.8842C25.8842 31.5347 25.7675 31.6514 25.6236 31.6514H23.0175C22.8736 31.6514 22.7569 31.5347 22.7569 31.3908H16.153C16.1254 31.7781 16.1114 32.1692 16.1114 32.5635C16.1114 39.4915 20.4375 45.4091 26.5359 47.7628V47.4831C20.5846 45.1428 16.372 39.345 16.372 32.5635C16.372 32.52 16.3722 32.4766 16.3726 32.4332H22.7569C22.7569 32.2893 22.8736 32.1726 23.0175 32.1726H25.6236C25.7675 32.1726 25.8842 32.2893 25.8842 32.4332H27.969V32.8241H25.8842C25.8842 32.968 25.7675 33.0846 25.6236 33.0846H23.0175C22.8736 33.0846 22.7569 32.968 22.7569 32.8241H17.3861C17.49 38.9241 21.232 44.1381 26.5359 46.3898V46.0729C21.5098 43.8888 17.9404 38.9823 17.6892 33.2149H18.0347C18.2876 38.8874 21.8278 43.705 26.7963 45.809L26.7966 46.6355L26.7963 46.8852C21.1517 44.6756 17.1321 39.2259 17.0257 32.8241H16.7498C16.8569 39.3807 20.9963 44.957 26.7963 47.1812V48.2765Z" fill="white"/>
<path d="M36.6993 46.2875C41.569 44.7636 45.3248 40.7197 46.4391 35.6831L46.9764 34.6534C46.1791 40.2635 42.2193 44.8554 36.9595 46.5668V46.8727C42.3828 45.1462 46.469 40.4223 47.2712 34.6481H47.635C46.8126 40.7143 42.4519 45.6565 36.6993 47.3287V46.2875Z" fill="white"/>
<path d="M46.9352 28.785H47.3073C45.9953 23.593 42.0418 19.4526 36.9599 17.8765L36.9597 18.7528L36.9599 18.9237C41.143 20.3215 44.4698 23.5895 45.9476 27.735L46.5622 28.5228C45.2465 23.9031 41.7311 20.21 37.2204 18.6477V18.3399C41.9771 19.9514 45.6641 23.8817 46.9352 28.785Z" fill="white"/>
<path d="M30.4448 17.0587H27.8387V21.8019H25.7358V25.7263H37.1728V34.596C37.1728 37.978 35.4259 40.6262 31.6824 40.6262C27.9701 40.6262 26.1608 38.68 26.1608 34.8513H22.1054C22.1054 39.4738 24.2433 42.5418 27.5781 43.8552V48.1986H30.1842V44.4963C30.6689 44.5536 31.1689 44.5825 31.6824 44.5825C32.1536 44.5825 32.61 44.5567 33.0508 44.5064V48.1986H35.9175V43.7521C39.3461 42.252 41.2906 38.8478 41.2906 34.596V21.8019H36.1781V17.0587H33.3115V21.8019H30.4448V17.0587Z" fill="white"/>
<path d="M34.6145 27.8729H28.7508V33.9948C28.6661 34.2635 28.6205 34.5484 28.6205 34.8436C28.6205 36.4626 29.9915 37.7752 31.6827 37.7752C33.3738 37.7752 34.7448 36.4626 34.7448 34.8436C34.7448 34.5484 34.6992 34.2635 34.6145 33.9948V27.8729Z" fill="white"/>
<path fill-rule="evenodd" clip-rule="evenodd" d="M32.3993 53.8011C43.999 53.8011 53.4268 44.5032 53.6352 32.9543H52.9836C52.986 32.8243 52.9872 32.694 52.9872 32.5635C52.9872 32.4329 52.986 32.3026 52.9836 32.1726H51.5539V31.7817H52.3207C52.3106 31.5198 52.2954 31.2592 52.2753 31H52.9287C52.9091 30.738 52.8845 30.4774 52.8551 30.2182H53.5107C52.3434 19.5925 43.3368 11.3258 32.3993 11.3258C20.6691 11.3258 11.1599 20.8342 11.1599 32.5635C11.1599 44.2927 20.6691 53.8011 32.3993 53.8011ZM52.6046 32.9543C52.6071 32.8243 52.6083 32.6941 52.6083 32.5635H51.5539V32.9543H52.6046ZM35.2961 52.2893C34.3504 52.4269 33.3832 52.4982 32.3993 52.4982C21.3888 52.4982 12.4629 43.5731 12.4629 32.5635C12.4629 30.7273 12.7112 28.9492 13.176 27.2608C13.0759 27.1987 13.0274 27.0741 13.0661 26.9574L13.5874 25.3842C13.6269 25.2649 13.7443 25.1934 13.8643 25.2072C16.7918 17.8384 23.9871 12.6287 32.3993 12.6287C42.4816 12.6287 50.8158 20.1123 52.1495 29.8273H53.0699C51.7299 19.607 42.9861 11.7167 32.3993 11.7167C20.885 11.7167 11.5508 21.0501 11.5508 32.5635C11.5508 44.0768 20.885 53.4103 32.3993 53.4103C43.6519 53.4103 52.8223 44.4964 53.2334 33.3452H52.3207C51.9751 42.3056 45.7149 49.7491 37.3335 51.8829C37.2924 52.0088 37.186 52.1092 37.0468 52.136L35.6463 52.4061C35.5124 52.4319 35.3815 52.3833 35.2961 52.2893ZM35.2139 51.9304C34.2948 52.0628 33.3551 52.1313 32.3993 52.1313C21.5914 52.1313 12.8299 43.3705 12.8299 32.5635C12.8299 30.7663 13.0722 29.0257 13.5259 27.3726C13.6379 27.3758 13.7434 27.3059 13.7805 27.194L14.3018 25.6208C14.338 25.5116 14.2979 25.3953 14.2104 25.33C17.0872 18.1035 24.1467 12.9956 32.3993 12.9956C42.2786 12.9956 50.448 20.3156 51.779 29.8273H50.8332C49.5158 20.8762 41.8325 13.9958 32.5296 13.9321V14.275C41.6427 14.3386 49.172 21.0663 50.4864 29.8273H49.5994V29.5667C49.5994 29.4537 49.5274 29.3576 49.4269 29.3214C48.0839 22.2257 42.4146 16.6601 35.2653 15.4704V15.1455C42.6305 16.348 48.4638 22.1086 49.774 29.4364H50.1102C48.718 21.4984 42.1185 15.3526 33.963 14.6502V14.8442H33.962V16.1473H35.2653V15.7939C42.2329 16.9759 47.7586 22.3943 49.0991 29.3062H48.7602C47.541 23.1491 42.9325 18.2111 36.9599 16.5172L36.9597 17.3197L36.9599 17.5879C42.1944 19.1797 46.2666 23.4403 47.5918 28.785H47.9786C46.6579 23.3211 42.5372 18.9499 37.2204 17.2752V17.0022C42.8496 18.7439 47.1737 23.4556 48.3614 29.3062H48.166C48.0221 29.3062 47.9054 29.4228 47.9054 29.5667V29.8273H47.2539L44.9084 27.2215H43.6054V26.8306H42.3024V28.1335H43.6054V27.6124H44.9084L47.2539 30.2182H47.9054V30.6091H47.1236L45.6903 29.1759H43.6054V28.785H42.3024V30.0879H43.6054V29.5667H45.6903L47.1236 31H47.9054V31.3908H43.6054V31H42.3024V32.3029H43.6054V31.7817H47.9054V32.1726H47.1236L45.6903 33.6058H43.6054V33.2149H42.3024V34.5179H43.6054V33.9967H45.6903L47.1236 32.5635H47.9054V32.9543H47.2539L45.6903 35.5602H43.6054V35.039H42.3024V36.3419H43.6054V35.9511H45.6903L47.2539 33.3452H47.9054V33.8664C47.9054 34.0103 48.0221 34.127 48.166 34.127H48.6131C47.9733 40.844 43.2534 46.3713 36.9595 48.2031V47.9314C42.9451 46.1583 47.4691 40.9841 48.2923 34.6481H47.9133C47.0855 40.8673 42.6051 45.9322 36.6993 47.6158L36.6989 48.4595L36.6993 48.6814C43.3403 46.9145 48.3525 41.1531 49.0058 34.127H49.3398C48.5562 42.7243 41.3748 49.4728 32.5961 49.5723L32.269 49.6318V49.8919L32.3532 49.8923L32.3993 49.8924C41.7086 49.8924 49.3035 42.5529 49.7123 33.3452H49.8948C49.9399 33.4231 50.0241 33.4755 50.1206 33.4755H50.6674C50.1942 43.1095 42.2659 50.7839 32.5297 50.8519V50.5434C42.0075 50.4761 49.7422 43.077 50.3435 33.7361H50.0119C49.4083 42.9369 41.7536 50.2129 32.3993 50.2129C32.3559 50.2129 32.3124 50.2127 32.269 50.2124V50.5434C32.269 50.5434 32.269 50.5434 32.269 50.5434V51.1948C32.3124 51.1951 32.3559 51.1953 32.3993 51.1953C42.3844 51.1953 50.5351 43.3419 51.0107 33.4755H51.2933C51.3898 33.4755 51.474 33.4231 51.519 33.3452H51.9535C51.6084 42.1273 45.475 49.4225 37.2621 51.5224C37.177 51.4228 37.0422 51.3704 36.9043 51.397L35.5038 51.6671C35.3608 51.6946 35.2524 51.7998 35.2139 51.9304ZM49.86 32.9543V32.5635H49.5994V32.9543H49.86ZM49.86 32.1726H49.7253C49.7224 32.0419 49.7181 31.9116 49.7123 31.7817H49.86V32.1726ZM49.8948 31.3908H49.6906C49.6819 31.2601 49.6717 31.1298 49.6601 31H51.9448V31.3908H51.519C51.474 31.3129 51.3898 31.2605 51.2933 31.2605H50.1206C50.0241 31.2605 49.9399 31.3129 49.8948 31.3908ZM52.515 30.6091C52.5025 30.4784 52.4887 30.3481 52.4737 30.2182H49.5994V30.6091H52.515Z" fill="white"/>
<g id="move">
<g><animateTransform xmlns="http://www.w3.org/2000/svg" attributeName="transform" attributeType="XML" type="rotate" from="360 33 33" to="0 33 33" dur="0.6s" repeatCount="indefinite"/>
<path d="M0.396976 26.9806C2.72941 13.5176 13.351 2.89594 26.814 0.563494V5.90092C16.251 8.10007 7.93195 16.4181 5.73131 26.9806H0.396976Z" fill="#C5D82E"/>
<path d="M0.396973 38.1464C2.7294 51.6094 13.351 62.231 26.814 64.5635V59.2269C16.2507 57.0277 7.93148 48.7093 5.73112 38.1464H0.396973Z" fill="#C5D82E"/>
<path d="M59.0559 38.1464C56.856 48.707 48.5399 57.0241 37.9798 59.2255V64.5635C51.4429 62.2311 62.0645 51.6094 64.397 38.1464H59.0559Z" fill="#C5D82E"/>
<path d="M64.397 26.9806C62.0645 13.5175 51.4429 2.89589 37.9798 0.563477V5.90234C48.5396 8.10366 56.8555 16.4204 59.0557 26.9806H64.397Z" fill="#C5D82E"/>
</g>
</g>
</svg>
