<svg width="207" height="55" viewBox="0 0 207 55" fill="none" xmlns="http://www.w3.org/2000/svg">
<path fill-rule="evenodd" clip-rule="evenodd" d="M80.7946 36.8282C77.5054 42.1213 71.5697 45.6547 64.7936 45.6547C54.4482 45.6547 46.0617 37.4186 46.0617 27.2589C46.0617 17.0991 54.4482 8.86304 64.7936 8.86304C71.9104 8.86304 78.1003 12.7608 81.2706 18.5012C81.1799 18.5748 81.0905 18.6498 81.0024 18.7262C77.9012 13.0565 71.8058 9.20161 64.7936 9.20161C54.6386 9.20161 46.4065 17.2861 46.4065 27.2589C46.4065 37.2316 54.6386 45.3161 64.7936 45.3161C71.4725 45.3161 77.3197 41.819 80.5401 36.5875C80.6236 36.6692 80.7084 36.7494 80.7946 36.8282ZM80.3737 36.4213C77.2 41.6148 71.4101 45.0904 64.7936 45.0904C54.7656 45.0904 46.6363 37.1069 46.6363 27.2589C46.6363 17.4108 54.7656 9.42733 64.7936 9.42733C71.7384 9.42733 77.7727 13.2564 80.8266 18.8821C80.7416 18.9593 80.6579 19.0378 80.5754 19.1176C77.5918 13.5511 71.644 9.75552 64.7936 9.75552C54.9501 9.75552 46.9705 17.592 46.9705 27.2589C46.9705 36.9257 54.9501 44.7622 64.7936 44.7622C71.3229 44.7622 77.0322 41.3142 80.1365 36.171C80.2143 36.2558 80.2933 36.3392 80.3737 36.4213ZM79.9693 35.9846C77.625 39.9084 73.7477 42.8424 69.1452 43.9932C69.109 44.1022 69.0151 44.1891 68.8923 44.2124L67.6571 44.4463C67.5391 44.4686 67.4236 44.4266 67.3483 44.3451C66.5143 44.4644 65.6613 44.5261 64.7936 44.5261C55.0829 44.5261 47.2109 36.7953 47.2109 27.2589C47.2109 25.6684 47.4299 24.1282 47.8398 22.6657C47.7515 22.612 47.7088 22.504 47.7429 22.4029L48.2026 21.0402C48.2375 20.937 48.3409 20.875 48.4468 20.8869C51.0287 14.5042 57.3745 9.99161 64.7936 9.99161C71.5788 9.99161 77.4663 13.7661 80.3978 19.2936C80.3183 19.3744 80.24 19.4564 80.163 19.5397C77.3035 14.0598 71.4945 10.3094 64.7936 10.3094C57.5153 10.3094 51.2892 14.7338 48.7521 20.9933C48.8292 21.0499 48.8646 21.1506 48.8327 21.2452L48.3729 22.6079C48.3402 22.7048 48.2471 22.7654 48.1483 22.7626C47.7482 24.1945 47.5345 25.7022 47.5345 27.2589C47.5345 36.6198 55.2616 44.2083 64.7936 44.2083C65.6364 44.2083 66.4652 44.149 67.2758 44.0343C67.3098 43.9211 67.4053 43.83 67.5315 43.8062L68.7667 43.5723C68.8883 43.5492 69.0071 43.5946 69.0822 43.6809C73.6312 42.5386 77.4569 39.6212 79.7489 35.7246C79.8211 35.8125 79.8946 35.8992 79.9693 35.9846ZM79.5815 35.5157C76.6547 40.5604 71.1286 43.9618 64.7936 43.9618C64.6398 43.9618 64.4865 43.9598 64.3337 43.9558V43.9621H63.9889V43.9434C54.9692 43.5309 47.7855 36.2188 47.7855 27.2589C47.7855 18.223 55.0915 10.863 64.2186 10.5653V10.5562H64.5634V10.5574C64.64 10.5564 64.7167 10.5559 64.7936 10.5559C68.8753 10.5559 72.6213 11.968 75.5525 14.3219C75.6644 14.2818 75.7946 14.3023 75.8891 14.3861L76.8226 15.2142C76.9199 15.3004 76.9531 15.4304 76.9192 15.5462C78.1484 16.7734 79.1859 18.1863 79.9841 19.7381C79.9098 19.8226 79.8368 19.9084 79.765 19.9953C78.9747 18.4274 77.9366 17.0014 76.7009 15.7667C76.5922 15.8006 76.4685 15.7785 76.3777 15.698L75.4442 14.8699C75.3507 14.787 75.3164 14.6638 75.3439 14.5515C72.4682 12.246 68.7953 10.8633 64.7936 10.8633C64.7167 10.8633 64.64 10.8638 64.5634 10.8648V11.1217L64.5637 11.4023L64.5803 11.4186L64.5634 11.4188V11.6861C64.64 11.685 64.7167 11.6845 64.7936 11.6845L64.7935 11.9711C64.7167 11.9711 64.64 11.9717 64.5634 11.9728V12.2504C64.64 12.2493 64.7167 12.2488 64.7936 12.2488L64.7935 12.525C64.7167 12.525 64.64 12.5256 64.5634 12.5267V12.588H64.4055C64.5597 12.5933 64.6918 12.6839 64.7546 12.8131L64.7936 12.8131V13.1516L64.7935 13.3773L64.7936 13.7027L64.7935 13.9416L64.7936 14.2538L64.7935 14.5059L64.7936 14.8048L64.7935 14.9017C64.7935 15.1199 64.6134 15.2968 64.3912 15.2968C64.169 15.2968 63.9889 15.1199 63.9889 14.9017V12.9828C63.9889 12.7694 64.1613 12.5954 64.3769 12.588H64.2186V12.5357C64.1612 12.5378 64.1038 12.5402 64.0466 12.543V12.2664C64.1038 12.2637 64.1612 12.2613 64.2186 12.2592V11.9814C64.1612 11.9834 64.1038 11.9858 64.0466 11.9884V11.7015C64.1038 11.6988 64.1612 11.6965 64.2186 11.6945V11.4271L64.1995 11.4278L64.2186 11.4028V10.8729C55.2644 11.1705 48.0985 18.3928 48.0985 27.2589C48.0985 35.9345 54.96 43.0364 63.6444 43.6162V43.6232H63.7557C63.8333 43.6279 63.911 43.6321 63.9889 43.6357V41.9303H64.1473C63.9317 41.9229 63.7593 41.7489 63.7593 41.5354V39.6165C63.7593 39.3984 63.9394 39.2215 64.1616 39.2215C64.3837 39.2215 64.5638 39.3984 64.5638 39.6165V41.5354C64.5638 41.7489 64.3914 41.9229 64.1758 41.9303H64.3337V41.9859L64.3339 42.2623L64.3337 42.5401L64.3339 42.8268L64.3337 43.0942L64.3339 43.3913L64.3337 43.6483C64.4865 43.6524 64.6398 43.6544 64.7936 43.6544C71.0613 43.6544 76.5223 40.2624 79.3772 35.2457C79.444 35.337 79.5122 35.427 79.5815 35.5157ZM79.2101 35.0116C76.4174 40.0095 71.0084 43.3975 64.7936 43.3975C64.7552 43.3975 64.7169 43.3974 64.6786 43.3971V42.8328V42.5462C64.7169 42.5465 64.7552 42.5466 64.7935 42.5466C70.8567 42.5466 76.1103 39.1424 78.6806 34.1741C78.7375 34.2731 78.7956 34.371 78.855 34.4677C76.2231 39.4088 70.97 42.7906 64.9085 42.8328V43.1001C71.0177 43.0582 76.3198 39.6812 79.0212 34.7306C79.0829 34.8255 79.1459 34.9192 79.2101 35.0116ZM78.5157 33.8771C76.0251 38.8481 70.8161 42.2689 64.7936 42.2689L64.7528 42.2689L64.6786 42.2685V42.0432L64.9671 41.9917C70.8806 41.9259 75.9724 38.5002 78.3557 33.5672C78.4074 33.6712 78.4607 33.7745 78.5157 33.8771ZM78.1934 33.2265C76.3897 37.1264 72.8725 40.0999 68.5859 41.22L68.5855 41.0278L68.5859 40.297C72.8033 39.1162 76.1966 36.015 77.7228 32.0177C77.7749 32.1775 77.8304 32.3359 77.8893 32.4931C76.2817 36.3683 72.9424 39.3697 68.8154 40.5704V40.8057C72.961 39.6207 76.3324 36.6502 78.0087 32.7984C78.0673 32.9422 78.1288 33.0849 78.1934 33.2265ZM77.1502 29.154L76.5153 30.1932H74.6766V30.5317H73.5274V29.4032H74.6766V29.8546H76.5153L77.1274 28.8528C77.134 28.9535 77.1416 29.0539 77.1502 29.154ZM77.2295 29.8598L77.1757 29.9611C76.193 34.3237 72.8807 37.8264 68.5859 39.1465V40.0483C72.8024 38.8445 76.171 35.6843 77.605 31.6347C77.5514 31.4494 77.5021 31.2626 77.4572 31.0741C76.1875 35.1435 72.9399 38.3637 68.8154 39.6534V39.3884C72.9742 38.0594 76.2115 34.7249 77.3436 30.5474C77.2996 30.3203 77.2616 30.0911 77.2295 29.8598ZM77.0959 27.9302L76.5153 28.5003H74.6766V28.9517H73.5274V27.8231H74.6766V28.1617H76.5153L77.0983 27.5892C77.0966 27.6825 77.0958 27.776 77.0958 27.8698C77.0958 27.8899 77.0958 27.91 77.0959 27.9302ZM77.1506 26.5817H74.6766V27.0331H73.5274V25.9046H74.6766V26.2431H77.1841C77.1716 26.3555 77.1604 26.4684 77.1506 26.5817ZM77.2993 25.4331L76.5153 24.6631H74.6766V25.1146H73.5274V23.986H74.6766V24.3246H76.5153L77.3525 25.1467C77.3337 25.2418 77.316 25.3372 77.2993 25.4331ZM77.4413 24.733L75.8258 22.9703H74.6766V23.4217H73.5274V22.2931H74.6766V22.6317H75.8258L77.5066 24.4657C77.4839 24.5545 77.4621 24.6436 77.4413 24.733ZM77.64 23.986H77.6133C76.4922 19.7388 73.2406 16.3344 69.0454 14.9386V15.2052C73.0236 16.5584 76.1239 19.7573 77.2843 23.7589L76.7423 23.0765C75.439 19.4857 72.505 16.655 68.8157 15.4443L68.8155 15.2963L68.8157 14.5372C73.1304 15.8514 76.5228 19.2243 77.8023 23.4866C77.7446 23.6517 77.6905 23.8181 77.64 23.986ZM77.94 23.1135C76.5622 18.8959 73.1383 15.5782 68.8157 14.2872L68.8155 14.0549L68.8157 13.3597C73.2314 14.5897 76.8017 17.7944 78.4743 21.9405C78.4022 22.0775 78.333 22.2157 78.2669 22.3552C76.7243 18.269 73.3094 15.0756 69.0454 13.7798V14.0163C73.2847 15.3278 76.6618 18.5484 78.1314 22.6514C78.0642 22.8041 78.0004 22.9582 77.94 23.1135ZM78.6547 21.6109C76.7094 17.0118 72.46 13.5894 67.3211 12.7332V13.0394H66.1718V11.9106H66.1726V11.7425C71.9676 12.2328 76.8718 15.7836 79.2011 20.741C79.1366 20.8341 79.0733 20.9285 79.0113 21.024C76.9117 16.4134 72.555 13.0109 67.3211 12.1716V12.4531C72.505 13.3003 76.8067 16.7096 78.8309 21.3111C78.7709 21.4099 78.7122 21.5098 78.6547 21.6109ZM79.3812 20.4883C76.8116 15.158 71.302 11.4614 64.9085 11.4176V11.1206C71.3657 11.164 76.9382 14.8648 79.5853 20.219C79.516 20.3075 79.448 20.3973 79.3812 20.4883ZM63.6444 42.793V42.5056C55.5836 41.9279 49.2266 35.3225 49.2266 27.2589C49.2266 19.9389 54.465 13.8206 61.4612 12.3222V12.6066C54.6224 14.1 49.5093 20.093 49.5093 27.2589C49.5093 35.1691 55.7399 41.6501 63.6444 42.2271V42.0432L62.3802 41.8175L59.852 41.3097V41.1748C53.9939 39.1687 49.7906 33.6959 49.7906 27.2589C49.7906 20.738 54.1041 15.2065 60.0819 13.2663V13.2081L60.6526 13.0934C60.9191 13.0184 61.1888 12.9504 61.4612 12.8898V13.1521H62.6106L62.6101 11.8309C62.2315 11.8821 61.8572 11.9464 61.4876 12.0234H61.4612V12.0289C54.3026 13.5322 48.9347 19.7799 48.9347 27.2589C48.9347 35.404 55.3016 42.0888 63.4144 42.7752V43.0434C55.1511 42.3563 48.6625 35.5517 48.6625 27.2589C48.6625 18.8128 55.393 11.9105 63.8742 11.4425V11.145C55.2259 11.6134 48.3601 18.6487 48.3601 27.2589C48.3601 35.7926 55.1046 42.7794 63.6444 43.3587L63.6443 43.0609L63.6444 42.793ZM59.852 40.8693C54.1588 38.8756 50.0839 33.5346 50.0839 27.2589C50.0839 20.899 54.2688 15.4991 60.0819 13.57V13.928L60.0811 13.9283V14.1675L60.0819 14.1672V14.5129C55.5815 16.1177 52.172 19.9559 51.2426 24.6631H51.4905C52.4108 20.0887 55.7165 16.3561 60.0819 14.7675V15.101L60.0811 15.1013V15.3716L60.0819 15.3713V15.6928C56.6039 17.0604 53.8864 19.8973 52.7254 23.4217H56.2895C56.2895 23.297 56.3924 23.196 56.5194 23.196H58.8177C58.9447 23.196 59.0476 23.297 59.0476 23.4217H60.8863V23.7603H59.0476C59.0476 23.8849 58.9447 23.986 58.8177 23.986H56.5194C56.3924 23.986 56.2895 23.8849 56.2895 23.7603H52.3024C53.3945 19.9927 56.2062 16.9364 59.8512 15.4621V15.1897C55.7767 16.8004 52.7057 20.3434 51.8147 24.6631H56.2895C56.2895 24.5385 56.3924 24.4374 56.5194 24.4374H58.8177C58.9447 24.4374 59.0476 24.5385 59.0476 24.6631H60.8863V25.0017H59.0476C59.0476 25.1264 58.9447 25.2274 58.8177 25.2274H56.5194C56.3924 25.2274 56.2895 25.1264 56.2895 25.0017H50.8444C51.6705 20.0406 55.1745 15.9638 59.8512 14.2495V14.0088C54.7653 15.839 51.0266 20.4127 50.494 25.9046H56.2895C56.2895 25.7799 56.3924 25.6788 56.5194 25.6788H58.8177C58.9447 25.6788 59.0476 25.7799 59.0476 25.9046H60.8863V26.2431H59.0476C59.0476 26.3678 58.9447 26.4689 58.8177 26.4689H56.5194C56.3924 26.4689 56.2895 26.3678 56.2895 26.2431H50.4653C50.441 26.5786 50.4286 26.9173 50.4286 27.2589C50.4286 33.2598 54.244 38.3856 59.6224 40.4244V40.1821C54.3737 38.1549 50.6585 33.133 50.6585 27.2589C50.6585 27.2212 50.6586 27.1836 50.6589 27.146H56.2895C56.2895 27.0213 56.3924 26.9203 56.5194 26.9203H58.8177C58.9447 26.9203 59.0476 27.0213 59.0476 27.146H60.8863V27.4846H59.0476C59.0476 27.6092 58.9447 27.7103 58.8177 27.7103H56.5194C56.3924 27.7103 56.2895 27.6092 56.2895 27.4846H51.5529C51.6444 32.7684 54.9447 37.2847 59.6224 39.2351V38.9606C55.1896 37.0687 52.0416 32.8188 51.8202 27.8231H52.1248C52.3479 32.7366 55.4701 36.9095 59.852 38.732L59.8523 39.4479L59.852 39.6642C54.8738 37.7503 51.3288 33.0298 51.235 27.4846H50.9916C51.0861 33.1639 54.7368 37.994 59.852 39.9205V40.8693ZM60.7714 13.8288H63.0698V17.9373H65.598V13.8288H68.1262V17.9373H72.6351V29.0195C72.6351 32.7022 70.9201 35.651 67.8964 36.9503V40.8018H65.3681V37.6037C64.9793 37.6473 64.5769 37.6696 64.1613 37.6696C63.7084 37.6696 63.2674 37.6446 62.8399 37.5949V40.8018H60.5415V37.0397C57.6005 35.902 55.7149 33.2445 55.7149 29.2405H59.2916C59.2916 32.5569 60.8873 34.2427 64.1613 34.2427C67.4628 34.2427 69.0035 31.9489 69.0035 29.0195V21.3366H58.9167V17.9373H60.7714V13.8288ZM66.7472 23.196H61.5758V28.4987C61.5011 28.7314 61.4609 28.9782 61.4609 29.2339C61.4609 30.6363 62.67 31.7732 64.1615 31.7732C65.653 31.7732 66.8621 30.6363 66.8621 29.2339C66.8621 28.9782 66.8219 28.7314 66.7472 28.4987V23.196Z" fill="#C5D82E"/>
<path d="M87.6459 41.8671C82.8132 49.2375 74.4783 54.1053 65.0065 54.1053C55.5348 54.1053 47.1999 49.2375 42.3672 41.8671H44.7172C49.287 48.1149 56.6727 52.1729 65.0063 52.1729C73.3398 52.1729 80.7255 48.1149 85.2953 41.8671H87.6459Z" fill="url(#paint0_linear_877_1299)"/>
<path d="M88.44 13.5263C83.7625 5.44026 75.0198 0 65.0065 0C54.9933 0 46.2506 5.44026 41.5731 13.5263H43.8349C48.2989 6.55383 56.1128 1.93229 65.0063 1.93229C73.8997 1.93229 81.7136 6.55383 86.1776 13.5263H88.44Z" fill="url(#paint1_linear_877_1299)"/>
<path fill-rule="evenodd" clip-rule="evenodd" d="M199.459 18.6601C198.556 18.6601 197.777 18.1318 197.414 17.3675L183.891 17.3675L185.399 15.4283H197.414C197.777 14.6638 198.556 14.1353 199.459 14.1353C200.708 14.1353 201.721 15.1482 201.721 16.3977C201.721 17.6472 200.708 18.6601 199.459 18.6601ZM199.459 17.3672C198.923 17.3672 198.489 16.9331 198.489 16.3976C198.489 15.8621 198.923 15.428 199.459 15.428C199.994 15.428 200.428 15.8621 200.428 16.3976C200.428 16.9331 199.994 17.3672 199.459 17.3672ZM202.693 31.2649C203.056 30.5006 203.835 29.9721 204.738 29.9721C205.987 29.9721 207 30.9851 207 32.2346C207 33.4841 205.987 34.497 204.738 34.497C203.835 34.497 203.056 33.9685 202.693 33.2041H187.662L186.153 31.2649L202.693 31.2649ZM171.07 40.7455H194.397C194.76 41.51 195.54 42.0385 196.442 42.0385C197.692 42.0385 198.705 41.0255 198.705 39.776C198.705 38.5265 197.692 37.5136 196.442 37.5136C195.54 37.5136 194.761 38.042 194.398 38.8063L169.562 38.8063L171.07 40.7455ZM191.381 24.1546C191.744 24.919 192.523 25.4474 193.425 25.4474C194.675 25.4474 195.688 24.4345 195.688 23.185C195.688 21.9355 194.675 20.9226 193.425 20.9226C192.523 20.9226 191.744 21.451 191.381 22.2154H188.416L186.908 24.1546L191.381 24.1546ZM196.442 38.8064C195.907 38.8064 195.473 39.2405 195.473 39.776C195.473 40.3115 195.907 40.7456 196.442 40.7456C196.978 40.7456 197.412 40.3115 197.412 39.776C197.412 39.2405 196.978 38.8064 196.442 38.8064ZM203.768 32.2345C203.768 31.699 204.202 31.2648 204.738 31.2648C205.273 31.2648 205.707 31.699 205.707 32.2345C205.707 32.77 205.273 33.2041 204.738 33.2041C204.202 33.2041 203.768 32.77 203.768 32.2345ZM192.456 23.1851C192.456 23.7206 192.89 24.1547 193.426 24.1547C193.961 24.1547 194.395 23.7206 194.395 23.1851C194.395 22.6496 193.961 22.2155 193.426 22.2155C192.89 22.2155 192.456 22.6496 192.456 23.1851Z" fill="url(#paint2_linear_877_1299)"/>
<path d="M92.9093 39.2063L93.8665 40.9358L94.8297 39.2063H95.7331L94.2853 41.5573V42.9149H93.4507V41.5573L92 39.2063H92.9093Z" fill="#C5D82E"/>
<path d="M96.3845 41.565V41.5115C96.3845 41.3094 96.4184 41.1235 96.4862 40.9536C96.554 40.7821 96.6528 40.6336 96.7824 40.5079C96.912 40.3822 97.0705 40.2846 97.258 40.215C97.4454 40.1437 97.6588 40.108 97.8981 40.108C98.1414 40.108 98.3568 40.1437 98.5442 40.215C98.7337 40.2846 98.8932 40.3822 99.0228 40.5079C99.1524 40.6336 99.2511 40.7821 99.3189 40.9536C99.3867 41.1235 99.4206 41.3094 99.4206 41.5115V41.565C99.4206 41.7653 99.3867 41.9513 99.3189 42.1228C99.2511 42.2926 99.1524 42.4412 99.0228 42.5685C98.8932 42.6942 98.7347 42.7918 98.5472 42.8614C98.3598 42.9311 98.1454 42.9659 97.9041 42.9659C97.6648 42.9659 97.4504 42.9311 97.261 42.8614C97.0715 42.7918 96.912 42.6942 96.7824 42.5685C96.6528 42.4412 96.554 42.2926 96.4862 42.1228C96.4184 41.9513 96.3845 41.7653 96.3845 41.565ZM97.1742 41.5115V41.565C97.1742 41.6855 97.1882 41.7984 97.2161 41.9037C97.244 42.009 97.2869 42.1015 97.3447 42.1814C97.4026 42.2612 97.4773 42.324 97.5691 42.3698C97.6628 42.414 97.7745 42.4361 97.9041 42.4361C98.0317 42.4361 98.1414 42.414 98.2331 42.3698C98.3249 42.324 98.3996 42.2612 98.4575 42.1814C98.5173 42.1015 98.5612 42.009 98.5891 41.9037C98.617 41.7984 98.631 41.6855 98.631 41.565V41.5115C98.631 41.3926 98.617 41.2814 98.5891 41.1778C98.5612 41.0725 98.5173 40.98 98.4575 40.9002C98.3996 40.8186 98.3239 40.755 98.2301 40.7091C98.1384 40.6616 98.0277 40.6378 97.8981 40.6378C97.7705 40.6378 97.6608 40.6616 97.5691 40.7091C97.4773 40.755 97.4026 40.8186 97.3447 40.9002C97.2869 40.98 97.244 41.0725 97.2161 41.1778C97.1882 41.2814 97.1742 41.3926 97.1742 41.5115Z" fill="#C5D82E"/>
<path d="M102.534 42.2603V40.1589H103.33V42.9149H102.582L102.534 42.2603ZM102.636 41.6898L102.881 41.6847C102.881 41.8698 102.857 42.0404 102.809 42.1966C102.761 42.3529 102.686 42.4887 102.585 42.6042C102.485 42.7179 102.358 42.8071 102.205 42.8716C102.051 42.9345 101.87 42.9659 101.66 42.9659C101.501 42.9659 101.355 42.9472 101.224 42.9098C101.092 42.8708 100.978 42.8105 100.883 42.729C100.789 42.6458 100.716 42.5397 100.664 42.4106C100.613 42.2798 100.587 42.1228 100.587 41.9394V40.1589H101.376V41.9445C101.376 42.0362 101.388 42.1126 101.412 42.1737C101.438 42.2348 101.473 42.2849 101.517 42.324C101.563 42.3614 101.616 42.3885 101.675 42.4055C101.737 42.4208 101.803 42.4284 101.873 42.4284C102.064 42.4284 102.215 42.3962 102.325 42.3316C102.436 42.2654 102.516 42.1771 102.564 42.0667C102.612 41.9547 102.636 41.829 102.636 41.6898Z" fill="#C5D82E"/>
<path d="M105.432 40.7219V42.9149H104.642V40.1589H105.39L105.432 40.7219ZM106.416 40.1411L106.404 40.7677C106.36 40.7609 106.31 40.7558 106.254 40.7524C106.201 40.749 106.15 40.7473 106.102 40.7473C105.98 40.7473 105.874 40.7618 105.782 40.7906C105.69 40.8178 105.613 40.8577 105.551 40.9103C105.492 40.963 105.446 41.0275 105.414 41.1039C105.382 41.1786 105.364 41.2635 105.36 41.3586L105.19 41.3408C105.19 41.1659 105.21 41.0037 105.252 40.8543C105.294 40.7049 105.355 40.5741 105.435 40.462C105.515 40.35 105.614 40.2634 105.734 40.2022C105.856 40.1394 105.995 40.108 106.153 40.108C106.197 40.108 106.243 40.1114 106.293 40.1182C106.345 40.1233 106.386 40.1309 106.416 40.1411Z" fill="#C5D82E"/>
<path d="M112.083 39.2063H112.906V41.6694C112.906 41.953 112.834 42.1915 112.69 42.3851C112.547 42.577 112.351 42.7222 112.104 42.8207C111.857 42.9175 111.576 42.9659 111.261 42.9659C110.941 42.9659 110.657 42.9175 110.408 42.8207C110.159 42.7222 109.963 42.577 109.822 42.3851C109.68 42.1915 109.609 41.953 109.609 41.6694V39.2063H110.432V41.6694C110.432 41.8426 110.466 41.9844 110.534 42.0948C110.601 42.2034 110.697 42.2841 110.821 42.3367C110.944 42.3894 111.091 42.4157 111.261 42.4157C111.432 42.4157 111.579 42.3894 111.7 42.3367C111.824 42.2841 111.919 42.2034 111.984 42.0948C112.05 41.9844 112.083 41.8426 112.083 41.6694V39.2063Z" fill="#C5D82E"/>
<path d="M115.014 40.7473V42.9149H114.224V40.1589H114.966L115.014 40.7473ZM114.888 41.4376H114.655C114.657 41.2372 114.689 41.0555 114.751 40.8925C114.813 40.7295 114.899 40.5894 115.011 40.4722C115.125 40.3551 115.259 40.2651 115.415 40.2022C115.57 40.1394 115.744 40.108 115.935 40.108C116.091 40.108 116.231 40.1267 116.357 40.164C116.483 40.2014 116.59 40.2608 116.68 40.3423C116.772 40.4238 116.842 40.5308 116.889 40.6633C116.939 40.794 116.964 40.9553 116.964 41.1472V42.9149H116.169V41.1421C116.169 41.0165 116.147 40.9171 116.103 40.8441C116.061 40.7711 115.999 40.7193 115.917 40.6887C115.837 40.6582 115.739 40.6429 115.621 40.6429C115.499 40.6429 115.393 40.6641 115.301 40.7066C115.211 40.7473 115.136 40.8042 115.074 40.8772C115.014 40.9502 114.968 41.0343 114.936 41.1294C114.904 41.2245 114.888 41.3272 114.888 41.4376Z" fill="#C5D82E"/>
<path d="M119.111 39.0025V42.9149H118.319V39.0025H119.111Z" fill="#C5D82E"/>
<path d="M120.337 41.565V41.5115C120.337 41.3094 120.371 41.1235 120.439 40.9536C120.507 40.7821 120.605 40.6336 120.735 40.5079C120.865 40.3822 121.023 40.2846 121.211 40.215C121.398 40.1437 121.611 40.108 121.851 40.108C122.094 40.108 122.309 40.1437 122.497 40.215C122.686 40.2846 122.846 40.3822 122.975 40.5079C123.105 40.6336 123.204 40.7821 123.271 40.9536C123.339 41.1235 123.373 41.3094 123.373 41.5115V41.565C123.373 41.7653 123.339 41.9513 123.271 42.1228C123.204 42.2926 123.105 42.4412 122.975 42.5685C122.846 42.6942 122.687 42.7918 122.5 42.8614C122.312 42.9311 122.098 42.9659 121.857 42.9659C121.617 42.9659 121.403 42.9311 121.214 42.8614C121.024 42.7918 120.865 42.6942 120.735 42.5685C120.605 42.4412 120.507 42.2926 120.439 42.1228C120.371 41.9513 120.337 41.7653 120.337 41.565ZM121.127 41.5115V41.565C121.127 41.6855 121.141 41.7984 121.169 41.9037C121.197 42.009 121.239 42.1015 121.297 42.1814C121.355 42.2612 121.43 42.324 121.522 42.3698C121.615 42.414 121.727 42.4361 121.857 42.4361C121.984 42.4361 122.094 42.414 122.186 42.3698C122.277 42.324 122.352 42.2612 122.41 42.1814C122.47 42.1015 122.514 42.009 122.542 41.9037C122.57 41.7984 122.584 41.6855 122.584 41.565V41.5115C122.584 41.3926 122.57 41.2814 122.542 41.1778C122.514 41.0725 122.47 40.98 122.41 40.9002C122.352 40.8186 122.276 40.755 122.183 40.7091C122.091 40.6616 121.98 40.6378 121.851 40.6378C121.723 40.6378 121.613 40.6616 121.522 40.7091C121.43 40.755 121.355 40.8186 121.297 40.9002C121.239 40.98 121.197 41.0725 121.169 41.1778C121.141 41.2814 121.127 41.3926 121.127 41.5115Z" fill="#C5D82E"/>
<path d="M125.888 42.4361C126 42.4361 126.1 42.4174 126.187 42.38C126.275 42.3427 126.345 42.29 126.397 42.2221C126.451 42.1542 126.479 42.0752 126.483 41.9852H127.228C127.224 42.172 127.162 42.3393 127.043 42.487C126.923 42.6347 126.764 42.7519 126.564 42.8385C126.367 42.9234 126.145 42.9659 125.9 42.9659C125.651 42.9659 125.434 42.9302 125.248 42.8589C125.063 42.7876 124.908 42.6882 124.784 42.5609C124.663 42.4335 124.571 42.2858 124.509 42.1177C124.449 41.9496 124.42 41.7696 124.42 41.5777V41.4962C124.42 41.3043 124.449 41.1243 124.509 40.9562C124.571 40.7881 124.663 40.6403 124.784 40.513C124.908 40.3856 125.063 40.2863 125.248 40.215C125.434 40.1437 125.65 40.108 125.897 40.108C126.158 40.108 126.388 40.1513 126.585 40.2379C126.785 40.3245 126.94 40.4468 127.052 40.6047C127.165 40.7626 127.224 40.9485 127.228 41.1625H126.483C126.479 41.064 126.454 40.9757 126.406 40.8976C126.358 40.8195 126.29 40.7567 126.202 40.7091C126.115 40.6616 126.008 40.6378 125.882 40.6378C125.749 40.6378 125.637 40.6616 125.547 40.7091C125.459 40.7567 125.391 40.822 125.341 40.9052C125.293 40.9868 125.259 41.0785 125.239 41.1803C125.221 41.2805 125.212 41.3858 125.212 41.4962V41.5777C125.212 41.6898 125.221 41.7967 125.239 41.8986C125.259 42.0005 125.293 42.0922 125.341 42.1737C125.391 42.2535 125.459 42.3172 125.547 42.3647C125.637 42.4123 125.751 42.4361 125.888 42.4361Z" fill="#C5D82E"/>
<path d="M129.157 39V42.9149H128.367V39H129.157ZM131.185 40.1589L129.776 41.5064L129.013 42.1661L128.762 41.6439L129.351 41.0122L130.231 40.1589H131.185ZM130.377 42.9149L129.375 41.6312L129.902 41.1956L131.293 42.9149H130.377Z" fill="#C5D82E"/>
<path d="M133.054 40.1589V42.9149H132.261V40.1589H133.054ZM132.207 39.4381C132.207 39.3379 132.247 39.2547 132.327 39.1885C132.409 39.1223 132.519 39.0891 132.656 39.0891C132.794 39.0891 132.902 39.1223 132.982 39.1885C133.064 39.2547 133.105 39.3379 133.105 39.4381C133.105 39.5366 133.064 39.619 132.982 39.6852C132.902 39.7514 132.794 39.7845 132.656 39.7845C132.519 39.7845 132.409 39.7514 132.327 39.6852C132.247 39.619 132.207 39.5366 132.207 39.4381Z" fill="#C5D82E"/>
<path d="M135.195 40.7473V42.9149H134.405V40.1589H135.147L135.195 40.7473ZM135.07 41.4376H134.836C134.838 41.2372 134.87 41.0555 134.932 40.8925C134.994 40.7295 135.08 40.5894 135.192 40.4722C135.306 40.3551 135.44 40.2651 135.596 40.2022C135.752 40.1394 135.925 40.108 136.116 40.108C136.272 40.108 136.413 40.1267 136.538 40.164C136.664 40.2014 136.772 40.2608 136.861 40.3423C136.953 40.4238 137.023 40.5308 137.071 40.6633C137.12 40.794 137.145 40.9553 137.145 41.1472V42.9149H136.35V41.1421C136.35 41.0165 136.328 40.9171 136.284 40.8441C136.242 40.7711 136.18 40.7193 136.098 40.6887C136.019 40.6582 135.92 40.6429 135.802 40.6429C135.681 40.6429 135.574 40.6641 135.482 40.7066C135.393 40.7473 135.317 40.8042 135.255 40.8772C135.195 40.9502 135.149 41.0343 135.117 41.1294C135.085 41.2245 135.07 41.3272 135.07 41.4376Z" fill="#C5D82E"/>
<path d="M140.513 40.1589H141.231V42.8309C141.231 43.0805 141.167 43.2919 141.039 43.4651C140.914 43.64 140.737 43.7725 140.51 43.8625C140.283 43.9542 140.018 44 139.717 44C139.588 44 139.447 43.9847 139.296 43.9542C139.146 43.9236 139.001 43.8752 138.862 43.809C138.724 43.7444 138.61 43.6604 138.518 43.5568L138.874 43.1594C138.981 43.2664 139.103 43.3471 139.239 43.4014C139.374 43.4575 139.521 43.4855 139.678 43.4855C139.838 43.4855 139.974 43.46 140.085 43.4091C140.199 43.3598 140.286 43.2868 140.345 43.19C140.407 43.0949 140.438 42.9778 140.438 42.8385V40.7881L140.513 40.1589ZM138.326 41.57V41.5166C138.326 41.306 138.356 41.115 138.416 40.9435C138.476 40.7702 138.562 40.6217 138.673 40.4977C138.787 40.3737 138.924 40.2778 139.083 40.2099C139.245 40.142 139.426 40.108 139.628 40.108C139.841 40.108 140.02 40.1411 140.166 40.2073C140.314 40.2736 140.435 40.3678 140.531 40.4901C140.629 40.6123 140.704 40.7575 140.758 40.9256C140.814 41.092 140.857 41.2754 140.887 41.4758V41.621C140.859 41.8163 140.814 41.9954 140.752 42.1584C140.692 42.3214 140.613 42.4641 140.513 42.5863C140.413 42.7069 140.29 42.8003 140.142 42.8665C139.994 42.9328 139.821 42.9659 139.622 42.9659C139.422 42.9659 139.243 42.9311 139.083 42.8614C138.924 42.7918 138.787 42.6942 138.673 42.5685C138.562 42.4429 138.476 42.2951 138.416 42.1253C138.356 41.9555 138.326 41.7704 138.326 41.57ZM139.116 41.5166V41.57C139.116 41.6889 139.13 41.8001 139.158 41.9037C139.186 42.0073 139.229 42.099 139.287 42.1788C139.344 42.2569 139.417 42.3181 139.505 42.3622C139.593 42.4064 139.697 42.4284 139.819 42.4284C139.982 42.4284 140.116 42.3996 140.22 42.3418C140.325 42.2824 140.405 42.2017 140.459 42.0998C140.515 41.9963 140.551 41.8799 140.567 41.7509V41.351C140.557 41.2491 140.535 41.1549 140.501 41.0683C140.469 40.9817 140.424 40.9069 140.366 40.8441C140.309 40.7813 140.235 40.732 140.145 40.6964C140.055 40.6607 139.949 40.6429 139.825 40.6429C139.705 40.6429 139.601 40.6658 139.511 40.7117C139.421 40.7558 139.347 40.8178 139.29 40.8976C139.232 40.9774 139.188 41.07 139.158 41.1752C139.13 41.2805 139.116 41.3943 139.116 41.5166Z" fill="#C5D82E"/>
<path d="M145.824 42.2043L146.692 39.2063H147.161L147.191 39.838L146.264 42.9149H145.767L145.824 42.2043ZM145.277 39.2063L145.989 42.1941V42.9149H145.447L144.46 39.2063H145.277ZM148.092 42.1814L148.791 39.2063H149.611L148.624 42.9149H148.083L148.092 42.1814ZM147.386 39.2063L148.253 42.2145L148.304 42.9149H147.807L146.883 39.8355L146.919 39.2063H147.386Z" fill="#C5D82E"/>
<path d="M152.042 42.9659C151.797 42.9659 151.577 42.9319 151.381 42.864C151.186 42.7961 151.019 42.7018 150.882 42.5813C150.746 42.459 150.641 42.3172 150.568 42.1559C150.496 41.9929 150.46 41.818 150.46 41.6312V41.5293C150.46 41.317 150.496 41.1243 150.568 40.9511C150.639 40.7762 150.741 40.6259 150.873 40.5003C151.004 40.3746 151.162 40.2778 151.345 40.2099C151.529 40.142 151.731 40.108 151.953 40.108C152.182 40.108 152.384 40.1411 152.56 40.2073C152.735 40.2719 152.882 40.3636 153 40.4824C153.117 40.6013 153.206 40.7439 153.266 40.9103C153.326 41.0751 153.355 41.2576 153.355 41.458V41.7407H150.819V41.2771H152.578V41.2262C152.574 41.1192 152.55 41.0216 152.506 40.9333C152.462 40.8433 152.394 40.7719 152.303 40.7193C152.211 40.665 152.092 40.6378 151.947 40.6378C151.829 40.6378 151.726 40.6599 151.639 40.704C151.553 40.7465 151.481 40.8076 151.423 40.8874C151.367 40.9655 151.325 41.0589 151.298 41.1676C151.27 41.2763 151.256 41.3968 151.256 41.5293V41.6312C151.256 41.7466 151.274 41.8536 151.309 41.9521C151.347 42.0506 151.402 42.1364 151.474 42.2094C151.548 42.2807 151.636 42.3367 151.737 42.3775C151.841 42.4165 151.959 42.4361 152.09 42.4361C152.256 42.4361 152.405 42.4089 152.539 42.3546C152.674 42.2985 152.792 42.2162 152.892 42.1075L153.29 42.459C153.222 42.5439 153.13 42.6254 153.014 42.7035C152.901 42.7816 152.763 42.8453 152.602 42.8945C152.44 42.9421 152.254 42.9659 152.042 42.9659Z" fill="#C5D82E"/>
<path d="M156.28 42.3291V41.0581C156.28 40.9647 156.261 40.884 156.223 40.8161C156.186 40.7482 156.128 40.6955 156.05 40.6582C155.972 40.6208 155.873 40.6021 155.754 40.6021C155.648 40.6021 155.555 40.6174 155.476 40.648C155.398 40.6786 155.338 40.7219 155.296 40.7779C155.254 40.8322 155.233 40.8951 155.233 40.9664H154.441C154.441 40.8526 154.473 40.7448 154.536 40.6429C154.6 40.5393 154.691 40.4476 154.809 40.3678C154.928 40.2863 155.071 40.2226 155.236 40.1768C155.404 40.1309 155.591 40.108 155.799 40.108C156.044 40.108 156.262 40.1437 156.454 40.215C156.647 40.2846 156.799 40.3899 156.908 40.5308C157.02 40.6718 157.076 40.8492 157.076 41.0632V42.2654C157.076 42.403 157.086 42.521 157.106 42.6195C157.128 42.7163 157.16 42.8003 157.202 42.8716V42.9149H156.397C156.359 42.8453 156.33 42.757 156.31 42.65C156.29 42.5413 156.28 42.4344 156.28 42.3291ZM156.391 41.2364L156.397 41.6363H155.897C155.774 41.6363 155.665 41.6473 155.571 41.6694C155.478 41.6898 155.401 41.7203 155.341 41.7611C155.281 41.8001 155.236 41.8477 155.206 41.9037C155.177 41.9581 155.162 42.02 155.162 42.0897C155.162 42.1576 155.18 42.2187 155.215 42.2731C155.253 42.3274 155.307 42.3707 155.377 42.403C155.449 42.4335 155.532 42.4488 155.628 42.4488C155.768 42.4488 155.889 42.425 155.993 42.3775C156.097 42.3282 156.178 42.2688 156.235 42.1992C156.293 42.1296 156.324 42.0633 156.328 42.0005L156.555 42.2909C156.528 42.3605 156.486 42.4344 156.43 42.5125C156.374 42.5906 156.302 42.6636 156.215 42.7315C156.127 42.7995 156.021 42.8555 155.897 42.8996C155.774 42.9438 155.63 42.9659 155.467 42.9659C155.257 42.9659 155.07 42.9302 154.904 42.8589C154.739 42.7876 154.608 42.6899 154.512 42.566C154.417 42.442 154.369 42.3011 154.369 42.1431C154.369 41.9971 154.401 41.8681 154.465 41.756C154.528 41.6439 154.623 41.5497 154.749 41.4733C154.874 41.3951 155.03 41.3366 155.215 41.2975C155.403 41.2567 155.617 41.2364 155.859 41.2364H156.391Z" fill="#C5D82E"/>
<path d="M159.238 39.0025V42.9149H158.445V39.0025H159.238Z" fill="#C5D82E"/>
<path d="M162.136 40.1589V40.6429H160.281V40.1589H162.136ZM160.778 39.4814H161.571V42.1202C161.571 42.2017 161.584 42.2646 161.609 42.3087C161.635 42.3529 161.674 42.3826 161.726 42.3979C161.778 42.4131 161.84 42.4208 161.912 42.4208C161.963 42.4208 162.011 42.4182 162.055 42.4131C162.099 42.408 162.136 42.403 162.166 42.3979L162.169 42.9022C162.103 42.9209 162.028 42.9362 161.944 42.948C161.863 42.9599 161.77 42.9659 161.666 42.9659C161.489 42.9659 161.333 42.9404 161.2 42.8895C161.066 42.8368 160.962 42.7528 160.889 42.6373C160.815 42.5201 160.778 42.3656 160.778 42.1737V39.4814Z" fill="#C5D82E"/>
<path d="M164.05 39.0025V42.9149H163.257V39.0025H164.05ZM163.924 41.4376H163.691C163.691 41.2457 163.721 41.0691 163.781 40.9078C163.84 40.7465 163.925 40.6064 164.035 40.4875C164.144 40.367 164.275 40.2736 164.427 40.2073C164.58 40.1411 164.75 40.108 164.935 40.108C165.095 40.108 165.239 40.1275 165.369 40.1666C165.5 40.2039 165.613 40.2642 165.707 40.3474C165.801 40.4306 165.872 40.5393 165.922 40.6735C165.974 40.8059 166 40.9672 166 41.1574V42.9149H165.204V41.1523C165.204 41.025 165.182 40.9248 165.139 40.8518C165.095 40.777 165.032 40.7236 164.95 40.6913C164.87 40.659 164.772 40.6429 164.654 40.6429C164.526 40.6429 164.417 40.6641 164.325 40.7066C164.233 40.7473 164.157 40.8042 164.098 40.8772C164.04 40.9502 163.996 41.0343 163.966 41.1294C163.938 41.2245 163.924 41.3272 163.924 41.4376Z" fill="#C5D82E"/>
<path d="M183.491 36.8169L179.566 31.3288L175.508 36.8169H169.854L176.739 27.8031L170.086 18.9224H175.907L179.699 24.1444L183.591 18.9224H189.112L182.46 27.6701L189.378 36.8169H183.491Z" fill="url(#paint3_linear_877_1299)"/>
<path d="M167.312 18.9223V36.8169H162.356V34.7547C161.07 36.3069 159.207 37.083 156.768 37.083C155.083 37.083 153.553 36.706 152.178 35.9521C150.825 35.1982 149.761 34.1227 148.985 32.7257C148.209 31.3288 147.821 29.7101 147.821 27.8696C147.821 26.0291 148.209 24.4104 148.985 23.0135C149.761 21.6165 150.825 20.5411 152.178 19.7871C153.553 19.0332 155.083 18.6562 156.768 18.6562C159.052 18.6562 160.837 19.3769 162.123 20.8182V18.9223H167.312ZM157.666 32.8255C158.974 32.8255 160.061 32.382 160.925 31.4951C161.79 30.5859 162.223 29.3774 162.223 27.8696C162.223 26.3618 161.79 25.1644 160.925 24.2774C160.061 23.3683 158.974 22.9137 157.666 22.9137C156.335 22.9137 155.238 23.3683 154.373 24.2774C153.508 25.1644 153.076 26.3618 153.076 27.8696C153.076 29.3774 153.508 30.5859 154.373 31.4951C155.238 32.382 156.335 32.8255 157.666 32.8255Z" fill="url(#paint4_linear_877_1299)"/>
<path d="M136.988 18.6562C139.227 18.6562 141.001 19.3215 142.31 20.6519C143.64 21.9602 144.305 23.9337 144.305 26.5724V36.8169H139.116V27.3707C139.116 25.9515 138.817 24.8983 138.218 24.2109C137.642 23.5013 136.81 23.1465 135.724 23.1465C134.504 23.1465 133.54 23.5456 132.83 24.3439C132.121 25.12 131.766 26.2842 131.766 27.8363V36.8169H126.577V27.3707C126.577 24.5546 125.446 23.1465 123.184 23.1465C121.987 23.1465 121.033 23.5456 120.324 24.3439C119.614 25.12 119.26 26.2842 119.26 27.8363V36.8169H114.071V18.9223H119.027V20.9845C119.692 20.2306 120.501 19.6541 121.455 19.255C122.43 18.8558 123.495 18.6562 124.648 18.6562C125.912 18.6562 127.054 18.9113 128.074 19.4213C129.094 19.9091 129.914 20.6297 130.535 21.5832C131.267 20.6519 132.187 19.9313 133.296 19.4213C134.427 18.9113 135.657 18.6562 136.988 18.6562Z" fill="url(#paint5_linear_877_1299)"/>
<path d="M104.066 18.9224H109.255V36.8169H104.066V18.9224ZM106.661 16.4278C105.707 16.4278 104.931 16.1507 104.332 15.5963C103.734 15.0419 103.434 14.3545 103.434 13.5341C103.434 12.7137 103.734 12.0263 104.332 11.4719C104.931 10.9176 105.707 10.6404 106.661 10.6404C107.614 10.6404 108.39 10.9065 108.989 11.4387C109.588 11.9708 109.887 12.6361 109.887 13.4343C109.887 14.2991 109.588 15.0198 108.989 15.5963C108.39 16.1507 107.614 16.4278 106.661 16.4278Z" fill="url(#paint6_linear_877_1299)"/>
<path d="M99.2625 18.9223V36.8169H94.3066V34.7547C93.0205 36.3069 91.1578 37.083 88.7187 37.083C87.0335 37.083 85.5034 36.706 84.1286 35.9521C82.776 35.1982 81.7117 34.1227 80.9356 32.7257C80.1595 31.3288 79.7714 29.7101 79.7714 27.8696C79.7714 26.0291 80.1595 24.4104 80.9356 23.0135C81.7117 21.6165 82.776 20.5411 84.1286 19.7871C85.5034 19.0332 87.0335 18.6562 88.7187 18.6562C91.0026 18.6562 92.7876 19.3769 94.0737 20.8182V18.9223H99.2625ZM89.6167 32.8255C90.925 32.8255 92.0115 32.382 92.8763 31.4951C93.7411 30.5859 94.1735 29.3774 94.1735 27.8696C94.1735 26.3618 93.7411 25.1644 92.8763 24.2774C92.0115 23.3683 90.925 22.9137 89.6167 22.9137C88.2863 22.9137 87.1887 23.3683 86.3239 24.2774C85.4591 25.1644 85.0267 26.3618 85.0267 27.8696C85.0267 29.3774 85.4591 30.5859 86.3239 31.4951C87.1887 32.382 88.2863 32.8255 89.6167 32.8255Z" fill="url(#paint7_linear_877_1299)"/>
<path d="M61.0498 6.40444L61.0559 5.89494L61.2356 6.37171L61.0498 6.40444Z" fill="url(#paint8_linear_877_1299)"/>
<path d="M59.7079 6.03431C59.725 6.03068 59.7352 6.03756 59.739 6.05532L59.8134 6.40463C59.8169 6.42131 59.8105 6.43177 59.7934 6.4354L59.6443 6.46701L59.5589 6.06592L59.7079 6.03431Z" fill="url(#paint9_linear_877_1299)"/>
<path d="M53.1843 9.85916C53.1991 9.84991 53.2018 9.83819 53.1925 9.82341L52.6823 9.00863C52.6731 8.9939 52.6613 8.99111 52.6465 9.00036L52.5173 9.08097L53.055 9.93972L53.1843 9.85916Z" fill="url(#paint10_linear_877_1299)"/>
<path d="M48.6746 12.3458C48.6625 12.3342 48.6507 12.3347 48.6386 12.3472L48.5508 12.4379C48.5387 12.4505 48.5387 12.4623 48.5507 12.4739L49.2432 13.1413C49.2563 13.1539 49.2686 13.1539 49.2807 13.1414L49.3685 13.0507C49.3807 13.0381 49.3802 13.0258 49.3671 13.0133L48.6746 12.3458Z" fill="url(#paint11_linear_877_1299)"/>
<path d="M43.2489 22.5434C43.2313 22.5391 43.2206 22.5451 43.2164 22.5621L43.1795 22.7096L43.5782 22.8088L43.6151 22.6613C43.6193 22.6444 43.6127 22.6339 43.5961 22.6298L43.2489 22.5434Z" fill="url(#paint12_linear_877_1299)"/>
<path d="M42.9396 24.0029C42.942 23.9856 42.952 23.9784 42.97 23.9809L43.3243 24.0306C43.3413 24.033 43.3489 24.0427 43.3465 24.0599L43.3253 24.2105L42.9183 24.1535L42.9396 24.0029Z" fill="url(#paint13_linear_877_1299)"/>
<path d="M42.9852 29.8372L43.4947 29.87L43.4717 29.683L42.9852 29.8372Z" fill="url(#paint14_linear_877_1299)"/>
<path d="M45.0131 34.608C45.0294 34.6018 45.0404 34.6067 45.0467 34.623L45.1012 34.7649L44.1539 35.1278L44.0993 34.9859C44.093 34.9696 44.098 34.9586 44.1142 34.9524L45.0131 34.608Z" fill="url(#paint15_linear_877_1299)"/>
<path d="M45.7928 36.3435C45.7849 36.3279 45.7734 36.3242 45.7579 36.3322L44.9001 36.7683C44.8846 36.7762 44.8808 36.7877 44.8887 36.8032L44.9579 36.9387L45.862 36.479L45.7928 36.3435Z" fill="url(#paint16_linear_877_1299)"/>
<path d="M48.4732 41.0681L48.028 41.3176L48.3519 40.9239L48.4732 41.0681Z" fill="url(#paint17_linear_877_1299)"/>
<path d="M48.8275 42.4149C48.8156 42.4021 48.8163 42.3899 48.8296 42.3775L49.0913 42.134C49.1037 42.1223 49.1161 42.1225 49.128 42.1352L49.2319 42.2465L48.9314 42.5261L48.8275 42.4149Z" fill="url(#paint18_linear_877_1299)"/>
<path d="M55.5086 46.0165C55.4927 46.0092 55.4814 46.0133 55.4741 46.0291L55.0672 46.8998C55.0598 46.9156 55.0639 46.927 55.0798 46.9343L55.2178 46.9986L55.6467 46.0808L55.5086 46.0165Z" fill="url(#paint19_linear_877_1299)"/>
<path d="M60.5124 48.7032C60.5092 48.7196 60.516 48.7292 60.5332 48.7326L60.6572 48.7566C60.6744 48.7599 60.6843 48.7535 60.6875 48.7372L60.8712 47.794C60.8747 47.7762 60.868 47.7659 60.8509 47.7626L60.7268 47.7385C60.7096 47.7352 60.6996 47.7423 60.6961 47.7601L60.5124 48.7032Z" fill="url(#paint20_linear_877_1299)"/>
<path d="M66.4998 6.57802C66.5172 6.57923 66.5263 6.57132 66.5275 6.55394L66.5947 5.59547C66.5959 5.57813 66.588 5.56902 66.5706 5.56781L66.4186 5.55717L66.3478 6.56737L66.4998 6.57802Z" fill="url(#paint21_linear_877_1299)"/>
<path d="M68.3755 6.82668C68.3724 6.84383 68.3625 6.85076 68.3453 6.84774L68.1953 6.82133L68.3715 5.82404L68.5215 5.85045C68.5388 5.85347 68.5457 5.86337 68.5426 5.88048L68.3755 6.82668Z" fill="url(#paint22_linear_877_1299)"/>
<path d="M73.53 7.54392L73.2394 7.96286L73.4118 8.03948L73.53 7.54392Z" fill="url(#paint23_linear_877_1299)"/>
<path d="M78.5772 10.5412C78.5906 10.5524 78.5914 10.5646 78.5797 10.5785L78.3497 10.8521C78.3387 10.8652 78.3264 10.8665 78.3131 10.8553L78.1963 10.7576L78.4604 10.4435L78.5772 10.5412Z" fill="url(#paint24_linear_877_1299)"/>
<path d="M79.6143 11.5257C79.6267 11.5125 79.6265 11.5001 79.6138 11.4883L79.5023 11.3846L79.2221 11.6845L79.3335 11.7882C79.3463 11.8001 79.3586 11.7994 79.3703 11.7869L79.6143 11.5257Z" fill="url(#paint25_linear_877_1299)"/>
<path d="M80.8628 40.2899C80.8491 40.2792 80.8476 40.2672 80.8583 40.2535L80.9522 40.1336L81.7518 40.7571L81.658 40.877C81.6472 40.8907 81.6352 40.8921 81.6215 40.8814L80.8628 40.2899Z" fill="url(#paint26_linear_877_1299)"/>
<path d="M77.8116 44.4668L77.5695 44.0182L77.4228 44.1367L77.8116 44.4668Z" fill="url(#paint27_linear_877_1299)"/>
<path d="M72.7691 47.5095C72.7529 47.516 72.7417 47.511 72.7349 47.4942L72.6008 47.163C72.5945 47.1472 72.599 47.1358 72.6152 47.1293L72.7565 47.0723L72.9104 47.4525L72.7691 47.5095Z" fill="url(#paint28_linear_877_1299)"/>
<path d="M71.4262 47.9715C71.4321 47.9887 71.4431 47.9943 71.4596 47.9886L71.6037 47.9391L71.4699 47.5514L71.3259 47.6008C71.3094 47.6065 71.3042 47.6177 71.3097 47.6339L71.4262 47.9715Z" fill="url(#paint29_linear_877_1299)"/>
<path fill-rule="evenodd" clip-rule="evenodd" d="M64.7552 50.5456C73.1546 50.5456 80.5173 46.0984 84.6257 39.426C84.207 39.2808 83.796 39.1116 83.3934 38.9181L82.9415 39.6398C82.9095 39.6713 82.8631 39.6939 82.8021 39.7074C82.6812 39.7342 82.5486 39.7027 82.4048 39.613L81.8571 39.2715C81.7134 39.1819 81.6268 39.0767 81.598 38.9565C81.5834 38.8959 81.5834 38.8444 81.5978 38.8018L82.0178 38.1312C81.7512 37.9517 81.4942 37.7615 81.247 37.5609C77.7864 42.9659 71.6697 46.5567 64.7011 46.5567C53.9067 46.5567 45.156 37.9405 45.156 27.3119C45.156 16.6833 53.9067 8.06706 64.7011 8.06706C72.1264 8.06706 78.5845 12.144 81.8927 18.1484C82.1852 17.9454 82.4896 17.7555 82.8057 17.5789L82.8139 17.5744L82.822 17.5699C83.6817 17.0976 84.5821 16.7416 85.517 16.4978C81.6467 8.95541 73.8023 3.7959 64.7552 3.7959C56.0938 3.7959 48.5348 8.52473 44.5099 15.5461H35.6581V15.6032L31.15 20.12L25.0907 20.12C24.7262 19.3512 23.944 18.8196 23.038 18.8196C21.7835 18.8196 20.7666 19.8385 20.7666 21.0953C20.7666 22.3521 21.7835 23.371 23.038 23.371C23.944 23.371 24.7262 22.8394 25.0907 22.0706L32.4479 22.0706L36.9427 17.5671H43.4785C43.1063 18.3936 42.7807 19.2457 42.5049 20.12H36.9904V35.7246H43.0364C43.3945 36.6366 43.8081 37.5205 44.2731 38.3722H23.9804L24.0115 38.3255L20.0906 34.3971C19.9216 33.3075 18.9811 32.4737 17.8463 32.4737C16.5919 32.4737 15.575 33.4926 15.575 34.7494C15.575 36.0062 16.5919 37.0251 17.8463 37.0251C18.3076 37.0251 18.7368 36.8873 19.095 36.6506L22.7136 40.276L22.7243 40.26V40.2744H45.4326C49.6282 46.4727 56.717 50.5456 64.7552 50.5456ZM38.9374 22.0706H41.9818C41.6172 23.7123 41.4248 25.419 41.4248 27.1707C41.4248 29.464 41.7544 31.6801 42.3688 33.7741H38.9374V22.0706ZM23.038 20.12C23.5696 20.12 24.0017 20.547 24.0112 21.0774V21.1132C24.0017 21.6436 23.5696 22.0706 23.038 22.0706C22.5004 22.0706 22.0645 21.6339 22.0645 21.0953C22.0645 20.5567 22.5004 20.12 23.038 20.12ZM18.8197 34.7494C18.8197 35.288 18.3839 35.7247 17.8463 35.7247C17.3087 35.7247 16.8729 35.288 16.8729 34.7494C16.8729 34.2108 17.3087 33.7741 17.8463 33.7741C18.3839 33.7741 18.8197 34.2108 18.8197 34.7494ZM63.5861 5.59766L63.5793 5.20861L64.6825 5.18941L64.2634 6.39082L64.6688 6.38375L64.6756 6.77094L63.5817 6.79L64.0343 5.58985L63.5861 5.59766ZM62.8817 5.27201L63.3708 5.23785L63.4813 6.81524L62.9922 6.84936L62.8817 5.27201ZM62.2924 5.30177L61.8057 5.36141L61.9988 6.93081L62.876 6.82333L62.8287 6.43893L62.4382 6.48677L62.2924 5.30177ZM60.6852 5.53011L60.5978 7.15106L61.047 7.07204L61.0494 6.69098L61.3349 6.64073L61.4691 6.99775L61.9169 6.91896L61.2792 5.42556L60.6852 5.53011ZM60.0953 5.74037C60.0344 5.70062 59.9347 5.69556 59.7967 5.72484L59.0201 5.88954L59.3495 7.43621L59.8291 7.3345L59.6996 6.72664L59.8577 6.69312C59.8696 6.69568 59.8768 6.70214 59.879 6.71292L59.9489 7.04098C59.9734 7.15566 60 7.23943 60.029 7.2921L60.5085 7.19039C60.4807 7.14325 60.4552 7.06436 60.4318 6.95452L60.3624 6.62855C60.3511 6.57569 60.3258 6.5306 60.2866 6.4935C60.2482 6.45697 60.1684 6.44116 60.0473 6.44655C60.1602 6.40262 60.2268 6.35651 60.2471 6.30826C60.2679 6.25847 60.2654 6.17326 60.2396 6.0523L60.2301 6.00744C60.2006 5.86914 60.1557 5.77984 60.0953 5.74037ZM57.7234 6.25707L58.86 5.95314L58.9338 6.22769L58.6022 6.31634L58.9385 7.56912L58.465 7.69575L58.1286 6.44297L57.7971 6.53162L57.7234 6.25707ZM57.4632 6.35116L58.031 7.82736L57.5929 7.99517L57.1141 7.42157L57.3679 8.08141L56.9102 8.25671L56.3424 6.78056L56.7805 6.6127L57.2597 7.18732L57.0056 6.52651L57.4632 6.35116ZM55.3201 7.21373L56.1274 6.85503L56.2432 7.11471L55.8838 7.27444L56.0186 7.57665L56.378 7.41692L56.4922 7.67274L56.1327 7.83242L56.2965 8.19953L56.6559 8.03985L56.7718 8.29952L55.9645 8.65826L55.3201 7.21373ZM55.0666 7.39977C54.9975 7.37708 54.8999 7.39795 54.7742 7.46187L54.3929 7.65577C54.2666 7.71997 54.1923 7.78649 54.1708 7.85529C54.1477 7.92363 54.1688 8.02134 54.2335 8.14802L54.6204 8.90594C54.6844 9.03132 54.7509 9.10519 54.8199 9.12671C54.8884 9.14977 54.9859 9.12885 55.1122 9.06465L55.4935 8.87071C55.6192 8.80683 55.6935 8.74036 55.7158 8.67118C55.7382 8.60317 55.7329 8.53726 55.7004 8.47362L55.5469 8.17289L55.11 8.39501L55.2413 8.65208C55.2489 8.66695 55.245 8.67811 55.2294 8.68602L55.1168 8.74329C55.1012 8.75119 55.0899 8.74775 55.0823 8.73287L54.6452 7.87682C54.637 7.86064 54.6405 7.84888 54.6561 7.84097L54.7687 7.7837C54.7843 7.7758 54.7959 7.77984 54.8042 7.79602L54.9343 8.05086L55.3712 7.8287L55.2187 7.53016C55.1856 7.46527 55.1349 7.42162 55.0666 7.39977ZM53.1367 8.35689L53.9096 7.92935L54.0476 8.17796L53.7035 8.36832L53.8643 8.65761L54.2084 8.46729L54.3444 8.71219L54.0003 8.90251L54.1955 9.25399L54.5396 9.06367L54.6777 9.31229L53.9048 9.73983L53.1367 8.35689ZM53.619 9.82648C53.6054 9.88733 53.5828 9.93368 53.5511 9.96557L52.7902 10.4401L51.9506 9.09914L52.7115 8.62465C52.7541 8.61024 52.8058 8.61029 52.8665 8.62479C52.987 8.65361 53.0923 8.73999 53.1822 8.88345L53.5244 9.43004C53.6142 9.57345 53.6458 9.70584 53.619 9.82648ZM51.4163 11.5378L50.3979 10.3265L50.0223 10.6411L50.4782 11.1832L49.8376 10.7957L49.4782 11.0967L50.4966 12.308L50.8722 11.9935L50.417 11.4521L51.0568 11.8388L51.4163 11.5378ZM49.328 11.284L48.9695 11.6177L50.05 12.7741L50.4086 12.4404L49.328 11.284ZM48.5388 12.0411C48.6368 11.9399 48.7222 11.8884 48.795 11.8874C48.8667 11.8858 48.9539 11.9348 49.0564 12.0336L49.6696 12.6245C49.771 12.7222 49.8226 12.807 49.8236 12.8786C49.8251 12.9512 49.7765 13.0383 49.6786 13.1395L49.3812 13.4467C49.2828 13.5485 49.1974 13.6 49.1251 13.6004C49.0529 13.6025 48.9659 13.5542 48.8645 13.4565L48.2513 12.8656C48.1489 12.7668 48.097 12.6813 48.0965 12.6092C48.0945 12.5371 48.1431 12.4501 48.2415 12.3483L48.5388 12.0411ZM47.8188 12.921C47.7464 12.9284 47.6658 12.9871 47.577 13.0964L47.3077 13.4283C47.2185 13.5383 47.1777 13.6292 47.1861 13.7008C47.1928 13.7726 47.2519 13.8533 47.3627 13.9428L48.025 14.4781C48.1347 14.5666 48.2255 14.6072 48.2973 14.5988C48.3692 14.5921 48.4498 14.5333 48.539 14.4234L48.8084 14.0915C48.8971 13.9821 48.9379 13.8912 48.93 13.819C48.9228 13.7478 48.8911 13.6897 48.8355 13.6448L48.5727 13.4323L48.2641 13.8126L48.4887 13.9942C48.5017 14.0047 48.5027 14.0164 48.4917 14.03L48.4122 14.128C48.4012 14.1415 48.3895 14.143 48.3765 14.1325L47.6283 13.5279C47.6142 13.5165 47.6126 13.5042 47.6236 13.4907L47.7032 13.3927C47.7142 13.3792 47.7264 13.3781 47.7405 13.3895L47.9633 13.5695L48.2718 13.1892L48.0109 12.9784C47.9542 12.9325 47.8901 12.9133 47.8188 12.921ZM47.191 15.5852L47.2797 15.4633C47.2904 15.4487 47.2886 15.436 47.274 15.4254L46.328 14.7394L46.6161 14.3437L47.6871 15.1202C47.745 15.1622 47.7793 15.2191 47.79 15.2901C47.8015 15.362 47.7657 15.4547 47.6826 15.5688L47.505 15.8129L47.191 15.5852ZM45.3864 18.1296L44.4186 18.0418L44.6366 17.6327L45.1731 17.7383L44.785 17.3541L45.0028 16.9453L45.6171 17.6966L46.2251 18.0192L45.9944 18.4522L45.3864 18.1296ZM44.3552 18.3756C44.2882 18.4038 44.2282 18.4834 44.1754 18.6139L44.0151 19.0099C43.962 19.141 43.9497 19.2399 43.9785 19.306C44.0061 19.3726 44.0863 19.4326 44.2183 19.4858L45.0086 19.8045C45.1394 19.8572 45.2381 19.8694 45.3043 19.8405C45.3711 19.8131 45.4311 19.7334 45.4841 19.6022L45.6444 19.2062C45.6973 19.0758 45.7097 18.9769 45.681 18.9101C45.6532 18.8441 45.6059 18.7978 45.5395 18.7711L45.2259 18.6447L45.0422 19.0983L45.3103 19.2064C45.3258 19.2127 45.3302 19.2236 45.3236 19.2398L45.2763 19.3567C45.2698 19.3729 45.259 19.3777 45.2435 19.3714L44.3508 19.0115C44.334 19.0048 44.3289 18.9935 44.3354 18.9774L44.3828 18.8605C44.3893 18.8443 44.4008 18.8397 44.4176 18.8465L44.6834 18.9537L44.867 18.4999L44.5557 18.3744C44.488 18.3471 44.4212 18.3474 44.3552 18.3756ZM45.3063 20.0859L43.8082 19.5711L43.6486 20.0337L44.3192 20.2641L43.5701 20.2612L43.4173 20.7039L44.9154 21.2187L45.0751 20.7561L44.4055 20.526L45.1536 20.5287L45.3063 20.0859ZM43.3503 20.9147L43.1068 21.7625L44.6298 22.1983L44.8734 21.3506L44.5996 21.2722L44.4911 21.6496L44.104 21.5388L44.2125 21.1614L43.9428 21.0842L43.8343 21.4617L43.5157 21.3705L43.6241 20.9931L43.3503 20.9147ZM42.9766 22.3467C43.0107 22.2102 43.059 22.123 43.1214 22.0858C43.1835 22.0489 43.2836 22.0478 43.4211 22.082L43.4657 22.0931C43.5859 22.123 43.6637 22.1581 43.6995 22.1985C43.7341 22.2379 43.7464 22.3178 43.7365 22.4384C43.7847 22.3274 43.8339 22.2627 43.8836 22.2443C43.9342 22.2254 43.9859 22.2225 44.0385 22.2356L44.3625 22.3162C44.4717 22.3434 44.5539 22.3551 44.6086 22.3507L44.49 22.8255C44.4298 22.8284 44.3427 22.8156 44.2287 22.7872L43.9026 22.7061C43.8919 22.7034 43.8829 22.707 43.8754 22.7165L43.8363 22.873L44.4405 23.0234L44.3219 23.4981L42.7845 23.1156L42.9766 22.3467ZM42.7953 23.5391C42.737 23.5826 42.6982 23.6744 42.6785 23.8137L42.568 24.5984L44.1371 24.8185L44.2053 24.334L43.5886 24.2475L43.6111 24.0877C43.6176 24.0775 43.6261 24.073 43.6371 24.0745L43.9699 24.1212C44.0862 24.1375 44.1742 24.1412 44.2337 24.132L44.302 23.6475C44.2481 23.6575 44.1651 23.6544 44.0536 23.6388L43.7229 23.5924C43.6693 23.5849 43.6182 23.5932 43.5699 23.6173C43.5223 23.6408 43.4802 23.7102 43.4438 23.8256C43.4411 23.7047 43.4204 23.6265 43.3819 23.5909C43.3421 23.5545 43.2611 23.5277 43.1383 23.5105L43.0929 23.504C42.9526 23.4844 42.8531 23.4959 42.7953 23.5391ZM42.5473 24.8285L43.7622 24.9346C43.9026 24.9469 43.9962 24.9803 44.0421 25.0354C44.0891 25.0908 44.1062 25.189 44.0939 25.3292L44.0566 25.7547C44.0443 25.8955 44.0103 25.9892 43.9545 26.035C43.8996 26.0819 43.8016 26.099 43.6611 26.0868L42.4463 25.9807L42.489 25.4933L43.7556 25.6039C43.7738 25.6054 43.7834 25.5974 43.785 25.5793L43.7959 25.4547C43.7974 25.4374 43.7893 25.4281 43.7712 25.4265L42.5046 25.316L42.5473 24.8285ZM42.5293 26.2864C42.4759 26.3357 42.4469 26.431 42.442 26.5717L42.4271 26.9986C42.4221 27.1399 42.4444 27.237 42.4942 27.2892C42.5429 27.3425 42.6388 27.3714 42.7812 27.3764L43.633 27.4061C43.7739 27.4109 43.8709 27.3888 43.9232 27.339C43.9766 27.2903 44.0056 27.1951 44.0105 27.0537L44.0255 26.6268C44.0304 26.4862 44.0082 26.3891 43.9583 26.3362C43.9096 26.2836 43.8492 26.2563 43.7777 26.2538L43.4397 26.242L43.4226 26.731L43.7115 26.7411C43.7282 26.7417 43.7361 26.7505 43.7355 26.7679L43.7311 26.8939C43.7305 26.9113 43.722 26.9196 43.7053 26.919L42.7431 26.8855C42.725 26.8848 42.7164 26.876 42.717 26.8586L42.7214 26.7326C42.722 26.7151 42.7312 26.7069 42.7493 26.7076L43.0358 26.7175L43.0529 26.2285L42.7173 26.2168C42.6444 26.2143 42.5816 26.2373 42.5293 26.2864ZM42.4772 29.0642L42.443 28.5761L43.6364 28.4928L43.609 28.1011L43.9961 28.0741L44.0578 28.9539L42.4772 29.0642ZM44.2182 30.3595L42.6007 30.1875L42.5272 29.5901L44.055 29.0327L44.1104 29.483L43.7461 29.5982L43.7814 29.8853L44.1627 29.9077L44.2182 30.3595ZM42.8652 31.7434L42.6609 30.5869L42.9414 30.5376L43.001 30.8749L44.2809 30.6496L44.366 31.1315L43.0862 31.3567L43.1457 31.694L42.8652 31.7434ZM42.9147 31.9258L43.025 32.4026L44.5688 32.0469L44.4585 31.5702L42.9147 31.9258ZM43.1491 32.9493C43.1125 32.8133 43.1124 32.7137 43.149 32.651C43.1853 32.5886 43.2723 32.5392 43.4092 32.5026L43.6451 32.4395L43.772 32.9122L43.4865 32.9885C43.4693 32.9931 43.4626 33.0037 43.4672 33.0206L43.4999 33.1424C43.5044 33.1592 43.5155 33.165 43.5327 33.1604L44.463 32.9116C44.4788 32.9075 44.4849 32.897 44.4804 32.8802L44.4477 32.7583C44.4431 32.7415 44.4327 32.7355 44.4169 32.7397L44.1156 32.8203L44.1385 32.9057L43.9673 32.9515L43.8174 32.3935L44.585 32.1882L44.6217 32.3248L44.4901 32.4096C44.586 32.3991 44.6576 32.4752 44.7058 32.6378L44.7903 32.9526C44.8269 33.0891 44.8275 33.1887 44.7914 33.2505C44.7552 33.3136 44.6686 33.3632 44.5324 33.3996L43.7092 33.6198C43.5723 33.6564 43.4721 33.6567 43.4092 33.6202C43.3462 33.5848 43.2965 33.4984 43.2598 33.3618L43.1491 32.9493ZM43.4412 33.9267L43.5927 34.392L45.0996 33.9034L44.9481 33.4381L43.4412 33.9267ZM45.2213 34.2838C45.1959 34.2467 45.1547 34.2158 45.0974 34.1909C44.9839 34.1416 44.8477 34.1473 44.6894 34.2079L44.0865 34.4389C43.9282 34.4995 43.8232 34.5862 43.7719 34.6987C43.746 34.7554 43.7361 34.806 43.7421 34.8505L44.0637 35.6865L45.5428 35.1198L45.2213 34.2838ZM45.7981 35.9085C45.8577 35.9273 45.9019 35.9538 45.9311 35.988L46.3384 36.7859L44.9267 37.5037L44.5193 36.7059C44.5086 36.6623 44.5132 36.6109 44.5329 36.5518C44.5722 36.4345 44.6676 36.3374 44.8187 36.2606L45.3941 35.9679C45.5451 35.8911 45.68 35.8712 45.7981 35.9085ZM45.4375 38.4704L45.0091 37.699L45.2582 37.5612L45.4489 37.9046L45.7388 37.7442L45.5481 37.4008L45.7935 37.2651L45.9842 37.6085L46.3364 37.4137L46.1457 37.0703L46.3948 36.9324L46.8232 37.7038L45.4375 38.4704ZM46.4536 39.3365L46.1229 39.5427L45.5382 38.6089L46.786 38.3486L46.5711 38.0055L46.9002 37.8002L47.48 38.7262L46.216 38.9571L46.4536 39.3365ZM46.5219 40.1071L46.2406 39.7063L47.5385 38.7994L47.8197 39.2002L46.5219 40.1071ZM46.8755 40.5792L47.1773 40.9647L48.4258 39.9912L47.8818 39.2963L47.576 39.5347L47.8182 39.8441L46.8755 40.5792ZM47.8968 41.8204L49.3471 41.0854L49.054 40.7367L48.722 40.9252L48.5358 40.7036L48.7784 40.409L48.4862 40.0614L47.5091 41.3593L47.8968 41.8204ZM48.3755 42.2349C48.3728 42.3075 48.4198 42.3954 48.5159 42.4983L49.0574 43.0778L50.2162 41.9994L49.8818 41.6416L49.4265 42.0654L49.3162 41.9475C49.3123 41.936 49.3142 41.9265 49.3223 41.919L49.568 41.6902C49.654 41.6103 49.7122 41.5444 49.7425 41.4924L49.4081 41.1346C49.382 41.1827 49.3274 41.2451 49.2451 41.3217L49.0008 41.549C48.9613 41.5859 48.9355 41.6307 48.9239 41.6834C48.9122 41.735 48.9398 41.8114 49.0068 41.9123C48.9109 41.8383 48.837 41.8051 48.7851 41.8125C48.7316 41.8204 48.6597 41.8665 48.5691 41.9508L48.5355 41.9821C48.4319 42.0785 48.3783 42.1629 48.3755 42.2349ZM50.0615 44.0211L49.215 43.2054L49.4129 43.0009L49.6597 43.2389L50.5625 42.3059L50.9152 42.6458L50.0125 43.5787L50.2593 43.8166L50.0615 44.0211ZM50.2652 44.1446L51.2623 42.9157L51.627 43.2105L51.3686 43.9111L51.8143 43.3618L52.1953 43.6698L51.1982 44.8986L50.8335 44.6039L51.0925 43.9024L50.6462 44.4525L50.2652 44.1446ZM52.0906 45.5489L51.3756 45.0306L51.5431 44.8006L51.8614 45.0314L52.0562 44.7637L51.7379 44.533L51.9028 44.3064L52.2211 44.5372L52.4578 44.2121L52.1395 43.9813L52.3069 43.7513L53.0219 44.2697L52.0906 45.5489ZM52.3999 45.6494C52.4148 45.7204 52.4818 45.7943 52.6 45.871L52.9589 46.1036C53.0778 46.1807 53.1727 46.2116 53.2432 46.1959C53.314 46.1816 53.3882 46.1145 53.4658 45.9953L53.9301 45.2819C54.0068 45.1639 54.0377 45.0695 54.0219 44.9991C54.0077 44.9284 53.9407 44.8545 53.8219 44.7775L53.463 44.5449C53.3447 44.4683 53.2498 44.4373 53.1787 44.4526C53.1085 44.4672 53.0539 44.5047 53.0149 44.5646L52.8307 44.8477L53.2419 45.1142L53.3994 44.8723C53.4085 44.8583 53.4201 44.8561 53.4347 44.8655L53.5407 44.9342C53.5554 44.9437 53.558 44.9552 53.5489 44.9692L53.0246 45.775C53.0147 45.7902 53.0027 45.793 52.988 45.7835L52.8821 45.7149C52.8674 45.7054 52.8651 45.6933 52.875 45.6781L53.0311 45.4382L52.6199 45.1717L52.437 45.4527C52.3973 45.5138 52.3847 45.5794 52.3999 45.6494ZM54.2275 46.8394L53.4623 46.3984L53.6047 46.1523L53.9454 46.3486L54.1111 46.0621L53.7704 45.8658L53.9107 45.6233L54.2514 45.8196L54.4528 45.4716L54.112 45.2753L54.2545 45.0291L55.0198 45.47L54.2275 46.8394ZM55.2444 45.6705C55.3029 45.6487 55.3542 45.6424 55.3982 45.6515L56.2114 46.0299L55.5418 47.463L54.7286 47.0845C54.6933 47.0567 54.6652 47.0135 54.6443 46.9547C54.6029 46.8383 54.6181 46.703 54.6898 46.5497L54.9627 45.9656C55.0343 45.8123 55.1283 45.7137 55.2444 45.6705ZM58.3552 46.8616L57.9185 48.3816L58.3898 48.5164L58.5853 47.8361L58.6215 48.5828L59.0726 48.7118L59.5093 47.1919L59.038 47.057L58.8428 47.7364L58.8063 46.9907L58.3552 46.8616ZM64.0526 48.174L63.9017 48.1687C63.8835 48.168 63.874 48.1766 63.8734 48.1947L63.8326 49.3609L63.3426 49.3439L63.3888 48.0236C63.3913 47.9522 63.4194 47.892 63.4723 47.8434C63.5257 47.7937 63.6227 47.7715 63.764 47.7764L64.0661 47.7869L64.0526 48.174ZM61.4308 49.0739C61.4744 49.1321 61.5664 49.1708 61.706 49.1904L62.1298 49.2498C62.2701 49.2695 62.3693 49.2575 62.4265 49.2136C62.4847 49.1708 62.5235 49.0787 62.5433 48.9379L62.662 48.0955C62.6816 47.9562 62.6696 47.8576 62.6255 47.8005C62.5826 47.7424 62.4907 47.7037 62.3503 47.684L61.9265 47.6246C61.7869 47.605 61.6878 47.6169 61.6298 47.6609C61.5723 47.7037 61.5387 47.7608 61.5288 47.8315L61.4817 48.1657L61.9673 48.2338L62.0075 47.9482C62.0098 47.9316 62.0194 47.9247 62.0367 47.9271L62.1619 47.9447C62.1791 47.9471 62.1865 47.9564 62.1841 47.9729L62.0502 48.9243C62.0476 48.9423 62.038 48.9499 62.0206 48.9475L61.8955 48.9299C61.8782 48.9275 61.871 48.9175 61.8735 48.8995L61.9134 48.6163L61.4279 48.5482L61.3812 48.88C61.371 48.9522 61.3874 49.0169 61.4308 49.0739ZM60.3303 48.9828C60.1918 48.9559 60.1021 48.9124 60.0615 48.8521C60.0212 48.7929 60.0149 48.6932 60.042 48.5537L60.2047 47.7187C60.2316 47.5805 60.2747 47.4912 60.3344 47.4513C60.3946 47.4105 60.4942 47.4038 60.6326 47.4306L61.0527 47.5121C61.1918 47.5391 61.2816 47.5826 61.3214 47.6428C61.3624 47.7022 61.3692 47.8012 61.3424 47.9394L61.1797 48.7744C61.1525 48.9139 61.1089 49.0039 61.0486 49.0436C60.9891 49.0845 60.8895 49.0913 60.7504 49.0643L60.3303 48.9828ZM59.2983 48.7541L59.7761 48.8642L60.1325 47.3235L59.6548 47.2135L59.2983 48.7541ZM64.837 5.21079L65.7205 5.22618L65.7156 5.5104L65.3222 5.50352L65.3164 5.83427L65.7098 5.84115L65.7049 6.1211L65.3115 6.11422L65.3045 6.51605L65.6979 6.52288L65.6929 6.80711L64.8093 6.79172L64.837 5.21079ZM66.8707 6.80655C66.8239 6.84783 66.7783 6.87205 66.7339 6.8793L65.8388 6.81682L65.9494 5.23947L66.8445 5.30195C66.8874 5.31529 66.9292 5.34565 66.9698 5.39297C67.0502 5.48697 67.0846 5.61862 67.0727 5.78737L67.0277 6.43033C67.0159 6.59908 66.9635 6.72473 66.8707 6.80655ZM68.5466 7.1718C68.5915 7.16924 68.6394 7.1499 68.6903 7.11369C68.7911 7.042 68.8564 6.92248 68.8858 6.75597L68.998 6.12119C69.0274 5.95458 69.007 5.82009 68.9369 5.71824C68.9015 5.66692 68.8631 5.63238 68.8217 5.61462L67.9381 5.45912L67.663 7.01629L68.5466 7.1718ZM69.7551 5.80838L69.2755 5.70666L68.9461 7.25333L69.4256 7.35505L69.7551 5.80838ZM70.7371 6.06266C70.8733 6.09911 70.9598 6.14876 70.996 6.21175C71.0319 6.27432 71.0313 6.37422 70.9946 6.5108L70.9314 6.74625L70.4578 6.61958L70.5342 6.33475C70.5389 6.3176 70.533 6.30644 70.5162 6.30193L70.3941 6.2693C70.3772 6.26479 70.3666 6.27153 70.362 6.28868L70.1127 7.21707C70.1084 7.23283 70.1145 7.24329 70.1314 7.2478L70.2534 7.28044C70.2703 7.28499 70.2807 7.2789 70.285 7.26314L70.3657 6.96246L70.2801 6.93959L70.326 6.76866L70.8852 6.91821L70.6795 7.68427L70.5426 7.64764L70.5348 7.49144C70.496 7.57967 70.3941 7.60352 70.229 7.56378L69.9136 7.47945C69.7767 7.44286 69.6901 7.39354 69.6544 7.33143C69.6178 7.26867 69.618 7.16901 69.6545 7.03313L69.8751 6.21147C69.9118 6.07489 69.9616 5.98815 70.0248 5.95203C70.087 5.91535 70.1868 5.91553 70.3236 5.95212L70.7371 6.06266ZM71.777 6.39839L71.3108 6.24722L70.8211 7.75102L71.2874 7.90224L71.777 6.39839ZM71.9637 6.45539L73.0622 6.87623L72.9602 7.14162L72.6397 7.01885L72.174 8.22965L71.7163 8.05435L72.182 6.84355L71.8616 6.72078L71.9637 6.45539ZM72.4463 8.32965L73.4271 7.03457L73.9781 7.27942L73.67 8.87336L73.2546 8.6888L73.3433 8.31784L73.0785 8.20023L72.863 8.5148L72.4463 8.32965ZM74.4531 7.52528L74.89 7.7474L74.3468 8.8112L74.6974 8.98943L74.5212 9.33451L73.7338 8.93412L74.4531 7.52528ZM76.8112 8.96159C76.7951 8.89079 76.7269 8.81804 76.6073 8.74348L76.2444 8.51713C76.1242 8.4422 76.0288 8.41291 75.9585 8.42988C75.888 8.44531 75.8149 8.51374 75.7394 8.63428L75.2878 9.35566C75.2131 9.47499 75.1838 9.56992 75.2008 9.64002C75.2163 9.71045 75.2846 9.78316 75.4047 9.85809L75.7677 10.0844C75.8873 10.159 75.9827 10.1883 76.0535 10.1717C76.1235 10.1559 76.1774 10.1174 76.2153 10.0569L76.3946 9.7706L75.9787 9.5113L75.8256 9.75596C75.8167 9.77014 75.8051 9.77256 75.7903 9.76331L75.6831 9.6965C75.6683 9.68725 75.6654 9.67582 75.6743 9.66164L76.1845 8.84686C76.1941 8.83147 76.206 8.82845 76.2208 8.8377L76.328 8.90451C76.3428 8.91376 76.3454 8.9258 76.3357 8.94118L76.1839 9.18375L76.5997 9.44306L76.7776 9.15888C76.8163 9.0971 76.8276 9.03132 76.8112 8.96159ZM78.0417 9.73941L77.3422 10.7363C77.2613 10.8516 77.1855 10.9157 77.1148 10.9279C77.0432 10.9407 76.9494 10.9065 76.8339 10.8257L76.4833 10.5807C76.3673 10.4997 76.3029 10.4235 76.2911 10.3523C76.2778 10.2814 76.312 10.1882 76.3929 10.0729L77.0923 9.076L77.4939 9.35664L76.7646 10.396C76.7542 10.4109 76.7564 10.4232 76.7713 10.4337L76.8739 10.5054C76.8882 10.5154 76.9003 10.513 76.9108 10.4981L77.64 9.45872L78.0417 9.73941ZM79.0478 10.6648C79.0417 10.5924 78.9842 10.511 78.8762 10.4205L78.268 9.91118L77.2495 11.1224L77.6251 11.437L78.0254 10.9609L78.1492 11.0646C78.1545 11.0755 78.1538 11.0851 78.1467 11.0936L77.9306 11.3505C77.8551 11.4403 77.8054 11.5128 77.7817 11.568L78.1572 11.8825C78.1773 11.8316 78.2239 11.763 78.2962 11.677L78.5108 11.4217C78.5456 11.3803 78.5657 11.3327 78.5708 11.279C78.5761 11.2263 78.5394 11.1538 78.4606 11.0619C78.5648 11.1237 78.6422 11.1476 78.6928 11.1339C78.7449 11.1195 78.8106 11.0651 78.8903 10.9704L78.9198 10.9353C79.0109 10.8269 79.0538 10.7367 79.0478 10.6648ZM79.9187 11.3834C80.0218 11.4793 80.0749 11.5637 80.0772 11.6363C80.0794 11.7084 80.0319 11.7963 79.9353 11.8997L79.9039 11.9332C79.8194 12.0237 79.7509 12.0746 79.6982 12.0862C79.6469 12.0973 79.5709 12.0693 79.47 12.0022C79.5439 12.0981 79.5767 12.1724 79.5687 12.2247C79.5608 12.2781 79.5383 12.3246 79.5013 12.3641L79.2736 12.6078C79.1968 12.69 79.1467 12.756 79.124 12.8059L78.7655 12.4722C78.7921 12.4182 78.8455 12.3484 78.9257 12.2627L79.1549 12.0174C79.1624 12.0093 79.1636 11.9997 79.1589 11.9886L79.0407 11.8786L78.616 12.3331L78.2574 11.9994L79.3381 10.843L79.9187 11.3834ZM80.9761 12.4549L80.3622 11.8205L79.2225 12.9189L79.8364 13.5533L80.0413 13.3558L79.768 13.0734L80.0576 12.7942L80.3309 13.0767L80.5328 12.8822L80.2595 12.5997L80.4979 12.3699L80.7712 12.6524L80.9761 12.4549ZM80.7166 14.5719L81.9124 13.5345L81.5907 13.1653L81.0555 13.6296L81.4326 12.9837L81.1247 12.6302L79.9289 13.6676L80.2506 14.0369L80.7851 13.5732L80.4087 14.2185L80.7166 14.5719ZM82.6563 14.6637C82.6679 14.592 82.6319 14.4991 82.5491 14.3852L82.2975 14.0397C82.2142 13.9253 82.1367 13.8625 82.0653 13.8519C81.994 13.8399 81.9006 13.876 81.7854 13.9595L81.0958 14.4595C80.9817 14.5423 80.919 14.6193 80.9085 14.6907C80.8964 14.7618 80.9324 14.8547 81.0156 14.9691L81.2672 15.3146C81.3501 15.4285 81.4275 15.4914 81.4995 15.5024C81.5703 15.5139 81.6347 15.4984 81.6926 15.4564L81.9662 15.2581L81.678 14.8622L81.4442 15.0318C81.4306 15.0416 81.419 15.0395 81.4087 15.0254L81.3344 14.9234C81.3242 14.9092 81.3258 14.8975 81.3393 14.8877L82.1182 14.323C82.1329 14.3123 82.1451 14.314 82.1554 14.3281L82.2297 14.4301C82.2399 14.4443 82.2377 14.4563 82.223 14.467L81.9912 14.6351L82.2794 15.031L82.551 14.8341C82.61 14.7912 82.6453 14.7345 82.6563 14.6637ZM82.3168 15.6302L82.8629 14.8281L83.1158 15.2167L82.7631 15.6338L83.2879 15.4813L83.5406 15.8696L82.5844 16.0415L82.0069 16.4158L81.7393 16.0046L82.3168 15.6302ZM80.4771 40.2787C80.4583 40.3195 80.4529 40.3708 80.4611 40.4326C80.4772 40.5551 80.5523 40.6687 80.6858 40.7728L81.1947 41.1697C81.3283 41.2738 81.4569 41.319 81.58 41.305C81.642 41.2979 81.6906 41.2803 81.7257 41.2522L82.2781 40.5466L81.0295 39.5731L80.4771 40.2787ZM81.1162 41.986L81.4313 41.6112L80.2176 40.5948L79.9024 40.9696L81.1162 41.986ZM80.4001 42.7192C80.3039 42.8221 80.2193 42.8751 80.1466 42.8774C80.0744 42.8796 79.9863 42.8322 79.8827 42.7358L79.704 42.5695L80.0385 42.2117L80.2546 42.4128C80.2676 42.4249 80.2802 42.425 80.2921 42.4123L80.3783 42.32C80.3902 42.3072 80.3892 42.2947 80.3762 42.2826L79.6718 41.6271C79.6599 41.616 79.6478 41.6164 79.6359 41.6291L79.5497 41.7213C79.5378 41.7341 79.5382 41.7461 79.5502 41.7573L79.7783 41.9696L79.8388 41.9049L79.9684 42.0255L79.5736 42.4481L78.9924 41.9072L79.0891 41.8038L79.2309 41.8703C79.1711 41.7946 79.1978 41.6937 79.3105 41.5668L79.5332 41.3285C79.6298 41.225 79.7141 41.1718 79.7858 41.1696C79.8585 41.1668 79.9466 41.2138 80.0497 41.3097L80.6731 41.8899C80.7767 41.9863 80.8301 42.0709 80.8324 42.1435C80.8356 42.2156 80.7886 42.3034 80.692 42.4069L80.4001 42.7192ZM79.6325 43.474L79.9852 43.1342L78.8846 41.9967L78.5319 42.3366L79.6325 43.474ZM79.4996 43.6077L78.6116 44.3781L78.4247 44.1636L78.6837 43.9389L77.8311 42.9601L78.2011 42.6391L79.0538 43.6179L79.3128 43.3932L79.4996 43.6077ZM77.602 43.1465L78.313 44.6065L77.8443 44.9854L76.5611 43.9877L76.9144 43.7022L77.2054 43.9494L77.4306 43.7674L77.2476 43.4329L77.602 43.1465ZM77.3857 45.2935L76.989 45.5811L76.2858 44.6152L75.9675 44.846L75.7394 44.5327L76.4544 44.0143L77.3857 45.2935ZM75.0022 46.7035C75.0724 46.7225 75.1688 46.6965 75.2909 46.6262L75.6615 46.4126C75.7842 46.3419 75.8549 46.2716 75.8729 46.2018C75.8924 46.1323 75.8661 46.0359 75.7949 45.9127L75.3687 45.1761C75.2983 45.0542 75.228 44.9839 75.158 44.966C75.0884 44.9466 74.992 44.9726 74.8693 45.0433L74.4987 45.2568C74.3765 45.3272 74.3058 45.3975 74.2872 45.4677C74.2684 45.5368 74.2771 45.6024 74.3129 45.6642L74.482 45.9565L74.9066 45.7119L74.7621 45.462C74.7538 45.4476 74.757 45.4362 74.7721 45.4275L74.8816 45.3645C74.8967 45.3557 74.9082 45.3586 74.9166 45.373L75.3979 46.2051C75.407 46.2208 75.4041 46.2327 75.3889 46.2414L75.2795 46.3045C75.2644 46.3132 75.2525 46.3098 75.2435 46.2941L75.1002 46.0464L74.6755 46.291L74.8434 46.5812C74.8799 46.6443 74.9328 46.6852 75.0022 46.7035ZM73.7537 47.4158L73.1813 46.3413C73.1151 46.217 73.0922 46.1205 73.1135 46.0521C73.1345 45.9825 73.2077 45.9148 73.3322 45.8487L73.71 45.6482C73.8352 45.5818 73.9324 45.5592 74.0012 45.581C74.0706 45.6014 74.1384 45.6741 74.2046 45.7983L74.7771 46.8728L74.3442 47.1025L73.7473 45.9822C73.7387 45.9662 73.7267 45.9625 73.7107 45.971L73.6 46.0297C73.5846 46.0379 73.5812 46.0498 73.5898 46.0658L74.1867 47.1861L73.7537 47.4158ZM72.4388 47.8661C72.5057 47.8947 72.6048 47.8823 72.7355 47.8296L73.4717 47.5328L72.8781 46.0667L72.4236 46.25L72.6568 46.8262L72.507 46.8866C72.4949 46.8862 72.4867 46.881 72.4825 46.8708L72.3566 46.5598C72.3126 46.4511 72.2718 46.3733 72.2341 46.3264L71.7795 46.5097C71.8151 46.5513 71.854 46.6245 71.8962 46.7287L72.0213 47.0377C72.0415 47.0877 72.0743 47.1278 72.1194 47.1576C72.1635 47.1869 72.2448 47.1886 72.3632 47.1623C72.2596 47.2251 72.2021 47.2821 72.1905 47.3331C72.1787 47.3858 72.196 47.4692 72.2424 47.5839L72.2596 47.6264C72.3127 47.7575 72.3724 47.8377 72.4388 47.8661ZM71.4093 48.3065C71.276 48.3524 71.1764 48.3595 71.1111 48.3274C71.0463 48.2956 70.9908 48.2124 70.9447 48.0787L70.9297 48.0354C70.8894 47.9185 70.8765 47.8342 70.891 47.7822C70.9053 47.7319 70.9657 47.678 71.0725 47.6207C70.9529 47.6407 70.8718 47.6348 70.8292 47.6032C70.7857 47.5711 70.7551 47.5294 70.7375 47.4784L70.6288 47.1632C70.5921 47.0571 70.5572 46.9819 70.5238 46.9385L70.9874 46.7792C71.0226 46.828 71.0593 46.9078 71.0975 47.0187L71.2069 47.3358C71.2105 47.3462 71.2184 47.3518 71.2305 47.3529L71.3833 47.3004L71.1806 46.7128L71.6441 46.5535L72.16 48.0486L71.4093 48.3065ZM69.9549 48.7393L70.8043 48.4962L70.3676 46.9763L69.5182 47.2193L69.5966 47.4926L69.9748 47.3844L70.0858 47.7707L69.7076 47.8789L69.785 48.1481L70.1632 48.0398L70.2545 48.3578L69.8764 48.466L69.9549 48.7393ZM68.197 47.4979L68.5535 49.0386L69.0311 48.9285L68.8716 48.2388L69.2661 48.8744L69.7233 48.7691L69.3669 47.2284L68.8892 47.3384L69.0485 48.0271L68.6543 47.3925L68.197 47.4979ZM67.2009 49.1604C67.2588 49.2043 67.3579 49.2163 67.4976 49.1967L67.9214 49.1373C68.0617 49.1176 68.1537 49.0788 68.1965 49.0208C68.2407 48.9637 68.2526 48.8644 68.2327 48.7237L68.1141 47.8813C68.0945 47.7419 68.0557 47.6505 67.9975 47.6077C67.9403 47.5637 67.8412 47.5518 67.7009 47.5715L67.2771 47.6309C67.1375 47.6505 67.0455 47.6892 67.0019 47.7474C66.9585 47.8044 66.9419 47.8684 66.9519 47.9391L66.999 48.2734L67.4845 48.2053L67.4443 47.9196C67.442 47.9031 67.4493 47.8938 67.4666 47.8914L67.5917 47.8738C67.609 47.8714 67.6186 47.8783 67.6209 47.8948L67.7549 48.8463C67.7575 48.8642 67.7502 48.8742 67.733 48.8766L67.6078 48.8942C67.5905 48.8966 67.5808 48.889 67.5783 48.8711L67.5384 48.5878L67.0529 48.6559L67.0996 48.9877C67.1097 49.0598 67.1434 49.1176 67.2009 49.1604ZM66.5087 48.3993L66.962 49.2571L66.4995 49.2975L66.296 48.791L66.1845 49.325L65.7224 49.3654L66.0192 48.442L65.9592 47.7574L66.4487 47.7147L66.5087 48.3993ZM83.5247 16.7734C83.5247 16.64 83.4163 16.5319 83.2826 16.5319C83.149 16.5319 83.0406 16.64 83.0406 16.7734C83.0406 16.9068 83.149 17.015 83.2826 17.015C83.4163 17.015 83.5247 16.9068 83.5247 16.7734ZM46.1692 16.0166C46.3028 16.0166 46.4112 16.1248 46.4112 16.2581C46.4112 16.3915 46.3028 16.4997 46.1692 16.4997C46.0355 16.4997 45.9271 16.3915 45.9271 16.2581C45.9271 16.1248 46.0355 16.0166 46.1692 16.0166ZM51.6354 10.0864C51.7691 10.0864 51.8775 10.1945 51.8775 10.3279C51.8775 10.4613 51.7691 10.5694 51.6354 10.5694C51.5018 10.5694 51.3934 10.4613 51.3934 10.3279C51.3934 10.1945 51.5018 10.0864 51.6354 10.0864ZM56.9057 46.9424C57.0393 46.9424 57.1477 47.0506 57.1477 47.1839C57.1477 47.3173 57.0393 47.4255 56.9057 47.4255C56.772 47.4255 56.6636 47.3173 56.6636 47.1839C56.6636 47.0506 56.772 46.9424 56.9057 46.9424ZM64.8921 48.3488C65.0258 48.3488 65.1342 48.457 65.1342 48.5904C65.1342 48.7237 65.0258 48.8319 64.8921 48.8319C64.7585 48.8319 64.6501 48.7237 64.6501 48.5904C64.6501 48.457 64.7585 48.3488 64.8921 48.3488Z" fill="url(#paint30_linear_877_1299)"/>
<path fill-rule="evenodd" clip-rule="evenodd" d="M20.7664 16.5439C20.7664 17.8007 19.7495 18.8196 18.4951 18.8196C17.2407 18.8196 16.2237 17.8007 16.2237 16.5439C16.2237 15.2871 17.2407 14.2683 18.4951 14.2683C19.7495 14.2683 20.7664 15.2871 20.7664 16.5439ZM19.4685 16.5439C19.4685 17.0826 19.0327 17.5192 18.4951 17.5192C17.9575 17.5192 17.5217 17.0826 17.5217 16.5439C17.5217 16.0053 17.9575 15.5686 18.4951 15.5686C19.0327 15.5686 19.4685 16.0053 19.4685 16.5439Z" fill="url(#paint31_linear_877_1299)"/>
<path fill-rule="evenodd" clip-rule="evenodd" d="M25.882 31.1733L15.8995 22.0706L14.0583 22.0706C13.6937 22.8394 12.9116 23.371 12.0055 23.371C10.7511 23.371 9.73417 22.3521 9.73417 21.0953C9.73417 19.8385 10.7511 18.8196 12.0055 18.8196C12.9116 18.8196 13.6937 19.3512 14.0583 20.12L17.1975 20.12L27.1441 29.2227H35.6926V31.1733H25.9583V31.0708L25.882 31.1733ZM12.0055 22.0706C12.5431 22.0706 12.9789 21.6339 12.9789 21.0953C12.9789 20.5567 12.5431 20.12 12.0055 20.12C11.4679 20.12 11.0321 20.5567 11.0321 21.0953C11.0321 21.6339 11.4679 22.0706 12.0055 22.0706Z" fill="url(#paint32_linear_877_1299)"/>
<path fill-rule="evenodd" clip-rule="evenodd" d="M4.32411 24.6714H16.8729L18.8197 26.6219H4.32411C3.95957 27.3908 3.17741 27.9223 2.27134 27.9223C1.01692 27.9223 0 26.9035 0 25.6467C0 24.3898 1.01692 23.371 2.27134 23.371C3.17742 23.371 3.95957 23.9025 4.32411 24.6714ZM3.24479 25.6467C3.24479 26.1853 2.80897 26.622 2.27136 26.622C1.73375 26.622 1.29793 26.1853 1.29793 25.6467C1.29793 25.108 1.73375 24.6714 2.27136 24.6714C2.80897 24.6714 3.24479 25.108 3.24479 25.6467Z" fill="url(#paint33_linear_877_1299)"/>
<path d="M25.9581 26.622H35.6924V24.6714H24.0112L25.9581 26.622Z" fill="url(#paint34_linear_877_1299)"/>
<path d="M35.6928 33.7741H21.4158L23.3626 35.7247H35.6928V33.7741Z" fill="url(#paint35_linear_877_1299)"/>
<path d="M20.7666 15.5686H33.7457L31.7989 17.5192H20.7666V15.5686Z" fill="url(#paint36_linear_877_1299)"/>
<path fill-rule="evenodd" clip-rule="evenodd" d="M22.0645 29.2227H10.8137C10.4491 28.4539 9.66699 27.9223 8.76091 27.9223C7.50649 27.9223 6.48957 28.9412 6.48957 30.198C6.48957 31.4548 7.50649 32.4737 8.76091 32.4737C9.66698 32.4737 10.4491 31.9421 10.8137 31.1733H24.0114L22.0645 29.2227ZM8.7609 31.1733C9.29851 31.1733 9.73433 30.7367 9.73433 30.198C9.73433 29.6594 9.29851 29.2227 8.7609 29.2227C8.22329 29.2227 7.78747 29.6594 7.78747 30.198C7.78747 30.7367 8.22329 31.1733 8.7609 31.1733Z" fill="url(#paint37_linear_877_1299)"/>
<path d="M81.9743 38.737C81.9651 38.7518 81.9678 38.7635 81.9826 38.7727L82.7991 39.2819C82.8138 39.2911 82.8256 39.2884 82.8349 39.2736L82.9156 39.1447L82.0551 38.608L81.9743 38.737Z" fill="url(#paint38_linear_877_1299)"/>
<defs>
<linearGradient id="paint0_linear_877_1299" x1="85.7093" y1="46.0668" x2="37.5874" y2="37.7477" gradientUnits="userSpaceOnUse">
<stop stop-color="#90C626"/>
<stop offset="1" stop-color="#20934A"/>
</linearGradient>
<linearGradient id="paint1_linear_877_1299" x1="85.7093" y1="46.0668" x2="37.5874" y2="37.7477" gradientUnits="userSpaceOnUse">
<stop stop-color="#90C626"/>
<stop offset="1" stop-color="#20934A"/>
</linearGradient>
<linearGradient id="paint2_linear_877_1299" x1="165.125" y1="29.841" x2="197.48" y2="25.8674" gradientUnits="userSpaceOnUse">
<stop stop-color="#90C626"/>
<stop offset="1" stop-color="#20934A"/>
</linearGradient>
<linearGradient id="paint3_linear_877_1299" x1="65.4437" y1="27.761" x2="157.839" y2="4.67512" gradientUnits="userSpaceOnUse">
<stop stop-color="#90C626"/>
<stop offset="1" stop-color="#20934A"/>
</linearGradient>
<linearGradient id="paint4_linear_877_1299" x1="65.4437" y1="27.761" x2="157.839" y2="4.67508" gradientUnits="userSpaceOnUse">
<stop stop-color="#90C626"/>
<stop offset="1" stop-color="#20934A"/>
</linearGradient>
<linearGradient id="paint5_linear_877_1299" x1="65.4437" y1="27.761" x2="157.839" y2="4.67509" gradientUnits="userSpaceOnUse">
<stop stop-color="#90C626"/>
<stop offset="1" stop-color="#20934A"/>
</linearGradient>
<linearGradient id="paint6_linear_877_1299" x1="65.4437" y1="27.7611" x2="157.839" y2="4.67516" gradientUnits="userSpaceOnUse">
<stop stop-color="#90C626"/>
<stop offset="1" stop-color="#20934A"/>
</linearGradient>
<linearGradient id="paint7_linear_877_1299" x1="65.4437" y1="27.761" x2="157.839" y2="4.67508" gradientUnits="userSpaceOnUse">
<stop stop-color="#90C626"/>
<stop offset="1" stop-color="#20934A"/>
</linearGradient>
<linearGradient id="paint8_linear_877_1299" x1="-10.1366" y1="30.1096" x2="62.8393" y2="17.8907" gradientUnits="userSpaceOnUse">
<stop stop-color="#90C626"/>
<stop offset="1" stop-color="#20934A"/>
</linearGradient>
<linearGradient id="paint9_linear_877_1299" x1="-10.1366" y1="30.1096" x2="62.8393" y2="17.8907" gradientUnits="userSpaceOnUse">
<stop stop-color="#90C626"/>
<stop offset="1" stop-color="#20934A"/>
</linearGradient>
<linearGradient id="paint10_linear_877_1299" x1="-10.1366" y1="30.1096" x2="62.8393" y2="17.8907" gradientUnits="userSpaceOnUse">
<stop stop-color="#90C626"/>
<stop offset="1" stop-color="#20934A"/>
</linearGradient>
<linearGradient id="paint11_linear_877_1299" x1="-10.1366" y1="30.1096" x2="62.8393" y2="17.8907" gradientUnits="userSpaceOnUse">
<stop stop-color="#90C626"/>
<stop offset="1" stop-color="#20934A"/>
</linearGradient>
<linearGradient id="paint12_linear_877_1299" x1="-10.1366" y1="30.1096" x2="62.8393" y2="17.8907" gradientUnits="userSpaceOnUse">
<stop stop-color="#90C626"/>
<stop offset="1" stop-color="#20934A"/>
</linearGradient>
<linearGradient id="paint13_linear_877_1299" x1="-10.1366" y1="30.1096" x2="62.8393" y2="17.8907" gradientUnits="userSpaceOnUse">
<stop stop-color="#90C626"/>
<stop offset="1" stop-color="#20934A"/>
</linearGradient>
<linearGradient id="paint14_linear_877_1299" x1="-10.1366" y1="30.1096" x2="62.8393" y2="17.8907" gradientUnits="userSpaceOnUse">
<stop stop-color="#90C626"/>
<stop offset="1" stop-color="#20934A"/>
</linearGradient>
<linearGradient id="paint15_linear_877_1299" x1="-10.1366" y1="30.1096" x2="62.8393" y2="17.8907" gradientUnits="userSpaceOnUse">
<stop stop-color="#90C626"/>
<stop offset="1" stop-color="#20934A"/>
</linearGradient>
<linearGradient id="paint16_linear_877_1299" x1="-10.1366" y1="30.1096" x2="62.8393" y2="17.8907" gradientUnits="userSpaceOnUse">
<stop stop-color="#90C626"/>
<stop offset="1" stop-color="#20934A"/>
</linearGradient>
<linearGradient id="paint17_linear_877_1299" x1="-10.1366" y1="30.1096" x2="62.8393" y2="17.8907" gradientUnits="userSpaceOnUse">
<stop stop-color="#90C626"/>
<stop offset="1" stop-color="#20934A"/>
</linearGradient>
<linearGradient id="paint18_linear_877_1299" x1="-10.1366" y1="30.1096" x2="62.8393" y2="17.8907" gradientUnits="userSpaceOnUse">
<stop stop-color="#90C626"/>
<stop offset="1" stop-color="#20934A"/>
</linearGradient>
<linearGradient id="paint19_linear_877_1299" x1="-10.1366" y1="30.1096" x2="62.8393" y2="17.8907" gradientUnits="userSpaceOnUse">
<stop stop-color="#90C626"/>
<stop offset="1" stop-color="#20934A"/>
</linearGradient>
<linearGradient id="paint20_linear_877_1299" x1="-10.1366" y1="30.1096" x2="62.8393" y2="17.8907" gradientUnits="userSpaceOnUse">
<stop stop-color="#90C626"/>
<stop offset="1" stop-color="#20934A"/>
</linearGradient>
<linearGradient id="paint21_linear_877_1299" x1="-10.1366" y1="30.1096" x2="62.8393" y2="17.8907" gradientUnits="userSpaceOnUse">
<stop stop-color="#90C626"/>
<stop offset="1" stop-color="#20934A"/>
</linearGradient>
<linearGradient id="paint22_linear_877_1299" x1="-10.1366" y1="30.1096" x2="62.8393" y2="17.8907" gradientUnits="userSpaceOnUse">
<stop stop-color="#90C626"/>
<stop offset="1" stop-color="#20934A"/>
</linearGradient>
<linearGradient id="paint23_linear_877_1299" x1="-10.1366" y1="30.1096" x2="62.8393" y2="17.8907" gradientUnits="userSpaceOnUse">
<stop stop-color="#90C626"/>
<stop offset="1" stop-color="#20934A"/>
</linearGradient>
<linearGradient id="paint24_linear_877_1299" x1="-10.1366" y1="30.1096" x2="62.8393" y2="17.8907" gradientUnits="userSpaceOnUse">
<stop stop-color="#90C626"/>
<stop offset="1" stop-color="#20934A"/>
</linearGradient>
<linearGradient id="paint25_linear_877_1299" x1="-10.1366" y1="30.1096" x2="62.8393" y2="17.8907" gradientUnits="userSpaceOnUse">
<stop stop-color="#90C626"/>
<stop offset="1" stop-color="#20934A"/>
</linearGradient>
<linearGradient id="paint26_linear_877_1299" x1="-10.1366" y1="30.1096" x2="62.8393" y2="17.8907" gradientUnits="userSpaceOnUse">
<stop stop-color="#90C626"/>
<stop offset="1" stop-color="#20934A"/>
</linearGradient>
<linearGradient id="paint27_linear_877_1299" x1="-10.1366" y1="30.1096" x2="62.8393" y2="17.8907" gradientUnits="userSpaceOnUse">
<stop stop-color="#90C626"/>
<stop offset="1" stop-color="#20934A"/>
</linearGradient>
<linearGradient id="paint28_linear_877_1299" x1="-10.1366" y1="30.1096" x2="62.8393" y2="17.8907" gradientUnits="userSpaceOnUse">
<stop stop-color="#90C626"/>
<stop offset="1" stop-color="#20934A"/>
</linearGradient>
<linearGradient id="paint29_linear_877_1299" x1="-10.1366" y1="30.1096" x2="62.8393" y2="17.8907" gradientUnits="userSpaceOnUse">
<stop stop-color="#90C626"/>
<stop offset="1" stop-color="#20934A"/>
</linearGradient>
<linearGradient id="paint30_linear_877_1299" x1="-10.1366" y1="30.1096" x2="62.8393" y2="17.8907" gradientUnits="userSpaceOnUse">
<stop stop-color="#90C626"/>
<stop offset="1" stop-color="#20934A"/>
</linearGradient>
<linearGradient id="paint31_linear_877_1299" x1="-10.1366" y1="30.1096" x2="62.8393" y2="17.8907" gradientUnits="userSpaceOnUse">
<stop stop-color="#90C626"/>
<stop offset="1" stop-color="#20934A"/>
</linearGradient>
<linearGradient id="paint32_linear_877_1299" x1="-10.1366" y1="30.1096" x2="62.8393" y2="17.8907" gradientUnits="userSpaceOnUse">
<stop stop-color="#90C626"/>
<stop offset="1" stop-color="#20934A"/>
</linearGradient>
<linearGradient id="paint33_linear_877_1299" x1="-10.1366" y1="30.1096" x2="62.8393" y2="17.8907" gradientUnits="userSpaceOnUse">
<stop stop-color="#90C626"/>
<stop offset="1" stop-color="#20934A"/>
</linearGradient>
<linearGradient id="paint34_linear_877_1299" x1="-10.1366" y1="30.1096" x2="62.8393" y2="17.8907" gradientUnits="userSpaceOnUse">
<stop stop-color="#90C626"/>
<stop offset="1" stop-color="#20934A"/>
</linearGradient>
<linearGradient id="paint35_linear_877_1299" x1="-10.1366" y1="30.1096" x2="62.8393" y2="17.8907" gradientUnits="userSpaceOnUse">
<stop stop-color="#90C626"/>
<stop offset="1" stop-color="#20934A"/>
</linearGradient>
<linearGradient id="paint36_linear_877_1299" x1="-10.1366" y1="30.1096" x2="62.8393" y2="17.8907" gradientUnits="userSpaceOnUse">
<stop stop-color="#90C626"/>
<stop offset="1" stop-color="#20934A"/>
</linearGradient>
<linearGradient id="paint37_linear_877_1299" x1="-10.1366" y1="30.1096" x2="62.8393" y2="17.8907" gradientUnits="userSpaceOnUse">
<stop stop-color="#90C626"/>
<stop offset="1" stop-color="#20934A"/>
</linearGradient>
<linearGradient id="paint38_linear_877_1299" x1="-10.1366" y1="30.1096" x2="62.8393" y2="17.8907" gradientUnits="userSpaceOnUse">
<stop stop-color="#90C626"/>
<stop offset="1" stop-color="#20934A"/>
</linearGradient>
</defs>
</svg>
