<svg width="133" height="130" viewBox="0 0 133 130" fill="none" xmlns="http://www.w3.org/2000/svg">
<path fill-rule="evenodd" clip-rule="evenodd" d="M60.0363 1.43515L132.952 14.5684V129.068L41.2261 89.3826C29.1736 87.1619 18.8041 80.1362 12.1778 70.3656L9.94255 66.7056C9.0461 65.0668 8.2487 63.366 7.55842 61.6114C7.25207 60.8028 6.56578 58.9202 6.27138 57.8582C5.08707 53.8291 4.45166 49.5651 4.45166 45.1527C4.45166 41.7821 4.82243 38.4982 5.5254 35.3394C5.77337 34.1265 6.30103 32.3319 6.53387 31.5862C7.06543 29.904 7.69322 28.2645 8.41077 26.6743L10.399 22.7855C18.1582 9.27559 32.7303 0.176758 49.4276 0.176758C53.082 0.176758 56.6346 0.612603 60.0363 1.43515Z" fill="#20934A"/>
<path opacity="0.6" fill-rule="evenodd" clip-rule="evenodd" d="M45.9278 90.1528C70.7673 90.1528 90.9037 70.0164 90.9037 45.1768C90.9037 20.3373 70.7673 0.200928 45.9278 0.200928C29.2306 0.200928 14.6585 9.29976 6.89926 22.8097L4.91102 26.6984C4.19346 28.2887 3.56567 29.9282 3.03411 31.6104C2.80128 32.3561 2.27362 34.1507 2.02564 35.3635C1.32268 38.5223 0.951904 41.8063 0.951904 45.1768C0.951904 49.5893 1.58732 53.8533 2.77162 57.8824C3.06603 58.9443 3.75232 60.827 4.05866 61.6356C4.74895 63.3902 5.54634 65.0909 6.4428 66.7298L8.67807 70.3898C16.7663 82.3161 30.4319 90.1528 45.9278 90.1528ZM45.9277 87.253C69.1337 87.253 87.9458 68.4408 87.9458 45.2349C87.9458 22.0289 69.1337 3.21672 45.9277 3.21672C22.7217 3.21672 3.90958 22.0289 3.90958 45.2349C3.90958 68.4408 22.7217 87.253 45.9277 87.253Z" fill="#C5D82E"/>
<circle cx="45.928" cy="45.1768" r="35.9807" fill="#022426"/>
<path d="M74.9508 46.8326C74.0926 62.1141 61.4279 74.2414 45.9304 74.2414C29.8773 74.2414 16.8637 61.2289 16.8637 45.1771C16.8637 29.1253 29.8773 16.1128 45.9304 16.1128C60.4825 16.1128 72.537 26.8056 74.664 40.7622H74.1227C72.0004 27.1023 60.1864 16.6477 45.9304 16.6477C30.1728 16.6477 17.3986 29.4207 17.3986 45.1771C17.3986 60.9334 30.1728 73.7065 45.9304 73.7065C61.1323 73.7065 73.5574 61.8185 74.415 46.8326H74.9508Z" fill="#C5D82E"/>
<path d="M65.3416 26.0862C69.1983 30.0066 71.8763 35.09 72.8013 40.7622H72.2934C71.3738 35.231 68.7553 30.274 64.9922 26.4456C64.818 26.5009 64.6201 26.4648 64.4747 26.3336L62.9803 24.9839C62.8307 24.8488 62.7758 24.6479 62.8198 24.4648C58.2163 20.7071 52.3366 18.4533 45.9304 18.4533C45.8074 18.4533 45.6846 18.4542 45.562 18.4558V18.8745C45.5619 18.8746 45.5622 18.8745 45.562 18.8745L45.5625 19.3319L45.589 19.3584C45.58 19.3585 45.571 19.3586 45.562 19.3587V19.7944C45.6846 19.7927 45.8074 19.7918 45.9304 19.7918L45.9304 20.259C45.8074 20.259 45.6846 20.2599 45.562 20.2617V20.7143C45.6846 20.7124 45.8074 20.7115 45.9304 20.7115L45.9304 21.1618C45.8074 21.1618 45.6846 21.1628 45.562 21.1646V21.2645H45.3093C45.5561 21.2732 45.7676 21.4207 45.868 21.6314C45.8888 21.6313 45.9096 21.6313 45.9304 21.6313V22.1831C45.9305 22.1831 45.9304 22.1831 45.9304 22.1831L45.9303 22.5511C45.9303 22.5511 45.9304 22.5511 45.9303 22.5511L45.9304 23.0814C45.9305 23.0814 45.9304 23.0814 45.9304 23.0814L45.9303 23.4708C45.9303 23.4708 45.9304 23.4708 45.9303 23.4708L45.9304 23.9796C45.9305 23.9796 45.9304 23.9796 45.9304 23.9796L45.9303 24.3906C45.9303 24.3906 45.9304 24.3906 45.9303 24.3906L45.9304 24.8778C45.9305 24.8778 45.9304 24.8778 45.9304 24.8778L45.9303 25.0357C45.9303 25.3914 45.642 25.6797 45.2863 25.6797C44.9307 25.6797 44.6423 25.3914 44.6423 25.0357V21.908C44.6423 21.5601 44.9183 21.2766 45.2634 21.2645H45.01V21.1791C44.9181 21.1826 44.8263 21.1866 44.7346 21.1911V20.7402C44.8263 20.7358 44.9181 20.7319 45.01 20.7285V20.2757C44.9181 20.279 44.8263 20.2829 44.7346 20.2872V19.8194C44.8263 19.8152 44.9181 19.8114 45.01 19.8082V19.3723C44.9999 19.3726 44.9897 19.373 44.9795 19.3734L45.01 19.3326V18.4689C30.6759 18.9539 19.2045 30.726 19.2045 45.1771C19.2045 59.3179 30.1885 70.8935 44.0908 71.8385V71.85H44.269C44.3932 71.8577 44.5177 71.8644 44.6423 71.8704V69.0906H44.8958C44.5508 69.0786 44.2747 68.7951 44.2747 68.4471V65.3194C44.2747 64.9637 44.563 64.6754 44.9187 64.6754C45.2744 64.6754 45.5627 64.9637 45.5627 65.3194V68.4471C45.5627 68.7951 45.2867 69.0786 44.9416 69.0906H45.1943V69.1813C45.1942 69.1813 45.1944 69.1813 45.1943 69.1813L45.1946 69.6318C45.1946 69.6318 45.1945 69.6318 45.1946 69.6318L45.1943 70.0845C45.1942 70.0845 45.1944 70.0845 45.1943 70.0845L45.1946 70.5519C45.1946 70.5519 45.1945 70.5519 45.1946 70.5519L45.1943 70.9877C45.1942 70.9877 45.1944 70.9877 45.1943 70.9877L45.1946 71.4721C45.1946 71.4721 45.1945 71.4721 45.1946 71.4721L45.1943 71.8909C45.4389 71.8975 45.6843 71.9008 45.9304 71.9008C60.1347 71.9008 71.7509 60.8207 72.6059 46.8326H73.108C72.2522 61.0976 60.4116 72.4019 45.9304 72.4019C45.6843 72.4019 45.4389 72.3986 45.1943 72.3921V72.4023H44.6423V72.372C30.2033 71.6996 18.7033 59.7812 18.7033 45.1771C18.7033 30.4492 30.399 18.4528 45.01 17.9675V17.9528H45.562V17.9547C45.6846 17.9531 45.8074 17.9523 45.9304 17.9523C52.4647 17.9523 58.4614 20.2539 63.1538 24.0906C63.3329 24.0252 63.5412 24.0587 63.6926 24.1953L65.187 25.545C65.3427 25.6856 65.3958 25.8973 65.3416 26.0862Z" fill="#C5D82E"/>
<path d="M44.0908 70.0283V70.4968C44.0907 70.4968 44.0908 70.4968 44.0908 70.4968L44.0906 70.9335C44.0906 70.9335 44.0907 70.9335 44.0906 70.9335L44.0908 71.4188C30.42 70.4746 19.6232 59.0866 19.6232 45.1771C19.6232 31.143 30.6142 19.6759 44.4587 18.9125V19.3974C30.8818 20.1602 20.1074 31.4105 20.1074 45.1771C20.1074 58.694 30.4944 69.785 43.7226 70.905V70.4677C30.7353 69.349 20.543 58.4532 20.543 45.1771C20.543 32.9869 29.1362 22.8035 40.5959 20.3532V20.3441H40.6382C41.2298 20.2187 41.829 20.1139 42.4351 20.0304L42.4359 22.184H40.5959V21.7563C40.1598 21.8552 39.7281 21.966 39.3014 22.0883L38.3878 22.2751V22.37C28.8184 25.5325 21.9132 34.5484 21.9132 45.1771C21.9132 55.669 28.6419 64.5895 38.0199 67.8592V68.079L42.0671 68.9068L44.0908 69.2747V69.5745C31.437 68.634 21.4628 58.0702 21.4628 45.1771C21.4628 33.4972 29.6482 23.7289 40.5959 21.2947V20.8312C29.3962 23.2735 21.0103 33.2461 21.0103 45.1771C21.0103 58.3203 31.1868 69.0868 44.0908 70.0283Z" fill="#C5D82E"/>
<path d="M38.0199 67.3613C28.906 64.1117 22.3827 55.4061 22.3827 45.1771C22.3827 34.8109 29.0821 26.0093 38.3878 22.8651V23.4486C38.3874 23.4487 38.387 23.4489 38.3866 23.449V23.839C38.387 23.8388 38.3874 23.8387 38.3878 23.8385V24.402C31.1834 27.0177 25.7255 33.2736 24.2375 40.9462H24.6345C26.1077 33.4901 31.3995 27.4063 38.3878 24.8169V25.3605C38.3874 25.3607 38.387 25.3608 38.3866 25.361V25.8016C38.387 25.8014 38.3874 25.8012 38.3878 25.8011V26.325C32.8201 28.5543 28.47 33.1781 26.6113 38.9227H32.3169C32.3169 38.7195 32.4816 38.5548 32.6848 38.5548H36.3642C36.5674 38.5548 36.7321 38.7195 36.7321 38.9227H39.6756V39.4746H36.7321C36.7321 39.6778 36.5674 39.8425 36.3642 39.8425H32.6848C32.4816 39.8425 32.3169 39.6778 32.3169 39.4746H25.9342C27.6824 33.3337 32.1835 28.3522 38.0186 25.949V25.5051C31.4959 28.1305 26.5797 33.9053 25.1534 40.9462H32.3169C32.3169 40.743 32.4816 40.5783 32.6848 40.5783H36.3642C36.5674 40.5783 36.7321 40.743 36.7321 40.9462H39.6756V41.4981H36.7321C36.7321 41.7012 36.5674 41.866 36.3642 41.866H32.6848C32.4816 41.866 32.3169 41.7012 32.3169 41.4981H23.6001C24.9225 33.4118 30.5319 26.7668 38.0186 23.9727V23.5803C29.8768 26.5633 23.8918 34.0183 23.0392 42.9697H32.3169C32.3169 42.7665 32.4816 42.6018 32.6848 42.6018H36.3642C36.5674 42.6018 36.7321 42.7665 36.7321 42.9697H39.6756V43.5215H36.7321C36.7321 43.7247 36.5674 43.8894 36.3642 43.8894H32.6848C32.4816 43.8894 32.3169 43.7247 32.3169 43.5215H22.9933C22.9544 44.0683 22.9346 44.6204 22.9346 45.1771C22.9346 54.9583 29.0423 63.313 37.6523 66.6361V66.2412C29.25 62.937 23.3025 54.7515 23.3025 45.1771C23.3025 45.1157 23.3028 45.0544 23.3032 44.9931H32.3169C32.3169 44.7899 32.4816 44.6252 32.6848 44.6252H36.3642C36.5674 44.6252 36.7321 44.7899 36.7321 44.9931H39.6756V45.545H36.7321C36.7321 45.7482 36.5674 45.9129 36.3642 45.9129H32.6848C32.4816 45.9129 32.3169 45.7482 32.3169 45.545H24.7343C24.8808 54.1573 30.164 61.5186 37.6523 64.6976V64.2502C30.5562 61.1666 25.5167 54.2395 25.1622 46.0968H25.6499C26.007 54.1055 31.0051 60.9071 38.0199 63.8776L38.0203 65.0445L38.0199 65.3971C30.0506 62.2775 24.3756 54.5833 24.2254 45.545H23.8359C23.987 54.8019 29.8312 62.6747 38.0199 65.8149V67.3613Z" fill="#C5D82E"/>
<path d="M52.0013 64.5532C58.8765 62.4016 64.179 56.6923 65.7523 49.5815L66.5108 48.1277C65.3852 56.0482 59.7946 62.5313 52.3687 64.9475V65.3794C60.0254 62.9418 65.7945 56.2725 66.927 48.1203H67.4406C66.2796 56.6847 60.123 63.6623 52.0013 66.0231V64.5532Z" fill="#C5D82E"/>
<path d="M66.4528 39.8425H66.9781C65.1256 32.5123 59.5439 26.6666 52.3693 24.4416L52.369 25.6788L52.3693 25.92C58.2751 27.8935 62.972 32.5073 65.0584 38.3601L65.926 39.4724C64.0685 32.9501 59.1053 27.736 52.737 25.5304V25.0958C59.4527 27.371 64.6581 32.9199 66.4528 39.8425Z" fill="#C5D82E"/>
<path d="M43.1709 23.2869H39.4916V29.9835H36.5226V35.5241H52.6698V48.0468C52.6698 52.8216 50.2034 56.5603 44.9182 56.5603C39.6771 56.5603 37.1226 53.8126 37.1226 48.4071H31.3971C31.3971 54.9333 34.4155 59.2648 39.1237 61.1192V67.2513H42.803V62.0243C43.4873 62.1052 44.1933 62.146 44.9182 62.146C45.5836 62.146 46.2278 62.1096 46.8503 62.0385V67.2513H50.8975V60.9736C55.7381 58.8558 58.4835 54.0495 58.4835 48.0468V29.9835H51.2655V23.2869H47.2182V29.9835H43.1709V23.2869Z" fill="#C5D82E"/>
<path d="M49.0579 38.5548H40.7794V47.1979C40.6597 47.5772 40.5954 47.9796 40.5954 48.3962C40.5954 50.6821 42.531 52.5351 44.9186 52.5351C47.3063 52.5351 49.2418 50.6821 49.2418 48.3962C49.2418 47.9796 49.1775 47.5772 49.0579 47.1979V38.5548Z" fill="#C5D82E"/>
<path fill-rule="evenodd" clip-rule="evenodd" d="M45.9304 75.1612C62.3072 75.1612 75.6177 62.0341 75.912 45.7289H74.992C74.9955 45.5454 74.9972 45.3614 74.9972 45.1771C74.9972 44.9927 74.9955 44.8088 74.992 44.6252H72.9735V44.0734H74.0561C74.0418 43.7036 74.0204 43.3356 73.992 42.9697H74.9146C74.8868 42.5998 74.8521 42.2318 74.8106 41.866H75.7362C74.0881 26.8642 61.3724 15.193 45.9304 15.193C29.3693 15.193 15.9438 28.6173 15.9438 45.1771C15.9438 61.7368 29.3693 75.1612 45.9304 75.1612ZM74.457 45.7289C74.4604 45.5454 74.4622 45.3614 74.4622 45.1771H72.9735V45.7289H74.457ZM50.0202 73.0267C48.685 73.2211 47.3195 73.3217 45.9304 73.3217C30.3853 73.3217 17.7835 60.7209 17.7835 45.1771C17.7835 42.5848 18.134 40.0743 18.7902 37.6905C18.6489 37.6029 18.5805 37.427 18.6351 37.2622L19.3711 35.0411C19.4269 34.8728 19.5925 34.7717 19.762 34.7912C23.8952 24.3877 34.0538 17.0325 45.9304 17.0325C60.1649 17.0325 71.9315 27.5981 73.8144 41.3141H75.1138C73.222 26.8847 60.8772 15.7448 45.9304 15.7448C29.6741 15.7448 16.4957 28.9221 16.4957 45.1771C16.4957 61.4321 29.6741 74.6093 45.9304 74.6093C61.8172 74.6093 74.7643 62.0244 75.3448 46.2808H74.0561C73.5682 58.9313 64.7299 69.4404 52.8967 72.453C52.8387 72.6307 52.6885 72.7725 52.4919 72.8103L50.5146 73.1916C50.3256 73.228 50.1407 73.1595 50.0202 73.0267ZM49.9041 72.5201C48.6065 72.7069 47.2798 72.8037 45.9304 72.8037C30.6714 72.8037 18.3016 60.4348 18.3016 45.1771C18.3016 42.6398 18.6436 40.1824 19.2842 37.8485C19.4423 37.853 19.5914 37.7543 19.6437 37.5963L20.3797 35.3752C20.4308 35.2209 20.3741 35.0568 20.2506 34.9647C24.3123 24.762 34.2791 17.5505 45.9304 17.5505C59.8783 17.5505 71.4122 27.8851 73.2913 41.3141H71.956C70.096 28.6766 59.2485 18.9626 46.1144 18.8727V19.3568C58.9806 19.4466 69.6107 28.9449 71.4664 41.3141H70.214V40.9462C70.214 40.7867 70.1125 40.6509 69.9705 40.5999C68.0744 30.5819 60.0703 22.7241 49.9767 21.0445V20.5858C60.3752 22.2835 68.6108 30.4165 70.4606 40.7622H70.9353C68.9698 29.555 59.6523 20.8782 48.138 19.8864V20.1603H48.1367V22.0002H49.9767V21.5012C59.8139 23.17 67.6152 30.8199 69.5078 40.5783H69.0293C67.308 31.8856 60.8016 24.9139 52.3693 22.5223L52.369 23.6554L52.3693 24.034C59.7595 26.2814 65.5088 32.2966 67.3797 39.8425H67.9258C66.0612 32.1284 60.2434 25.957 52.737 23.5926V23.2071C60.6845 25.6661 66.7894 32.3183 68.4663 40.5783H68.1904C67.9872 40.5783 67.8225 40.743 67.8225 40.9462V41.3141H66.9026L63.5912 37.6351H61.7516V37.0832H59.9119V38.9227H61.7516V38.1869H63.5912L66.9026 41.866H67.8225V42.4178H66.7187L64.695 40.3943H61.7516V39.8425H59.9119V41.682H61.7516V40.9462H64.695L66.7187 42.9697H67.8225V43.5215H61.7516V42.9697H59.9119V44.8092H61.7516V44.0734H67.8225V44.6252H66.7187L64.695 46.6487H61.7516V46.0968H59.9119V47.9364H61.7516V47.2006H64.695L66.7187 45.1771H67.8225V45.7289H66.9026L64.695 49.408H61.7516V48.6722H59.9119V50.5117H61.7516V49.9598H64.695L66.9026 46.2808H67.8225V47.0166C67.8225 47.2198 67.9872 47.3845 68.1904 47.3845H68.8217C67.9184 56.8678 61.2546 64.6715 52.3687 67.2577V66.8741C60.8193 64.3708 67.2065 57.0657 68.3686 48.1203H67.8337C66.6649 56.9007 60.3393 64.0515 52.0013 66.4285L52.0007 67.6196L52.0013 67.9329C61.3773 65.4384 68.4537 57.3042 69.376 47.3845H69.8476C68.7413 59.5225 58.6023 69.0503 46.2082 69.1908L45.7465 69.2747V69.642L45.8652 69.6425L45.9304 69.6426C59.0736 69.6426 69.7963 59.2805 70.3735 46.2808H70.6312C70.6948 46.3908 70.8137 46.4647 70.9499 46.4647H71.7219C71.0539 60.0664 59.8604 70.9014 46.1145 70.9974V70.5617C59.4955 70.4667 70.4157 60.0205 71.2647 46.8326H70.7965C69.9443 59.8227 59.1371 70.0952 45.9304 70.0952C45.869 70.0952 45.8077 70.095 45.7465 70.0945V70.5617C45.7464 70.5617 45.7465 70.5617 45.7465 70.5617V71.4815C45.8077 71.4819 45.8691 71.4821 45.9304 71.4821C60.0277 71.4821 71.5352 60.3945 72.2067 46.4647H72.6056C72.7418 46.4647 72.8607 46.3908 72.9243 46.2808H73.5376C73.0505 58.6797 64.3912 68.9793 52.7958 71.944C52.6757 71.8033 52.4854 71.7294 52.2907 71.767L50.3134 72.1482C50.1115 72.1871 49.9585 72.3356 49.9041 72.5201ZM70.582 45.7289V45.1771H70.214V45.7289H70.582ZM70.582 44.6252H70.3919C70.3878 44.4408 70.3817 44.2568 70.3735 44.0734H70.582V44.6252ZM70.6312 43.5215H70.3429C70.3305 43.337 70.3162 43.153 70.2998 42.9697H73.5254V43.5215H72.9243C72.8607 43.4116 72.7418 43.3376 72.6056 43.3376H70.9499C70.8137 43.3376 70.6948 43.4116 70.6312 43.5215ZM74.3305 42.4178C74.3128 42.2333 74.2933 42.0494 74.2721 41.866H70.214V42.4178H74.3305Z" fill="#C5D82E"/>
</svg>
