<svg width="76" height="75" viewBox="0 0 76 75" fill="none" xmlns="http://www.w3.org/2000/svg">
<path fill-rule="evenodd" clip-rule="evenodd" d="M38.1667 75C58.8774 75 75.6667 58.2107 75.6667 37.5C75.6667 16.7893 58.8774 0 38.1667 0C24.2449 0 12.095 7.58642 5.62553 18.8507L3.96778 22.0931C3.36949 23.419 2.84605 24.786 2.40285 26.1886C2.20872 26.8103 1.76876 28.3066 1.56201 29.3179C0.97589 31.9516 0.666748 34.6897 0.666748 37.5C0.666748 41.179 1.19654 44.7343 2.18399 48.0936C2.42946 48.979 3.00168 50.5488 3.2571 51.223C3.83265 52.6859 4.4975 54.104 5.24494 55.4704L7.10867 58.522C13.8525 68.466 25.2466 75 38.1667 75ZM38.1668 72.5822C57.5155 72.5822 73.2007 56.897 73.2007 37.5483C73.2007 18.1997 57.5155 2.51447 38.1668 2.51447C18.8182 2.51447 3.13296 18.1997 3.13296 37.5483C3.13296 56.897 18.8182 72.5822 38.1668 72.5822Z" fill="url(#paint0_linear_1838_406)"/>
<ellipse cx="38.6747" cy="38.1649" rx="28.2882" ry="27.853" fill="#38ED7A" fill-opacity="0.1"/>
<path d="M38.6742 17.4006C27.207 17.4006 17.9106 26.6976 17.9106 38.1645C17.9106 49.6314 27.207 58.9292 38.6742 58.9292C50.1415 58.9292 59.439 49.6319 59.439 38.1645C59.439 26.6971 50.1415 17.4006 38.6742 17.4006ZM49.3263 48.4116C49.3262 49.6011 48.3615 50.5658 47.172 50.5658H30.1783C28.9888 50.5658 28.0241 49.6011 28.0241 48.4116V27.8275C28.0241 26.638 28.9888 25.6733 30.1783 25.6733H47.1721C48.3616 25.6733 49.3263 26.638 49.3263 27.8275V48.4116Z" fill="url(#paint1_linear_1838_406)"/>
<path d="M43.2792 39.7568H34.071C33.5285 39.7568 33.0894 40.1966 33.0894 40.7384V46.4517C33.0894 46.9942 33.5289 47.4333 34.071 47.4333H43.2792C43.8217 47.4333 44.2608 46.9937 44.2608 46.4517V40.7384C44.2612 40.1962 43.8217 39.7568 43.2792 39.7568Z" fill="url(#paint2_linear_1838_406)"/>
<path d="M31.5011 33.0337H29.646V35.1879H31.5011V33.0337Z" fill="url(#paint3_linear_1838_406)"/>
<path d="M31.5011 28.9797H29.646V31.134H31.5011V28.9797Z" fill="url(#paint4_linear_1838_406)"/>
<path d="M31.5011 45.1962H29.646V47.3504H31.5011V45.1962Z" fill="url(#paint5_linear_1838_406)"/>
<path d="M31.5011 41.1421H29.646V43.2963H31.5011V41.1421Z" fill="url(#paint6_linear_1838_406)"/>
<path d="M31.5011 37.0879H29.646V39.2421H31.5011V37.0879Z" fill="url(#paint7_linear_1838_406)"/>
<path d="M43.2792 28.8065H34.071C33.5285 28.8065 33.0894 29.2463 33.0894 29.7881V35.5013C33.0894 36.0438 33.5289 36.4829 34.071 36.4829H43.2792C43.8217 36.4829 44.2608 36.0434 44.2608 35.5013V29.788C44.2612 29.2459 43.8217 28.8065 43.2792 28.8065Z" fill="url(#paint8_linear_1838_406)"/>
<path d="M47.7171 28.9797H45.8621V31.134H47.7171V28.9797Z" fill="url(#paint9_linear_1838_406)"/>
<path d="M47.7171 45.1962H45.8621V47.3504H47.7171V45.1962Z" fill="url(#paint10_linear_1838_406)"/>
<path d="M47.7171 33.0337H45.8621V35.1879H47.7171V33.0337Z" fill="url(#paint11_linear_1838_406)"/>
<path d="M47.7171 41.1421H45.8621V43.2963H47.7171V41.1421Z" fill="url(#paint12_linear_1838_406)"/>
<path d="M47.7171 37.0879H45.8621V39.2421H47.7171V37.0879Z" fill="url(#paint13_linear_1838_406)"/>
<defs>
<linearGradient id="paint0_linear_1838_406" x1="71.2968" y1="63.8571" x2="-4.97498" y2="48.6353" gradientUnits="userSpaceOnUse">
<stop stop-color="#90C626"/>
<stop offset="1" stop-color="#20934A"/>
</linearGradient>
<linearGradient id="paint1_linear_1838_406" x1="57.0193" y1="52.7593" x2="14.7867" y2="44.3308" gradientUnits="userSpaceOnUse">
<stop stop-color="#90C626"/>
<stop offset="1" stop-color="#20934A"/>
</linearGradient>
<linearGradient id="paint2_linear_1838_406" x1="43.6099" y1="46.2928" x2="32.7155" y2="43.1286" gradientUnits="userSpaceOnUse">
<stop stop-color="#90C626"/>
<stop offset="1" stop-color="#20934A"/>
</linearGradient>
<linearGradient id="paint3_linear_1838_406" x1="31.393" y1="34.8679" x2="29.4876" y2="34.5404" gradientUnits="userSpaceOnUse">
<stop stop-color="#90C626"/>
<stop offset="1" stop-color="#20934A"/>
</linearGradient>
<linearGradient id="paint4_linear_1838_406" x1="31.393" y1="30.8139" x2="29.4876" y2="30.4864" gradientUnits="userSpaceOnUse">
<stop stop-color="#90C626"/>
<stop offset="1" stop-color="#20934A"/>
</linearGradient>
<linearGradient id="paint5_linear_1838_406" x1="31.393" y1="47.0303" x2="29.4876" y2="46.7029" gradientUnits="userSpaceOnUse">
<stop stop-color="#90C626"/>
<stop offset="1" stop-color="#20934A"/>
</linearGradient>
<linearGradient id="paint6_linear_1838_406" x1="31.393" y1="42.9763" x2="29.4876" y2="42.6488" gradientUnits="userSpaceOnUse">
<stop stop-color="#90C626"/>
<stop offset="1" stop-color="#20934A"/>
</linearGradient>
<linearGradient id="paint7_linear_1838_406" x1="31.393" y1="38.9221" x2="29.4876" y2="38.5946" gradientUnits="userSpaceOnUse">
<stop stop-color="#90C626"/>
<stop offset="1" stop-color="#20934A"/>
</linearGradient>
<linearGradient id="paint8_linear_1838_406" x1="43.6099" y1="35.3424" x2="32.7155" y2="32.1783" gradientUnits="userSpaceOnUse">
<stop stop-color="#90C626"/>
<stop offset="1" stop-color="#20934A"/>
</linearGradient>
<linearGradient id="paint9_linear_1838_406" x1="47.6091" y1="30.8139" x2="45.7037" y2="30.4864" gradientUnits="userSpaceOnUse">
<stop stop-color="#90C626"/>
<stop offset="1" stop-color="#20934A"/>
</linearGradient>
<linearGradient id="paint10_linear_1838_406" x1="47.6091" y1="47.0303" x2="45.7037" y2="46.7029" gradientUnits="userSpaceOnUse">
<stop stop-color="#90C626"/>
<stop offset="1" stop-color="#20934A"/>
</linearGradient>
<linearGradient id="paint11_linear_1838_406" x1="47.6091" y1="34.8679" x2="45.7037" y2="34.5404" gradientUnits="userSpaceOnUse">
<stop stop-color="#90C626"/>
<stop offset="1" stop-color="#20934A"/>
</linearGradient>
<linearGradient id="paint12_linear_1838_406" x1="47.6091" y1="42.9763" x2="45.7037" y2="42.6488" gradientUnits="userSpaceOnUse">
<stop stop-color="#90C626"/>
<stop offset="1" stop-color="#20934A"/>
</linearGradient>
<linearGradient id="paint13_linear_1838_406" x1="47.6091" y1="38.9221" x2="45.7037" y2="38.5946" gradientUnits="userSpaceOnUse">
<stop stop-color="#90C626"/>
<stop offset="1" stop-color="#20934A"/>
</linearGradient>
</defs>
</svg>
