<svg width="75" height="76" viewBox="0 0 75 76" fill="none" xmlns="http://www.w3.org/2000/svg">
<path fill-rule="evenodd" clip-rule="evenodd" d="M37.5 75.3333C58.2107 75.3333 75 58.5439 75 37.8333C75 17.1226 58.2107 0.333252 37.5 0.333252C23.5782 0.333252 11.4283 7.91967 4.95878 19.184L3.30103 22.4263C2.70275 23.7523 2.17931 25.1192 1.7361 26.5218C1.54197 27.1436 1.10202 28.6398 0.895258 29.6511C0.309142 32.2849 0 35.023 0 37.8333C0 41.5122 0.529794 45.0675 1.51724 48.4269C1.76271 49.3123 2.33493 50.882 2.59035 51.5562C3.1659 53.0192 3.83075 54.4372 4.57819 55.8036L6.44192 58.8553C13.1857 68.7992 24.5798 75.3333 37.5 75.3333ZM37.5001 72.9154C56.8487 72.9154 72.5339 57.2303 72.5339 37.8816C72.5339 18.5329 56.8487 2.84772 37.5001 2.84772C18.1514 2.84772 2.46621 18.5329 2.46621 37.8816C2.46621 57.2303 18.1514 72.9154 37.5001 72.9154Z" fill="url(#paint0_linear_1838_346)"/>
<ellipse cx="38.0079" cy="38.4982" rx="28.2882" ry="27.853" fill="#38ED7A" fill-opacity="0.1"/>
<path d="M30.5779 35.7581C32.3218 39.6066 36.0554 41.2818 37.9085 41.2818C39.127 41.2818 41.1585 40.557 42.9028 38.967C42.265 39.0115 41.5833 39.034 40.8549 39.034C40.684 39.034 40.5046 39.0325 40.313 39.0295C39.9458 39.3123 39.4909 39.4717 39.0189 39.4717H37.4668C36.2972 39.4717 35.3457 38.5202 35.3457 37.3505C35.3457 36.1809 36.2972 35.2294 37.4668 35.2294H39.0189C39.5796 35.2294 40.104 35.4479 40.493 35.8249C40.6222 35.8263 40.7496 35.8269 40.8746 35.8269C42.8782 35.8269 44.1986 35.6432 45.0624 35.4215C44.9503 35.1489 44.8893 34.8506 44.8893 34.5391V29.161C44.8893 28.6015 45.0969 28.0652 45.456 27.6509C45.2643 26.1594 44.9166 25.0207 44.3976 24.1807C43.3281 22.4497 41.2661 21.6436 37.9085 21.6436C35.1232 21.6436 33.1998 22.2218 32.0285 23.4112C31.1205 24.3332 30.5943 25.6488 30.3484 27.6358C30.7155 28.0517 30.9278 28.5934 30.9278 29.161V34.5391C30.9279 34.9866 30.7993 35.4042 30.5779 35.7581Z" fill="url(#paint1_linear_1838_346)"/>
<path d="M26.7617 35.809H28.6236C29.3245 35.809 29.8932 35.2405 29.8932 34.5393V29.1611C29.8932 28.6926 29.6388 28.2844 29.2613 28.0645C29.6771 23.6606 31.3765 20.6089 37.9086 20.6089C41.6598 20.6089 44.0015 21.5712 45.2779 23.637C46.0206 24.8391 46.3779 26.3918 46.5448 28.0711C46.1733 28.2926 45.924 28.6972 45.924 29.161V34.5392C45.924 35.1438 46.347 35.6486 46.9128 35.7766C46.0921 36.3134 44.3929 36.8617 40.8746 36.8617C40.5896 36.8617 40.2925 36.8581 39.9831 36.8506C39.8021 36.5025 39.4387 36.2642 39.019 36.2642H37.467C36.8671 36.2642 36.3806 36.7506 36.3806 37.3506C36.3806 37.9506 36.8671 38.4371 37.467 38.4371H39.019C39.3816 38.4371 39.7019 38.2588 39.8991 37.9859C40.2259 37.9942 40.5458 37.9994 40.855 37.9994C44.8209 37.9993 47.3419 37.3224 48.363 35.9793C48.4065 35.9222 48.4461 35.8653 48.4822 35.809H49.0557C49.7568 35.809 50.3253 35.2405 50.3253 34.5393V29.1611C50.3253 28.46 49.7569 27.8916 49.0557 27.8916H48.3555C48.1584 25.8627 47.7217 24.1355 46.8233 22.682C45.2063 20.0646 42.29 18.7924 37.9085 18.7924C33.5267 18.7924 30.6108 20.0646 28.9936 22.6821C28.0954 24.1356 27.6588 25.8626 27.4617 27.8917H26.7616C26.0604 27.8917 25.4919 28.46 25.4919 29.1613V34.5394C25.4919 35.2405 26.0605 35.809 26.7617 35.809Z" fill="url(#paint2_linear_1838_346)"/>
<path d="M53.2585 51.6236C52.8363 48.9988 51.9673 45.6178 50.2243 44.4165C49.0358 43.5969 44.8866 41.38 43.1149 40.4334L43.0776 40.4136C42.8748 40.3052 42.6274 40.327 42.4466 40.4688C41.5172 41.1984 40.4996 41.6899 39.4224 41.9296C39.232 41.972 39.0756 42.1074 39.0064 42.2897L37.9087 45.1829L36.8109 42.2897C36.7417 42.1073 36.5854 41.972 36.395 41.9296C35.3178 41.6899 34.3 41.1984 33.3704 40.4688C33.1898 40.3269 32.9423 40.3051 32.7395 40.4136C30.9876 41.3496 26.7847 43.613 25.598 44.413C23.5908 45.7652 22.7142 50.6569 22.5589 51.6237C22.5435 51.7196 22.5524 51.8177 22.5847 51.9092C22.6565 52.112 24.4977 56.8741 37.9086 56.8741C51.3192 56.8741 53.1606 52.112 53.2325 51.9093C53.265 51.8176 53.2739 51.7194 53.2585 51.6236ZM47.0142 48.6095H41.7026V47.4908H47.0142V48.6095Z" fill="url(#paint3_linear_1838_346)"/>
<defs>
<linearGradient id="paint0_linear_1838_346" x1="70.6301" y1="64.1904" x2="-5.64173" y2="48.9686" gradientUnits="userSpaceOnUse">
<stop stop-color="#90C626"/>
<stop offset="1" stop-color="#20934A"/>
</linearGradient>
<linearGradient id="paint1_linear_1838_346" x1="44.5757" y1="38.3642" x2="28.9679" y2="35.9679" gradientUnits="userSpaceOnUse">
<stop stop-color="#90C626"/>
<stop offset="1" stop-color="#20934A"/>
</linearGradient>
<linearGradient id="paint2_linear_1838_346" x1="48.8784" y1="35.5184" x2="24.1894" y2="29.2897" gradientUnits="userSpaceOnUse">
<stop stop-color="#90C626"/>
<stop offset="1" stop-color="#20934A"/>
</linearGradient>
<linearGradient id="paint3_linear_1838_346" x1="51.4763" y1="54.4183" x2="22.9238" y2="43.8297" gradientUnits="userSpaceOnUse">
<stop stop-color="#90C626"/>
<stop offset="1" stop-color="#20934A"/>
</linearGradient>
</defs>
</svg>
