<svg width="76" height="75" viewBox="0 0 76 75" fill="none" xmlns="http://www.w3.org/2000/svg">
<path fill-rule="evenodd" clip-rule="evenodd" d="M37.8335 75C58.5442 75 75.3335 58.2107 75.3335 37.5C75.3335 16.7893 58.5442 0 37.8335 0C23.9117 0 11.7618 7.58642 5.29228 18.8507L3.63452 22.0931C3.03624 23.419 2.5128 24.786 2.0696 26.1886C1.87547 26.8103 1.43551 28.3066 1.22875 29.3179C0.642638 31.9516 0.333496 34.6897 0.333496 37.5C0.333496 41.179 0.86329 44.7343 1.85074 48.0936C2.09621 48.979 2.66842 50.5488 2.92385 51.223C3.49939 52.6859 4.16424 54.104 4.91169 55.4704L6.77542 58.522C13.5192 68.466 24.9133 75 37.8335 75ZM37.8336 72.5822C57.1822 72.5822 72.8674 56.897 72.8674 37.5483C72.8674 18.1997 57.1822 2.51447 37.8336 2.51447C18.4849 2.51447 2.79971 18.1997 2.79971 37.5483C2.79971 56.897 18.4849 72.5822 37.8336 72.5822Z" fill="url(#paint0_linear_1838_394)"/>
<ellipse cx="38.3414" cy="38.1649" rx="28.2882" ry="27.853" fill="#38ED7A" fill-opacity="0.1"/>
<path d="M48.9694 43.7072V35.262C48.9694 30.0766 46.1994 25.7357 41.3687 24.5872V23.4386C41.3687 22.0367 40.2201 20.905 38.8182 20.905C37.4163 20.905 36.3015 22.0367 36.3015 23.4386V24.5872C31.4539 25.7357 28.7008 30.0597 28.7008 35.262V43.7072L26.505 45.8861C25.4409 46.9502 26.1841 48.7744 27.6874 48.7744H49.9322C51.4354 48.7744 52.1955 46.9502 51.1314 45.8861L48.9694 43.7072ZM38.8182 53.8415C40.6762 53.8415 42.1963 52.3214 42.1963 50.4634H35.4401C35.4401 52.3214 36.9434 53.8415 38.8182 53.8415ZM30.0014 24.6716C30.7108 24.0298 30.7277 22.9319 30.052 22.2563C29.4102 21.6144 28.363 21.5975 27.7043 22.2225C24.816 24.8574 22.8229 28.4382 22.1811 32.4581C22.029 33.4885 22.8229 34.4174 23.8701 34.4174C24.6809 34.4174 25.3903 33.8263 25.5254 33.0155C26.0321 29.7388 27.6536 26.8167 30.0014 24.6716ZM49.9829 22.2225C49.3072 21.5975 48.26 21.6144 47.6182 22.2563C46.9426 22.9319 46.9763 24.0129 47.6689 24.6547C49.9997 26.7998 51.6381 29.7219 52.1448 32.9986C52.2631 33.8094 52.9725 34.4006 53.8001 34.4006C54.8304 34.4006 55.6412 33.4716 55.4723 32.4413C54.8304 28.4382 52.8542 24.8743 49.9829 22.2225Z" fill="url(#paint1_linear_1838_394)"/>
<defs>
<linearGradient id="paint0_linear_1838_394" x1="70.9636" y1="63.8571" x2="-5.30823" y2="48.6353" gradientUnits="userSpaceOnUse">
<stop stop-color="#90C626"/>
<stop offset="1" stop-color="#20934A"/>
</linearGradient>
<linearGradient id="paint1_linear_1838_394" x1="53.5525" y1="48.9481" x2="19.6864" y2="42.1081" gradientUnits="userSpaceOnUse">
<stop stop-color="#90C626"/>
<stop offset="1" stop-color="#20934A"/>
</linearGradient>
</defs>
</svg>
