<svg width="90" height="90" viewBox="0 0 90 90" fill="none" xmlns="http://www.w3.org/2000/svg">
<path opacity="0.6" fill-rule="evenodd" clip-rule="evenodd" d="M45.0241 89.976C69.8636 89.976 90 69.8396 90 45.0001C90 20.1606 69.8636 0.0241699 45.0241 0.0241699C28.3268 0.0241699 13.7547 9.123 5.99553 22.6329L4.00729 26.5217C3.28973 28.1119 2.66194 29.7514 2.13038 31.4337C1.89755 32.1793 1.36988 33.9739 1.12191 35.1868C0.418943 38.3456 0.048172 41.6295 0.048172 45.0001C0.048172 49.4125 0.683584 53.6765 1.86789 57.7057C2.1623 58.7676 2.84859 60.6502 3.15493 61.4588C3.84522 63.2134 4.64261 64.9142 5.53906 66.553L7.77434 70.213C15.8626 82.1393 29.5282 89.976 45.0241 89.976ZM45.024 87.0762C68.23 87.0762 87.0421 68.2641 87.0421 45.0581C87.0421 21.8521 68.23 3.03997 45.024 3.03997C21.818 3.03997 3.00585 21.8521 3.00585 45.0581C3.00585 68.2641 21.818 87.0762 45.024 87.0762Z" fill="#C5D82E"/>
<circle cx="45.6474" cy="45.0049" r="35.9807" fill="#022426"/>
<path d="M54.66 24.0002V66.0002H40.5V34.6802H33.3V24.0002H54.66Z" fill="white"/>
</svg>
