<svg width="75" height="75" viewBox="0 0 75 75" fill="none" xmlns="http://www.w3.org/2000/svg">
<path fill-rule="evenodd" clip-rule="evenodd" d="M37.5 75C58.2107 75 75 58.2107 75 37.5C75 16.7893 58.2107 0 37.5 0C23.5782 0 11.4283 7.58642 4.95878 18.8507L3.30103 22.0931C2.70275 23.419 2.17931 24.786 1.7361 26.1886C1.54197 26.8103 1.10202 28.3066 0.895258 29.3179C0.309142 31.9516 0 34.6897 0 37.5C0 41.179 0.529794 44.7343 1.51724 48.0936C1.76271 48.979 2.33493 50.5488 2.59035 51.223C3.1659 52.6859 3.83075 54.104 4.57819 55.4704L6.44192 58.522C13.1857 68.466 24.5798 75 37.5 75ZM37.5001 72.5822C56.8487 72.5822 72.5339 56.897 72.5339 37.5483C72.5339 18.1997 56.8487 2.51447 37.5001 2.51447C18.1514 2.51447 2.46621 18.1997 2.46621 37.5483C2.46621 56.897 18.1514 72.5822 37.5001 72.5822Z" fill="url(#paint0_linear_1838_322)"/>
<ellipse cx="38.0079" cy="38.165" rx="28.2882" ry="27.853" fill="#38ED7A" fill-opacity="0.1"/>
<path d="M48.9032 38.1343C46.1786 38.1343 43.9673 39.9902 43.9673 42.2804V43.4651C43.9673 43.7928 44.2832 44.0574 44.6721 44.0574C45.0611 44.0574 45.377 43.7928 45.377 43.4651V42.2804C45.377 40.6457 46.9565 39.3189 48.9032 39.3189C50.8499 39.3189 52.4294 40.6457 52.4294 42.2804V43.4651C52.4294 43.7928 52.7453 44.0574 53.1343 44.0574C53.5232 44.0574 53.8391 43.7928 53.8391 43.4651V42.2804C53.8391 39.9902 51.6278 38.1343 48.9032 38.1343Z" fill="url(#paint1_linear_1838_322)"/>
<path d="M42.7612 44.0574H55.0457C55.4702 44.0574 55.8137 44.3733 55.8137 44.7622V53.2243C55.8137 53.6133 55.4702 53.9292 55.0457 53.9292H42.7631C42.3387 53.9292 41.9951 53.6133 41.9951 53.2243V44.7622C41.9951 44.3733 42.3387 44.0574 42.7631 44.0574H42.7612Z" fill="url(#paint2_linear_1838_322)"/>
<path d="M39.1461 53.1987V44.8076C39.1446 44.3706 39.2799 43.9441 39.5331 43.5879C39.7863 43.2317 40.1446 42.9636 40.5578 42.8214C40.6091 42.3199 40.7217 41.8263 40.8895 41.3505C40.7737 40.9847 40.6833 40.6113 40.619 40.233C41.7362 39.2672 42.4482 37.9157 42.6131 36.4482C42.5888 36.1966 42.6463 35.9438 42.777 35.7275C42.8822 35.6993 42.9791 35.6465 43.0598 35.5734C43.1405 35.5002 43.2026 35.4089 43.241 35.307C43.6322 34.3302 43.8771 33.301 43.9675 32.2526C43.9677 32.1955 43.9611 32.1385 43.9478 32.0828C43.8527 31.6776 43.6204 31.3177 43.2903 31.0641V27.3582C43.1422 23.5615 40.1965 20.517 36.5242 20.365C32.8459 20.517 29.9002 23.5615 29.7521 27.3582V31.0641C29.4227 31.318 29.1912 31.6779 29.0966 32.0828C29.0833 32.1385 29.0767 32.1955 29.0769 32.2526C29.1657 33.303 29.4105 34.3336 29.8015 35.309C29.8607 35.5064 30.0127 35.6584 30.2082 35.7117C30.2812 35.7512 30.4254 35.9526 30.4254 36.4482C30.5952 37.9289 31.3138 39.2853 32.4254 40.235C32.2892 41.1511 31.6218 43.5657 30.2102 44.1758L24.2081 46.2371C22.6681 46.7642 21.4953 48.0732 21.1083 49.7021L20.2969 53.0585C20.2514 53.2359 20.2771 53.4241 20.3686 53.5828C20.4602 53.7415 20.6102 53.858 20.7865 53.9075C20.8398 53.9213 20.8971 53.9292 20.9524 53.9292H39.2784C39.192 53.6953 39.1473 53.448 39.1461 53.1987Z" fill="url(#paint3_linear_1838_322)"/>
<path d="M49.8904 49.9802C49.8904 48.8904 49.4481 48.0059 48.9032 48.0059C48.3583 48.0059 47.916 48.8904 47.916 49.9802C47.92 50.6713 48.1075 51.309 48.4096 51.6505V52.9418C48.4096 53.4867 48.6307 53.929 48.9032 53.929C49.1757 53.929 49.3968 53.4867 49.3968 52.9418V51.6505C49.6989 51.309 49.8864 50.6732 49.8904 49.9802Z" fill="url(#paint4_linear_1838_322)"/>
<path d="M55.0457 53.9292H42.7631C42.3387 53.9292 41.9951 53.6133 41.9951 53.2243V44.7622C41.9951 44.3733 42.3387 44.0574 42.7631 44.0574H55.0476C55.4721 44.0574 55.8157 44.3733 55.8157 44.7622V53.2243C55.8157 53.6133 55.4721 53.9292 55.0476 53.9292H55.0457ZM43.5292 52.5195H54.2776V45.4671H43.5292V52.5195Z" fill="url(#paint5_linear_1838_322)"/>
<path d="M48.9032 51.9546C48.3583 51.9546 47.916 51.5992 47.916 51.1648V48.7956C47.916 48.3612 48.3583 48.0059 48.9032 48.0059C49.4481 48.0059 49.8904 48.3612 49.8904 48.7956V51.1648C49.8904 51.5992 49.4481 51.9546 48.9032 51.9546Z" fill="url(#paint6_linear_1838_322)"/>
<path d="M48.9033 49.9805C48.6414 49.9805 48.3903 49.8764 48.2052 49.6913C48.0201 49.5062 47.9161 49.2551 47.9161 48.9933C47.9161 48.7315 48.0201 48.4804 48.2052 48.2952C48.3903 48.1101 48.6414 48.0061 48.9033 48.0061C49.1651 48.0061 49.4162 48.1101 49.6013 48.2952C49.7864 48.4804 49.8904 48.7315 49.8904 48.9933C49.8904 49.2551 49.7864 49.5062 49.6013 49.6913C49.4162 49.8764 49.1651 49.9805 48.9033 49.9805ZM53.1343 44.0574C52.7454 44.0574 52.4295 43.7928 52.4295 43.465V42.2804C52.4295 40.6457 50.85 39.3189 48.9033 39.3189C46.9565 39.3189 45.377 40.6457 45.377 42.2804V43.465C45.377 43.7928 45.0611 44.0574 44.6722 44.0574C44.2832 44.0574 43.9673 43.7928 43.9673 43.465V42.2804C43.9673 39.9902 46.1786 38.1343 48.9033 38.1343C51.6279 38.1343 53.8392 39.9902 53.8392 42.2804V43.465C53.8392 43.7928 53.5233 44.0574 53.1343 44.0574ZM20.9522 53.9292C20.7698 53.9261 20.596 53.8507 20.4691 53.7197C20.3421 53.5887 20.2723 53.4127 20.275 53.2303C20.275 53.171 20.2809 53.1157 20.2947 53.0605L21.1082 49.704C21.2902 48.9115 21.67 48.1779 22.212 47.5717C22.754 46.9655 23.4406 46.5064 24.2079 46.2371L30.2159 44.1699C31.6276 43.5578 32.289 41.1432 32.4311 40.2271C31.3124 39.264 30.5975 37.9147 30.4291 36.4482C30.4291 35.9546 30.287 35.7492 30.2119 35.7117C30.1153 35.6851 30.0271 35.6341 29.9559 35.5635C29.8847 35.493 29.8328 35.4053 29.8052 35.309C29.4124 34.3318 29.1662 33.3018 29.0747 32.2526C29.0747 32.1934 29.0826 32.1381 29.0945 32.0828C29.19 31.6783 29.4222 31.3191 29.7519 31.066V27.3582C29.9 23.5615 32.8457 20.517 36.522 20.365C40.6642 20.365 41.7896 22.5585 41.9219 23.6444C42.6248 24.1795 43.2901 25.1054 43.2901 27.3562V31.066C43.6202 31.3196 43.8525 31.6796 43.9476 32.0848C43.9614 32.1401 43.9673 32.1974 43.9673 32.2546C43.8796 33.3032 43.6374 34.3331 43.2487 35.3109C43.2103 35.4129 43.1482 35.5042 43.0675 35.5773C42.9869 35.6504 42.8899 35.7033 42.7847 35.7315C42.654 35.9478 42.5965 36.2005 42.6208 36.4521C42.6445 37.2932 42.3701 38.1165 41.8469 38.7641L41.7462 38.9043C41.6986 38.9803 41.6361 39.0459 41.5624 39.097C41.4888 39.1482 41.4055 39.1839 41.3177 39.202C41.2298 39.2201 41.1392 39.2202 41.0513 39.2023C40.9635 39.1843 40.8801 39.1488 40.8064 39.0978C40.6559 38.9913 40.5523 38.8308 40.5174 38.6498C40.4824 38.4687 40.5188 38.2812 40.6188 38.1264C40.6623 38.0612 40.7136 37.9882 40.7708 37.9112C41.1104 37.5064 41.2881 36.9832 41.2664 36.4462C41.2349 36.0878 41.2925 35.7273 41.4341 35.3966C41.5757 35.0659 41.7968 34.7753 42.0779 34.5508C42.3464 33.844 42.528 33.1095 42.6208 32.3593C42.6019 32.3111 42.5752 32.2664 42.5418 32.227C42.4562 32.2284 42.3712 32.2115 42.2926 32.1774C42.214 32.1432 42.1436 32.0927 42.0862 32.0291C42.0288 31.9655 41.9857 31.8903 41.9597 31.8087C41.9337 31.727 41.9256 31.6408 41.9357 31.5557V27.3582C41.9357 25.2989 41.296 24.8804 41.0236 24.7007C40.8954 24.6352 40.7847 24.5402 40.7006 24.4235C40.6165 24.3067 40.5614 24.1717 40.5398 24.0294C40.5324 23.9369 40.5424 23.8438 40.5695 23.755C40.4767 23.2022 39.6652 21.7628 36.522 21.7628C33.596 21.9208 31.2603 24.3374 31.1063 27.3582V31.5537C31.109 31.7361 31.0392 31.9121 30.9122 32.0432C30.7853 32.1742 30.6115 32.2495 30.4291 32.2526C30.4607 32.2526 30.4489 32.3 30.4291 32.3514C30.5199 33.1056 30.7016 33.844 30.9701 34.5488C31.5387 34.995 31.8447 35.7137 31.7835 36.4462C31.9948 37.6308 32.6325 38.6871 33.5684 39.4058C33.646 39.4725 33.7082 39.5552 33.7508 39.6482C33.7934 39.7413 33.8154 39.8424 33.8152 39.9448C33.8152 40.8332 33.0333 44.4759 30.6897 45.4828L24.6383 47.5717C23.5386 47.9469 22.7034 48.8807 22.4231 50.0417L21.6136 53.3981C21.5801 53.5484 21.4967 53.6829 21.3769 53.7797C21.2572 53.8766 21.1081 53.9299 20.9542 53.9312L20.9522 53.9292Z" fill="url(#paint7_linear_1838_322)"/>
<defs>
<linearGradient id="paint0_linear_1838_322" x1="70.6301" y1="63.8571" x2="-5.64173" y2="48.6353" gradientUnits="userSpaceOnUse">
<stop stop-color="#90C626"/>
<stop offset="1" stop-color="#20934A"/>
</linearGradient>
<linearGradient id="paint1_linear_1838_322" x1="53.2639" y1="43.1774" x2="43.8647" y2="40.051" gradientUnits="userSpaceOnUse">
<stop stop-color="#90C626"/>
<stop offset="1" stop-color="#20934A"/>
</linearGradient>
<linearGradient id="paint2_linear_1838_322" x1="55.0085" y1="52.4625" x2="41.4538" y2="48.6758" gradientUnits="userSpaceOnUse">
<stop stop-color="#90C626"/>
<stop offset="1" stop-color="#20934A"/>
</linearGradient>
<linearGradient id="paint3_linear_1838_322" x1="42.5871" y1="48.9425" x2="18.0206" y2="45.4816" gradientUnits="userSpaceOnUse">
<stop stop-color="#90C626"/>
<stop offset="1" stop-color="#20934A"/>
</linearGradient>
<linearGradient id="paint4_linear_1838_322" x1="49.7753" y1="53.0489" x2="47.6967" y2="52.9107" gradientUnits="userSpaceOnUse">
<stop stop-color="#90C626"/>
<stop offset="1" stop-color="#20934A"/>
</linearGradient>
<linearGradient id="paint5_linear_1838_322" x1="55.0104" y1="52.4625" x2="41.454" y2="48.6748" gradientUnits="userSpaceOnUse">
<stop stop-color="#90C626"/>
<stop offset="1" stop-color="#20934A"/>
</linearGradient>
<linearGradient id="paint6_linear_1838_322" x1="49.7753" y1="51.3679" x2="47.7081" y2="51.1616" gradientUnits="userSpaceOnUse">
<stop stop-color="#90C626"/>
<stop offset="1" stop-color="#20934A"/>
</linearGradient>
<linearGradient id="paint7_linear_1838_322" x1="51.8835" y1="48.9442" x2="17.7499" y2="42.1324" gradientUnits="userSpaceOnUse">
<stop stop-color="#90C626"/>
<stop offset="1" stop-color="#20934A"/>
</linearGradient>
</defs>
</svg>
