<svg width="90" height="91" viewBox="0 0 90 91" fill="none" xmlns="http://www.w3.org/2000/svg">
<path opacity="0.6" fill-rule="evenodd" clip-rule="evenodd" d="M44.9759 90.0844C69.8154 90.0844 89.9518 69.948 89.9518 45.1085C89.9518 20.269 69.8154 0.132568 44.9759 0.132568C28.2786 0.132568 13.7065 9.2314 5.94732 22.7413L3.95908 26.6301C3.24153 28.2203 2.61374 29.8598 2.08218 31.5421C1.84934 32.2877 1.32168 34.0823 1.0737 35.2952C0.370741 38.454 -3.05176e-05 41.7379 -3.05176e-05 45.1085C-3.05176e-05 49.5209 0.635382 53.7849 1.81969 57.8141C2.11409 58.876 2.80038 60.7586 3.10673 61.5672C3.79701 63.3218 4.59441 65.0226 5.49086 66.6614L7.72614 70.3214C15.8144 82.2477 29.4799 90.0844 44.9759 90.0844ZM44.9758 87.1846C68.1818 87.1846 86.9939 68.3725 86.9939 45.1665C86.9939 21.9605 68.1818 3.14836 44.9758 3.14836C21.7698 3.14836 2.95764 21.9605 2.95764 45.1665C2.95764 68.3725 21.7698 87.1846 44.9758 87.1846Z" fill="#C5D82E"/>
<circle cx="44.976" cy="45.1084" r="35.9807" fill="#022426"/>
<path d="M73.9989 46.7643C73.1407 62.0458 60.476 74.1731 44.9785 74.1731C28.9254 74.1731 15.9118 61.1605 15.9118 45.1087C15.9118 29.0569 28.9254 16.0444 44.9785 16.0444C59.5306 16.0444 71.5851 26.7373 73.7121 40.6939H73.1707C71.0485 27.0339 59.2345 16.5793 44.9785 16.5793C29.2209 16.5793 16.4467 29.3524 16.4467 45.1087C16.4467 60.8651 29.2209 73.6381 44.9785 73.6381C60.1804 73.6381 72.6055 61.7502 73.4631 46.7643H73.9989Z" fill="#C5D82E"/>
<path d="M64.3897 26.0179C68.2464 29.9383 70.9244 35.0217 71.8494 40.6939H71.3415C70.4219 35.1626 67.8034 30.2056 64.0402 26.3772C63.8661 26.4325 63.6681 26.3965 63.5228 26.2652L62.0284 24.9155C61.8788 24.7804 61.8239 24.5796 61.8679 24.3965C57.2644 20.6387 51.3847 18.385 44.9785 18.385C44.8555 18.385 44.7327 18.3858 44.6101 18.3875V18.8062C44.61 18.8062 44.6103 18.8062 44.6101 18.8062L44.6106 19.2635L44.6371 19.29C44.6281 19.2901 44.6191 19.2903 44.6101 19.2904V19.726C44.7327 19.7243 44.8555 19.7234 44.9785 19.7234L44.9785 20.1906C44.8555 20.1906 44.7327 20.1915 44.6101 20.1933V20.6459C44.7327 20.6441 44.8555 20.6432 44.9785 20.6432L44.9785 21.0935C44.8555 21.0935 44.7327 21.0944 44.6101 21.0962V21.1961H44.3574C44.6042 21.2048 44.8157 21.3523 44.9161 21.563C44.9369 21.563 44.9577 21.5629 44.9785 21.5629V22.1148C44.9785 22.1148 44.9786 22.1148 44.9785 22.1148L44.9784 22.4827C44.9784 22.4827 44.9785 22.4827 44.9784 22.4827L44.9785 23.013C44.9785 23.013 44.9786 23.013 44.9785 23.013L44.9784 23.4025C44.9784 23.4025 44.9785 23.4025 44.9784 23.4025L44.9785 23.9112C44.9785 23.9112 44.9786 23.9112 44.9785 23.9112L44.9784 24.3222C44.9784 24.3222 44.9785 24.3222 44.9784 24.3222L44.9785 24.8094C44.9785 24.8094 44.9786 24.8094 44.9785 24.8094L44.9784 24.9674C44.9784 25.323 44.6901 25.6113 44.3344 25.6113C43.9788 25.6113 43.6904 25.323 43.6904 24.9674V21.8397C43.6904 21.4917 43.9664 21.2082 44.3115 21.1961H44.0581V21.1108C43.9662 21.1142 43.8744 21.1182 43.7827 21.1227V20.6719C43.8744 20.6675 43.9662 20.6636 44.0581 20.6602V20.2073C43.9662 20.2107 43.8744 20.2145 43.7827 20.2188V19.7511C43.8744 19.7468 43.9662 19.7431 44.0581 19.7398V19.3039C44.048 19.3043 44.0378 19.3046 44.0276 19.305L44.0581 19.2643V18.4005C29.724 18.8856 18.2525 30.6576 18.2525 45.1087C18.2525 59.2495 29.2366 70.8251 43.1389 71.7702V71.7817H43.3171C43.4413 71.7893 43.5658 71.7961 43.6904 71.802V69.0223H43.9439C43.5989 69.0102 43.3228 68.7267 43.3228 68.3787V65.251C43.3228 64.8954 43.6111 64.6071 43.9668 64.6071C44.3225 64.6071 44.6108 64.8954 44.6108 65.251V68.3787C44.6108 68.7267 44.3347 69.0102 43.9897 69.0223H44.2424V69.1129C44.2423 69.1129 44.2425 69.1129 44.2424 69.1129L44.2427 69.5634C44.2426 69.5634 44.2427 69.5634 44.2427 69.5634L44.2424 70.0162C44.2423 70.0162 44.2425 70.0162 44.2424 70.0162L44.2427 70.4836C44.2426 70.4836 44.2427 70.4836 44.2427 70.4836L44.2424 70.9194C44.2423 70.9194 44.2425 70.9194 44.2424 70.9194L44.2427 71.4037C44.2426 71.4037 44.2427 71.4037 44.2427 71.4037L44.2424 71.8225C44.487 71.8292 44.7324 71.8325 44.9785 71.8325C59.1828 71.8325 70.799 60.7523 71.654 46.7643H72.1561C71.3003 61.0292 59.4597 72.3335 44.9785 72.3335C44.7324 72.3335 44.487 72.3303 44.2424 72.3238V72.3339H43.6904V72.3036C29.2514 71.6312 17.7514 59.7128 17.7514 45.1087C17.7514 30.3809 29.4471 18.3844 44.0581 17.8992V17.8845H44.6101V17.8863C44.7327 17.8847 44.8555 17.8839 44.9785 17.8839C51.5128 17.8839 57.5094 20.1855 62.2019 24.0222C62.381 23.9569 62.5893 23.9903 62.7407 24.127L64.2351 25.4766C64.3908 25.6172 64.4439 25.829 64.3897 26.0179Z" fill="#C5D82E"/>
<path d="M43.1389 69.96V70.4284C43.1388 70.4284 43.1389 70.4284 43.1389 70.4284L43.1387 70.8651C43.1387 70.8651 43.1388 70.8651 43.1387 70.8651L43.1389 71.3505C29.4681 70.4062 18.6713 59.0182 18.6713 45.1087C18.6713 31.0747 29.6623 19.6075 43.5068 18.8441V19.329C29.9299 20.0918 19.1554 31.3421 19.1554 45.1087C19.1554 58.6256 29.5425 69.7166 42.7707 70.8366V70.3994C29.7834 69.2807 19.5911 58.3849 19.5911 45.1087C19.5911 32.9185 28.1843 22.7352 39.644 20.2848V20.2758H39.6863C40.2779 20.1503 40.8771 20.0455 41.4832 19.9621L41.4839 22.1156H39.644V21.688C39.2079 21.7869 38.7762 21.8976 38.3495 22.0199L37.4359 22.2068V22.3016C27.8665 25.4641 20.9613 34.4801 20.9613 45.1087C20.9613 55.6007 27.69 64.5211 37.068 67.7909V68.0107L41.1152 68.8385L43.1389 69.2064V69.5062C30.4851 68.5656 20.5109 58.0019 20.5109 45.1087C20.5109 33.4288 28.6963 23.6605 39.644 21.2264V20.7629C28.4443 23.2052 20.0583 33.1777 20.0583 45.1087C20.0583 58.2519 30.2349 69.0185 43.1389 69.96Z" fill="#C5D82E"/>
<path d="M37.068 67.2929C27.9541 64.0434 21.4308 55.3378 21.4308 45.1087C21.4308 34.7425 28.1302 25.941 37.4359 22.7968V23.3802C37.4355 23.3804 37.4351 23.3805 37.4347 23.3807V23.7706C37.4351 23.7704 37.4355 23.7703 37.4359 23.7702V24.3336C30.2315 26.9494 24.7736 33.2053 23.2856 40.8778H23.6826C25.1558 33.4218 30.4476 27.338 37.4359 24.7486V25.2922C37.4355 25.2923 37.4351 25.2925 37.4347 25.2926V25.7332C37.4351 25.733 37.4355 25.7329 37.4359 25.7327V26.2567C31.8682 28.4859 27.5181 33.1098 25.6594 38.8544H31.365C31.365 38.6512 31.5297 38.4865 31.7329 38.4865H35.4123C35.6155 38.4865 35.7802 38.6512 35.7802 38.8544H38.7237V39.4062H35.7802C35.7802 39.6094 35.6155 39.7741 35.4123 39.7741H31.7329C31.5297 39.7741 31.365 39.6094 31.365 39.4062H24.9823C26.7305 33.2653 31.2316 28.2838 37.0667 25.8806V25.4367C30.544 28.0621 25.6278 33.8369 24.2015 40.8778H31.365C31.365 40.6747 31.5297 40.5099 31.7329 40.5099H35.4123C35.6155 40.5099 35.7802 40.6747 35.7802 40.8778H38.7237V41.4297H35.7802C35.7802 41.6329 35.6155 41.7976 35.4123 41.7976H31.7329C31.5297 41.7976 31.365 41.6329 31.365 41.4297H22.6482C23.9706 33.3434 29.58 26.6985 37.0667 23.9043V23.5119C28.9249 26.495 22.9399 33.9499 22.0873 42.9013H31.365C31.365 42.6981 31.5297 42.5334 31.7329 42.5334H35.4123C35.6155 42.5334 35.7802 42.6981 35.7802 42.9013H38.7237V43.4532H35.7802C35.7802 43.6563 35.6155 43.8211 35.4123 43.8211H31.7329C31.5297 43.8211 31.365 43.6563 31.365 43.4532H22.0414C22.0025 44 21.9827 44.552 21.9827 45.1087C21.9827 54.8899 28.0904 63.2447 36.7004 66.5677V66.1728C28.2981 62.8686 22.3506 54.6832 22.3506 45.1087C22.3506 45.0474 22.3509 44.986 22.3513 44.9248H31.365C31.365 44.7216 31.5297 44.5569 31.7329 44.5569H35.4123C35.6155 44.5569 35.7802 44.7216 35.7802 44.9248H38.7237V45.4766H35.7802C35.7802 45.6798 35.6155 45.8445 35.4123 45.8445H31.7329C31.5297 45.8445 31.365 45.6798 31.365 45.4766H23.7824C23.9289 54.0889 29.2121 61.4502 36.7004 64.6293V64.1818C29.6043 61.0982 24.5648 54.1711 24.2103 46.0285H24.698C25.0551 54.0371 30.0532 60.8387 37.068 63.8092L37.0684 64.9762L37.068 65.3287C29.0987 62.2091 23.4237 54.515 23.2735 45.4766H22.884C23.0351 54.7336 28.8793 62.6063 37.068 65.7465V67.2929Z" fill="#C5D82E"/>
<path d="M51.0494 64.4848C57.9246 62.3332 63.2271 56.6239 64.8004 49.5132L65.5589 48.0594C64.4333 55.9799 58.8427 62.4629 51.4168 64.8791V65.311C59.0735 62.8734 64.8426 56.2042 65.9751 48.0519H66.4887C65.3277 56.6163 59.1711 63.594 51.0494 65.9548V64.4848Z" fill="#C5D82E"/>
<path d="M65.5009 39.7741H66.0262C64.1737 32.444 58.592 26.5983 51.4174 24.3732L51.4171 25.6104L51.4174 25.8517C57.3232 27.8251 62.0201 32.439 64.1064 38.2918L64.9741 39.404C63.1166 32.8817 58.1534 27.6676 51.785 25.462V25.0274C58.5008 27.3026 63.7062 32.8515 65.5009 39.7741Z" fill="#C5D82E"/>
<path d="M42.219 23.2185H38.5397V29.9152H35.5707V35.4557H51.7179V47.9784C51.7179 52.7532 49.2515 56.492 43.9663 56.492C38.7252 56.492 36.1707 53.7442 36.1707 48.3388H30.4451C30.4451 54.865 33.4636 59.1965 38.1718 61.0508V67.1829H41.8511V61.9559C42.5354 62.0369 43.2414 62.0776 43.9663 62.0776C44.6317 62.0776 45.2759 62.0412 45.8984 61.9701V67.1829H49.9456V60.9052C54.7862 58.7874 57.5316 53.9811 57.5316 47.9784V29.9152H50.3136V23.2185H46.2663V29.9152H42.219V23.2185Z" fill="#C5D82E"/>
<path d="M48.106 38.4865H39.8275V47.1296C39.7078 47.5089 39.6435 47.9112 39.6435 48.3279C39.6435 50.6137 41.5791 52.4668 43.9667 52.4668C46.3544 52.4668 48.2899 50.6137 48.2899 48.3279C48.2899 47.9112 48.2256 47.5089 48.106 47.1296V38.4865Z" fill="#C5D82E"/>
<path fill-rule="evenodd" clip-rule="evenodd" d="M44.9785 75.0928C61.3553 75.0928 74.6658 61.9657 74.9601 45.6606H74.0401C74.0435 45.477 74.0453 45.2931 74.0453 45.1087C74.0453 44.9244 74.0435 44.7404 74.0401 44.5569H72.0216V44.005H73.1042C73.0899 43.6352 73.0685 43.2673 73.0401 42.9013H73.9627C73.9349 42.5314 73.9002 42.1635 73.8587 41.7976H74.7843C73.1362 26.7959 60.4205 15.1246 44.9785 15.1246C28.4174 15.1246 14.9919 28.549 14.9919 45.1087C14.9919 61.6685 28.4174 75.0928 44.9785 75.0928ZM73.5051 45.6606C73.5085 45.477 73.5103 45.2931 73.5103 45.1087H72.0216V45.6606H73.5051ZM49.0683 72.9584C47.7331 73.1527 46.3676 73.2533 44.9785 73.2533C29.4334 73.2533 16.8316 60.6525 16.8316 45.1087C16.8316 42.5164 17.1821 40.006 17.8383 37.6222C17.697 37.5346 17.6286 37.3586 17.6832 37.1938L18.4192 34.9727C18.475 34.8044 18.6406 34.7034 18.8101 34.7228C22.9433 24.3194 33.1019 16.9641 44.9785 16.9641C59.213 16.9641 70.9796 27.5297 72.8625 41.2457H74.1619C72.2701 26.8163 59.9253 15.6765 44.9785 15.6765C28.7222 15.6765 15.5438 28.8537 15.5438 45.1087C15.5438 61.3637 28.7222 74.541 44.9785 74.541C60.8653 74.541 73.8124 61.956 74.3929 46.2124H73.1042C72.6163 58.863 63.778 69.3721 51.9448 72.3847C51.8868 72.5624 51.7366 72.7041 51.54 72.742L49.5627 73.1232C49.3737 73.1597 49.1888 73.0911 49.0683 72.9584ZM48.9522 72.4517C47.6546 72.6386 46.3279 72.7353 44.9785 72.7353C29.7195 72.7353 17.3496 60.3665 17.3496 45.1087C17.3496 42.5714 17.6917 40.114 18.3323 37.7801C18.4904 37.7846 18.6395 37.6859 18.6918 37.528L19.4278 35.3069C19.4789 35.1526 19.4222 34.9885 19.2987 34.8963C23.3604 24.6937 33.3272 17.4822 44.9785 17.4822C58.9264 17.4822 70.4603 27.8168 72.3394 41.2457H71.0041C69.1441 28.6082 58.2966 18.8942 45.1625 18.8043V19.2885C58.0287 19.3782 68.6588 28.8766 70.5145 41.2457H69.2621V40.8778C69.2621 40.7183 69.1606 40.5825 69.0186 40.5315C67.1225 30.5136 59.1184 22.6557 49.0248 20.9762V20.5174C59.4233 22.2152 67.6589 30.3481 69.5087 40.6939H69.9834C68.0179 29.4866 58.7004 20.8098 47.1861 19.8181V20.092H47.1848V21.9318H49.0248V21.4328C58.862 23.1017 66.6633 30.7515 68.5559 40.5099H68.0774C66.3561 31.8172 59.8497 24.8455 51.4174 22.454L51.4171 23.587L51.4174 23.9657C58.8076 26.213 64.5569 32.2283 66.4278 39.7741H66.9739C65.1093 32.0601 59.2915 25.8887 51.785 23.5242V23.1387C59.7326 25.5978 65.8375 32.2499 67.5144 40.5099H67.2385C67.0353 40.5099 66.8706 40.6747 66.8706 40.8778V41.2457H65.9507L62.6393 37.5667H60.7997V37.0149H58.96V38.8544H60.7997V38.1186H62.6393L65.9507 41.7976H66.8706V42.3495H65.7668L63.7431 40.326H60.7997V39.7741H58.96V41.6136H60.7997V40.8778H63.7431L65.7668 42.9013H66.8706V43.4532H60.7997V42.9013H58.96V44.7408H60.7997V44.005H66.8706V44.5569H65.7668L63.7431 46.5803H60.7997V46.0285H58.96V47.868H60.7997V47.1322H63.7431L65.7668 45.1087H66.8706V45.6606H65.9507L63.7431 49.3396H60.7997V48.6038H58.96V50.4433H60.7997V49.8915H63.7431L65.9507 46.2124H66.8706V46.9482C66.8706 47.1514 67.0353 47.3161 67.2385 47.3161H67.8698C66.9664 56.7995 60.3027 64.6032 51.4168 67.1893V66.8058C59.8674 64.3024 66.2546 56.9973 67.4167 48.0519H66.8818C65.713 56.8324 59.3874 63.9832 51.0494 66.3601L51.0488 67.5513L51.0494 67.8646C60.4254 65.3701 67.5018 57.2359 68.4241 47.3161H68.8957C67.7894 59.4542 57.6504 68.982 45.2563 69.1224L44.7946 69.2064V69.5736L44.9133 69.5742L44.9785 69.5743C58.1217 69.5743 68.8444 59.2122 69.4216 46.2124H69.6793C69.7429 46.3224 69.8618 46.3964 69.998 46.3964H70.77C70.102 59.998 58.9085 70.833 45.1626 70.929V70.4934C58.5436 70.3984 69.4638 59.9521 70.3128 46.7643H69.8446C68.9924 59.7543 58.1852 70.0268 44.9785 70.0268C44.9171 70.0268 44.8558 70.0266 44.7946 70.0262V70.4934C44.7945 70.4934 44.7946 70.4934 44.7946 70.4934V71.4132C44.8558 71.4136 44.9171 71.4138 44.9785 71.4138C59.0758 71.4138 70.5833 60.3262 71.2548 46.3964H71.6537C71.7899 46.3964 71.9088 46.3224 71.9724 46.2124H72.5857C72.0986 58.6113 63.4393 68.9109 51.8439 71.8757C51.7238 71.735 51.5335 71.6611 51.3388 71.6986L49.3615 72.0799C49.1596 72.1188 49.0066 72.2672 48.9522 72.4517ZM69.6301 45.6606V45.1087H69.2621V45.6606H69.6301ZM69.6301 44.5569H69.44C69.4359 44.3724 69.4298 44.1884 69.4216 44.005H69.6301V44.5569ZM69.6793 43.4532H69.391C69.3786 43.2686 69.3643 43.0847 69.3479 42.9013H72.5735V43.4532H71.9724C71.9088 43.3432 71.7899 43.2692 71.6537 43.2692H69.998C69.8618 43.2692 69.7429 43.3432 69.6793 43.4532ZM73.3786 42.3495C73.3609 42.165 73.3414 41.981 73.3202 41.7976H69.2621V42.3495H73.3786Z" fill="#C5D82E"/>
</svg>
