<svg width="2033" height="817" viewBox="0 0 2033 817" fill="none" xmlns="http://www.w3.org/2000/svg">
<path d="M1536.76 180.41H2032.91V343.754H1536.76V180.41Z" fill="black"/>
<path d="M1536.76 350.41H2032.91V513.754H1536.76V350.41Z" fill="black"/>
<path d="M1536.76 520.41H2032.91V683.754H1536.76V520.41Z" fill="black"/>
<path d="M797.604 16.1526C800.137 16.1526 802.337 16.5793 804.204 17.4326C806.071 18.2593 807.511 19.4593 808.524 21.0326C809.537 22.5793 810.044 24.4059 810.044 26.5126C810.044 28.6193 809.537 30.4459 808.524 31.9926C807.511 33.5393 806.071 34.7393 804.204 35.5926C802.337 36.4193 800.137 36.8326 797.604 36.8326H792.724V44.1526H784.804V16.1526H797.604ZM797.124 30.5926C798.751 30.5926 799.977 30.2459 800.804 29.5526C801.631 28.8326 802.044 27.8193 802.044 26.5126C802.044 25.2059 801.631 24.1926 800.804 23.4726C799.977 22.7526 798.751 22.3926 797.124 22.3926H792.724V30.5926H797.124ZM840.545 16.1526V44.1526H832.625V33.2326H821.825V44.1526H813.905V16.1526H821.825V26.6726H832.625V16.1526H840.545ZM859.212 15.5926C861.852 15.5926 864.172 16.1259 866.172 17.1926C868.199 18.2326 869.759 19.7659 870.852 21.7926C871.972 23.7926 872.532 26.2059 872.532 29.0326V44.1526H864.612V37.9526H853.692V44.1526H845.892V29.0326C845.892 26.2059 846.439 23.7926 847.532 21.7926C848.652 19.7659 850.212 18.2326 852.212 17.1926C854.239 16.1259 856.572 15.5926 859.212 15.5926ZM864.612 31.8326V28.3526C864.612 26.2993 864.119 24.7526 863.132 23.7126C862.145 22.6726 860.825 22.1526 859.172 22.1526C857.492 22.1526 856.159 22.6726 855.172 23.7126C854.185 24.7526 853.692 26.2993 853.692 28.3526V31.8326H864.612ZM887.73 44.7126C885.463 44.7126 883.263 44.4326 881.13 43.8726C878.997 43.3126 877.263 42.5659 875.93 41.6326L878.53 35.7926C879.783 36.6193 881.237 37.2859 882.89 37.7926C884.543 38.2993 886.17 38.5526 887.77 38.5526C890.81 38.5526 892.33 37.7926 892.33 36.2726C892.33 35.4726 891.89 34.8859 891.01 34.5126C890.157 34.1126 888.77 33.6993 886.85 33.2726C884.743 32.8193 882.983 32.3393 881.57 31.8326C880.157 31.2993 878.943 30.4593 877.93 29.3126C876.917 28.1659 876.41 26.6193 876.41 24.6726C876.41 22.9659 876.877 21.4326 877.81 20.0726C878.743 18.6859 880.13 17.5926 881.97 16.7926C883.837 15.9926 886.117 15.5926 888.81 15.5926C890.65 15.5926 892.463 15.8059 894.25 16.2326C896.037 16.6326 897.61 17.2326 898.97 18.0326L896.53 23.9126C893.863 22.4726 891.277 21.7526 888.77 21.7526C887.197 21.7526 886.05 21.9926 885.33 22.4726C884.61 22.9259 884.25 23.5259 884.25 24.2726C884.25 25.0193 884.677 25.5793 885.53 25.9526C886.383 26.3259 887.757 26.7126 889.65 27.1126C891.783 27.5659 893.543 28.0593 894.93 28.5926C896.343 29.0993 897.557 29.9259 898.57 31.0726C899.61 32.1926 900.13 33.7259 900.13 35.6726C900.13 37.3526 899.663 38.8726 898.73 40.2326C897.797 41.5926 896.397 42.6859 894.53 43.5126C892.663 44.3126 890.397 44.7126 887.73 44.7126ZM927.868 42.0326C926.428 42.8593 924.682 43.5126 922.628 43.9926C920.575 44.4726 918.442 44.7126 916.228 44.7126C913.242 44.7126 910.695 44.3526 908.588 43.6326C906.508 42.9126 904.935 41.9126 903.868 40.6326C902.828 39.3526 902.308 37.8726 902.308 36.1926C902.308 34.7259 902.708 33.4326 903.508 32.3126C904.308 31.1926 905.415 30.3259 906.828 29.7126C905.735 29.1526 904.895 28.3793 904.308 27.3926C903.748 26.3793 903.468 25.2726 903.468 24.0726C903.468 22.5259 903.948 21.1126 904.908 19.8326C905.895 18.5526 907.388 17.5259 909.388 16.7526C911.388 15.9793 913.855 15.5926 916.788 15.5926C918.628 15.5926 920.442 15.7659 922.228 16.1126C924.015 16.4593 925.588 16.9259 926.948 17.5126L924.788 23.4326C922.308 22.3393 919.748 21.7926 917.108 21.7926C915.215 21.7926 913.802 22.0459 912.868 22.5526C911.935 23.0326 911.468 23.7126 911.468 24.5926C911.468 26.1926 912.628 26.9926 914.948 26.9926H922.868V33.0326H914.428C913.068 33.0326 912.042 33.2593 911.348 33.7126C910.655 34.1393 910.308 34.7793 910.308 35.6326C910.308 36.5393 910.815 37.2459 911.828 37.7526C912.842 38.2593 914.415 38.5126 916.548 38.5126C918.068 38.5126 919.628 38.3126 921.228 37.9126C922.855 37.4859 924.268 36.9126 925.468 36.1926L927.868 42.0326ZM953.215 16.1526V44.1526H945.295V22.2726H940.095V16.1526H953.215Z" fill="#E8FF30"/>
<path d="M335.979 16.1526C338.512 16.1526 340.712 16.5793 342.579 17.4326C344.446 18.2593 345.886 19.4593 346.899 21.0326C347.912 22.5793 348.419 24.4059 348.419 26.5126C348.419 28.6193 347.912 30.4459 346.899 31.9926C345.886 33.5393 344.446 34.7393 342.579 35.5926C340.712 36.4193 338.512 36.8326 335.979 36.8326H331.099V44.1526H323.179V16.1526H335.979ZM335.499 30.5926C337.126 30.5926 338.352 30.2459 339.179 29.5526C340.006 28.8326 340.419 27.8193 340.419 26.5126C340.419 25.2059 340.006 24.1926 339.179 23.4726C338.352 22.7526 337.126 22.3926 335.499 22.3926H331.099V30.5926H335.499ZM378.92 16.1526V44.1526H371V33.2326H360.2V44.1526H352.28V16.1526H360.2V26.6726H371V16.1526H378.92ZM397.587 15.5926C400.227 15.5926 402.547 16.1259 404.547 17.1926C406.574 18.2326 408.134 19.7659 409.227 21.7926C410.347 23.7926 410.907 26.2059 410.907 29.0326V44.1526H402.987V37.9526H392.067V44.1526H384.267V29.0326C384.267 26.2059 384.814 23.7926 385.907 21.7926C387.027 19.7659 388.587 18.2326 390.587 17.1926C392.614 16.1259 394.947 15.5926 397.587 15.5926ZM402.987 31.8326V28.3526C402.987 26.2993 402.494 24.7526 401.507 23.7126C400.52 22.6726 399.2 22.1526 397.547 22.1526C395.867 22.1526 394.534 22.6726 393.547 23.7126C392.56 24.7526 392.067 26.2993 392.067 28.3526V31.8326H402.987ZM426.105 44.7126C423.838 44.7126 421.638 44.4326 419.505 43.8726C417.372 43.3126 415.638 42.5659 414.305 41.6326L416.905 35.7926C418.158 36.6193 419.612 37.2859 421.265 37.7926C422.918 38.2993 424.545 38.5526 426.145 38.5526C429.185 38.5526 430.705 37.7926 430.705 36.2726C430.705 35.4726 430.265 34.8859 429.385 34.5126C428.532 34.1126 427.145 33.6993 425.225 33.2726C423.118 32.8193 421.358 32.3393 419.945 31.8326C418.532 31.2993 417.318 30.4593 416.305 29.3126C415.292 28.1659 414.785 26.6193 414.785 24.6726C414.785 22.9659 415.252 21.4326 416.185 20.0726C417.118 18.6859 418.505 17.5926 420.345 16.7926C422.212 15.9926 424.492 15.5926 427.185 15.5926C429.025 15.5926 430.838 15.8059 432.625 16.2326C434.412 16.6326 435.985 17.2326 437.345 18.0326L434.905 23.9126C432.238 22.4726 429.652 21.7526 427.145 21.7526C425.572 21.7526 424.425 21.9926 423.705 22.4726C422.985 22.9259 422.625 23.5259 422.625 24.2726C422.625 25.0193 423.052 25.5793 423.905 25.9526C424.758 26.3259 426.132 26.7126 428.025 27.1126C430.158 27.5659 431.918 28.0593 433.305 28.5926C434.718 29.0993 435.932 29.9259 436.945 31.0726C437.985 32.1926 438.505 33.7259 438.505 35.6726C438.505 37.3526 438.038 38.8726 437.105 40.2326C436.172 41.5926 434.772 42.6859 432.905 43.5126C431.038 44.3126 428.772 44.7126 426.105 44.7126ZM466.243 42.0326C464.803 42.8593 463.057 43.5126 461.003 43.9926C458.95 44.4726 456.817 44.7126 454.603 44.7126C451.617 44.7126 449.07 44.3526 446.963 43.6326C444.883 42.9126 443.31 41.9126 442.243 40.6326C441.203 39.3526 440.683 37.8726 440.683 36.1926C440.683 34.7259 441.083 33.4326 441.883 32.3126C442.683 31.1926 443.79 30.3259 445.203 29.7126C444.11 29.1526 443.27 28.3793 442.683 27.3926C442.123 26.3793 441.843 25.2726 441.843 24.0726C441.843 22.5259 442.323 21.1126 443.283 19.8326C444.27 18.5526 445.763 17.5259 447.763 16.7526C449.763 15.9793 452.23 15.5926 455.163 15.5926C457.003 15.5926 458.817 15.7659 460.603 16.1126C462.39 16.4593 463.963 16.9259 465.323 17.5126L463.163 23.4326C460.683 22.3393 458.123 21.7926 455.483 21.7926C453.59 21.7926 452.177 22.0459 451.243 22.5526C450.31 23.0326 449.843 23.7126 449.843 24.5926C449.843 26.1926 451.003 26.9926 453.323 26.9926H461.243V33.0326H452.803C451.443 33.0326 450.417 33.2593 449.723 33.7126C449.03 34.1393 448.683 34.7793 448.683 35.6326C448.683 36.5393 449.19 37.2459 450.203 37.7526C451.217 38.2593 452.79 38.5126 454.923 38.5126C456.443 38.5126 458.003 38.3126 459.603 37.9126C461.23 37.4859 462.643 36.9126 463.843 36.1926L466.243 42.0326ZM490.07 26.3526C493.99 26.3526 496.884 27.1526 498.75 28.7526C500.644 30.3526 501.59 32.4859 501.59 35.1526C501.59 36.8859 501.137 38.4859 500.23 39.9526C499.35 41.3926 497.99 42.5526 496.15 43.4326C494.337 44.2859 492.084 44.7126 489.39 44.7126C487.417 44.7126 485.457 44.4726 483.51 43.9926C481.59 43.5126 479.937 42.8326 478.55 41.9526L481.39 35.9926C482.51 36.7393 483.737 37.3126 485.07 37.7126C486.43 38.1126 487.79 38.3126 489.15 38.3126C490.51 38.3126 491.59 38.0593 492.39 37.5526C493.217 37.0193 493.63 36.2859 493.63 35.3526C493.63 34.4193 493.23 33.7126 492.43 33.2326C491.63 32.7526 490.217 32.5126 488.19 32.5126H480.59L481.99 16.1526H499.83V22.2726H488.55L488.19 26.3526H490.07Z" fill="#E8FF30"/>
<path d="M1246.84 140.215C1249.38 140.215 1251.58 140.642 1253.44 141.495C1255.31 142.322 1256.75 143.522 1257.76 145.095C1258.78 146.642 1259.28 148.468 1259.28 150.575C1259.28 152.682 1258.78 154.508 1257.76 156.055C1256.75 157.602 1255.31 158.802 1253.44 159.655C1251.58 160.482 1249.38 160.895 1246.84 160.895H1241.96V168.215H1234.04V140.215H1246.84ZM1246.36 154.655C1247.99 154.655 1249.22 154.308 1250.04 153.615C1250.87 152.895 1251.28 151.882 1251.28 150.575C1251.28 149.268 1250.87 148.255 1250.04 147.535C1249.22 146.815 1247.99 146.455 1246.36 146.455H1241.96V154.655H1246.36ZM1289.78 140.215V168.215H1281.86V157.295H1271.06V168.215H1263.14V140.215H1271.06V150.735H1281.86V140.215H1289.78ZM1308.45 139.655C1311.09 139.655 1313.41 140.188 1315.41 141.255C1317.44 142.295 1319 143.828 1320.09 145.855C1321.21 147.855 1321.77 150.268 1321.77 153.095V168.215H1313.85V162.015H1302.93V168.215H1295.13V153.095C1295.13 150.268 1295.68 147.855 1296.77 145.855C1297.89 143.828 1299.45 142.295 1301.45 141.255C1303.48 140.188 1305.81 139.655 1308.45 139.655ZM1313.85 155.895V152.415C1313.85 150.362 1313.36 148.815 1312.37 147.775C1311.38 146.735 1310.06 146.215 1308.41 146.215C1306.73 146.215 1305.4 146.735 1304.41 147.775C1303.42 148.815 1302.93 150.362 1302.93 152.415V155.895H1313.85ZM1336.97 168.775C1334.7 168.775 1332.5 168.495 1330.37 167.935C1328.23 167.375 1326.5 166.628 1325.17 165.695L1327.77 159.855C1329.02 160.682 1330.47 161.348 1332.13 161.855C1333.78 162.362 1335.41 162.615 1337.01 162.615C1340.05 162.615 1341.57 161.855 1341.57 160.335C1341.57 159.535 1341.13 158.948 1340.25 158.575C1339.39 158.175 1338.01 157.762 1336.09 157.335C1333.98 156.882 1332.22 156.402 1330.81 155.895C1329.39 155.362 1328.18 154.522 1327.17 153.375C1326.15 152.228 1325.65 150.682 1325.65 148.735C1325.65 147.028 1326.11 145.495 1327.05 144.135C1327.98 142.748 1329.37 141.655 1331.21 140.855C1333.07 140.055 1335.35 139.655 1338.05 139.655C1339.89 139.655 1341.7 139.868 1343.49 140.295C1345.27 140.695 1346.85 141.295 1348.21 142.095L1345.77 147.975C1343.1 146.535 1340.51 145.815 1338.01 145.815C1336.43 145.815 1335.29 146.055 1334.57 146.535C1333.85 146.988 1333.49 147.588 1333.49 148.335C1333.49 149.082 1333.91 149.642 1334.77 150.015C1335.62 150.388 1336.99 150.775 1338.89 151.175C1341.02 151.628 1342.78 152.122 1344.17 152.655C1345.58 153.162 1346.79 153.988 1347.81 155.135C1348.85 156.255 1349.37 157.788 1349.37 159.735C1349.37 161.415 1348.9 162.935 1347.97 164.295C1347.03 165.655 1345.63 166.748 1343.77 167.575C1341.9 168.375 1339.63 168.775 1336.97 168.775ZM1377.11 166.095C1375.67 166.922 1373.92 167.575 1371.87 168.055C1369.81 168.535 1367.68 168.775 1365.47 168.775C1362.48 168.775 1359.93 168.415 1357.83 167.695C1355.75 166.975 1354.17 165.975 1353.11 164.695C1352.07 163.415 1351.55 161.935 1351.55 160.255C1351.55 158.788 1351.95 157.495 1352.75 156.375C1353.55 155.255 1354.65 154.388 1356.07 153.775C1354.97 153.215 1354.13 152.442 1353.55 151.455C1352.99 150.442 1352.71 149.335 1352.71 148.135C1352.71 146.588 1353.19 145.175 1354.15 143.895C1355.13 142.615 1356.63 141.588 1358.63 140.815C1360.63 140.042 1363.09 139.655 1366.03 139.655C1367.87 139.655 1369.68 139.828 1371.47 140.175C1373.25 140.522 1374.83 140.988 1376.19 141.575L1374.03 147.495C1371.55 146.402 1368.99 145.855 1366.35 145.855C1364.45 145.855 1363.04 146.108 1362.11 146.615C1361.17 147.095 1360.71 147.775 1360.71 148.655C1360.71 150.255 1361.87 151.055 1364.19 151.055H1372.11V157.095H1363.67C1362.31 157.095 1361.28 157.322 1360.59 157.775C1359.89 158.202 1359.55 158.842 1359.55 159.695C1359.55 160.602 1360.05 161.308 1361.07 161.815C1362.08 162.322 1363.65 162.575 1365.79 162.575C1367.31 162.575 1368.87 162.375 1370.47 161.975C1372.09 161.548 1373.51 160.975 1374.71 160.255L1377.11 166.095ZM1412.09 161.935V168.215H1390.29V163.255L1400.77 153.455C1401.79 152.495 1402.47 151.682 1402.81 151.015C1403.16 150.322 1403.33 149.628 1403.33 148.935C1403.33 148.028 1403.03 147.322 1402.41 146.815C1401.8 146.308 1400.91 146.055 1399.73 146.055C1398.69 146.055 1397.73 146.295 1396.85 146.775C1396 147.228 1395.29 147.895 1394.73 148.775L1388.85 145.495C1389.95 143.682 1391.48 142.255 1393.45 141.215C1395.43 140.175 1397.76 139.655 1400.45 139.655C1402.59 139.655 1404.47 140.002 1406.09 140.695C1407.75 141.388 1409.03 142.388 1409.93 143.695C1410.87 144.975 1411.33 146.468 1411.33 148.175C1411.33 149.695 1411 151.135 1410.33 152.495C1409.69 153.828 1408.44 155.348 1406.57 157.055L1401.29 161.935H1412.09Z" fill="#E8FF30"/>
<path fill-rule="evenodd" clip-rule="evenodd" d="M685.79 816.418C1064.07 816.418 1370.73 668.891 1370.73 486.908C1370.73 304.924 1064.07 157.397 685.79 157.397C307.506 157.397 0.845703 304.924 0.845703 486.908C0.845703 668.891 307.506 816.418 685.79 816.418ZM678.265 583.885C851.941 583.885 992.734 516.153 992.734 432.601C992.734 349.049 851.941 281.317 678.265 281.317C504.588 281.317 363.795 349.049 363.795 432.601C363.795 516.153 504.588 583.885 678.265 583.885Z" fill="black"/>
<path d="M686.842 192.997C755.119 193.873 817.969 205.188 868.709 223.734L987.154 102.821C896.872 81.5722 795.411 69.5731 688.143 69.4004L686.842 192.997Z" fill="url(#paint0_linear_4400_117)"/>
<path d="M1369.72 415.923C1370.39 409.958 1370.74 403.952 1370.74 397.907C1370.74 268.336 1214.33 156.286 987.133 102.815L868.617 223.7C944.048 251.251 992.735 294.781 992.735 343.765C992.735 357.302 989.017 370.423 982.043 382.905L983.056 383.754L1369.72 415.923Z" fill="url(#paint1_linear_4400_117)"/>
<path d="M1370.22 410.745C1356.17 586.226 1055.11 726.418 685.793 726.418C641.879 726.418 598.93 724.436 557.314 720.648L636.295 493.259C650.025 494.137 664.036 494.591 678.268 494.591C822.671 494.591 944.342 447.909 981.254 384.294L983.058 383.754L1370.22 410.745Z" fill="url(#paint2_linear_4400_117)"/>
<path d="M557.322 720.649L636.302 493.259C482.469 483.418 363.805 420.239 363.805 343.766C363.805 303.032 397.473 266.07 452.191 238.931L441.854 233.474L257.765 141.428C101.144 201.632 0.855469 294.153 0.855469 397.908C0.855469 558.278 240.45 691.808 557.322 720.649Z" fill="url(#paint3_linear_4400_117)"/>
<path d="M687.119 192.999C684.18 192.961 681.23 192.941 678.27 192.941C589.418 192.941 509.172 210.615 451.982 239.032L257.635 141.476C374.908 96.3756 523.783 69.3975 685.796 69.3975C687.991 69.3975 690.184 69.4024 692.375 69.4123L687.119 192.999Z" fill="url(#paint4_linear_4400_117)"/>
<path d="M1169.83 656.649C1172.36 656.649 1174.56 657.075 1176.43 657.929C1178.29 658.755 1179.73 659.955 1180.75 661.529C1181.76 663.075 1182.27 664.902 1182.27 667.009C1182.27 669.115 1181.76 670.942 1180.75 672.489C1179.73 674.035 1178.29 675.235 1176.43 676.089C1174.56 676.915 1172.36 677.329 1169.83 677.329H1164.95V684.649H1157.03V656.649H1169.83ZM1169.35 671.089C1170.97 671.089 1172.2 670.742 1173.03 670.049C1173.85 669.329 1174.27 668.315 1174.27 667.009C1174.27 665.702 1173.85 664.689 1173.03 663.969C1172.2 663.249 1170.97 662.889 1169.35 662.889H1164.95V671.089H1169.35ZM1212.77 656.649V684.649H1204.85V673.729H1194.05V684.649H1186.13V656.649H1194.05V667.169H1204.85V656.649H1212.77ZM1231.43 656.089C1234.07 656.089 1236.39 656.622 1238.39 657.689C1240.42 658.729 1241.98 660.262 1243.07 662.289C1244.19 664.289 1244.75 666.702 1244.75 669.529V684.649H1236.83V678.449H1225.91V684.649H1218.11V669.529C1218.11 666.702 1218.66 664.289 1219.75 662.289C1220.87 660.262 1222.43 658.729 1224.43 657.689C1226.46 656.622 1228.79 656.089 1231.43 656.089ZM1236.83 672.329V668.849C1236.83 666.795 1236.34 665.249 1235.35 664.209C1234.37 663.169 1233.05 662.649 1231.39 662.649C1229.71 662.649 1228.38 663.169 1227.39 664.209C1226.41 665.249 1225.91 666.795 1225.91 668.849V672.329H1236.83ZM1259.95 685.209C1257.69 685.209 1255.49 684.929 1253.35 684.369C1251.22 683.809 1249.49 683.062 1248.15 682.129L1250.75 676.289C1252.01 677.115 1253.46 677.782 1255.11 678.289C1256.77 678.795 1258.39 679.049 1259.99 679.049C1263.03 679.049 1264.55 678.289 1264.55 676.769C1264.55 675.969 1264.11 675.382 1263.23 675.009C1262.38 674.609 1260.99 674.195 1259.07 673.769C1256.97 673.315 1255.21 672.835 1253.79 672.329C1252.38 671.795 1251.17 670.955 1250.15 669.809C1249.14 668.662 1248.63 667.115 1248.63 665.169C1248.63 663.462 1249.1 661.929 1250.03 660.569C1250.97 659.182 1252.35 658.089 1254.19 657.289C1256.06 656.489 1258.34 656.089 1261.03 656.089C1262.87 656.089 1264.69 656.302 1266.47 656.729C1268.26 657.129 1269.83 657.729 1271.19 658.529L1268.75 664.409C1266.09 662.969 1263.5 662.249 1260.99 662.249C1259.42 662.249 1258.27 662.489 1257.55 662.969C1256.83 663.422 1256.47 664.022 1256.47 664.769C1256.47 665.515 1256.9 666.075 1257.75 666.449C1258.61 666.822 1259.98 667.209 1261.87 667.609C1264.01 668.062 1265.77 668.555 1267.15 669.089C1268.57 669.595 1269.78 670.422 1270.79 671.569C1271.83 672.689 1272.35 674.222 1272.35 676.169C1272.35 677.849 1271.89 679.369 1270.95 680.729C1270.02 682.089 1268.62 683.182 1266.75 684.009C1264.89 684.809 1262.62 685.209 1259.95 685.209ZM1300.09 682.529C1298.65 683.355 1296.9 684.009 1294.85 684.489C1292.8 684.969 1290.66 685.209 1288.45 685.209C1285.46 685.209 1282.92 684.849 1280.81 684.129C1278.73 683.409 1277.16 682.409 1276.09 681.129C1275.05 679.849 1274.53 678.369 1274.53 676.689C1274.53 675.222 1274.93 673.929 1275.73 672.809C1276.53 671.689 1277.64 670.822 1279.05 670.209C1277.96 669.649 1277.12 668.875 1276.53 667.889C1275.97 666.875 1275.69 665.769 1275.69 664.569C1275.69 663.022 1276.17 661.609 1277.13 660.329C1278.12 659.049 1279.61 658.022 1281.61 657.249C1283.61 656.475 1286.08 656.089 1289.01 656.089C1290.85 656.089 1292.66 656.262 1294.45 656.609C1296.24 656.955 1297.81 657.422 1299.17 658.009L1297.01 663.929C1294.53 662.835 1291.97 662.289 1289.33 662.289C1287.44 662.289 1286.02 662.542 1285.09 663.049C1284.16 663.529 1283.69 664.209 1283.69 665.089C1283.69 666.689 1284.85 667.489 1287.17 667.489H1295.09V673.529H1286.65C1285.29 673.529 1284.26 673.755 1283.57 674.209C1282.88 674.635 1282.53 675.275 1282.53 676.129C1282.53 677.035 1283.04 677.742 1284.05 678.249C1285.06 678.755 1286.64 679.009 1288.77 679.009C1290.29 679.009 1291.85 678.809 1293.45 678.409C1295.08 677.982 1296.49 677.409 1297.69 676.689L1300.09 682.529ZM1327.8 667.849C1330.12 668.329 1331.89 669.289 1333.12 670.729C1334.37 672.142 1335 673.862 1335 675.889C1335 677.542 1334.54 679.075 1333.64 680.489C1332.76 681.902 1331.4 683.049 1329.56 683.929C1327.74 684.782 1325.49 685.209 1322.8 685.209C1320.82 685.209 1318.86 684.969 1316.92 684.489C1315 684.009 1313.33 683.329 1311.92 682.449L1314.8 676.489C1315.89 677.235 1317.12 677.809 1318.48 678.209C1319.86 678.609 1321.22 678.809 1322.56 678.809C1323.92 678.809 1325 678.555 1325.8 678.049C1326.6 677.542 1327 676.822 1327 675.889C1327 674.075 1325.57 673.169 1322.72 673.169H1319.4V668.169L1324.4 662.769H1313.36V656.649H1333.6V661.609L1327.8 667.849Z" fill="#E8FF30"/>
<path d="M31.9789 656.649C34.5122 656.649 36.7122 657.075 38.5789 657.929C40.4456 658.755 41.8856 659.955 42.8989 661.529C43.9122 663.075 44.4189 664.902 44.4189 667.009C44.4189 669.115 43.9122 670.942 42.8989 672.489C41.8856 674.035 40.4456 675.235 38.5789 676.089C36.7122 676.915 34.5122 677.329 31.9789 677.329H27.0989V684.649H19.1789V656.649H31.9789ZM31.4989 671.089C33.1256 671.089 34.3522 670.742 35.1789 670.049C36.0056 669.329 36.4189 668.315 36.4189 667.009C36.4189 665.702 36.0056 664.689 35.1789 663.969C34.3522 663.249 33.1256 662.889 31.4989 662.889H27.0989V671.089H31.4989ZM74.9205 656.649V684.649H67.0005V673.729H56.2005V684.649H48.2805V656.649H56.2005V667.169H67.0005V656.649H74.9205ZM93.587 656.089C96.227 656.089 98.547 656.622 100.547 657.689C102.574 658.729 104.134 660.262 105.227 662.289C106.347 664.289 106.907 666.702 106.907 669.529V684.649H98.987V678.449H88.067V684.649H80.267V669.529C80.267 666.702 80.8137 664.289 81.907 662.289C83.027 660.262 84.587 658.729 86.587 657.689C88.6137 656.622 90.947 656.089 93.587 656.089ZM98.987 672.329V668.849C98.987 666.795 98.4937 665.249 97.507 664.209C96.5204 663.169 95.2004 662.649 93.547 662.649C91.867 662.649 90.5337 663.169 89.547 664.209C88.5604 665.249 88.067 666.795 88.067 668.849V672.329H98.987ZM122.105 685.209C119.838 685.209 117.638 684.929 115.505 684.369C113.372 683.809 111.638 683.062 110.305 682.129L112.905 676.289C114.158 677.115 115.612 677.782 117.265 678.289C118.918 678.795 120.545 679.049 122.145 679.049C125.185 679.049 126.705 678.289 126.705 676.769C126.705 675.969 126.265 675.382 125.385 675.009C124.532 674.609 123.145 674.195 121.225 673.769C119.118 673.315 117.358 672.835 115.945 672.329C114.532 671.795 113.318 670.955 112.305 669.809C111.292 668.662 110.785 667.115 110.785 665.169C110.785 663.462 111.252 661.929 112.185 660.569C113.118 659.182 114.505 658.089 116.345 657.289C118.212 656.489 120.492 656.089 123.185 656.089C125.025 656.089 126.838 656.302 128.625 656.729C130.412 657.129 131.985 657.729 133.345 658.529L130.905 664.409C128.238 662.969 125.652 662.249 123.145 662.249C121.572 662.249 120.425 662.489 119.705 662.969C118.985 663.422 118.625 664.022 118.625 664.769C118.625 665.515 119.052 666.075 119.905 666.449C120.758 666.822 122.132 667.209 124.025 667.609C126.158 668.062 127.918 668.555 129.305 669.089C130.718 669.595 131.932 670.422 132.945 671.569C133.985 672.689 134.505 674.222 134.505 676.169C134.505 677.849 134.038 679.369 133.105 680.729C132.172 682.089 130.772 683.182 128.905 684.009C127.038 684.809 124.772 685.209 122.105 685.209ZM162.243 682.529C160.803 683.355 159.057 684.009 157.003 684.489C154.95 684.969 152.817 685.209 150.603 685.209C147.617 685.209 145.07 684.849 142.963 684.129C140.883 683.409 139.31 682.409 138.243 681.129C137.203 679.849 136.683 678.369 136.683 676.689C136.683 675.222 137.083 673.929 137.883 672.809C138.683 671.689 139.79 670.822 141.203 670.209C140.11 669.649 139.27 668.875 138.683 667.889C138.123 666.875 137.843 665.769 137.843 664.569C137.843 663.022 138.323 661.609 139.283 660.329C140.27 659.049 141.763 658.022 143.763 657.249C145.763 656.475 148.23 656.089 151.163 656.089C153.003 656.089 154.817 656.262 156.603 656.609C158.39 656.955 159.963 657.422 161.323 658.009L159.163 663.929C156.683 662.835 154.123 662.289 151.483 662.289C149.59 662.289 148.177 662.542 147.243 663.049C146.31 663.529 145.843 664.209 145.843 665.089C145.843 666.689 147.003 667.489 149.323 667.489H157.243V673.529H148.803C147.443 673.529 146.417 673.755 145.723 674.209C145.03 674.635 144.683 675.275 144.683 676.129C144.683 677.035 145.19 677.742 146.203 678.249C147.217 678.755 148.79 679.009 150.923 679.009C152.443 679.009 154.003 678.809 155.603 678.409C157.23 677.982 158.643 677.409 159.843 676.689L162.243 682.529ZM201.99 679.289H197.83V684.649H190.11V679.289H175.31V674.129L187.87 656.649H196.07L184.67 673.009H190.35V668.249H197.83V673.009H201.99V679.289Z" fill="#E8FF30"/>
<path d="M792.015 112.815V154.815H780.135V121.995H772.335V112.815H792.015ZM816.871 155.655C813.271 155.655 810.071 154.795 807.271 153.075C804.471 151.355 802.271 148.855 800.671 145.575C799.111 142.255 798.331 138.335 798.331 133.815C798.331 129.295 799.111 125.395 800.671 122.115C802.271 118.795 804.471 116.275 807.271 114.555C810.071 112.835 813.271 111.975 816.871 111.975C820.431 111.975 823.611 112.835 826.411 114.555C829.211 116.275 831.391 118.795 832.951 122.115C834.551 125.395 835.351 129.295 835.351 133.815C835.351 138.335 834.551 142.255 832.951 145.575C831.391 148.855 829.211 151.355 826.411 153.075C823.611 154.795 820.431 155.655 816.871 155.655ZM816.871 145.935C818.871 145.935 820.451 144.975 821.611 143.055C822.811 141.095 823.411 138.015 823.411 133.815C823.411 129.615 822.811 126.555 821.611 124.635C820.451 122.675 818.871 121.695 816.871 121.695C814.831 121.695 813.211 122.675 812.011 124.635C810.851 126.555 810.271 129.615 810.271 133.815C810.271 138.015 810.851 141.095 812.011 143.055C813.211 144.975 814.831 145.935 816.871 145.935Z" fill="white"/>
<path d="M1121.18 266.314V275.734H1088.48V268.294L1104.2 253.594C1105.72 252.154 1106.74 250.934 1107.26 249.934C1107.78 248.894 1108.04 247.854 1108.04 246.814C1108.04 245.454 1107.58 244.394 1106.66 243.634C1105.74 242.874 1104.4 242.494 1102.64 242.494C1101.08 242.494 1099.64 242.854 1098.32 243.574C1097.04 244.254 1095.98 245.254 1095.14 246.574L1086.32 241.654C1087.96 238.934 1090.26 236.794 1093.22 235.234C1096.18 233.674 1099.68 232.894 1103.72 232.894C1106.92 232.894 1109.74 233.414 1112.18 234.454C1114.66 235.494 1116.58 236.994 1117.94 238.954C1119.34 240.874 1120.04 243.114 1120.04 245.674C1120.04 247.954 1119.54 250.114 1118.54 252.154C1117.58 254.154 1115.7 256.434 1112.9 258.994L1104.98 266.314H1121.18ZM1143.12 276.574C1139.52 276.574 1136.32 275.714 1133.52 273.994C1130.72 272.274 1128.52 269.774 1126.92 266.494C1125.36 263.174 1124.58 259.254 1124.58 254.734C1124.58 250.214 1125.36 246.314 1126.92 243.034C1128.52 239.714 1130.72 237.194 1133.52 235.474C1136.32 233.754 1139.52 232.894 1143.12 232.894C1146.68 232.894 1149.86 233.754 1152.66 235.474C1155.46 237.194 1157.64 239.714 1159.2 243.034C1160.8 246.314 1161.6 250.214 1161.6 254.734C1161.6 259.254 1160.8 263.174 1159.2 266.494C1157.64 269.774 1155.46 272.274 1152.66 273.994C1149.86 275.714 1146.68 276.574 1143.12 276.574ZM1143.12 266.854C1145.12 266.854 1146.7 265.894 1147.86 263.974C1149.06 262.014 1149.66 258.934 1149.66 254.734C1149.66 250.534 1149.06 247.474 1147.86 245.554C1146.7 243.594 1145.12 242.614 1143.12 242.614C1141.08 242.614 1139.46 243.594 1138.26 245.554C1137.1 247.474 1136.52 250.534 1136.52 254.734C1136.52 258.934 1137.1 262.014 1138.26 263.974C1139.46 265.894 1141.08 266.854 1143.12 266.854Z" fill="white"/>
<path d="M963.256 567.666V577.086H930.556V569.646L946.276 554.946C947.796 553.506 948.816 552.286 949.336 551.286C949.856 550.246 950.116 549.206 950.116 548.166C950.116 546.806 949.656 545.746 948.736 544.986C947.816 544.226 946.476 543.846 944.716 543.846C943.156 543.846 941.716 544.206 940.396 544.926C939.116 545.606 938.056 546.606 937.216 547.926L928.396 543.006C930.036 540.286 932.336 538.146 935.296 536.586C938.256 535.026 941.756 534.246 945.796 534.246C948.996 534.246 951.816 534.766 954.256 535.806C956.736 536.846 958.656 538.346 960.016 540.306C961.416 542.226 962.116 544.466 962.116 547.026C962.116 549.306 961.616 551.466 960.616 553.506C959.656 555.506 957.776 557.786 954.976 560.346L947.056 567.666H963.256ZM982.434 550.386C988.314 550.386 992.654 551.586 995.454 553.986C998.294 556.386 999.714 559.586 999.714 563.586C999.714 566.186 999.034 568.586 997.674 570.786C996.354 572.946 994.314 574.686 991.554 576.006C988.834 577.286 985.454 577.926 981.414 577.926C978.454 577.926 975.514 577.566 972.594 576.846C969.714 576.126 967.234 575.106 965.154 573.786L969.414 564.846C971.094 565.966 972.934 566.826 974.934 567.426C976.974 568.026 979.014 568.326 981.054 568.326C983.094 568.326 984.714 567.946 985.914 567.186C987.154 566.386 987.774 565.286 987.774 563.886C987.774 562.486 987.174 561.426 985.974 560.706C984.774 559.986 982.654 559.626 979.614 559.626H968.214L970.314 535.086H997.074V544.266H980.154L979.614 550.386H982.434Z" fill="white"/>
<path d="M225.959 427.839C229.439 428.559 232.099 429.999 233.939 432.159C235.819 434.279 236.759 436.859 236.759 439.899C236.759 442.379 236.079 444.679 234.719 446.799C233.399 448.919 231.359 450.639 228.599 451.959C225.879 453.239 222.499 453.879 218.459 453.879C215.499 453.879 212.559 453.519 209.639 452.799C206.759 452.079 204.259 451.059 202.139 449.739L206.459 440.799C208.099 441.919 209.939 442.779 211.979 443.379C214.059 443.979 216.099 444.279 218.099 444.279C220.139 444.279 221.759 443.899 222.959 443.139C224.159 442.379 224.759 441.299 224.759 439.899C224.759 437.179 222.619 435.819 218.339 435.819H213.359V428.319L220.859 420.219H204.299V411.039H234.659V418.479L225.959 427.839ZM259.111 453.879C255.511 453.879 252.311 453.019 249.511 451.299C246.711 449.579 244.511 447.079 242.911 443.799C241.351 440.479 240.571 436.559 240.571 432.039C240.571 427.519 241.351 423.619 242.911 420.339C244.511 417.019 246.711 414.499 249.511 412.779C252.311 411.059 255.511 410.199 259.111 410.199C262.671 410.199 265.851 411.059 268.651 412.779C271.451 414.499 273.631 417.019 275.191 420.339C276.791 423.619 277.591 427.519 277.591 432.039C277.591 436.559 276.791 440.479 275.191 443.799C273.631 447.079 271.451 449.579 268.651 451.299C265.851 453.019 262.671 453.879 259.111 453.879ZM259.111 444.159C261.111 444.159 262.691 443.199 263.851 441.279C265.051 439.319 265.651 436.239 265.651 432.039C265.651 427.839 265.051 424.779 263.851 422.859C262.691 420.899 261.111 419.919 259.111 419.919C257.071 419.919 255.451 420.899 254.251 422.859C253.091 424.779 252.511 427.839 252.511 432.039C252.511 436.239 253.091 439.319 254.251 441.279C255.451 443.199 257.071 444.159 259.111 444.159Z" fill="white"/>
<path d="M513.814 145.395V154.815H481.114V147.375L496.834 132.675C498.354 131.235 499.374 130.015 499.894 129.015C500.414 127.975 500.674 126.935 500.674 125.895C500.674 124.535 500.214 123.475 499.294 122.715C498.374 121.955 497.034 121.575 495.274 121.575C493.714 121.575 492.274 121.935 490.954 122.655C489.674 123.335 488.614 124.335 487.774 125.655L478.954 120.735C480.594 118.015 482.894 115.875 485.854 114.315C488.814 112.755 492.314 111.975 496.354 111.975C499.554 111.975 502.374 112.495 504.814 113.535C507.294 114.575 509.214 116.075 510.574 118.035C511.974 119.955 512.674 122.195 512.674 124.755C512.674 127.035 512.174 129.195 511.174 131.235C510.214 133.235 508.334 135.515 505.534 138.075L497.614 145.395H513.814ZM538.812 129.615C542.292 130.335 544.952 131.775 546.792 133.935C548.672 136.055 549.612 138.635 549.612 141.675C549.612 144.155 548.932 146.455 547.572 148.575C546.252 150.695 544.212 152.415 541.452 153.735C538.732 155.015 535.352 155.655 531.312 155.655C528.352 155.655 525.412 155.295 522.492 154.575C519.612 153.855 517.112 152.835 514.992 151.515L519.312 142.575C520.952 143.695 522.792 144.555 524.832 145.155C526.912 145.755 528.952 146.055 530.952 146.055C532.992 146.055 534.612 145.675 535.812 144.915C537.012 144.155 537.612 143.075 537.612 141.675C537.612 138.955 535.472 137.595 531.192 137.595H526.212V130.095L533.712 121.995H517.152V112.815H547.512V120.255L538.812 129.615Z" fill="white"/>
<path d="M772.916 174.267C773.716 174.547 774.343 174.987 774.796 175.587C775.249 176.174 775.476 176.887 775.476 177.727C775.476 178.954 774.983 179.9 773.996 180.567C773.009 181.234 771.583 181.567 769.716 181.567H762.156V167.567H769.316C771.103 167.567 772.463 167.9 773.396 168.567C774.329 169.22 774.796 170.107 774.796 171.227C774.796 171.894 774.629 172.494 774.296 173.027C773.976 173.547 773.516 173.96 772.916 174.267ZM766.076 170.427V173.127H768.796C770.129 173.127 770.796 172.674 770.796 171.767C770.796 170.874 770.129 170.427 768.796 170.427H766.076ZM769.396 178.707C770.783 178.707 771.476 178.234 771.476 177.287C771.476 176.34 770.783 175.867 769.396 175.867H766.076V178.707H769.396ZM783.107 170.627V178.507H785.367V181.567H776.867V178.507H779.147V170.627H776.867V167.567H785.367V170.627H783.107ZM787.507 167.567H791.467V178.427H798.147V181.567H787.507V167.567ZM799.714 167.567H803.674V178.427H810.354V181.567H799.714V167.567ZM817.501 170.627V178.507H819.761V181.567H811.261V178.507H813.541V170.627H811.261V167.567H819.761V170.627H817.501ZM828.864 181.847C827.384 181.847 826.051 181.534 824.864 180.907C823.691 180.28 822.764 179.414 822.084 178.307C821.418 177.2 821.084 175.954 821.084 174.567C821.084 173.18 821.418 171.934 822.084 170.827C822.764 169.72 823.691 168.854 824.864 168.227C826.051 167.6 827.384 167.287 828.864 167.287C830.344 167.287 831.671 167.6 832.844 168.227C834.031 168.854 834.958 169.72 835.624 170.827C836.304 171.934 836.644 173.18 836.644 174.567C836.644 175.954 836.304 177.2 835.624 178.307C834.958 179.414 834.031 180.28 832.844 180.907C831.671 181.534 830.344 181.847 828.864 181.847ZM828.864 178.567C829.571 178.567 830.211 178.4 830.784 178.067C831.358 177.734 831.811 177.267 832.144 176.667C832.478 176.054 832.644 175.354 832.644 174.567C832.644 173.78 832.478 173.087 832.144 172.487C831.811 171.874 831.358 171.4 830.784 171.067C830.211 170.734 829.571 170.567 828.864 170.567C828.158 170.567 827.518 170.734 826.944 171.067C826.371 171.4 825.918 171.874 825.584 172.487C825.251 173.087 825.084 173.78 825.084 174.567C825.084 175.354 825.251 176.054 825.584 176.667C825.918 177.267 826.371 177.734 826.944 178.067C827.518 178.4 828.158 178.567 828.864 178.567ZM846.678 167.287C848.345 167.287 849.638 167.82 850.558 168.887C851.478 169.94 851.938 171.447 851.938 173.407V181.567H847.978V173.527C847.978 172.54 847.752 171.8 847.298 171.307C846.858 170.814 846.238 170.567 845.438 170.567C844.612 170.567 843.945 170.834 843.438 171.367C842.932 171.887 842.678 172.674 842.678 173.727V181.567H838.718V167.567H842.558V169.167C843.505 167.914 844.878 167.287 846.678 167.287Z" fill="#E8FF30"/>
<path d="M1090.84 293.434C1091.64 293.714 1092.26 294.154 1092.72 294.754C1093.17 295.341 1093.4 296.054 1093.4 296.894C1093.4 298.121 1092.9 299.067 1091.92 299.734C1090.93 300.401 1089.5 300.734 1087.64 300.734H1080.08V286.734H1087.24C1089.02 286.734 1090.38 287.067 1091.32 287.734C1092.25 288.387 1092.72 289.274 1092.72 290.394C1092.72 291.061 1092.55 291.661 1092.22 292.194C1091.9 292.714 1091.44 293.127 1090.84 293.434ZM1084 289.594V292.294H1086.72C1088.05 292.294 1088.72 291.841 1088.72 290.934C1088.72 290.041 1088.05 289.594 1086.72 289.594H1084ZM1087.32 297.874C1088.7 297.874 1089.4 297.401 1089.4 296.454C1089.4 295.507 1088.7 295.034 1087.32 295.034H1084V297.874H1087.32ZM1101.03 289.794V297.674H1103.29V300.734H1094.79V297.674H1097.07V289.794H1094.79V286.734H1103.29V289.794H1101.03ZM1105.43 286.734H1109.39V297.594H1116.07V300.734H1105.43V286.734ZM1117.63 286.734H1121.59V297.594H1128.27V300.734H1117.63V286.734ZM1135.42 289.794V297.674H1137.68V300.734H1129.18V297.674H1131.46V289.794H1129.18V286.734H1137.68V289.794H1135.42ZM1146.78 301.014C1145.3 301.014 1143.97 300.701 1142.78 300.074C1141.61 299.447 1140.68 298.581 1140 297.474C1139.34 296.367 1139 295.121 1139 293.734C1139 292.347 1139.34 291.101 1140 289.994C1140.68 288.887 1141.61 288.021 1142.78 287.394C1143.97 286.767 1145.3 286.454 1146.78 286.454C1148.26 286.454 1149.59 286.767 1150.76 287.394C1151.95 288.021 1152.88 288.887 1153.54 289.994C1154.22 291.101 1154.56 292.347 1154.56 293.734C1154.56 295.121 1154.22 296.367 1153.54 297.474C1152.88 298.581 1151.95 299.447 1150.76 300.074C1149.59 300.701 1148.26 301.014 1146.78 301.014ZM1146.78 297.734C1147.49 297.734 1148.13 297.567 1148.7 297.234C1149.28 296.901 1149.73 296.434 1150.06 295.834C1150.4 295.221 1150.56 294.521 1150.56 293.734C1150.56 292.947 1150.4 292.254 1150.06 291.654C1149.73 291.041 1149.28 290.567 1148.7 290.234C1148.13 289.901 1147.49 289.734 1146.78 289.734C1146.08 289.734 1145.44 289.901 1144.86 290.234C1144.29 290.567 1143.84 291.041 1143.5 291.654C1143.17 292.254 1143 292.947 1143 293.734C1143 294.521 1143.17 295.221 1143.5 295.834C1143.84 296.434 1144.29 296.901 1144.86 297.234C1145.44 297.567 1146.08 297.734 1146.78 297.734ZM1164.6 286.454C1166.26 286.454 1167.56 286.987 1168.48 288.054C1169.4 289.107 1169.86 290.614 1169.86 292.574V300.734H1165.9V292.694C1165.9 291.707 1165.67 290.967 1165.22 290.474C1164.78 289.981 1164.16 289.734 1163.36 289.734C1162.53 289.734 1161.86 290.001 1161.36 290.534C1160.85 291.054 1160.6 291.841 1160.6 292.894V300.734H1156.64V286.734H1160.48V288.334C1161.42 287.081 1162.8 286.454 1164.6 286.454Z" fill="#E8FF30"/>
<path d="M930.916 599.494C931.716 599.774 932.343 600.214 932.796 600.814C933.249 601.401 933.476 602.114 933.476 602.954C933.476 604.181 932.983 605.128 931.996 605.794C931.009 606.461 929.583 606.794 927.716 606.794H920.156V592.794H927.316C929.103 592.794 930.463 593.128 931.396 593.794C932.329 594.448 932.796 595.334 932.796 596.454C932.796 597.121 932.629 597.721 932.296 598.254C931.976 598.774 931.516 599.188 930.916 599.494ZM924.076 595.654V598.354H926.796C928.129 598.354 928.796 597.901 928.796 596.994C928.796 596.101 928.129 595.654 926.796 595.654H924.076ZM927.396 603.934C928.783 603.934 929.476 603.461 929.476 602.514C929.476 601.568 928.783 601.094 927.396 601.094H924.076V603.934H927.396ZM941.107 595.854V603.734H943.367V606.794H934.867V603.734H937.147V595.854H934.867V592.794H943.367V595.854H941.107ZM945.507 592.794H949.467V603.654H956.147V606.794H945.507V592.794ZM957.714 592.794H961.674V603.654H968.354V606.794H957.714V592.794ZM975.501 595.854V603.734H977.761V606.794H969.261V603.734H971.541V595.854H969.261V592.794H977.761V595.854H975.501ZM986.864 607.074C985.384 607.074 984.051 606.761 982.864 606.134C981.691 605.508 980.764 604.641 980.084 603.534C979.418 602.428 979.084 601.181 979.084 599.794C979.084 598.408 979.418 597.161 980.084 596.054C980.764 594.948 981.691 594.081 982.864 593.454C984.051 592.828 985.384 592.514 986.864 592.514C988.344 592.514 989.671 592.828 990.844 593.454C992.031 594.081 992.958 594.948 993.624 596.054C994.304 597.161 994.644 598.408 994.644 599.794C994.644 601.181 994.304 602.428 993.624 603.534C992.958 604.641 992.031 605.508 990.844 606.134C989.671 606.761 988.344 607.074 986.864 607.074ZM986.864 603.794C987.571 603.794 988.211 603.628 988.784 603.294C989.358 602.961 989.811 602.494 990.144 601.894C990.478 601.281 990.644 600.581 990.644 599.794C990.644 599.008 990.478 598.314 990.144 597.714C989.811 597.101 989.358 596.628 988.784 596.294C988.211 595.961 987.571 595.794 986.864 595.794C986.158 595.794 985.518 595.961 984.944 596.294C984.371 596.628 983.918 597.101 983.584 597.714C983.251 598.314 983.084 599.008 983.084 599.794C983.084 600.581 983.251 601.281 983.584 601.894C983.918 602.494 984.371 602.961 984.944 603.294C985.518 603.628 986.158 603.794 986.864 603.794ZM1004.68 592.514C1006.35 592.514 1007.64 593.048 1008.56 594.114C1009.48 595.168 1009.94 596.674 1009.94 598.634V606.794H1005.98V598.754C1005.98 597.768 1005.75 597.028 1005.3 596.534C1004.86 596.041 1004.24 595.794 1003.44 595.794C1002.61 595.794 1001.95 596.061 1001.44 596.594C1000.93 597.114 1000.68 597.901 1000.68 598.954V606.794H996.718V592.794H1000.56V594.394C1001.51 593.141 1002.88 592.514 1004.68 592.514Z" fill="#E8FF30"/>
<path d="M207.039 476.608C207.839 476.888 208.466 477.328 208.919 477.928C209.372 478.514 209.599 479.228 209.599 480.068C209.599 481.294 209.106 482.241 208.119 482.908C207.132 483.574 205.706 483.908 203.839 483.908H196.279V469.908H203.439C205.226 469.908 206.586 470.241 207.519 470.908C208.452 471.561 208.919 472.448 208.919 473.568C208.919 474.234 208.752 474.834 208.419 475.368C208.099 475.888 207.639 476.301 207.039 476.608ZM200.199 472.768V475.468H202.919C204.252 475.468 204.919 475.014 204.919 474.108C204.919 473.214 204.252 472.768 202.919 472.768H200.199ZM203.519 481.048C204.906 481.048 205.599 480.574 205.599 479.628C205.599 478.681 204.906 478.208 203.519 478.208H200.199V481.048H203.519ZM217.23 472.968V480.848H219.49V483.908H210.99V480.848H213.27V472.968H210.99V469.908H219.49V472.968H217.23ZM221.63 469.908H225.59V480.768H232.27V483.908H221.63V469.908ZM233.838 469.908H237.798V480.768H244.478V483.908H233.838V469.908ZM251.625 472.968V480.848H253.885V483.908H245.385V480.848H247.665V472.968H245.385V469.908H253.885V472.968H251.625ZM262.987 484.188C261.507 484.188 260.174 483.874 258.987 483.248C257.814 482.621 256.887 481.754 256.207 480.648C255.541 479.541 255.207 478.294 255.207 476.908C255.207 475.521 255.541 474.274 256.207 473.168C256.887 472.061 257.814 471.194 258.987 470.568C260.174 469.941 261.507 469.628 262.987 469.628C264.467 469.628 265.794 469.941 266.967 470.568C268.154 471.194 269.081 472.061 269.747 473.168C270.427 474.274 270.767 475.521 270.767 476.908C270.767 478.294 270.427 479.541 269.747 480.648C269.081 481.754 268.154 482.621 266.967 483.248C265.794 483.874 264.467 484.188 262.987 484.188ZM262.987 480.908C263.694 480.908 264.334 480.741 264.907 480.408C265.481 480.074 265.934 479.608 266.267 479.008C266.601 478.394 266.767 477.694 266.767 476.908C266.767 476.121 266.601 475.428 266.267 474.828C265.934 474.214 265.481 473.741 264.907 473.408C264.334 473.074 263.694 472.908 262.987 472.908C262.281 472.908 261.641 473.074 261.067 473.408C260.494 473.741 260.041 474.214 259.707 474.828C259.374 475.428 259.207 476.121 259.207 476.908C259.207 477.694 259.374 478.394 259.707 479.008C260.041 479.608 260.494 480.074 261.067 480.408C261.641 480.741 262.281 480.908 262.987 480.908ZM280.801 469.628C282.468 469.628 283.761 470.161 284.681 471.228C285.601 472.281 286.061 473.788 286.061 475.748V483.908H282.101V475.868C282.101 474.881 281.875 474.141 281.421 473.648C280.981 473.154 280.361 472.908 279.561 472.908C278.735 472.908 278.068 473.174 277.561 473.708C277.055 474.228 276.801 475.014 276.801 476.068V483.908H272.841V469.908H276.681V471.508C277.628 470.254 279.001 469.628 280.801 469.628Z" fill="#E8FF30"/>
<path d="M481.474 174.267C482.274 174.547 482.901 174.987 483.354 175.587C483.808 176.174 484.034 176.887 484.034 177.727C484.034 178.954 483.541 179.9 482.554 180.567C481.568 181.234 480.141 181.567 478.274 181.567H470.714V167.567H477.874C479.661 167.567 481.021 167.9 481.954 168.567C482.888 169.22 483.354 170.107 483.354 171.227C483.354 171.894 483.188 172.494 482.854 173.027C482.534 173.547 482.074 173.96 481.474 174.267ZM474.634 170.427V173.127H477.354C478.688 173.127 479.354 172.674 479.354 171.767C479.354 170.874 478.688 170.427 477.354 170.427H474.634ZM477.954 178.707C479.341 178.707 480.034 178.234 480.034 177.287C480.034 176.34 479.341 175.867 477.954 175.867H474.634V178.707H477.954ZM491.666 170.627V178.507H493.926V181.567H485.426V178.507H487.706V170.627H485.426V167.567H493.926V170.627H491.666ZM496.066 167.567H500.026V178.427H506.706V181.567H496.066V167.567ZM508.273 167.567H512.233V178.427H518.913V181.567H508.273V167.567ZM526.06 170.627V178.507H528.32V181.567H519.82V178.507H522.1V170.627H519.82V167.567H528.32V170.627H526.06ZM537.423 181.847C535.943 181.847 534.61 181.534 533.423 180.907C532.25 180.28 531.323 179.414 530.643 178.307C529.976 177.2 529.643 175.954 529.643 174.567C529.643 173.18 529.976 171.934 530.643 170.827C531.323 169.72 532.25 168.854 533.423 168.227C534.61 167.6 535.943 167.287 537.423 167.287C538.903 167.287 540.23 167.6 541.403 168.227C542.59 168.854 543.516 169.72 544.183 170.827C544.863 171.934 545.203 173.18 545.203 174.567C545.203 175.954 544.863 177.2 544.183 178.307C543.516 179.414 542.59 180.28 541.403 180.907C540.23 181.534 538.903 181.847 537.423 181.847ZM537.423 178.567C538.13 178.567 538.77 178.4 539.343 178.067C539.916 177.734 540.37 177.267 540.703 176.667C541.036 176.054 541.203 175.354 541.203 174.567C541.203 173.78 541.036 173.087 540.703 172.487C540.37 171.874 539.916 171.4 539.343 171.067C538.77 170.734 538.13 170.567 537.423 170.567C536.716 170.567 536.076 170.734 535.503 171.067C534.93 171.4 534.476 171.874 534.143 172.487C533.81 173.087 533.643 173.78 533.643 174.567C533.643 175.354 533.81 176.054 534.143 176.667C534.476 177.267 534.93 177.734 535.503 178.067C536.076 178.4 536.716 178.567 537.423 178.567ZM555.237 167.287C556.904 167.287 558.197 167.82 559.117 168.887C560.037 169.94 560.497 171.447 560.497 173.407V181.567H556.537V173.527C556.537 172.54 556.31 171.8 555.857 171.307C555.417 170.814 554.797 170.567 553.997 170.567C553.17 170.567 552.504 170.834 551.997 171.367C551.49 171.887 551.237 172.674 551.237 173.727V181.567H547.277V167.567H551.117V169.167C552.064 167.914 553.437 167.287 555.237 167.287Z" fill="#E8FF30"/>
<path d="M525.968 344.754V379.754H516.068V352.404H509.568V344.754H525.968ZM558.281 371.904V379.754H531.031V373.554L544.131 361.304C545.398 360.104 546.248 359.088 546.681 358.254C547.115 357.388 547.331 356.521 547.331 355.654C547.331 354.521 546.948 353.638 546.181 353.004C545.415 352.371 544.298 352.054 542.831 352.054C541.531 352.054 540.331 352.354 539.231 352.954C538.165 353.521 537.281 354.354 536.581 355.454L529.231 351.354C530.598 349.088 532.515 347.304 534.981 346.004C537.448 344.704 540.365 344.054 543.731 344.054C546.398 344.054 548.748 344.488 550.781 345.354C552.848 346.221 554.448 347.471 555.581 349.104C556.748 350.704 557.331 352.571 557.331 354.704C557.331 356.604 556.915 358.404 556.081 360.104C555.281 361.771 553.715 363.671 551.381 365.804L544.781 371.904H558.281ZM574.263 357.504C579.163 357.504 582.78 358.504 585.113 360.504C587.48 362.504 588.663 365.171 588.663 368.504C588.663 370.671 588.096 372.671 586.963 374.504C585.863 376.304 584.163 377.754 581.863 378.854C579.596 379.921 576.78 380.454 573.413 380.454C570.946 380.454 568.496 380.154 566.063 379.554C563.663 378.954 561.596 378.104 559.863 377.004L563.413 369.554C564.813 370.488 566.346 371.204 568.013 371.704C569.713 372.204 571.413 372.454 573.113 372.454C574.813 372.454 576.163 372.138 577.163 371.504C578.196 370.838 578.713 369.921 578.713 368.754C578.713 367.588 578.213 366.704 577.213 366.104C576.213 365.504 574.446 365.204 571.913 365.204H562.413L564.163 344.754H586.463V352.404H572.363L571.913 357.504H574.263ZM634.785 361.504C636.785 362.204 638.351 363.304 639.485 364.804C640.618 366.271 641.185 368.054 641.185 370.154C641.185 373.221 639.951 375.588 637.485 377.254C635.018 378.921 631.451 379.754 626.785 379.754H607.885V344.754H625.785C630.251 344.754 633.651 345.588 635.985 347.254C638.318 348.888 639.485 351.104 639.485 353.904C639.485 355.571 639.068 357.071 638.235 358.404C637.435 359.704 636.285 360.738 634.785 361.504ZM617.685 351.904V358.654H624.485C627.818 358.654 629.485 357.521 629.485 355.254C629.485 353.021 627.818 351.904 624.485 351.904H617.685ZM625.985 372.604C629.451 372.604 631.185 371.421 631.185 369.054C631.185 366.688 629.451 365.504 625.985 365.504H617.685V372.604H625.985ZM660.263 352.404V372.104H665.913V379.754H644.663V372.104H650.363V352.404H644.663V344.754H665.913V352.404H660.263ZM671.264 344.754H681.164V371.904H697.864V379.754H671.264V344.754ZM701.781 344.754H711.681V371.904H728.381V379.754H701.781V344.754ZM746.249 352.404V372.104H751.899V379.754H730.649V372.104H736.349V352.404H730.649V344.754H751.899V352.404H746.249ZM774.656 380.454C770.956 380.454 767.623 379.671 764.656 378.104C761.723 376.538 759.406 374.371 757.706 371.604C756.039 368.838 755.206 365.721 755.206 362.254C755.206 358.788 756.039 355.671 757.706 352.904C759.406 350.138 761.723 347.971 764.656 346.404C767.623 344.838 770.956 344.054 774.656 344.054C778.356 344.054 781.673 344.838 784.606 346.404C787.573 347.971 789.889 350.138 791.556 352.904C793.256 355.671 794.106 358.788 794.106 362.254C794.106 365.721 793.256 368.838 791.556 371.604C789.889 374.371 787.573 376.538 784.606 378.104C781.673 379.671 778.356 380.454 774.656 380.454ZM774.656 372.254C776.423 372.254 778.023 371.838 779.456 371.004C780.889 370.171 782.023 369.004 782.856 367.504C783.689 365.971 784.106 364.221 784.106 362.254C784.106 360.288 783.689 358.554 782.856 357.054C782.023 355.521 780.889 354.338 779.456 353.504C778.023 352.671 776.423 352.254 774.656 352.254C772.889 352.254 771.289 352.671 769.856 353.504C768.423 354.338 767.289 355.521 766.456 357.054C765.623 358.554 765.206 360.288 765.206 362.254C765.206 364.221 765.623 365.971 766.456 367.504C767.289 369.004 768.423 370.171 769.856 371.004C771.289 371.838 772.889 372.254 774.656 372.254ZM819.191 344.054C823.358 344.054 826.591 345.388 828.891 348.054C831.191 350.688 832.341 354.454 832.341 359.354V379.754H822.441V359.654C822.441 357.188 821.874 355.338 820.741 354.104C819.641 352.871 818.091 352.254 816.091 352.254C814.024 352.254 812.358 352.921 811.091 354.254C809.824 355.554 809.191 357.521 809.191 360.154V379.754H799.291V344.754H808.891V348.754C811.258 345.621 814.691 344.054 819.191 344.054Z" fill="#E8FF30"/>
<path d="M569.178 311.63C567.418 310.65 565.628 310 563.808 309.68V326.03H557.868V309.68C556.008 310 554.218 310.65 552.498 311.63L550.517 307.31C551.978 306.43 553.588 305.76 555.347 305.3C557.128 304.84 558.958 304.61 560.838 304.61C562.718 304.61 564.538 304.84 566.298 305.3C568.078 305.76 569.698 306.43 571.158 307.31L569.178 311.63ZM583.139 326.45C580.919 326.45 578.919 325.98 577.139 325.04C575.379 324.1 573.989 322.8 572.969 321.14C571.969 319.48 571.469 317.61 571.469 315.53C571.469 313.45 571.969 311.58 572.969 309.92C573.989 308.26 575.379 306.96 577.139 306.02C578.919 305.08 580.919 304.61 583.139 304.61C585.359 304.61 587.349 305.08 589.109 306.02C590.889 306.96 592.279 308.26 593.279 309.92C594.299 311.58 594.809 313.45 594.809 315.53C594.809 317.61 594.299 319.48 593.279 321.14C592.279 322.8 590.889 324.1 589.109 325.04C587.349 325.98 585.359 326.45 583.139 326.45ZM583.139 321.53C584.199 321.53 585.159 321.28 586.019 320.78C586.879 320.28 587.559 319.58 588.059 318.68C588.559 317.76 588.809 316.71 588.809 315.53C588.809 314.35 588.559 313.31 588.059 312.41C587.559 311.49 586.879 310.78 586.019 310.28C585.159 309.78 584.199 309.53 583.139 309.53C582.079 309.53 581.119 309.78 580.259 310.28C579.399 310.78 578.719 311.49 578.219 312.41C577.719 313.31 577.469 314.35 577.469 315.53C577.469 316.71 577.719 317.76 578.219 318.68C578.719 319.58 579.399 320.28 580.259 320.78C581.119 321.28 582.079 321.53 583.139 321.53ZM613.767 311.63C612.007 310.65 610.217 310 608.397 309.68V326.03H602.457V309.68C600.597 310 598.807 310.65 597.087 311.63L595.107 307.31C596.567 306.43 598.177 305.76 599.937 305.3C601.717 304.84 603.547 304.61 605.427 304.61C607.307 304.61 609.127 304.84 610.887 305.3C612.667 305.76 614.287 306.43 615.747 307.31L613.767 311.63ZM626.949 304.61C628.929 304.61 630.669 305.01 632.169 305.81C633.689 306.59 634.859 307.74 635.679 309.26C636.519 310.76 636.939 312.57 636.939 314.69V326.03H630.999V321.38H622.809V326.03H616.959V314.69C616.959 312.57 617.369 310.76 618.189 309.26C619.029 307.74 620.199 306.59 621.699 305.81C623.219 305.01 624.969 304.61 626.949 304.61ZM630.999 316.79V314.18C630.999 312.64 630.629 311.48 629.889 310.7C629.149 309.92 628.159 309.53 626.919 309.53C625.659 309.53 624.659 309.92 623.919 310.7C623.179 311.48 622.809 312.64 622.809 314.18V316.79H630.999ZM640.957 305.03H646.897V321.32H656.917V326.03H640.957V305.03ZM675.378 326.45C673.678 326.45 672.028 326.24 670.428 325.82C668.828 325.4 667.528 324.84 666.528 324.14L668.478 319.76C669.418 320.38 670.508 320.88 671.748 321.26C672.988 321.64 674.208 321.83 675.408 321.83C677.688 321.83 678.828 321.26 678.828 320.12C678.828 319.52 678.498 319.08 677.838 318.8C677.198 318.5 676.158 318.19 674.718 317.87C673.138 317.53 671.818 317.17 670.758 316.79C669.698 316.39 668.788 315.76 668.028 314.9C667.268 314.04 666.888 312.88 666.888 311.42C666.888 310.14 667.238 308.99 667.938 307.97C668.638 306.93 669.678 306.11 671.058 305.51C672.458 304.91 674.168 304.61 676.188 304.61C677.568 304.61 678.928 304.77 680.268 305.09C681.608 305.39 682.788 305.84 683.808 306.44L681.978 310.85C679.978 309.77 678.038 309.23 676.158 309.23C674.978 309.23 674.118 309.41 673.578 309.77C673.038 310.11 672.768 310.56 672.768 311.12C672.768 311.68 673.088 312.1 673.728 312.38C674.368 312.66 675.398 312.95 676.818 313.25C678.418 313.59 679.738 313.96 680.778 314.36C681.838 314.74 682.748 315.36 683.508 316.22C684.288 317.06 684.678 318.21 684.678 319.67C684.678 320.93 684.328 322.07 683.628 323.09C682.928 324.11 681.878 324.93 680.478 325.55C679.078 326.15 677.378 326.45 675.378 326.45ZM706.952 305.03V326.03H701.192V323.63C700.512 324.55 699.652 325.25 698.612 325.73C697.572 326.21 696.402 326.45 695.102 326.45C692.622 326.45 690.692 325.66 689.312 324.08C687.932 322.48 687.242 320.21 687.242 317.27V305.03H693.182V317.09C693.182 318.57 693.512 319.68 694.172 320.42C694.852 321.16 695.772 321.53 696.932 321.53C698.152 321.53 699.132 321.13 699.872 320.33C700.632 319.53 701.012 318.35 701.012 316.79V305.03H706.952ZM720.753 305.03C722.653 305.03 724.303 305.35 725.703 305.99C727.103 306.61 728.183 307.51 728.943 308.69C729.703 309.85 730.083 311.22 730.083 312.8C730.083 314.38 729.703 315.75 728.943 316.91C728.183 318.07 727.103 318.97 725.703 319.61C724.303 320.23 722.653 320.54 720.753 320.54H717.093V326.03H711.153V305.03H720.753ZM720.393 315.86C721.613 315.86 722.533 315.6 723.153 315.08C723.773 314.54 724.083 313.78 724.083 312.8C724.083 311.82 723.773 311.06 723.153 310.52C722.533 309.98 721.613 309.71 720.393 309.71H717.093V315.86H720.393ZM742.579 305.03C744.479 305.03 746.129 305.35 747.529 305.99C748.929 306.61 750.009 307.51 750.769 308.69C751.529 309.85 751.909 311.22 751.909 312.8C751.909 314.38 751.529 315.75 750.769 316.91C750.009 318.07 748.929 318.97 747.529 319.61C746.129 320.23 744.479 320.54 742.579 320.54H738.919V326.03H732.979V305.03H742.579ZM742.219 315.86C743.439 315.86 744.359 315.6 744.979 315.08C745.599 314.54 745.909 313.78 745.909 312.8C745.909 311.82 745.599 311.06 744.979 310.52C744.359 309.98 743.439 309.71 742.219 309.71H738.919V315.86H742.219ZM754.805 305.03H760.745V321.32H770.765V326.03H754.805V305.03ZM791.942 305.03V319.28C791.942 321.4 791.522 323.22 790.682 324.74C789.842 326.24 788.642 327.37 787.082 328.13C785.542 328.91 783.712 329.3 781.592 329.3C779.732 329.3 778.042 329.06 776.522 328.58C775.022 328.12 773.732 327.46 772.652 326.6L774.872 322.31C775.832 323.01 776.862 323.54 777.962 323.9C779.062 324.26 780.192 324.44 781.352 324.44C782.952 324.44 784.122 324.05 784.862 323.27C785.622 322.49 786.002 321.27 786.002 319.61V318.65C784.662 320.27 782.772 321.08 780.332 321.08C777.692 321.08 775.662 320.33 774.242 318.83C772.822 317.31 772.112 315.14 772.112 312.32V305.03H778.052V311.93C778.052 313.35 778.372 314.42 779.012 315.14C779.672 315.84 780.622 316.19 781.862 316.19C783.122 316.19 784.122 315.82 784.862 315.08C785.622 314.34 786.002 313.19 786.002 311.63V305.03H791.942Z" fill="white"/>
<path d="M1599.54 230.34C1597.78 229.36 1595.99 228.71 1594.17 228.39V244.734H1588.23V228.39C1586.37 228.71 1584.58 229.36 1582.86 230.34L1580.88 226.021C1582.34 225.142 1583.95 224.472 1585.71 224.012C1587.49 223.552 1589.32 223.322 1591.2 223.322C1593.08 223.322 1594.9 223.552 1596.66 224.012C1598.44 224.472 1600.06 225.142 1601.51 226.021L1599.54 230.34ZM1620.96 243.145C1619.88 243.764 1618.57 244.254 1617.03 244.614C1615.49 244.974 1613.89 245.154 1612.23 245.154C1609.99 245.154 1608.08 244.884 1606.5 244.344C1604.95 243.804 1603.77 243.055 1602.97 242.095C1602.19 241.135 1601.8 240.026 1601.8 238.766C1601.8 237.667 1602.1 236.697 1602.7 235.857C1603.3 235.018 1604.13 234.368 1605.19 233.908C1604.37 233.488 1603.74 232.909 1603.3 232.169C1602.88 231.409 1602.67 230.579 1602.67 229.68C1602.67 228.52 1603.03 227.461 1603.75 226.501C1604.49 225.541 1605.6 224.772 1607.1 224.192C1608.6 223.612 1610.45 223.322 1612.65 223.322C1614.03 223.322 1615.39 223.452 1616.73 223.712C1618.07 223.972 1619.25 224.322 1620.27 224.762L1618.65 229.2C1616.79 228.38 1614.87 227.97 1612.89 227.97C1611.47 227.97 1610.41 228.16 1609.71 228.54C1609.01 228.9 1608.66 229.41 1608.66 230.07C1608.66 231.269 1609.53 231.869 1611.27 231.869H1617.21V236.397H1610.88C1609.86 236.397 1609.09 236.567 1608.57 236.907C1608.05 237.227 1607.79 237.707 1607.79 238.346C1607.79 239.026 1608.17 239.556 1608.93 239.936C1609.69 240.316 1610.87 240.506 1612.47 240.506C1613.61 240.506 1614.78 240.356 1615.98 240.056C1617.2 239.736 1618.26 239.306 1619.16 238.766L1620.96 243.145ZM1632.36 223.322C1634.34 223.322 1636.08 223.722 1637.58 224.522C1639.1 225.301 1640.27 226.451 1641.09 227.97C1641.93 229.47 1642.35 231.279 1642.35 233.398V244.734H1636.41V240.086H1628.22V244.734H1622.38V233.398C1622.38 231.279 1622.79 229.47 1623.61 227.97C1624.45 226.451 1625.62 225.301 1627.11 224.522C1628.63 223.722 1630.38 223.322 1632.36 223.322ZM1636.41 235.498V232.889C1636.41 231.349 1636.04 230.19 1635.3 229.41C1634.56 228.63 1633.57 228.24 1632.33 228.24C1631.07 228.24 1630.07 228.63 1629.33 229.41C1628.59 230.19 1628.22 231.349 1628.22 232.889V235.498H1636.41ZM1670.93 223.322C1673.4 223.322 1675.33 224.062 1676.71 225.541C1678.11 227.001 1678.81 229.12 1678.81 231.899V244.734H1672.88V232.079C1672.88 230.819 1672.55 229.87 1671.89 229.23C1671.23 228.57 1670.35 228.24 1669.25 228.24C1668.07 228.24 1667.13 228.59 1666.43 229.29C1665.75 229.97 1665.41 230.999 1665.41 232.379V244.734H1659.47V232.079C1659.47 230.819 1659.16 229.87 1658.54 229.23C1657.94 228.57 1657.11 228.24 1656.05 228.24C1654.91 228.24 1654 228.59 1653.32 229.29C1652.64 229.97 1652.3 230.999 1652.3 232.379V244.734H1646.37V223.742H1652.12V226.081C1652.76 225.182 1653.58 224.502 1654.58 224.042C1655.6 223.562 1656.78 223.322 1658.12 223.322C1659.5 223.322 1660.7 223.572 1661.72 224.072C1662.76 224.572 1663.6 225.301 1664.24 226.261C1664.96 225.301 1665.9 224.572 1667.06 224.072C1668.22 223.572 1669.51 223.322 1670.93 223.322ZM1701.39 223.322C1703.37 223.322 1705.11 223.722 1706.61 224.522C1708.13 225.301 1709.3 226.451 1710.11 227.97C1710.95 229.47 1711.37 231.279 1711.37 233.398V244.734H1705.44V240.086H1697.25V244.734H1691.4V233.398C1691.4 231.279 1691.81 229.47 1692.63 227.97C1693.47 226.451 1694.64 225.301 1696.14 224.522C1697.66 223.722 1699.41 223.322 1701.39 223.322ZM1705.44 235.498V232.889C1705.44 231.349 1705.07 230.19 1704.33 229.41C1703.59 228.63 1702.6 228.24 1701.36 228.24C1700.1 228.24 1699.1 228.63 1698.36 229.41C1697.62 230.19 1697.25 231.349 1697.25 232.889V235.498H1705.44ZM1715.39 223.742H1721.33V240.026H1731.35V244.734H1715.39V223.742ZM1733.69 223.742H1739.63V240.026H1749.65V244.734H1733.69V223.742ZM1762.26 245.154C1760.04 245.154 1758.04 244.684 1756.26 243.744C1754.5 242.805 1753.12 241.505 1752.1 239.846C1751.1 238.186 1750.6 236.317 1750.6 234.238C1750.6 232.159 1751.1 230.29 1752.1 228.63C1753.12 226.971 1754.5 225.671 1756.26 224.732C1758.04 223.792 1760.04 223.322 1762.26 223.322C1764.48 223.322 1766.47 223.792 1768.23 224.732C1770.01 225.671 1771.4 226.971 1772.4 228.63C1773.42 230.29 1773.93 232.159 1773.93 234.238C1773.93 236.317 1773.42 238.186 1772.4 239.846C1771.4 241.505 1770.01 242.805 1768.23 243.744C1766.47 244.684 1764.48 245.154 1762.26 245.154ZM1762.26 240.236C1763.32 240.236 1764.28 239.986 1765.14 239.486C1766 238.986 1766.68 238.286 1767.18 237.387C1767.68 236.467 1767.93 235.418 1767.93 234.238C1767.93 233.058 1767.68 232.019 1767.18 231.119C1766.68 230.2 1766 229.49 1765.14 228.99C1764.28 228.49 1763.32 228.24 1762.26 228.24C1761.2 228.24 1760.24 228.49 1759.38 228.99C1758.52 229.49 1757.84 230.2 1757.34 231.119C1756.84 232.019 1756.59 233.058 1756.59 234.238C1756.59 235.418 1756.84 236.467 1757.34 237.387C1757.84 238.286 1758.52 238.986 1759.38 239.486C1760.24 239.986 1761.2 240.236 1762.26 240.236ZM1787.5 245.154C1785.3 245.154 1783.32 244.694 1781.57 243.774C1779.83 242.835 1778.46 241.535 1777.46 239.876C1776.46 238.216 1775.96 236.337 1775.96 234.238C1775.96 232.139 1776.46 230.26 1777.46 228.6C1778.46 226.941 1779.83 225.651 1781.57 224.732C1783.32 223.792 1785.3 223.322 1787.5 223.322C1789.42 223.322 1791.15 223.662 1792.69 224.342C1794.23 225.022 1795.51 226.001 1796.53 227.281L1792.75 230.699C1791.39 229.06 1789.74 228.24 1787.8 228.24C1786.66 228.24 1785.64 228.49 1784.74 228.99C1783.86 229.49 1783.17 230.2 1782.67 231.119C1782.19 232.019 1781.96 233.058 1781.96 234.238C1781.96 235.418 1782.19 236.467 1782.67 237.387C1783.17 238.286 1783.86 238.986 1784.74 239.486C1785.64 239.986 1786.66 240.236 1787.8 240.236C1789.74 240.236 1791.39 239.416 1792.75 237.777L1796.53 241.195C1795.51 242.475 1794.23 243.454 1792.69 244.134C1791.15 244.814 1789.42 245.154 1787.5 245.154ZM1808.98 223.322C1810.96 223.322 1812.7 223.722 1814.2 224.522C1815.72 225.301 1816.89 226.451 1817.71 227.97C1818.55 229.47 1818.97 231.279 1818.97 233.398V244.734H1813.03V240.086H1804.84V244.734H1799V233.398C1799 231.279 1799.41 229.47 1800.23 227.97C1801.07 226.451 1802.24 225.301 1803.73 224.522C1805.25 223.722 1807 223.322 1808.98 223.322ZM1813.03 235.498V232.889C1813.03 231.349 1812.66 230.19 1811.92 229.41C1811.18 228.63 1810.19 228.24 1808.95 228.24C1807.69 228.24 1806.69 228.63 1805.95 229.41C1805.21 230.19 1804.84 231.349 1804.84 232.889V235.498H1813.03ZM1838.83 230.34C1837.07 229.36 1835.28 228.71 1833.46 228.39V244.734H1827.52V228.39C1825.66 228.71 1823.87 229.36 1822.15 230.34L1820.17 226.021C1821.63 225.142 1823.24 224.472 1825 224.012C1826.78 223.552 1828.61 223.322 1830.49 223.322C1832.37 223.322 1834.19 223.552 1835.95 224.012C1837.73 224.472 1839.35 225.142 1840.81 226.021L1838.83 230.34ZM1850.86 228.33V240.146H1854.25V244.734H1841.5V240.146H1844.92V228.33H1841.5V223.742H1854.25V228.33H1850.86ZM1867.89 245.154C1865.68 245.154 1863.68 244.684 1861.9 243.744C1860.14 242.805 1858.75 241.505 1857.73 239.846C1856.73 238.186 1856.23 236.317 1856.23 234.238C1856.23 232.159 1856.73 230.29 1857.73 228.63C1858.75 226.971 1860.14 225.671 1861.9 224.732C1863.68 223.792 1865.68 223.322 1867.89 223.322C1870.11 223.322 1872.1 223.792 1873.86 224.732C1875.64 225.671 1877.03 226.971 1878.03 228.63C1879.05 230.29 1879.56 232.159 1879.56 234.238C1879.56 236.317 1879.05 238.186 1878.03 239.846C1877.03 241.505 1875.64 242.805 1873.86 243.744C1872.1 244.684 1870.11 245.154 1867.89 245.154ZM1867.89 240.236C1868.95 240.236 1869.91 239.986 1870.77 239.486C1871.63 238.986 1872.31 238.286 1872.81 237.387C1873.31 236.467 1873.56 235.418 1873.56 234.238C1873.56 233.058 1873.31 232.019 1872.81 231.119C1872.31 230.2 1871.63 229.49 1870.77 228.99C1869.91 228.49 1868.95 228.24 1867.89 228.24C1866.83 228.24 1865.87 228.49 1865.02 228.99C1864.16 229.49 1863.48 230.2 1862.98 231.119C1862.48 232.019 1862.23 233.058 1862.23 234.238C1862.23 235.418 1862.48 236.467 1862.98 237.387C1863.48 238.286 1864.16 238.986 1865.02 239.486C1865.87 239.986 1866.83 240.236 1867.89 240.236ZM1894.6 223.322C1897.1 223.322 1899.04 224.122 1900.42 225.721C1901.8 227.301 1902.49 229.56 1902.49 232.499V244.734H1896.55V232.679C1896.55 231.199 1896.21 230.09 1895.53 229.35C1894.87 228.61 1893.95 228.24 1892.75 228.24C1891.51 228.24 1890.51 228.64 1889.75 229.44C1888.99 230.22 1888.61 231.399 1888.61 232.978V244.734H1882.67V223.742H1888.43V226.141C1889.85 224.262 1891.91 223.322 1894.6 223.322Z" fill="white"/>
<path d="M1599.54 397.667C1600.74 398.087 1601.67 398.747 1602.35 399.647C1603.03 400.526 1603.37 401.596 1603.37 402.855C1603.37 404.695 1602.63 406.114 1601.15 407.114C1599.68 408.113 1597.54 408.613 1594.74 408.613H1583.4V387.621H1594.14C1596.82 387.621 1598.86 388.121 1600.26 389.121C1601.65 390.1 1602.35 391.43 1602.35 393.109C1602.35 394.109 1602.1 395.008 1601.6 395.808C1601.12 396.588 1600.44 397.208 1599.54 397.667ZM1589.28 391.91V395.958H1593.36C1595.36 395.958 1596.36 395.278 1596.36 393.919C1596.36 392.579 1595.36 391.91 1593.36 391.91H1589.28ZM1594.26 404.325C1596.34 404.325 1597.38 403.615 1597.38 402.196C1597.38 400.776 1596.34 400.066 1594.26 400.066H1589.28V404.325H1594.26ZM1625.97 387.621V408.613H1620.21V406.214C1619.53 407.134 1618.67 407.833 1617.64 408.313C1616.6 408.793 1615.43 409.033 1614.13 409.033C1611.65 409.033 1609.72 408.243 1608.34 406.664C1606.96 405.064 1606.27 402.795 1606.27 399.856V387.621H1612.21V399.677C1612.21 401.156 1612.54 402.266 1613.2 403.005C1613.88 403.745 1614.8 404.115 1615.96 404.115C1617.18 404.115 1618.15 403.715 1618.89 402.915C1619.65 402.116 1620.03 400.936 1620.03 399.377V387.621H1625.97ZM1639.35 403.035H1636.11V408.613H1630.17V387.621H1639.77C1641.67 387.621 1643.32 387.941 1644.72 388.581C1646.11 389.201 1647.19 390.1 1647.95 391.28C1648.71 392.439 1649.09 393.809 1649.09 395.388C1649.09 396.908 1648.73 398.237 1648.01 399.377C1647.31 400.496 1646.3 401.376 1644.98 402.016L1649.51 408.613H1643.16L1639.35 403.035ZM1643.1 395.388C1643.1 394.409 1642.79 393.649 1642.17 393.109C1641.55 392.569 1640.63 392.299 1639.41 392.299H1636.11V398.447H1639.41C1640.63 398.447 1641.55 398.187 1642.17 397.667C1642.79 397.128 1643.1 396.368 1643.1 395.388ZM1664.3 387.201C1666.8 387.201 1668.74 388.001 1670.12 389.6C1671.5 391.18 1672.19 393.439 1672.19 396.378V408.613H1666.25V396.558C1666.25 395.078 1665.91 393.969 1665.23 393.229C1664.57 392.489 1663.64 392.119 1662.45 392.119C1661.21 392.119 1660.21 392.519 1659.45 393.319C1658.69 394.099 1658.31 395.278 1658.31 396.858V408.613H1652.37V387.621H1658.13V390.02C1659.55 388.141 1661.61 387.201 1664.3 387.201ZM1684.57 392.209V404.025H1687.96V408.613H1675.22V404.025H1678.64V392.209H1675.22V387.621H1687.96V392.209H1684.57ZM1703.11 387.201C1705.61 387.201 1707.55 388.001 1708.93 389.6C1710.3 391.18 1710.99 393.439 1710.99 396.378V408.613H1705.06V396.558C1705.06 395.078 1704.72 393.969 1704.04 393.229C1703.38 392.489 1702.45 392.119 1701.25 392.119C1700.01 392.119 1699.01 392.519 1698.25 393.319C1697.49 394.099 1697.11 395.278 1697.11 396.858V408.613H1691.17V387.621H1696.93V390.02C1698.35 388.141 1700.41 387.201 1703.11 387.201ZM1729.08 397.667H1734.32V408.613H1730.21V407.324C1728.8 408.463 1726.92 409.033 1724.58 409.033C1722.62 409.033 1720.83 408.613 1719.21 407.773C1717.59 406.934 1716.3 405.714 1715.34 404.115C1714.4 402.495 1713.93 400.566 1713.93 398.327C1713.93 396.168 1714.43 394.249 1715.43 392.569C1716.43 390.87 1717.82 389.551 1719.6 388.611C1721.38 387.671 1723.39 387.201 1725.63 387.201C1727.59 387.201 1729.34 387.531 1730.9 388.191C1732.46 388.851 1733.76 389.8 1734.8 391.04L1731.02 394.459C1729.6 392.899 1727.91 392.119 1725.93 392.119C1724.11 392.119 1722.65 392.679 1721.55 393.799C1720.47 394.898 1719.93 396.398 1719.93 398.297C1719.93 400.216 1720.44 401.686 1721.46 402.705C1722.48 403.725 1723.77 404.235 1725.33 404.235C1726.83 404.235 1728.08 403.835 1729.08 403.035V397.667ZM1755.18 392.209V404.025H1758.57V408.613H1745.82V404.025H1749.24V392.209H1745.82V387.621H1758.57V392.209H1755.18ZM1773.71 387.201C1776.21 387.201 1778.15 388.001 1779.53 389.6C1780.91 391.18 1781.6 393.439 1781.6 396.378V408.613H1775.66V396.558C1775.66 395.078 1775.32 393.969 1774.64 393.229C1773.98 392.489 1773.05 392.119 1771.86 392.119C1770.62 392.119 1769.62 392.519 1768.86 393.319C1768.1 394.099 1767.72 395.278 1767.72 396.858V408.613H1761.78V387.621H1767.54V390.02C1768.96 388.141 1771.02 387.201 1773.71 387.201ZM1804.78 392.119C1803.26 392.119 1802.1 392.449 1801.3 393.109C1800.5 393.769 1800.1 394.768 1800.1 396.108V396.828H1808.17V401.416H1800.1V408.613H1794.16V396.198C1794.16 393.339 1795.05 391.13 1796.83 389.57C1798.61 387.991 1801.11 387.201 1804.33 387.201C1805.55 387.201 1806.69 387.321 1807.75 387.561C1808.83 387.801 1809.75 388.141 1810.51 388.581L1808.77 393.139C1807.61 392.459 1806.28 392.119 1804.78 392.119ZM1832.46 387.621V408.613H1826.71V406.214C1826.03 407.134 1825.17 407.833 1824.13 408.313C1823.09 408.793 1821.92 409.033 1820.62 409.033C1818.14 409.033 1816.21 408.243 1814.83 406.664C1813.45 405.064 1812.76 402.795 1812.76 399.856V387.621H1818.7V399.677C1818.7 401.156 1819.03 402.266 1819.69 403.005C1820.37 403.745 1821.29 404.115 1822.45 404.115C1823.67 404.115 1824.65 403.715 1825.39 402.915C1826.15 402.116 1826.53 400.936 1826.53 399.377V387.621H1832.46ZM1852.8 394.219C1851.04 393.239 1849.25 392.589 1847.43 392.269V408.613H1841.49V392.269C1839.63 392.589 1837.84 393.239 1836.12 394.219L1834.14 389.9C1835.6 389.021 1837.21 388.351 1838.97 387.891C1840.75 387.431 1842.58 387.201 1844.46 387.201C1846.34 387.201 1848.16 387.431 1849.92 387.891C1851.7 388.351 1853.32 389.021 1854.78 389.9L1852.8 394.219ZM1875.98 387.621V408.613H1870.22V406.214C1869.54 407.134 1868.68 407.833 1867.64 408.313C1866.61 408.793 1865.44 409.033 1864.14 409.033C1861.66 409.033 1859.73 408.243 1858.35 406.664C1856.97 405.064 1856.28 402.795 1856.28 399.856V387.621H1862.22V399.677C1862.22 401.156 1862.55 402.266 1863.21 403.005C1863.89 403.745 1864.81 404.115 1865.97 404.115C1867.18 404.115 1868.16 403.715 1868.9 402.915C1869.66 402.116 1870.04 400.936 1870.04 399.377V387.621H1875.98ZM1889.36 403.035H1886.12V408.613H1880.18V387.621H1889.78C1891.68 387.621 1893.33 387.941 1894.72 388.581C1896.12 389.201 1897.2 390.1 1897.96 391.28C1898.72 392.439 1899.1 393.809 1899.1 395.388C1899.1 396.908 1898.74 398.237 1898.02 399.377C1897.32 400.496 1896.31 401.376 1894.99 402.016L1899.52 408.613H1893.17L1889.36 403.035ZM1893.11 395.388C1893.11 394.409 1892.8 393.649 1892.18 393.109C1891.56 392.569 1890.64 392.299 1889.42 392.299H1886.12V398.447H1889.42C1890.64 398.447 1891.56 398.187 1892.18 397.667C1892.8 397.128 1893.11 396.368 1893.11 395.388ZM1920.43 407.024C1919.35 407.643 1918.04 408.133 1916.5 408.493C1914.96 408.853 1913.36 409.033 1911.7 409.033C1909.47 409.033 1907.56 408.763 1905.98 408.223C1904.42 407.683 1903.24 406.934 1902.44 405.974C1901.66 405.014 1901.27 403.905 1901.27 402.645C1901.27 401.546 1901.57 400.576 1902.17 399.737C1902.77 398.897 1903.6 398.247 1904.66 397.787C1903.84 397.367 1903.21 396.788 1902.77 396.048C1902.35 395.288 1902.14 394.459 1902.14 393.559C1902.14 392.399 1902.5 391.34 1903.22 390.38C1903.96 389.421 1905.08 388.651 1906.58 388.071C1908.08 387.491 1909.93 387.201 1912.12 387.201C1913.5 387.201 1914.86 387.331 1916.2 387.591C1917.54 387.851 1918.72 388.201 1919.74 388.641L1918.12 393.079C1916.26 392.259 1914.34 391.85 1912.36 391.85C1910.95 391.85 1909.89 392.04 1909.19 392.419C1908.49 392.779 1908.14 393.289 1908.14 393.949C1908.14 395.148 1909.01 395.748 1910.75 395.748H1916.68V400.276H1910.36C1909.34 400.276 1908.57 400.446 1908.05 400.786C1907.53 401.106 1907.27 401.586 1907.27 402.226C1907.27 402.905 1907.65 403.435 1908.41 403.815C1909.17 404.195 1910.35 404.385 1911.94 404.385C1913.08 404.385 1914.25 404.235 1915.45 403.935C1916.67 403.615 1917.73 403.185 1918.63 402.645L1920.43 407.024Z" fill="white"/>
<path d="M1593.87 580.912C1591.67 580.912 1589.69 580.452 1587.93 579.533C1586.19 578.593 1584.82 577.294 1583.82 575.634C1582.82 573.975 1582.32 572.096 1582.32 569.997C1582.32 567.897 1582.82 566.018 1583.82 564.359C1584.82 562.699 1586.19 561.41 1587.93 560.49C1589.69 559.551 1591.67 559.081 1593.87 559.081C1595.79 559.081 1597.52 559.421 1599.06 560.1C1600.6 560.78 1601.87 561.76 1602.89 563.039L1599.12 566.458C1597.76 564.819 1596.11 563.999 1594.17 563.999C1593.03 563.999 1592.01 564.249 1591.11 564.749C1590.23 565.248 1589.54 565.958 1589.04 566.878C1588.56 567.777 1588.32 568.817 1588.32 569.997C1588.32 571.176 1588.56 572.226 1589.04 573.145C1589.54 574.045 1590.23 574.745 1591.11 575.244C1592.01 575.744 1593.03 575.994 1594.17 575.994C1596.11 575.994 1597.76 575.175 1599.12 573.535L1602.89 576.954C1601.87 578.233 1600.6 579.213 1599.06 579.893C1597.52 580.572 1595.79 580.912 1593.87 580.912ZM1615.35 559.081C1617.33 559.081 1619.07 559.481 1620.57 560.28C1622.09 561.06 1623.25 562.21 1624.07 563.729C1624.91 565.228 1625.33 567.038 1625.33 569.157V580.492H1619.4V575.844H1611.21V580.492H1605.36V569.157C1605.36 567.038 1605.77 565.228 1606.59 563.729C1607.43 562.21 1608.6 561.06 1610.1 560.28C1611.62 559.481 1613.37 559.081 1615.35 559.081ZM1619.4 571.256V568.647C1619.4 567.108 1619.03 565.948 1618.29 565.168C1617.55 564.389 1616.56 563.999 1615.32 563.999C1614.06 563.999 1613.06 564.389 1612.32 565.168C1611.58 565.948 1611.21 567.108 1611.21 568.647V571.256H1619.4ZM1629.35 559.501H1635.29V575.784H1645.3V580.492H1629.35V559.501ZM1657.8 580.912C1655.6 580.912 1653.62 580.452 1651.86 579.533C1650.12 578.593 1648.75 577.294 1647.75 575.634C1646.75 573.975 1646.25 572.096 1646.25 569.997C1646.25 567.897 1646.75 566.018 1647.75 564.359C1648.75 562.699 1650.12 561.41 1651.86 560.49C1653.62 559.551 1655.6 559.081 1657.8 559.081C1659.72 559.081 1661.45 559.421 1662.99 560.1C1664.53 560.78 1665.8 561.76 1666.82 563.039L1663.05 566.458C1661.69 564.819 1660.04 563.999 1658.1 563.999C1656.96 563.999 1655.94 564.249 1655.04 564.749C1654.16 565.248 1653.47 565.958 1652.97 566.878C1652.49 567.777 1652.25 568.817 1652.25 569.997C1652.25 571.176 1652.49 572.226 1652.97 573.145C1653.47 574.045 1654.16 574.745 1655.04 575.244C1655.94 575.744 1656.96 575.994 1658.1 575.994C1660.04 575.994 1661.69 575.175 1663.05 573.535L1666.82 576.954C1665.8 578.233 1664.53 579.213 1662.99 579.893C1661.45 580.572 1659.72 580.912 1657.8 580.912ZM1688.76 559.501V580.492H1683V578.093C1682.32 579.013 1681.46 579.713 1680.42 580.193C1679.38 580.672 1678.21 580.912 1676.91 580.912C1674.44 580.912 1672.51 580.123 1671.13 578.543C1669.75 576.944 1669.06 574.675 1669.06 571.736V559.501H1675V571.556C1675 573.035 1675.33 574.145 1675.98 574.885C1676.66 575.624 1677.58 575.994 1678.74 575.994C1679.96 575.994 1680.94 575.594 1681.68 574.795C1682.44 573.995 1682.82 572.815 1682.82 571.256V559.501H1688.76ZM1692.96 559.501H1698.9V575.784H1708.91V580.492H1692.96V559.501ZM1721.07 559.081C1723.05 559.081 1724.79 559.481 1726.29 560.28C1727.81 561.06 1728.98 562.21 1729.79 563.729C1730.63 565.228 1731.05 567.038 1731.05 569.157V580.492H1725.12V575.844H1716.93V580.492H1711.08V569.157C1711.08 567.038 1711.49 565.228 1712.31 563.729C1713.15 562.21 1714.32 561.06 1715.82 560.28C1717.34 559.481 1719.09 559.081 1721.07 559.081ZM1725.12 571.256V568.647C1725.12 567.108 1724.75 565.948 1724.01 565.168C1723.27 564.389 1722.28 563.999 1721.04 563.999C1719.78 563.999 1718.78 564.389 1718.04 565.168C1717.3 565.948 1716.93 567.108 1716.93 568.647V571.256H1725.12ZM1750.91 566.098C1749.15 565.118 1747.36 564.469 1745.54 564.149V580.492H1739.61V564.149C1737.75 564.469 1735.96 565.118 1734.24 566.098L1732.26 561.78C1733.72 560.9 1735.33 560.23 1737.09 559.771C1738.87 559.311 1740.7 559.081 1742.58 559.081C1744.45 559.081 1746.27 559.311 1748.03 559.771C1749.81 560.23 1751.43 560.9 1752.89 561.78L1750.91 566.098ZM1762.94 564.089V575.904H1766.33V580.492H1753.59V575.904H1757V564.089H1753.59V559.501H1766.33V564.089H1762.94ZM1781.48 559.081C1783.97 559.081 1785.91 559.881 1787.29 561.48C1788.67 563.059 1789.36 565.318 1789.36 568.257V580.492H1783.42V568.437C1783.42 566.958 1783.08 565.848 1782.4 565.108C1781.75 564.369 1780.82 563.999 1779.62 563.999C1778.38 563.999 1777.38 564.399 1776.62 565.198C1775.86 565.978 1775.48 567.158 1775.48 568.737V580.492H1769.54V559.501H1775.3V561.9C1776.72 560.02 1778.78 559.081 1781.48 559.081ZM1807.44 569.547H1812.69V580.492H1808.58V579.203C1807.16 580.342 1805.28 580.912 1802.94 580.912C1800.99 580.912 1799.2 580.492 1797.58 579.653C1795.96 578.813 1794.67 577.594 1793.71 575.994C1792.77 574.375 1792.3 572.446 1792.3 570.206C1792.3 568.047 1792.8 566.128 1793.8 564.449C1794.8 562.749 1796.19 561.43 1797.97 560.49C1799.75 559.551 1801.75 559.081 1803.99 559.081C1805.95 559.081 1807.71 559.411 1809.27 560.07C1810.83 560.73 1812.13 561.68 1813.17 562.919L1809.39 566.338C1807.97 564.779 1806.27 563.999 1804.29 563.999C1802.47 563.999 1801.02 564.559 1799.92 565.678C1798.84 566.778 1798.3 568.277 1798.3 570.176C1798.3 572.096 1798.81 573.565 1799.83 574.585C1800.85 575.604 1802.13 576.114 1803.69 576.114C1805.19 576.114 1806.44 575.714 1807.44 574.915V569.547ZM1832.56 580.912C1830.86 580.912 1829.21 580.702 1827.61 580.283C1826.01 579.863 1824.71 579.303 1823.71 578.603L1825.66 574.225C1826.6 574.845 1827.69 575.344 1828.93 575.724C1830.17 576.104 1831.39 576.294 1832.59 576.294C1834.87 576.294 1836.01 575.724 1836.01 574.585C1836.01 573.985 1835.68 573.545 1835.02 573.265C1834.38 572.965 1833.34 572.656 1831.9 572.336C1830.32 571.996 1829 571.636 1827.94 571.256C1826.88 570.856 1825.97 570.226 1825.21 569.367C1824.45 568.507 1824.07 567.348 1824.07 565.888C1824.07 564.609 1824.42 563.459 1825.12 562.439C1825.82 561.4 1826.86 560.58 1828.24 559.98C1829.64 559.381 1831.35 559.081 1833.37 559.081C1834.75 559.081 1836.11 559.241 1837.45 559.561C1838.79 559.861 1839.97 560.31 1840.99 560.91L1839.16 565.318C1837.16 564.239 1835.22 563.699 1833.34 563.699C1832.16 563.699 1831.3 563.879 1830.76 564.239C1830.22 564.579 1829.95 565.028 1829.95 565.588C1829.95 566.148 1830.27 566.568 1830.91 566.848C1831.55 567.128 1832.58 567.418 1834 567.717C1835.6 568.057 1836.92 568.427 1837.96 568.827C1839.02 569.207 1839.93 569.827 1840.69 570.686C1841.47 571.526 1841.86 572.675 1841.86 574.135C1841.86 575.394 1841.51 576.534 1840.81 577.554C1840.11 578.573 1839.06 579.393 1837.66 580.013C1836.26 580.612 1834.56 580.912 1832.56 580.912ZM1864.12 559.501V580.492H1858.36V578.093C1857.68 579.013 1856.82 579.713 1855.78 580.193C1854.74 580.672 1853.57 580.912 1852.28 580.912C1849.8 580.912 1847.87 580.123 1846.49 578.543C1845.11 576.944 1844.42 574.675 1844.42 571.736V559.501H1850.36V571.556C1850.36 573.035 1850.69 574.145 1851.35 574.885C1852.03 575.624 1852.95 575.994 1854.1 575.994C1855.32 575.994 1856.3 575.594 1857.04 574.795C1857.8 573.995 1858.18 572.815 1858.18 571.256V559.501H1864.12ZM1877.92 559.501C1879.82 559.501 1881.46 559.821 1882.86 560.46C1884.26 561.08 1885.34 561.98 1886.1 563.159C1886.86 564.319 1887.24 565.688 1887.24 567.268C1887.24 568.847 1886.86 570.216 1886.1 571.376C1885.34 572.536 1884.26 573.435 1882.86 574.075C1881.46 574.695 1879.82 575.005 1877.92 575.005H1874.26V580.492H1868.32V559.501H1877.92ZM1877.56 570.326C1878.78 570.326 1879.7 570.067 1880.31 569.547C1880.93 569.007 1881.24 568.247 1881.24 567.268C1881.24 566.288 1880.93 565.528 1880.31 564.989C1879.7 564.449 1878.78 564.179 1877.56 564.179H1874.26V570.326H1877.56ZM1899.73 559.501C1901.63 559.501 1903.28 559.821 1904.68 560.46C1906.08 561.08 1907.16 561.98 1907.92 563.159C1908.68 564.319 1909.06 565.688 1909.06 567.268C1909.06 568.847 1908.68 570.216 1907.92 571.376C1907.16 572.536 1906.08 573.435 1904.68 574.075C1903.28 574.695 1901.63 575.005 1899.73 575.005H1896.07V580.492H1890.14V559.501H1899.73ZM1899.37 570.326C1900.59 570.326 1901.51 570.067 1902.13 569.547C1902.75 569.007 1903.06 568.247 1903.06 567.268C1903.06 566.288 1902.75 565.528 1902.13 564.989C1901.51 564.449 1900.59 564.179 1899.37 564.179H1896.07V570.326H1899.37ZM1911.95 559.501H1917.89V575.784H1927.91V580.492H1911.95V559.501ZM1949.08 559.501V573.745C1949.08 575.864 1948.66 577.684 1947.82 579.203C1946.98 580.702 1945.78 581.832 1944.22 582.592C1942.68 583.371 1940.85 583.761 1938.73 583.761C1936.87 583.761 1935.18 583.521 1933.66 583.041C1932.16 582.582 1930.87 581.922 1929.79 581.062L1932.01 576.774C1932.97 577.474 1934 578.003 1935.1 578.363C1936.2 578.723 1937.33 578.903 1938.49 578.903C1940.09 578.903 1941.26 578.513 1942 577.734C1942.76 576.954 1943.14 575.734 1943.14 574.075V573.115C1941.8 574.735 1939.91 575.544 1937.47 575.544C1934.83 575.544 1932.8 574.795 1931.38 573.295C1929.96 571.776 1929.25 569.607 1929.25 566.788V559.501H1935.19V566.398C1935.19 567.817 1935.51 568.887 1936.15 569.607C1936.81 570.306 1937.76 570.656 1939 570.656C1940.26 570.656 1941.26 570.286 1942 569.547C1942.76 568.807 1943.14 567.657 1943.14 566.098V559.501H1949.08Z" fill="white"/>
<path d="M1602.01 263.479V306.874H1589.73V272.964H1581.67V263.479H1602.01ZM1643.81 263.479V271.166L1628.5 306.874H1615.11L1629.74 273.212H1618.33V279.907H1607.85V263.479H1643.81ZM1701.33 284.246C1703.81 285.114 1705.75 286.478 1707.16 288.338C1708.56 290.156 1709.27 292.368 1709.27 294.971C1709.27 298.774 1707.74 301.708 1704.68 303.774C1701.62 305.841 1697.2 306.874 1691.41 306.874H1667.98V263.479H1690.17C1695.71 263.479 1699.92 264.512 1702.82 266.578C1705.71 268.603 1707.16 271.352 1707.16 274.823C1707.16 276.89 1706.64 278.75 1705.61 280.403C1704.62 282.015 1703.19 283.296 1701.33 284.246ZM1680.13 272.344V280.713H1688.56C1692.69 280.713 1694.76 279.308 1694.76 276.497C1694.76 273.728 1692.69 272.344 1688.56 272.344H1680.13ZM1690.42 298.009C1694.72 298.009 1696.87 296.542 1696.87 293.607C1696.87 290.673 1694.72 289.206 1690.42 289.206H1680.13V298.009H1690.42ZM1732.92 272.964V297.389H1739.92V306.874H1713.58V297.389H1720.64V272.964H1713.58V263.479H1739.92V272.964H1732.92ZM1746.56 263.479H1758.83V297.141H1779.54V306.874H1746.56V263.479ZM1784.4 263.479H1796.67V297.141H1817.38V306.874H1784.4V263.479ZM1839.53 272.964V297.389H1846.54V306.874H1820.19V297.389H1827.26V272.964H1820.19V263.479H1846.54V272.964H1839.53ZM1874.75 307.742C1870.16 307.742 1866.03 306.771 1862.35 304.828C1858.72 302.886 1855.84 300.199 1853.74 296.769C1851.67 293.339 1850.64 289.474 1850.64 285.176C1850.64 280.878 1851.67 277.014 1853.74 273.583C1855.84 270.153 1858.72 267.467 1862.35 265.524C1866.03 263.582 1870.16 262.611 1874.75 262.611C1879.34 262.611 1883.45 263.582 1887.09 265.524C1890.77 267.467 1893.64 270.153 1895.71 273.583C1897.81 277.014 1898.87 280.878 1898.87 285.176C1898.87 289.474 1897.81 293.339 1895.71 296.769C1893.64 300.199 1890.77 302.886 1887.09 304.828C1883.45 306.771 1879.34 307.742 1874.75 307.742ZM1874.75 297.575C1876.94 297.575 1878.93 297.058 1880.7 296.025C1882.48 294.992 1883.89 293.545 1884.92 291.686C1885.95 289.784 1886.47 287.615 1886.47 285.176C1886.47 282.738 1885.95 280.589 1884.92 278.729C1883.89 276.828 1882.48 275.361 1880.7 274.327C1878.93 273.294 1876.94 272.778 1874.75 272.778C1872.56 272.778 1870.58 273.294 1868.8 274.327C1867.02 275.361 1865.62 276.828 1864.59 278.729C1863.55 280.589 1863.04 282.738 1863.04 285.176C1863.04 287.615 1863.55 289.784 1864.59 291.686C1865.62 293.545 1867.02 294.992 1868.8 296.025C1870.58 297.058 1872.56 297.575 1874.75 297.575ZM1929.97 262.611C1935.14 262.611 1939.15 264.264 1942 267.57C1944.85 270.835 1946.27 275.505 1946.27 281.581V306.874H1934V281.953C1934 278.894 1933.3 276.6 1931.89 275.071C1930.53 273.542 1928.61 272.778 1926.13 272.778C1923.56 272.778 1921.5 273.604 1919.93 275.257C1918.36 276.869 1917.57 279.308 1917.57 282.573V306.874H1905.3V263.479H1917.2V268.438C1920.13 264.553 1924.39 262.611 1929.97 262.611Z" fill="url(#paint5_linear_4400_117)"/>
<path d="M1602.01 427.358V470.753H1589.73V436.843H1581.67V427.358H1602.01ZM1627.69 471.621C1623.97 471.621 1620.66 470.733 1617.77 468.956C1614.88 467.178 1612.61 464.595 1610.95 461.206C1609.34 457.776 1608.53 453.726 1608.53 449.056C1608.53 444.385 1609.34 440.356 1610.95 436.967C1612.61 433.537 1614.88 430.933 1617.77 429.156C1620.66 427.379 1623.97 426.49 1627.69 426.49C1631.37 426.49 1634.65 427.379 1637.55 429.156C1640.44 430.933 1642.69 433.537 1644.31 436.967C1645.96 440.356 1646.78 444.385 1646.78 449.056C1646.78 453.726 1645.96 457.776 1644.31 461.206C1642.69 464.595 1640.44 467.178 1637.55 468.956C1634.65 470.733 1631.37 471.621 1627.69 471.621ZM1627.69 461.578C1629.76 461.578 1631.39 460.586 1632.59 458.603C1633.83 456.578 1634.45 453.395 1634.45 449.056C1634.45 444.716 1633.83 441.554 1632.59 439.571C1631.39 437.546 1629.76 436.533 1627.69 436.533C1625.58 436.533 1623.91 437.546 1622.67 439.571C1621.47 441.554 1620.87 444.716 1620.87 449.056C1620.87 453.395 1621.47 456.578 1622.67 458.603C1623.91 460.586 1625.58 461.578 1627.69 461.578ZM1682.22 447.878C1684.2 449.035 1685.73 450.461 1686.81 452.155C1687.88 453.85 1688.42 455.792 1688.42 457.983C1688.42 460.71 1687.63 463.108 1686.06 465.174C1684.49 467.24 1682.28 468.832 1679.43 469.948C1676.58 471.063 1673.29 471.621 1669.57 471.621C1665.85 471.621 1662.57 471.063 1659.71 469.948C1656.86 468.832 1654.65 467.24 1653.08 465.174C1651.51 463.108 1650.73 460.71 1650.73 457.983C1650.73 455.792 1651.26 453.85 1652.34 452.155C1653.41 450.461 1654.94 449.035 1656.93 447.878C1655.44 446.845 1654.28 445.584 1653.45 444.096C1652.67 442.608 1652.28 440.955 1652.28 439.137C1652.28 436.616 1653 434.405 1654.45 432.503C1655.89 430.561 1657.92 429.073 1660.52 428.04C1663.17 427.007 1666.18 426.49 1669.57 426.49C1672.96 426.49 1675.96 427.007 1678.56 428.04C1681.21 429.073 1683.25 430.561 1684.7 432.503C1686.14 434.405 1686.87 436.616 1686.87 439.137C1686.87 440.955 1686.45 442.608 1685.63 444.096C1684.84 445.584 1683.71 446.845 1682.22 447.878ZM1669.57 435.107C1668.04 435.107 1666.8 435.52 1665.85 436.347C1664.9 437.132 1664.43 438.248 1664.43 439.695C1664.43 441.1 1664.88 442.216 1665.79 443.042C1666.74 443.828 1668 444.22 1669.57 444.22C1671.14 444.22 1672.4 443.828 1673.35 443.042C1674.3 442.216 1674.78 441.1 1674.78 439.695C1674.78 438.248 1674.3 437.132 1673.35 436.347C1672.4 435.52 1671.14 435.107 1669.57 435.107ZM1669.57 463.004C1671.56 463.004 1673.13 462.529 1674.28 461.578C1675.48 460.586 1676.08 459.264 1676.08 457.611C1676.08 455.958 1675.48 454.656 1674.28 453.705C1673.13 452.713 1671.56 452.217 1669.57 452.217C1667.59 452.217 1666 452.713 1664.8 453.705C1663.64 454.656 1663.06 455.958 1663.06 457.611C1663.06 459.264 1663.64 460.586 1664.8 461.578C1666 462.529 1667.59 463.004 1669.57 463.004ZM1746.07 448.126C1748.55 448.994 1750.49 450.358 1751.9 452.217C1753.3 454.036 1754 456.247 1754 458.851C1754 462.653 1752.48 465.587 1749.42 467.654C1746.36 469.72 1741.94 470.753 1736.15 470.753H1712.72V427.358H1734.91C1740.45 427.358 1744.66 428.391 1747.56 430.458C1750.45 432.483 1751.9 435.231 1751.9 438.703C1751.9 440.769 1751.38 442.629 1750.35 444.282C1749.36 445.894 1747.93 447.175 1746.07 448.126ZM1724.87 436.223V444.592H1733.3C1737.43 444.592 1739.5 443.187 1739.5 440.377C1739.5 437.608 1737.43 436.223 1733.3 436.223H1724.87ZM1735.16 461.888C1739.46 461.888 1741.61 460.421 1741.61 457.487C1741.61 454.552 1739.46 453.085 1735.16 453.085H1724.87V461.888H1735.16ZM1777.66 436.843V461.268H1784.66V470.753H1758.32V461.268H1765.38V436.843H1758.32V427.358H1784.66V436.843H1777.66ZM1791.3 427.358H1803.57V461.02H1824.28V470.753H1791.3V427.358ZM1829.14 427.358H1841.41V461.02H1862.12V470.753H1829.14V427.358ZM1884.27 436.843V461.268H1891.28V470.753H1864.93V461.268H1872V436.843H1864.93V427.358H1891.28V436.843H1884.27ZM1919.49 471.621C1914.9 471.621 1910.77 470.65 1907.09 468.708C1903.46 466.765 1900.58 464.079 1898.48 460.648C1896.41 457.218 1895.38 453.354 1895.38 449.056C1895.38 444.757 1896.41 440.893 1898.48 437.463C1900.58 434.033 1903.46 431.346 1907.09 429.404C1910.77 427.461 1914.9 426.49 1919.49 426.49C1924.08 426.49 1928.19 427.461 1931.83 429.404C1935.51 431.346 1938.38 434.033 1940.45 437.463C1942.55 440.893 1943.61 444.757 1943.61 449.056C1943.61 453.354 1942.55 457.218 1940.45 460.648C1938.38 464.079 1935.51 466.765 1931.83 468.708C1928.19 470.65 1924.08 471.621 1919.49 471.621ZM1919.49 461.454C1921.68 461.454 1923.67 460.938 1925.44 459.905C1927.22 458.871 1928.63 457.425 1929.66 455.565C1930.69 453.664 1931.21 451.494 1931.21 449.056C1931.21 446.617 1930.69 444.468 1929.66 442.608C1928.63 440.707 1927.22 439.24 1925.44 438.207C1923.67 437.174 1921.68 436.657 1919.49 436.657C1917.3 436.657 1915.32 437.174 1913.54 438.207C1911.76 439.24 1910.36 440.707 1909.32 442.608C1908.29 444.468 1907.77 446.617 1907.77 449.056C1907.77 451.494 1908.29 453.664 1909.32 455.565C1910.36 457.425 1911.76 458.871 1913.54 459.905C1915.32 460.938 1917.3 461.454 1919.49 461.454ZM1974.71 426.49C1979.88 426.49 1983.88 428.143 1986.74 431.449C1989.59 434.714 1991.01 439.385 1991.01 445.46V470.753H1978.74V445.832C1978.74 442.774 1978.04 440.48 1976.63 438.951C1975.27 437.422 1973.35 436.657 1970.87 436.657C1968.3 436.657 1966.24 437.484 1964.67 439.137C1963.1 440.749 1962.31 443.187 1962.31 446.452V470.753H1950.04V427.358H1961.94V432.317C1964.87 428.432 1969.13 426.49 1974.71 426.49Z" fill="url(#paint6_linear_4400_117)"/>
<path d="M1602.01 599.237V642.633H1589.73V608.722H1581.67V599.237H1602.01ZM1627.69 643.5C1623.97 643.5 1620.66 642.612 1617.77 640.835C1614.88 639.058 1612.61 636.475 1610.95 633.086C1609.34 629.655 1608.53 625.605 1608.53 620.935C1608.53 616.265 1609.34 612.235 1610.95 608.846C1612.61 605.416 1614.88 602.812 1617.77 601.035C1620.66 599.258 1623.97 598.369 1627.69 598.369C1631.37 598.369 1634.65 599.258 1637.55 601.035C1640.44 602.812 1642.69 605.416 1644.31 608.846C1645.96 612.235 1646.78 616.265 1646.78 620.935C1646.78 625.605 1645.96 629.655 1644.31 633.086C1642.69 636.475 1640.44 639.058 1637.55 640.835C1634.65 642.612 1631.37 643.5 1627.69 643.5ZM1627.69 633.458C1629.76 633.458 1631.39 632.466 1632.59 630.482C1633.83 628.457 1634.45 625.274 1634.45 620.935C1634.45 616.595 1633.83 613.434 1632.59 611.45C1631.39 609.425 1629.76 608.412 1627.69 608.412C1625.58 608.412 1623.91 609.425 1622.67 611.45C1621.47 613.434 1620.87 616.595 1620.87 620.935C1620.87 625.274 1621.47 628.457 1622.67 630.482C1623.91 632.466 1625.58 633.458 1627.69 633.458ZM1704.6 620.005C1707.08 620.873 1709.02 622.237 1710.43 624.096C1711.83 625.915 1712.53 628.126 1712.53 630.73C1712.53 634.532 1711.01 637.466 1707.95 639.533C1704.89 641.599 1700.47 642.633 1694.68 642.633H1671.25V599.237H1693.44C1698.98 599.237 1703.19 600.27 1706.09 602.337C1708.98 604.362 1710.43 607.11 1710.43 610.582C1710.43 612.648 1709.91 614.508 1708.88 616.161C1707.88 617.773 1706.46 619.054 1704.6 620.005ZM1683.4 608.102V616.471H1691.83C1695.96 616.471 1698.03 615.066 1698.03 612.256C1698.03 609.487 1695.96 608.102 1691.83 608.102H1683.4ZM1693.69 633.767C1697.99 633.767 1700.14 632.3 1700.14 629.366C1700.14 626.432 1697.99 624.964 1693.69 624.964H1683.4V633.767H1693.69ZM1736.19 608.722V633.148H1743.19V642.633H1716.85V633.148H1723.91V608.722H1716.85V599.237H1743.19V608.722H1736.19ZM1749.83 599.237H1762.1V632.9H1782.81V642.633H1749.83V599.237ZM1787.67 599.237H1799.94V632.9H1820.65V642.633H1787.67V599.237ZM1842.8 608.722V633.148H1849.81V642.633H1823.46V633.148H1830.53V608.722H1823.46V599.237H1849.81V608.722H1842.8ZM1878.02 643.5C1873.43 643.5 1869.3 642.529 1865.62 640.587C1861.99 638.644 1859.11 635.958 1857.01 632.528C1854.94 629.097 1853.91 625.233 1853.91 620.935C1853.91 616.637 1854.94 612.772 1857.01 609.342C1859.11 605.912 1861.99 603.225 1865.62 601.283C1869.3 599.34 1873.43 598.369 1878.02 598.369C1882.61 598.369 1886.72 599.34 1890.36 601.283C1894.04 603.225 1896.91 605.912 1898.98 609.342C1901.08 612.772 1902.14 616.637 1902.14 620.935C1902.14 625.233 1901.08 629.097 1898.98 632.528C1896.91 635.958 1894.04 638.644 1890.36 640.587C1886.72 642.529 1882.61 643.5 1878.02 643.5ZM1878.02 633.334C1880.21 633.334 1882.2 632.817 1883.97 631.784C1885.75 630.75 1887.16 629.304 1888.19 627.444C1889.22 625.543 1889.74 623.373 1889.74 620.935C1889.74 618.496 1889.22 616.347 1888.19 614.487C1887.16 612.586 1885.75 611.119 1883.97 610.086C1882.2 609.053 1880.21 608.536 1878.02 608.536C1875.83 608.536 1873.85 609.053 1872.07 610.086C1870.29 611.119 1868.89 612.586 1867.85 614.487C1866.82 616.347 1866.3 618.496 1866.3 620.935C1866.3 623.373 1866.82 625.543 1867.85 627.444C1868.89 629.304 1870.29 630.75 1872.07 631.784C1873.85 632.817 1875.83 633.334 1878.02 633.334ZM1933.24 598.369C1938.41 598.369 1942.41 600.022 1945.27 603.329C1948.12 606.594 1949.54 611.264 1949.54 617.339V642.633H1937.27V617.711C1937.27 614.653 1936.57 612.359 1935.16 610.83C1933.8 609.301 1931.88 608.536 1929.4 608.536C1926.83 608.536 1924.77 609.363 1923.2 611.016C1921.63 612.628 1920.84 615.066 1920.84 618.331V642.633H1908.57V599.237H1920.47V604.197C1923.4 600.312 1927.66 598.369 1933.24 598.369Z" fill="url(#paint7_linear_4400_117)"/>
<defs>
<linearGradient id="paint0_linear_4400_117" x1="764.147" y1="206.74" x2="797.427" y2="56.9796" gradientUnits="userSpaceOnUse">
<stop stop-color="#6652FF"/>
<stop offset="1" stop-color="#3B2BB7"/>
</linearGradient>
<linearGradient id="paint1_linear_4400_117" x1="996.618" y1="290.089" x2="1212.97" y2="174.502" gradientUnits="userSpaceOnUse">
<stop stop-color="#FF6654"/>
<stop offset="1" stop-color="#DC2F1B"/>
</linearGradient>
<linearGradient id="paint2_linear_4400_117" x1="1026.87" y1="648.09" x2="767.372" y2="383.754" gradientUnits="userSpaceOnUse">
<stop stop-color="#20934A"/>
<stop offset="1" stop-color="#90C626"/>
</linearGradient>
<linearGradient id="paint3_linear_4400_117" x1="374.293" y1="373.141" x2="15.3425" y2="415.93" gradientUnits="userSpaceOnUse">
<stop stop-color="#FF5CF4"/>
<stop offset="1" stop-color="#F10DA5"/>
</linearGradient>
<linearGradient id="paint4_linear_4400_117" x1="557.334" y1="206.74" x2="412.328" y2="87.8826" gradientUnits="userSpaceOnUse">
<stop stop-color="#14D6E1"/>
<stop offset="1" stop-color="#36AFB6"/>
</linearGradient>
<linearGradient id="paint5_linear_4400_117" x1="1586.36" y1="304.332" x2="1916.09" y2="309.974" gradientUnits="userSpaceOnUse">
<stop stop-color="#C5D82E"/>
<stop offset="1" stop-color="#20934A"/>
</linearGradient>
<linearGradient id="paint6_linear_4400_117" x1="1586.97" y1="468.212" x2="1956.89" y2="475.313" gradientUnits="userSpaceOnUse">
<stop stop-color="#C5D82E"/>
<stop offset="1" stop-color="#20934A"/>
</linearGradient>
<linearGradient id="paint7_linear_4400_117" x1="1586.41" y1="640.091" x2="1919.71" y2="645.856" gradientUnits="userSpaceOnUse">
<stop stop-color="#C5D82E"/>
<stop offset="1" stop-color="#20934A"/>
</linearGradient>
</defs>
</svg>
