<svg width="91" height="90" viewBox="0 0 91 90" fill="none" xmlns="http://www.w3.org/2000/svg">
<path opacity="0.6" fill-rule="evenodd" clip-rule="evenodd" d="M45.3574 89.9518C70.1969 89.9518 90.3333 69.8154 90.3333 44.9759C90.3333 20.1364 70.1969 0 45.3574 0C28.6602 0 14.0881 9.09883 6.32885 22.6087L4.34061 26.4975C3.62306 28.0878 2.99527 29.7273 2.46371 31.4095C2.23087 32.1552 1.70321 33.9497 1.45524 35.1626C0.752272 38.3214 0.3815 41.6054 0.3815 44.9759C0.3815 49.3883 1.01691 53.6524 2.20122 57.6815C2.49563 58.7434 3.18191 60.6261 3.48826 61.4346C4.17854 63.1893 4.97594 64.89 5.87239 66.5288L8.10767 70.1888C16.1959 82.1152 29.8615 89.9518 45.3574 89.9518ZM45.3573 87.0521C68.5633 87.0521 87.3754 68.2399 87.3754 45.0339C87.3754 21.828 68.5633 3.0158 45.3573 3.0158C22.1513 3.0158 3.33917 21.828 3.33917 45.0339C3.33917 68.2399 22.1513 87.0521 45.3573 87.0521Z" fill="#C5D82E"/>
<circle cx="45.9807" cy="44.9808" r="35.9807" fill="#022426"/>
<g clip-path="url(#clip0_1061_1726)">
<path d="M59.6866 45.3859H56.7323C57.0334 46.2103 57.198 47.1001 57.198 48.0274V61.1031C57.198 61.4898 57.1307 61.8609 57.0082 62.206H61.8924C63.7169 62.206 65.2011 60.7217 65.2011 58.8973V50.9004C65.2012 47.8597 62.7274 45.3859 59.6866 45.3859ZM35.0032 48.0275C35.0032 47.1001 35.1677 46.2104 35.4689 45.386H32.5145C29.4738 45.386 27 47.8598 27 50.9005V58.8975C27 60.7219 28.4843 62.2062 30.3087 62.2062H35.193C35.0673 61.852 35.0031 61.479 35.0032 61.1032V48.0275ZM49.4776 42.513H42.7236C39.6829 42.513 37.209 44.9868 37.209 48.0275V61.1032C37.209 61.7123 37.7028 62.2061 38.3119 62.2061H53.8892C54.4984 62.2061 54.9921 61.7123 54.9921 61.1032V48.0275C54.9921 44.9868 52.5183 42.513 49.4776 42.513ZM46.1006 27.8909C42.4437 27.8909 39.4687 30.866 39.4687 34.5229C39.4687 37.0034 40.8377 39.1698 42.8595 40.3071C43.8185 40.8466 44.9241 41.1549 46.1006 41.1549C47.2771 41.1549 48.3827 40.8466 49.3416 40.3071C51.3635 39.1698 52.7325 37.0033 52.7325 34.5229C52.7325 30.8661 49.7575 27.8909 46.1006 27.8909ZM34.455 34.0724C31.7202 34.0724 29.4952 36.2974 29.4952 39.0322C29.4952 41.7671 31.7202 43.9921 34.455 43.9921C35.1271 43.9926 35.7922 43.8558 36.4095 43.59C37.4471 43.1433 38.3025 42.3526 38.8319 41.3621C39.2154 40.6455 39.4157 39.8451 39.4149 39.0322C39.4149 36.2974 37.1899 34.0724 34.455 34.0724ZM57.7461 34.0724C55.0112 34.0724 52.7863 36.2974 52.7863 39.0322C52.7855 39.8451 52.9858 40.6455 53.3693 41.3621C53.8986 42.3527 54.7541 43.1434 55.7917 43.59C56.409 43.8558 57.0741 43.9926 57.7461 43.9921C60.481 43.9921 62.7059 41.7671 62.7059 39.0322C62.7059 36.2974 60.481 34.0724 57.7461 34.0724Z" fill="url(#paint0_linear_1061_1726)"/>
</g>
<defs>
<linearGradient id="paint0_linear_1061_1726" x1="62.9753" y1="57.1079" x2="24.4793" y2="48.5551" gradientUnits="userSpaceOnUse">
<stop stop-color="#90C626"/>
<stop offset="1" stop-color="#20934A"/>
</linearGradient>
<clipPath id="clip0_1061_1726">
<rect width="38.2012" height="38.2012" fill="white" transform="translate(27 26)"/>
</clipPath>
</defs>
</svg>
