<svg width="881" height="111" viewBox="0 0 881 111" fill="none" xmlns="http://www.w3.org/2000/svg">
<path d="M45.1994 81.6H35.5994V108H0.199415V2.99999H50.7494C60.4494 2.99999 68.8994 4.59999 76.0994 7.79999C83.2994 11 88.8494 15.6 92.7494 21.6C96.6494 27.6 98.5994 34.6 98.5994 42.6C98.5994 50.1 96.8994 56.65 93.4994 62.25C90.0994 67.85 85.1994 72.3 78.7994 75.6L100.849 108H63.0494L45.1994 81.6ZM62.8994 42.6C62.8994 38.7 61.6994 35.7 59.2994 33.6C56.8994 31.4 53.2994 30.3 48.4994 30.3H35.5994V54.9H48.4994C53.2994 54.9 56.8994 53.85 59.2994 51.75C61.6994 49.55 62.8994 46.5 62.8994 42.6ZM167.017 110.4C155.717 110.4 145.567 108.05 136.567 103.35C127.567 98.65 120.517 92.15 115.417 83.85C110.317 75.45 107.767 66 107.767 55.5C107.767 45 110.317 35.6 115.417 27.3C120.517 18.9 127.567 12.35 136.567 7.65C145.567 2.95 155.717 0.599997 167.017 0.599997C178.317 0.599997 188.467 2.95 197.467 7.65C206.467 12.35 213.517 18.9 218.617 27.3C223.717 35.6 226.267 45 226.267 55.5C226.267 66 223.717 75.45 218.617 83.85C213.517 92.15 206.467 98.65 197.467 103.35C188.467 108.05 178.317 110.4 167.017 110.4ZM167.017 81.75C171.417 81.75 175.367 80.7 178.867 78.6C182.467 76.4 185.317 73.35 187.417 69.45C189.517 65.45 190.567 60.8 190.567 55.5C190.567 50.2 189.517 45.6 187.417 41.7C185.317 37.7 182.467 34.65 178.867 32.55C175.367 30.35 171.417 29.25 167.017 29.25C162.617 29.25 158.617 30.35 155.017 32.55C151.517 34.65 148.717 37.7 146.617 41.7C144.517 45.6 143.467 50.2 143.467 55.5C143.467 60.8 144.517 65.45 146.617 69.45C148.717 73.35 151.517 76.4 155.017 78.6C158.617 80.7 162.617 81.75 167.017 81.75ZM289.965 0.599997C300.165 0.599997 309.165 2.65 316.965 6.75C324.765 10.75 330.815 16.65 335.115 24.45C339.515 32.15 341.715 41.35 341.715 52.05V108H306.315V86.85H273.015V108H238.215V52.05C238.215 41.35 240.365 32.15 244.665 24.45C249.065 16.65 255.165 10.75 262.965 6.75C270.765 2.65 279.765 0.599997 289.965 0.599997ZM306.315 60.15V49.05C306.315 42.55 304.765 37.65 301.665 34.35C298.665 30.95 294.665 29.25 289.665 29.25C284.665 29.25 280.615 30.95 277.515 34.35C274.515 37.65 273.015 42.55 273.015 49.05V60.15H306.315ZM357.914 2.99999H409.664C421.364 2.99999 431.664 5.14999 440.564 9.45C449.564 13.65 456.514 19.7 461.414 27.6C466.414 35.5 468.914 44.8 468.914 55.5C468.914 66.2 466.414 75.5 461.414 83.4C456.514 91.3 449.564 97.4 440.564 101.7C431.664 105.9 421.364 108 409.664 108H357.914V2.99999ZM408.164 80.4C415.764 80.4 421.814 78.25 426.314 73.95C430.914 69.55 433.214 63.4 433.214 55.5C433.214 47.6 430.914 41.5 426.314 37.2C421.814 32.8 415.764 30.6 408.164 30.6H393.314V80.4H408.164ZM607.69 0.599997C620.19 0.599997 629.94 4.35 636.94 11.85C643.94 19.35 647.44 30.15 647.44 44.25V108H612.04V45.3C612.04 40.1 610.69 36.15 607.99 33.45C605.29 30.65 601.59 29.25 596.89 29.25C592.09 29.25 588.24 30.75 585.34 33.75C582.54 36.65 581.14 40.9 581.14 46.5V108H545.74V45.3C545.74 40.1 544.49 36.15 541.99 33.45C539.59 30.65 536.19 29.25 531.79 29.25C527.29 29.25 523.74 30.75 521.14 33.75C518.54 36.65 517.24 40.9 517.24 46.5V108H481.84V2.99999H516.04V13.5C522.54 4.9 532.19 0.599997 544.99 0.599997C558.39 0.599997 568.34 5.3 574.84 14.7C578.54 10 583.19 6.5 588.79 4.2C594.49 1.8 600.79 0.599997 607.69 0.599997ZM714.477 0.599997C724.677 0.599997 733.677 2.65 741.477 6.75C749.277 10.75 755.327 16.65 759.627 24.45C764.027 32.15 766.227 41.35 766.227 52.05V108H730.827V86.85H697.527V108H662.727V52.05C662.727 41.35 664.877 32.15 669.177 24.45C673.577 16.65 679.677 10.75 687.477 6.75C695.277 2.65 704.277 0.599997 714.477 0.599997ZM730.827 60.15V49.05C730.827 42.55 729.277 37.65 726.177 34.35C723.177 30.95 719.177 29.25 714.177 29.25C709.177 29.25 705.127 30.95 702.027 34.35C699.027 37.65 697.527 42.55 697.527 49.05V60.15H730.827ZM832.976 2.99999C842.676 2.99999 851.126 4.59999 858.326 7.79999C865.526 11 871.076 15.6 874.976 21.6C878.876 27.6 880.826 34.6 880.826 42.6C880.826 50.6 878.876 57.6 874.976 63.6C871.076 69.6 865.526 74.2 858.326 77.4C851.126 80.6 842.676 82.2 832.976 82.2H817.826V108H782.426V2.99999H832.976ZM830.726 54.9C835.526 54.9 839.126 53.85 841.526 51.75C843.926 49.55 845.126 46.5 845.126 42.6C845.126 38.7 843.926 35.7 841.526 33.6C839.126 31.4 835.526 30.3 830.726 30.3H817.826V54.9H830.726Z" fill="#20934A" fill-opacity="0.05"/>
</svg>
