<svg width="76" height="75" viewBox="0 0 76 75" fill="none" xmlns="http://www.w3.org/2000/svg">
<path fill-rule="evenodd" clip-rule="evenodd" d="M37.8335 75C58.5442 75 75.3335 58.2107 75.3335 37.5C75.3335 16.7893 58.5442 0 37.8335 0C23.9117 0 11.7618 7.58642 5.29228 18.8507L3.63452 22.0931C3.03624 23.419 2.5128 24.786 2.0696 26.1886C1.87547 26.8103 1.43551 28.3066 1.22875 29.3179C0.642638 31.9516 0.333496 34.6897 0.333496 37.5C0.333496 41.179 0.86329 44.7343 1.85074 48.0936C2.09621 48.979 2.66842 50.5488 2.92385 51.223C3.49939 52.6859 4.16424 54.104 4.91169 55.4704L6.77542 58.522C13.5192 68.466 24.9133 75 37.8335 75ZM37.8336 72.5822C57.1822 72.5822 72.8674 56.897 72.8674 37.5483C72.8674 18.1997 57.1822 2.51447 37.8336 2.51447C18.4849 2.51447 2.79971 18.1997 2.79971 37.5483C2.79971 56.897 18.4849 72.5822 37.8336 72.5822Z" fill="url(#paint0_linear_1838_334)"/>
<ellipse cx="38.3414" cy="38.165" rx="28.2882" ry="27.853" fill="#38ED7A" fill-opacity="0.1"/>
<path d="M53.2635 31.7903C53.01 32.7428 52.6643 34.5942 52.5337 35.5774C52.5414 35.5928 52.5491 35.6005 52.5567 35.6082C52.7411 35.6696 52.9178 35.7541 53.0868 35.854C53.2251 35.9385 53.348 36.0307 53.4632 36.1382C53.4632 36.0307 53.4709 35.9308 53.4709 35.8233C53.4939 34.7939 53.7551 32.8657 53.9318 31.7903C53.9856 31.4676 54.047 31.1296 54.1546 30.7993C53.6706 30.9606 53.3941 31.314 53.2635 31.7903Z" fill="url(#paint1_linear_1838_334)"/>
<path d="M46.8339 37.1214C47.894 35.7233 48.4701 34.2253 48.5393 32.6736C48.593 31.6365 48.5853 30.5841 48.5853 29.5624V24.9533C48.5853 24.0622 48.0399 23.4553 47.1258 23.3324L46.734 23.2863C46.2117 23.2249 45.7123 23.1634 45.2361 23.0559C43.5076 22.6718 41.8407 21.8882 39.9893 20.5977C39.6974 20.3979 39.3748 20.1675 38.8985 20.1675C38.4222 20.1675 38.0996 20.3979 37.8154 20.5977C35.3341 22.3107 33.1064 23.1711 30.8095 23.3094C30.2026 23.3401 29.1963 23.5936 29.1963 25.0224L29.1886 27.327C29.181 28.8787 29.181 30.4381 29.1963 31.9899C29.1963 32.6121 29.2731 33.2651 29.4345 33.9872C29.7801 35.5389 30.6021 36.96 31.9464 38.3274C33.5903 39.9944 35.6645 41.2849 38.3301 42.2836C38.5067 42.345 38.6911 42.3681 38.8832 42.3681C39.1443 42.3681 39.4055 42.3066 39.5899 42.2144L40.2659 41.9225C40.819 41.6844 41.3798 41.4386 41.9482 41.1543C44.03 40.0635 45.6355 38.7346 46.8339 37.1214ZM40.8728 39.0802C40.3658 39.3337 39.8434 39.5565 39.3287 39.7793C39.1827 39.8407 39.0368 39.9022 38.8832 39.9713V31.4752H31.5239C31.5162 30.0925 31.5162 28.7097 31.5162 27.3347L31.5239 25.5909C33.9744 25.3374 36.3405 24.4079 38.8832 22.6948V31.4829H46.2347C46.227 31.8439 46.227 32.2126 46.204 32.566C46.1579 33.6568 45.7507 34.6785 44.9595 35.7233C43.9762 37.0599 42.6319 38.1661 40.8728 39.0802Z" fill="url(#paint2_linear_1838_334)"/>
<path d="M51.5738 35.3315L51.6352 34.863C51.7274 34.1716 52.1269 32.8733 52.2805 32.1589C51.8042 32.3203 51.5277 32.6659 51.4048 33.1422C51.2511 33.7337 50.8286 34.9935 50.7288 35.6311C50.9976 35.5313 51.2819 35.4775 51.5661 35.4621C51.5661 35.416 51.5661 35.3776 51.5738 35.3315Z" fill="url(#paint3_linear_1838_334)"/>
<path d="M21.0998 41.093C21.2765 42.2837 21.8373 43.267 22.6669 44.1427L28.2747 50.895L28.3822 54.0062C28.3822 54.2827 28.605 54.5055 28.8816 54.5132L34.7812 54.5439C35.0578 54.5439 35.2806 54.3212 35.2882 54.0446L35.4957 50.2728C35.5494 49.881 35.5571 49.4816 35.5571 49.1666C35.5571 48.7825 35.5264 48.5214 35.5264 48.5214C35.2498 47.346 34.8273 45.0568 31.6931 42.7907C31.3935 42.5756 30.9634 42.1531 30.7329 41.8612L27.2453 37.375C26.8843 36.7681 26.0239 36.5607 25.3633 36.9601C24.7026 37.3596 24.4952 38.2276 24.8563 38.8345L28.2132 44.3117C28.3208 44.4884 28.2593 44.7265 28.075 44.8264C27.906 44.9186 27.6986 44.8648 27.591 44.7111L27.4527 44.5037C27.4527 44.5037 24.9177 41.0392 23.6502 38.2891C23.4198 37.7898 23.2892 37.2828 23.2584 36.7374C23.2508 36.6529 23.2508 36.5376 23.2431 36.4531C23.2047 35.201 23.0049 33.4265 22.7975 32.1897C22.7361 31.844 22.5594 30.5458 22.1983 30.131C21.6837 29.5471 20.9923 29.6777 20.5544 30.0311C20.1934 30.323 20.0244 30.807 20.0781 31.2679L21.0537 40.7396L21.0998 41.093Z" fill="url(#paint4_linear_1838_334)"/>
<path d="M57.2122 30.0387C56.7743 29.6853 56.0829 29.5547 55.5682 30.1385C55.1995 30.5534 55.0228 31.8516 54.9691 32.1973C54.7616 33.4341 54.5542 35.2162 54.5235 36.4607C54.5235 36.5452 54.5158 36.6604 54.5081 36.7449C54.4774 37.2903 54.3468 37.7974 54.1164 38.2967C52.8565 41.0391 50.3138 44.5113 50.3138 44.5113L50.1756 44.7187C50.068 44.8723 49.8606 44.9261 49.6916 44.8339C49.5072 44.7341 49.4458 44.4959 49.5533 44.3193L52.9103 38.8421C53.2714 38.2352 53.0639 37.3748 52.4033 36.9677C51.7427 36.5606 50.8823 36.768 50.5213 37.3825L47.0337 41.8687C46.8032 42.1607 46.373 42.5832 46.0735 42.7982C42.9316 45.0567 42.5167 47.3536 42.2402 48.5289C42.2402 48.5289 42.2172 48.7901 42.2095 49.1742C42.2095 49.4892 42.2172 49.8809 42.2709 50.2804L42.4783 54.0522C42.4783 54.3287 42.7088 54.5515 42.9853 54.5515L48.885 54.5208C49.1616 54.5208 49.3843 54.2903 49.3843 54.0138L49.4919 50.9026L55.0996 44.1503C55.9293 43.2745 56.4901 42.2836 56.6667 41.1006L56.7205 40.7549L57.6961 31.2831C57.7422 30.8145 57.5809 30.3383 57.2122 30.0387Z" fill="url(#paint5_linear_1838_334)"/>
<path d="M23.6116 30.8071C23.7114 31.1451 23.7806 31.4755 23.8343 31.7981C24.0187 32.8659 24.2799 34.8017 24.2953 35.8311C24.2953 35.9386 24.3029 36.0385 24.3029 36.146C24.4182 36.0462 24.5411 35.9463 24.6794 35.8618C24.8484 35.7543 25.0327 35.6774 25.2094 35.616C25.2171 35.6006 25.2248 35.5929 25.2324 35.5852C25.1019 34.6097 24.7562 32.7583 24.5027 31.7981C24.3721 31.3141 24.0955 30.9608 23.6116 30.8071Z" fill="url(#paint6_linear_1838_334)"/>
<path d="M25.4861 32.1589C25.6397 32.8733 26.0392 34.1716 26.1314 34.863L26.1928 35.3315C26.2005 35.3776 26.2005 35.4237 26.2005 35.4698C26.4847 35.4775 26.769 35.539 27.0378 35.6388C26.9456 35.0012 26.5231 33.7414 26.3618 33.1499C26.2389 32.6659 25.9624 32.3203 25.4861 32.1589Z" fill="url(#paint7_linear_1838_334)"/>
<defs>
<linearGradient id="paint0_linear_1838_334" x1="70.9636" y1="63.8571" x2="-5.30823" y2="48.6353" gradientUnits="userSpaceOnUse">
<stop stop-color="#90C626"/>
<stop offset="1" stop-color="#20934A"/>
</linearGradient>
<linearGradient id="paint1_linear_1838_334" x1="54.0601" y1="35.345" x2="52.3524" y2="35.2415" gradientUnits="userSpaceOnUse">
<stop stop-color="#90C626"/>
<stop offset="1" stop-color="#20934A"/>
</linearGradient>
<linearGradient id="paint2_linear_1838_334" x1="47.4553" y1="39.0697" x2="27.5439" y2="35.5968" gradientUnits="userSpaceOnUse">
<stop stop-color="#90C626"/>
<stop offset="1" stop-color="#20934A"/>
</linearGradient>
<linearGradient id="paint3_linear_1838_334" x1="52.1901" y1="35.1153" x2="50.5621" y2="34.9701" gradientUnits="userSpaceOnUse">
<stop stop-color="#90C626"/>
<stop offset="1" stop-color="#20934A"/>
</linearGradient>
<linearGradient id="paint4_linear_1838_334" x1="34.6546" y1="50.8572" x2="18.5262" y2="48.8481" gradientUnits="userSpaceOnUse">
<stop stop-color="#90C626"/>
<stop offset="1" stop-color="#20934A"/>
</linearGradient>
<linearGradient id="paint5_linear_1838_334" x1="56.801" y1="50.8648" x2="40.6669" y2="48.8542" gradientUnits="userSpaceOnUse">
<stop stop-color="#90C626"/>
<stop offset="1" stop-color="#20934A"/>
</linearGradient>
<linearGradient id="paint6_linear_1838_334" x1="25.138" y1="35.3528" x2="23.4303" y2="35.2493" gradientUnits="userSpaceOnUse">
<stop stop-color="#90C626"/>
<stop offset="1" stop-color="#20934A"/>
</linearGradient>
<linearGradient id="paint7_linear_1838_334" x1="26.9474" y1="35.1218" x2="25.3194" y2="34.9769" gradientUnits="userSpaceOnUse">
<stop stop-color="#90C626"/>
<stop offset="1" stop-color="#20934A"/>
</linearGradient>
</defs>
</svg>
