<svg width="173" height="173" viewBox="0 0 173 173" fill="none" xmlns="http://www.w3.org/2000/svg">
<path fill-rule="evenodd" clip-rule="evenodd" d="M86.5 172.333C134.089 172.333 172.667 133.755 172.667 86.1666C172.667 38.5781 134.089 0 86.5 0C54.5107 0 26.593 17.4319 11.7275 43.3147L7.9184 50.7649C6.54368 53.8117 5.34093 56.9526 4.32255 60.1755C3.87648 61.6041 2.86556 65.0422 2.39048 67.3659C1.04371 73.4177 0.333374 79.7092 0.333374 86.1666C0.333374 94.6201 1.55072 102.789 3.81966 110.508C4.3837 112.543 5.69852 116.15 6.28542 117.699C7.6079 121.06 9.13558 124.319 10.853 127.459L15.1355 134.471C30.6312 157.319 56.8123 172.333 86.5 172.333ZM86.5 166.778C130.959 166.778 167 130.737 167 86.2777C167 41.8188 130.959 5.77771 86.5 5.77771C42.0411 5.77771 6 41.8188 6 86.2777C6 130.737 42.0411 166.778 86.5 166.778Z" fill="url(#paint0_linear_1502_1319)"/>
<ellipse cx="87.6667" cy="87.6946" rx="65" ry="64" fill="#38ED7A" fill-opacity="0.1"/>
<path d="M122.666 56.0216L89.6587 44.1111C89.1661 43.9334 88.6586 43.8445 88.1424 43.8445C87.6238 43.8445 87.109 43.9343 86.6141 44.1138L53.7248 56.0243C51.9473 56.6691 50.7 58.358 50.7 60.2491V88.4693C50.7 94.7697 52.7307 101.071 56.6061 107.198C59.5767 111.893 63.7113 116.498 68.8307 120.885C77.3904 128.22 85.8837 132.451 86.2405 132.628C86.8685 132.939 87.5594 133.094 88.2422 133.094C88.9148 133.094 89.5919 132.943 90.2127 132.641C90.5695 132.468 99.0588 128.303 107.627 120.997C112.751 116.627 116.824 112.022 119.796 107.31C123.67 101.17 125.601 94.8314 125.601 88.4693V60.2491C125.602 58.355 124.448 56.664 122.666 56.0216ZM57.8905 88.4483V63.6092C57.8905 62.6636 58.47 61.819 59.3589 61.4967L87.3158 51.3259C87.565 51.2357 87.8512 51.1692 88.1508 51.1692V88.4696H118.624C118.626 88.4696 118.628 88.5101 118.628 88.5358C118.622 96.6638 114.528 104.719 106.462 112.563C100.163 118.688 93.0059 123.06 89.3246 125.122C88.9834 125.313 88.4507 125.404 88.1511 125.404C88.1511 124.705 88.1511 88.857 88.1511 88.4579L57.8905 88.4483Z" fill="url(#paint1_linear_1502_1319)"/>
<defs>
<linearGradient id="paint0_linear_1502_1319" x1="162.626" y1="146.729" x2="-12.6301" y2="111.753" gradientUnits="userSpaceOnUse">
<stop stop-color="#90C626"/>
<stop offset="1" stop-color="#20934A"/>
</linearGradient>
<linearGradient id="paint1_linear_1502_1319" x1="121.237" y1="119.834" x2="44.1931" y2="106.931" gradientUnits="userSpaceOnUse">
<stop stop-color="#90C626"/>
<stop offset="1" stop-color="#20934A"/>
</linearGradient>
</defs>
</svg>
