<svg width="372" height="253" viewBox="0 0 372 253" fill="none" xmlns="http://www.w3.org/2000/svg">
<path fill-rule="evenodd" clip-rule="evenodd" d="M185.833 212.333C233.422 212.333 272 173.755 272 126.167C272 78.5781 233.422 40 185.833 40C153.844 40 125.926 57.4319 111.061 83.3147L107.252 90.7649C105.877 93.8117 104.674 96.9526 103.656 100.176C103.21 101.604 102.199 105.042 101.724 107.366C100.377 113.418 99.6667 119.709 99.6667 126.167C99.6667 134.62 100.884 142.789 103.153 150.508C103.717 152.543 105.032 156.15 105.619 157.699C106.941 161.06 108.469 164.319 110.186 167.459L114.469 174.471C129.965 197.319 156.146 212.333 185.833 212.333ZM185.833 206.778C230.292 206.778 266.333 170.737 266.333 126.278C266.333 81.8188 230.292 45.7777 185.833 45.7777C141.374 45.7777 105.333 81.8188 105.333 126.278C105.333 170.737 141.374 206.778 185.833 206.778Z" fill="url(#paint0_linear_1061_1700)"/>
<ellipse cx="186.667" cy="125.889" rx="65" ry="64" fill="#38ED7A" fill-opacity="0.1"/>
<path fill-rule="evenodd" clip-rule="evenodd" d="M235.885 126.5C235.885 154.39 213.276 177 185.385 177C157.495 177 134.885 154.39 134.885 126.5C134.885 98.6096 157.495 76 185.385 76C213.276 76 235.885 98.6096 235.885 126.5ZM188.574 149.189C191.65 152.265 195.82 153.995 200.17 154C204.52 153.996 208.691 152.266 211.767 149.19C214.843 146.115 216.574 141.944 216.579 137.594V137.5C216.574 133.15 214.843 128.979 211.767 125.904C208.691 122.828 204.52 121.098 200.17 121.094C195.82 121.099 191.65 122.829 188.574 125.905C185.498 128.98 183.768 133.15 183.763 137.5V137.594C183.768 141.943 185.498 146.114 188.574 149.189ZM194.219 142.906C194.337 142.531 194.449 142.316 194.683 142.316H194.686C194.873 142.328 195.055 142.383 195.216 142.479C196.222 142.99 197.312 143.317 198.433 143.442C198.625 143.466 198.819 143.479 199.013 143.479C199.538 143.483 200.059 143.376 200.54 143.167C200.817 143.06 201.06 142.883 201.246 142.652C201.433 142.422 201.556 142.147 201.603 141.855C201.636 141.559 201.592 141.26 201.474 140.987C201.357 140.714 201.17 140.476 200.933 140.296C200.57 140.004 200.167 139.766 199.736 139.589C199.384 139.436 199.025 139.29 198.676 139.149C197.906 138.862 197.16 138.515 196.444 138.111C195.613 137.715 194.919 137.08 194.451 136.288C193.982 135.496 193.76 134.582 193.813 133.663C193.852 132.625 194.219 131.625 194.862 130.81C195.506 129.994 196.391 129.404 197.392 129.124L197.436 129.108C197.856 128.956 198.066 128.88 198.171 128.73C198.277 128.579 198.277 128.354 198.277 127.902V127.475V126.97C198.299 126.275 198.414 126.156 199.1 126.141H199.724C200.461 126.141 200.829 126.141 201.012 126.325C201.195 126.508 201.195 126.873 201.195 127.603C201.201 128.647 201.201 128.647 202.236 128.806C203.023 128.932 203.789 129.162 204.515 129.489C204.604 129.514 204.687 129.558 204.758 129.617C204.829 129.676 204.887 129.75 204.928 129.833C204.969 129.916 204.992 130.007 204.995 130.1C204.999 130.193 204.983 130.285 204.948 130.371C204.902 130.525 204.858 130.678 204.812 130.834C204.793 130.9 204.774 130.965 204.755 131.032C204.64 131.446 204.518 131.873 204.387 132.279C204.256 132.684 204.128 132.834 203.917 132.834C203.748 132.819 203.584 132.768 203.436 132.684C202.441 132.204 201.35 131.955 200.244 131.958H199.824C199.493 131.966 199.167 132.034 198.86 132.157C198.619 132.247 198.405 132.399 198.241 132.598C198.077 132.796 197.968 133.035 197.925 133.289C197.901 133.538 197.943 133.79 198.047 134.018C198.151 134.246 198.313 134.443 198.517 134.589C198.992 134.955 199.517 135.252 200.076 135.471L200.416 135.611C201.277 135.948 202.119 136.333 202.938 136.765C203.632 137.139 204.236 137.662 204.705 138.296C205.174 138.93 205.498 139.66 205.653 140.434C205.79 141.159 205.765 141.906 205.58 142.621C205.396 143.336 205.055 144.002 204.584 144.57C203.852 145.465 202.856 146.104 201.738 146.397C201.632 146.41 201.531 146.445 201.439 146.498C201.347 146.551 201.267 146.621 201.203 146.706C201.139 146.79 201.092 146.887 201.065 146.989C201.039 147.092 201.033 147.199 201.049 147.304V148.292V148.816C201.061 148.908 201.052 149.003 201.023 149.091C200.993 149.18 200.945 149.261 200.88 149.328C200.815 149.395 200.737 149.447 200.649 149.48C200.562 149.513 200.468 149.526 200.375 149.517H199.459H198.748C198.65 149.526 198.551 149.512 198.459 149.477C198.366 149.442 198.283 149.386 198.215 149.315C198.147 149.243 198.096 149.157 198.066 149.064C198.036 148.97 198.027 148.87 198.04 148.772V148.401V147.666C198.031 146.849 198.009 146.824 197.224 146.696C196.222 146.561 195.246 146.282 194.325 145.867C193.611 145.518 193.527 145.337 193.735 144.583C193.748 144.537 193.761 144.492 193.773 144.446C193.914 143.937 194.058 143.415 194.219 142.906ZM154.233 141.422H180.855V141.406C180.608 140.148 180.483 138.869 180.484 137.587V137.478C180.488 134.693 181.082 131.939 182.228 129.4C183.373 126.86 185.044 124.593 187.13 122.746V106.848C187.142 106.29 186.932 105.75 186.546 105.346C186.16 104.942 185.631 104.708 185.072 104.694H176.852C176.294 104.708 175.764 104.942 175.379 105.346C174.993 105.75 174.783 106.29 174.795 106.848V137.117H170.68V119.772C170.692 119.214 170.482 118.674 170.096 118.27C169.711 117.866 169.181 117.632 168.623 117.618H160.402C159.844 117.632 159.314 117.866 158.929 118.27C158.543 118.674 158.333 119.214 158.345 119.772V137.114H154.233V141.422ZM191.242 96.9224V119.937L191.248 119.934C194.01 118.522 197.07 117.79 200.173 117.799C201.314 117.799 202.453 117.897 203.577 118.092V96.9224C203.588 96.3645 203.378 95.8248 202.993 95.4216C202.607 95.0184 202.077 94.7846 201.519 94.7715H193.299C192.741 94.7846 192.211 95.0184 191.826 95.4216C191.44 95.8248 191.23 96.3645 191.242 96.9224Z" fill="url(#paint1_linear_1061_1700)"/>
<defs>
<linearGradient id="paint0_linear_1061_1700" x1="261.959" y1="186.729" x2="86.7033" y2="151.753" gradientUnits="userSpaceOnUse">
<stop stop-color="#90C626"/>
<stop offset="1" stop-color="#20934A"/>
</linearGradient>
<linearGradient id="paint1_linear_1061_1700" x1="230.001" y1="161.994" x2="127.288" y2="141.496" gradientUnits="userSpaceOnUse">
<stop stop-color="#90C626"/>
<stop offset="1" stop-color="#20934A"/>
</linearGradient>
</defs>
</svg>
