<svg width="820" height="111" viewBox="0 0 820 111" fill="none" xmlns="http://www.w3.org/2000/svg">
<path d="M46.7254 110.4C38.0254 110.4 29.5254 109.45 21.2254 107.55C13.0254 105.55 6.27539 102.9 0.975391 99.6L12.3754 73.8C17.3754 76.7 22.9754 79.05 29.1754 80.85C35.3754 82.55 41.3254 83.4 47.0254 83.4C51.9254 83.4 55.4254 82.95 57.5254 82.05C59.6254 81.05 60.6754 79.6 60.6754 77.7C60.6754 75.5 59.2754 73.85 56.4754 72.75C53.7754 71.65 49.2754 70.45 42.9754 69.15C34.8754 67.45 28.1254 65.65 22.7254 63.75C17.3254 61.75 12.6254 58.55 8.62539 54.15C4.62539 49.65 2.62539 43.6 2.62539 36C2.62539 29.4 4.47539 23.4 8.17539 18C11.8754 12.6 17.3754 8.34999 24.6754 5.24999C32.0754 2.14999 41.0254 0.599997 51.5254 0.599997C58.7254 0.599997 65.7754 1.4 72.6754 2.99999C79.6754 4.49999 85.8254 6.74999 91.1254 9.75L80.4754 35.4C70.1754 30.2 60.4254 27.6 51.2254 27.6C42.1254 27.6 37.5754 29.8 37.5754 34.2C37.5754 36.3 38.9254 37.9 41.6254 39C44.3254 40 48.7754 41.1 54.9754 42.3C62.9754 43.8 69.7254 45.55 75.2254 47.55C80.7254 49.45 85.4754 52.6 89.4754 57C93.5754 61.4 95.6254 67.4 95.6254 75C95.6254 81.6 93.7754 87.6 90.0754 93C86.3754 98.3 80.8254 102.55 73.4254 105.75C66.1254 108.85 57.2254 110.4 46.7254 110.4ZM200.959 101.1C195.359 104 188.609 106.3 180.709 108C172.809 109.6 164.759 110.4 156.559 110.4C144.759 110.4 134.709 109.05 126.409 106.35C118.209 103.55 112.009 99.7 107.809 94.8C103.609 89.8 101.509 84.1 101.509 77.7C101.509 72.4 102.909 67.65 105.709 63.45C108.609 59.25 112.709 56 118.009 53.7C114.009 51.5 110.959 48.65 108.859 45.15C106.859 41.55 105.859 37.6 105.859 33.3C105.859 27.4 107.759 22 111.559 17.1C115.459 12.1 121.359 8.1 129.259 5.09999C137.259 2.1 147.059 0.599997 158.659 0.599997C165.759 0.599997 172.709 1.25 179.509 2.55C186.409 3.75 192.559 5.39999 197.959 7.5L188.359 33.3C178.959 29.5 169.509 27.6 160.009 27.6C153.809 27.6 149.159 28.3 146.059 29.7C143.059 31.1 141.559 33.05 141.559 35.55C141.559 37.65 142.309 39.25 143.809 40.35C145.309 41.45 147.809 42 151.309 42H182.059V68.1H148.909C145.009 68.1 142.059 68.75 140.059 70.05C138.159 71.25 137.209 73 137.209 75.3C137.209 80.7 144.109 83.4 157.909 83.4C163.209 83.4 168.809 82.7 174.709 81.3C180.709 79.8 186.009 77.85 190.609 75.45L200.959 101.1ZM255.456 81.6H245.856V108H210.456V2.99999H261.006C270.706 2.99999 279.156 4.59999 286.356 7.79999C293.556 11 299.106 15.6 303.006 21.6C306.906 27.6 308.856 34.6 308.856 42.6C308.856 50.1 307.156 56.65 303.756 62.25C300.356 67.85 295.456 72.3 289.056 75.6L311.106 108H273.306L255.456 81.6ZM273.156 42.6C273.156 38.7 271.956 35.7 269.556 33.6C267.156 31.4 263.556 30.3 258.756 30.3H245.856V54.9H258.756C263.556 54.9 267.156 53.85 269.556 51.75C271.956 49.55 273.156 46.5 273.156 42.6ZM434.424 2.99999L390.024 108H355.224L310.824 2.99999H348.924L373.974 64.35L399.624 2.99999H434.424ZM487.994 29.7V81.3H503.744V108H436.844V81.3H452.594V29.7H436.844V2.99999H503.744V29.7H487.994ZM571.055 110.4C559.955 110.4 549.955 108.1 541.055 103.5C532.155 98.8 525.155 92.3 520.055 84C515.055 75.6 512.555 66.1 512.555 55.5C512.555 44.9 515.055 35.45 520.055 27.15C525.155 18.75 532.155 12.25 541.055 7.65C549.955 2.95 559.955 0.599997 571.055 0.599997C581.255 0.599997 590.355 2.4 598.355 6C606.355 9.59999 612.955 14.8 618.155 21.6L595.805 41.55C589.305 33.35 581.655 29.25 572.855 29.25C565.455 29.25 559.505 31.65 555.005 36.45C550.505 41.15 548.255 47.5 548.255 55.5C548.255 63.5 550.505 69.9 555.005 74.7C559.505 79.4 565.455 81.75 572.855 81.75C581.655 81.75 589.305 77.65 595.805 69.45L618.155 89.4C612.955 96.2 606.355 101.4 598.355 105C590.355 108.6 581.255 110.4 571.055 110.4ZM722.444 101.1C716.844 104 710.094 106.3 702.194 108C694.294 109.6 686.244 110.4 678.044 110.4C666.244 110.4 656.194 109.05 647.894 106.35C639.694 103.55 633.494 99.7 629.294 94.8C625.094 89.8 622.994 84.1 622.994 77.7C622.994 72.4 624.394 67.65 627.194 63.45C630.094 59.25 634.194 56 639.494 53.7C635.494 51.5 632.444 48.65 630.344 45.15C628.344 41.55 627.344 37.6 627.344 33.3C627.344 27.4 629.244 22 633.044 17.1C636.944 12.1 642.844 8.1 650.744 5.09999C658.744 2.1 668.544 0.599997 680.144 0.599997C687.244 0.599997 694.194 1.25 700.994 2.55C707.894 3.75 714.044 5.39999 719.444 7.5L709.844 33.3C700.444 29.5 690.994 27.6 681.494 27.6C675.294 27.6 670.644 28.3 667.544 29.7C664.544 31.1 663.044 33.05 663.044 35.55C663.044 37.65 663.794 39.25 665.294 40.35C666.794 41.45 669.294 42 672.794 42H703.544V68.1H670.394C666.494 68.1 663.544 68.75 661.544 70.05C659.644 71.25 658.694 73 658.694 75.3C658.694 80.7 665.594 83.4 679.394 83.4C684.694 83.4 690.294 82.7 696.194 81.3C702.194 79.8 707.494 77.85 712.094 75.45L722.444 101.1ZM771.091 110.4C762.391 110.4 753.891 109.45 745.591 107.55C737.391 105.55 730.641 102.9 725.341 99.6L736.741 73.8C741.741 76.7 747.341 79.05 753.541 80.85C759.741 82.55 765.691 83.4 771.391 83.4C776.291 83.4 779.791 82.95 781.891 82.05C783.991 81.05 785.041 79.6 785.041 77.7C785.041 75.5 783.641 73.85 780.841 72.75C778.141 71.65 773.641 70.45 767.341 69.15C759.241 67.45 752.491 65.65 747.091 63.75C741.691 61.75 736.991 58.55 732.991 54.15C728.991 49.65 726.991 43.6 726.991 36C726.991 29.4 728.841 23.4 732.541 18C736.241 12.6 741.741 8.34999 749.041 5.24999C756.441 2.14999 765.391 0.599997 775.891 0.599997C783.091 0.599997 790.141 1.4 797.041 2.99999C804.041 4.49999 810.191 6.74999 815.491 9.75L804.841 35.4C794.541 30.2 784.791 27.6 775.591 27.6C766.491 27.6 761.941 29.8 761.941 34.2C761.941 36.3 763.291 37.9 765.991 39C768.691 40 773.141 41.1 779.341 42.3C787.341 43.8 794.091 45.55 799.591 47.55C805.091 49.45 809.841 52.6 813.841 57C817.941 61.4 819.991 67.4 819.991 75C819.991 81.6 818.141 87.6 814.441 93C810.741 98.3 805.191 102.55 797.791 105.75C790.491 108.85 781.591 110.4 771.091 110.4Z" fill="#c7c7c70f"/>
</svg>
