<svg width="173" height="173" viewBox="0 0 173 173" fill="none" xmlns="http://www.w3.org/2000/svg">
<path fill-rule="evenodd" clip-rule="evenodd" d="M86.8333 172.333C134.422 172.333 173 133.755 173 86.1666C173 38.5781 134.422 0 86.8333 0C54.8441 0 26.9263 17.4319 12.0609 43.3147L8.25171 50.7649C6.877 53.8117 5.67425 56.9526 4.65586 60.1755C4.20979 61.6041 3.19887 65.0422 2.72379 67.3659C1.37703 73.4177 0.666687 79.7092 0.666687 86.1666C0.666687 94.6201 1.88403 102.789 4.15297 110.508C4.71701 112.543 6.03183 116.15 6.61873 117.699C7.94121 121.06 9.46889 124.319 11.1864 127.459L15.4688 134.471C30.9646 157.319 57.1456 172.333 86.8333 172.333ZM86.8333 166.778C131.292 166.778 167.333 130.737 167.333 86.2777C167.333 41.8188 131.292 5.77771 86.8333 5.77771C42.3744 5.77771 6.33331 41.8188 6.33331 86.2777C6.33331 130.737 42.3744 166.778 86.8333 166.778Z" fill="url(#paint0_linear_1502_1352)"/>
<ellipse cx="87.6667" cy="85.8889" rx="65" ry="64" fill="#38ED7A" fill-opacity="0.1"/>
<path fill-rule="evenodd" clip-rule="evenodd" d="M136.885 86.5C136.885 114.39 114.276 137 86.3854 137C58.4951 137 35.8854 114.39 35.8854 86.5C35.8854 58.6096 58.4951 36 86.3854 36C114.276 36 136.885 58.6096 136.885 86.5ZM89.574 109.189C92.6497 112.265 96.8198 113.995 101.17 114C105.52 113.996 109.691 112.266 112.767 109.19C115.843 106.115 117.574 101.944 117.579 97.5937V97.5002C117.574 93.1499 115.843 88.9793 112.767 85.9035C109.691 82.8278 105.52 81.098 101.17 81.0939C96.8198 81.0988 92.6497 82.8289 89.574 85.9046C86.4983 88.9804 84.7682 93.1505 84.7632 97.5002V97.5937C84.7682 101.943 86.4983 106.114 89.574 109.189ZM95.2186 102.906C95.3371 102.531 95.4493 102.316 95.6831 102.316H95.6862C95.8732 102.328 96.0548 102.383 96.2162 102.479C97.2218 102.99 98.3116 103.317 99.4332 103.442C99.6255 103.466 99.8191 103.479 100.013 103.479C100.538 103.483 101.059 103.376 101.54 103.167C101.817 103.06 102.06 102.883 102.246 102.652C102.433 102.422 102.556 102.147 102.603 101.855C102.636 101.559 102.592 101.26 102.474 100.987C102.357 100.714 102.17 100.476 101.933 100.296C101.57 100.004 101.167 99.7662 100.736 99.5888C100.384 99.436 100.025 99.2895 99.6763 99.1492C98.9063 98.8623 98.16 98.5152 97.4444 98.1112C96.6135 97.715 95.9194 97.0803 95.4508 96.288C94.9822 95.4957 94.7603 94.5818 94.8134 93.6628C94.8517 92.6246 95.2191 91.6255 95.8623 90.8096C96.5055 89.9938 97.3914 89.4035 98.392 89.124L98.4357 89.1084C98.8555 88.956 99.0659 88.8797 99.1714 88.7296C99.2773 88.5788 99.2773 88.3535 99.2773 87.902V87.475V86.97C99.2992 86.2748 99.4145 86.1564 100.1 86.1408H100.724C101.461 86.1408 101.829 86.1408 102.012 86.3247C102.195 86.5078 102.195 86.8733 102.195 87.6028C102.201 88.6471 102.201 88.6471 103.236 88.8061C104.023 88.9323 104.789 89.1618 105.515 89.4887C105.604 89.514 105.687 89.5577 105.758 89.6171C105.829 89.6764 105.887 89.7501 105.928 89.8333C105.969 89.9165 105.992 90.0074 105.995 90.1C105.999 90.1926 105.983 90.2849 105.948 90.3709C105.902 90.5247 105.858 90.6784 105.812 90.8343C105.793 90.8997 105.774 90.9655 105.755 91.0318C105.64 91.4464 105.518 91.8735 105.387 92.2787C105.256 92.684 105.128 92.8336 104.917 92.8336C104.748 92.8189 104.584 92.7679 104.436 92.684C103.441 92.2038 102.35 91.9554 101.244 91.9576H100.824C100.493 91.9664 100.167 92.034 99.8603 92.1571C99.6188 92.2471 99.4053 92.399 99.2411 92.5977C99.0769 92.7963 98.968 93.0346 98.9251 93.2887C98.9013 93.5383 98.9435 93.7897 99.0474 94.0179C99.1513 94.246 99.3134 94.4428 99.5174 94.5886C99.9922 94.9554 100.517 95.2525 101.076 95.4708L101.416 95.6111C102.277 95.9479 103.119 96.3329 103.938 96.7645C104.632 97.1388 105.236 97.6617 105.705 98.2959C106.174 98.9301 106.498 99.66 106.653 100.434C106.79 101.159 106.765 101.906 106.58 102.621C106.396 103.336 106.055 104.002 105.584 104.57C104.852 105.465 103.856 106.104 102.738 106.397C102.632 106.41 102.531 106.445 102.439 106.498C102.347 106.551 102.267 106.621 102.203 106.706C102.139 106.79 102.092 106.887 102.065 106.989C102.039 107.092 102.033 107.199 102.049 107.304V108.292V108.816C102.061 108.908 102.052 109.003 102.023 109.091C101.993 109.18 101.945 109.261 101.88 109.328C101.815 109.395 101.737 109.447 101.649 109.48C101.562 109.513 101.468 109.526 101.375 109.517H100.459H99.748C99.6497 109.526 99.5508 109.512 99.4585 109.477C99.3663 109.442 99.2831 109.386 99.2151 109.315C99.1472 109.243 99.0962 109.157 99.0659 109.064C99.0357 108.97 99.027 108.87 99.0404 108.772V108.401V107.666C99.0311 106.849 99.0092 106.824 98.2237 106.696C97.2224 106.561 96.2459 106.282 95.3246 105.867C94.6107 105.518 94.5266 105.337 94.7354 104.583C94.748 104.537 94.7606 104.492 94.7732 104.446C94.9139 103.937 95.0584 103.415 95.2186 102.906ZM55.2331 101.422H81.8548V101.406C81.6076 100.148 81.4834 98.8694 81.4838 97.5875V97.4784C81.4878 94.6925 82.0822 91.9392 83.2277 89.3998C84.3733 86.8604 86.0441 84.5927 88.1299 82.746V66.8479C88.1416 66.2897 87.9317 65.7496 87.5461 65.3459C87.1605 64.9422 86.6306 64.7077 86.0725 64.6938H77.8522C77.2941 64.7077 76.7642 64.9422 76.3786 65.3459C75.993 65.7496 75.7831 66.2897 75.7948 66.8479V97.1168H71.68V79.7722C71.6917 79.214 71.4818 78.6739 71.0961 78.2702C70.7105 77.8665 70.1807 77.632 69.6225 77.6181H61.4023C60.8441 77.632 60.3143 77.8665 59.9287 78.2702C59.5431 78.6739 59.3331 79.214 59.3448 79.7722V97.1136H55.2331V101.422ZM92.2416 56.9224V79.9374L92.2478 79.9342C95.0103 78.5219 98.0701 77.7898 101.173 77.7989C102.314 77.7987 103.453 77.8967 104.577 78.0919V56.9224C104.588 56.3645 104.378 55.8248 103.993 55.4216C103.607 55.0184 103.077 54.7846 102.519 54.7715H94.299C93.7412 54.7846 93.2113 55.0184 92.8256 55.4216C92.4399 55.8248 92.2299 56.3645 92.2416 56.9224Z" fill="url(#paint1_linear_1502_1352)"/>
<defs>
<linearGradient id="paint0_linear_1502_1352" x1="162.959" y1="146.729" x2="-12.2967" y2="111.753" gradientUnits="userSpaceOnUse">
<stop stop-color="#90C626"/>
<stop offset="1" stop-color="#20934A"/>
</linearGradient>
<linearGradient id="paint1_linear_1502_1352" x1="131.001" y1="121.994" x2="28.2879" y2="101.496" gradientUnits="userSpaceOnUse">
<stop stop-color="#90C626"/>
<stop offset="1" stop-color="#20934A"/>
</linearGradient>
</defs>
</svg>
