<svg width="96" height="95" viewBox="0 0 96 95" fill="none" xmlns="http://www.w3.org/2000/svg">
<path fill-rule="evenodd" clip-rule="evenodd" d="M47.8795 94.3991C73.9311 94.3991 95.05 73.2802 95.05 47.2286C95.05 21.1771 73.9311 0.058197 47.8795 0.058197C30.3676 0.058197 15.0845 9.60099 6.94665 23.7701L4.8614 27.8486C4.10883 29.5165 3.45041 31.2359 2.89291 33.0003C2.64872 33.7823 2.09531 35.6644 1.83523 36.9365C1.09797 40.2494 0.709106 43.6936 0.709106 47.2286C0.709106 51.8564 1.37552 56.3285 2.61761 60.5542C2.92639 61.6679 3.64616 63.6424 3.96745 64.4904C4.69142 66.3307 5.52772 68.1144 6.46792 69.8332L8.81226 73.6718C17.2952 86.1801 31.6275 94.3991 47.8795 94.3991ZM47.8796 91.3578C72.2178 91.3578 91.9479 71.6277 91.9479 47.2895C91.9479 22.9512 72.2178 3.22112 47.8796 3.22112C23.5413 3.22112 3.81121 22.9512 3.81121 47.2895C3.81121 71.6277 23.5413 91.3578 47.8796 91.3578Z" fill="url(#paint0_linear_1051_1549)"/>
<ellipse cx="48.5183" cy="48.0652" rx="35.5831" ry="35.0357" fill="#38ED7A" fill-opacity="0.1"/>
<path d="M67.6782 30.7264L49.6087 24.2062C49.3391 24.1089 49.0612 24.0602 48.7786 24.0602C48.4947 24.0602 48.213 24.1094 47.942 24.2076L29.9373 30.7279C28.9642 31.0808 28.2814 32.0054 28.2814 33.0406V48.4893C28.2814 51.9384 29.3931 55.3879 31.5147 58.7418C33.1409 61.3124 35.4043 63.8333 38.2068 66.235C42.8927 70.2504 47.5421 72.5666 47.7375 72.6632C48.0813 72.8333 48.4595 72.9186 48.8333 72.9186C49.2015 72.9186 49.5721 72.8359 49.912 72.6706C50.1073 72.5755 54.7547 70.2953 59.445 66.2958C62.2503 63.9038 64.4797 61.3829 66.1071 58.8033C68.2278 55.4422 69.2849 51.9721 69.2849 48.4893V33.0406C69.285 32.0037 68.6536 31.078 67.6782 30.7264ZM32.2178 48.4778V34.88C32.2178 34.3624 32.535 33.9001 33.0216 33.7236L48.3261 28.1558C48.4626 28.1064 48.6192 28.07 48.7832 28.07V48.4895H65.4653C65.4663 48.4895 65.4674 48.5116 65.4674 48.5257C65.4641 52.9752 63.2231 57.3851 58.8073 61.6788C55.3589 65.0321 51.4411 67.4252 49.4258 68.5541C49.239 68.659 48.9474 68.7083 48.7834 68.7083C48.7834 68.3257 48.7834 48.7015 48.7834 48.4831L32.2178 48.4778Z" fill="url(#paint1_linear_1051_1549)"/>
<defs>
<linearGradient id="paint0_linear_1051_1549" x1="89.5532" y1="80.3827" x2="-6.3875" y2="61.2355" gradientUnits="userSpaceOnUse">
<stop stop-color="#90C626"/>
<stop offset="1" stop-color="#20934A"/>
</linearGradient>
<linearGradient id="paint1_linear_1051_1549" x1="66.8958" y1="65.6596" x2="24.7193" y2="58.5956" gradientUnits="userSpaceOnUse">
<stop stop-color="#90C626"/>
<stop offset="1" stop-color="#20934A"/>
</linearGradient>
</defs>
</svg>
