<svg width="1041" height="88" viewBox="0 0 1041 88" fill="none" xmlns="http://www.w3.org/2000/svg">
<path d="M78.005 31.4C71.525 27.8 64.965 25.32 58.325 23.96V86H30.005V23.96C23.365 25.32 16.805 27.8 10.325 31.4L0.965 11.24C6.965 7.64 13.685 4.88 21.125 2.96C28.565 1.04 36.245 0.0799975 44.165 0.0799975C52.085 0.0799975 59.765 1.04 67.205 2.96C74.645 4.88 81.365 7.64 87.365 11.24L78.005 31.4ZM166.664 80.48C162.184 82.8 156.784 84.64 150.464 86C144.144 87.28 137.704 87.92 131.144 87.92C121.704 87.92 113.664 86.84 107.024 84.68C100.464 82.44 95.5044 79.36 92.1444 75.44C88.7844 71.44 87.1044 66.88 87.1044 61.76C87.1044 57.52 88.2244 53.72 90.4644 50.36C92.7844 47 96.0644 44.4 100.304 42.56C97.1044 40.8 94.6644 38.52 92.9844 35.72C91.3844 32.84 90.5844 29.68 90.5844 26.24C90.5844 21.52 92.1044 17.2 95.1444 13.28C98.2644 9.28 102.984 6.08 109.304 3.67999C115.704 1.28 123.544 0.0799975 132.824 0.0799975C138.504 0.0799975 144.064 0.599998 149.504 1.64C155.024 2.6 159.944 3.92 164.264 5.6L156.584 26.24C149.064 23.2 141.504 21.68 133.904 21.68C128.944 21.68 125.224 22.24 122.744 23.36C120.344 24.48 119.144 26.04 119.144 28.04C119.144 29.72 119.744 31 120.944 31.88C122.144 32.76 124.144 33.2 126.944 33.2H151.544V54.08H125.024C121.904 54.08 119.544 54.6 117.944 55.64C116.424 56.6 115.664 58 115.664 59.84C115.664 64.16 121.184 66.32 132.224 66.32C136.464 66.32 140.944 65.76 145.664 64.64C150.464 63.44 154.704 61.88 158.384 59.96L166.664 80.48ZM205.582 87.92C198.622 87.92 191.822 87.16 185.182 85.64C178.622 84.04 173.222 81.92 168.982 79.28L178.102 58.64C182.102 60.96 186.582 62.84 191.542 64.28C196.502 65.64 201.262 66.32 205.822 66.32C209.742 66.32 212.542 65.96 214.222 65.24C215.902 64.44 216.742 63.28 216.742 61.76C216.742 60 215.622 58.68 213.382 57.8C211.222 56.92 207.622 55.96 202.582 54.92C196.102 53.56 190.702 52.12 186.382 50.6C182.062 49 178.302 46.44 175.102 42.92C171.902 39.32 170.302 34.48 170.302 28.4C170.302 23.12 171.782 18.32 174.742 14C177.702 9.68 182.102 6.27999 187.942 3.79999C193.862 1.32 201.022 0.0799975 209.422 0.0799975C215.182 0.0799975 220.822 0.719996 226.342 1.99999C231.942 3.19999 236.862 4.99999 241.102 7.4L232.582 27.92C224.342 23.76 216.542 21.68 209.182 21.68C201.902 21.68 198.262 23.44 198.262 26.96C198.262 28.64 199.342 29.92 201.502 30.8C203.662 31.6 207.222 32.48 212.182 33.44C218.582 34.64 223.982 36.04 228.382 37.64C232.782 39.16 236.582 41.68 239.782 45.2C243.062 48.72 244.702 53.52 244.702 59.6C244.702 64.88 243.222 69.68 240.262 74C237.302 78.24 232.862 81.64 226.942 84.2C221.102 86.68 213.982 87.92 205.582 87.92ZM320.583 31.4C314.103 27.8 307.543 25.32 300.903 23.96V86H272.583V23.96C265.943 25.32 259.383 27.8 252.903 31.4L243.543 11.24C249.543 7.64 256.263 4.88 263.703 2.96C271.143 1.04 278.823 0.0799975 286.743 0.0799975C294.663 0.0799975 302.343 1.04 309.783 2.96C317.223 4.88 323.943 7.64 329.943 11.24L320.583 31.4ZM372.854 23.36V64.64H385.454V86H331.934V64.64H344.534V23.36H331.934V1.99999H385.454V23.36H372.854ZM497.129 0.0799975C507.129 0.0799975 514.929 3.08 520.529 9.08C526.129 15.08 528.929 23.72 528.929 35V86H500.609V35.84C500.609 31.68 499.529 28.52 497.369 26.36C495.209 24.12 492.249 23 488.489 23C484.649 23 481.569 24.2 479.249 26.6C477.009 28.92 475.889 32.32 475.889 36.8V86H447.569V35.84C447.569 31.68 446.569 28.52 444.569 26.36C442.649 24.12 439.929 23 436.409 23C432.809 23 429.969 24.2 427.889 26.6C425.809 28.92 424.769 32.32 424.769 36.8V86H396.449V1.99999H423.809V10.4C429.009 3.52 436.729 0.0799975 446.969 0.0799975C457.689 0.0799975 465.649 3.84 470.849 11.36C473.809 7.6 477.529 4.8 482.009 2.96C486.569 1.04 491.609 0.0799975 497.129 0.0799975ZM585.919 87.92C576.879 87.92 568.759 86.04 561.559 82.28C554.359 78.52 548.719 73.32 544.639 66.68C540.559 59.96 538.519 52.4 538.519 44C538.519 35.6 540.559 28.08 544.639 21.44C548.719 14.72 554.359 9.48 561.559 5.72C568.759 1.96 576.879 0.0799975 585.919 0.0799975C594.959 0.0799975 603.079 1.96 610.279 5.72C617.479 9.48 623.119 14.72 627.199 21.44C631.279 28.08 633.319 35.6 633.319 44C633.319 52.4 631.279 59.96 627.199 66.68C623.119 73.32 617.479 78.52 610.279 82.28C603.079 86.04 594.959 87.92 585.919 87.92ZM585.919 65C589.439 65 592.599 64.16 595.399 62.48C598.279 60.72 600.559 58.28 602.239 55.16C603.919 51.96 604.759 48.24 604.759 44C604.759 39.76 603.919 36.08 602.239 32.96C600.559 29.76 598.279 27.32 595.399 25.64C592.599 23.88 589.439 23 585.919 23C582.399 23 579.199 23.88 576.319 25.64C573.519 27.32 571.279 29.76 569.599 32.96C567.919 36.08 567.079 39.76 567.079 44C567.079 48.24 567.919 51.96 569.599 55.16C571.279 58.28 573.519 60.72 576.319 62.48C579.199 64.16 582.399 65 585.919 65ZM694.598 0.0799975C704.518 0.0799975 712.198 3.32 717.638 9.79999C723.158 16.28 725.918 25.48 725.918 37.4V86H697.598V38.24C697.598 33.12 696.478 29.32 694.238 26.84C692.078 24.28 689.038 23 685.118 23C681.198 23 677.998 24.36 675.518 27.08C673.118 29.8 671.918 33.84 671.918 39.2V86H643.598V1.99999H671.078V11C676.758 3.72 684.598 0.0799975 694.598 0.0799975ZM777.151 23.36V64.64H789.751V86H736.231V64.64H748.831V23.36H736.231V1.99999H789.751V23.36H777.151ZM841.426 0.0799975C849.586 0.0799975 856.786 1.72 863.026 5C869.266 8.2 874.106 12.92 877.546 19.16C881.066 25.32 882.826 32.68 882.826 41.24V86H854.506V69.08H827.866V86H800.026V41.24C800.026 32.68 801.746 25.32 805.186 19.16C808.706 12.92 813.586 8.2 819.826 5C826.066 1.72 833.266 0.0799975 841.426 0.0799975ZM854.506 47.72V38.84C854.506 33.64 853.266 29.72 850.786 27.08C848.386 24.36 845.186 23 841.186 23C837.186 23 833.946 24.36 831.466 27.08C829.066 29.72 827.866 33.64 827.866 38.84V47.72H854.506ZM895.785 1.99999H924.105V64.04H962.025V86H895.785V1.99999ZM1001.17 87.92C994.208 87.92 987.408 87.16 980.768 85.64C974.208 84.04 968.808 81.92 964.568 79.28L973.688 58.64C977.688 60.96 982.168 62.84 987.128 64.28C992.088 65.64 996.848 66.32 1001.41 66.32C1005.33 66.32 1008.13 65.96 1009.81 65.24C1011.49 64.44 1012.33 63.28 1012.33 61.76C1012.33 60 1011.21 58.68 1008.97 57.8C1006.81 56.92 1003.21 55.96 998.168 54.92C991.688 53.56 986.288 52.12 981.968 50.6C977.648 49 973.888 46.44 970.688 42.92C967.488 39.32 965.888 34.48 965.888 28.4C965.888 23.12 967.368 18.32 970.328 14C973.288 9.68 977.688 6.27999 983.528 3.79999C989.448 1.32 996.608 0.0799975 1005.01 0.0799975C1010.77 0.0799975 1016.41 0.719996 1021.93 1.99999C1027.53 3.19999 1032.45 4.99999 1036.69 7.4L1028.17 27.92C1019.93 23.76 1012.13 21.68 1004.77 21.68C997.488 21.68 993.848 23.44 993.848 26.96C993.848 28.64 994.928 29.92 997.088 30.8C999.248 31.6 1002.81 32.48 1007.77 33.44C1014.17 34.64 1019.57 36.04 1023.97 37.64C1028.37 39.16 1032.17 41.68 1035.37 45.2C1038.65 48.72 1040.29 53.52 1040.29 59.6C1040.29 64.88 1038.81 69.68 1035.85 74C1032.89 78.24 1028.45 81.64 1022.53 84.2C1016.69 86.68 1009.57 87.92 1001.17 87.92Z" fill="#20934A" fill-opacity="0.05"/>
</svg>
