<svg width="90" height="90" viewBox="0 0 90 90" fill="none" xmlns="http://www.w3.org/2000/svg">
<path opacity="0.6" fill-rule="evenodd" clip-rule="evenodd" d="M45.0241 89.976C69.8636 89.976 90 69.8396 90 45.0001C90 20.1606 69.8636 0.0241699 45.0241 0.0241699C28.3268 0.0241699 13.7547 9.123 5.99551 22.6329L4.00727 26.5217C3.28972 28.1119 2.66192 29.7514 2.13036 31.4337C1.89753 32.1793 1.36987 33.9739 1.12189 35.1868C0.418928 38.3456 0.0481567 41.6295 0.0481567 45.0001C0.0481567 49.4125 0.683569 53.6765 1.86787 57.7057C2.16228 58.7676 2.84857 60.6502 3.15491 61.4588C3.8452 63.2134 4.64259 64.9142 5.53905 66.553L7.77432 70.213C15.8626 82.1393 29.5281 89.976 45.0241 89.976ZM45.024 87.0762C68.2299 87.0762 87.0421 68.2641 87.0421 45.0581C87.0421 21.8521 68.2299 3.03997 45.024 3.03997C21.818 3.03997 3.00583 21.8521 3.00583 45.0581C3.00583 68.2641 21.818 87.0762 45.024 87.0762Z" fill="#C5D82E"/>
<circle cx="45.6474" cy="45.0049" r="35.9807" fill="#022426"/>
<path d="M54.3198 40.6202C57.5598 41.4202 60.0398 42.8802 61.7598 45.0002C63.5198 47.0802 64.3998 49.6002 64.3998 52.5602C64.3998 55.0802 63.6998 57.4402 62.2998 59.6402C60.9398 61.8002 58.8198 63.5602 55.9398 64.9202C53.0598 66.2802 49.4798 66.9602 45.1998 66.9602C42.2398 66.9602 39.2798 66.6402 36.3198 66.0002C33.3998 65.3602 30.8398 64.4202 28.6398 63.1802L33.4398 52.7402C35.1598 53.7402 36.9998 54.5002 38.9598 55.0202C40.9598 55.5402 42.8798 55.8002 44.7198 55.8002C46.3598 55.8002 47.6798 55.5202 48.6798 54.9602C49.6798 54.4002 50.1798 53.6002 50.1798 52.5602C50.1798 50.6402 48.5198 49.6802 45.1998 49.6802H39.6198V40.9802L45.7998 34.6802H30.7998V24.0002H62.1198V32.7002L54.3198 40.6202Z" fill="white"/>
</svg>
