<svg width="31" height="31" viewBox="0 0 31 31" fill="none" xmlns="http://www.w3.org/2000/svg">
<path d="M29.4404 12.4645C29.459 12.7322 29.459 12.9999 29.459 13.2694C29.459 21.4341 23.5194 30.8435 12.6652 30.8435C9.32101 30.8435 6.214 29.8294 3.59998 28.0705C4.07602 28.1273 4.53343 28.145 5.02642 28.145C7.78614 28.145 10.3239 27.1698 12.3535 25.5068C9.75809 25.45 7.58454 23.6699 6.83574 21.2214C7.19998 21.2781 7.56591 21.3171 7.94708 21.3171C8.47903 21.3171 9.00929 21.2409 9.50228 21.1079C6.79847 20.5335 4.76892 18.0477 4.76892 15.046C4.76892 15.0265 4.76892 14.9875 4.76892 14.9697C5.55499 15.4272 6.46812 15.7144 7.43715 15.7534C5.84807 14.6435 4.80619 12.7499 4.80619 10.6099C4.80619 9.46275 5.09927 8.40958 5.61089 7.49116C8.51631 11.2411 12.8837 13.6896 17.7814 13.9556C17.6883 13.4964 17.634 13.0176 17.634 12.5389C17.634 9.13652 20.2667 6.36353 23.5364 6.36353C25.2356 6.36353 26.7704 7.10819 27.8496 8.31384C29.1828 8.04612 30.4602 7.53017 31.5953 6.82274C31.1565 8.2571 30.2247 9.46275 28.9999 10.2251C30.1892 10.0922 31.3395 9.74821 32.4 9.2695C31.5953 10.4929 30.5907 11.5851 29.4404 12.4645Z" fill="url(#paint0_linear_1268_139)"/>
<defs>
<linearGradient id="paint0_linear_1268_139" x1="19.0946" y1="7.63853" x2="19.0946" y2="30.8435" gradientUnits="userSpaceOnUse">
<stop stop-color="#90C626"/>
<stop offset="1" stop-color="#20934A"/>
</linearGradient>
</defs>
</svg>
