<svg width="36" height="37" viewBox="0 0 36 37" fill="none" xmlns="http://www.w3.org/2000/svg">
<path fill-rule="evenodd" clip-rule="evenodd" d="M32.4 29.9179V7.28933C32.4 5.58576 31.0178 4.20361 29.3143 4.20361H6.68569C4.98212 4.20361 3.59998 5.58576 3.59998 7.28933V29.9179C3.59998 31.6215 4.98212 33.0036 6.68569 33.0036H29.3143C31.0178 33.0036 32.4 31.6215 32.4 29.9179ZM21.6294 27.7639L16.8026 20.7121L10.6913 27.9039H9.06754L16.1052 19.6932L8.99365 9.30322L14.3706 9.34803L27.0063 27.8088L21.6294 27.7639ZM24.4 26.809L13.0744 10.2623L13.6547 10.3024L24.9803 26.8491L24.4 26.809ZM19.1155 16.2421L24.9219 9.45895H26.4956L19.8209 17.246L19.1155 16.2421Z" fill="url(#paint0_linear_1268_139)"/>
<defs>
<linearGradient id="paint0_linear_1268_139" x1="19.0946" y1="5.70361" x2="19.0946" y2="33.0036" gradientUnits="userSpaceOnUse">
<stop stop-color="#90C626"/>
<stop offset="1" stop-color="#20934A"/>
</linearGradient>
</defs>
</svg>
