<svg width="90" height="90" viewBox="0 0 90 90" fill="none" xmlns="http://www.w3.org/2000/svg">
<path opacity="0.6" fill-rule="evenodd" clip-rule="evenodd" d="M45.0241 89.9518C69.8636 89.9518 90 69.8154 90 44.9759C90 20.1364 69.8636 0 45.0241 0C28.3268 0 13.7547 9.09883 5.99553 22.6087L4.00729 26.4975C3.28973 28.0878 2.66194 29.7273 2.13038 31.4095C1.89755 32.1552 1.36988 33.9497 1.12191 35.1626C0.418943 38.3214 0.048172 41.6054 0.048172 44.9759C0.048172 49.3883 0.683584 53.6524 1.86789 57.6815C2.1623 58.7434 2.84859 60.6261 3.15493 61.4346C3.84522 63.1893 4.64261 64.89 5.53906 66.5288L7.77434 70.1888C15.8626 82.1152 29.5282 89.9518 45.0241 89.9518ZM45.024 87.0521C68.23 87.0521 87.0421 68.2399 87.0421 45.0339C87.0421 21.828 68.23 3.0158 45.024 3.0158C21.818 3.0158 3.00585 21.828 3.00585 45.0339C3.00585 68.2399 21.818 87.0521 45.024 87.0521Z" fill="#C5D82E"/>
<circle cx="45.6474" cy="44.9807" r="35.9807" fill="#022426"/>
<path d="M64.3398 54.9961V65.9761H30.6798V57.2761L45.8598 43.2361C47.1798 41.9961 48.0598 40.9361 48.4998 40.0561C48.9398 39.1761 49.1598 38.3161 49.1598 37.4761C49.1598 36.4361 48.7998 35.6361 48.0798 35.0761C47.3998 34.4761 46.3998 34.1761 45.0798 34.1761C43.7998 34.1761 42.5998 34.5161 41.4798 35.1961C40.3598 35.8761 39.4998 36.8361 38.8998 38.0761L28.2198 32.7361C29.8198 29.7361 32.1598 27.3761 35.2398 25.6561C38.3198 23.8961 42.0398 23.0161 46.3998 23.0161C49.7198 23.0161 52.6598 23.5561 55.2198 24.6361C57.7798 25.7161 59.7798 27.2561 61.2198 29.2561C62.6598 31.2561 63.3798 33.5561 63.3798 36.1561C63.3798 38.4761 62.8798 40.6561 61.8798 42.6961C60.9198 44.6961 59.0198 46.9761 56.1798 49.5361L50.1798 54.9961H64.3398Z" fill="white"/>
</svg>
