<svg width="455" height="166" viewBox="0 0 455 166" fill="none" xmlns="http://www.w3.org/2000/svg">
<path fill-rule="evenodd" clip-rule="evenodd" d="M308.645 106.685C310.849 99.2384 312.032 91.3538 312.032 83.1928C312.032 77.0738 311.367 71.1102 310.105 65.3702H318.018V106.685H308.645ZM306.27 113.571C305.02 116.731 303.581 119.796 301.967 122.752H370.528L384.321 108.885C384.915 105.039 388.224 102.094 392.216 102.094C396.63 102.094 400.207 105.691 400.207 110.128C400.207 114.565 396.63 118.161 392.216 118.161C390.594 118.161 389.084 117.675 387.824 116.84L375.094 129.638L297.756 129.637C282.884 151.488 257.811 165.837 229.387 165.837C200.913 165.837 175.802 151.437 160.939 129.522H80.4978V129.471L80.46 129.528L67.6418 116.71C66.3726 117.547 64.8523 118.034 63.2183 118.034C58.7746 118.034 55.1723 114.432 55.1723 109.988C55.1723 105.544 58.7746 101.942 63.2183 101.942C67.2383 101.942 70.5697 104.89 71.1684 108.742L85.0577 122.632L84.9475 122.797H156.832C155.185 119.786 153.719 116.66 152.451 113.436H131.034V58.264H150.568C151.545 55.1729 152.699 52.1603 154.017 49.2381H130.865L114.942 65.1605L114.942 65.1594V65.1605H88.8807C87.5894 67.8789 84.8187 69.7582 81.609 69.7582C77.1654 69.7582 73.5631 66.1559 73.5631 61.7123C73.5631 57.2686 77.1654 53.6664 81.609 53.6664C84.8187 53.6664 87.5893 55.5457 88.8807 58.264L110.345 58.264L126.314 42.2943V42.0924H157.671C171.928 17.2675 198.705 0.548096 229.387 0.548096C260.202 0.548096 287.079 17.4137 301.289 42.4177H329.434L329.434 42.4179L345.415 58.4845L345.415 58.4848H366.73C368.013 55.7705 370.764 53.8939 373.952 53.8939C378.365 53.8939 381.943 57.4906 381.943 61.9273C381.943 66.364 378.365 69.9607 373.952 69.9607C370.765 69.9607 368.013 68.0844 366.731 65.3705H340.849V65.3703L324.868 49.3035L304.786 49.3035C306.124 52.2747 307.291 55.3393 308.275 58.4847H324.867V113.571H306.27ZM137.931 65.1606H148.715C147.423 70.9649 146.742 76.9993 146.742 83.1928C146.742 91.3008 147.91 99.1361 150.086 106.54H137.931V65.1606ZM81.609 58.264C83.4923 58.264 85.0229 59.7738 85.0567 61.6489V61.7757C85.0229 63.6509 83.4923 65.1606 81.609 65.1606C79.7046 65.1606 78.1608 63.6167 78.1608 61.7123C78.1608 59.8079 79.7046 58.264 81.609 58.264ZM66.6665 109.988C66.6665 111.893 65.1226 113.436 63.2182 113.436C61.3138 113.436 59.77 111.893 59.77 109.988C59.77 108.084 61.3138 106.54 63.2182 106.54C65.1226 106.54 66.6665 108.084 66.6665 109.988ZM73.5624 45.6204C73.5624 50.064 69.9601 53.6663 65.5165 53.6663C61.0728 53.6663 57.4705 50.064 57.4705 45.6204C57.4705 41.1767 61.0728 37.5744 65.5165 37.5744C69.9601 37.5744 73.5624 41.1767 73.5624 45.6204ZM68.9648 45.6204C68.9648 47.5248 67.4209 49.0686 65.5165 49.0686C63.6121 49.0686 62.0682 47.5248 62.0682 45.6204C62.0682 43.716 63.6121 42.1721 65.5165 42.1721C67.4209 42.1721 68.9648 43.716 68.9648 45.6204ZM56.3221 65.1607L91.6837 97.3444L91.9539 96.9818V97.3444H126.436V90.4479H96.1544L60.9198 58.2641L56.3221 65.1607ZM15.3176 74.356H59.7699L66.6664 81.2525H15.3176C14.0263 83.9708 11.2556 85.8502 8.04595 85.8502C3.60229 85.8502 0 82.2479 0 77.8042C0 73.3606 3.60229 69.7583 8.04595 69.7583C11.2556 69.7583 14.0263 71.6376 15.3176 74.356ZM11.4943 77.8042C11.4943 79.7087 9.95043 81.2525 8.04601 81.2525C6.14158 81.2525 4.59774 79.7087 4.59774 77.8042C4.59774 75.8998 6.14158 74.356 8.04601 74.356C9.95043 74.356 11.4943 75.8998 11.4943 77.8042ZM126.436 81.2525H91.9533L85.0568 74.356H126.436V81.2525ZM126.437 106.54H75.8626L82.7591 113.436H126.437V106.54ZM49.7997 58.264H60.9187L56.3211 65.1606H49.7996C48.5083 67.8789 45.7376 69.7582 42.528 69.7582C38.0843 69.7582 34.482 66.1559 34.482 61.7123C34.482 57.2686 38.0843 53.6664 42.528 53.6664C45.7376 53.6664 48.5083 55.5457 49.7997 58.264ZM45.9762 61.7123C45.9762 63.6167 44.4324 65.1606 42.5279 65.1606C40.6235 65.1606 39.0797 63.6167 39.0797 61.7123C39.0797 59.8079 40.6235 58.264 42.5279 58.264C44.4324 58.264 45.9762 59.8079 45.9762 61.7123ZM73.5631 42.1721H119.54L112.643 49.0686H73.5631V42.1721ZM38.3061 90.4479H78.1607L85.0572 97.3444H38.3061C37.0147 100.063 34.244 101.942 31.0344 101.942C26.5908 101.942 22.9885 98.3398 22.9885 93.8961C22.9885 89.4525 26.5908 85.8502 31.0344 85.8502C34.2441 85.8502 37.0147 87.7296 38.3061 90.4479ZM34.4826 93.8962C34.4826 95.8006 32.9388 97.3444 31.0344 97.3444C29.1299 97.3444 27.5861 95.8006 27.5861 93.8962C27.5861 91.9918 29.1299 90.4479 31.0344 90.4479C32.9388 90.4479 34.4826 91.9918 34.4826 93.8962ZM298.432 83.6919C298.432 121.271 267.434 151.734 229.196 151.734C190.958 151.734 159.96 121.271 159.96 83.6919C159.96 46.1131 190.958 15.6494 229.196 15.6494C267.434 15.6494 298.432 46.1131 298.432 83.6919ZM389.934 53.8939C385.521 53.8939 381.943 50.2972 381.943 45.8605C381.943 41.4238 385.521 37.8271 389.934 37.8271C394.347 37.8271 397.925 41.4238 397.925 45.8605C397.925 50.2972 394.347 53.8939 389.934 53.8939ZM389.934 49.3034C388.042 49.3034 386.509 47.762 386.509 45.8605C386.509 43.9591 388.042 42.4177 389.934 42.4177C391.825 42.4177 393.358 43.9591 393.358 45.8605C393.358 47.762 391.825 49.3034 389.934 49.3034ZM370.528 61.9171C370.534 60.0204 372.065 58.4846 373.953 58.4846C375.844 58.4846 377.377 60.0261 377.377 61.9275C377.377 63.829 375.844 65.3704 373.953 65.3704C372.065 65.3704 370.534 63.8346 370.528 61.9379V61.9171ZM405.543 58.4847H394.5H394.5L359.507 90.6181H329.433V97.5039H363.679V97.1413L363.947 97.5039L399.066 65.3704H405.543C406.825 68.0844 409.577 69.9607 412.764 69.9607C417.178 69.9607 420.755 66.364 420.755 61.9273C420.755 57.4906 417.178 53.8939 412.764 53.8939C409.577 53.8939 406.825 55.7705 405.543 58.4847ZM395.641 74.5515H439.788C441.07 71.8373 443.822 69.9609 447.009 69.9609C451.422 69.9609 455 73.5575 455 77.9942C455 82.431 451.422 86.0276 447.009 86.0276C443.822 86.0276 441.07 84.1513 439.788 81.4372H388.792L395.641 74.5515ZM329.433 81.4371H363.679L370.528 74.5513H329.433V81.4371ZM379.659 106.685H329.433V113.571H372.81L379.659 106.685ZM336.282 42.4177H381.943V49.3035H343.131L336.282 42.4177ZM416.957 90.6181H377.377L370.528 97.5039H416.957C418.24 100.218 420.991 102.094 424.179 102.094C428.592 102.094 432.17 98.4978 432.17 94.061C432.17 89.6243 428.592 86.0276 424.179 86.0276C420.991 86.0276 418.24 87.9041 416.957 90.6181ZM409.339 61.9275C409.339 63.829 410.873 65.3704 412.764 65.3704C414.655 65.3704 416.189 63.829 416.189 61.9275C416.189 60.0261 414.655 58.4846 412.764 58.4846C410.873 58.4846 409.339 60.0261 409.339 61.9275ZM447.009 81.4372C445.118 81.4372 443.585 79.8958 443.585 77.9943C443.585 76.0929 445.118 74.5515 447.009 74.5515C448.901 74.5515 450.434 76.0929 450.434 77.9943C450.434 79.8958 448.901 81.4372 447.009 81.4372ZM420.755 94.061C420.755 95.9624 422.288 97.5039 424.179 97.5039C426.07 97.5039 427.604 95.9624 427.604 94.061C427.604 92.1596 426.07 90.6181 424.179 90.6181C422.288 90.6181 420.755 92.1596 420.755 94.061ZM392.217 113.571C390.325 113.571 388.792 112.029 388.792 110.128C388.792 108.226 390.325 106.685 392.217 106.685C394.108 106.685 395.641 108.226 395.641 110.128C395.641 112.029 394.108 113.571 392.217 113.571Z" fill="url(#paint0_radial_894_1662)"/>
<defs>
<radialGradient id="paint0_radial_894_1662" cx="0" cy="0" r="1" gradientUnits="userSpaceOnUse" gradientTransform="translate(224.109 75.4006) rotate(-162.134) scale(214.736 369.821)">
<stop stop-color="#90C626"/>
<stop offset="1" stop-color="#20934A"/>
</radialGradient>
</defs>
</svg>
