<svg width="31" height="31" viewBox="0 0 31 31" fill="none" xmlns="http://www.w3.org/2000/svg">
<path d="M12.7673 12.1347L19.1398 15.756L12.7673 19.3773V12.1347ZM30.2515 3.96155V27.5237C30.2515 29.2975 28.8123 30.7367 27.0385 30.7367H3.47638C1.70253 30.7367 0.263367 29.2975 0.263367 27.5237V3.96155C0.263367 2.1877 1.70253 0.748535 3.47638 0.748535H27.0385C28.8123 0.748535 30.2515 2.1877 30.2515 3.96155ZM27.4401 15.7627C27.4401 15.7627 27.4401 11.7732 26.9314 9.85877C26.6502 8.80115 25.8269 7.97112 24.776 7.68998C22.8816 7.17456 15.2574 7.17456 15.2574 7.17456C15.2574 7.17456 7.63322 7.17456 5.73888 7.68998C4.68796 7.97112 3.86462 8.80115 3.58348 9.85877C3.07475 11.7665 3.07475 15.7627 3.07475 15.7627C3.07475 15.7627 3.07475 19.7522 3.58348 21.6666C3.86462 22.7242 4.68796 23.5208 5.73888 23.8019C7.63322 24.3106 15.2574 24.3106 15.2574 24.3106C15.2574 24.3106 22.8816 24.3106 24.776 23.7952C25.8269 23.5141 26.6502 22.7175 26.9314 21.6599C27.4401 19.7522 27.4401 15.7627 27.4401 15.7627Z" fill="url(#paint0_linear_1086_4454)"/>
<defs>
<linearGradient id="paint0_linear_1086_4454" x1="16.3972" y1="2.31042" x2="16.3972" y2="30.7367" gradientUnits="userSpaceOnUse">
<stop stop-color="#90C626"/>
<stop offset="1" stop-color="#20934A"/>
</linearGradient>
</defs>
</svg>
