<svg width="689" height="111" viewBox="0 0 689 111" fill="none" xmlns="http://www.w3.org/2000/svg">
<path d="M168.938 2.99999V63.75C168.938 78.65 164.388 90.15 155.288 98.25C146.288 106.35 133.638 110.4 117.338 110.4C103.938 110.4 93.0877 107.1 84.7877 100.5C76.5877 107.1 65.7377 110.4 52.2377 110.4C36.0377 110.4 23.3877 106.35 14.2877 98.25C5.2877 90.15 0.787696 78.65 0.787696 63.75V2.99999H36.1877V62.7C36.1877 69.1 37.4377 73.9 39.9377 77.1C42.4377 80.2 46.3377 81.75 51.6377 81.75C56.9377 81.75 60.8377 80.2 63.3377 77.1C65.8377 73.9 67.0877 69.1 67.0877 62.7V2.99999H102.488V62.7C102.488 69.1 103.738 73.9 106.238 77.1C108.838 80.2 112.788 81.75 118.088 81.75C123.388 81.75 127.288 80.2 129.788 77.1C132.288 73.9 133.538 69.1 133.538 62.7V2.99999H168.938ZM235.936 0.599997C246.136 0.599997 255.136 2.65 262.936 6.75C270.736 10.75 276.786 16.65 281.086 24.45C285.486 32.15 287.686 41.35 287.686 52.05V108H252.286V86.85H218.986V108H184.186V52.05C184.186 41.35 186.336 32.15 190.636 24.45C195.036 16.65 201.136 10.75 208.936 6.75C216.736 2.65 225.736 0.599997 235.936 0.599997ZM252.286 60.15V49.05C252.286 42.55 250.736 37.65 247.636 34.35C244.636 30.95 240.636 29.25 235.636 29.25C230.636 29.25 226.586 30.95 223.486 34.35C220.486 37.65 218.986 42.55 218.986 49.05V60.15H252.286ZM303.885 2.99999H339.285V80.55H386.685V108H303.885V2.99999ZM396.463 2.99999H431.863V80.55H479.263V108H396.463V2.99999ZM583.841 101.1C578.241 104 571.491 106.3 563.591 108C555.691 109.6 547.641 110.4 539.441 110.4C527.641 110.4 517.591 109.05 509.291 106.35C501.091 103.55 494.891 99.7 490.691 94.8C486.491 89.8 484.391 84.1 484.391 77.7C484.391 72.4 485.791 67.65 488.591 63.45C491.491 59.25 495.591 56 500.891 53.7C496.891 51.5 493.841 48.65 491.741 45.15C489.741 41.55 488.741 37.6 488.741 33.3C488.741 27.4 490.641 22 494.441 17.1C498.341 12.1 504.241 8.1 512.141 5.09999C520.141 2.1 529.941 0.599997 541.541 0.599997C548.641 0.599997 555.591 1.25 562.391 2.55C569.291 3.75 575.441 5.39999 580.841 7.5L571.241 33.3C561.841 29.5 552.391 27.6 542.891 27.6C536.691 27.6 532.041 28.3 528.941 29.7C525.941 31.1 524.441 33.05 524.441 35.55C524.441 37.65 525.191 39.25 526.691 40.35C528.191 41.45 530.691 42 534.191 42H564.941V68.1H531.791C527.891 68.1 524.941 68.75 522.941 70.05C521.041 71.25 520.091 73 520.091 75.3C520.091 80.7 526.991 83.4 540.791 83.4C546.091 83.4 551.691 82.7 557.591 81.3C563.591 79.8 568.891 77.85 573.491 75.45L583.841 101.1ZM676.923 39.75C668.823 35.25 660.623 32.15 652.323 30.45V108H616.923V30.45C608.623 32.15 600.423 35.25 592.323 39.75L580.623 14.55C588.123 10.05 596.523 6.59999 605.823 4.2C615.123 1.8 624.723 0.599997 634.623 0.599997C644.523 0.599997 654.123 1.8 663.423 4.2C672.723 6.59999 681.123 10.05 688.623 14.55L676.923 39.75Z" fill="#20934A" fill-opacity="0.05"/>
</svg>
