<svg width="36" height="37" viewBox="0 0 36 37" fill="none" xmlns="http://www.w3.org/2000/svg">
<path d="M15.6085 14.9409L21.7285 18.4187L15.6085 21.8966V14.9409ZM32.4 7.09157V29.7201C32.4 31.4237 31.0178 32.8059 29.3143 32.8059H6.68569C4.98212 32.8059 3.59998 31.4237 3.59998 29.7201V7.09157C3.59998 5.388 4.98212 4.00586 6.68569 4.00586H29.3143C31.0178 4.00586 32.4 5.388 32.4 7.09157ZM29.7 18.4251C29.7 18.4251 29.7 14.5937 29.2114 12.7551C28.9414 11.7394 28.1507 10.9423 27.1414 10.6723C25.3221 10.1773 18 10.1773 18 10.1773C18 10.1773 10.6778 10.1773 8.85855 10.6723C7.84926 10.9423 7.05855 11.7394 6.78855 12.7551C6.29998 14.5873 6.29998 18.4251 6.29998 18.4251C6.29998 18.4251 6.29998 22.2566 6.78855 24.0951C7.05855 25.1109 7.84926 25.8759 8.85855 26.1459C10.6778 26.6344 18 26.6344 18 26.6344C18 26.6344 25.3221 26.6344 27.1414 26.1394C28.1507 25.8694 28.9414 25.1044 29.2114 24.0887C29.7 22.2566 29.7 18.4251 29.7 18.4251Z" fill="url(#paint0_linear_1268_141)"/>
<defs>
<linearGradient id="paint0_linear_1268_141" x1="19.0946" y1="5.50586" x2="19.0946" y2="32.8059" gradientUnits="userSpaceOnUse">
<stop stop-color="#90C626"/>
<stop offset="1" stop-color="#20934A"/>
</linearGradient>
</defs>
</svg>
