<svg width="168" height="167" viewBox="0 0 168 167" fill="none" xmlns="http://www.w3.org/2000/svg">
<path fill-rule="evenodd" clip-rule="evenodd" d="M83.8818 167C129.998 167 167.382 129.616 167.382 83.5C167.382 37.3842 129.998 0 83.8818 0C52.8826 0 25.8287 16.8924 11.4234 41.9742L7.73212 49.1939C6.39995 52.1463 5.23443 55.1901 4.24756 58.3133C3.81529 59.6976 2.83566 63.0293 2.37528 65.2811C1.07019 71.1456 0.381836 77.2424 0.381836 83.5C0.381836 91.6919 1.56151 99.6083 3.76023 107.089C4.30681 109.06 5.58094 112.555 6.14968 114.056C7.43123 117.314 8.91164 120.472 10.5759 123.514L14.7258 130.309C29.7421 152.451 55.1129 167 83.8818 167ZM83.6887 152.751C122.323 152.751 153.641 121.972 153.641 84.0044C153.641 46.0367 122.323 15.2578 83.6887 15.2578C45.0549 15.2578 13.736 46.0367 13.736 84.0044C13.736 121.972 45.0549 152.751 83.6887 152.751Z" fill="url(#paint0_linear_630_1823)"/>
<path d="M149.063 87.6671C147.13 121.475 118.602 148.304 83.6932 148.304C47.5327 148.304 18.2189 119.516 18.2189 84.0044C18.2189 48.4927 47.5327 19.7047 83.6932 19.7047C116.472 19.7047 143.626 43.3608 148.417 74.2374H147.197C142.417 44.0171 115.805 20.8882 83.6932 20.8882C48.1983 20.8882 19.424 49.1463 19.424 84.0044C19.424 118.863 48.1983 147.121 83.6932 147.121C117.936 147.121 145.924 120.821 147.856 87.6671H149.063Z" fill="url(#paint1_linear_630_1823)"/>
<path d="M127.418 41.7693C136.105 50.4425 142.138 61.6886 144.221 74.2374H143.077C141.006 62.0004 135.107 51.034 126.631 42.5643C126.238 42.6866 125.792 42.6068 125.465 42.3164L122.099 39.3305C121.762 39.0316 121.638 38.5873 121.737 38.1822C111.368 29.8688 98.1233 24.8829 83.6932 24.8829C83.4161 24.8829 83.1395 24.8847 82.8633 24.8884V25.8147C82.863 25.8147 82.8637 25.8147 82.8633 25.8147L82.8644 26.8265L82.924 26.8851C82.9038 26.8854 82.8836 26.8856 82.8633 26.8859V27.8497C83.1395 27.8459 83.4161 27.8439 83.6932 27.8439L83.6931 28.8776C83.4161 28.8776 83.1395 28.8795 82.8633 28.8835V29.8847C83.1395 29.8807 83.4161 29.8787 83.6932 29.8787L83.6931 30.8749C83.416 30.8749 83.1395 30.877 82.8633 30.881V31.1021H82.294C82.85 31.1212 83.3264 31.4476 83.5526 31.9137C83.5994 31.9136 83.6463 31.9135 83.6932 31.9135V33.1344C83.6931 33.1344 83.6932 33.1344 83.6932 33.1344L83.6929 33.9483C83.6929 33.9483 83.693 33.9483 83.6929 33.9483L83.6932 35.1215C83.6931 35.1215 83.6932 35.1215 83.6932 35.1215L83.6929 35.9831C83.6929 35.9831 83.693 35.9831 83.6929 35.9831L83.6932 37.1086C83.6931 37.1086 83.6932 37.1086 83.6932 37.1086L83.6929 38.0179C83.6929 38.0179 83.693 38.0179 83.6929 38.0179L83.6932 39.0957C83.6931 39.0957 83.6932 39.0957 83.6932 39.0957L83.6929 39.4453C83.6929 40.232 83.0435 40.8699 82.2423 40.8699C81.4411 40.8699 80.7917 40.232 80.7917 39.4453V32.5258C80.7917 31.756 81.4134 31.1288 82.1906 31.1021H81.62V30.9132C81.4129 30.9209 81.2061 30.9297 80.9996 30.9396V29.9422C81.2061 29.9325 81.4129 29.9238 81.62 29.9163V28.9145C81.4129 28.9218 81.2061 28.9303 80.9996 28.9399V27.9051C81.2061 27.8957 81.4129 27.8874 81.62 27.8801V26.9158C81.597 26.9166 81.5741 26.9174 81.5511 26.9182L81.62 26.8281V24.9173C49.3315 25.9904 23.4916 52.0339 23.4916 84.0044C23.4916 115.288 48.2338 140.897 79.5492 142.988V143.014H79.9508C80.2306 143.031 80.5109 143.045 80.7917 143.059V136.909H81.3627C80.5854 136.882 79.9636 136.255 79.9636 135.485V128.566C79.9636 127.779 80.6131 127.141 81.4142 127.141C82.2154 127.141 82.8648 127.779 82.8648 128.566V135.485C82.8648 136.255 82.243 136.882 81.4657 136.909H82.0351V137.109C82.0349 137.109 82.0352 137.109 82.0351 137.109L82.0356 138.106C82.0354 138.106 82.0358 138.106 82.0356 138.106L82.0351 139.108C82.0349 139.108 82.0352 139.108 82.0351 139.108L82.0356 140.142C82.0354 140.142 82.0358 140.142 82.0356 140.142L82.0351 141.106C82.0349 141.106 82.0352 141.106 82.0351 141.106L82.0356 142.177C82.0354 142.177 82.0358 142.177 82.0356 142.177L82.0351 143.104C82.5859 143.119 83.1387 143.126 83.6932 143.126C115.689 143.126 141.855 118.613 143.781 87.6671H144.912C142.984 119.226 116.313 144.235 83.6932 144.235C83.1387 144.235 82.586 144.227 82.0351 144.213V144.235H80.7917V144.168C48.2671 142.681 22.3629 116.313 22.3629 84.0044C22.3629 51.4216 48.708 24.8817 81.62 23.8081V23.7756H82.8633V23.7797C83.1395 23.7761 83.4161 23.7743 83.6932 23.7743C98.4119 23.7743 111.92 28.8663 122.49 37.3542C122.893 37.2096 123.362 37.2837 123.703 37.586L127.069 40.5719C127.42 40.8829 127.54 41.3514 127.418 41.7693Z" fill="url(#paint2_linear_630_1823)"/>
<path d="M79.5492 138.983V140.02C79.5491 140.02 79.5493 140.02 79.5492 140.02L79.5489 140.986C79.5488 140.986 79.549 140.986 79.5489 140.986L79.5492 142.06C48.7552 139.971 24.4348 114.777 24.4348 84.0044C24.4348 52.9566 49.1927 27.5875 80.378 25.8987V26.9714C49.7953 28.6589 25.5255 53.5483 25.5255 84.0045C25.5255 113.908 48.9228 138.445 78.72 140.923V139.955C49.4655 137.481 26.5068 113.376 26.5068 84.0044C26.5068 57.0357 45.8633 34.5069 71.6768 29.0859V29.0659H71.7722C73.1048 28.7884 74.4546 28.5565 75.8197 28.3719L75.8215 33.1362H71.6768V32.1901C70.6945 32.4089 69.7222 32.654 68.761 32.9245L66.703 33.3379V33.5478C45.1476 40.5442 29.5931 60.4904 29.5931 84.0044C29.5931 107.216 44.75 126.951 65.8742 134.185V134.671L74.9909 136.502L79.5492 137.316V137.979C51.046 135.899 28.5788 112.528 28.5788 84.0044C28.5788 58.1647 47.0166 36.5541 71.6768 31.1689V30.1435C46.449 35.5467 27.5593 57.6092 27.5593 84.0044C27.5593 113.081 50.4823 136.901 79.5492 138.983Z" fill="url(#paint3_linear_630_1823)"/>
<path d="M65.8742 133.083C45.3449 125.894 30.6508 106.634 30.6508 84.0044C30.6508 61.0711 45.7415 41.5991 66.703 34.6431V35.934C66.7021 35.9343 66.7012 35.9346 66.7002 35.9349V36.7976C66.7012 36.7973 66.7021 36.7969 66.703 36.7966V38.0432C50.4749 43.8301 38.1805 57.6701 34.8289 74.6443H35.723C39.0415 58.1491 50.9617 44.6898 66.703 38.9611V40.1638C66.7021 40.1641 66.7012 40.1645 66.7002 40.1648V41.1395C66.7012 41.1391 66.7021 41.1388 66.703 41.1384V42.2976C54.1616 47.2294 44.3626 57.4588 40.1758 70.1678H53.028C53.028 69.7183 53.3991 69.3539 53.8568 69.3539H62.1447C62.6024 69.3539 62.9735 69.7183 62.9735 70.1678H69.6038V71.3887H62.9735C62.9735 71.8382 62.6024 72.2026 62.1447 72.2026H53.8568C53.3991 72.2026 53.028 71.8382 53.028 71.3887H38.6507C42.5886 57.803 52.7276 46.7823 65.8713 41.4657V40.4837C51.1788 46.2918 40.1048 59.0675 36.892 74.6443H53.028C53.028 74.1948 53.3991 73.8304 53.8568 73.8304H62.1447C62.6024 73.8304 62.9735 74.1948 62.9735 74.6443H69.6038V75.8652H62.9735C62.9735 76.3147 62.6024 76.6791 62.1447 76.6791H53.8568C53.3991 76.6791 53.028 76.3147 53.028 75.8652H33.3931C36.3719 57.9758 49.0073 43.275 65.8713 37.0934V36.2253C47.5317 42.8248 34.0502 59.3175 32.1295 79.1209H53.028C53.028 78.6714 53.3991 78.307 53.8568 78.307H62.1447C62.6024 78.307 62.9735 78.6714 62.9735 79.1209H69.6038V80.3418H62.9735C62.9735 80.7913 62.6024 81.1557 62.1447 81.1557H53.8568C53.3991 81.1557 53.028 80.7913 53.028 80.3418H32.0261C31.9385 81.5515 31.8939 82.7728 31.8939 84.0044C31.8939 105.644 45.6519 124.127 65.0462 131.479V130.605C46.1196 123.295 32.7227 105.186 32.7227 84.0044C32.7227 83.8687 32.7233 83.733 32.7244 83.5975H53.028C53.028 83.148 53.3991 82.7835 53.8568 82.7835H62.1447C62.6024 82.7835 62.9735 83.148 62.9735 83.5975H69.6038V84.8184H62.9735C62.9735 85.2679 62.6024 85.6323 62.1447 85.6323H53.8568C53.3991 85.6323 53.028 85.2679 53.028 84.8184H35.9478C36.278 103.872 48.1786 120.157 65.0462 127.19V126.2C49.0619 119.378 37.7104 104.053 36.9117 86.0392H38.0103C38.8148 103.757 50.0731 118.804 65.8742 125.376L65.8752 127.958L65.8742 128.738C47.9231 121.836 35.1399 104.814 34.8016 84.8184H33.9241C34.2645 105.298 47.4289 122.715 65.8742 129.662V133.083Z" fill="url(#paint4_linear_630_1823)"/>
<path d="M97.3681 126.871C112.855 122.111 124.799 109.48 128.343 93.7485L130.051 90.5322C127.516 108.055 114.923 122.397 98.1956 127.743V128.698C115.443 123.306 128.438 108.551 130.989 90.5158H132.146C129.531 109.463 115.663 124.9 97.3681 130.123V126.871Z" fill="url(#paint5_linear_630_1823)"/>
<path d="M129.921 72.2026H131.104C126.931 55.9859 114.358 43.0533 98.1969 38.1307L98.1963 40.8678L98.1969 41.4016C111.5 45.7675 122.08 55.9748 126.78 68.9231L128.734 71.3838C124.55 56.9543 113.37 45.419 99.0252 40.5395V39.5781C114.153 44.6115 125.878 56.8876 129.921 72.2026Z" fill="url(#paint6_linear_630_1823)"/>
<path d="M77.4772 35.5762H69.1894V50.3913H62.5015V62.6489H98.874V90.3531C98.874 100.917 93.3182 109.188 81.4132 109.188C69.6073 109.188 63.8532 103.109 63.8532 91.1503H50.956C50.956 105.588 57.7552 115.171 68.3606 119.274V132.84H76.6485V121.276C78.19 121.455 79.7802 121.545 81.4132 121.545C82.9118 121.545 84.3631 121.465 85.7651 121.307V132.84H94.8818V118.951C105.785 114.266 111.97 103.633 111.97 90.3531V50.3913H95.7106V35.5762H86.5939V50.3913H77.4772V35.5762Z" fill="url(#paint7_linear_630_1823)"/>
<path d="M90.7379 69.3539H72.0901V88.4752C71.8206 89.3144 71.6757 90.2044 71.6757 91.1262C71.6757 96.1833 76.0357 100.283 81.414 100.283C86.7923 100.283 91.1522 96.1833 91.1522 91.1262C91.1522 90.2044 91.0074 89.3144 90.7379 88.4752V69.3539Z" fill="url(#paint8_linear_630_1823)"/>
<path fill-rule="evenodd" clip-rule="evenodd" d="M83.6932 150.339C120.583 150.339 150.565 121.298 151.228 85.2253H149.156C149.163 84.8193 149.167 84.4123 149.167 84.0044C149.167 83.5966 149.163 83.1896 149.156 82.7835H144.609V81.5627H147.048C147.015 80.7446 146.967 79.9306 146.903 79.1209H148.981C148.919 78.3026 148.841 77.4886 148.747 76.6791H150.832C147.12 43.4905 118.477 17.6699 83.6932 17.6699C46.3884 17.6699 16.147 47.3689 16.147 84.0044C16.147 120.64 46.3884 150.339 83.6932 150.339ZM147.951 85.2253C147.958 84.8193 147.962 84.4123 147.962 84.0044H144.609V85.2253H147.951ZM92.9055 145.617C89.898 146.047 86.8221 146.269 83.6932 146.269C48.6771 146.269 20.2909 118.392 20.2909 84.0044C20.2909 78.2694 21.0804 72.7155 22.5586 67.4417C22.2402 67.2479 22.0862 66.8587 22.2092 66.4941L23.8671 61.5803C23.9927 61.2079 24.3658 60.9844 24.7475 61.0275C34.0578 38.0116 56.9405 21.7395 83.6932 21.7395C115.757 21.7395 142.262 45.114 146.503 75.4583H149.43C145.169 43.5357 117.362 18.8908 83.6932 18.8908C47.075 18.8908 17.3902 48.0432 17.3902 84.0044C17.3902 119.966 47.075 149.118 83.6932 149.118C119.479 149.118 148.643 121.276 149.95 86.4462H147.048C145.949 114.433 126.04 137.683 99.385 144.348C99.2544 144.741 98.916 145.054 98.4732 145.138L94.0191 145.982C93.5935 146.062 93.1771 145.911 92.9055 145.617ZM92.644 144.496C89.7211 144.909 86.7326 145.123 83.6932 145.123C49.3215 145.123 21.4578 117.759 21.4578 84.0044C21.4578 78.3911 22.2283 72.9546 23.6712 67.7912C24.0275 67.8011 24.3632 67.5827 24.481 67.2334L26.1389 62.3196C26.2541 61.9782 26.1264 61.6152 25.8482 61.4113C34.9972 38.8397 57.448 22.8855 83.6932 22.8855C115.111 22.8855 141.092 45.749 145.325 75.4583H142.317C138.127 47.4999 113.693 26.0095 84.1075 25.8105V26.8816C113.089 27.0802 137.034 48.0937 141.214 75.4583H138.393V74.6443C138.393 74.2914 138.164 73.991 137.845 73.8781C133.573 51.7152 115.544 34.3312 92.8075 30.6154V29.6006C116.231 33.3565 134.782 51.3493 138.949 74.2374H140.018C135.59 49.4433 114.602 30.2474 88.6659 28.0533V28.6593H88.6629V32.7296H92.8075V31.6257C114.966 35.3177 132.539 52.2416 136.802 73.8304H135.724C131.847 54.5993 117.191 39.1757 98.1969 33.8848L98.1963 36.3914L98.1969 37.2292C114.844 42.201 127.794 55.5087 132.009 72.2026H133.239C129.039 55.1366 115.934 41.4834 99.0252 36.2525V35.3996C116.927 40.8399 130.679 55.5566 134.456 73.8304H133.835C133.377 73.8304 133.006 74.1948 133.006 74.6443V75.4583H130.934L123.475 67.3191H119.331V66.0982H115.187V70.1678H119.331V68.5399H123.475L130.934 76.6791H133.006V77.9H130.52L125.961 73.4235H119.331V72.2026H115.187V76.2722H119.331V74.6443H125.961L130.52 79.1209H133.006V80.3418H119.331V79.1209H115.187V83.1905H119.331V81.5627H133.006V82.7835H130.52L125.961 87.2601H119.331V86.0392H115.187V90.1088H119.331V88.481H125.961L130.52 84.0044H133.006V85.2253H130.934L125.961 93.3645H119.331V91.7367H115.187V95.8063H119.331V94.5854H125.961L130.934 86.4462H133.006V88.074C133.006 88.5235 133.377 88.8879 133.835 88.8879H135.257C133.222 109.868 118.212 127.132 98.1956 132.854V132.005C117.231 126.467 131.619 110.306 134.236 90.5158H133.031C130.398 109.941 116.15 125.761 97.3681 131.019L97.3667 133.655L97.3681 134.348C118.488 128.829 134.428 110.834 136.506 88.8879H137.568C135.076 115.741 112.237 136.82 84.3189 137.13L83.2788 137.316V138.129L83.5463 138.13L83.6932 138.13C113.299 138.13 137.452 115.206 138.752 86.4462H139.333C139.476 86.6895 139.744 86.8531 140.051 86.8531H141.79C140.285 116.944 115.071 140.915 84.1078 141.127V140.163C114.249 139.953 138.847 116.843 140.76 87.6671H139.705C137.786 116.405 113.442 139.131 83.6931 139.131C83.5549 139.131 83.4168 139.131 83.2788 139.13V140.163C83.2787 140.163 83.2788 140.163 83.2788 140.163V142.198C83.4168 142.199 83.5549 142.2 83.6932 142.2C115.448 142.2 141.369 117.67 142.882 86.8531H143.78C144.087 86.8531 144.355 86.6895 144.498 86.4462H145.88C144.782 113.877 125.277 136.663 99.1578 143.222C98.8872 142.91 98.4585 142.747 98.02 142.83L93.5659 143.673C93.1112 143.759 92.7665 144.088 92.644 144.496ZM139.222 85.2253V84.0044H138.393V85.2253H139.222ZM139.222 82.7835H138.794C138.785 82.3755 138.771 81.9685 138.752 81.5627H139.222V82.7835ZM139.333 80.3418H138.683C138.656 79.9336 138.623 79.5266 138.586 79.1209H145.852V80.3418H144.498C144.355 80.0985 144.087 79.9348 143.78 79.9348H140.051C139.744 79.9348 139.476 80.0985 139.333 80.3418ZM147.666 77.9C147.626 77.4919 147.582 77.0849 147.534 76.6791H138.393V77.9H147.666Z" fill="url(#paint9_linear_630_1823)"/>
<path d="M82.1691 157.521L81.6353 157.503C81.571 157.5 81.5372 157.531 81.5351 157.595L81.3907 161.721L79.6569 161.66L79.8204 156.989C79.8291 156.737 79.9287 156.524 80.1161 156.352C80.305 156.176 80.6481 156.097 81.148 156.115L82.2169 156.152L82.1691 157.521Z" fill="#012426"/>
<path d="M62.0098 152.879L60.4646 158.256L62.1321 158.733L62.8239 156.326L62.9519 158.968L64.5481 159.424L66.0935 154.047L64.4258 153.57L63.7352 155.973L63.6059 153.335L62.0098 152.879Z" fill="#012426"/>
<path fill-rule="evenodd" clip-rule="evenodd" d="M51.547 148.597C51.3911 148.565 51.2096 148.588 51.0026 148.665C50.592 148.817 50.2594 149.166 50.0059 149.709L49.0402 151.775C48.7867 152.318 48.7328 152.796 48.8793 153.208C48.9532 153.416 49.0526 153.569 49.1777 153.667L52.055 155.006L54.4243 149.936L51.547 148.597ZM51.8153 149.933C51.8413 149.877 51.8814 149.863 51.9375 149.889L52.4261 150.116L50.9086 153.363L50.4201 153.136C50.364 153.11 50.3495 153.07 50.3756 153.014L51.8153 149.933Z" fill="#012426"/>
<path d="M47.4047 152.8L44.6968 151.24L45.2006 150.369L46.4063 151.064L46.9928 150.05L45.7871 149.356L46.2835 148.498L47.489 149.192L48.2016 147.961L46.9959 147.266L47.4999 146.395L50.2078 147.955L47.4047 152.8Z" fill="#012426"/>
<path d="M41.6457 149.374C41.2274 149.103 40.9906 148.841 40.9378 148.59C40.8841 148.342 40.9284 148.11 41.0692 147.894L41.7161 146.9L43.1712 147.843L42.6189 148.692C42.5839 148.745 42.592 148.788 42.6439 148.822L43.0189 149.065C43.0706 149.098 43.1132 149.088 43.1481 149.034L45.0035 146.184C45.0357 146.134 45.0263 146.094 44.9743 146.06L44.5994 145.817C44.5476 145.783 44.5064 145.791 44.4743 145.841L43.9172 146.697L42.4621 145.754L43.1138 144.752C43.2518 144.541 43.4449 144.408 43.6933 144.356C43.9452 144.302 44.2808 144.411 44.6993 144.682L45.9692 145.505C46.3898 145.778 46.6267 146.039 46.6771 146.289C46.733 146.538 46.6237 146.872 46.3521 147.29L44.7095 149.814C44.4349 150.235 44.1723 150.473 43.9216 150.523C43.6721 150.579 43.3363 150.47 42.9159 150.197L41.6457 149.374Z" fill="#012426"/>
<path d="M39.8432 148.235L37.3135 146.401L37.9061 145.587L39.0323 146.404L39.7216 145.457L38.5953 144.64L39.179 143.839L40.3052 144.655L41.1427 143.505L40.0165 142.689L40.6088 141.875L43.1385 143.709L39.8432 148.235Z" fill="#012426"/>
<path d="M36.9125 138.919L33.3843 143.266L34.7326 144.356L36.3119 142.409L35.3955 144.891L36.6859 145.934L40.2139 141.586L38.8658 140.497L37.2888 142.44L38.2029 139.962L36.9125 138.919Z" fill="#012426"/>
<path d="M32.6635 142.83L29.6686 139.944L30.3685 139.22L31.2421 140.062L34.4365 136.762L35.6844 137.964L32.4901 141.264L33.3637 142.106L32.6635 142.83Z" fill="#012426"/>
<path fill-rule="evenodd" clip-rule="evenodd" d="M27.1949 137.442C26.8547 137.078 26.6884 136.767 26.6981 136.51C26.708 136.255 26.8975 135.957 27.2643 135.616L27.3831 135.505C27.7037 135.207 27.9582 135.044 28.1472 135.016C28.331 134.99 28.5924 135.107 28.9318 135.369C28.6948 135.012 28.5972 134.742 28.6384 134.559C28.6796 134.373 28.7706 134.214 28.9107 134.084L29.7749 133.28C30.0661 133.009 30.2593 132.788 30.3517 132.618L31.5348 133.884C31.4277 134.068 31.2217 134.301 30.9176 134.583L30.048 135.393C30.0193 135.419 30.0129 135.453 30.0265 135.493L30.4167 135.911L32.028 134.411L33.2111 135.677L29.111 139.492L27.1949 137.442ZM28.3046 137.015C28.2577 137.059 28.2552 137.102 28.2972 137.147L28.6649 137.541L29.7284 136.551L29.3607 136.158C29.3185 136.113 29.2748 136.112 29.2306 136.153L28.3046 137.015Z" fill="#012426"/>
<path fill-rule="evenodd" clip-rule="evenodd" d="M25.0041 135.044L30.136 132.444L29.0987 131.21L27.9242 131.877L27.2651 131.093L28.1237 130.051L27.0896 128.821L23.6322 133.412L25.0041 135.044ZM27.0437 132.382L25.4685 133.265L26.6145 131.872L27.0437 132.382Z" fill="#012426"/>
<path d="M22.4583 132.017L21.3903 130.653L24.7261 128.052L23.8691 126.958L24.9511 126.114L26.8761 128.573L22.4583 132.017Z" fill="#012426"/>
<path d="M20.1391 128.983L19.1441 127.565L23.7364 124.356L24.7314 125.774L20.1391 128.983Z" fill="#012426"/>
<path d="M18.7276 126.986L19.8975 126.256L19.0571 124.914L23.5294 124.097L21.478 120.821L20.3133 121.547L21.0737 122.762L16.6587 123.682L18.7276 126.986Z" fill="#012426"/>
<path d="M16.3022 123.192L14.7863 120.463L15.6678 119.976L16.3428 121.191L17.3684 120.623L16.6937 119.409L17.5619 118.928L18.2367 120.143L19.483 119.454L18.8082 118.239L19.6896 117.751L21.2055 120.48L16.3022 123.192Z" fill="#012426"/>
<path fill-rule="evenodd" clip-rule="evenodd" d="M18.0487 114.41C17.9457 114.289 17.7891 114.195 17.5783 114.129C17.1604 113.997 16.6831 114.067 16.1488 114.339L14.1127 115.374C13.5782 115.646 13.2406 115.99 13.1017 116.405C13.0318 116.614 13.0156 116.796 13.0534 116.95L14.4947 119.772L19.49 117.233L18.0487 114.41ZM17.4359 115.628C17.4909 115.6 17.5316 115.613 17.5596 115.668L17.8044 116.147L14.6052 117.774L14.3604 117.294C14.3324 117.239 14.3458 117.199 14.4006 117.171L17.4359 115.628Z" fill="#012426"/>
<path fill-rule="evenodd" clip-rule="evenodd" d="M15.5374 108.381C15.4476 108.25 15.3017 108.141 15.099 108.053C14.6973 107.878 14.2152 107.898 13.6553 108.113L11.5218 108.93C10.9619 109.144 10.5903 109.451 10.4086 109.849C10.3172 110.05 10.282 110.229 10.3035 110.386L11.4412 113.344L16.675 111.339L15.5374 108.381ZM14.8005 109.528C14.8582 109.506 14.8971 109.523 14.9193 109.581L15.1125 110.083L11.7605 111.367L11.5672 110.865C11.5451 110.807 11.5626 110.768 11.6201 110.746L14.8005 109.528Z" fill="#012426"/>
<path d="M9.77489 108.764L9.23871 107.118L14.5706 105.389L15.1068 107.035L9.77489 108.764Z" fill="#012426"/>
<path d="M8.20495 103.66C8.07573 103.179 8.07523 102.826 8.20462 102.604C8.33334 102.384 8.64107 102.209 9.12532 102.08L9.96015 101.856L10.4091 103.529L9.39909 103.799C9.33827 103.815 9.31437 103.852 9.33052 103.912L9.44622 104.343C9.46221 104.402 9.50161 104.423 9.56243 104.407L12.8543 103.527C12.9102 103.512 12.9316 103.475 12.9156 103.415L12.7999 102.984C12.7839 102.925 12.7468 102.904 12.6909 102.919L11.6249 103.204L11.706 103.506L11.1001 103.668L10.5698 101.693L13.2859 100.967L13.4158 101.451L12.9499 101.751C13.2894 101.713 13.5429 101.983 13.7132 102.558L14.0122 103.671C14.1419 104.155 14.1439 104.507 14.0161 104.726C13.8882 104.949 13.5818 105.124 13.0999 105.253L10.1868 106.032C9.70253 106.161 9.348 106.163 9.12549 106.033C8.90265 105.908 8.72661 105.603 8.5969 105.119L8.20495 103.66Z" fill="#012426"/>
<path d="M7.76586 101.726L7.37572 100.039L12.8383 98.7809L13.2286 100.467L7.76586 101.726Z" fill="#012426"/>
<path d="M7.20068 99.3937L6.4776 95.3022L7.47016 95.1277L7.68114 96.3211L12.2097 95.5242L12.511 97.2289L7.98244 98.0257L8.19325 99.219L7.20068 99.3937Z" fill="#012426"/>
<path fill-rule="evenodd" clip-rule="evenodd" d="M6.26481 93.8893L11.9881 94.4977L11.7915 92.8995L10.4426 92.8202L10.3176 91.8046L11.6066 91.3971L11.4106 89.8038L6.00472 91.7757L6.26481 93.8893ZM9.4281 92.7659L7.62526 92.65L9.34667 92.1046L9.4281 92.7659Z" fill="#012426"/>
<path d="M5.8277 89.9153L5.70655 88.1885L9.92949 87.8939L9.83241 86.5082L11.2021 86.4126L11.4203 89.5251L5.8277 89.9153Z" fill="#012426"/>
<path d="M5.7031 81.0973C5.72057 80.5998 5.82325 80.2627 6.01213 80.088C6.19707 79.9145 6.41925 79.8329 6.67737 79.842L7.86475 79.8833L7.80426 81.6134L6.7906 81.578C6.72648 81.5759 6.69384 81.6048 6.6917 81.6665L6.67605 82.1124C6.6739 82.174 6.70439 82.2051 6.76867 82.2074L10.1731 82.326C10.2323 82.3281 10.2623 82.299 10.2644 82.2373L10.2801 81.7915C10.2822 81.7298 10.2542 81.6987 10.1952 81.6967L9.17279 81.6611L9.23344 79.9309L10.4294 79.9727C10.6824 79.9814 10.896 80.0783 11.0684 80.2641C11.2448 80.4515 11.3234 80.795 11.3061 81.2925L11.2532 82.8028C11.2357 83.3027 11.1332 83.6398 10.9443 83.8119C10.7592 83.988 10.416 84.0665 9.91729 84.0492L6.90334 83.9441C6.39948 83.9265 6.06028 83.8242 5.88787 83.6357C5.71168 83.4511 5.63273 83.1075 5.65036 82.6075L5.7031 81.0973Z" fill="#012426"/>
<path d="M6.07576 74.9304L10.3743 75.3056C10.8713 75.3491 11.2024 75.4675 11.3649 75.6622C11.5312 75.8584 11.5917 76.2056 11.5482 76.7016L11.4162 78.2069C11.3725 78.7052 11.2525 79.0366 11.0547 79.1986C10.8607 79.3647 10.5139 79.4252 10.0168 79.3818L5.71841 79.0065L5.86955 77.2821L10.3513 77.6734C10.4154 77.679 10.4495 77.6505 10.4551 77.5865L10.4937 77.1458C10.4991 77.0845 10.4704 77.0517 10.4063 77.0461L5.92461 76.6549L6.07576 74.9304Z" fill="#012426"/>
<path fill-rule="evenodd" clip-rule="evenodd" d="M6.54006 71.3404C6.60962 70.8475 6.74692 70.5228 6.95311 70.3689C7.15782 70.2159 7.50972 70.1751 8.00617 70.2447L8.16704 70.2674C8.60135 70.3282 8.88814 70.4231 9.02889 70.5521C9.1652 70.6779 9.23822 70.9547 9.24795 71.3825C9.37667 70.9741 9.52567 70.7284 9.69395 70.6453C9.86504 70.5602 10.0459 70.5309 10.2356 70.5573L11.4056 70.7215C11.8001 70.7767 12.0936 70.7876 12.2843 70.7522L12.0429 72.4662C11.8322 72.4988 11.521 72.4858 11.1095 72.4281L9.9318 72.263C9.89306 72.2575 9.8629 72.2735 9.83999 72.3097L9.76038 72.8748L11.9423 73.1808L11.7008 74.8948L6.1491 74.1163L6.54006 71.3404ZM7.57137 71.9319C7.50758 71.923 7.4723 71.9484 7.46373 72.0095L7.38857 72.5422L8.82847 72.7442L8.90347 72.2113C8.91204 72.1503 8.885 72.1161 8.82517 72.1077L7.57137 71.9319Z" fill="#012426"/>
<path fill-rule="evenodd" clip-rule="evenodd" d="M7.59477 66.1505C7.71542 65.6674 7.88617 65.3589 8.1072 65.2274C8.32691 65.0966 8.68112 65.0928 9.16752 65.2137L9.32525 65.253C9.75066 65.3587 10.0261 65.4831 10.1525 65.6262C10.275 65.7653 10.3185 66.0482 10.2834 66.4748C10.4541 66.082 10.6282 65.8533 10.804 65.7882C10.9832 65.7212 11.1662 65.711 11.3521 65.7572L12.4986 66.0424C12.8849 66.1386 13.1758 66.1799 13.3692 66.1646L12.9495 67.8441C12.7366 67.8546 12.4284 67.809 12.025 67.7087L10.8713 67.4217C10.8334 67.4122 10.8016 67.425 10.775 67.4586L10.6366 68.0123L12.7745 68.5442L12.3549 70.2238L6.91504 68.8705L7.59477 66.1505ZM8.55832 66.8463C8.49602 66.8308 8.45811 66.8524 8.44311 66.9122L8.31274 67.4343L9.72347 67.7852L9.85385 67.2632C9.86884 67.2033 9.8456 67.1665 9.78692 67.152L8.55832 66.8463Z" fill="#012426"/>
<path d="M8.05529 64.0834L8.91714 61.0843L9.88597 61.3615L9.50227 62.6966L10.6297 63.0193L11.0134 61.684L11.9677 61.9571L11.584 63.2923L12.9537 63.6842L13.3374 62.349L14.3062 62.6262L13.4443 65.6254L8.05529 64.0834Z" fill="#012426"/>
<path d="M15.8381 58.1521L10.5372 56.3309L9.97252 57.9674L12.3453 58.7826L9.69478 58.7721L9.15416 60.3386L14.455 62.1598L15.0199 60.5233L12.6506 59.7092L15.2976 59.7186L15.8381 58.1521Z" fill="#012426"/>
<path d="M11.8365 52.9445C12.0234 52.483 12.2355 52.2011 12.4727 52.1014C12.7061 52.0016 12.9428 52.0008 13.1823 52.0973L14.2838 52.5414L13.6339 54.1465L12.6936 53.7674C12.6341 53.7434 12.5935 53.7595 12.5705 53.8168L12.4028 54.2304C12.3798 54.2876 12.3976 54.3272 12.4572 54.3513L15.6157 55.6245C15.6706 55.6467 15.7089 55.6296 15.7319 55.5724L15.8994 55.1588C15.9226 55.1015 15.907 55.0629 15.8521 55.0407L14.9037 54.6583L15.5536 53.0533L16.6633 53.5007C16.8981 53.5952 17.0655 53.759 17.1637 53.9926C17.2653 54.2287 17.2214 54.5785 17.0345 55.04L16.4672 56.441C16.2795 56.905 16.0675 57.1869 15.831 57.2839C15.5968 57.3862 15.2473 57.3429 14.7849 57.1565L11.9885 56.0292C11.5212 55.8408 11.2374 55.6288 11.14 55.3929C11.0378 55.1591 11.0815 54.8094 11.2692 54.3455L11.8365 52.9445Z" fill="#012426"/>
<path d="M16.1216 51.2311L12.6972 50.9204L13.4684 49.4732L15.3667 49.8468L13.9935 48.4876L14.7643 47.0413L16.9378 49.6993L19.0892 50.8407L18.2728 52.3725L16.1216 51.2311Z" fill="#012426"/>
<path d="M73.866 161.117C73.3721 161.048 73.0467 160.911 72.8924 160.705C72.7388 160.504 72.6808 160.274 72.7167 160.019L72.8821 158.845L74.6 159.086L74.4589 160.088C74.45 160.152 74.4754 160.187 74.5367 160.196L74.9794 160.258C75.0407 160.266 75.0749 160.239 75.0839 160.176L75.5579 156.81C75.5662 156.752 75.5403 156.719 75.4792 156.71L75.0363 156.648C74.9751 156.639 74.9412 156.664 74.9329 156.722L74.7907 157.733L73.0726 157.492L73.2392 156.31C73.2743 156.06 73.3932 155.858 73.5965 155.706C73.8016 155.551 74.1523 155.508 74.6463 155.578L76.146 155.788C76.6425 155.858 76.9678 155.995 77.1197 156.2C77.2757 156.402 77.3181 156.751 77.2487 157.244L76.8289 160.224C76.7589 160.722 76.6214 161.048 76.4154 161.199C76.213 161.355 75.8622 161.397 75.3658 161.328L73.866 161.117Z" fill="#012426"/>
<path fill-rule="evenodd" clip-rule="evenodd" d="M68.9983 160.383C68.5085 160.288 68.1908 160.134 68.0474 159.92C67.9047 159.711 67.8823 159.358 67.9784 158.865L68.554 155.911C68.6491 155.422 68.8018 155.106 69.0128 154.965C69.2259 154.82 69.5783 154.797 70.068 154.892L71.5546 155.18C72.0467 155.275 72.3645 155.429 72.5053 155.642C72.6505 155.852 72.6745 156.203 72.5794 156.691L72.0039 159.645C71.9078 160.139 71.7534 160.458 71.5399 160.598C71.3294 160.743 70.977 160.767 70.4849 160.671L68.9983 160.383ZM69.6428 159.394C69.6316 159.452 69.6556 159.486 69.7163 159.498L70.1552 159.583C70.2159 159.594 70.251 159.572 70.2623 159.514L70.9124 156.177C70.9246 156.114 70.901 156.078 70.8404 156.066L70.4013 155.981C70.3406 155.969 70.305 155.994 70.2928 156.057L69.6428 159.394Z" fill="#012426"/>
<path d="M67.0374 159.963L65.347 159.574L66.6082 154.123L68.2985 154.513L67.0374 159.963Z" fill="#012426"/>
<path d="M22.5068 42.2298L22.8208 41.7986C22.8585 41.7467 22.8521 41.7019 22.8004 41.6642L19.4531 39.2376L20.4727 37.8373L24.2623 40.5845C24.4671 40.733 24.5884 40.9343 24.6264 41.1856C24.667 41.4402 24.5404 41.7679 24.2464 42.1717L23.6177 43.0351L22.5068 42.2298Z" fill="#012426"/>
<path d="M23.8727 33.4249C24.1867 33.0381 24.4722 32.8303 24.7283 32.8044C24.9806 32.7769 25.2073 32.8452 25.408 33.0073L26.3312 33.7533L25.2394 35.0986L24.4512 34.4618C24.4013 34.4215 24.3579 34.4251 24.319 34.473L24.0375 34.8198C23.9986 34.8677 24.0042 34.9109 24.0542 34.9512L26.7016 37.0904C26.7476 37.1275 26.7891 37.1223 26.828 37.0744L27.1093 36.7276C27.1482 36.6797 27.1446 36.6381 27.0986 36.6009L26.3037 35.9587L27.3956 34.6133L28.3257 35.3649C28.5224 35.5237 28.6344 35.7293 28.6602 35.9813C28.688 36.2368 28.5436 36.5583 28.2296 36.9453L27.2766 38.1196C26.961 38.5084 26.6758 38.7162 26.4212 38.7401C26.1672 38.7695 25.8458 38.6261 25.458 38.3128L23.1142 36.419C22.7224 36.1026 22.5132 35.8171 22.4893 35.563C22.4598 35.3098 22.6041 34.9881 22.9197 34.5991L23.8727 33.4249Z" fill="#012426"/>
<path fill-rule="evenodd" clip-rule="evenodd" d="M27.2758 29.6915C27.6224 29.3333 27.9249 29.1512 28.1823 29.1476C28.4362 29.1422 28.7447 29.3155 29.1073 29.6648L31.2769 31.7553C31.6357 32.1011 31.8183 32.4011 31.8218 32.6544C31.8272 32.9113 31.6553 33.2191 31.3087 33.5773L30.2566 34.6643C29.9084 35.0241 29.6061 35.2063 29.3504 35.208C29.0948 35.2152 28.7871 35.0445 28.4283 34.6986L26.2587 32.6082C25.8961 32.2588 25.7126 31.9562 25.711 31.7012C25.7037 31.4462 25.8756 31.1382 26.2239 30.7784L27.2758 29.6915ZM27.7563 30.7695C27.7136 30.7284 27.6719 30.73 27.6289 30.7744L27.3183 31.0953C27.2753 31.1397 27.2753 31.1815 27.3178 31.2224L29.7682 33.5836C29.8146 33.6281 29.8581 33.6283 29.9011 33.5841L30.2116 33.2631C30.2546 33.2187 30.2528 33.1752 30.2067 33.1307L27.7563 30.7695Z" fill="#012426"/>
<path d="M28.7998 28.1936L30.0684 27.0131L33.892 31.1042L32.6231 32.2847L28.7998 28.1936Z" fill="#012426"/>
<path d="M37.4574 27.911L33.8539 23.6257L32.5249 24.7384L34.138 26.6565L31.8716 25.2854L30.5996 26.3504L34.2031 30.6356L35.5321 29.5229L33.9215 27.6076L36.1855 28.9759L37.4574 27.911Z" fill="#012426"/>
<path fill-rule="evenodd" clip-rule="evenodd" d="M45.0113 22.3486C45.1233 22.2358 45.2033 22.0719 45.2512 21.8566C45.3463 21.4298 45.2344 20.9614 44.9166 20.4541L43.7057 18.5203C43.3877 18.0128 43.0151 17.7072 42.5889 17.6053C42.3739 17.554 42.1911 17.5538 42.0403 17.6048L39.3479 19.2834L42.3189 24.0275L45.0113 22.3486ZM43.7424 21.8457C43.7751 21.898 43.7655 21.9395 43.7131 21.9722L43.2559 22.2572L41.3532 19.2191L41.8104 18.9339C41.8628 18.9012 41.9045 18.9111 41.9372 18.9632L43.7424 21.8457Z" fill="#012426"/>
<path d="M43.5447 16.6575L46.2796 15.145L46.7681 16.0245L45.5505 16.6979L46.1192 17.7214L47.3367 17.0481L47.818 17.9145L46.6005 18.5878L47.2912 19.8313L48.5088 19.1579L48.9975 20.0375L46.2627 21.55L43.5447 16.6575Z" fill="#012426"/>
<path d="M49.339 13.4911C49.7835 13.265 50.129 13.1912 50.3736 13.2714C50.6152 13.3487 50.7946 13.5031 50.9118 13.7327L51.4512 14.7889L49.9053 15.5748L49.445 14.6733C49.4158 14.616 49.3746 14.6017 49.3196 14.6297L48.921 14.8323C48.866 14.8603 48.8534 14.9019 48.8826 14.9591L50.4292 17.9876C50.456 18.0403 50.4961 18.0524 50.5511 18.0245L50.9495 17.8219C51.0047 17.7939 51.0184 17.7544 50.9915 17.7018L50.5271 16.7923L52.0729 16.0066L52.6162 17.0704C52.7312 17.2956 52.7499 17.5288 52.6706 17.7694C52.5918 18.0141 52.3287 18.2493 51.8842 18.4753L50.535 19.1614C50.0881 19.3885 49.7428 19.4625 49.5006 19.381C49.2566 19.3048 49.0212 19.0435 48.7948 18.5999L47.4256 15.9186C47.1968 15.4704 47.122 15.1247 47.2037 14.883C47.2801 14.6396 47.5429 14.4042 47.9898 14.1771L49.339 13.4911Z" fill="#012426"/>
<path d="M51.2704 12.6132L54.127 11.3443L54.5369 12.2629L53.2651 12.828L53.7421 13.8972L55.0139 13.3321L55.4177 14.2371L54.1459 14.802L54.7254 16.1008L55.9972 15.5359L56.4071 16.4545L53.5508 17.7237L51.2704 12.6132Z" fill="#012426"/>
<path d="M60.8628 14.7841L58.8536 9.56169L57.2342 10.182L58.1335 12.5198L56.4378 10.4869L54.8876 11.0808L56.8968 16.3031L58.5164 15.6829L57.6184 13.3486L59.3126 15.3778L60.8628 14.7841Z" fill="#012426"/>
<path d="M59.7743 9.22881L63.796 8.15357L64.0569 9.12487L62.8839 9.4385L64.0739 13.8705L62.3983 14.3185L61.2081 9.88649L60.035 10.2001L59.7743 9.22881Z" fill="#012426"/>
<path fill-rule="evenodd" clip-rule="evenodd" d="M67.1104 7.34591C67.5985 7.2423 67.9513 7.26023 68.1668 7.40084C68.3807 7.54047 68.5394 7.85639 68.6438 8.34566L68.6776 8.50437C68.7687 8.9323 68.7775 9.23375 68.7041 9.40989C68.6322 9.5806 68.3965 9.74374 67.997 9.89915C68.4257 9.88008 68.7081 9.936 68.8437 10.0653C68.9825 10.1965 69.072 10.356 69.1119 10.543L69.3574 11.6962C69.4402 12.0848 69.5305 12.3639 69.6291 12.5307L67.9322 12.8905C67.8295 12.7042 67.7354 12.4078 67.6489 12.0021L67.4017 10.8415C67.3936 10.8034 67.3682 10.7805 67.3263 10.7715L66.7668 10.89L67.225 13.0405L65.5281 13.4004L64.3625 7.92859L67.1104 7.34591ZM66.906 8.51506C66.8927 8.45224 66.8568 8.42789 66.7963 8.44072L66.2688 8.55256L66.5711 9.97153L67.0986 9.85969C67.159 9.84687 67.1819 9.80987 67.1694 9.75083L66.906 8.51506Z" fill="#012426"/>
<path fill-rule="evenodd" clip-rule="evenodd" d="M70.2543 6.65698L69.945 12.3916L71.5343 12.112L71.5428 10.7639L72.5529 10.5861L73.0281 11.8492L74.6125 11.5704L72.3559 6.28712L70.2543 6.65698ZM71.5442 9.75016L71.5659 7.94767L72.2016 9.63438L71.5442 9.75016Z" fill="#012426"/>
<path d="M74.2191 6.06016L75.941 5.84916L76.4569 10.0414L77.8386 9.8722L78.0059 11.2321L74.9023 11.6124L74.2191 6.06016Z" fill="#012426"/>
<path d="M78.0262 5.74391L79.7568 5.62303L80.1479 11.2035L78.4173 11.3242L78.0262 5.74391Z" fill="#012426"/>
<path d="M80.4945 5.51958L80.5186 6.89595L82.1046 6.86832L80.503 11.1142L84.3737 11.0468L84.3498 9.67697L82.9151 9.70198L84.3982 5.45166L80.4945 5.51958Z" fill="#012426"/>
<path d="M84.9446 5.52731L88.071 5.58175L88.0535 6.58726L86.6616 6.56292L86.6411 7.73305L88.0331 7.75739L88.0156 8.74777L86.6238 8.72343L86.5989 10.145L87.9909 10.1692L87.9732 11.1747L84.8469 11.1203L84.9446 5.52731Z" fill="#012426"/>
<path fill-rule="evenodd" clip-rule="evenodd" d="M91.6567 11.4301C91.8138 11.4045 91.9751 11.3188 92.1408 11.1727C92.4691 10.8833 92.6545 10.4388 92.6962 9.84176L92.8556 7.56711C92.8975 6.97012 92.776 6.50437 92.4912 6.17183C92.3476 6.0044 92.1998 5.89702 92.0478 5.84982L88.8807 5.62878L88.4896 11.2091L91.6567 11.4301ZM90.9265 10.2791C90.9222 10.3406 90.8899 10.3685 90.8283 10.3642L90.2905 10.3266L90.541 6.7527L91.0788 6.79037C91.1405 6.79465 91.1685 6.82688 91.164 6.88823L90.9265 10.2791Z" fill="#012426"/>
<path fill-rule="evenodd" clip-rule="evenodd" d="M98.0708 12.4649C98.2297 12.4559 98.3991 12.3874 98.5789 12.2593C98.9359 12.0057 99.1669 11.5829 99.271 10.9938L99.6678 8.74809C99.7719 8.15866 99.6999 7.68288 99.4515 7.32254C99.3262 7.14098 99.1904 7.01878 99.0442 6.95596L95.9177 6.40584L94.9441 11.9148L98.0708 12.4649ZM97.4651 11.244C97.4544 11.3046 97.4194 11.3291 97.3584 11.3185L96.8275 11.225L97.451 7.69686L97.9819 7.79028C98.0429 7.80097 98.0673 7.83599 98.0566 7.89651L97.4651 11.244Z" fill="#012426"/>
<path d="M100.65 7.2816L102.347 7.64144L101.181 13.1132L99.4842 12.7534L100.65 7.2816Z" fill="#012426"/>
<path d="M105.821 8.54104C106.303 8.66998 106.609 8.84562 106.738 9.06846C106.864 9.28983 106.862 9.64325 106.733 10.1264L106.509 10.9594L104.833 10.5113L105.104 9.50362C105.12 9.44294 105.099 9.40347 105.04 9.38751L104.608 9.27207C104.548 9.25612 104.51 9.27996 104.494 9.34064L103.612 12.6251C103.597 12.6808 103.618 12.7178 103.678 12.7338L104.11 12.8493C104.17 12.8654 104.207 12.8438 104.222 12.7881L104.507 11.7243L104.204 11.6434L104.367 11.0387L106.345 11.5678L105.618 14.2779L105.133 14.1483L105.106 13.5957C104.968 13.9079 104.608 13.9923 104.024 13.8516L102.908 13.5533C102.423 13.4239 102.117 13.2494 101.991 13.0297C101.861 12.8076 101.862 12.455 101.991 11.9743L102.771 9.06748C102.901 8.58429 103.077 8.27742 103.301 8.14963C103.521 8.01987 103.874 8.02053 104.358 8.14996L105.821 8.54104Z" fill="#012426"/>
<path d="M107.851 9.19395L109.501 9.72877L107.769 15.0491L106.119 14.5141L107.851 9.19395Z" fill="#012426"/>
<path d="M110.162 9.9304L114.049 11.4193L113.687 12.3582L112.554 11.9238L110.906 16.2074L109.286 15.5872L110.934 11.3036L109.8 10.8693L110.162 9.9304Z" fill="#012426"/>
<path fill-rule="evenodd" clip-rule="evenodd" d="M115.339 11.9794L111.869 16.5611L113.343 17.2162L114.106 16.1033L115.043 16.5193L114.729 17.8317L116.199 18.4846L117.289 12.8456L115.339 11.9794ZM114.675 15.2635L115.704 13.7814L115.285 15.5346L114.675 15.2635Z" fill="#012426"/>
<path d="M118.97 13.7155L120.516 14.5013L118.594 18.2648L119.834 18.8953L119.211 20.1161L116.425 18.6996L118.97 13.7155Z" fill="#012426"/>
<path d="M126.592 18.0252C127.016 18.2889 127.257 18.5463 127.314 18.7968C127.372 19.0435 127.332 19.2762 127.195 19.4948L126.565 20.5001L125.094 19.5828L125.631 18.7246C125.665 18.6702 125.657 18.6276 125.604 18.5948L125.225 18.3585C125.172 18.3258 125.13 18.3365 125.096 18.3909L123.291 21.2734C123.26 21.3236 123.27 21.364 123.322 21.3968L123.701 21.6331C123.754 21.6658 123.795 21.6573 123.826 21.6071L124.368 20.7415L125.84 21.6589L125.205 22.6717C125.071 22.8859 124.88 23.022 124.633 23.078C124.382 23.1367 124.045 23.033 123.622 22.7692L122.337 21.9684C121.912 21.7033 121.671 21.4461 121.616 21.1969C121.555 20.9489 121.659 20.6131 121.923 20.1909L123.521 17.6388C123.789 17.2124 124.047 16.9703 124.297 16.9157C124.545 16.8557 124.883 16.9593 125.308 17.2244L126.592 18.0252Z" fill="#012426"/>
<path d="M131.668 21.5485L129.193 25.0752C128.907 25.4831 128.638 25.7099 128.388 25.753C128.135 25.7985 127.803 25.6773 127.394 25.3917L126.154 24.525C125.743 24.2381 125.515 23.9686 125.474 23.7168C125.426 23.4662 125.547 23.1361 125.834 22.7284L128.308 19.2015L129.73 20.1944L127.149 23.8716C127.112 23.924 127.12 23.9678 127.173 24.0046L127.536 24.2584C127.586 24.2937 127.629 24.2852 127.666 24.2327L130.246 20.5555L131.668 21.5485Z" fill="#012426"/>
<path fill-rule="evenodd" clip-rule="evenodd" d="M134.62 23.9581C135.003 24.2781 135.206 24.5664 135.228 24.8225C135.249 25.0767 135.097 25.3959 134.775 25.7793L134.67 25.9035C134.389 26.2386 134.156 26.431 133.972 26.4819C133.793 26.5305 133.519 26.4457 133.15 26.2271C133.429 26.5524 133.559 26.8088 133.54 26.9951C133.522 27.1851 133.451 27.3537 133.328 27.5L132.568 28.4032C132.312 28.7077 132.147 28.9504 132.076 29.1305L130.748 28.0177C130.832 27.8224 131.008 27.566 131.275 27.2482L132.039 26.3393C132.064 26.3093 132.067 26.2753 132.048 26.2368L131.61 25.8699L130.194 27.5541L128.865 26.4414L132.468 22.1562L134.62 23.9581ZM133.571 24.5172C133.613 24.468 133.61 24.4246 133.562 24.385L133.149 24.0393L132.215 25.1505L132.628 25.4964C132.675 25.536 132.719 25.5313 132.757 25.4851L133.571 24.5172Z" fill="#012426"/>
<path fill-rule="evenodd" clip-rule="evenodd" d="M138.309 27.3645C138.674 27.704 138.862 28.0026 138.87 28.2593C138.878 28.5144 138.71 28.8254 138.368 29.1912L138.257 29.3098C137.958 29.6298 137.716 29.8099 137.529 29.851C137.347 29.8901 137.078 29.7911 136.722 29.5537C136.983 29.8931 137.099 30.1559 137.071 30.3409C137.043 30.5297 136.963 30.6943 136.832 30.8341L136.027 31.6964C135.755 31.987 135.578 32.2207 135.497 32.397L134.229 31.2165C134.323 31.0256 134.512 30.7787 134.796 30.4755L135.607 29.6076C135.633 29.579 135.637 29.5451 135.621 29.5058L135.202 29.1165L133.7 30.7244L132.431 29.5439L136.255 25.4527L138.309 27.3645ZM137.232 27.8681C137.276 27.8212 137.275 27.7776 137.23 27.7357L136.836 27.3688L135.844 28.4297L136.239 28.7966C136.284 28.8387 136.327 28.8363 136.369 28.792L137.232 27.8681Z" fill="#012426"/>
<path d="M139.879 28.9109L142.051 31.1553L141.326 31.854L140.359 30.8547L139.515 31.6676L140.482 32.6669L139.768 33.355L138.801 32.3557L137.776 33.3433L138.743 34.3426L138.018 35.0412L135.846 32.7968L139.879 28.9109Z" fill="#012426"/>
<path d="M141.132 38.6449L145.364 34.9748L144.226 33.6685L142.332 35.3112L143.666 33.0261L142.577 31.7757L138.346 35.4458L139.484 36.7521L141.375 35.1118L140.043 37.3945L141.132 38.6449Z" fill="#012426"/>
<path d="M147.616 37.9844C147.91 38.3872 148.037 38.7161 147.996 38.9697C147.957 39.22 147.832 39.4208 147.623 39.5722L146.662 40.2691L145.642 38.8685L146.463 38.2737C146.515 38.236 146.523 38.1932 146.486 38.1432L146.223 37.7823C146.187 37.7324 146.144 37.7265 146.092 37.7643L143.336 39.7622C143.288 39.7969 143.282 39.8382 143.319 39.8882L143.581 40.2491C143.618 40.299 143.659 40.3064 143.707 40.2717L144.534 39.6717L145.554 41.0723L144.586 41.774C144.381 41.9226 144.153 41.9775 143.903 41.9369C143.648 41.8977 143.374 41.6752 143.081 41.2724L142.191 40.05C141.896 39.6453 141.769 39.3165 141.811 39.0651C141.849 38.8126 142.071 38.5399 142.474 38.2472L144.914 36.4784C145.322 36.1829 145.652 36.0551 145.905 36.0977C146.157 36.135 146.432 36.3572 146.726 36.7619L147.616 37.9844Z" fill="#012426"/>
<path d="M146.794 42.389L148.727 39.5512L149.622 40.9259L148.374 42.4015L150.231 41.862L151.125 43.2358L147.741 43.844L145.698 45.1682L144.751 43.7132L146.794 42.389Z" fill="#012426"/>
<path d="M150.443 50.8046L150.668 51.2876C150.696 51.3458 150.738 51.3619 150.796 51.335L154.546 49.5902L155.279 51.159L151.034 53.1341C150.804 53.2409 150.569 53.2493 150.33 53.1606C150.087 53.0726 149.862 52.8031 149.65 52.3508L149.198 51.3836L150.443 50.8046Z" fill="#012426"/>
<path d="M157.407 56.2826C157.594 56.7441 157.638 57.0939 157.537 57.33C157.438 57.5636 157.269 57.7284 157.029 57.8249L155.928 58.2689L155.278 56.6638L156.218 56.2847C156.278 56.2607 156.296 56.2211 156.272 56.1638L156.105 55.7502C156.082 55.693 156.041 55.6769 155.982 55.7009L152.823 56.9741C152.768 56.9963 152.753 57.035 152.776 57.0922L152.943 57.506C152.966 57.5631 153.005 57.5802 153.06 57.5581L154.008 57.1758L154.658 58.7807L153.548 59.2281C153.314 59.3228 153.079 59.321 152.846 59.2211C152.608 59.1215 152.396 58.8396 152.209 58.3781L151.642 56.9771C151.454 56.5132 151.41 56.1635 151.513 55.9298C151.61 55.6938 151.892 55.4828 152.354 55.2963L155.151 54.1689C155.618 53.9806 155.97 53.9364 156.204 54.0387C156.44 54.1359 156.652 54.4176 156.84 54.8815L157.407 56.2826Z" fill="#012426"/>
<path fill-rule="evenodd" clip-rule="evenodd" d="M159.029 60.9121C159.191 61.3828 159.217 61.7344 159.103 61.965C158.993 62.193 158.698 62.3887 158.221 62.5525L155.37 63.5321C154.898 63.6943 154.547 63.7203 154.319 63.6085C154.087 63.4966 153.891 63.2041 153.728 62.7334L153.235 61.3047C153.072 60.8316 153.047 60.4801 153.161 60.252C153.271 60.0214 153.563 59.8254 154.035 59.6634L156.886 58.6837C157.363 58.5199 157.716 58.4941 157.945 58.6084C158.176 58.7179 158.373 59.0103 158.536 59.4835L159.029 60.9121ZM157.848 60.8498C157.904 60.8306 157.922 60.7927 157.902 60.7343L157.756 60.3125C157.736 60.2541 157.699 60.235 157.643 60.2543L154.422 61.3609C154.361 61.3818 154.341 61.4205 154.361 61.4789L154.507 61.9007C154.527 61.9591 154.567 61.9774 154.627 61.9565L157.848 60.8498Z" fill="#012426"/>
<path d="M159.557 62.9195L160.035 64.5834L154.646 66.1254L154.167 64.4613L159.557 62.9195Z" fill="#012426"/>
<path d="M155.699 70.764L161.139 69.4106L160.719 67.7312L158.284 68.3369L160.513 66.9052L160.111 65.2978L154.672 66.651L155.091 68.3306L157.523 67.7257L155.298 69.1564L155.699 70.764Z" fill="#012426"/>
<path fill-rule="evenodd" clip-rule="evenodd" d="M156.551 78.2609C156.601 78.4117 156.711 78.5573 156.882 78.6975C157.22 78.976 157.689 79.089 158.286 79.0368L160.563 78.8382C161.16 78.786 161.602 78.5934 161.887 78.2606C162.03 78.093 162.113 77.9305 162.136 77.7733L161.859 74.6176L156.275 75.1051L156.551 78.2609ZM157.576 77.3611C157.515 77.3666 157.482 77.3391 157.477 77.2778L157.43 76.7418L161.007 76.4295L161.054 76.9655C161.059 77.027 161.031 77.0595 160.97 77.0648L157.576 77.3611Z" fill="#012426"/>
<path d="M162.248 79.5116L162.357 82.6296L161.35 82.6648L161.301 81.2766L160.129 81.3174L160.178 82.7056L159.186 82.7401L159.137 81.3521L157.713 81.4016L157.762 82.7898L156.754 82.8249L156.645 79.7068L162.248 79.5116Z" fill="#012426"/>
<path d="M162.279 86.2277C162.27 86.7254 162.173 87.0643 161.988 87.2423C161.806 87.4189 161.585 87.5042 161.327 87.4998L160.139 87.4791L160.169 85.7483L161.183 85.7659C161.247 85.7671 161.279 85.7376 161.28 85.6759L161.288 85.2298C161.289 85.1681 161.258 85.1375 161.194 85.1363L157.788 85.077C157.729 85.076 157.699 85.1056 157.698 85.1673L157.69 85.6133C157.689 85.675 157.718 85.7056 157.777 85.7067L158.8 85.7245L158.769 87.4552L157.573 87.4345C157.32 87.4301 157.104 87.337 156.929 87.1541C156.749 86.9699 156.665 86.6278 156.673 86.13L156.7 84.6193C156.709 84.119 156.805 83.78 156.991 83.6047C157.173 83.4256 157.515 83.3411 158.013 83.3498L161.029 83.4023C161.533 83.411 161.874 83.5074 162.05 83.6929C162.229 83.8744 162.314 84.2167 162.305 84.7168L162.279 86.2277Z" fill="#012426"/>
<path d="M162.232 88.3177L162.014 91.4301L161.008 91.3599L161.106 89.9743L159.936 89.8925L159.839 91.2783L158.848 91.2092L158.945 89.8235L157.524 89.7243L157.427 91.11L156.421 91.0398L156.64 87.9274L162.232 88.3177Z" fill="#012426"/>
<path d="M155.821 95.7536L161.386 96.4353L161.597 94.7173L159.106 94.4121L161.701 93.8725L161.903 92.2282L156.339 91.5463L156.127 93.2645L158.615 93.5692L156.024 94.1091L155.821 95.7536Z" fill="#012426"/>
<path d="M161.194 97.0472L160.471 101.138L159.479 100.964L159.69 99.7707L155.161 98.9739L155.463 97.2692L159.991 98.0659L160.202 96.8726L161.194 97.0472Z" fill="#012426"/>
<path fill-rule="evenodd" clip-rule="evenodd" d="M159.482 104.67C159.353 105.151 159.177 105.457 158.954 105.585C158.732 105.711 158.378 105.709 157.893 105.58L157.736 105.538C157.313 105.424 157.04 105.295 156.916 105.15C156.796 105.009 156.757 104.725 156.8 104.299C156.622 104.689 156.444 104.915 156.267 104.977C156.087 105.041 155.904 105.048 155.719 104.998L154.577 104.693C154.193 104.59 153.903 104.544 153.709 104.556L154.158 102.884C154.371 102.877 154.678 102.928 155.08 103.035L156.229 103.342C156.266 103.352 156.298 103.34 156.326 103.307L156.474 102.756L154.345 102.187L154.794 100.515L160.209 101.963L159.482 104.67ZM158.531 103.958C158.593 103.975 158.631 103.954 158.647 103.894L158.787 103.375L157.383 102.999L157.243 103.519C157.227 103.578 157.25 103.615 157.308 103.631L158.531 103.958Z" fill="#012426"/>
<path fill-rule="evenodd" clip-rule="evenodd" d="M158.517 107.791L153.587 104.826L153.089 106.357L154.277 106.998L153.961 107.971L152.62 107.797L152.123 109.324L157.857 109.816L158.517 107.791ZM155.174 107.475L156.759 108.34L154.968 108.109L155.174 107.475Z" fill="#012426"/>
<path d="M157.127 111.562L156.506 113.178L152.554 111.664L152.055 112.961L150.773 112.47L151.893 109.557L157.127 111.562Z" fill="#012426"/>
<path d="M155.754 115.146L155.048 116.727L149.927 114.452L150.633 112.871L155.754 115.146Z" fill="#012426"/>
<path d="M154.727 117.373L153.498 116.748L152.778 118.158L149.772 114.754L148.015 118.195L149.238 118.817L149.89 117.542L152.955 120.844L154.727 117.373Z" fill="#012426"/>
<path d="M152.647 121.305L151.131 124.034L150.25 123.546L150.925 122.331L149.899 121.764L149.224 122.979L148.355 122.499L149.03 121.284L147.784 120.594L147.109 121.809L146.228 121.322L147.744 118.593L152.647 121.305Z" fill="#012426"/>
<path fill-rule="evenodd" clip-rule="evenodd" d="M144.251 124.365C144.2 124.515 144.2 124.698 144.251 124.912C144.353 125.337 144.66 125.709 145.168 126.026L147.106 127.235C147.615 127.552 148.084 127.664 148.512 127.569C148.728 127.521 148.892 127.441 149.005 127.329L150.687 124.643L145.933 121.678L144.251 124.365ZM145.612 124.262C145.56 124.229 145.55 124.188 145.583 124.135L145.868 123.679L148.913 125.578L148.628 126.034C148.595 126.086 148.553 126.096 148.501 126.063L145.612 124.262Z" fill="#012426"/>
<path fill-rule="evenodd" clip-rule="evenodd" d="M140.285 129.59C140.219 129.734 140.2 129.915 140.228 130.134C140.285 130.568 140.551 130.969 141.024 131.338L142.824 132.742C143.297 133.11 143.752 133.27 144.187 133.22C144.407 133.195 144.579 133.133 144.703 133.034L146.658 130.537L142.24 127.093L140.285 129.59ZM141.65 129.629C141.601 129.591 141.596 129.549 141.634 129.501L141.966 129.077L144.795 131.282L144.463 131.706C144.425 131.755 144.383 131.76 144.334 131.722L141.65 129.629Z" fill="#012426"/>
<path d="M143.661 134.304L142.546 135.63L138.252 132.034L139.367 130.708L143.661 134.304Z" fill="#012426"/>
<path d="M140.012 138.224C139.672 138.588 139.373 138.775 139.116 138.783C138.86 138.791 138.548 138.623 138.182 138.282L137.55 137.694L138.733 136.428L139.498 137.14C139.544 137.182 139.588 137.183 139.63 137.138L139.935 136.811C139.978 136.766 139.974 136.722 139.928 136.679L137.436 134.36C137.393 134.321 137.351 134.322 137.309 134.367L137.004 134.693C136.961 134.739 136.963 134.781 137.005 134.82L137.812 135.572L138.026 135.343L138.485 135.77L137.088 137.265L135.032 135.351L135.374 134.985L135.876 135.22C135.664 134.953 135.758 134.596 136.157 134.147L136.945 133.304C137.287 132.938 137.585 132.749 137.839 132.742C138.096 132.732 138.408 132.898 138.773 133.237L140.979 135.29C141.345 135.631 141.534 135.93 141.542 136.187C141.554 136.442 141.387 136.753 141.045 137.119L140.012 138.224Z" fill="#012426"/>
<path d="M138.545 139.692L137.297 140.894L133.402 136.87L134.65 135.668L138.545 139.692Z" fill="#012426"/>
<path d="M136.826 141.367L133.684 144.093L133.023 143.334L133.939 142.539L130.923 139.076L132.232 137.94L135.249 141.403L136.165 140.608L136.826 141.367Z" fill="#012426"/>
<path fill-rule="evenodd" clip-rule="evenodd" d="M132.628 144.901L130.112 139.735L128.858 140.749L129.505 141.932L128.708 142.576L127.679 141.701L126.429 142.711L130.969 146.241L132.628 144.901ZM129.997 142.819L130.853 144.406L129.478 143.239L129.997 142.819Z" fill="#012426"/>
<path d="M129.346 147.331L127.943 148.348L125.455 144.931L124.329 145.748L123.521 144.639L126.051 142.805L129.346 147.331Z" fill="#012426"/>
<path d="M121.934 152.046C121.502 152.295 121.161 152.387 120.913 152.319C120.667 152.255 120.48 152.11 120.351 151.887L119.757 150.86L121.26 149.994L121.767 150.871C121.799 150.926 121.841 150.938 121.894 150.908L122.281 150.685C122.335 150.654 122.345 150.612 122.313 150.556L120.61 147.612C120.58 147.561 120.54 147.551 120.486 147.582L120.099 147.805C120.045 147.836 120.034 147.876 120.063 147.927L120.575 148.811L119.072 149.677L118.474 148.642C118.347 148.424 118.316 148.192 118.383 147.947C118.449 147.699 118.699 147.45 119.131 147.201L120.443 146.446C120.877 146.196 121.218 146.104 121.464 146.172C121.712 146.236 121.96 146.484 122.21 146.916L123.718 149.522C123.97 149.957 124.063 150.299 123.994 150.544C123.93 150.791 123.68 151.04 123.246 151.29L121.934 152.046Z" fill="#012426"/>
<path d="M116.495 154.839L114.47 151.038C114.236 150.598 114.155 150.257 114.23 150.015C114.304 149.769 114.563 149.529 115.004 149.295L116.341 148.586C116.784 148.351 117.128 148.271 117.371 148.348C117.617 148.42 117.856 148.677 118.091 149.117L120.116 152.918L118.585 153.731L116.472 149.767C116.442 149.711 116.4 149.698 116.343 149.728L115.951 149.936C115.897 149.965 115.885 150.006 115.915 150.063L118.027 154.027L116.495 154.839Z" fill="#012426"/>
<path fill-rule="evenodd" clip-rule="evenodd" d="M112.893 156.303C112.43 156.49 112.079 156.533 111.843 156.432C111.608 156.332 111.396 156.048 111.209 155.584L111.148 155.434C110.984 155.028 110.922 154.733 110.964 154.547C111.005 154.366 111.209 154.165 111.575 153.942C111.156 154.035 110.868 154.029 110.712 153.926C110.553 153.82 110.437 153.679 110.365 153.501L109.923 152.408C109.773 152.04 109.636 151.781 109.51 151.634L111.118 150.985C111.252 151.151 111.396 151.426 111.552 151.811L111.997 152.911C112.012 152.947 112.041 152.965 112.084 152.967L112.614 152.753L111.789 150.715L113.397 150.066L115.497 155.253L112.893 156.303ZM112.89 155.116C112.914 155.176 112.954 155.194 113.012 155.171L113.511 154.969L112.967 153.624L112.467 153.826C112.41 153.849 112.393 153.889 112.416 153.945L112.89 155.116Z" fill="#012426"/>
<path fill-rule="evenodd" clip-rule="evenodd" d="M108.2 157.99C107.728 158.153 107.376 158.178 107.145 158.064C106.915 157.952 106.719 157.658 106.556 157.185L106.503 157.031C106.36 156.617 106.315 156.319 106.366 156.136C106.416 155.957 106.63 155.767 107.008 155.564C106.585 155.635 106.298 155.614 106.147 155.502C105.994 155.389 105.885 155.241 105.823 155.061L105.438 153.946C105.309 153.57 105.185 153.304 105.067 153.151L106.707 152.587C106.832 152.76 106.961 153.042 107.097 153.434L107.484 154.556C107.497 154.593 107.525 154.613 107.567 154.617L108.108 154.431L107.391 152.352L109.031 151.789L110.856 157.078L108.2 157.99ZM108.26 156.805C108.281 156.866 108.32 156.886 108.378 156.866L108.888 156.69L108.414 155.319L107.905 155.494C107.846 155.514 107.828 155.554 107.848 155.611L108.26 156.805Z" fill="#012426"/>
<path d="M106.059 158.661L103.054 159.521L102.776 158.555L104.114 158.172L103.791 157.047L102.452 157.43L102.179 156.477L103.517 156.095L103.124 154.728L101.786 155.111L101.508 154.144L104.514 153.284L106.059 158.661Z" fill="#012426"/>
<path d="M96.8338 155.13L98.0949 160.58L99.7851 160.191L99.2206 157.751L100.616 159.999L102.234 159.627L100.973 154.176L99.2827 154.565L99.8465 157.002L98.4517 154.757L96.8338 155.13Z" fill="#012426"/>
<path d="M94.3588 161.14C93.8647 161.209 93.5141 161.167 93.3089 161.011C93.1057 160.86 92.9865 160.655 92.9506 160.4L92.7853 159.226L94.5034 158.985L94.6445 159.988C94.6534 160.051 94.6877 160.078 94.7488 160.069L95.1917 160.007C95.2528 159.999 95.2784 159.963 95.2695 159.9L94.7953 156.534C94.787 156.475 94.7532 156.451 94.6919 156.46L94.2492 156.522C94.1879 156.53 94.162 156.563 94.1703 156.622L94.3127 157.632L92.5947 157.873L92.4281 156.691C92.3928 156.44 92.4513 156.214 92.6048 156.012C92.759 155.806 93.0846 155.669 93.5785 155.6L95.0783 155.39C95.5747 155.32 95.9253 155.362 96.1279 155.518C96.3337 155.669 96.4709 155.993 96.5404 156.486L96.9601 159.466C97.0303 159.964 96.9882 160.315 96.832 160.517C96.6804 160.723 96.355 160.86 95.8586 160.929L94.3588 161.14Z" fill="#012426"/>
<path d="M90.8598 158.319L92.4637 161.353L90.8272 161.496L90.1074 159.704L89.7128 161.594L88.0774 161.736L89.1277 158.47L88.9154 156.048L90.6475 155.897L90.8598 158.319Z" fill="#012426"/>
<path d="M150.212 45.5787C150.685 45.5787 151.068 45.9614 151.068 46.4333C151.068 46.9051 150.685 47.2878 150.212 47.2878C149.739 47.2878 149.356 46.9051 149.356 46.4333C149.356 45.9614 149.739 45.5787 150.212 45.5787Z" fill="#012426"/>
<path d="M159.537 72.4582C159.537 71.9863 159.153 71.6037 158.68 71.6037C158.207 71.6037 157.824 71.9863 157.824 72.4582C157.824 72.93 158.207 73.3127 158.68 73.3127C159.153 73.3127 159.537 72.93 159.537 72.4582Z" fill="#012426"/>
<path d="M18.8912 43.7558C19.3641 43.7558 19.7476 44.1385 19.7476 44.6103C19.7476 45.0822 19.3641 45.4649 18.8912 45.4649C18.4183 45.4649 18.0348 45.0822 18.0348 44.6103C18.0348 44.1385 18.4183 43.7558 18.8912 43.7558Z" fill="#012426"/>
<path d="M39.0892 23.6305C39.0892 23.1586 38.7056 22.7759 38.2328 22.7759C37.7599 22.7759 37.3763 23.1586 37.3763 23.6305C37.3763 24.1023 37.7599 24.485 38.2328 24.485C38.7056 24.485 39.0892 24.1023 39.0892 23.6305Z" fill="#012426"/>
<path d="M56.8808 153.164C57.3536 153.164 57.7372 153.547 57.7372 154.019C57.7372 154.491 57.3536 154.873 56.8808 154.873C56.4079 154.873 56.0243 154.491 56.0243 154.019C56.0243 153.547 56.4079 153.164 56.8808 153.164Z" fill="#012426"/>
<path d="M85.9963 158.994C85.9963 158.523 85.6127 158.14 85.1399 158.14C84.667 158.14 84.2834 158.523 84.2834 158.994C84.2834 159.466 84.667 159.849 85.1399 159.849C85.6127 159.849 85.9963 159.466 85.9963 158.994Z" fill="#012426"/>
<defs>
<linearGradient id="paint0_linear_630_1823" x1="138.168" y1="182.312" x2="-54.7733" y2="89.3422" gradientUnits="userSpaceOnUse">
<stop stop-color="#90C626"/>
<stop offset="1" stop-color="#20934A"/>
</linearGradient>
<linearGradient id="paint1_linear_630_1823" x1="127.598" y1="162.503" x2="-27.3947" y2="86.4612" gradientUnits="userSpaceOnUse">
<stop stop-color="#90C626"/>
<stop offset="1" stop-color="#20934A"/>
</linearGradient>
<linearGradient id="paint2_linear_630_1823" x1="127.598" y1="162.503" x2="-27.3947" y2="86.4612" gradientUnits="userSpaceOnUse">
<stop stop-color="#90C626"/>
<stop offset="1" stop-color="#20934A"/>
</linearGradient>
<linearGradient id="paint3_linear_630_1823" x1="127.598" y1="162.503" x2="-27.3947" y2="86.4612" gradientUnits="userSpaceOnUse">
<stop stop-color="#90C626"/>
<stop offset="1" stop-color="#20934A"/>
</linearGradient>
<linearGradient id="paint4_linear_630_1823" x1="127.598" y1="162.503" x2="-27.3947" y2="86.4612" gradientUnits="userSpaceOnUse">
<stop stop-color="#90C626"/>
<stop offset="1" stop-color="#20934A"/>
</linearGradient>
<linearGradient id="paint5_linear_630_1823" x1="127.598" y1="162.503" x2="-27.3947" y2="86.4612" gradientUnits="userSpaceOnUse">
<stop stop-color="#90C626"/>
<stop offset="1" stop-color="#20934A"/>
</linearGradient>
<linearGradient id="paint6_linear_630_1823" x1="127.598" y1="162.503" x2="-27.3947" y2="86.4612" gradientUnits="userSpaceOnUse">
<stop stop-color="#90C626"/>
<stop offset="1" stop-color="#20934A"/>
</linearGradient>
<linearGradient id="paint7_linear_630_1823" x1="127.598" y1="162.503" x2="-27.3947" y2="86.4612" gradientUnits="userSpaceOnUse">
<stop stop-color="#90C626"/>
<stop offset="1" stop-color="#20934A"/>
</linearGradient>
<linearGradient id="paint8_linear_630_1823" x1="127.598" y1="162.503" x2="-27.3947" y2="86.4612" gradientUnits="userSpaceOnUse">
<stop stop-color="#90C626"/>
<stop offset="1" stop-color="#20934A"/>
</linearGradient>
<linearGradient id="paint9_linear_630_1823" x1="127.598" y1="162.503" x2="-27.3947" y2="86.4612" gradientUnits="userSpaceOnUse">
<stop stop-color="#90C626"/>
<stop offset="1" stop-color="#20934A"/>
</linearGradient>
</defs>
</svg>
