<svg width="73" height="72" viewBox="0 0 73 72" fill="none" xmlns="http://www.w3.org/2000/svg">
<path opacity="0.1" fill-rule="evenodd" clip-rule="evenodd" d="M36.8334 72C56.7156 72 72.8334 55.8823 72.8334 36C72.8334 16.1177 56.7156 0 36.8334 0C23.4684 0 11.8045 7.28296 5.59381 18.0967L4.00236 21.2093C3.42801 22.4822 2.92551 23.7945 2.50003 25.141C2.31366 25.7379 1.89131 27.1743 1.69282 28.1452C1.13015 30.6736 0.833374 33.3021 0.833374 36C0.833374 39.5318 1.34198 42.9449 2.28993 46.1699C2.52558 47.0199 3.0749 48.5268 3.32011 49.174C3.87264 50.5785 4.51089 51.9398 5.22844 53.2516L7.01762 56.1811C13.4917 65.7273 24.43 72 36.8334 72ZM36.8333 69.6789C55.408 69.6789 70.4658 54.6211 70.4658 36.0464C70.4658 17.4717 55.408 2.4139 36.8333 2.4139C18.2586 2.4139 3.20078 17.4717 3.20078 36.0464C3.20078 54.6211 18.2586 69.6789 36.8333 69.6789Z" fill="#022426"/>
<circle opacity="0.6" cx="36.8335" cy="36" r="28.8" fill="#022426"/>
<path d="M60.0642 37.3253C59.3773 49.557 49.2401 59.264 36.8355 59.264C23.9861 59.264 13.5696 48.8484 13.5696 36.0001C13.5696 23.1518 23.9861 12.7362 36.8355 12.7362C48.4834 12.7362 58.1321 21.2951 59.8346 32.4664H59.4013C57.7027 21.5325 48.2464 13.1644 36.8355 13.1644C24.2226 13.1644 13.9978 23.3883 13.9978 36.0001C13.9978 48.612 24.2226 58.8359 36.8355 58.8359C49.0035 58.8359 58.9489 49.3204 59.6353 37.3253H60.0642Z" fill="white"/>
<path d="M52.3727 20.7193C55.4598 23.8573 57.6033 27.9262 58.3437 32.4664H57.9372C57.2011 28.039 55.1052 24.0713 52.093 21.0069C51.9537 21.0511 51.7952 21.0223 51.6789 20.9172L50.4827 19.8369C50.3629 19.7288 50.319 19.568 50.3543 19.4214C46.6694 16.4136 41.9631 14.6097 36.8355 14.6097C36.737 14.6097 36.6387 14.6103 36.5406 14.6117V14.9468C36.5405 14.9468 36.5407 14.9468 36.5406 14.9468L36.541 15.3129L36.5622 15.3341C36.555 15.3342 36.5478 15.3343 36.5406 15.3344V15.6831C36.6387 15.6817 36.737 15.681 36.8355 15.681L36.8355 16.055C36.737 16.055 36.6387 16.0557 36.5406 16.0571V16.4194C36.6387 16.4179 36.737 16.4172 36.8355 16.4172L36.8355 16.7776C36.737 16.7776 36.6387 16.7784 36.5406 16.7798V16.8598H36.3383C36.5359 16.8667 36.7052 16.9848 36.7855 17.1535C36.8022 17.1534 36.8188 17.1534 36.8355 17.1534V17.5951C36.8355 17.5951 36.8355 17.5951 36.8355 17.5951L36.8354 17.8896C36.8354 17.8896 36.8354 17.8896 36.8354 17.8896L36.8355 18.3141C36.8355 18.3141 36.8355 18.3141 36.8355 18.3141L36.8354 18.6258C36.8354 18.6258 36.8354 18.6258 36.8354 18.6258L36.8355 19.033C36.8355 19.033 36.8355 19.033 36.8355 19.033L36.8354 19.362C36.8354 19.362 36.8354 19.362 36.8354 19.362L36.8355 19.752C36.8355 19.752 36.8355 19.752 36.8355 19.752L36.8354 19.8784C36.8354 20.1631 36.6046 20.3938 36.3199 20.3938C36.0352 20.3938 35.8045 20.1631 35.8045 19.8784V17.3749C35.8045 17.0964 36.0254 16.8695 36.3016 16.8598H36.0988V16.7915C36.0252 16.7943 35.9517 16.7974 35.8783 16.801V16.4402C35.9517 16.4366 36.0252 16.4335 36.0988 16.4308V16.0683C36.0252 16.071 35.9517 16.0741 35.8783 16.0775V15.7031C35.9517 15.6997 36.0252 15.6967 36.0988 15.6941V15.3452C36.0906 15.3455 36.0825 15.3458 36.0743 15.3461L36.0988 15.3135V14.6221C24.6253 15.0104 15.4433 24.433 15.4433 36.0001C15.4433 47.3188 24.2352 56.5842 35.363 57.3407V57.3499H35.5057C35.6051 57.356 35.7047 57.3614 35.8045 57.3662V55.1412H36.0074C35.7312 55.1315 35.5102 54.9046 35.5102 54.6261V52.1226C35.5102 51.8379 35.741 51.6072 36.0257 51.6072C36.3104 51.6072 36.5411 51.8379 36.5411 52.1226V54.6261C36.5411 54.9046 36.3202 55.1315 36.044 55.1412H36.2463V55.2138C36.2462 55.2138 36.2464 55.2138 36.2463 55.2138L36.2465 55.5744C36.2464 55.5744 36.2465 55.5744 36.2465 55.5744L36.2463 55.9367C36.2462 55.9367 36.2464 55.9367 36.2463 55.9367L36.2465 56.3109C36.2464 56.3109 36.2465 56.3109 36.2465 56.3109L36.2463 56.6597C36.2462 56.6597 36.2464 56.6597 36.2463 56.6597L36.2465 57.0474C36.2464 57.0474 36.2465 57.0474 36.2465 57.0474L36.2463 57.3826C36.442 57.3879 36.6385 57.3906 36.8355 57.3906C48.205 57.3906 57.5029 48.5217 58.1873 37.3253H58.5892C57.9042 48.7433 48.4266 57.7916 36.8355 57.7916C36.6385 57.7916 36.4421 57.789 36.2463 57.7838V57.792H35.8045V57.7677C24.2471 57.2295 15.0422 47.6897 15.0422 36.0001C15.0422 24.2115 24.4037 14.6092 36.0988 14.2208V14.209H36.5406V14.2106C36.6388 14.2093 36.737 14.2086 36.8355 14.2086C42.0657 14.2086 46.8656 16.0509 50.6215 19.1219C50.7649 19.0696 50.9317 19.0963 51.0528 19.2057L52.249 20.286C52.3736 20.3986 52.4161 20.5681 52.3727 20.7193Z" fill="white"/>
<path d="M35.363 55.8918V56.2667C35.3629 56.2667 35.363 56.2667 35.363 56.2667L35.3629 56.6163C35.3628 56.6163 35.3629 56.6163 35.3629 56.6163L35.363 57.0048C24.4205 56.2489 15.7784 47.1337 15.7784 36.0001C15.7784 24.7669 24.576 15.5882 35.6575 14.9772V15.3653C24.7901 15.9759 16.166 24.9809 16.166 36.0001C16.166 46.8194 24.4801 55.697 35.0683 56.5934V56.2435C24.6729 55.348 16.5147 46.6267 16.5147 36.0001C16.5147 26.2427 23.3929 18.0917 32.5656 16.1303V16.1231H32.5995C33.073 16.0227 33.5526 15.9388 34.0377 15.872L34.0383 17.5958H32.5656V17.2535C32.2165 17.3326 31.871 17.4213 31.5294 17.5192L30.7981 17.6687V17.7447C23.1385 20.276 17.6114 27.4927 17.6114 36.0001C17.6114 44.3982 22.9973 51.5384 30.5036 54.1556V54.3315L33.7432 54.9941L35.363 55.2886V55.5285C25.2345 54.7757 17.2509 46.3202 17.2509 36.0001C17.2509 26.6512 23.8027 18.8324 32.5656 16.884V16.513C23.601 18.4679 16.8887 26.4502 16.8887 36.0001C16.8887 46.5203 25.0342 55.1382 35.363 55.8918Z" fill="white"/>
<path d="M30.5036 53.757C23.2087 51.1559 17.9872 44.1877 17.9872 36.0001C17.9872 27.7027 23.3496 20.6577 30.7981 18.141V18.608C30.7978 18.6081 30.7975 18.6082 30.7972 18.6084V18.9205C30.7975 18.9204 30.7978 18.9202 30.7981 18.9201V19.3711C25.0316 21.4649 20.6629 26.4723 19.4719 32.6136H19.7896C20.9688 26.6455 25.2046 21.7759 30.7981 19.7033V20.1384C30.7978 20.1385 30.7975 20.1386 30.7972 20.1388V20.4914C30.7975 20.4913 30.7978 20.4911 30.7981 20.491V20.9104C26.3416 22.6948 22.8596 26.3958 21.3719 30.994H25.9388C25.9388 30.8313 26.0707 30.6995 26.2333 30.6995H29.1784C29.341 30.6995 29.4729 30.8313 29.4729 30.994H31.8289V31.4357H29.4729C29.4729 31.5983 29.341 31.7302 29.1784 31.7302H26.2333C26.0707 31.7302 25.9388 31.5983 25.9388 31.4357H20.8299C22.2292 26.5203 25.8321 22.533 30.5026 20.6094V20.2541C25.2817 22.3555 21.3466 26.9778 20.205 32.6136H25.9388C25.9388 32.451 26.0707 32.3191 26.2333 32.3191H29.1784C29.341 32.3191 29.4729 32.451 29.4729 32.6136H31.8289V33.0553H29.4729C29.4729 33.218 29.341 33.3498 29.1784 33.3498H26.2333C26.0707 33.3498 25.9388 33.218 25.9388 33.0553H18.9617C20.0202 26.5828 24.5101 21.264 30.5026 19.0275V18.7134C23.9857 21.1011 19.1952 27.0683 18.5127 34.2332H25.9388C25.9388 34.0706 26.0707 33.9388 26.2333 33.9388H29.1784C29.341 33.9388 29.4729 34.0706 29.4729 34.2332H31.8289V34.675H29.4729C29.4729 34.8376 29.341 34.9694 29.1784 34.9694H26.2333C26.0707 34.9694 25.9388 34.8376 25.9388 34.675H18.4759C18.4448 35.1126 18.429 35.5545 18.429 36.0001C18.429 43.8293 23.3178 50.5166 30.2094 53.1765V52.8604C23.484 50.2157 18.7235 43.6638 18.7235 36.0001C18.7235 35.951 18.7237 35.9019 18.724 35.8529H25.9388C25.9388 35.6902 26.0707 35.5584 26.2333 35.5584H29.1784C29.341 35.5584 29.4729 35.6902 29.4729 35.8529H31.8289V36.2946H29.4729C29.4729 36.4572 29.341 36.5891 29.1784 36.5891H26.2333C26.0707 36.5891 25.9388 36.4572 25.9388 36.2946H19.8695C19.9868 43.1881 24.2156 49.0803 30.2094 51.6249V51.2668C24.5295 48.7985 20.4958 43.2539 20.212 36.7363H20.6024C20.8882 43.1467 24.8888 48.5908 30.5036 50.9685L30.504 51.9026L30.5036 52.1848C24.1248 49.6877 19.5824 43.5292 19.4622 36.2946H19.1504C19.2713 43.7041 23.9492 50.0057 30.5036 52.5192V53.757Z" fill="white"/>
<path d="M41.6948 51.5093C47.1979 49.7871 51.4422 45.2172 52.7014 39.5256L53.3086 38.3619C52.4077 44.7017 47.9328 49.8909 41.9888 51.8249V52.1706C48.1175 50.2195 52.7353 44.8812 53.6418 38.356H54.0529C53.1235 45.2111 48.1956 50.7962 41.6948 52.6859V51.5093Z" fill="white"/>
<path d="M53.2621 31.7302H53.6826C52.1999 25.8629 47.7321 21.1838 41.9893 19.4028L41.9891 20.3931L41.9893 20.5862C46.7165 22.1658 50.476 25.8589 52.146 30.5436L52.8405 31.4339C51.3537 26.2133 47.381 22.0397 42.2836 20.2743V19.9265C47.6591 21.7476 51.8256 26.1891 53.2621 31.7302Z" fill="white"/>
<path d="M34.6267 18.4786H31.6817V23.8388H29.3052V28.2736H42.2299V38.2971C42.2299 42.119 40.2557 45.1116 36.0253 45.1116C31.8302 45.1116 29.7855 42.9122 29.7855 38.5855H25.2026C25.2026 43.8093 27.6186 47.2764 31.3872 48.7606V53.6689H34.3322V49.4851C34.88 49.5499 35.445 49.5825 36.0253 49.5825C36.5578 49.5825 37.0735 49.5534 37.5717 49.4965V53.6689H40.8113V48.6441C44.6858 46.9489 46.8833 43.1018 46.8833 38.2971V23.8388H41.1058V18.4786H37.8662V23.8388H34.6267V18.4786Z" fill="white"/>
<path d="M39.3388 30.6995H32.7124V37.6177C32.6167 37.9213 32.5652 38.2433 32.5652 38.5768C32.5652 40.4065 34.1145 41.8897 36.0256 41.8897C37.9367 41.8897 39.486 40.4065 39.486 38.5768C39.486 38.2433 39.4345 37.9213 39.3388 37.6177V30.6995Z" fill="white"/>
<path fill-rule="evenodd" clip-rule="evenodd" d="M36.8355 60.0002C49.9439 60.0002 60.598 49.4929 60.8336 36.4418H60.0972C60.1 36.2949 60.1013 36.1477 60.1013 36.0001C60.1013 35.8526 60.1 35.7053 60.0972 35.5584H58.4816V35.1167H59.3481C59.3367 34.8207 59.3195 34.5262 59.2968 34.2332H60.0352C60.013 33.9372 59.9852 33.6427 59.952 33.3498H60.6929C59.3737 21.342 49.1957 12 36.8355 12C23.5795 12 12.8334 22.7452 12.8334 36.0001C12.8334 49.255 23.5795 60.0002 36.8355 60.0002ZM59.6689 36.4418C59.6717 36.2949 59.6731 36.1477 59.6731 36.0001H58.4816V36.4418H59.6689ZM40.109 58.2918C39.0403 58.4473 37.9473 58.5278 36.8355 58.5278C24.3927 58.5278 14.3059 48.4418 14.3059 36.0001C14.3059 33.9252 14.5865 31.9157 15.1117 30.0077C14.9985 29.9375 14.9438 29.7967 14.9875 29.6648L15.5767 27.887C15.6213 27.7522 15.7539 27.6714 15.8895 27.6869C19.1979 19.3597 27.3291 13.4724 36.8355 13.4724C48.2292 13.4724 57.6475 21.9294 59.1546 32.9081H60.1947C58.6805 21.3584 48.7993 12.4417 36.8355 12.4417C23.8235 12.4417 13.2751 22.9892 13.2751 36.0001C13.2751 49.0111 23.8235 59.5585 36.8355 59.5585C49.5517 59.5585 59.915 49.4852 60.3796 36.8836H59.3481C58.9576 47.0094 51.8831 55.4212 42.4115 57.8326C42.3651 57.9748 42.2448 58.0882 42.0875 58.1186L40.5048 58.4237C40.3535 58.4529 40.2055 58.398 40.109 58.2918ZM40.0161 57.8862C38.9775 58.0358 37.9155 58.1132 36.8355 58.1132C24.6217 58.1132 14.7205 48.2128 14.7205 36.0001C14.7205 33.9692 14.9944 32.0022 15.5071 30.1341C15.6337 30.1377 15.7529 30.0587 15.7948 29.9323L16.384 28.1544C16.4249 28.0309 16.3795 27.8996 16.2807 27.8258C19.5317 19.6593 27.5094 13.887 36.8355 13.887C47.9998 13.887 57.2319 22.1591 58.7359 32.9081H57.6671C56.1783 22.7926 47.4956 15.0173 36.9827 14.9453V15.3328C47.2812 15.4047 55.7898 23.0074 57.2752 32.9081H56.2728V32.6136C56.2728 32.4859 56.1915 32.3772 56.0779 32.3364C54.5602 24.3177 48.1534 18.0281 40.0742 16.6837V16.3166C48.3975 17.6755 54.9895 24.1853 56.4702 32.4664H56.8501C55.2768 23.4957 47.8189 16.5506 38.6025 15.7568V15.976H38.6014V17.4487H40.0742V17.0493C47.9482 18.385 54.1926 24.5082 55.7075 32.3191H55.3244C53.9467 25.3612 48.7388 19.7809 41.9893 17.8666L41.9891 18.7735L41.9893 19.0766C47.9047 20.8755 52.5066 25.6902 54.0041 31.7302H54.4412C52.9487 25.5556 48.292 20.6158 42.2836 18.7233V18.4147C48.6451 20.383 53.5316 25.7076 54.8738 32.3191H54.653C54.4904 32.3191 54.3585 32.451 54.3585 32.6136V32.9081H53.6222L50.9717 29.9633H49.4992V29.5216H48.0267V30.994H49.4992V30.405H50.9717L53.6222 33.3498H54.3585V33.7915H53.475L51.8552 32.1719H49.4992V31.7302H48.0267V33.2026H49.4992V32.6136H51.8552L53.475 34.2332H54.3585V34.675H49.4992V34.2332H48.0267V35.7056H49.4992V35.1167H54.3585V35.5584H53.475L51.8552 37.178H49.4992V36.7363H48.0267V38.2087H49.4992V37.6198H51.8552L53.475 36.0001H54.3585V36.4418H53.6222L51.8552 39.3866H49.4992V38.7977H48.0267V40.2701H49.4992V39.8284H51.8552L53.6222 36.8836H54.3585V37.4725C54.3585 37.6352 54.4904 37.767 54.653 37.767H55.1583C54.4352 45.3577 49.1014 51.604 41.9888 53.674V53.3671C48.753 51.3633 53.8655 45.5161 54.7957 38.356H54.3675C53.4319 45.384 48.3688 51.1077 41.6948 53.0104L41.6943 53.9638L41.6948 54.2145C49.1996 52.2179 54.8637 45.707 55.602 37.767H55.9794C55.094 47.4826 46.9784 55.1089 37.0578 55.2214L36.6882 55.2886V55.5825L36.7833 55.583L36.8355 55.583C47.3556 55.583 55.9384 47.2889 56.4005 36.8836H56.6067C56.6576 36.9716 56.7528 37.0308 56.8618 37.0308H57.4797C56.945 47.9179 47.9854 56.5906 36.9828 56.6674V56.3187C47.6934 56.2427 56.4342 47.8812 57.1138 37.3253H56.739C56.0569 47.7229 47.4065 55.9453 36.8355 55.9453C36.7863 55.9453 36.7373 55.9451 36.6882 55.9447V56.3187C36.6882 56.3187 36.6882 56.3187 36.6882 56.3187V57.0549C36.7373 57.0553 36.7864 57.0554 36.8355 57.0554C48.1194 57.0554 57.3303 48.1806 57.8678 37.0308H58.1871C58.2961 37.0308 58.3912 36.9716 58.4422 36.8836H58.9331C58.5431 46.808 51.612 55.0521 42.3307 57.4252C42.2346 57.3125 42.0823 57.2534 41.9264 57.2834L40.3437 57.5886C40.1821 57.6197 40.0597 57.7385 40.0161 57.8862ZM56.5673 36.4418V36.0001H56.2728V36.4418H56.5673ZM56.5673 35.5584H56.4151C56.4119 35.4108 56.407 35.2635 56.4005 35.1167H56.5673V35.5584ZM56.6067 34.675H56.3759C56.366 34.5273 56.3545 34.38 56.3414 34.2332H58.9233V34.675H58.4422C58.3912 34.5869 58.2961 34.5277 58.1871 34.5277H56.8618C56.7528 34.5277 56.6576 34.5869 56.6067 34.675ZM59.5677 33.7915C59.5535 33.6439 59.5379 33.4966 59.521 33.3498H56.2728V33.7915H59.5677Z" fill="white"/>
</svg>
