<svg width="20" height="19" viewBox="0 0 20 19" fill="none" xmlns="http://www.w3.org/2000/svg">
<path fill-rule="evenodd" clip-rule="evenodd" d="M9.99991 3.36729C8.77129 3.36729 7.54266 3.70252 6.44699 4.37424L5.09937 1.90104L6.44658 4.37421C5.92084 4.69624 5.426 5.09548 4.97616 5.57232C4.52835 6.04668 4.15081 6.57101 3.84515 7.13004C3.37242 7.99458 3.0724 8.94082 2.9519 9.91062C2.91133 10.2372 2.89086 10.5658 2.89087 10.8957C2.89006 12.1884 3.20214 13.4893 3.84315 14.6659C4.22793 15.3752 3.99739 16.2802 3.32825 16.6877C2.6591 17.0952 1.80482 16.8503 1.42045 16.1415C0.527594 14.5024 0.0930233 12.6925 0.0930176 10.8957C0.0934067 10.4379 0.121927 9.98038 0.17816 9.52709C0.346861 8.17002 0.763355 6.84847 1.41752 5.6452L1.41723 5.64501C1.84258 4.86263 2.36832 4.12981 2.99167 3.46926C3.61944 2.80412 4.30985 2.2472 5.04325 1.79804C6.5719 0.861259 8.2857 0.393066 9.99991 0.393066C11.7137 0.393051 13.4283 0.861244 14.9566 1.79804C15.69 2.24723 16.3804 2.80415 17.0082 3.46929C17.6315 4.12984 18.1572 4.86266 18.5822 5.64504L18.5826 5.64501C19.2365 6.84849 19.653 8.17002 19.8217 9.52711C19.8783 9.9804 19.9064 10.4379 19.9068 10.8957C19.9072 12.6925 19.4722 14.5024 18.5794 16.1415C18.195 16.8504 17.3407 17.0952 16.6716 16.6877C16.0024 16.2802 15.7719 15.3752 16.1567 14.6659C16.7977 13.4893 17.1097 12.1884 17.1089 10.8957C17.109 10.5658 17.0885 10.2372 17.0479 9.91064C16.9274 8.94083 16.6274 7.99459 16.1547 7.13006C15.849 6.57105 15.4715 6.04673 15.0237 5.57236C14.9337 5.477 14.8419 5.38474 14.7485 5.29559L11.928 9.50449C12.0153 9.63897 12.0897 9.78555 12.1479 9.94201C12.5596 11.0522 12.0081 12.2676 10.9165 12.6569C9.8244 13.0463 8.60541 12.4617 8.19373 11.3519C7.78204 10.2418 8.33311 9.02628 9.42516 8.63697C9.9477 8.45119 10.4992 8.48753 10.9771 8.69808L14.5905 5.1493C14.2623 4.85427 13.9149 4.59595 13.5532 4.37423C13.0343 4.05592 12.4853 3.81315 11.9206 3.64596L11.7571 3.59971C11.1811 3.44448 10.5907 3.36727 9.99991 3.36729ZM10.5668 11.3954C10.6592 11.3467 10.7405 11.2763 10.8028 11.1835L11.4787 10.1746L10.8024 11.1835C10.7402 11.2763 10.659 11.3466 10.5668 11.3954Z" fill="white"/>
</svg>
