<svg width="29" height="29" viewBox="0 0 29 29" fill="none" xmlns="http://www.w3.org/2000/svg">
<path d="M20.5817 19.5H8.08169C7.9723 19.4993 7.865 19.47 7.77051 19.4149C7.67602 19.3597 7.59765 19.2808 7.54324 19.1859C7.48883 19.091 7.46028 18.9835 7.46045 18.8741C7.46062 18.7647 7.48949 18.6572 7.54419 18.5625C8.05903 17.6719 8.70669 15.4227 8.70669 12.625C8.70669 11.1332 9.29932 9.70242 10.3542 8.64752C11.4091 7.59263 12.8398 7 14.3317 7C15.8235 7 17.2543 7.59263 18.3092 8.64752C19.3641 9.70242 19.9567 11.1332 19.9567 12.625C19.9567 15.4234 20.6051 17.6719 21.1208 18.5625C21.1755 18.6574 21.2044 18.7649 21.2045 18.8745C21.2046 18.984 21.1759 19.0916 21.1213 19.1865C21.0667 19.2815 20.9881 19.3604 20.8934 19.4154C20.7987 19.4705 20.6912 19.4996 20.5817 19.5Z" fill="#1C1C1C" fill-opacity="0.1"/>
<path d="M13.394 20.8267C13.6683 21.0206 13.9959 21.1249 14.3318 21.125L13.394 20.8267ZM13.394 20.8267C13.2216 20.7047 13.0756 20.551 12.9631 20.375M13.394 20.8267L12.9631 20.375M12.9631 20.375H15.7006C15.5881 20.551 15.4421 20.7047 15.2697 20.8267C14.9954 21.0206 14.6678 21.1249 14.3319 21.125L12.9631 20.375ZM8.08168 20.375H8.08186H11.0724C11.2555 21.0565 11.6483 21.6654 12.1976 22.1138C12.8002 22.6057 13.5541 22.8743 14.3319 22.8743C15.1096 22.8743 15.8636 22.6057 16.4661 22.1138C17.0154 21.6654 17.4082 21.0565 17.5913 20.375H20.5819H20.5822C20.8459 20.3746 21.1048 20.3048 21.3329 20.1725C21.561 20.0401 21.7501 19.85 21.8813 19.6213C22.0125 19.3926 22.0811 19.1333 22.0802 18.8696C22.0792 18.606 22.0088 18.3473 21.8761 18.1196C21.4716 17.4227 20.8319 15.3572 20.8319 12.625C20.8319 10.9011 20.147 9.24779 18.9281 8.02881C17.7091 6.80982 16.0558 6.125 14.3319 6.125C12.608 6.125 10.9547 6.80982 9.73566 8.02881C8.51668 9.24779 7.83186 10.9011 7.83186 12.625C7.83186 15.3579 7.19134 17.4227 6.78683 18.1197C6.65406 18.3474 6.58368 18.6062 6.58277 18.8699C6.58187 19.1336 6.65053 19.393 6.78183 19.6217C6.91314 19.8505 7.10244 20.0406 7.33065 20.1728C7.55886 20.3051 7.81791 20.3748 8.08168 20.375ZM8.49207 18.625C9.05617 17.4097 9.58186 15.1785 9.58186 12.625C9.58186 11.3652 10.0823 10.157 10.9731 9.26624C11.8639 8.37545 13.0721 7.875 14.3319 7.875C15.5916 7.875 16.7998 8.37545 17.6906 9.26624C18.5814 10.157 19.0819 11.3652 19.0819 12.625C19.0819 15.1767 19.6064 17.4081 20.1716 18.625H8.49207Z" fill="white" stroke="white" stroke-width="0.5"/>
</svg>
