<svg width="14" height="14" viewBox="0 0 14 14" fill="none" xmlns="http://www.w3.org/2000/svg">
<path d="M13.4227 10.9156C13.4227 12.4617 12.1727 13.7109 10.6266 13.7109C9.07959 13.7109 7.83044 12.4617 7.83044 10.9156C7.83044 10.8183 7.83883 10.7143 7.84722 10.6186L4.70129 9.04483C4.20381 9.50791 3.53016 9.7965 2.79611 9.7965C1.24915 9.7965 0 8.54735 0 6.99955C0 5.45343 1.24915 4.20429 2.79611 4.20429C3.53016 4.20429 4.20297 4.49203 4.70129 4.95512L7.84722 3.38299C7.83883 3.28567 7.83044 3.18165 7.83044 3.08601C7.83044 1.53821 9.07959 0.289062 10.6266 0.289062C12.1727 0.289062 13.4227 1.53821 13.4227 3.08601C13.4227 4.63297 12.1727 5.88212 10.6266 5.88212C9.8925 5.88212 9.21969 5.59353 8.72137 5.13045L5.57544 6.70342C5.58383 6.79989 5.59305 6.90476 5.59305 7.00039C5.59305 7.09687 5.58383 7.20173 5.57544 7.29737L8.72137 8.87202C9.21969 8.40809 9.89334 8.11951 10.6266 8.11951C12.1727 8.11783 13.4227 9.36698 13.4227 10.9156V10.9156Z" fill="white"/>
</svg>
