<svg width="208" height="55" viewBox="0 0 208 55" fill="none" xmlns="http://www.w3.org/2000/svg">
<path fill-rule="evenodd" clip-rule="evenodd" d="M81.2946 36.8282C78.0054 42.1213 72.0696 45.6547 65.2935 45.6547C54.9482 45.6547 46.5616 37.4186 46.5616 27.2589C46.5616 17.0991 54.9482 8.86304 65.2935 8.86304C72.4104 8.86304 78.6003 12.7608 81.7705 18.5012C81.6798 18.5748 81.5904 18.6498 81.5023 18.7262C78.4012 13.0565 72.3057 9.20161 65.2935 9.20161C55.1386 9.20161 46.9064 17.2861 46.9064 27.2589C46.9064 37.2316 55.1386 45.3161 65.2935 45.3161C71.9724 45.3161 77.8196 41.819 81.04 36.5875C81.1235 36.6692 81.2084 36.7494 81.2946 36.8282ZM80.8736 36.4213C77.7 41.6148 71.91 45.0904 65.2935 45.0904C55.2655 45.0904 47.1362 37.1069 47.1362 27.2589C47.1362 17.4108 55.2655 9.42733 65.2935 9.42733C72.2384 9.42733 78.2726 13.2564 81.3266 18.8821C81.2415 18.9593 81.1578 19.0378 81.0753 19.1176C78.0918 13.5511 72.144 9.75552 65.2935 9.75552C55.4501 9.75552 47.4704 17.592 47.4704 27.2589C47.4704 36.9257 55.4501 44.7622 65.2935 44.7622C71.8228 44.7622 77.5322 41.3142 80.6364 36.171C80.7142 36.2558 80.7933 36.3392 80.8736 36.4213ZM80.4693 35.9846C78.1249 39.9084 74.2477 42.8424 69.6451 43.9932C69.6089 44.1022 69.5151 44.1891 69.3923 44.2124L68.1571 44.4463C68.039 44.4686 67.9236 44.4266 67.8483 44.3451C67.0142 44.4644 66.1612 44.5261 65.2935 44.5261C55.5829 44.5261 47.7108 36.7953 47.7108 27.2589C47.7108 25.6684 47.9298 24.1282 48.3397 22.6657C48.2514 22.612 48.2087 22.504 48.2428 22.4029L48.7026 21.0402C48.7374 20.937 48.8409 20.875 48.9467 20.8869C51.5287 14.5042 57.8745 9.99161 65.2935 9.99161C72.0787 9.99161 77.9662 13.7661 80.8978 19.2936C80.8182 19.3744 80.7399 19.4564 80.6629 19.5397C77.8035 14.0598 71.9944 10.3094 65.2935 10.3094C58.0152 10.3094 51.7892 14.7338 49.252 20.9933C49.3291 21.0499 49.3645 21.1506 49.3326 21.2452L48.8728 22.6079C48.8402 22.7048 48.7471 22.7654 48.6483 22.7626C48.2481 24.1945 48.0344 25.7022 48.0344 27.2589C48.0344 36.6198 55.7616 44.2083 65.2935 44.2083C66.1364 44.2083 66.9652 44.149 67.7757 44.0343C67.8097 43.9211 67.9053 43.83 68.0314 43.8062L69.2666 43.5723C69.3882 43.5492 69.5071 43.5946 69.5821 43.6809C74.1312 42.5386 77.9568 39.6212 80.2488 35.7246C80.321 35.8125 80.3945 35.8992 80.4693 35.9846ZM80.0815 35.5157C77.1547 40.5604 71.6285 43.9618 65.2935 43.9618C65.1397 43.9618 64.9864 43.9598 64.8337 43.9558V43.9621H64.4889V43.9434C55.4692 43.5309 48.2854 36.2188 48.2854 27.2589C48.2854 18.223 55.5914 10.863 64.7186 10.5653V10.5562H65.0634V10.5574C65.14 10.5564 65.2167 10.5559 65.2935 10.5559C69.3753 10.5559 73.1212 11.968 76.0525 14.3219C76.1643 14.2818 76.2945 14.3023 76.389 14.3861L77.3226 15.2142C77.4198 15.3004 77.453 15.4304 77.4191 15.5462C78.6483 16.7734 79.6858 18.1863 80.484 19.7381C80.4098 19.8226 80.3367 19.9084 80.2649 19.9953C79.4747 18.4274 78.4366 17.0014 77.2009 15.7667C77.0921 15.8006 76.9684 15.7785 76.8776 15.698L75.9441 14.8699C75.8506 14.787 75.8163 14.6638 75.8439 14.5515C72.9682 12.246 69.2952 10.8633 65.2935 10.8633C65.2167 10.8633 65.14 10.8638 65.0634 10.8648V11.1217L65.0637 11.4023L65.0802 11.4186L65.0634 11.4188V11.6861C65.1399 11.685 65.2167 11.6845 65.2935 11.6845L65.2935 11.9711C65.2166 11.9711 65.1399 11.9717 65.0634 11.9728V12.2504C65.1399 12.2493 65.2166 12.2488 65.2935 12.2488L65.2935 12.525C65.2166 12.525 65.1399 12.5256 65.0634 12.5267V12.588H64.9055C65.0597 12.5933 65.1918 12.6839 65.2545 12.8131L65.2935 12.8131V13.1516L65.2934 13.3773L65.2935 13.7027L65.2934 13.9416L65.2935 14.2538L65.2934 14.5059L65.2935 14.8048L65.2934 14.9017C65.2934 15.1199 65.1133 15.2968 64.8911 15.2968C64.669 15.2968 64.4889 15.1199 64.4889 14.9017V12.9828C64.4889 12.7694 64.6613 12.5954 64.8768 12.588H64.7186V12.5357C64.6611 12.5378 64.6038 12.5402 64.5465 12.543V12.2664C64.6038 12.2637 64.6611 12.2613 64.7186 12.2592V11.9814C64.6611 11.9834 64.6038 11.9858 64.5465 11.9884V11.7015C64.6038 11.6988 64.6611 11.6965 64.7186 11.6945V11.4271L64.6995 11.4278L64.7186 11.4028V10.8729C55.7644 11.1705 48.5985 18.3928 48.5985 27.2589C48.5985 35.9345 55.4599 43.0364 64.1443 43.6162V43.6232H64.2557C64.3333 43.6279 64.411 43.6321 64.4889 43.6357V41.9303H64.6472C64.4316 41.9229 64.2592 41.7489 64.2592 41.5354V39.6165C64.2592 39.3984 64.4393 39.2215 64.6615 39.2215C64.8837 39.2215 65.0638 39.3984 65.0638 39.6165V41.5354C65.0638 41.7489 64.8913 41.9229 64.6758 41.9303H64.8337V41.9859L64.8338 42.2623L64.8337 42.5401L64.8338 42.8268L64.8337 43.0942L64.8338 43.3913L64.8337 43.6483C64.9864 43.6524 65.1397 43.6544 65.2935 43.6544C71.5612 43.6544 77.0223 40.2624 79.8771 35.2457C79.944 35.337 80.0121 35.427 80.0815 35.5157ZM79.7101 35.0116C76.9174 40.0095 71.5083 43.3975 65.2935 43.3975C65.2551 43.3975 65.2168 43.3974 65.1786 43.3971V42.8328V42.5462C65.2168 42.5465 65.2551 42.5466 65.2935 42.5466C71.3567 42.5466 76.6102 39.1424 79.1806 34.1741C79.2374 34.2731 79.2956 34.371 79.3549 34.4677C76.723 39.4088 71.4699 42.7906 65.4085 42.8328V43.1001C71.5177 43.0582 76.8198 39.6812 79.5211 34.7306C79.5829 34.8255 79.6459 34.9192 79.7101 35.0116ZM79.0156 33.8771C76.525 38.8481 71.316 42.2689 65.2935 42.2689L65.2528 42.2689L65.1786 42.2685V42.0432L65.467 41.9917C71.3806 41.9259 76.4723 38.5002 78.8556 33.5672C78.9073 33.6712 78.9606 33.7745 79.0156 33.8771ZM78.6933 33.2265C76.8896 37.1264 73.3724 40.0999 69.0858 41.22L69.0854 41.0278L69.0858 40.297C73.3033 39.1162 76.6965 36.015 78.2228 32.0177C78.2749 32.1775 78.3303 32.3359 78.3892 32.4931C76.7816 36.3683 73.4424 39.3697 69.3153 40.5704V40.8057C73.4609 39.6207 76.8323 36.6502 78.5086 32.7984C78.5672 32.9422 78.6288 33.0849 78.6933 33.2265ZM77.6502 29.154L77.0153 30.1932H75.1765V30.5317H74.0274V29.4032H75.1765V29.8546H77.0153L77.6273 28.8528C77.6339 28.9535 77.6415 29.0539 77.6502 29.154ZM77.7295 29.8598L77.6757 29.9611C76.6929 34.3237 73.3806 37.8264 69.0858 39.1465V40.0483C73.3023 38.8445 76.6709 35.6843 78.1049 31.6347C78.0513 31.4494 78.0021 31.2626 77.9571 31.0741C76.6875 35.1435 73.4398 38.3637 69.3153 39.6534V39.3884C73.4741 38.0594 76.7114 34.7249 77.8435 30.5474C77.7996 30.3203 77.7616 30.0911 77.7295 29.8598ZM77.5958 27.9302L77.0153 28.5003H75.1765V28.9517H74.0274V27.8231H75.1765V28.1617H77.0153L77.5982 27.5892C77.5965 27.6825 77.5957 27.776 77.5957 27.8698C77.5957 27.8899 77.5957 27.91 77.5958 27.9302ZM77.6505 26.5817H75.1765V27.0331H74.0274V25.9046H75.1765V26.2431H77.684C77.6715 26.3555 77.6603 26.4684 77.6505 26.5817ZM77.7992 25.4331L77.0153 24.6631H75.1765V25.1146H74.0274V23.986H75.1765V24.3246H77.0153L77.8524 25.1467C77.8336 25.2418 77.8159 25.3372 77.7992 25.4331ZM77.9412 24.733L76.3257 22.9703H75.1765V23.4217H74.0274V22.2931H75.1765V22.6317H76.3257L78.0065 24.4657C77.9838 24.5545 77.962 24.6436 77.9412 24.733ZM78.14 23.986H78.1133C76.9922 19.7388 73.7405 16.3344 69.5454 14.9386V15.2052C73.5235 16.5584 76.6239 19.7573 77.7842 23.7589L77.2422 23.0765C75.9389 19.4857 73.0049 16.655 69.3157 15.4443L69.3155 15.2963L69.3157 14.5372C73.6303 15.8514 77.0227 19.2243 78.3023 23.4866C78.2445 23.6517 78.1904 23.8181 78.14 23.986ZM78.44 23.1135C77.0621 18.8959 73.6383 15.5782 69.3157 14.2872L69.3155 14.0549L69.3157 13.3597C73.7313 14.5897 77.3016 17.7944 78.9742 21.9405C78.9021 22.0775 78.833 22.2157 78.7668 22.3552C77.2242 18.269 73.8093 15.0756 69.5454 13.7798V14.0163C73.7847 15.3278 77.1618 18.5484 78.6313 22.6514C78.5641 22.8041 78.5004 22.9582 78.44 23.1135ZM79.1546 21.6109C77.2093 17.0118 72.9599 13.5894 67.8211 12.7332V13.0394H66.6717V11.9106H66.6725V11.7425C72.4675 12.2328 77.3717 15.7836 79.701 20.741C79.6365 20.8341 79.5733 20.9285 79.5113 21.024C77.4117 16.4134 73.055 13.0109 67.8211 12.1716V12.4531C73.005 13.3003 77.3066 16.7096 79.3309 21.3111C79.2709 21.4099 79.2121 21.5098 79.1546 21.6109ZM79.8812 20.4883C77.3115 15.158 71.8019 11.4614 65.4084 11.4176V11.1206C71.8657 11.164 77.4382 14.8648 80.0852 20.219C80.016 20.3075 79.9479 20.3973 79.8812 20.4883ZM64.1443 42.793V42.5056C56.0835 41.9279 49.7265 35.3225 49.7265 27.2589C49.7265 19.9389 54.965 13.8206 61.9611 12.3222V12.6066C55.1224 14.1 50.0092 20.093 50.0092 27.2589C50.0092 35.1691 56.2398 41.6501 64.1443 42.2271V42.0432L62.8802 41.8175L60.352 41.3097V41.1748C54.4938 39.1687 50.2905 33.6959 50.2905 27.2589C50.2905 20.738 54.6041 15.2065 60.5818 13.2663V13.2081L61.1525 13.0934C61.4191 13.0184 61.6887 12.9504 61.9611 12.8898V13.1521H63.1105L63.11 11.8309C62.7315 11.8821 62.3571 11.9464 61.9876 12.0234H61.9611V12.0289C54.8025 13.5322 49.4346 19.7799 49.4346 27.2589C49.4346 35.404 55.8015 42.0888 63.9143 42.7752V43.0434C55.651 42.3563 49.1625 35.5517 49.1625 27.2589C49.1625 18.8128 55.893 11.9105 64.3741 11.4425V11.145C55.7258 11.6134 48.86 18.6487 48.86 27.2589C48.86 35.7926 55.6045 42.7794 64.1443 43.3587L64.1442 43.0609L64.1443 42.793ZM60.352 40.8693C54.6588 38.8756 50.5838 33.5346 50.5838 27.2589C50.5838 20.899 54.7688 15.4991 60.5818 13.57V13.928L60.581 13.9283V14.1675L60.5818 14.1672V14.5129C56.0814 16.1177 52.672 19.9559 51.7425 24.6631H51.9905C52.9107 20.0887 56.2164 16.3561 60.5818 14.7675V15.101L60.581 15.1013V15.3716L60.5818 15.3713V15.6928C57.1038 17.0604 54.3864 19.8973 53.2253 23.4217H56.7895C56.7895 23.297 56.8924 23.196 57.0193 23.196H59.3177C59.4446 23.196 59.5475 23.297 59.5475 23.4217H61.3862V23.7603H59.5475C59.5475 23.8849 59.4446 23.986 59.3177 23.986H57.0193C56.8924 23.986 56.7895 23.8849 56.7895 23.7603H52.8024C53.8944 19.9927 56.7062 16.9364 60.3511 15.4621V15.1897C56.2766 16.8004 53.2056 20.3434 52.3146 24.6631H56.7895C56.7895 24.5385 56.8924 24.4374 57.0193 24.4374H59.3177C59.4446 24.4374 59.5475 24.5385 59.5475 24.6631H61.3862V25.0017H59.5475C59.5475 25.1264 59.4446 25.2274 59.3177 25.2274H57.0193C56.8924 25.2274 56.7895 25.1264 56.7895 25.0017H51.3443C52.1704 20.0406 55.6744 15.9638 60.3511 14.2495V14.0088C55.2652 15.839 51.5266 20.4127 50.9939 25.9046H56.7895C56.7895 25.7799 56.8924 25.6788 57.0193 25.6788H59.3177C59.4446 25.6788 59.5475 25.7799 59.5475 25.9046H61.3862V26.2431H59.5475C59.5475 26.3678 59.4446 26.4689 59.3177 26.4689H57.0193C56.8924 26.4689 56.7895 26.3678 56.7895 26.2431H50.9652C50.9409 26.5786 50.9286 26.9173 50.9286 27.2589C50.9286 33.2598 54.7439 38.3856 60.1223 40.4244V40.1821C54.8736 38.1549 51.1584 33.133 51.1584 27.2589C51.1584 27.2212 51.1586 27.1836 51.1589 27.146H56.7895C56.7895 27.0213 56.8924 26.9203 57.0193 26.9203H59.3177C59.4446 26.9203 59.5475 27.0213 59.5475 27.146H61.3862V27.4846H59.5475C59.5475 27.6092 59.4446 27.7103 59.3177 27.7103H57.0193C56.8924 27.7103 56.7895 27.6092 56.7895 27.4846H52.0528C52.1444 32.7684 55.4446 37.2847 60.1223 39.2351V38.9606C55.6896 37.0687 52.5416 32.8188 52.3201 27.8231H52.6248C52.8479 32.7366 55.97 36.9095 60.352 38.732L60.3522 39.4479L60.352 39.6642C55.3738 37.7503 51.8288 33.0298 51.7349 27.4846H51.4916C51.586 33.1639 55.2367 37.994 60.352 39.9205V40.8693ZM61.2713 13.8288H63.5697V17.9373H66.0979V13.8288H68.6262V17.9373H73.1351V29.0195C73.1351 32.7022 71.4201 35.651 68.3963 36.9503V40.8018H65.8681V37.6037C65.4793 37.6473 65.0768 37.6696 64.6612 37.6696C64.2083 37.6696 63.7674 37.6446 63.3399 37.5949V40.8018H61.0415V37.0397C58.1004 35.902 56.2149 33.2445 56.2149 29.2405H59.7915C59.7915 32.5569 61.3872 34.2427 64.6612 34.2427C67.9627 34.2427 69.5034 31.9489 69.5034 29.0195V21.3366H59.4166V17.9373H61.2713V13.8288ZM67.2471 23.196H62.0757V28.4987C62.001 28.7314 61.9608 28.9782 61.9608 29.2339C61.9608 30.6363 63.1699 31.7732 64.6614 31.7732C66.1529 31.7732 67.362 30.6363 67.362 29.2339C67.362 28.9782 67.3219 28.7314 67.2471 28.4987V23.196Z" fill="#C5D82E"/>
<path d="M88.146 41.8671C83.3132 49.2375 74.9784 54.1053 65.5066 54.1053C56.0348 54.1053 47.6999 49.2375 42.8672 41.8671H45.2173C49.787 48.1149 57.1727 52.1729 65.5063 52.1729C73.8398 52.1729 81.2256 48.1149 85.7953 41.8671H88.146Z" fill="url(#paint0_linear_2736_5324)"/>
<path d="M88.94 13.5263C84.2625 5.44026 75.5199 0 65.5066 0C55.4933 0 46.7506 5.44026 42.0731 13.5263H44.3349C48.7989 6.55383 56.6129 1.93229 65.5063 1.93229C74.3997 1.93229 82.2137 6.55383 86.6776 13.5263H88.94Z" fill="url(#paint1_linear_2736_5324)"/>
<path fill-rule="evenodd" clip-rule="evenodd" d="M199.959 18.6601C199.056 18.6601 198.277 18.1318 197.914 17.3675L184.391 17.3675L185.899 15.4283H197.914C198.277 14.6638 199.056 14.1353 199.959 14.1353C201.208 14.1353 202.221 15.1482 202.221 16.3977C202.221 17.6472 201.208 18.6601 199.959 18.6601ZM199.959 17.3672C199.423 17.3672 198.989 16.9331 198.989 16.3976C198.989 15.8621 199.423 15.428 199.959 15.428C200.494 15.428 200.928 15.8621 200.928 16.3976C200.928 16.9331 200.494 17.3672 199.959 17.3672ZM203.193 31.2649C203.556 30.5006 204.335 29.9721 205.238 29.9721C206.487 29.9721 207.5 30.9851 207.5 32.2346C207.5 33.4841 206.487 34.497 205.238 34.497C204.335 34.497 203.556 33.9685 203.193 33.2041H188.161L186.653 31.2649L203.193 31.2649ZM171.57 40.7455H194.897C195.26 41.51 196.04 42.0385 196.942 42.0385C198.192 42.0385 199.205 41.0255 199.205 39.776C199.205 38.5265 198.192 37.5136 196.942 37.5136C196.04 37.5136 195.261 38.042 194.897 38.8063L170.062 38.8063L171.57 40.7455ZM191.881 24.1546C192.244 24.919 193.023 25.4474 193.925 25.4474C195.175 25.4474 196.188 24.4345 196.188 23.185C196.188 21.9355 195.175 20.9226 193.925 20.9226C193.023 20.9226 192.244 21.451 191.881 22.2154H188.916L187.407 24.1546L191.881 24.1546ZM196.942 38.8064C196.407 38.8064 195.973 39.2405 195.973 39.776C195.973 40.3115 196.407 40.7456 196.942 40.7456C197.478 40.7456 197.912 40.3115 197.912 39.776C197.912 39.2405 197.478 38.8064 196.942 38.8064ZM204.268 32.2345C204.268 31.699 204.702 31.2648 205.237 31.2648C205.773 31.2648 206.207 31.699 206.207 32.2345C206.207 32.77 205.773 33.2041 205.237 33.2041C204.702 33.2041 204.268 32.77 204.268 32.2345ZM192.956 23.1851C192.956 23.7206 193.39 24.1547 193.926 24.1547C194.461 24.1547 194.895 23.7206 194.895 23.1851C194.895 22.6496 194.461 22.2155 193.926 22.2155C193.39 22.2155 192.956 22.6496 192.956 23.1851Z" fill="url(#paint2_linear_2736_5324)"/>
<path d="M93.4093 39.2063L94.3665 40.9358L95.3297 39.2063H96.2331L94.7853 41.5573V42.9149H93.9507V41.5573L92.5 39.2063H93.4093Z" fill="#C5D82E"/>
<path d="M96.8845 41.565V41.5115C96.8845 41.3094 96.9184 41.1235 96.9862 40.9536C97.054 40.7821 97.1528 40.6336 97.2824 40.5079C97.412 40.3822 97.5705 40.2846 97.758 40.215C97.9454 40.1437 98.1588 40.108 98.3981 40.108C98.6414 40.108 98.8568 40.1437 99.0442 40.215C99.2337 40.2846 99.3932 40.3822 99.5228 40.5079C99.6524 40.6336 99.7511 40.7821 99.8189 40.9536C99.8867 41.1235 99.9206 41.3094 99.9206 41.5115V41.565C99.9206 41.7653 99.8867 41.9513 99.8189 42.1228C99.7511 42.2926 99.6524 42.4412 99.5228 42.5685C99.3932 42.6942 99.2347 42.7918 99.0472 42.8614C98.8598 42.9311 98.6454 42.9659 98.4041 42.9659C98.1648 42.9659 97.9504 42.9311 97.761 42.8614C97.5715 42.7918 97.412 42.6942 97.2824 42.5685C97.1528 42.4412 97.054 42.2926 96.9862 42.1228C96.9184 41.9513 96.8845 41.7653 96.8845 41.565ZM97.6742 41.5115V41.565C97.6742 41.6855 97.6882 41.7984 97.7161 41.9037C97.744 42.009 97.7869 42.1015 97.8447 42.1814C97.9026 42.2612 97.9773 42.324 98.0691 42.3698C98.1628 42.414 98.2745 42.4361 98.4041 42.4361C98.5317 42.4361 98.6414 42.414 98.7331 42.3698C98.8249 42.324 98.8996 42.2612 98.9575 42.1814C99.0173 42.1015 99.0612 42.009 99.0891 41.9037C99.117 41.7984 99.131 41.6855 99.131 41.565V41.5115C99.131 41.3926 99.117 41.2814 99.0891 41.1778C99.0612 41.0725 99.0173 40.98 98.9575 40.9002C98.8996 40.8186 98.8239 40.755 98.7301 40.7091C98.6384 40.6616 98.5277 40.6378 98.3981 40.6378C98.2705 40.6378 98.1608 40.6616 98.0691 40.7091C97.9773 40.755 97.9026 40.8186 97.8447 40.9002C97.7869 40.98 97.744 41.0725 97.7161 41.1778C97.6882 41.2814 97.6742 41.3926 97.6742 41.5115Z" fill="#C5D82E"/>
<path d="M103.034 42.2603V40.1589H103.83V42.9149H103.082L103.034 42.2603ZM103.136 41.6898L103.381 41.6847C103.381 41.8698 103.357 42.0404 103.309 42.1966C103.261 42.3529 103.186 42.4887 103.085 42.6042C102.985 42.7179 102.858 42.8071 102.705 42.8716C102.551 42.9345 102.37 42.9659 102.16 42.9659C102.001 42.9659 101.855 42.9472 101.724 42.9098C101.592 42.8708 101.478 42.8105 101.383 42.729C101.289 42.6458 101.216 42.5397 101.164 42.4106C101.113 42.2798 101.087 42.1228 101.087 41.9394V40.1589H101.876V41.9445C101.876 42.0362 101.888 42.1126 101.912 42.1737C101.938 42.2348 101.973 42.2849 102.017 42.324C102.063 42.3614 102.116 42.3885 102.175 42.4055C102.237 42.4208 102.303 42.4284 102.373 42.4284C102.564 42.4284 102.715 42.3962 102.825 42.3316C102.936 42.2654 103.016 42.1771 103.064 42.0667C103.112 41.9547 103.136 41.829 103.136 41.6898Z" fill="#C5D82E"/>
<path d="M105.932 40.7219V42.9149H105.142V40.1589H105.89L105.932 40.7219ZM106.916 40.1411L106.904 40.7677C106.86 40.7609 106.81 40.7558 106.754 40.7524C106.701 40.749 106.65 40.7473 106.602 40.7473C106.48 40.7473 106.374 40.7618 106.282 40.7906C106.19 40.8178 106.113 40.8577 106.051 40.9103C105.992 40.963 105.946 41.0275 105.914 41.1039C105.882 41.1786 105.864 41.2635 105.86 41.3586L105.69 41.3408C105.69 41.1659 105.71 41.0037 105.752 40.8543C105.794 40.7049 105.855 40.5741 105.935 40.462C106.015 40.35 106.114 40.2634 106.234 40.2022C106.356 40.1394 106.495 40.108 106.653 40.108C106.697 40.108 106.743 40.1114 106.793 40.1182C106.845 40.1233 106.886 40.1309 106.916 40.1411Z" fill="#C5D82E"/>
<path d="M112.583 39.2063H113.406V41.6694C113.406 41.953 113.334 42.1915 113.19 42.3851C113.047 42.577 112.851 42.7222 112.604 42.8207C112.357 42.9175 112.076 42.9659 111.761 42.9659C111.441 42.9659 111.157 42.9175 110.908 42.8207C110.659 42.7222 110.463 42.577 110.322 42.3851C110.18 42.1915 110.109 41.953 110.109 41.6694V39.2063H110.932V41.6694C110.932 41.8426 110.966 41.9844 111.034 42.0948C111.101 42.2034 111.197 42.2841 111.321 42.3367C111.444 42.3894 111.591 42.4157 111.761 42.4157C111.932 42.4157 112.079 42.3894 112.2 42.3367C112.324 42.2841 112.419 42.2034 112.484 42.0948C112.55 41.9844 112.583 41.8426 112.583 41.6694V39.2063Z" fill="#C5D82E"/>
<path d="M115.514 40.7473V42.9149H114.724V40.1589H115.466L115.514 40.7473ZM115.388 41.4376H115.155C115.157 41.2372 115.189 41.0555 115.251 40.8925C115.313 40.7295 115.399 40.5894 115.511 40.4722C115.625 40.3551 115.759 40.2651 115.915 40.2022C116.07 40.1394 116.244 40.108 116.435 40.108C116.591 40.108 116.731 40.1267 116.857 40.164C116.983 40.2014 117.09 40.2608 117.18 40.3423C117.272 40.4238 117.342 40.5308 117.389 40.6633C117.439 40.794 117.464 40.9553 117.464 41.1472V42.9149H116.669V41.1421C116.669 41.0165 116.647 40.9171 116.603 40.8441C116.561 40.7711 116.499 40.7193 116.417 40.6887C116.337 40.6582 116.239 40.6429 116.121 40.6429C115.999 40.6429 115.893 40.6641 115.801 40.7066C115.711 40.7473 115.636 40.8042 115.574 40.8772C115.514 40.9502 115.468 41.0343 115.436 41.1294C115.404 41.2245 115.388 41.3272 115.388 41.4376Z" fill="#C5D82E"/>
<path d="M119.611 39.0025V42.9149H118.819V39.0025H119.611Z" fill="#C5D82E"/>
<path d="M120.837 41.565V41.5115C120.837 41.3094 120.871 41.1235 120.939 40.9536C121.007 40.7821 121.105 40.6336 121.235 40.5079C121.365 40.3822 121.523 40.2846 121.711 40.215C121.898 40.1437 122.111 40.108 122.351 40.108C122.594 40.108 122.809 40.1437 122.997 40.215C123.186 40.2846 123.346 40.3822 123.475 40.5079C123.605 40.6336 123.704 40.7821 123.771 40.9536C123.839 41.1235 123.873 41.3094 123.873 41.5115V41.565C123.873 41.7653 123.839 41.9513 123.771 42.1228C123.704 42.2926 123.605 42.4412 123.475 42.5685C123.346 42.6942 123.187 42.7918 123 42.8614C122.812 42.9311 122.598 42.9659 122.357 42.9659C122.117 42.9659 121.903 42.9311 121.714 42.8614C121.524 42.7918 121.365 42.6942 121.235 42.5685C121.105 42.4412 121.007 42.2926 120.939 42.1228C120.871 41.9513 120.837 41.7653 120.837 41.565ZM121.627 41.5115V41.565C121.627 41.6855 121.641 41.7984 121.669 41.9037C121.697 42.009 121.739 42.1015 121.797 42.1814C121.855 42.2612 121.93 42.324 122.022 42.3698C122.115 42.414 122.227 42.4361 122.357 42.4361C122.484 42.4361 122.594 42.414 122.686 42.3698C122.777 42.324 122.852 42.2612 122.91 42.1814C122.97 42.1015 123.014 42.009 123.042 41.9037C123.07 41.7984 123.084 41.6855 123.084 41.565V41.5115C123.084 41.3926 123.07 41.2814 123.042 41.1778C123.014 41.0725 122.97 40.98 122.91 40.9002C122.852 40.8186 122.776 40.755 122.683 40.7091C122.591 40.6616 122.48 40.6378 122.351 40.6378C122.223 40.6378 122.113 40.6616 122.022 40.7091C121.93 40.755 121.855 40.8186 121.797 40.9002C121.739 40.98 121.697 41.0725 121.669 41.1778C121.641 41.2814 121.627 41.3926 121.627 41.5115Z" fill="#C5D82E"/>
<path d="M126.388 42.4361C126.5 42.4361 126.6 42.4174 126.687 42.38C126.775 42.3427 126.845 42.29 126.897 42.2221C126.951 42.1542 126.979 42.0752 126.983 41.9852H127.728C127.724 42.172 127.662 42.3393 127.543 42.487C127.423 42.6347 127.264 42.7519 127.064 42.8385C126.867 42.9234 126.645 42.9659 126.4 42.9659C126.151 42.9659 125.934 42.9302 125.748 42.8589C125.563 42.7876 125.408 42.6882 125.284 42.5609C125.163 42.4335 125.071 42.2858 125.009 42.1177C124.949 41.9496 124.92 41.7696 124.92 41.5777V41.4962C124.92 41.3043 124.949 41.1243 125.009 40.9562C125.071 40.7881 125.163 40.6403 125.284 40.513C125.408 40.3856 125.563 40.2863 125.748 40.215C125.934 40.1437 126.15 40.108 126.397 40.108C126.658 40.108 126.888 40.1513 127.085 40.2379C127.285 40.3245 127.44 40.4468 127.552 40.6047C127.665 40.7626 127.724 40.9485 127.728 41.1625H126.983C126.979 41.064 126.954 40.9757 126.906 40.8976C126.858 40.8195 126.79 40.7567 126.702 40.7091C126.615 40.6616 126.508 40.6378 126.382 40.6378C126.249 40.6378 126.137 40.6616 126.047 40.7091C125.959 40.7567 125.891 40.822 125.841 40.9052C125.793 40.9868 125.759 41.0785 125.739 41.1803C125.721 41.2805 125.712 41.3858 125.712 41.4962V41.5777C125.712 41.6898 125.721 41.7967 125.739 41.8986C125.759 42.0005 125.793 42.0922 125.841 42.1737C125.891 42.2535 125.959 42.3172 126.047 42.3647C126.137 42.4123 126.251 42.4361 126.388 42.4361Z" fill="#C5D82E"/>
<path d="M129.657 39V42.9149H128.867V39H129.657ZM131.685 40.1589L130.276 41.5064L129.513 42.1661L129.262 41.6439L129.851 41.0122L130.731 40.1589H131.685ZM130.877 42.9149L129.875 41.6312L130.402 41.1956L131.793 42.9149H130.877Z" fill="#C5D82E"/>
<path d="M133.554 40.1589V42.9149H132.761V40.1589H133.554ZM132.707 39.4381C132.707 39.3379 132.747 39.2547 132.827 39.1885C132.909 39.1223 133.019 39.0891 133.156 39.0891C133.294 39.0891 133.402 39.1223 133.482 39.1885C133.564 39.2547 133.605 39.3379 133.605 39.4381C133.605 39.5366 133.564 39.619 133.482 39.6852C133.402 39.7514 133.294 39.7845 133.156 39.7845C133.019 39.7845 132.909 39.7514 132.827 39.6852C132.747 39.619 132.707 39.5366 132.707 39.4381Z" fill="#C5D82E"/>
<path d="M135.695 40.7473V42.9149H134.905V40.1589H135.647L135.695 40.7473ZM135.57 41.4376H135.336C135.338 41.2372 135.37 41.0555 135.432 40.8925C135.494 40.7295 135.58 40.5894 135.692 40.4722C135.806 40.3551 135.94 40.2651 136.096 40.2022C136.252 40.1394 136.425 40.108 136.616 40.108C136.772 40.108 136.913 40.1267 137.038 40.164C137.164 40.2014 137.272 40.2608 137.361 40.3423C137.453 40.4238 137.523 40.5308 137.571 40.6633C137.62 40.794 137.645 40.9553 137.645 41.1472V42.9149H136.85V41.1421C136.85 41.0165 136.828 40.9171 136.784 40.8441C136.742 40.7711 136.68 40.7193 136.598 40.6887C136.519 40.6582 136.42 40.6429 136.302 40.6429C136.181 40.6429 136.074 40.6641 135.982 40.7066C135.893 40.7473 135.817 40.8042 135.755 40.8772C135.695 40.9502 135.649 41.0343 135.617 41.1294C135.585 41.2245 135.57 41.3272 135.57 41.4376Z" fill="#C5D82E"/>
<path d="M141.013 40.1589H141.731V42.8309C141.731 43.0805 141.667 43.2919 141.539 43.4651C141.414 43.64 141.237 43.7725 141.01 43.8625C140.783 43.9542 140.518 44 140.217 44C140.088 44 139.947 43.9847 139.796 43.9542C139.646 43.9236 139.501 43.8752 139.362 43.809C139.224 43.7444 139.11 43.6604 139.018 43.5568L139.374 43.1594C139.481 43.2664 139.603 43.3471 139.739 43.4014C139.874 43.4575 140.021 43.4855 140.178 43.4855C140.338 43.4855 140.474 43.46 140.585 43.4091C140.699 43.3598 140.786 43.2868 140.845 43.19C140.907 43.0949 140.938 42.9778 140.938 42.8385V40.7881L141.013 40.1589ZM138.826 41.57V41.5166C138.826 41.306 138.856 41.115 138.916 40.9435C138.976 40.7702 139.062 40.6217 139.173 40.4977C139.287 40.3737 139.424 40.2778 139.583 40.2099C139.745 40.142 139.926 40.108 140.128 40.108C140.341 40.108 140.52 40.1411 140.666 40.2073C140.814 40.2736 140.935 40.3678 141.031 40.4901C141.129 40.6123 141.204 40.7575 141.258 40.9256C141.314 41.092 141.357 41.2754 141.387 41.4758V41.621C141.359 41.8163 141.314 41.9954 141.252 42.1584C141.192 42.3214 141.113 42.4641 141.013 42.5863C140.913 42.7069 140.79 42.8003 140.642 42.8665C140.494 42.9328 140.321 42.9659 140.122 42.9659C139.922 42.9659 139.743 42.9311 139.583 42.8614C139.424 42.7918 139.287 42.6942 139.173 42.5685C139.062 42.4429 138.976 42.2951 138.916 42.1253C138.856 41.9555 138.826 41.7704 138.826 41.57ZM139.616 41.5166V41.57C139.616 41.6889 139.63 41.8001 139.658 41.9037C139.686 42.0073 139.729 42.099 139.787 42.1788C139.844 42.2569 139.917 42.3181 140.005 42.3622C140.093 42.4064 140.197 42.4284 140.319 42.4284C140.482 42.4284 140.616 42.3996 140.72 42.3418C140.825 42.2824 140.905 42.2017 140.959 42.0998C141.015 41.9963 141.051 41.8799 141.067 41.7509V41.351C141.057 41.2491 141.035 41.1549 141.001 41.0683C140.969 40.9817 140.924 40.9069 140.866 40.8441C140.809 40.7813 140.735 40.732 140.645 40.6964C140.555 40.6607 140.449 40.6429 140.325 40.6429C140.205 40.6429 140.101 40.6658 140.011 40.7117C139.921 40.7558 139.847 40.8178 139.79 40.8976C139.732 40.9774 139.688 41.07 139.658 41.1752C139.63 41.2805 139.616 41.3943 139.616 41.5166Z" fill="#C5D82E"/>
<path d="M146.324 42.2043L147.192 39.2063H147.661L147.691 39.838L146.764 42.9149H146.267L146.324 42.2043ZM145.777 39.2063L146.489 42.1941V42.9149H145.947L144.96 39.2063H145.777ZM148.592 42.1814L149.291 39.2063H150.111L149.124 42.9149H148.583L148.592 42.1814ZM147.886 39.2063L148.753 42.2145L148.804 42.9149H148.307L147.383 39.8355L147.419 39.2063H147.886Z" fill="#C5D82E"/>
<path d="M152.542 42.9659C152.297 42.9659 152.077 42.9319 151.881 42.864C151.686 42.7961 151.519 42.7018 151.382 42.5813C151.246 42.459 151.141 42.3172 151.068 42.1559C150.996 41.9929 150.96 41.818 150.96 41.6312V41.5293C150.96 41.317 150.996 41.1243 151.068 40.9511C151.139 40.7762 151.241 40.6259 151.373 40.5003C151.504 40.3746 151.662 40.2778 151.845 40.2099C152.029 40.142 152.231 40.108 152.453 40.108C152.682 40.108 152.884 40.1411 153.06 40.2073C153.235 40.2719 153.382 40.3636 153.5 40.4824C153.617 40.6013 153.706 40.7439 153.766 40.9103C153.826 41.0751 153.855 41.2576 153.855 41.458V41.7407H151.319V41.2771H153.078V41.2262C153.074 41.1192 153.05 41.0216 153.006 40.9333C152.962 40.8433 152.894 40.7719 152.803 40.7193C152.711 40.665 152.592 40.6378 152.447 40.6378C152.329 40.6378 152.226 40.6599 152.139 40.704C152.053 40.7465 151.981 40.8076 151.923 40.8874C151.867 40.9655 151.825 41.0589 151.798 41.1676C151.77 41.2763 151.756 41.3968 151.756 41.5293V41.6312C151.756 41.7466 151.774 41.8536 151.809 41.9521C151.847 42.0506 151.902 42.1364 151.974 42.2094C152.048 42.2807 152.136 42.3367 152.237 42.3775C152.341 42.4165 152.459 42.4361 152.59 42.4361C152.756 42.4361 152.905 42.4089 153.039 42.3546C153.174 42.2985 153.292 42.2162 153.392 42.1075L153.79 42.459C153.722 42.5439 153.63 42.6254 153.514 42.7035C153.401 42.7816 153.263 42.8453 153.102 42.8945C152.94 42.9421 152.754 42.9659 152.542 42.9659Z" fill="#C5D82E"/>
<path d="M156.78 42.3291V41.0581C156.78 40.9647 156.761 40.884 156.723 40.8161C156.686 40.7482 156.628 40.6955 156.55 40.6582C156.472 40.6208 156.373 40.6021 156.254 40.6021C156.148 40.6021 156.055 40.6174 155.976 40.648C155.898 40.6786 155.838 40.7219 155.796 40.7779C155.754 40.8322 155.733 40.8951 155.733 40.9664H154.941C154.941 40.8526 154.973 40.7448 155.036 40.6429C155.1 40.5393 155.191 40.4476 155.309 40.3678C155.428 40.2863 155.571 40.2226 155.736 40.1768C155.904 40.1309 156.091 40.108 156.299 40.108C156.544 40.108 156.762 40.1437 156.954 40.215C157.147 40.2846 157.299 40.3899 157.408 40.5308C157.52 40.6718 157.576 40.8492 157.576 41.0632V42.2654C157.576 42.403 157.586 42.521 157.606 42.6195C157.628 42.7163 157.66 42.8003 157.702 42.8716V42.9149H156.897C156.859 42.8453 156.83 42.757 156.81 42.65C156.79 42.5413 156.78 42.4344 156.78 42.3291ZM156.891 41.2364L156.897 41.6363H156.397C156.274 41.6363 156.165 41.6473 156.071 41.6694C155.978 41.6898 155.901 41.7203 155.841 41.7611C155.781 41.8001 155.736 41.8477 155.706 41.9037C155.677 41.9581 155.662 42.02 155.662 42.0897C155.662 42.1576 155.68 42.2187 155.715 42.2731C155.753 42.3274 155.807 42.3707 155.877 42.403C155.949 42.4335 156.032 42.4488 156.128 42.4488C156.268 42.4488 156.389 42.425 156.493 42.3775C156.597 42.3282 156.678 42.2688 156.735 42.1992C156.793 42.1296 156.824 42.0633 156.828 42.0005L157.055 42.2909C157.028 42.3605 156.986 42.4344 156.93 42.5125C156.874 42.5906 156.802 42.6636 156.715 42.7315C156.627 42.7995 156.521 42.8555 156.397 42.8996C156.274 42.9438 156.13 42.9659 155.967 42.9659C155.757 42.9659 155.57 42.9302 155.404 42.8589C155.239 42.7876 155.108 42.6899 155.012 42.566C154.917 42.442 154.869 42.3011 154.869 42.1431C154.869 41.9971 154.901 41.8681 154.965 41.756C155.028 41.6439 155.123 41.5497 155.249 41.4733C155.374 41.3951 155.53 41.3366 155.715 41.2975C155.903 41.2567 156.117 41.2364 156.359 41.2364H156.891Z" fill="#C5D82E"/>
<path d="M159.738 39.0025V42.9149H158.945V39.0025H159.738Z" fill="#C5D82E"/>
<path d="M162.636 40.1589V40.6429H160.781V40.1589H162.636ZM161.278 39.4814H162.071V42.1202C162.071 42.2017 162.084 42.2646 162.109 42.3087C162.135 42.3529 162.174 42.3826 162.226 42.3979C162.278 42.4131 162.34 42.4208 162.412 42.4208C162.463 42.4208 162.511 42.4182 162.555 42.4131C162.599 42.408 162.636 42.403 162.666 42.3979L162.669 42.9022C162.603 42.9209 162.528 42.9362 162.444 42.948C162.363 42.9599 162.27 42.9659 162.166 42.9659C161.989 42.9659 161.833 42.9404 161.7 42.8895C161.566 42.8368 161.462 42.7528 161.389 42.6373C161.315 42.5201 161.278 42.3656 161.278 42.1737V39.4814Z" fill="#C5D82E"/>
<path d="M164.55 39.0025V42.9149H163.757V39.0025H164.55ZM164.424 41.4376H164.191C164.191 41.2457 164.221 41.0691 164.281 40.9078C164.34 40.7465 164.425 40.6064 164.535 40.4875C164.644 40.367 164.775 40.2736 164.927 40.2073C165.08 40.1411 165.25 40.108 165.435 40.108C165.595 40.108 165.739 40.1275 165.869 40.1666C166 40.2039 166.113 40.2642 166.207 40.3474C166.301 40.4306 166.372 40.5393 166.422 40.6735C166.474 40.8059 166.5 40.9672 166.5 41.1574V42.9149H165.704V41.1523C165.704 41.025 165.682 40.9248 165.639 40.8518C165.595 40.777 165.532 40.7236 165.45 40.6913C165.37 40.659 165.272 40.6429 165.154 40.6429C165.026 40.6429 164.917 40.6641 164.825 40.7066C164.733 40.7473 164.657 40.8042 164.598 40.8772C164.54 40.9502 164.496 41.0343 164.466 41.1294C164.438 41.2245 164.424 41.3272 164.424 41.4376Z" fill="#C5D82E"/>
<path d="M183.991 36.8169L180.066 31.3288L176.008 36.8169H170.354L177.239 27.8031L170.587 18.9224H176.407L180.199 24.1444L184.091 18.9224H189.612L182.96 27.6701L189.878 36.8169H183.991Z" fill="url(#paint3_linear_2736_5324)"/>
<path d="M167.812 18.9223V36.8169H162.856V34.7547C161.57 36.3069 159.707 37.083 157.268 37.083C155.583 37.083 154.053 36.706 152.678 35.9521C151.325 35.1982 150.261 34.1227 149.485 32.7257C148.709 31.3288 148.321 29.7101 148.321 27.8696C148.321 26.0291 148.709 24.4104 149.485 23.0135C150.261 21.6165 151.325 20.5411 152.678 19.7871C154.053 19.0332 155.583 18.6562 157.268 18.6562C159.552 18.6562 161.337 19.3769 162.623 20.8182V18.9223H167.812ZM158.166 32.8255C159.474 32.8255 160.561 32.382 161.425 31.4951C162.29 30.5859 162.723 29.3774 162.723 27.8696C162.723 26.3618 162.29 25.1644 161.425 24.2774C160.561 23.3683 159.474 22.9137 158.166 22.9137C156.835 22.9137 155.738 23.3683 154.873 24.2774C154.008 25.1644 153.576 26.3618 153.576 27.8696C153.576 29.3774 154.008 30.5859 154.873 31.4951C155.738 32.382 156.835 32.8255 158.166 32.8255Z" fill="url(#paint4_linear_2736_5324)"/>
<path d="M137.488 18.6562C139.727 18.6562 141.501 19.3215 142.81 20.6519C144.14 21.9602 144.805 23.9337 144.805 26.5724V36.8169H139.616V27.3707C139.616 25.9515 139.317 24.8983 138.718 24.2109C138.142 23.5013 137.31 23.1465 136.224 23.1465C135.004 23.1465 134.04 23.5456 133.33 24.3439C132.621 25.12 132.266 26.2842 132.266 27.8363V36.8169H127.077V27.3707C127.077 24.5546 125.946 23.1465 123.684 23.1465C122.487 23.1465 121.533 23.5456 120.824 24.3439C120.114 25.12 119.76 26.2842 119.76 27.8363V36.8169H114.571V18.9223H119.527V20.9845C120.192 20.2306 121.001 19.6541 121.955 19.255C122.93 18.8558 123.995 18.6562 125.148 18.6562C126.412 18.6562 127.554 18.9113 128.574 19.4213C129.594 19.9091 130.414 20.6297 131.035 21.5832C131.767 20.6519 132.687 19.9313 133.796 19.4213C134.927 18.9113 136.157 18.6562 137.488 18.6562Z" fill="url(#paint5_linear_2736_5324)"/>
<path d="M104.566 18.9224H109.755V36.8169H104.566V18.9224ZM107.161 16.4278C106.207 16.4278 105.431 16.1507 104.833 15.5963C104.234 15.0419 103.934 14.3545 103.934 13.5341C103.934 12.7137 104.234 12.0263 104.833 11.4719C105.431 10.9176 106.207 10.6404 107.161 10.6404C108.114 10.6404 108.89 10.9065 109.489 11.4387C110.088 11.9708 110.387 12.6361 110.387 13.4343C110.387 14.2991 110.088 15.0198 109.489 15.5963C108.89 16.1507 108.114 16.4278 107.161 16.4278Z" fill="url(#paint6_linear_2736_5324)"/>
<path d="M99.7625 18.9223V36.8169H94.8066V34.7547C93.5205 36.3069 91.6579 37.083 89.2187 37.083C87.5335 37.083 86.0035 36.706 84.6287 35.9521C83.2761 35.1982 82.2117 34.1227 81.4356 32.7257C80.6595 31.3288 80.2715 29.7101 80.2715 27.8696C80.2715 26.0291 80.6595 24.4104 81.4356 23.0135C82.2117 21.6165 83.2761 20.5411 84.6287 19.7871C86.0035 19.0332 87.5335 18.6562 89.2187 18.6562C91.5027 18.6562 93.2877 19.3769 94.5738 20.8182V18.9223H99.7625ZM90.1168 32.8255C91.4251 32.8255 92.5116 32.382 93.3764 31.4951C94.2412 30.5859 94.6736 29.3774 94.6736 27.8696C94.6736 26.3618 94.2412 25.1644 93.3764 24.2774C92.5116 23.3683 91.4251 22.9137 90.1168 22.9137C88.7864 22.9137 87.6887 23.3683 86.8239 24.2774C85.9591 25.1644 85.5268 26.3618 85.5268 27.8696C85.5268 29.3774 85.9591 30.5859 86.8239 31.4951C87.6887 32.382 88.7864 32.8255 90.1168 32.8255Z" fill="url(#paint7_linear_2736_5324)"/>
<path d="M61.5498 6.40444L61.5559 5.89494L61.7356 6.37171L61.5498 6.40444Z" fill="url(#paint8_linear_2736_5324)"/>
<path d="M60.2079 6.03431C60.225 6.03068 60.2352 6.03756 60.239 6.05532L60.3134 6.40463C60.3169 6.42131 60.3105 6.43177 60.2934 6.4354L60.1443 6.46701L60.0589 6.06592L60.2079 6.03431Z" fill="url(#paint9_linear_2736_5324)"/>
<path d="M53.6843 9.85916C53.6991 9.84991 53.7018 9.83819 53.6925 9.82341L53.1823 9.00863C53.1731 8.9939 53.1613 8.99111 53.1465 9.00036L53.0173 9.08097L53.555 9.93972L53.6843 9.85916Z" fill="url(#paint10_linear_2736_5324)"/>
<path d="M49.1746 12.3458C49.1625 12.3342 49.1507 12.3347 49.1386 12.3472L49.0508 12.4379C49.0387 12.4505 49.0387 12.4623 49.0507 12.4739L49.7432 13.1413C49.7563 13.1539 49.7686 13.1539 49.7807 13.1414L49.8685 13.0507C49.8807 13.0381 49.8802 13.0258 49.8671 13.0133L49.1746 12.3458Z" fill="url(#paint11_linear_2736_5324)"/>
<path d="M43.7489 22.5434C43.7313 22.5391 43.7206 22.5451 43.7164 22.5621L43.6795 22.7096L44.0782 22.8088L44.1151 22.6613C44.1193 22.6444 44.1127 22.6339 44.0961 22.6298L43.7489 22.5434Z" fill="url(#paint12_linear_2736_5324)"/>
<path d="M43.4396 24.0029C43.442 23.9856 43.452 23.9784 43.47 23.9809L43.8243 24.0306C43.8413 24.033 43.8489 24.0427 43.8465 24.0599L43.8253 24.2105L43.4183 24.1535L43.4396 24.0029Z" fill="url(#paint13_linear_2736_5324)"/>
<path d="M43.4852 29.8372L43.9947 29.87L43.9717 29.683L43.4852 29.8372Z" fill="url(#paint14_linear_2736_5324)"/>
<path d="M45.5131 34.608C45.5294 34.6018 45.5404 34.6067 45.5467 34.623L45.6012 34.7649L44.6539 35.1278L44.5993 34.9859C44.593 34.9696 44.598 34.9586 44.6142 34.9524L45.5131 34.608Z" fill="url(#paint15_linear_2736_5324)"/>
<path d="M46.2928 36.3435C46.2849 36.3279 46.2734 36.3242 46.2579 36.3322L45.4001 36.7683C45.3846 36.7762 45.3808 36.7877 45.3887 36.8032L45.4579 36.9387L46.362 36.479L46.2928 36.3435Z" fill="url(#paint16_linear_2736_5324)"/>
<path d="M48.9732 41.0681L48.528 41.3176L48.8519 40.9239L48.9732 41.0681Z" fill="url(#paint17_linear_2736_5324)"/>
<path d="M49.3275 42.4149C49.3156 42.4021 49.3163 42.3899 49.3296 42.3775L49.5913 42.134C49.6037 42.1223 49.6161 42.1225 49.628 42.1352L49.7319 42.2465L49.4314 42.5261L49.3275 42.4149Z" fill="url(#paint18_linear_2736_5324)"/>
<path d="M56.0086 46.0165C55.9927 46.0092 55.9814 46.0133 55.9741 46.0291L55.5672 46.8998C55.5598 46.9156 55.5639 46.927 55.5798 46.9343L55.7178 46.9986L56.1467 46.0808L56.0086 46.0165Z" fill="url(#paint19_linear_2736_5324)"/>
<path d="M61.0124 48.7032C61.0092 48.7196 61.016 48.7292 61.0332 48.7326L61.1572 48.7566C61.1744 48.7599 61.1843 48.7535 61.1875 48.7372L61.3712 47.794C61.3747 47.7762 61.368 47.7659 61.3509 47.7626L61.2268 47.7385C61.2096 47.7352 61.1996 47.7423 61.1961 47.7601L61.0124 48.7032Z" fill="url(#paint20_linear_2736_5324)"/>
<path d="M66.9998 6.57802C67.0172 6.57923 67.0263 6.57132 67.0275 6.55394L67.0947 5.59547C67.0959 5.57813 67.088 5.56902 67.0706 5.56781L66.9186 5.55717L66.8478 6.56737L66.9998 6.57802Z" fill="url(#paint21_linear_2736_5324)"/>
<path d="M68.8755 6.82668C68.8724 6.84383 68.8625 6.85076 68.8453 6.84774L68.6953 6.82133L68.8715 5.82404L69.0215 5.85045C69.0388 5.85347 69.0457 5.86337 69.0426 5.88048L68.8755 6.82668Z" fill="url(#paint22_linear_2736_5324)"/>
<path d="M74.03 7.54392L73.7394 7.96286L73.9118 8.03948L74.03 7.54392Z" fill="url(#paint23_linear_2736_5324)"/>
<path d="M79.0772 10.5412C79.0906 10.5524 79.0914 10.5646 79.0797 10.5785L78.8497 10.8521C78.8387 10.8652 78.8264 10.8665 78.8131 10.8553L78.6963 10.7576L78.9604 10.4435L79.0772 10.5412Z" fill="url(#paint24_linear_2736_5324)"/>
<path d="M80.1143 11.5257C80.1267 11.5125 80.1265 11.5001 80.1138 11.4883L80.0023 11.3846L79.7221 11.6845L79.8335 11.7882C79.8463 11.8001 79.8586 11.7994 79.8703 11.7869L80.1143 11.5257Z" fill="url(#paint25_linear_2736_5324)"/>
<path d="M81.3628 40.2899C81.3491 40.2792 81.3476 40.2672 81.3583 40.2535L81.4522 40.1336L82.2518 40.7571L82.158 40.877C82.1472 40.8907 82.1352 40.8921 82.1215 40.8814L81.3628 40.2899Z" fill="url(#paint26_linear_2736_5324)"/>
<path d="M78.3116 44.4668L78.0695 44.0182L77.9228 44.1367L78.3116 44.4668Z" fill="url(#paint27_linear_2736_5324)"/>
<path d="M73.2691 47.5095C73.2529 47.516 73.2417 47.511 73.2349 47.4942L73.1008 47.163C73.0945 47.1472 73.099 47.1358 73.1152 47.1293L73.2565 47.0723L73.4104 47.4525L73.2691 47.5095Z" fill="url(#paint28_linear_2736_5324)"/>
<path d="M71.9262 47.9715C71.9321 47.9887 71.9431 47.9943 71.9596 47.9886L72.1037 47.9391L71.9699 47.5514L71.8259 47.6008C71.8094 47.6065 71.8042 47.6177 71.8097 47.6339L71.9262 47.9715Z" fill="url(#paint29_linear_2736_5324)"/>
<path fill-rule="evenodd" clip-rule="evenodd" d="M65.2552 50.5456C73.6546 50.5456 81.0173 46.0984 85.1257 39.426C84.707 39.2808 84.296 39.1116 83.8934 38.9181L83.4415 39.6398C83.4095 39.6713 83.3631 39.6939 83.3021 39.7074C83.1812 39.7342 83.0486 39.7027 82.9048 39.613L82.3571 39.2715C82.2134 39.1819 82.1268 39.0767 82.098 38.9565C82.0834 38.8959 82.0834 38.8444 82.0978 38.8018L82.5178 38.1312C82.2512 37.9517 81.9942 37.7615 81.747 37.5609C78.2864 42.9659 72.1697 46.5567 65.2011 46.5567C54.4067 46.5567 45.656 37.9405 45.656 27.3119C45.656 16.6833 54.4067 8.06706 65.2011 8.06706C72.6264 8.06706 79.0845 12.144 82.3927 18.1484C82.6852 17.9454 82.9896 17.7555 83.3057 17.5789L83.3139 17.5744L83.322 17.5699C84.1817 17.0976 85.0821 16.7416 86.017 16.4978C82.1467 8.95541 74.3023 3.7959 65.2552 3.7959C56.5938 3.7959 49.0348 8.52473 45.0099 15.5461H36.1581V15.6032L31.65 20.12L25.5907 20.12C25.2262 19.3512 24.444 18.8196 23.538 18.8196C22.2835 18.8196 21.2666 19.8385 21.2666 21.0953C21.2666 22.3521 22.2835 23.371 23.538 23.371C24.444 23.371 25.2262 22.8394 25.5907 22.0706L32.9479 22.0706L37.4427 17.5671H43.9785C43.6063 18.3936 43.2807 19.2457 43.0049 20.12H37.4904V35.7246H43.5364C43.8945 36.6366 44.3081 37.5205 44.7731 38.3722H24.4804L24.5115 38.3255L20.5906 34.3971C20.4216 33.3075 19.4811 32.4737 18.3463 32.4737C17.0919 32.4737 16.075 33.4926 16.075 34.7494C16.075 36.0062 17.0919 37.0251 18.3463 37.0251C18.8076 37.0251 19.2368 36.8873 19.595 36.6506L23.2136 40.276L23.2243 40.26V40.2744H45.9326C50.1282 46.4727 57.217 50.5456 65.2552 50.5456ZM39.4374 22.0706H42.4818C42.1172 23.7123 41.9248 25.419 41.9248 27.1707C41.9248 29.464 42.2544 31.6801 42.8688 33.7741H39.4374V22.0706ZM23.538 20.12C24.0696 20.12 24.5017 20.547 24.5112 21.0774V21.1132C24.5017 21.6436 24.0696 22.0706 23.538 22.0706C23.0004 22.0706 22.5645 21.6339 22.5645 21.0953C22.5645 20.5567 23.0004 20.12 23.538 20.12ZM19.3197 34.7494C19.3197 35.288 18.8839 35.7247 18.3463 35.7247C17.8087 35.7247 17.3729 35.288 17.3729 34.7494C17.3729 34.2108 17.8087 33.7741 18.3463 33.7741C18.8839 33.7741 19.3197 34.2108 19.3197 34.7494ZM64.0861 5.59766L64.0793 5.20861L65.1825 5.18941L64.7634 6.39082L65.1688 6.38375L65.1756 6.77094L64.0817 6.79L64.5343 5.58985L64.0861 5.59766ZM63.3817 5.27201L63.8708 5.23785L63.9813 6.81524L63.4922 6.84936L63.3817 5.27201ZM62.7924 5.30177L62.3057 5.36141L62.4988 6.93081L63.376 6.82333L63.3287 6.43893L62.9382 6.48677L62.7924 5.30177ZM61.1852 5.53011L61.0978 7.15106L61.547 7.07204L61.5494 6.69098L61.8349 6.64073L61.9691 6.99775L62.4169 6.91896L61.7792 5.42556L61.1852 5.53011ZM60.5953 5.74037C60.5344 5.70062 60.4347 5.69556 60.2967 5.72484L59.5201 5.88954L59.8495 7.43621L60.3291 7.3345L60.1996 6.72664L60.3577 6.69312C60.3696 6.69568 60.3768 6.70214 60.379 6.71292L60.4489 7.04098C60.4734 7.15566 60.5 7.23943 60.529 7.2921L61.0085 7.19039C60.9807 7.14325 60.9552 7.06436 60.9318 6.95452L60.8624 6.62855C60.8511 6.57569 60.8258 6.5306 60.7866 6.4935C60.7482 6.45697 60.6684 6.44116 60.5473 6.44655C60.6602 6.40262 60.7268 6.35651 60.7471 6.30826C60.7679 6.25847 60.7654 6.17326 60.7396 6.0523L60.7301 6.00744C60.7006 5.86914 60.6557 5.77984 60.5953 5.74037ZM58.2234 6.25707L59.36 5.95314L59.4338 6.22769L59.1022 6.31634L59.4385 7.56912L58.965 7.69575L58.6286 6.44297L58.2971 6.53162L58.2234 6.25707ZM57.9632 6.35116L58.531 7.82736L58.0929 7.99517L57.6141 7.42157L57.8679 8.08141L57.4102 8.25671L56.8424 6.78056L57.2805 6.6127L57.7597 7.18732L57.5056 6.52651L57.9632 6.35116ZM55.8201 7.21373L56.6274 6.85503L56.7432 7.11471L56.3838 7.27444L56.5186 7.57665L56.878 7.41692L56.9922 7.67274L56.6327 7.83242L56.7965 8.19953L57.1559 8.03985L57.2718 8.29952L56.4645 8.65826L55.8201 7.21373ZM55.5666 7.39977C55.4975 7.37708 55.3999 7.39795 55.2742 7.46187L54.8929 7.65577C54.7666 7.71997 54.6923 7.78649 54.6708 7.85529C54.6477 7.92363 54.6688 8.02134 54.7335 8.14802L55.1204 8.90594C55.1844 9.03132 55.2509 9.10519 55.3199 9.12671C55.3884 9.14977 55.4859 9.12885 55.6122 9.06465L55.9935 8.87071C56.1192 8.80683 56.1935 8.74036 56.2158 8.67118C56.2382 8.60317 56.2329 8.53726 56.2004 8.47362L56.0469 8.17289L55.61 8.39501L55.7413 8.65208C55.7489 8.66695 55.745 8.67811 55.7294 8.68602L55.6168 8.74329C55.6012 8.75119 55.5899 8.74775 55.5823 8.73287L55.1452 7.87682C55.137 7.86064 55.1405 7.84888 55.1561 7.84097L55.2687 7.7837C55.2843 7.7758 55.2959 7.77984 55.3042 7.79602L55.4343 8.05086L55.8712 7.8287L55.7187 7.53016C55.6856 7.46527 55.6349 7.42162 55.5666 7.39977ZM53.6367 8.35689L54.4096 7.92935L54.5476 8.17796L54.2035 8.36832L54.3643 8.65761L54.7084 8.46729L54.8444 8.71219L54.5003 8.90251L54.6955 9.25399L55.0396 9.06367L55.1777 9.31229L54.4048 9.73983L53.6367 8.35689ZM54.119 9.82648C54.1054 9.88733 54.0828 9.93368 54.0511 9.96557L53.2902 10.4401L52.4506 9.09914L53.2115 8.62465C53.2541 8.61024 53.3058 8.61029 53.3665 8.62479C53.487 8.65361 53.5923 8.73999 53.6822 8.88345L54.0244 9.43004C54.1142 9.57345 54.1458 9.70584 54.119 9.82648ZM51.9163 11.5378L50.8979 10.3265L50.5223 10.6411L50.9782 11.1832L50.3376 10.7957L49.9782 11.0967L50.9966 12.308L51.3722 11.9935L50.917 11.4521L51.5568 11.8388L51.9163 11.5378ZM49.828 11.284L49.4695 11.6177L50.55 12.7741L50.9086 12.4404L49.828 11.284ZM49.0388 12.0411C49.1368 11.9399 49.2222 11.8884 49.295 11.8874C49.3667 11.8858 49.4539 11.9348 49.5564 12.0336L50.1696 12.6245C50.271 12.7222 50.3226 12.807 50.3236 12.8786C50.3251 12.9512 50.2765 13.0383 50.1786 13.1395L49.8812 13.4467C49.7828 13.5485 49.6974 13.6 49.6251 13.6004C49.5529 13.6025 49.4659 13.5542 49.3645 13.4565L48.7513 12.8656C48.6489 12.7668 48.597 12.6813 48.5965 12.6092C48.5945 12.5371 48.6431 12.4501 48.7415 12.3483L49.0388 12.0411ZM48.3188 12.921C48.2464 12.9284 48.1658 12.9871 48.077 13.0964L47.8077 13.4283C47.7185 13.5383 47.6777 13.6292 47.6861 13.7008C47.6928 13.7726 47.7519 13.8533 47.8627 13.9428L48.525 14.4781C48.6347 14.5666 48.7255 14.6072 48.7973 14.5988C48.8692 14.5921 48.9498 14.5333 49.039 14.4234L49.3084 14.0915C49.3971 13.9821 49.4379 13.8912 49.43 13.819C49.4228 13.7478 49.3911 13.6897 49.3355 13.6448L49.0727 13.4323L48.7641 13.8126L48.9887 13.9942C49.0017 14.0047 49.0027 14.0164 48.9917 14.03L48.9122 14.128C48.9012 14.1415 48.8895 14.143 48.8765 14.1325L48.1283 13.5279C48.1142 13.5165 48.1126 13.5042 48.1236 13.4907L48.2032 13.3927C48.2142 13.3792 48.2264 13.3781 48.2405 13.3895L48.4633 13.5695L48.7718 13.1892L48.5109 12.9784C48.4542 12.9325 48.3901 12.9133 48.3188 12.921ZM47.691 15.5852L47.7797 15.4633C47.7904 15.4487 47.7886 15.436 47.774 15.4254L46.828 14.7394L47.1161 14.3437L48.1871 15.1202C48.245 15.1622 48.2793 15.2191 48.29 15.2901C48.3015 15.362 48.2657 15.4547 48.1826 15.5688L48.005 15.8129L47.691 15.5852ZM45.8864 18.1296L44.9186 18.0418L45.1366 17.6327L45.6731 17.7383L45.285 17.3541L45.5028 16.9453L46.1171 17.6966L46.7251 18.0192L46.4944 18.4522L45.8864 18.1296ZM44.8552 18.3756C44.7882 18.4038 44.7282 18.4834 44.6754 18.6139L44.5151 19.0099C44.462 19.141 44.4497 19.2399 44.4785 19.306C44.5061 19.3726 44.5863 19.4326 44.7183 19.4858L45.5086 19.8045C45.6394 19.8572 45.7381 19.8694 45.8043 19.8405C45.8711 19.8131 45.9311 19.7334 45.9841 19.6022L46.1444 19.2062C46.1973 19.0758 46.2097 18.9769 46.181 18.9101C46.1532 18.8441 46.1059 18.7978 46.0395 18.7711L45.7259 18.6447L45.5422 19.0983L45.8103 19.2064C45.8258 19.2127 45.8302 19.2236 45.8236 19.2398L45.7763 19.3567C45.7698 19.3729 45.759 19.3777 45.7435 19.3714L44.8508 19.0115C44.834 19.0048 44.8289 18.9935 44.8354 18.9774L44.8828 18.8605C44.8893 18.8443 44.9008 18.8397 44.9176 18.8465L45.1834 18.9537L45.367 18.4999L45.0557 18.3744C44.988 18.3471 44.9212 18.3474 44.8552 18.3756ZM45.8063 20.0859L44.3082 19.5711L44.1486 20.0337L44.8192 20.2641L44.0701 20.2612L43.9173 20.7039L45.4154 21.2187L45.5751 20.7561L44.9055 20.526L45.6536 20.5287L45.8063 20.0859ZM43.8503 20.9147L43.6068 21.7625L45.1298 22.1983L45.3734 21.3506L45.0996 21.2722L44.9911 21.6496L44.604 21.5388L44.7125 21.1614L44.4428 21.0842L44.3343 21.4617L44.0157 21.3705L44.1241 20.9931L43.8503 20.9147ZM43.4766 22.3467C43.5107 22.2102 43.559 22.123 43.6214 22.0858C43.6835 22.0489 43.7836 22.0478 43.9211 22.082L43.9657 22.0931C44.0859 22.123 44.1637 22.1581 44.1995 22.1985C44.2341 22.2379 44.2464 22.3178 44.2365 22.4384C44.2847 22.3274 44.3339 22.2627 44.3836 22.2443C44.4342 22.2254 44.4859 22.2225 44.5385 22.2356L44.8625 22.3162C44.9717 22.3434 45.0539 22.3551 45.1086 22.3507L44.99 22.8255C44.9298 22.8284 44.8427 22.8156 44.7287 22.7872L44.4026 22.7061C44.3919 22.7034 44.3829 22.707 44.3754 22.7165L44.3363 22.873L44.9405 23.0234L44.8219 23.4981L43.2845 23.1156L43.4766 22.3467ZM43.2953 23.5391C43.237 23.5826 43.1982 23.6744 43.1785 23.8137L43.068 24.5984L44.6371 24.8185L44.7053 24.334L44.0886 24.2475L44.1111 24.0877C44.1176 24.0775 44.1261 24.073 44.1371 24.0745L44.4699 24.1212C44.5862 24.1375 44.6742 24.1412 44.7337 24.132L44.802 23.6475C44.7481 23.6575 44.6651 23.6544 44.5536 23.6388L44.2229 23.5924C44.1693 23.5849 44.1182 23.5932 44.0699 23.6173C44.0223 23.6408 43.9802 23.7102 43.9438 23.8256C43.9411 23.7047 43.9204 23.6265 43.8819 23.5909C43.8421 23.5545 43.7611 23.5277 43.6383 23.5105L43.5929 23.504C43.4526 23.4844 43.3531 23.4959 43.2953 23.5391ZM43.0473 24.8285L44.2622 24.9346C44.4026 24.9469 44.4962 24.9803 44.5421 25.0354C44.5891 25.0908 44.6062 25.189 44.5939 25.3292L44.5566 25.7547C44.5443 25.8955 44.5103 25.9892 44.4545 26.035C44.3996 26.0819 44.3016 26.099 44.1611 26.0868L42.9463 25.9807L42.989 25.4933L44.2556 25.6039C44.2738 25.6054 44.2834 25.5974 44.285 25.5793L44.2959 25.4547C44.2974 25.4374 44.2893 25.4281 44.2712 25.4265L43.0046 25.316L43.0473 24.8285ZM43.0293 26.2864C42.9759 26.3357 42.9469 26.431 42.942 26.5717L42.9271 26.9986C42.9221 27.1399 42.9444 27.237 42.9942 27.2892C43.0429 27.3425 43.1388 27.3714 43.2812 27.3764L44.133 27.4061C44.2739 27.4109 44.3709 27.3888 44.4232 27.339C44.4766 27.2903 44.5056 27.1951 44.5105 27.0537L44.5255 26.6268C44.5304 26.4862 44.5082 26.3891 44.4583 26.3362C44.4096 26.2836 44.3492 26.2563 44.2777 26.2538L43.9397 26.242L43.9226 26.731L44.2115 26.7411C44.2282 26.7417 44.2361 26.7505 44.2355 26.7679L44.2311 26.8939C44.2305 26.9113 44.222 26.9196 44.2053 26.919L43.2431 26.8855C43.225 26.8848 43.2164 26.876 43.217 26.8586L43.2214 26.7326C43.222 26.7151 43.2312 26.7069 43.2493 26.7076L43.5358 26.7175L43.5529 26.2285L43.2173 26.2168C43.1444 26.2143 43.0816 26.2373 43.0293 26.2864ZM42.9772 29.0642L42.943 28.5761L44.1364 28.4928L44.109 28.1011L44.4961 28.0741L44.5578 28.9539L42.9772 29.0642ZM44.7182 30.3595L43.1007 30.1875L43.0272 29.5901L44.555 29.0327L44.6104 29.483L44.2461 29.5982L44.2814 29.8853L44.6627 29.9077L44.7182 30.3595ZM43.3652 31.7434L43.1609 30.5869L43.4414 30.5376L43.501 30.8749L44.7809 30.6496L44.866 31.1315L43.5862 31.3567L43.6457 31.694L43.3652 31.7434ZM43.4147 31.9258L43.525 32.4026L45.0688 32.0469L44.9585 31.5702L43.4147 31.9258ZM43.6491 32.9493C43.6125 32.8133 43.6124 32.7137 43.649 32.651C43.6853 32.5886 43.7723 32.5392 43.9092 32.5026L44.1451 32.4395L44.272 32.9122L43.9865 32.9885C43.9693 32.9931 43.9626 33.0037 43.9672 33.0206L43.9999 33.1424C44.0044 33.1592 44.0155 33.165 44.0327 33.1604L44.963 32.9116C44.9788 32.9075 44.9849 32.897 44.9804 32.8802L44.9477 32.7583C44.9431 32.7415 44.9327 32.7355 44.9169 32.7397L44.6156 32.8203L44.6385 32.9057L44.4673 32.9515L44.3174 32.3935L45.085 32.1882L45.1217 32.3248L44.9901 32.4096C45.086 32.3991 45.1576 32.4752 45.2058 32.6378L45.2903 32.9526C45.3269 33.0891 45.3275 33.1887 45.2914 33.2505C45.2552 33.3136 45.1686 33.3632 45.0324 33.3996L44.2092 33.6198C44.0723 33.6564 43.9721 33.6567 43.9092 33.6202C43.8462 33.5848 43.7965 33.4984 43.7598 33.3618L43.6491 32.9493ZM43.9412 33.9267L44.0927 34.392L45.5996 33.9034L45.4481 33.4381L43.9412 33.9267ZM45.7213 34.2838C45.6959 34.2467 45.6547 34.2158 45.5974 34.1909C45.4839 34.1416 45.3477 34.1473 45.1894 34.2079L44.5865 34.4389C44.4282 34.4995 44.3232 34.5862 44.2719 34.6987C44.246 34.7554 44.2361 34.806 44.2421 34.8505L44.5637 35.6865L46.0428 35.1198L45.7213 34.2838ZM46.2981 35.9085C46.3577 35.9273 46.4019 35.9538 46.4311 35.988L46.8384 36.7859L45.4267 37.5037L45.0193 36.7059C45.0086 36.6623 45.0132 36.6109 45.0329 36.5518C45.0722 36.4345 45.1676 36.3374 45.3187 36.2606L45.8941 35.9679C46.0451 35.8911 46.18 35.8712 46.2981 35.9085ZM45.9375 38.4704L45.5091 37.699L45.7582 37.5612L45.9489 37.9046L46.2388 37.7442L46.0481 37.4008L46.2935 37.2651L46.4842 37.6085L46.8364 37.4137L46.6457 37.0703L46.8948 36.9324L47.3232 37.7038L45.9375 38.4704ZM46.9536 39.3365L46.6229 39.5427L46.0382 38.6089L47.286 38.3486L47.0711 38.0055L47.4002 37.8002L47.98 38.7262L46.716 38.9571L46.9536 39.3365ZM47.0219 40.1071L46.7406 39.7063L48.0385 38.7994L48.3197 39.2002L47.0219 40.1071ZM47.3755 40.5792L47.6773 40.9647L48.9258 39.9912L48.3818 39.2963L48.076 39.5347L48.3182 39.8441L47.3755 40.5792ZM48.3968 41.8204L49.8471 41.0854L49.554 40.7367L49.222 40.9252L49.0358 40.7036L49.2784 40.409L48.9862 40.0614L48.0091 41.3593L48.3968 41.8204ZM48.8755 42.2349C48.8728 42.3075 48.9198 42.3954 49.0159 42.4983L49.5574 43.0778L50.7162 41.9994L50.3818 41.6416L49.9265 42.0654L49.8162 41.9475C49.8123 41.936 49.8142 41.9265 49.8223 41.919L50.068 41.6902C50.154 41.6103 50.2122 41.5444 50.2425 41.4924L49.9081 41.1346C49.882 41.1827 49.8274 41.2451 49.7451 41.3217L49.5008 41.549C49.4613 41.5859 49.4355 41.6307 49.4239 41.6834C49.4122 41.735 49.4398 41.8114 49.5068 41.9123C49.4109 41.8383 49.337 41.8051 49.2851 41.8125C49.2316 41.8204 49.1597 41.8665 49.0691 41.9508L49.0355 41.9821C48.9319 42.0785 48.8783 42.1629 48.8755 42.2349ZM50.5615 44.0211L49.715 43.2054L49.9129 43.0009L50.1597 43.2389L51.0625 42.3059L51.4152 42.6458L50.5125 43.5787L50.7593 43.8166L50.5615 44.0211ZM50.7652 44.1446L51.7623 42.9157L52.127 43.2105L51.8686 43.9111L52.3143 43.3618L52.6953 43.6698L51.6982 44.8986L51.3335 44.6039L51.5925 43.9024L51.1462 44.4525L50.7652 44.1446ZM52.5906 45.5489L51.8756 45.0306L52.0431 44.8006L52.3614 45.0314L52.5562 44.7637L52.2379 44.533L52.4028 44.3064L52.7211 44.5372L52.9578 44.2121L52.6395 43.9813L52.8069 43.7513L53.5219 44.2697L52.5906 45.5489ZM52.8999 45.6494C52.9148 45.7204 52.9818 45.7943 53.1 45.871L53.4589 46.1036C53.5778 46.1807 53.6727 46.2116 53.7432 46.1959C53.814 46.1816 53.8882 46.1145 53.9658 45.9953L54.4301 45.2819C54.5068 45.1639 54.5377 45.0695 54.5219 44.9991C54.5077 44.9284 54.4407 44.8545 54.3219 44.7775L53.963 44.5449C53.8447 44.4683 53.7498 44.4373 53.6787 44.4526C53.6085 44.4672 53.5539 44.5047 53.5149 44.5646L53.3307 44.8477L53.7419 45.1142L53.8994 44.8723C53.9085 44.8583 53.9201 44.8561 53.9347 44.8655L54.0407 44.9342C54.0554 44.9437 54.058 44.9552 54.0489 44.9692L53.5246 45.775C53.5147 45.7902 53.5027 45.793 53.488 45.7835L53.3821 45.7149C53.3674 45.7054 53.3651 45.6933 53.375 45.6781L53.5311 45.4382L53.1199 45.1717L52.937 45.4527C52.8973 45.5138 52.8847 45.5794 52.8999 45.6494ZM54.7275 46.8394L53.9623 46.3984L54.1047 46.1523L54.4454 46.3486L54.6111 46.0621L54.2704 45.8658L54.4107 45.6233L54.7514 45.8196L54.9528 45.4716L54.612 45.2753L54.7545 45.0291L55.5198 45.47L54.7275 46.8394ZM55.7444 45.6705C55.8029 45.6487 55.8542 45.6424 55.8982 45.6515L56.7114 46.0299L56.0418 47.463L55.2286 47.0845C55.1933 47.0567 55.1652 47.0135 55.1443 46.9547C55.1029 46.8383 55.1181 46.703 55.1898 46.5497L55.4627 45.9656C55.5343 45.8123 55.6283 45.7137 55.7444 45.6705ZM58.8552 46.8616L58.4185 48.3816L58.8898 48.5164L59.0853 47.8361L59.1215 48.5828L59.5726 48.7118L60.0093 47.1919L59.538 47.057L59.3428 47.7364L59.3063 46.9907L58.8552 46.8616ZM64.5526 48.174L64.4017 48.1687C64.3835 48.168 64.374 48.1766 64.3734 48.1947L64.3326 49.3609L63.8426 49.3439L63.8888 48.0236C63.8913 47.9522 63.9194 47.892 63.9723 47.8434C64.0257 47.7937 64.1227 47.7715 64.264 47.7764L64.5661 47.7869L64.5526 48.174ZM61.9308 49.0739C61.9744 49.1321 62.0664 49.1708 62.206 49.1904L62.6298 49.2498C62.7701 49.2695 62.8693 49.2575 62.9265 49.2136C62.9847 49.1708 63.0235 49.0787 63.0433 48.9379L63.162 48.0955C63.1816 47.9562 63.1696 47.8576 63.1255 47.8005C63.0826 47.7424 62.9907 47.7037 62.8503 47.684L62.4265 47.6246C62.2869 47.605 62.1878 47.6169 62.1298 47.6609C62.0723 47.7037 62.0387 47.7608 62.0288 47.8315L61.9817 48.1657L62.4673 48.2338L62.5075 47.9482C62.5098 47.9316 62.5194 47.9247 62.5367 47.9271L62.6619 47.9447C62.6791 47.9471 62.6865 47.9564 62.6841 47.9729L62.5502 48.9243C62.5476 48.9423 62.538 48.9499 62.5206 48.9475L62.3955 48.9299C62.3782 48.9275 62.371 48.9175 62.3735 48.8995L62.4134 48.6163L61.9279 48.5482L61.8812 48.88C61.871 48.9522 61.8874 49.0169 61.9308 49.0739ZM60.8303 48.9828C60.6918 48.9559 60.6021 48.9124 60.5615 48.8521C60.5212 48.7929 60.5149 48.6932 60.542 48.5537L60.7047 47.7187C60.7316 47.5805 60.7747 47.4912 60.8344 47.4513C60.8946 47.4105 60.9942 47.4038 61.1326 47.4306L61.5527 47.5121C61.6918 47.5391 61.7816 47.5826 61.8214 47.6428C61.8624 47.7022 61.8692 47.8012 61.8424 47.9394L61.6797 48.7744C61.6525 48.9139 61.6089 49.0039 61.5486 49.0436C61.4891 49.0845 61.3895 49.0913 61.2504 49.0643L60.8303 48.9828ZM59.7983 48.7541L60.2761 48.8642L60.6325 47.3235L60.1548 47.2135L59.7983 48.7541ZM65.337 5.21079L66.2205 5.22618L66.2156 5.5104L65.8222 5.50352L65.8164 5.83427L66.2098 5.84115L66.2049 6.1211L65.8115 6.11422L65.8045 6.51605L66.1979 6.52288L66.1929 6.80711L65.3093 6.79172L65.337 5.21079ZM67.3707 6.80655C67.3239 6.84783 67.2783 6.87205 67.2339 6.8793L66.3388 6.81682L66.4494 5.23947L67.3445 5.30195C67.3874 5.31529 67.4292 5.34565 67.4698 5.39297C67.5502 5.48697 67.5846 5.61862 67.5727 5.78737L67.5277 6.43033C67.5159 6.59908 67.4635 6.72473 67.3707 6.80655ZM69.0466 7.1718C69.0915 7.16924 69.1394 7.1499 69.1903 7.11369C69.2911 7.042 69.3564 6.92248 69.3858 6.75597L69.498 6.12119C69.5274 5.95458 69.507 5.82009 69.4369 5.71824C69.4015 5.66692 69.3631 5.63238 69.3217 5.61462L68.4381 5.45912L68.163 7.01629L69.0466 7.1718ZM70.2551 5.80838L69.7755 5.70666L69.4461 7.25333L69.9256 7.35505L70.2551 5.80838ZM71.2371 6.06266C71.3733 6.09911 71.4598 6.14876 71.496 6.21175C71.5319 6.27432 71.5313 6.37422 71.4946 6.5108L71.4314 6.74625L70.9578 6.61958L71.0342 6.33475C71.0389 6.3176 71.033 6.30644 71.0162 6.30193L70.8941 6.2693C70.8772 6.26479 70.8666 6.27153 70.862 6.28868L70.6127 7.21707C70.6084 7.23283 70.6145 7.24329 70.6314 7.2478L70.7534 7.28044C70.7703 7.28499 70.7807 7.2789 70.785 7.26314L70.8657 6.96246L70.7801 6.93959L70.826 6.76866L71.3852 6.91821L71.1795 7.68427L71.0426 7.64764L71.0348 7.49144C70.996 7.57967 70.8941 7.60352 70.729 7.56378L70.4136 7.47945C70.2767 7.44286 70.1901 7.39354 70.1544 7.33143C70.1178 7.26867 70.118 7.16901 70.1545 7.03313L70.3751 6.21147C70.4118 6.07489 70.4616 5.98815 70.5248 5.95203C70.587 5.91535 70.6868 5.91553 70.8236 5.95212L71.2371 6.06266ZM72.277 6.39839L71.8108 6.24722L71.3211 7.75102L71.7874 7.90224L72.277 6.39839ZM72.4637 6.45539L73.5622 6.87623L73.4602 7.14162L73.1397 7.01885L72.674 8.22965L72.2163 8.05435L72.682 6.84355L72.3616 6.72078L72.4637 6.45539ZM72.9463 8.32965L73.9271 7.03457L74.4781 7.27942L74.17 8.87336L73.7546 8.6888L73.8433 8.31784L73.5785 8.20023L73.363 8.5148L72.9463 8.32965ZM74.9531 7.52528L75.39 7.7474L74.8468 8.8112L75.1974 8.98943L75.0212 9.33451L74.2338 8.93412L74.9531 7.52528ZM77.3112 8.96159C77.2951 8.89079 77.2269 8.81804 77.1073 8.74348L76.7444 8.51713C76.6242 8.4422 76.5288 8.41291 76.4585 8.42988C76.388 8.44531 76.3149 8.51374 76.2394 8.63428L75.7878 9.35566C75.7131 9.47499 75.6838 9.56992 75.7008 9.64002C75.7163 9.71045 75.7846 9.78316 75.9047 9.85809L76.2677 10.0844C76.3873 10.159 76.4827 10.1883 76.5535 10.1717C76.6235 10.1559 76.6774 10.1174 76.7153 10.0569L76.8946 9.7706L76.4787 9.5113L76.3256 9.75596C76.3167 9.77014 76.3051 9.77256 76.2903 9.76331L76.1831 9.6965C76.1683 9.68725 76.1654 9.67582 76.1743 9.66164L76.6845 8.84686C76.6941 8.83147 76.706 8.82845 76.7208 8.8377L76.828 8.90451C76.8428 8.91376 76.8454 8.9258 76.8357 8.94118L76.6839 9.18375L77.0997 9.44306L77.2776 9.15888C77.3163 9.0971 77.3276 9.03132 77.3112 8.96159ZM78.5417 9.73941L77.8422 10.7363C77.7613 10.8516 77.6855 10.9157 77.6148 10.9279C77.5432 10.9407 77.4494 10.9065 77.3339 10.8257L76.9833 10.5807C76.8673 10.4997 76.8029 10.4235 76.7911 10.3523C76.7778 10.2814 76.812 10.1882 76.8929 10.0729L77.5923 9.076L77.9939 9.35664L77.2646 10.396C77.2542 10.4109 77.2564 10.4232 77.2713 10.4337L77.3739 10.5054C77.3882 10.5154 77.4003 10.513 77.4108 10.4981L78.14 9.45872L78.5417 9.73941ZM79.5478 10.6648C79.5417 10.5924 79.4842 10.511 79.3762 10.4205L78.768 9.91118L77.7495 11.1224L78.1251 11.437L78.5254 10.9609L78.6492 11.0646C78.6545 11.0755 78.6538 11.0851 78.6467 11.0936L78.4306 11.3505C78.3551 11.4403 78.3054 11.5128 78.2817 11.568L78.6572 11.8825C78.6773 11.8316 78.7239 11.763 78.7962 11.677L79.0108 11.4217C79.0456 11.3803 79.0657 11.3327 79.0708 11.279C79.0761 11.2263 79.0394 11.1538 78.9606 11.0619C79.0648 11.1237 79.1422 11.1476 79.1928 11.1339C79.2449 11.1195 79.3106 11.0651 79.3903 10.9704L79.4198 10.9353C79.5109 10.8269 79.5538 10.7367 79.5478 10.6648ZM80.4187 11.3834C80.5218 11.4793 80.5749 11.5637 80.5772 11.6363C80.5794 11.7084 80.5319 11.7963 80.4353 11.8997L80.4039 11.9332C80.3194 12.0237 80.2509 12.0746 80.1982 12.0862C80.1469 12.0973 80.0709 12.0693 79.97 12.0022C80.0439 12.0981 80.0767 12.1724 80.0687 12.2247C80.0608 12.2781 80.0383 12.3246 80.0013 12.3641L79.7736 12.6078C79.6968 12.69 79.6467 12.756 79.624 12.8059L79.2655 12.4722C79.2921 12.4182 79.3455 12.3484 79.4257 12.2627L79.6549 12.0174C79.6624 12.0093 79.6636 11.9997 79.6589 11.9886L79.5407 11.8786L79.116 12.3331L78.7574 11.9994L79.8381 10.843L80.4187 11.3834ZM81.4761 12.4549L80.8622 11.8205L79.7225 12.9189L80.3364 13.5533L80.5413 13.3558L80.268 13.0734L80.5576 12.7942L80.8309 13.0767L81.0328 12.8822L80.7595 12.5997L80.9979 12.3699L81.2712 12.6524L81.4761 12.4549ZM81.2166 14.5719L82.4124 13.5345L82.0907 13.1653L81.5555 13.6296L81.9326 12.9837L81.6247 12.6302L80.4289 13.6676L80.7506 14.0369L81.2851 13.5732L80.9087 14.2185L81.2166 14.5719ZM83.1563 14.6637C83.1679 14.592 83.1319 14.4991 83.0491 14.3852L82.7975 14.0397C82.7142 13.9253 82.6367 13.8625 82.5653 13.8519C82.494 13.8399 82.4006 13.876 82.2854 13.9595L81.5958 14.4595C81.4817 14.5423 81.419 14.6193 81.4085 14.6907C81.3964 14.7618 81.4324 14.8547 81.5156 14.9691L81.7672 15.3146C81.8501 15.4285 81.9275 15.4914 81.9995 15.5024C82.0703 15.5139 82.1347 15.4984 82.1926 15.4564L82.4662 15.2581L82.178 14.8622L81.9442 15.0318C81.9306 15.0416 81.919 15.0395 81.9087 15.0254L81.8344 14.9234C81.8242 14.9092 81.8258 14.8975 81.8393 14.8877L82.6182 14.323C82.6329 14.3123 82.6451 14.314 82.6554 14.3281L82.7297 14.4301C82.7399 14.4443 82.7377 14.4563 82.723 14.467L82.4912 14.6351L82.7794 15.031L83.051 14.8341C83.11 14.7912 83.1453 14.7345 83.1563 14.6637ZM82.8168 15.6302L83.3629 14.8281L83.6158 15.2167L83.2631 15.6338L83.7879 15.4813L84.0406 15.8696L83.0844 16.0415L82.5069 16.4158L82.2393 16.0046L82.8168 15.6302ZM80.9771 40.2787C80.9583 40.3195 80.9529 40.3708 80.9611 40.4326C80.9772 40.5551 81.0523 40.6687 81.1858 40.7728L81.6947 41.1697C81.8283 41.2738 81.9569 41.319 82.08 41.305C82.142 41.2979 82.1906 41.2803 82.2257 41.2522L82.7781 40.5466L81.5295 39.5731L80.9771 40.2787ZM81.6162 41.986L81.9313 41.6112L80.7176 40.5948L80.4024 40.9696L81.6162 41.986ZM80.9001 42.7192C80.8039 42.8221 80.7193 42.8751 80.6466 42.8774C80.5744 42.8796 80.4863 42.8322 80.3827 42.7358L80.204 42.5695L80.5385 42.2117L80.7546 42.4128C80.7676 42.4249 80.7802 42.425 80.7921 42.4123L80.8783 42.32C80.8902 42.3072 80.8892 42.2947 80.8762 42.2826L80.1718 41.6271C80.1599 41.616 80.1478 41.6164 80.1359 41.6291L80.0497 41.7213C80.0378 41.7341 80.0382 41.7461 80.0502 41.7573L80.2783 41.9696L80.3388 41.9049L80.4684 42.0255L80.0736 42.4481L79.4924 41.9072L79.5891 41.8038L79.7309 41.8703C79.6711 41.7946 79.6978 41.6937 79.8105 41.5668L80.0332 41.3285C80.1298 41.225 80.2141 41.1718 80.2858 41.1696C80.3585 41.1668 80.4466 41.2138 80.5497 41.3097L81.1731 41.8899C81.2767 41.9863 81.3301 42.0709 81.3324 42.1435C81.3356 42.2156 81.2886 42.3034 81.192 42.4069L80.9001 42.7192ZM80.1325 43.474L80.4852 43.1342L79.3846 41.9967L79.0319 42.3366L80.1325 43.474ZM79.9996 43.6077L79.1116 44.3781L78.9247 44.1636L79.1837 43.9389L78.3311 42.9601L78.7011 42.6391L79.5538 43.6179L79.8128 43.3932L79.9996 43.6077ZM78.102 43.1465L78.813 44.6065L78.3443 44.9854L77.0611 43.9877L77.4144 43.7022L77.7054 43.9494L77.9306 43.7674L77.7476 43.4329L78.102 43.1465ZM77.8857 45.2935L77.489 45.5811L76.7858 44.6152L76.4675 44.846L76.2394 44.5327L76.9544 44.0143L77.8857 45.2935ZM75.5022 46.7035C75.5724 46.7225 75.6688 46.6965 75.7909 46.6262L76.1615 46.4126C76.2842 46.3419 76.3549 46.2716 76.3729 46.2018C76.3924 46.1323 76.3661 46.0359 76.2949 45.9127L75.8687 45.1761C75.7983 45.0542 75.728 44.9839 75.658 44.966C75.5884 44.9466 75.492 44.9726 75.3693 45.0433L74.9987 45.2568C74.8765 45.3272 74.8058 45.3975 74.7872 45.4677C74.7684 45.5368 74.7771 45.6024 74.8129 45.6642L74.982 45.9565L75.4066 45.7119L75.2621 45.462C75.2538 45.4476 75.257 45.4362 75.2721 45.4275L75.3816 45.3645C75.3967 45.3557 75.4082 45.3586 75.4166 45.373L75.8979 46.2051C75.907 46.2208 75.9041 46.2327 75.8889 46.2414L75.7795 46.3045C75.7644 46.3132 75.7525 46.3098 75.7435 46.2941L75.6002 46.0464L75.1755 46.291L75.3434 46.5812C75.3799 46.6443 75.4328 46.6852 75.5022 46.7035ZM74.2537 47.4158L73.6813 46.3413C73.6151 46.217 73.5922 46.1205 73.6135 46.0521C73.6345 45.9825 73.7077 45.9148 73.8322 45.8487L74.21 45.6482C74.3352 45.5818 74.4324 45.5592 74.5012 45.581C74.5706 45.6014 74.6384 45.6741 74.7046 45.7983L75.2771 46.8728L74.8442 47.1025L74.2473 45.9822C74.2387 45.9662 74.2267 45.9625 74.2107 45.971L74.1 46.0297C74.0846 46.0379 74.0812 46.0498 74.0898 46.0658L74.6867 47.1861L74.2537 47.4158ZM72.9388 47.8661C73.0057 47.8947 73.1048 47.8823 73.2355 47.8296L73.9717 47.5328L73.3781 46.0667L72.9236 46.25L73.1568 46.8262L73.007 46.8866C72.9949 46.8862 72.9867 46.881 72.9825 46.8708L72.8566 46.5598C72.8126 46.4511 72.7718 46.3733 72.7341 46.3264L72.2795 46.5097C72.3151 46.5513 72.354 46.6245 72.3962 46.7287L72.5213 47.0377C72.5415 47.0877 72.5743 47.1278 72.6194 47.1576C72.6635 47.1869 72.7448 47.1886 72.8632 47.1623C72.7596 47.2251 72.7021 47.2821 72.6905 47.3331C72.6787 47.3858 72.696 47.4692 72.7424 47.5839L72.7596 47.6264C72.8127 47.7575 72.8724 47.8377 72.9388 47.8661ZM71.9093 48.3065C71.776 48.3524 71.6764 48.3595 71.6111 48.3274C71.5463 48.2956 71.4908 48.2124 71.4447 48.0787L71.4297 48.0354C71.3894 47.9185 71.3765 47.8342 71.391 47.7822C71.4053 47.7319 71.4657 47.678 71.5725 47.6207C71.4529 47.6407 71.3718 47.6348 71.3292 47.6032C71.2857 47.5711 71.2551 47.5294 71.2375 47.4784L71.1288 47.1632C71.0921 47.0571 71.0572 46.9819 71.0238 46.9385L71.4874 46.7792C71.5226 46.828 71.5593 46.9078 71.5975 47.0187L71.7069 47.3358C71.7105 47.3462 71.7184 47.3518 71.7305 47.3529L71.8833 47.3004L71.6806 46.7128L72.1441 46.5535L72.66 48.0486L71.9093 48.3065ZM70.4549 48.7393L71.3043 48.4962L70.8676 46.9763L70.0182 47.2193L70.0966 47.4926L70.4748 47.3844L70.5858 47.7707L70.2076 47.8789L70.285 48.1481L70.6632 48.0398L70.7545 48.3578L70.3764 48.466L70.4549 48.7393ZM68.697 47.4979L69.0535 49.0386L69.5311 48.9285L69.3716 48.2388L69.7661 48.8744L70.2233 48.7691L69.8669 47.2284L69.3892 47.3384L69.5485 48.0271L69.1543 47.3925L68.697 47.4979ZM67.7009 49.1604C67.7588 49.2043 67.8579 49.2163 67.9976 49.1967L68.4214 49.1373C68.5617 49.1176 68.6537 49.0788 68.6965 49.0208C68.7407 48.9637 68.7526 48.8644 68.7327 48.7237L68.6141 47.8813C68.5945 47.7419 68.5557 47.6505 68.4975 47.6077C68.4403 47.5637 68.3412 47.5518 68.2009 47.5715L67.7771 47.6309C67.6375 47.6505 67.5455 47.6892 67.5019 47.7474C67.4585 47.8044 67.4419 47.8684 67.4519 47.9391L67.499 48.2734L67.9845 48.2053L67.9443 47.9196C67.942 47.9031 67.9493 47.8938 67.9666 47.8914L68.0917 47.8738C68.109 47.8714 68.1186 47.8783 68.1209 47.8948L68.2549 48.8463C68.2575 48.8642 68.2502 48.8742 68.233 48.8766L68.1078 48.8942C68.0905 48.8966 68.0808 48.889 68.0783 48.8711L68.0384 48.5878L67.5529 48.6559L67.5996 48.9877C67.6097 49.0598 67.6434 49.1176 67.7009 49.1604ZM67.0087 48.3993L67.462 49.2571L66.9995 49.2975L66.796 48.791L66.6845 49.325L66.2224 49.3654L66.5192 48.442L66.4592 47.7574L66.9487 47.7147L67.0087 48.3993ZM84.0247 16.7734C84.0247 16.64 83.9163 16.5319 83.7826 16.5319C83.649 16.5319 83.5406 16.64 83.5406 16.7734C83.5406 16.9068 83.649 17.015 83.7826 17.015C83.9163 17.015 84.0247 16.9068 84.0247 16.7734ZM46.6692 16.0166C46.8028 16.0166 46.9112 16.1248 46.9112 16.2581C46.9112 16.3915 46.8028 16.4997 46.6692 16.4997C46.5355 16.4997 46.4271 16.3915 46.4271 16.2581C46.4271 16.1248 46.5355 16.0166 46.6692 16.0166ZM52.1354 10.0864C52.2691 10.0864 52.3775 10.1945 52.3775 10.3279C52.3775 10.4613 52.2691 10.5694 52.1354 10.5694C52.0018 10.5694 51.8934 10.4613 51.8934 10.3279C51.8934 10.1945 52.0018 10.0864 52.1354 10.0864ZM57.4057 46.9424C57.5393 46.9424 57.6477 47.0506 57.6477 47.1839C57.6477 47.3173 57.5393 47.4255 57.4057 47.4255C57.272 47.4255 57.1636 47.3173 57.1636 47.1839C57.1636 47.0506 57.272 46.9424 57.4057 46.9424ZM65.3921 48.3488C65.5258 48.3488 65.6342 48.457 65.6342 48.5904C65.6342 48.7237 65.5258 48.8319 65.3921 48.8319C65.2585 48.8319 65.1501 48.7237 65.1501 48.5904C65.1501 48.457 65.2585 48.3488 65.3921 48.3488Z" fill="url(#paint30_linear_2736_5324)"/>
<path fill-rule="evenodd" clip-rule="evenodd" d="M21.2664 16.5439C21.2664 17.8007 20.2495 18.8196 18.9951 18.8196C17.7407 18.8196 16.7237 17.8007 16.7237 16.5439C16.7237 15.2871 17.7407 14.2683 18.9951 14.2683C20.2495 14.2683 21.2664 15.2871 21.2664 16.5439ZM19.9685 16.5439C19.9685 17.0826 19.5327 17.5192 18.9951 17.5192C18.4575 17.5192 18.0217 17.0826 18.0217 16.5439C18.0217 16.0053 18.4575 15.5686 18.9951 15.5686C19.5327 15.5686 19.9685 16.0053 19.9685 16.5439Z" fill="url(#paint31_linear_2736_5324)"/>
<path fill-rule="evenodd" clip-rule="evenodd" d="M26.382 31.1733L16.3995 22.0706L14.5583 22.0706C14.1937 22.8394 13.4116 23.371 12.5055 23.371C11.2511 23.371 10.2342 22.3521 10.2342 21.0953C10.2342 19.8385 11.2511 18.8196 12.5055 18.8196C13.4116 18.8196 14.1937 19.3512 14.5583 20.12L17.6975 20.12L27.6441 29.2227H36.1926V31.1733H26.4583V31.0708L26.382 31.1733ZM12.5055 22.0706C13.0431 22.0706 13.4789 21.6339 13.4789 21.0953C13.4789 20.5567 13.0431 20.12 12.5055 20.12C11.9679 20.12 11.5321 20.5567 11.5321 21.0953C11.5321 21.6339 11.9679 22.0706 12.5055 22.0706Z" fill="url(#paint32_linear_2736_5324)"/>
<path fill-rule="evenodd" clip-rule="evenodd" d="M4.82411 24.6714H17.3729L19.3197 26.6219H4.82411C4.45957 27.3908 3.67741 27.9223 2.77134 27.9223C1.51692 27.9223 0.5 26.9035 0.5 25.6467C0.5 24.3898 1.51692 23.371 2.77134 23.371C3.67742 23.371 4.45957 23.9025 4.82411 24.6714ZM3.74479 25.6467C3.74479 26.1853 3.30897 26.622 2.77136 26.622C2.23375 26.622 1.79793 26.1853 1.79793 25.6467C1.79793 25.108 2.23375 24.6714 2.77136 24.6714C3.30897 24.6714 3.74479 25.108 3.74479 25.6467Z" fill="url(#paint33_linear_2736_5324)"/>
<path d="M26.4581 26.622H36.1924V24.6714H24.5112L26.4581 26.622Z" fill="url(#paint34_linear_2736_5324)"/>
<path d="M36.1928 33.7741H21.9158L23.8626 35.7247H36.1928V33.7741Z" fill="url(#paint35_linear_2736_5324)"/>
<path d="M21.2666 15.5686H34.2457L32.2989 17.5192H21.2666V15.5686Z" fill="url(#paint36_linear_2736_5324)"/>
<path fill-rule="evenodd" clip-rule="evenodd" d="M22.5645 29.2227H11.3137C10.9491 28.4539 10.167 27.9223 9.26091 27.9223C8.00649 27.9223 6.98957 28.9412 6.98957 30.198C6.98957 31.4548 8.00649 32.4737 9.26091 32.4737C10.167 32.4737 10.9491 31.9421 11.3137 31.1733H24.5114L22.5645 29.2227ZM9.2609 31.1733C9.79851 31.1733 10.2343 30.7367 10.2343 30.198C10.2343 29.6594 9.79851 29.2227 9.2609 29.2227C8.72329 29.2227 8.28747 29.6594 8.28747 30.198C8.28747 30.7367 8.72329 31.1733 9.2609 31.1733Z" fill="url(#paint37_linear_2736_5324)"/>
<path d="M82.4743 38.737C82.4651 38.7518 82.4678 38.7635 82.4826 38.7727L83.2991 39.2819C83.3138 39.2911 83.3256 39.2884 83.3349 39.2736L83.4156 39.1447L82.5551 38.608L82.4743 38.737Z" fill="url(#paint38_linear_2736_5324)"/>
<defs>
<linearGradient id="paint0_linear_2736_5324" x1="86.2094" y1="46.0668" x2="38.0874" y2="37.7477" gradientUnits="userSpaceOnUse">
<stop stop-color="#90C626"/>
<stop offset="1" stop-color="#20934A"/>
</linearGradient>
<linearGradient id="paint1_linear_2736_5324" x1="86.2094" y1="46.0668" x2="38.0874" y2="37.7477" gradientUnits="userSpaceOnUse">
<stop stop-color="#90C626"/>
<stop offset="1" stop-color="#20934A"/>
</linearGradient>
<linearGradient id="paint2_linear_2736_5324" x1="165.624" y1="29.841" x2="197.98" y2="25.8674" gradientUnits="userSpaceOnUse">
<stop stop-color="#90C626"/>
<stop offset="1" stop-color="#20934A"/>
</linearGradient>
<linearGradient id="paint3_linear_2736_5324" x1="65.9438" y1="27.761" x2="158.339" y2="4.67512" gradientUnits="userSpaceOnUse">
<stop stop-color="#90C626"/>
<stop offset="1" stop-color="#20934A"/>
</linearGradient>
<linearGradient id="paint4_linear_2736_5324" x1="65.9437" y1="27.761" x2="158.339" y2="4.67508" gradientUnits="userSpaceOnUse">
<stop stop-color="#90C626"/>
<stop offset="1" stop-color="#20934A"/>
</linearGradient>
<linearGradient id="paint5_linear_2736_5324" x1="65.9437" y1="27.761" x2="158.339" y2="4.67509" gradientUnits="userSpaceOnUse">
<stop stop-color="#90C626"/>
<stop offset="1" stop-color="#20934A"/>
</linearGradient>
<linearGradient id="paint6_linear_2736_5324" x1="65.9437" y1="27.7611" x2="158.339" y2="4.67516" gradientUnits="userSpaceOnUse">
<stop stop-color="#90C626"/>
<stop offset="1" stop-color="#20934A"/>
</linearGradient>
<linearGradient id="paint7_linear_2736_5324" x1="65.9437" y1="27.761" x2="158.339" y2="4.67508" gradientUnits="userSpaceOnUse">
<stop stop-color="#90C626"/>
<stop offset="1" stop-color="#20934A"/>
</linearGradient>
<linearGradient id="paint8_linear_2736_5324" x1="-9.63661" y1="30.1096" x2="63.3393" y2="17.8907" gradientUnits="userSpaceOnUse">
<stop stop-color="#90C626"/>
<stop offset="1" stop-color="#20934A"/>
</linearGradient>
<linearGradient id="paint9_linear_2736_5324" x1="-9.63661" y1="30.1096" x2="63.3393" y2="17.8907" gradientUnits="userSpaceOnUse">
<stop stop-color="#90C626"/>
<stop offset="1" stop-color="#20934A"/>
</linearGradient>
<linearGradient id="paint10_linear_2736_5324" x1="-9.63661" y1="30.1096" x2="63.3393" y2="17.8907" gradientUnits="userSpaceOnUse">
<stop stop-color="#90C626"/>
<stop offset="1" stop-color="#20934A"/>
</linearGradient>
<linearGradient id="paint11_linear_2736_5324" x1="-9.63661" y1="30.1096" x2="63.3393" y2="17.8907" gradientUnits="userSpaceOnUse">
<stop stop-color="#90C626"/>
<stop offset="1" stop-color="#20934A"/>
</linearGradient>
<linearGradient id="paint12_linear_2736_5324" x1="-9.63661" y1="30.1096" x2="63.3393" y2="17.8907" gradientUnits="userSpaceOnUse">
<stop stop-color="#90C626"/>
<stop offset="1" stop-color="#20934A"/>
</linearGradient>
<linearGradient id="paint13_linear_2736_5324" x1="-9.63661" y1="30.1096" x2="63.3393" y2="17.8907" gradientUnits="userSpaceOnUse">
<stop stop-color="#90C626"/>
<stop offset="1" stop-color="#20934A"/>
</linearGradient>
<linearGradient id="paint14_linear_2736_5324" x1="-9.63661" y1="30.1096" x2="63.3393" y2="17.8907" gradientUnits="userSpaceOnUse">
<stop stop-color="#90C626"/>
<stop offset="1" stop-color="#20934A"/>
</linearGradient>
<linearGradient id="paint15_linear_2736_5324" x1="-9.63661" y1="30.1096" x2="63.3393" y2="17.8907" gradientUnits="userSpaceOnUse">
<stop stop-color="#90C626"/>
<stop offset="1" stop-color="#20934A"/>
</linearGradient>
<linearGradient id="paint16_linear_2736_5324" x1="-9.63661" y1="30.1096" x2="63.3393" y2="17.8907" gradientUnits="userSpaceOnUse">
<stop stop-color="#90C626"/>
<stop offset="1" stop-color="#20934A"/>
</linearGradient>
<linearGradient id="paint17_linear_2736_5324" x1="-9.63661" y1="30.1096" x2="63.3393" y2="17.8907" gradientUnits="userSpaceOnUse">
<stop stop-color="#90C626"/>
<stop offset="1" stop-color="#20934A"/>
</linearGradient>
<linearGradient id="paint18_linear_2736_5324" x1="-9.63661" y1="30.1096" x2="63.3393" y2="17.8907" gradientUnits="userSpaceOnUse">
<stop stop-color="#90C626"/>
<stop offset="1" stop-color="#20934A"/>
</linearGradient>
<linearGradient id="paint19_linear_2736_5324" x1="-9.63661" y1="30.1096" x2="63.3393" y2="17.8907" gradientUnits="userSpaceOnUse">
<stop stop-color="#90C626"/>
<stop offset="1" stop-color="#20934A"/>
</linearGradient>
<linearGradient id="paint20_linear_2736_5324" x1="-9.63661" y1="30.1096" x2="63.3393" y2="17.8907" gradientUnits="userSpaceOnUse">
<stop stop-color="#90C626"/>
<stop offset="1" stop-color="#20934A"/>
</linearGradient>
<linearGradient id="paint21_linear_2736_5324" x1="-9.63661" y1="30.1096" x2="63.3393" y2="17.8907" gradientUnits="userSpaceOnUse">
<stop stop-color="#90C626"/>
<stop offset="1" stop-color="#20934A"/>
</linearGradient>
<linearGradient id="paint22_linear_2736_5324" x1="-9.63661" y1="30.1096" x2="63.3393" y2="17.8907" gradientUnits="userSpaceOnUse">
<stop stop-color="#90C626"/>
<stop offset="1" stop-color="#20934A"/>
</linearGradient>
<linearGradient id="paint23_linear_2736_5324" x1="-9.63661" y1="30.1096" x2="63.3393" y2="17.8907" gradientUnits="userSpaceOnUse">
<stop stop-color="#90C626"/>
<stop offset="1" stop-color="#20934A"/>
</linearGradient>
<linearGradient id="paint24_linear_2736_5324" x1="-9.63661" y1="30.1096" x2="63.3393" y2="17.8907" gradientUnits="userSpaceOnUse">
<stop stop-color="#90C626"/>
<stop offset="1" stop-color="#20934A"/>
</linearGradient>
<linearGradient id="paint25_linear_2736_5324" x1="-9.63661" y1="30.1096" x2="63.3393" y2="17.8907" gradientUnits="userSpaceOnUse">
<stop stop-color="#90C626"/>
<stop offset="1" stop-color="#20934A"/>
</linearGradient>
<linearGradient id="paint26_linear_2736_5324" x1="-9.63661" y1="30.1096" x2="63.3393" y2="17.8907" gradientUnits="userSpaceOnUse">
<stop stop-color="#90C626"/>
<stop offset="1" stop-color="#20934A"/>
</linearGradient>
<linearGradient id="paint27_linear_2736_5324" x1="-9.63661" y1="30.1096" x2="63.3393" y2="17.8907" gradientUnits="userSpaceOnUse">
<stop stop-color="#90C626"/>
<stop offset="1" stop-color="#20934A"/>
</linearGradient>
<linearGradient id="paint28_linear_2736_5324" x1="-9.63661" y1="30.1096" x2="63.3393" y2="17.8907" gradientUnits="userSpaceOnUse">
<stop stop-color="#90C626"/>
<stop offset="1" stop-color="#20934A"/>
</linearGradient>
<linearGradient id="paint29_linear_2736_5324" x1="-9.63661" y1="30.1096" x2="63.3393" y2="17.8907" gradientUnits="userSpaceOnUse">
<stop stop-color="#90C626"/>
<stop offset="1" stop-color="#20934A"/>
</linearGradient>
<linearGradient id="paint30_linear_2736_5324" x1="-9.63661" y1="30.1096" x2="63.3393" y2="17.8907" gradientUnits="userSpaceOnUse">
<stop stop-color="#90C626"/>
<stop offset="1" stop-color="#20934A"/>
</linearGradient>
<linearGradient id="paint31_linear_2736_5324" x1="-9.63661" y1="30.1096" x2="63.3393" y2="17.8907" gradientUnits="userSpaceOnUse">
<stop stop-color="#90C626"/>
<stop offset="1" stop-color="#20934A"/>
</linearGradient>
<linearGradient id="paint32_linear_2736_5324" x1="-9.63661" y1="30.1096" x2="63.3393" y2="17.8907" gradientUnits="userSpaceOnUse">
<stop stop-color="#90C626"/>
<stop offset="1" stop-color="#20934A"/>
</linearGradient>
<linearGradient id="paint33_linear_2736_5324" x1="-9.63661" y1="30.1096" x2="63.3393" y2="17.8907" gradientUnits="userSpaceOnUse">
<stop stop-color="#90C626"/>
<stop offset="1" stop-color="#20934A"/>
</linearGradient>
<linearGradient id="paint34_linear_2736_5324" x1="-9.63661" y1="30.1096" x2="63.3393" y2="17.8907" gradientUnits="userSpaceOnUse">
<stop stop-color="#90C626"/>
<stop offset="1" stop-color="#20934A"/>
</linearGradient>
<linearGradient id="paint35_linear_2736_5324" x1="-9.63661" y1="30.1096" x2="63.3393" y2="17.8907" gradientUnits="userSpaceOnUse">
<stop stop-color="#90C626"/>
<stop offset="1" stop-color="#20934A"/>
</linearGradient>
<linearGradient id="paint36_linear_2736_5324" x1="-9.63661" y1="30.1096" x2="63.3393" y2="17.8907" gradientUnits="userSpaceOnUse">
<stop stop-color="#90C626"/>
<stop offset="1" stop-color="#20934A"/>
</linearGradient>
<linearGradient id="paint37_linear_2736_5324" x1="-9.63661" y1="30.1096" x2="63.3393" y2="17.8907" gradientUnits="userSpaceOnUse">
<stop stop-color="#90C626"/>
<stop offset="1" stop-color="#20934A"/>
</linearGradient>
<linearGradient id="paint38_linear_2736_5324" x1="-9.63661" y1="30.1096" x2="63.3393" y2="17.8907" gradientUnits="userSpaceOnUse">
<stop stop-color="#90C626"/>
<stop offset="1" stop-color="#20934A"/>
</linearGradient>
</defs>
</svg>
