<svg width="644" height="221" viewBox="0 0 644 221" fill="none" xmlns="http://www.w3.org/2000/svg">
<path fill-rule="evenodd" clip-rule="evenodd" d="M587.808 99.7671C588.181 96.3374 588.143 92.94 587.677 89.5844C579.073 27.5972 427.787 3.31353 249.771 35.3452C244.512 36.2914 239.289 37.2761 234.105 38.2979C238.849 37.444 243.625 36.6226 248.43 35.8348C427.626 6.45325 579.551 34.9183 587.765 99.4133C587.78 99.5312 587.794 99.6491 587.808 99.7671Z" fill="black" fill-opacity="0.1"/>
<path d="M130.191 132.929C128.273 141.834 117.792 146.286 98.749 146.286H44.7017C25.3844 146.286 16.8902 140.943 19.2193 130.257C20.3153 124.914 24.0829 120.804 30.522 117.927C36.276 115.461 43.3316 114.228 51.6888 114.228H53.7438L49.8392 133.134H99.16L110.052 81.964H141.083L130.191 132.929ZM238.803 146.286H166.876C148.792 146.286 140.709 141.697 142.627 132.518L143.449 128.408C144.819 122.38 148.518 118.338 154.546 116.283C158.108 115.187 163.999 114.639 172.22 114.639H217.019L219.28 103.747H177.152C163.999 103.747 157.629 100.391 158.04 93.6776L158.245 92.6501H224.828C232.089 92.6501 237.844 93.8146 242.091 96.1437C246.475 98.4727 248.393 101.076 247.845 103.953L238.803 146.286ZM212.498 136.011L214.759 125.325H173.042L170.781 136.011H212.498ZM293.871 81.964H265.101L267.361 70.8668H296.132L293.871 81.964ZM291.405 92.6501L283.39 131.285C282.431 135.669 279.554 139.299 274.759 142.176C269.964 144.916 263.936 146.286 256.675 146.286H251.332L262.635 92.6501H291.405ZM412.893 146.286H412.687C405.152 146.286 398.85 145.396 393.781 143.615C388.301 141.56 385.903 139.025 386.588 136.011L393.37 103.747H375.491C375.765 105.391 375.765 106.898 375.491 108.268L367.476 146.286H367.065C359.119 146.286 352.68 145.19 347.748 142.998C342.816 140.669 340.761 137.724 341.583 134.162L347.954 103.747H330.691L321.649 146.286H293.084L304.387 92.8556H308.292C315.827 92.8556 322.814 94.6367 329.253 98.1987C336.514 94.6367 343.638 92.8556 350.625 92.8556C360.626 92.8556 367.956 94.8422 372.614 98.8152C374.669 97.8562 377.546 96.6232 381.245 95.1162C385.081 93.6091 389.602 92.8556 394.808 92.8556C414.4 92.8556 423.236 97.3082 421.318 106.213L412.893 146.286ZM524.58 146.286H452.654C434.57 146.286 426.487 141.697 428.405 132.518L429.227 128.408C430.597 122.38 434.296 118.338 440.324 116.283C443.886 115.187 449.777 114.639 457.997 114.639H502.797L505.058 103.747H462.929C449.777 103.747 443.407 100.391 443.818 93.6776L444.023 92.6501H510.606C517.867 92.6501 523.621 93.8146 527.868 96.1437C532.253 98.4727 534.171 101.076 533.623 103.953L524.58 146.286ZM498.276 136.011L500.537 125.325H458.819L456.559 136.011H498.276Z" fill="black" fill-opacity="0.1"/>
<path d="M160.889 196.851V172.542H176.743V175.22H163.849V182.759H175.686V185.436H163.849V194.173H176.743V196.851H160.889ZM181.317 196.851V178.531H191.181C194.704 178.531 196.466 180.293 196.466 183.816V196.851H193.647V183.463C193.647 181.819 192.825 180.997 191.181 180.997H184.135V196.851H181.317ZM201.677 191.566V183.816C201.677 180.293 203.439 178.531 206.962 178.531H214.008V170.781H216.826V196.851H206.962C203.439 196.851 201.677 195.089 201.677 191.566ZM204.496 191.919C204.496 193.563 205.318 194.385 206.962 194.385H214.008V180.997H206.962C205.318 180.997 204.496 181.819 204.496 183.463V191.919ZM222.323 191.848V170.781H225.141V192.13C225.141 193.751 225.963 194.608 227.608 194.702V197.133C224.085 197.133 222.323 195.371 222.323 191.848ZM231.334 191.566V183.816C231.334 180.293 233.095 178.531 236.618 178.531H241.198C244.721 178.531 246.482 180.293 246.482 183.816V188.783H234.152V191.919C234.152 193.563 234.974 194.385 236.618 194.385H245.778V195.794L244.369 196.851H236.618C233.095 196.851 231.334 195.089 231.334 191.566ZM234.152 186.493H243.664V183.463C243.664 181.819 242.842 180.997 241.198 180.997H236.618C234.974 180.997 234.152 181.819 234.152 183.463V186.493ZM251.14 195.794V194.385H259.278C260.899 194.385 261.709 193.563 261.709 191.919C261.709 190.251 261.063 189.312 259.772 189.1L255.579 188.396C252.62 187.902 251.14 186.294 251.14 183.569C251.14 180.211 252.902 178.531 256.425 178.531H262.308L263.717 179.588V180.997H256.39C254.745 180.997 253.923 181.819 253.923 183.463C253.923 184.943 254.616 185.8 256.002 186.035L260.194 186.74C263.107 187.21 264.563 188.889 264.563 191.778C264.563 195.16 262.778 196.851 259.208 196.851H252.55L251.14 195.794ZM268.755 195.794V194.385H276.893C278.514 194.385 279.324 193.563 279.324 191.919C279.324 190.251 278.678 189.312 277.386 189.1L273.194 188.396C270.235 187.902 268.755 186.294 268.755 183.569C268.755 180.211 270.517 178.531 274.04 178.531H279.923L281.332 179.588V180.997H274.004C272.36 180.997 271.538 181.819 271.538 183.463C271.538 184.943 272.231 185.8 273.617 186.035L277.809 186.74C280.721 187.21 282.178 188.889 282.178 191.778C282.178 195.16 280.393 196.851 276.823 196.851H270.164L268.755 195.794ZM295.89 196.851V172.542H307.41C311.004 172.542 312.8 174.339 312.8 177.932V182.512C312.8 186.106 311.004 187.902 307.41 187.902H298.849V196.851H295.89ZM298.849 185.225H307.445C309.043 185.225 309.841 184.426 309.841 182.829V177.615C309.841 176.018 309.043 175.22 307.445 175.22H298.849V185.225ZM317.447 191.566V183.816C317.447 180.293 319.208 178.531 322.731 178.531H327.663C331.186 178.531 332.948 180.293 332.948 183.816V191.566C332.948 195.089 331.186 196.851 327.663 196.851H322.731C319.208 196.851 317.447 195.089 317.447 191.566ZM320.265 191.919C320.265 193.563 321.087 194.385 322.731 194.385H327.663C329.307 194.385 330.129 193.563 330.129 191.919V183.463C330.129 181.819 329.307 180.997 327.663 180.997H322.731C321.087 180.997 320.265 181.819 320.265 183.463V191.919ZM337.597 195.794V194.385H345.735C347.356 194.385 348.166 193.563 348.166 191.919C348.166 190.251 347.52 189.312 346.229 189.1L342.036 188.396C339.077 187.902 337.597 186.294 337.597 183.569C337.597 180.211 339.359 178.531 342.882 178.531H348.765L350.174 179.588V180.997H342.847C341.202 180.997 340.38 181.819 340.38 183.463C340.38 184.943 341.073 185.8 342.459 186.035L346.651 186.74C349.564 187.21 351.02 188.889 351.02 191.778C351.02 195.16 349.235 196.851 345.665 196.851H339.006L337.597 195.794ZM355.212 195.794V194.385H363.35C364.971 194.385 365.781 193.563 365.781 191.919C365.781 190.251 365.135 189.312 363.843 189.1L359.651 188.396C356.692 187.902 355.212 186.294 355.212 183.569C355.212 180.211 356.974 178.531 360.497 178.531H366.38L367.789 179.588V180.997H360.461C358.817 180.997 357.995 181.819 357.995 183.463C357.995 184.943 358.688 185.8 360.074 186.035L364.266 186.74C367.178 187.21 368.635 188.889 368.635 191.778C368.635 195.16 366.85 196.851 363.28 196.851H356.621L355.212 195.794ZM373.391 175.114V171.802H376.491V175.114H373.391ZM373.531 196.851V178.531H376.35V196.851H373.531ZM381.995 196.851V170.781H384.813V178.531H391.859C395.382 178.531 397.144 180.293 397.144 183.816V191.566C397.144 195.089 395.382 196.851 391.859 196.851H381.995ZM384.813 194.385H391.859C393.503 194.385 394.325 193.563 394.325 191.919V183.463C394.325 181.819 393.503 180.997 391.859 180.997H384.813V194.385ZM402.359 175.114V171.802H405.459V175.114H402.359ZM402.5 196.851V178.531H405.318V196.851H402.5ZM410.822 191.848V170.781H413.64V192.13C413.64 193.751 414.462 194.608 416.106 194.702V197.133C412.583 197.133 410.822 195.371 410.822 191.848ZM419.973 175.114V171.802H423.074V175.114H419.973ZM420.114 196.851V178.531H422.933V196.851H420.114ZM428.437 191.566V172.542H431.255V178.531H437.949V180.997H431.255V191.919C431.255 193.563 432.077 194.385 433.721 194.385H438.301V195.794L436.892 196.851H433.721C430.198 196.851 428.437 195.089 428.437 191.566ZM442.233 175.114V171.802H445.333V175.114H442.233ZM442.374 196.851V178.531H445.192V196.851H442.374ZM450.555 191.566V183.816C450.555 180.293 452.317 178.531 455.84 178.531H460.419C463.942 178.531 465.704 180.293 465.704 183.816V188.783H453.374V191.919C453.374 193.563 454.196 194.385 455.84 194.385H464.999V195.794L463.59 196.851H455.84C452.317 196.851 450.555 195.089 450.555 191.566ZM453.374 186.493H462.885V183.463C462.885 181.819 462.063 180.997 460.419 180.997H455.84C454.196 180.997 453.374 181.819 453.374 183.463V186.493ZM470.362 195.794V194.385H478.5C480.12 194.385 480.931 193.563 480.931 191.919C480.931 190.251 480.285 189.312 478.993 189.1L474.801 188.396C471.842 187.902 470.362 186.294 470.362 183.569C470.362 180.211 472.123 178.531 475.646 178.531H481.53L482.939 179.588V180.997H475.611C473.967 180.997 473.145 181.819 473.145 183.463C473.145 184.943 473.838 185.8 475.224 186.035L479.416 186.74C482.328 187.21 483.784 188.889 483.784 191.778C483.784 195.16 481.999 196.851 478.429 196.851H471.771L470.362 195.794Z" fill="black" fill-opacity="0.1"/>
<path fill-rule="evenodd" clip-rule="evenodd" d="M485.947 179.837C584 151.177 648.555 108.917 643.749 69.8696C636.975 14.8332 494.972 -12.9806 326.577 7.7459C238.257 18.6166 160.217 40.681 106.947 67.1474C156.578 44.7111 225.014 26.7796 301.581 18.382C460.139 0.992019 593.522 31.0737 599.499 85.5713C603.166 119.01 558.016 153.871 485.947 179.837Z" fill="black" fill-opacity="0.1"/>
<path fill-rule="evenodd" clip-rule="evenodd" d="M585.31 112.675L570.191 97.2006H541.293L571.137 128.702C577.5 124.103 581.397 118.591 585.31 112.675ZM585.959 144.348C593.241 141.228 598.94 138.477 606.288 134.144L638.174 166.779H607.211L585.959 144.348Z" fill="black" fill-opacity="0.1"/>
</svg>
