<svg width="100" height="100" viewBox="0 0 100 100" fill="none" xmlns="http://www.w3.org/2000/svg">
<path fill-rule="evenodd" clip-rule="evenodd" d="M55 21.3561C52.7881 20.5104 50.3867 20.0471 47.8765 20.0471C36.8606 20.0471 27.9383 28.9695 27.9383 39.9854C27.9383 51.0013 36.8606 59.9237 47.8765 59.9237C57.1603 59.9237 64.9571 53.5866 67.1796 45H60C57.2386 45 55 42.7614 55 40V21.3561ZM47.8765 64.0926C34.5677 64.0926 8 70.7719 8 84.0308V94H87.7531V84.0308C87.7531 70.7719 61.1853 64.0926 47.8765 64.0926ZM29.036 22.0925C20.713 24.8923 14.7182 32.7588 14.7182 42.0256C14.7182 53.6378 24.1318 63.0514 35.744 63.0514C35.8224 63.0514 35.9007 63.0509 35.9789 63.0501C27.1459 59.3014 20.9506 50.5482 20.9506 40.3479C20.9506 33.1108 24.0693 26.6021 29.036 22.0925Z" fill="#BD7809"/>
<path fill-rule="evenodd" clip-rule="evenodd" d="M61 7H93V15H61V7ZM61 19H93V27H61V19ZM93 31H61V39H93V31Z" fill="#BD7809"/>
</svg>
