<svg width="100" height="100" viewBox="0 0 100 100" fill="none" xmlns="http://www.w3.org/2000/svg">
<path d="M58.3572 69.1522L50.0006 77.5619L48.3431 79.2194C43.4716 84.0325 36.6663 85.6953 30.4719 84.1441C29.3031 89.2388 24.7662 93 19.3475 93C13.0947 93 8 87.9053 8 81.5994C8 76.2391 11.7081 71.6969 16.7444 70.5388C15.14 64.2806 16.7975 57.4169 21.6691 52.5506L22.3331 51.8866L30.6897 60.3016L30.0841 60.9072C27.3163 63.6166 27.3747 68.0419 30.0841 70.8044C32.7934 73.5191 37.2241 73.5191 39.9334 70.8044L41.5962 69.1469L49.9528 60.7319L58.8619 51.8813L67.2184 60.2962L58.3572 69.1522ZM49.0072 23.2203L40.5975 31.6247L39.9281 30.9606C37.2188 28.2513 32.7881 28.2513 30.0788 30.9606C27.3694 33.6753 27.3694 38.1591 30.0788 40.8684L48.9488 59.7384L40.5975 68.1481L31.6884 59.2922L23.3319 50.8878L21.6691 49.2303C16.5744 44.1941 15.0284 36.9425 16.9622 30.4666C11.8728 29.3616 8.11156 24.8247 8.11156 19.4006C8.11156 13.0894 13.2063 8 19.4591 8C25.1594 8 29.8078 12.1491 30.6897 17.52C36.8309 16.0803 43.53 17.8016 48.3431 22.5509L49.0072 23.2203V23.2203ZM83.0391 30.6897C84.8666 37.0487 83.2569 44.1888 78.2259 49.225L77.5619 49.8891L69.2053 41.4741L69.8694 40.8153C72.5787 38.1006 72.5787 33.67 69.8694 30.9606C67.16 28.2513 62.7294 28.2513 60.02 30.9606L41.0916 49.8944L32.6819 41.4794L41.5909 32.6234L50.0006 24.2191L51.605 22.5563C56.6413 17.5253 63.8344 15.9156 70.2572 17.8016C71.0275 12.2606 75.7875 8 81.5462 8C87.7991 8 92.8937 13.0947 92.8937 19.4006C92.8884 25.1541 88.5747 29.9141 83.0391 30.6897V30.6897ZM81.6525 93C76.1222 93 71.5269 89.0741 70.475 83.8678C64.0575 85.8547 56.6944 84.3141 51.605 79.2194L50.9994 78.5553L59.3559 70.1456L60.02 70.8044C62.7294 73.5191 67.16 73.5191 69.8694 70.8044C72.5787 68.095 72.5787 63.6697 69.8694 60.955L68.2119 59.2922L50.9409 42.0319L59.3506 33.6169L76.6163 50.8878L78.2259 52.5453C83.0391 57.3584 84.755 64.1691 83.2038 70.3634C88.7394 71.1391 93 75.8459 93 81.5941C93 87.9053 87.9106 93 81.6525 93V93Z" fill="#BD7809"/>
</svg>
