<svg width="100" height="100" viewBox="0 0 100 100" fill="none" xmlns="http://www.w3.org/2000/svg">
<path d="M93 38.253C93 43.0911 89.0887 47 84.2509 47C79.4104 47 75.5017 43.0911 75.5017 38.253C75.5017 37.9484 75.528 37.6229 75.5543 37.3236L65.7105 32.3988C64.1539 33.8479 62.046 34.751 59.7491 34.751C54.9086 34.751 51 30.8421 51 25.9987C51 21.1605 54.9086 17.2516 59.7491 17.2516C62.046 17.2516 64.1513 18.1521 65.7105 19.6012L75.5543 14.6816C75.528 14.3771 75.5017 14.0516 75.5017 13.7523C75.5017 8.90887 79.4104 5 84.2509 5C89.0887 5 93 8.90887 93 13.7523C93 18.5931 89.0887 22.502 84.2509 22.502C81.954 22.502 79.8487 21.5989 78.2895 20.1498L68.4457 25.072C68.472 25.3739 68.5009 25.702 68.5009 26.0013C68.5009 26.3032 68.472 26.6313 68.4457 26.9306L78.2895 31.8581C79.8487 30.4063 81.9566 29.5033 84.2509 29.5033C89.0887 29.498 93 33.4069 93 38.253V38.253Z" fill="#BD7809"/>
<path fill-rule="evenodd" clip-rule="evenodd" d="M67.6002 37.0479C65.227 38.8979 62.2422 40 59 40C51.268 40 45 33.732 45 26C45 23.8956 45.4643 21.8996 46.2961 20.1089C36.0198 20.9138 27.9383 29.5016 27.9383 39.9855C27.9383 51.0014 36.8606 59.9238 47.8765 59.9238C58.8924 59.9238 67.8148 51.0014 67.8148 39.9855C67.8148 38.9874 67.7416 38.0065 67.6002 37.0479ZM47.8765 64.0927C34.5677 64.0927 8 70.772 8 84.031V94.0001H87.7531V84.031C87.7531 70.772 61.1853 64.0927 47.8765 64.0927ZM29.036 22.0926C20.713 24.8924 14.7182 32.759 14.7182 42.0257C14.7182 53.6379 24.1318 63.0515 35.744 63.0515C35.8224 63.0515 35.9007 63.0511 35.9789 63.0502C27.1459 59.3015 20.9506 50.5483 20.9506 40.348C20.9506 33.1109 24.0693 26.6023 29.036 22.0926Z" fill="#BD7809"/>
</svg>
