<svg xmlns="http://www.w3.org/2000/svg" xmlns:xlink="http://www.w3.org/1999/xlink" version="1.1" x="0px" y="0px" viewBox="0 0 563.2 591.2" style="enable-background:new 0 0 512 512;" xml:space="preserve">
  <path d="M347,89.8c3.8,2,5.2,6.8,3.2,10.6c-2,3.8-6.8,5.2-10.6,3.2c-39.9-21.5-87.7-21.5-127.6,0c-3.8,2-8.6,0.6-10.6-3.2c-2-3.8-0.6-8.6,3.2-10.6C249.1,65.8,302.5,65.7,347,89.8L347,89.8z M196,309.1c-2.2,3.7-6.9,5-10.7,2.9c-3.7-2.2-5-7-2.9-10.7c26.8-46.3,76.2-74.9,129.8-74.9c4.3,0,7.8,3.5,7.8,7.8c0,4.3-3.5,7.8-7.8,7.8C264.4,242,220,267.6,196,309.1L196,309.1z M281.9,445.8c3.6-2.3,8.5-1.3,10.8,2.4c2.4,3.7,1.3,8.5-2.4,10.8c-46.6,29.9-108.1,22.1-145.9-18.5c-2.9-3.1-2.7-8.1,0.4-11.1c3.2-2.9,8.1-2.8,11.1,0.4C188.6,464.8,241.5,471.6,281.9,445.8L281.9,445.8z M36.5,138c6-7.7,13.8-13.9,22.8-18C45,82.4,72.8,41.6,113.4,41.6c40.6,0,68.4,40.8,54.1,78.5c21,9.4,35.1,30.3,35.1,53.8v51.1c0,4.3-3.5,7.9-7.9,7.9H32.1c-4.3,0-7.9-3.5-7.9-7.9v-51.1C24.2,160.4,28.8,148,36.5,138L36.5,138z M113.4,57.3c-23.3,0-42.1,18.9-42.1,42.1c0,23.8,19.7,42.8,43.2,42.2c22.9-0.7,41-19.3,41-42.2C155.5,76.1,136.7,57.3,113.4,57.3L113.4,57.3z M360,163.2c4.3-5.6,9.8-10.1,16.2-13.3c-9.8-29.2,11.9-59.8,43-59.8c31,0,52.8,30.6,43,59.8c15.6,7.7,25.8,23.6,25.8,41.4v38.3c0,4.3-3.5,7.9-7.9,7.9H358.2c-4.3,0-7.9-3.5-7.9-7.9v-38.3C350.4,180.8,354,171,360,163.2L360,163.2z M419.2,105.8c-26.3,0-39.6,32-21,50.6c18.5,18.5,50.6,5.4,50.6-21C448.8,119.1,435.6,105.8,419.2,105.8L419.2,105.8z M47.9,336.4c4.3-5.6,9.8-10.1,16.2-13.3c-9.8-29.2,11.9-59.8,43-59.8s52.8,30.6,43,59.8c15.5,7.7,25.8,23.6,25.8,41.4v38.3c0,4.3-3.5,7.9-7.9,7.9H46.1c-4.3,0-7.9-3.5-7.9-7.9v-38.3C38.3,353.9,41.9,344.2,47.9,336.4L47.9,336.4z M107.1,279c-26.3,0-39.6,32-21,50.6c18.6,18.6,50.6,5.4,50.6-21C136.7,292.3,123.4,279,107.1,279L107.1,279z M328.8,363.8c5.7-7.4,13.2-13.3,21.7-17.2c-13.6-36.2,13.2-75.3,52.2-75.3c39,0,65.8,39.1,52.2,75.3c20.1,9.1,33.6,29.3,33.6,51.8v48.9c0,4.3-3.5,7.9-7.9,7.9H324.9c-4.3,0-7.9-3.5-7.9-7.9v-48.9C317,385.4,321.4,373.4,328.8,363.8L328.8,363.8z M402.7,367.1c22.1,0.1,40.2-17.8,40.2-40.1c0-22.1-17.9-40.1-40.1-40.1c-22.1,0-40.1,17.9-40.1,40.1C362.8,349.1,380.6,367,402.7,367.1L402.7,367.1z" fill="#BD7809"/>
</svg>
