<svg width="32" height="32" viewBox="0 0 32 32" fill="none" xmlns="http://www.w3.org/2000/svg">
<g filter="url(#filter0_i_4_13)">
<path d="M20.832 13.6192C20.032 13.6192 19.072 13.4656 18.112 13.184C15.744 12.4672 14.272 11.136 14.752 10.1632C14.976 9.67679 15.68 9.36959 16.672 9.29279C17.6 9.24159 18.688 9.39519 19.776 9.72799C20.864 10.0608 21.792 10.5472 22.432 11.0848C23.136 11.6736 23.36 12.2624 23.136 12.7488C22.88 13.312 21.984 13.6192 20.832 13.6192ZM17.088 9.77919C16.96 9.77919 16.864 9.77919 16.736 9.77919C16 9.83039 15.488 10.0096 15.36 10.3168C15.072 10.9056 16.224 12.032 18.368 12.672C20.48 13.3376 22.272 13.1328 22.56 12.544C22.688 12.2368 22.496 11.8272 21.984 11.4176C21.408 10.9312 20.544 10.496 19.552 10.1888C18.688 9.93279 17.824 9.77919 17.088 9.77919Z" fill="#E78327"/>
<path d="M20.192 14.8992C19.392 14.8992 18.432 14.7456 17.472 14.464C15.136 13.7472 13.664 12.416 14.112 11.4432L14.752 10.1376L15.36 10.3168L14.72 11.6224C14.432 12.2112 15.584 13.3376 17.696 13.9776C19.808 14.6176 21.632 14.4384 21.888 13.8496L22.528 12.544L23.136 12.7232L22.496 14.0288C22.24 14.592 21.344 14.8992 20.192 14.8992Z" fill="#E78327"/>
<path d="M10.144 10.0608C9.92 10.0608 9.696 10.0096 9.504 9.93279C8.32 9.44639 8.384 7.67999 9.568 5.88799C10.112 5.06879 10.816 4.37759 11.584 3.94239C12.384 3.45599 13.152 3.35359 13.76 3.58399C14.912 4.07039 14.88 5.86239 13.664 7.62879C13.12 8.44799 12.416 9.13919 11.648 9.57439C11.104 9.90719 10.592 10.0608 10.144 10.0608ZM13.088 3.99359C12.768 3.99359 12.384 4.12159 11.968 4.37759C11.296 4.76159 10.656 5.40159 10.144 6.14399C9.056 7.75679 9.088 9.19039 9.792 9.49759C10.144 9.65119 10.688 9.52319 11.264 9.19039C11.936 8.80639 12.576 8.16639 13.088 7.42399C14.176 5.81119 14.144 4.37759 13.44 4.07039C13.344 3.99359 13.216 3.99359 13.088 3.99359Z" fill="#E78327"/>
<path d="M11.648 10.7264C11.424 10.7264 11.2 10.6752 11.008 10.5984L9.472 9.93281L9.76 9.47202L11.296 10.1376C11.488 10.2144 11.712 10.2144 12 10.1632C12.864 9.95842 13.888 9.13922 14.592 8.06402C15.104 7.32162 15.392 6.52801 15.424 5.86241C15.456 5.27361 15.264 4.86401 14.912 4.71041L13.44 4.04481L13.728 3.58401L15.264 4.24962C15.84 4.50562 16.16 5.06881 16.096 5.88802C16.064 6.63042 15.712 7.47522 15.168 8.29442C14.368 9.49762 13.216 10.3936 12.192 10.6496C12 10.7008 11.84 10.7264 11.648 10.7264Z" fill="#E78327"/>
<path d="M12.256 21.0176C11.04 21.0176 10.112 20.7104 9.856 20.1216C9.632 19.6352 9.888 19.0208 10.592 18.4576C11.232 17.92 12.192 17.4592 13.28 17.152C15.648 16.4608 17.856 16.6912 18.304 17.664C18.528 18.1504 18.272 18.7648 17.568 19.328C16.928 19.8656 15.968 20.3264 14.88 20.6336C13.952 20.8896 13.056 21.0176 12.256 21.0176ZM13.504 17.6128C12.512 17.8944 11.616 18.3296 11.04 18.7904C10.528 19.2 10.304 19.6096 10.432 19.9168C10.688 20.5056 12.48 20.736 14.624 20.1216C15.616 19.84 16.512 19.4048 17.088 18.944C17.6 18.5344 17.824 18.1248 17.696 17.8176C17.44 17.2288 15.648 16.9984 13.504 17.6128Z" fill="#E78327"/>
<path d="M12.832 22.3232C12.672 22.3232 12.512 22.3232 12.352 22.2976C11.36 22.2208 10.688 21.9136 10.464 21.4016L9.856 20.096L10.464 19.9168L11.072 21.2224C11.2 21.5296 11.712 21.7344 12.448 21.7856C13.28 21.8368 14.272 21.7344 15.296 21.4272C16.736 21.0176 17.888 20.3264 18.272 19.6608C18.4 19.456 18.432 19.2512 18.336 19.0976L17.728 17.792L18.336 17.6128L18.88 18.944C19.008 19.2256 18.976 19.5584 18.784 19.8912C18.336 20.6592 17.056 21.4528 15.456 21.9136C14.56 22.1952 13.632 22.3232 12.832 22.3232Z" fill="#E78327"/>
<path d="M21.568 9.95839C21.376 9.95839 21.248 9.85599 21.248 9.70239V4.58239C21.248 4.42879 21.376 4.32639 21.568 4.32639C21.76 4.32639 21.888 4.42879 21.888 4.58239V9.70239C21.888 9.85599 21.76 9.95839 21.568 9.95839Z" fill="#E78327"/>
<path d="M20.256 10.368C20.064 10.368 19.936 10.2656 19.936 10.112V7.14241C19.936 6.98881 20.064 6.88641 20.256 6.88641C20.448 6.88641 20.576 6.98881 20.576 7.14241V10.112C20.576 10.2656 20.448 10.368 20.256 10.368Z" fill="#E78327"/>
<path d="M12.032 17.1008C11.84 17.1008 11.712 16.9984 11.712 16.8448V13.568C11.712 13.4144 11.84 13.312 12.032 13.312C12.224 13.312 12.352 13.4144 12.352 13.568V16.8448C12.352 16.9728 12.224 17.1008 12.032 17.1008Z" fill="#E78327"/>
<path d="M13.408 17.536C13.216 17.536 13.088 17.4336 13.088 17.28V15.2832C13.088 15.1296 13.216 15.0272 13.408 15.0272C13.6 15.0272 13.728 15.1296 13.728 15.2832V17.28C13.728 17.4336 13.568 17.536 13.408 17.536Z" fill="#E78327"/>
<path d="M13.216 10.1632C13.152 10.1632 13.088 10.1376 13.056 10.112L11.68 9.3696C11.52 9.2928 11.488 9.1392 11.584 9.0112C11.68 8.8832 11.872 8.8576 12.032 8.9344L13.408 9.6768C13.568 9.7536 13.6 9.9072 13.504 10.0352C13.44 10.112 13.344 10.1632 13.216 10.1632Z" fill="#E78327"/>
<path d="M14.4 8.98561C14.336 8.98561 14.272 8.96001 14.24 8.93441L13.056 8.32001C12.896 8.24321 12.864 8.08961 12.96 7.96161C13.056 7.83361 13.248 7.80801 13.408 7.88481L14.592 8.49921C14.752 8.57601 14.784 8.72961 14.688 8.85761C14.624 8.93441 14.528 8.98561 14.4 8.98561Z" fill="#E78327"/>
<path d="M20.256 14.8992C20.224 14.8992 20.192 14.8992 20.128 14.8736C19.968 14.8224 19.872 14.6688 19.936 14.5408L20.544 13.2352C20.608 13.1072 20.8 13.0304 20.96 13.0816C21.12 13.1328 21.216 13.2864 21.152 13.4144L20.544 14.72C20.512 14.848 20.384 14.8992 20.256 14.8992Z" fill="#E78327"/>
<path d="M18.528 14.6688C18.496 14.6688 18.464 14.6688 18.4 14.6432C18.24 14.592 18.144 14.4384 18.208 14.3104L18.784 13.1328C18.848 13.0048 19.04 12.928 19.2 12.9792C19.36 13.0304 19.456 13.184 19.392 13.312L18.816 14.4896C18.784 14.6176 18.656 14.6688 18.528 14.6688Z" fill="#E78327"/>
<path d="M17.536 20.8128C17.408 20.8128 17.28 20.7616 17.248 20.6592L16.768 19.712C16.704 19.584 16.768 19.4304 16.928 19.3792C17.088 19.328 17.28 19.3792 17.344 19.5072L17.824 20.4544C17.888 20.5824 17.824 20.736 17.664 20.7872C17.632 20.8128 17.568 20.8128 17.536 20.8128Z" fill="#E78327"/>
<path d="M15.872 21.7856C15.744 21.7856 15.616 21.7344 15.584 21.632L15.04 20.5568C14.976 20.4288 15.04 20.2752 15.2 20.224C15.36 20.1728 15.552 20.224 15.616 20.352L16.16 21.4272C16.224 21.5552 16.16 21.7088 16 21.76C15.936 21.76 15.904 21.7856 15.872 21.7856Z" fill="#E78327"/>
</g>
<defs>
<filter id="filter0_i_4_13" x="0" y="0" width="32" height="36" filterUnits="userSpaceOnUse" color-interpolation-filters="sRGB">
<feFlood flood-opacity="0" result="BackgroundImageFix"/>
<feBlend mode="normal" in="SourceGraphic" in2="BackgroundImageFix" result="shape"/>
<feColorMatrix in="SourceAlpha" type="matrix" values="0 0 0 0 0 0 0 0 0 0 0 0 0 0 0 0 0 0 127 0" result="hardAlpha"/>
<feOffset dy="4"/>
<feGaussianBlur stdDeviation="2"/>
<feComposite in2="hardAlpha" operator="arithmetic" k2="-1" k3="1"/>
<feColorMatrix type="matrix" values="0 0 0 0 0 0 0 0 0 0 0 0 0 0 0 0 0 0 0.25 0"/>
<feBlend mode="normal" in2="shape" result="effect1_innerShadow_4_13"/>
</filter>
</defs>
</svg>
