<svg width="513" height="512" viewBox="0 0 513 512" fill="none" xmlns="http://www.w3.org/2000/svg">
<path d="M0.0500488 256C0.0500488 114.615 114.665 0 256.05 0C397.435 0 512.05 114.615 512.05 256C512.05 397.385 397.435 512 256.05 512C114.665 512 0.0500488 397.385 0.0500488 256Z" fill="url(#paint0_radial_4606_2060)"/>
<path fill-rule="evenodd" clip-rule="evenodd" d="M258.426 494.304C389.294 494.304 495.383 388.215 495.383 257.347C495.383 126.48 389.294 20.3909 258.426 20.3909C170.456 20.3909 93.683 68.3283 52.8035 139.505L42.3284 159.993C38.5479 168.372 35.2404 177.01 32.4399 185.872C31.2132 189.801 28.4332 199.256 27.1267 205.646C23.4231 222.288 21.4697 239.59 21.4697 257.347C21.4697 280.594 24.8174 303.059 31.0569 324.287C32.608 329.882 36.2238 339.8 37.8377 344.061C41.4745 353.305 45.6756 362.265 50.3986 370.899L62.1752 390.182C104.788 453.016 176.786 494.304 258.426 494.304ZM257.879 453.868C367.514 453.868 456.391 366.524 456.391 258.779C456.391 151.034 367.514 63.6895 257.879 63.6895C148.244 63.6895 59.3667 151.034 59.3667 258.779C59.3667 366.524 148.244 453.868 257.879 453.868Z" fill="#C5D82E"/>
<path d="M443.398 269.173C437.912 365.112 356.956 441.249 257.892 441.249C155.276 441.249 72.0888 359.554 72.0888 258.779C72.0888 158.004 155.276 76.3093 257.892 76.3093C350.913 76.3093 427.968 143.441 441.565 231.062H438.104C424.539 145.303 349.02 79.6677 257.892 79.6677C157.164 79.6677 75.5085 159.859 75.5085 258.779C75.5085 357.7 157.164 437.891 257.892 437.891C355.067 437.891 434.491 363.256 439.973 269.173H443.398Z" fill="black"/>
<path d="M381.973 138.924C406.627 163.537 423.745 195.451 429.658 231.062H426.411C420.533 196.336 403.795 165.216 379.74 141.18C378.627 141.527 377.361 141.301 376.432 140.477L366.879 132.004C365.923 131.155 365.572 129.894 365.854 128.745C336.426 105.153 298.842 91.0039 257.892 91.0039C257.105 91.0039 256.321 91.0091 255.537 91.0195V93.6483C255.536 93.6483 255.538 93.6483 255.537 93.6483L255.54 96.5196L255.709 96.6858C255.652 96.6866 255.594 96.6873 255.537 96.6881V99.4232C256.32 99.4123 257.105 99.4068 257.892 99.4068L257.892 102.34C257.105 102.34 256.32 102.346 255.537 102.357V105.198C256.32 105.187 257.105 105.181 257.892 105.181L257.892 108.008C257.105 108.008 256.32 108.014 255.537 108.026V108.653H253.921C255.499 108.707 256.851 109.633 257.493 110.956C257.626 110.956 257.759 110.956 257.892 110.956V114.42C257.892 114.42 257.891 114.42 257.892 114.42L257.891 116.73C257.891 116.73 257.891 116.73 257.891 116.73L257.892 120.059C257.892 120.059 257.891 120.059 257.892 120.059L257.891 122.504C257.891 122.504 257.891 122.504 257.891 122.504L257.892 125.698C257.892 125.698 257.891 125.698 257.892 125.698L257.891 128.279C257.891 128.279 257.891 128.279 257.891 128.279L257.892 131.337C257.892 131.337 257.891 131.337 257.892 131.337L257.891 132.329C257.891 134.562 256.048 136.372 253.774 136.372C251.501 136.372 249.658 134.562 249.658 132.329V112.693C249.658 110.508 251.422 108.729 253.628 108.653H252.008V108.117C251.421 108.139 250.834 108.164 250.248 108.192V105.361C250.834 105.334 251.421 105.309 252.008 105.288V102.445C251.421 102.466 250.834 102.49 250.248 102.517V99.5805C250.834 99.5538 251.421 99.5301 252.008 99.5096V96.773C251.943 96.7753 251.878 96.7775 251.813 96.7798L252.008 96.5242V91.1015C160.38 94.1467 87.0517 168.053 87.0517 258.779C87.0517 347.557 157.265 420.23 246.132 426.163V426.236H247.272C248.066 426.283 248.861 426.326 249.658 426.363V408.912H251.278C249.072 408.836 247.308 407.056 247.308 404.871V385.235C247.308 383.003 249.151 381.193 251.424 381.193C253.698 381.193 255.541 383.003 255.541 385.235V404.871C255.541 407.056 253.776 408.836 251.571 408.912H253.186V409.481C253.186 409.481 253.187 409.481 253.186 409.481L253.188 412.309C253.188 412.309 253.187 412.309 253.188 412.309L253.186 415.151C253.186 415.151 253.187 415.151 253.186 415.151L253.188 418.086C253.188 418.086 253.187 418.086 253.188 418.086L253.186 420.822C253.186 420.822 253.187 420.822 253.186 420.822L253.188 423.863C253.188 423.863 253.187 423.863 253.188 423.863L253.186 426.492C254.75 426.534 256.318 426.555 257.892 426.555C348.69 426.555 422.944 356.992 428.409 269.173H431.618C426.148 358.73 350.459 429.7 257.892 429.7C256.318 429.7 254.75 429.68 253.186 429.639V429.703H249.658V429.512C157.36 425.291 83.8485 350.466 83.8485 258.779C83.8485 166.316 158.611 91.0005 252.008 87.9539V87.8615H255.537V87.8734C256.321 87.8632 257.105 87.8581 257.892 87.8581C299.661 87.8581 337.993 102.308 367.988 126.395C369.133 125.985 370.465 126.195 371.432 127.053L380.985 135.526C381.98 136.409 382.32 137.738 381.973 138.924Z" fill="black"/>
<path d="M246.132 414.799V417.739C246.132 417.739 246.132 417.739 246.132 417.739L246.131 420.481C246.131 420.481 246.131 420.481 246.131 420.481L246.132 423.528C158.745 417.6 89.7283 346.105 89.7283 258.779C89.7283 170.671 159.986 98.679 248.484 93.8865V96.9308C161.696 101.72 92.8233 172.351 92.8233 258.779C92.8233 343.64 159.22 413.271 243.779 420.302V417.557C160.76 410.534 95.6082 342.129 95.6082 258.779C95.6082 182.247 150.538 118.315 223.792 102.931V102.875H224.062C227.844 102.087 231.674 101.429 235.548 100.905L235.553 114.425H223.792V111.74C221.004 112.361 218.245 113.057 215.517 113.824L209.677 114.998V115.593C148.507 135.448 104.367 192.051 104.367 258.779C104.367 324.649 147.379 380.653 207.325 401.181V402.561L233.196 407.758L246.132 410.067V411.95C165.245 406.045 101.488 339.724 101.488 258.779C101.488 185.451 153.811 124.125 223.792 108.842V105.933C152.2 121.266 98.5949 183.875 98.5949 258.779C98.5949 341.294 163.646 408.888 246.132 414.799Z" fill="black"/>
<path d="M207.325 398.055C149.067 377.653 107.368 322.999 107.368 258.779C107.368 193.699 150.192 138.441 209.677 118.702V122.365C209.674 122.366 209.672 122.367 209.669 122.367V124.815C209.672 124.815 209.674 124.814 209.677 124.813V128.35C163.625 144.772 128.736 184.048 119.225 232.217H121.762C131.179 185.407 165.006 147.212 209.677 130.955V134.368C209.674 134.369 209.672 134.37 209.669 134.371V137.137C209.672 137.136 209.674 137.135 209.677 137.134V140.423C174.087 154.419 146.279 183.448 134.398 219.514H170.87C170.87 218.238 171.923 217.204 173.222 217.204H196.741C198.04 217.204 199.093 218.238 199.093 219.514H217.909V222.978H199.093C199.093 224.254 198.04 225.288 196.741 225.288H173.222C171.923 225.288 170.87 224.254 170.87 222.978H130.07C141.245 184.425 170.018 153.15 207.317 138.063V135.276C165.622 151.758 134.197 188.013 125.079 232.217H170.87C170.87 230.941 171.923 229.907 173.222 229.907H196.741C198.04 229.907 199.093 230.941 199.093 232.217H217.909V235.682H199.093C199.093 236.957 198.04 237.991 196.741 237.991H173.222C171.923 237.991 170.87 236.957 170.87 235.682H115.15C123.603 184.915 159.46 143.197 207.317 125.655V123.192C155.273 141.92 117.015 188.723 111.564 244.921H170.87C170.87 243.645 171.923 242.611 173.222 242.611H196.741C198.04 242.611 199.093 243.645 199.093 244.921H217.909V248.385H199.093C199.093 249.661 198.04 250.695 196.741 250.695H173.222C171.923 250.695 170.87 249.661 170.87 248.385H111.271C111.022 251.818 110.896 255.284 110.896 258.779C110.896 320.187 149.938 372.639 204.975 393.502V391.022C151.266 370.278 113.248 318.889 113.248 258.779C113.248 258.394 113.249 258.009 113.252 257.624H170.87C170.87 256.349 171.923 255.315 173.222 255.315H196.741C198.04 255.315 199.093 256.349 199.093 257.624H217.909V261.089H199.093C199.093 262.365 198.04 263.399 196.741 263.399H173.222C171.923 263.399 170.87 262.365 170.87 261.089H122.4C123.337 315.158 157.108 361.373 204.975 381.332V378.523C159.615 359.163 127.402 315.674 125.135 264.554H128.253C130.536 314.833 162.485 357.534 207.325 376.184L207.328 383.51L207.325 385.723C156.383 366.138 120.107 317.833 119.147 261.089H116.657C117.623 319.205 154.981 368.632 207.325 388.346V398.055Z" fill="black"/>
<path d="M296.699 380.425C340.647 366.917 374.542 331.073 384.598 286.431L389.447 277.304C382.252 327.03 346.516 367.731 299.047 382.9V385.612C347.991 370.308 384.869 328.438 392.108 277.257H395.391C387.969 331.025 348.615 374.832 296.699 389.653V380.425Z" fill="black"/>
<path d="M389.076 225.288H392.434C380.593 179.268 344.913 142.568 299.051 128.599L299.049 136.366L299.051 137.881C336.802 150.27 366.826 179.237 380.163 215.981L385.709 222.964C373.835 182.016 342.109 149.281 301.401 135.434V132.706C344.33 146.99 377.604 181.827 389.076 225.288Z" fill="black"/>
<path d="M240.252 121.349H216.733V163.392H197.754V198.176H300.972V276.795C300.972 306.772 285.206 330.245 251.422 330.245C217.919 330.245 201.59 312.994 201.59 279.058H164.99C164.99 320.03 184.285 347.224 214.381 358.866V397.364H237.9V364.548C242.275 365.056 246.787 365.312 251.422 365.312C255.674 365.312 259.793 365.084 263.772 364.637V397.364H289.643V357.952C320.585 344.656 338.134 314.481 338.134 276.795V163.392H291.995V121.349H266.123V163.392H240.252V121.349Z" fill="black"/>
<path d="M277.883 217.204H224.965V271.466C224.2 273.848 223.789 276.373 223.789 278.989C223.789 293.34 236.161 304.974 251.424 304.974C266.686 304.974 279.059 293.34 279.059 278.989C279.059 276.373 278.648 273.848 277.883 271.466V217.204Z" fill="black"/>
<path fill-rule="evenodd" clip-rule="evenodd" d="M257.892 447.023C362.577 447.023 447.661 364.61 449.543 262.244H443.662C443.684 261.092 443.695 259.937 443.695 258.779C443.695 257.622 443.684 256.467 443.662 255.315H430.759V251.85H437.679C437.588 249.528 437.451 247.218 437.269 244.921H443.167C442.989 242.599 442.767 240.289 442.502 237.991H448.419C437.884 143.809 356.601 70.535 257.892 70.535C152.028 70.535 66.209 154.815 66.209 258.779C66.209 362.744 152.028 447.023 257.892 447.023ZM440.241 262.244C440.264 261.092 440.275 259.937 440.275 258.779H430.759V262.244H440.241ZM284.035 433.623C275.5 434.843 266.771 435.475 257.892 435.475C158.523 435.475 77.9687 356.365 77.9687 258.779C77.9687 242.504 80.2092 226.743 84.4038 211.778C83.5002 211.227 83.0632 210.123 83.4122 209.088L88.1171 195.144C88.4736 194.087 89.5324 193.453 90.6157 193.575C117.036 128.261 181.973 82.0837 257.892 82.0837C348.883 82.0837 424.098 148.416 436.134 234.527H444.44C432.347 143.937 353.436 73.9996 257.892 73.9996C153.977 73.9996 69.7369 156.728 69.7369 258.779C69.7369 360.83 153.977 443.559 257.892 443.559C359.444 443.559 442.206 364.549 445.917 265.708H437.679C434.56 345.13 378.063 411.108 302.422 430.021C302.051 431.137 301.091 432.027 299.835 432.265L287.195 434.658C285.987 434.887 284.805 434.456 284.035 433.623ZM283.292 430.442C274.998 431.615 266.517 432.223 257.892 432.223C160.352 432.223 81.2801 354.569 81.2801 258.779C81.2801 242.85 83.4667 227.422 87.5614 212.769C88.5723 212.797 89.5249 212.178 89.8594 211.186L94.5642 197.242C94.8911 196.273 94.5287 195.243 93.7393 194.664C119.702 130.611 183.413 85.3358 257.892 85.3358C347.051 85.3358 420.779 150.218 432.79 234.527H424.255C412.365 155.187 343.024 94.201 259.068 93.6364V96.676C341.312 97.2396 409.263 156.871 421.125 234.527H413.119V232.217C413.119 231.216 412.47 230.363 411.563 230.043C399.442 167.149 348.278 117.816 283.756 107.272V104.392C350.226 115.05 402.871 166.11 414.696 231.062H417.73C405.166 160.701 345.606 106.227 272.003 100.001V101.721H271.995V113.271H283.756V110.139C346.639 120.616 396.507 168.643 408.605 229.907H405.546C394.543 175.333 352.952 131.564 299.051 116.55L299.049 123.663L299.051 126.04C346.291 140.149 383.042 177.914 395.001 225.288H398.492C386.573 176.858 349.384 138.113 301.401 123.269V120.848C352.204 136.287 391.228 178.05 401.947 229.907H400.184C398.885 229.907 397.832 230.941 397.832 232.217V234.527H391.952L370.785 211.429H359.025V207.965H347.265V219.514H359.025V214.894H370.785L391.952 237.991H397.832V241.456H390.776L377.84 228.753H359.025V225.288H347.265V236.837H359.025V232.217H377.84L390.776 244.921H397.832V248.385H359.025V244.921H347.265V256.469H359.025V251.85H397.832V255.315H390.776L377.84 268.018H359.025V264.554H347.265V276.102H359.025V271.483H377.84L390.776 258.779H397.832V262.244H391.952L377.84 285.341H359.025V280.722H347.265V292.27H359.025V288.806H377.84L391.952 265.708H397.832V270.328C397.832 271.604 398.885 272.638 400.184 272.638H404.219C398.445 332.175 355.848 381.168 299.047 397.404V394.996C353.066 379.28 393.894 333.417 401.323 277.257H397.903C390.432 332.382 349.997 377.275 296.699 392.199L296.694 399.676L296.699 401.643C356.632 385.983 401.867 334.915 407.763 272.638H410.777C403.705 348.842 338.894 408.659 259.667 409.54L256.716 410.067V412.373L257.475 412.377L257.892 412.377C341.906 412.377 410.449 347.322 414.139 265.708H415.786C416.193 266.399 416.953 266.863 417.823 266.863H422.758C418.488 352.256 346.936 420.28 259.068 420.882V418.147C344.604 417.551 414.408 351.968 419.836 269.173H416.842C411.395 350.726 342.312 415.218 257.892 415.218C257.499 415.218 257.107 415.217 256.716 415.214V418.147C256.716 418.147 256.716 418.147 256.716 418.147V423.922C257.107 423.925 257.499 423.926 257.892 423.926C348.006 423.926 421.565 354.316 425.857 266.863H428.407C429.278 266.863 430.038 266.399 430.444 265.708H434.365C431.251 343.55 375.898 408.213 301.777 426.826C301.009 425.942 299.793 425.479 298.548 425.714L285.909 428.108C284.618 428.352 283.64 429.284 283.292 430.442ZM415.471 262.244V258.779H413.119V262.244H415.471ZM415.471 255.315H414.256C414.23 254.157 414.191 253.002 414.139 251.85H415.471V255.315ZM415.786 248.385H413.943C413.864 247.227 413.772 246.072 413.667 244.921H434.287V248.385H430.444C430.038 247.695 429.278 247.23 428.407 247.23H417.823C416.953 247.23 416.193 247.695 415.786 248.385ZM439.433 241.456C439.32 240.298 439.195 239.143 439.06 237.991H413.119V241.456H439.433Z" fill="black"/>
<path d="M253.567 467.405L252.052 467.352C251.869 467.346 251.773 467.432 251.767 467.614L251.358 479.322L246.438 479.151L246.902 465.895C246.926 465.179 247.209 464.575 247.741 464.086C248.277 463.587 249.25 463.364 250.669 463.414L253.702 463.519L253.567 467.405Z" fill="black"/>
<path d="M196.359 454.23L191.973 469.49L196.706 470.844L198.669 464.013L199.032 471.51L203.562 472.805L207.947 457.546L203.215 456.192L201.255 463.012L200.888 455.526L196.359 454.23Z" fill="black"/>
<path fill-rule="evenodd" clip-rule="evenodd" d="M166.667 442.081C166.225 441.989 165.71 442.053 165.122 442.272C163.957 442.705 163.013 443.695 162.294 445.234L159.553 451.099C158.834 452.638 158.681 453.995 159.097 455.165C159.306 455.754 159.588 456.189 159.943 456.468L168.109 460.267L174.832 445.88L166.667 442.081ZM167.429 445.872C167.502 445.713 167.616 445.672 167.775 445.745L169.162 446.391L164.856 455.605L163.469 454.96C163.31 454.886 163.269 454.772 163.343 454.614L167.429 445.872Z" fill="black"/>
<path d="M154.912 454.007L147.228 449.58L148.657 447.108L152.079 449.079L153.743 446.203L150.322 444.232L151.731 441.798L155.152 443.769L157.174 440.275L153.752 438.304L155.182 435.832L162.867 440.259L154.912 454.007Z" fill="black"/>
<path d="M138.569 444.285C137.382 443.515 136.71 442.773 136.56 442.059C136.408 441.357 136.534 440.699 136.933 440.085L138.769 437.264L142.898 439.939L141.331 442.348C141.232 442.501 141.255 442.622 141.402 442.717L142.466 443.406C142.613 443.502 142.734 443.474 142.833 443.321L148.098 435.231C148.189 435.091 148.163 434.975 148.015 434.88L146.951 434.19C146.804 434.095 146.687 434.118 146.596 434.258L145.015 436.687L140.886 434.012L142.736 431.169C143.127 430.568 143.675 430.192 144.38 430.045C145.095 429.891 146.047 430.202 147.235 430.971L150.839 433.306C152.032 434.08 152.704 434.821 152.847 435.531C153.006 436.238 152.696 437.186 151.925 438.371L147.264 445.533C146.484 446.729 145.739 447.403 145.028 447.546C144.32 447.704 143.367 447.393 142.174 446.62L138.569 444.285Z" fill="black"/>
<path d="M133.454 441.051L126.275 435.847L127.957 433.538L131.153 435.855L133.109 433.168L129.913 430.851L131.569 428.577L134.765 430.894L137.142 427.63L133.946 425.313L135.627 423.004L142.806 428.209L133.454 441.051Z" fill="black"/>
<path d="M125.137 414.615L115.125 426.952L118.951 430.043L123.433 424.521L120.832 431.563L124.494 434.522L134.506 422.185L130.681 419.094L126.205 424.608L128.799 417.574L125.137 414.615Z" fill="black"/>
<path d="M113.08 425.713L104.58 417.523L106.567 415.471L109.046 417.859L118.111 408.493L121.652 411.905L112.588 421.271L115.067 423.66L113.08 425.713Z" fill="black"/>
<path fill-rule="evenodd" clip-rule="evenodd" d="M97.5607 410.425C96.5953 409.391 96.1233 408.509 96.1509 407.78C96.179 407.057 96.7169 406.21 97.7576 405.242L98.0949 404.928C99.0046 404.081 99.7268 403.619 100.263 403.54C100.785 403.465 101.527 403.798 102.49 404.541C101.817 403.528 101.54 402.761 101.657 402.243C101.774 401.715 102.032 401.264 102.43 400.894L104.882 398.612C105.709 397.843 106.257 397.216 106.519 396.734L109.877 400.326C109.573 400.848 108.988 401.509 108.125 402.312L105.657 404.609C105.576 404.684 105.558 404.779 105.596 404.894L106.704 406.078L111.276 401.823L114.634 405.416L102.998 416.242L97.5607 410.425ZM100.71 409.212C100.577 409.336 100.57 409.459 100.689 409.587L101.732 410.704L104.75 407.896L103.707 406.779C103.587 406.651 103.463 406.65 103.338 406.767L100.71 409.212Z" fill="black"/>
<path fill-rule="evenodd" clip-rule="evenodd" d="M91.3436 403.618L105.907 396.24L102.964 392.739L99.6304 394.631L97.7599 392.407L100.196 389.449L97.2618 385.959L87.4506 398.989L91.3436 403.618ZM97.1318 396.066L92.6616 398.57L95.9138 394.618L97.1318 396.066Z" fill="black"/>
<path d="M84.1194 395.028L81.0884 391.157L90.5549 383.778L88.1227 380.672L91.1934 378.278L96.6561 385.255L84.1194 395.028Z" fill="black"/>
<path d="M77.5379 386.418L74.7142 382.394L87.7462 373.289L90.5699 377.313L77.5379 386.418Z" fill="black"/>
<path d="M73.5322 380.752L76.8521 378.682L74.4672 374.873L87.1587 372.554L81.3372 363.258L78.0322 365.318L80.1899 368.764L67.6611 371.376L73.5322 380.752Z" fill="black"/>
<path d="M66.6494 369.986L62.3477 362.242L64.8491 360.859L66.7645 364.306L69.6752 362.696L67.7603 359.249L70.2243 357.886L72.1393 361.333L75.6758 359.377L73.7609 355.93L76.2623 354.546L80.5641 362.29L66.6494 369.986Z" fill="black"/>
<path fill-rule="evenodd" clip-rule="evenodd" d="M71.6056 345.064C71.3132 344.72 70.8689 344.454 70.2707 344.266C69.085 343.892 67.7304 344.092 66.214 344.863L60.436 347.801C58.9192 348.572 57.9613 349.547 57.567 350.725C57.3686 351.318 57.3228 351.833 57.4299 352.271L61.5202 360.281L75.6959 353.074L71.6056 345.064ZM69.8665 348.519C70.0228 348.44 70.1383 348.477 70.2178 348.633L70.9124 349.993L61.8337 354.609L61.1391 353.249C61.0596 353.093 61.0974 352.978 61.2532 352.898L69.8665 348.519Z" fill="black"/>
<path fill-rule="evenodd" clip-rule="evenodd" d="M64.4792 327.955C64.2243 327.583 63.8103 327.272 63.235 327.022C62.0951 326.527 60.727 326.584 59.1381 327.193L53.0837 329.512C51.4949 330.12 50.4401 330.991 49.9247 332.12C49.6651 332.69 49.5654 333.198 49.6262 333.645L52.855 342.037L67.7075 336.348L64.4792 327.955ZM62.3879 331.21C62.5517 331.147 62.662 331.197 62.7252 331.36L63.2734 332.785L53.761 336.428L53.2124 335.004C53.1497 334.84 53.1993 334.73 53.3625 334.667L62.3879 331.21Z" fill="black"/>
<path d="M48.1262 329.041L46.6047 324.37L61.7355 319.464L63.257 324.136L48.1262 329.041Z" fill="black"/>
<path d="M43.6711 314.557C43.3043 313.192 43.3029 312.192 43.6701 311.562C44.0354 310.936 44.9087 310.44 46.2829 310.073L48.652 309.439L49.9261 314.184L47.0598 314.951C46.8872 314.997 46.8194 315.103 46.8652 315.273L47.1935 316.495C47.2389 316.664 47.3507 316.723 47.5233 316.677L56.8649 314.179C57.0235 314.137 57.0843 314.032 57.0389 313.863L56.7106 312.64C56.6652 312.471 56.56 312.411 56.4014 312.453L53.3761 313.262L53.6062 314.12L51.8868 314.58L50.3821 308.977L58.0899 306.916L58.4585 308.287L57.1362 309.139C58.0997 309.033 58.8191 309.798 59.3023 311.43L60.1508 314.59C60.5189 315.961 60.5245 316.96 60.162 317.581C59.799 318.214 58.9295 318.713 57.5619 319.078L49.2951 321.288C47.9209 321.656 46.9148 321.659 46.2834 321.292C45.651 320.937 45.1514 320.07 44.7833 318.699L43.6711 314.557Z" fill="black"/>
<path d="M42.425 309.069L41.3179 304.282L56.8196 300.711L57.9272 305.498L42.425 309.069Z" fill="black"/>
<path d="M40.8211 302.45L38.7692 290.84L41.5859 290.344L42.1846 293.731L55.0356 291.47L55.8906 296.307L43.0396 298.568L43.6378 301.955L40.8211 302.45Z" fill="black"/>
<path fill-rule="evenodd" clip-rule="evenodd" d="M38.1653 286.83L54.407 288.557L53.849 284.021L50.021 283.796L49.6665 280.914L53.3242 279.758L52.768 275.236L37.4273 280.832L38.1653 286.83ZM47.1421 283.642L42.026 283.313L46.911 281.765L47.1421 283.642Z" fill="black"/>
<path d="M36.9249 275.553L36.5811 270.652L48.565 269.816L48.2895 265.884L52.1763 265.613L52.7956 274.445L36.9249 275.553Z" fill="black"/>
<path d="M36.5713 250.529C36.6209 249.117 36.9123 248.16 37.4483 247.665C37.9731 247.172 38.6036 246.941 39.3361 246.967L42.7056 247.084L42.534 251.993L39.6574 251.893C39.4755 251.887 39.3828 251.969 39.3768 252.144L39.3323 253.409C39.3262 253.584 39.4128 253.673 39.5952 253.679L49.2563 254.016C49.4242 254.022 49.5093 253.939 49.5154 253.764L49.5598 252.499C49.5659 252.324 49.4864 252.236 49.319 252.23L46.4176 252.129L46.5897 247.219L49.9836 247.338C50.7016 247.362 51.3078 247.637 51.797 248.165C52.2975 248.696 52.5206 249.671 52.4715 251.083L52.3214 255.369C52.2718 256.787 51.9808 257.744 51.4448 258.232C50.9196 258.732 49.9457 258.955 48.5303 258.906L39.9774 258.608C38.5475 258.558 37.5849 258.267 37.0957 257.733C36.5956 257.208 36.3716 256.233 36.4216 254.815L36.5713 250.529Z" fill="black"/>
<path d="M37.6288 233.028L49.8274 234.093C51.2376 234.217 52.1773 234.553 52.6384 235.105C53.1104 235.662 53.282 236.647 53.1586 238.055L52.7839 242.327C52.66 243.741 52.3195 244.681 51.7582 245.141C51.2076 245.612 50.2235 245.784 48.8128 245.661L36.6147 244.596L37.0437 239.702L49.7619 240.813C49.9438 240.828 50.0406 240.748 50.0565 240.566L50.166 239.315C50.1814 239.141 50.1 239.048 49.9181 239.032L37.1999 237.922L37.6288 233.028Z" fill="black"/>
<path fill-rule="evenodd" clip-rule="evenodd" d="M38.9464 222.841C39.1438 221.442 39.5334 220.521 40.1186 220.084C40.6995 219.65 41.6981 219.534 43.107 219.731L43.5635 219.796C44.7959 219.968 45.6098 220.238 46.0092 220.604C46.3961 220.961 46.6033 221.746 46.6309 222.96C46.9962 221.801 47.419 221.104 47.8966 220.868C48.3821 220.627 48.8952 220.543 49.4335 220.619L52.754 221.084C53.8733 221.241 54.7063 221.272 55.2475 221.172L54.5623 226.036C53.9645 226.128 53.0814 226.091 51.9135 225.927L48.5715 225.459C48.4616 225.443 48.376 225.489 48.311 225.591L48.0851 227.195L54.2769 228.064L53.5917 232.928L37.8369 230.718L38.9464 222.841ZM41.8731 224.519C41.6921 224.494 41.5919 224.566 41.5676 224.74L41.3543 226.251L45.4405 226.824L45.6533 225.312C45.6776 225.139 45.6009 225.042 45.4311 225.018L41.8731 224.519Z" fill="black"/>
<path fill-rule="evenodd" clip-rule="evenodd" d="M41.9395 208.113C42.2819 206.742 42.7664 205.867 43.3937 205.493C44.0172 205.122 45.0223 205.111 46.4026 205.454L46.8502 205.566C48.0575 205.866 48.839 206.219 49.1978 206.625C49.5453 207.02 49.6688 207.822 49.5692 209.033C50.0538 207.919 50.5477 207.269 51.0467 207.085C51.5552 206.895 52.0744 206.866 52.602 206.997L55.8555 207.806C56.9519 208.079 57.7775 208.196 58.3261 208.153L57.1353 212.919C56.531 212.949 55.6563 212.819 54.5117 212.535L51.2376 211.72C51.13 211.693 51.0397 211.73 50.9644 211.825L50.5715 213.396L56.6385 214.906L55.4477 219.672L40.0105 215.832L41.9395 208.113ZM44.6739 210.087C44.497 210.044 44.3895 210.105 44.3469 210.275L43.9769 211.756L47.9803 212.752L48.3503 211.27C48.3929 211.101 48.3269 210.996 48.1604 210.955L44.6739 210.087Z" fill="black"/>
<path d="M43.2463 202.247L45.6921 193.736L48.4415 194.523L47.3526 198.311L50.5519 199.227L51.6408 195.438L54.349 196.213L53.2601 200.002L57.1469 201.114L58.2358 197.325L60.9852 198.112L58.5394 206.623L43.2463 202.247Z" fill="black"/>
<path d="M65.3323 185.415L50.2895 180.247L48.6871 184.891L55.4205 187.204L47.8989 187.174L46.3647 191.62L61.4076 196.788L63.0105 192.144L56.2868 189.834L63.7986 189.86L65.3323 185.415Z" fill="black"/>
<path d="M53.9767 170.637C54.5071 169.327 55.109 168.527 55.7821 168.244C56.4444 167.961 57.1161 167.959 57.7957 168.233L60.9216 169.493L59.0773 174.048L56.4089 172.972C56.24 172.904 56.125 172.95 56.0595 173.112L55.5838 174.286C55.5183 174.448 55.5688 174.561 55.7381 174.629L64.7014 178.242C64.8571 178.305 64.9656 178.257 65.0311 178.094L65.5063 176.92C65.5723 176.758 65.5279 176.648 65.3721 176.585L62.6808 175.5L64.525 170.946L67.6743 172.215C68.3404 172.483 68.8156 172.948 69.0943 173.611C69.3825 174.281 69.2581 175.274 68.7277 176.583L67.1177 180.559C66.5849 181.876 65.9834 182.676 65.3122 182.951C64.6476 183.242 63.656 183.119 62.3435 182.59L54.4079 179.391C53.0819 178.856 52.2765 178.254 52 177.585C51.71 176.921 51.834 175.929 52.3667 174.613L53.9767 170.637Z" fill="black"/>
<path d="M66.1368 165.775L56.4192 164.893L58.6077 160.786L63.9946 161.846L60.0979 157.989L62.285 153.885L68.4531 161.428L74.5584 164.667L72.2417 169.014L66.1368 165.775Z" fill="black"/>
<path d="M230.004 477.61C228.602 477.413 227.679 477.024 227.241 476.44C226.805 475.868 226.641 475.218 226.743 474.494L227.212 471.162L232.087 471.846L231.687 474.69C231.661 474.87 231.733 474.97 231.907 474.995L233.164 475.171C233.338 475.195 233.435 475.119 233.46 474.939L234.805 465.386C234.829 465.221 234.755 465.127 234.582 465.103L233.325 464.927C233.152 464.902 233.055 464.972 233.032 465.138L232.628 468.006L227.753 467.322L228.225 463.967C228.325 463.257 228.662 462.684 229.239 462.254C229.821 461.813 230.817 461.693 232.218 461.89L236.474 462.486C237.883 462.684 238.807 463.073 239.237 463.656C239.68 464.23 239.8 465.219 239.604 466.618L238.412 475.075C238.213 476.488 237.823 477.413 237.239 477.842C236.664 478.284 235.669 478.404 234.26 478.206L230.004 477.61Z" fill="black"/>
<path fill-rule="evenodd" clip-rule="evenodd" d="M216.191 475.526C214.8 475.256 213.899 474.819 213.492 474.213C213.087 473.619 213.024 472.618 213.296 471.218L214.93 462.834C215.199 461.447 215.633 460.55 216.232 460.15C216.837 459.741 217.837 459.673 219.226 459.943L223.445 460.761C224.841 461.032 225.743 461.468 226.143 462.073C226.555 462.669 226.623 463.663 226.353 465.05L224.72 473.433C224.447 474.834 224.009 475.738 223.403 476.136C222.806 476.547 221.806 476.614 220.409 476.344L216.191 475.526ZM218.019 472.718C217.988 472.883 218.056 472.98 218.228 473.013L219.474 473.255C219.646 473.288 219.745 473.224 219.778 473.06L221.622 463.591C221.657 463.412 221.59 463.308 221.418 463.275L220.172 463.033C220 463 219.899 463.071 219.864 463.25L218.019 472.718Z" fill="black"/>
<path d="M210.626 474.335L205.829 473.23L209.408 457.762L214.205 458.868L210.626 474.335Z" fill="black"/>
<path d="M84.2569 140.231L85.148 139.007C85.2551 138.86 85.2368 138.732 85.0899 138.626L75.5912 131.739L78.4846 127.766L89.2387 135.562C89.8197 135.983 90.1639 136.554 90.272 137.267C90.387 137.99 90.0278 138.92 89.1934 140.066L87.4094 142.516L84.2569 140.231Z" fill="black"/>
<path d="M88.133 115.244C89.0241 114.146 89.8342 113.557 90.561 113.483C91.2771 113.405 91.9203 113.599 92.49 114.059L95.1098 116.176L92.0115 119.994L89.7748 118.187C89.6331 118.072 89.51 118.083 89.3997 118.218L88.6008 119.203C88.4904 119.338 88.5063 119.461 88.648 119.575L96.1608 125.646C96.2913 125.751 96.4091 125.736 96.5195 125.601L97.318 124.616C97.4283 124.481 97.4181 124.363 97.2876 124.257L95.0317 122.435L98.1304 118.616L100.77 120.749C101.328 121.2 101.646 121.784 101.719 122.499C101.798 123.224 101.388 124.136 100.497 125.234L97.7927 128.567C96.897 129.67 96.0878 130.26 95.3652 130.328C94.6444 130.411 93.7323 130.004 92.6317 129.115L85.9805 123.741C84.8687 122.843 84.2752 122.033 84.2073 121.312C84.1236 120.593 84.5329 119.68 85.4286 118.576L88.133 115.244Z" fill="black"/>
<path fill-rule="evenodd" clip-rule="evenodd" d="M97.7903 104.649C98.774 103.633 99.6323 103.116 100.363 103.106C101.083 103.091 101.959 103.582 102.988 104.574L109.145 110.506C110.163 111.488 110.681 112.339 110.691 113.057C110.706 113.786 110.219 114.66 109.235 115.677L106.249 118.761C105.261 119.782 104.403 120.299 103.678 120.304C102.952 120.325 102.079 119.84 101.061 118.859L94.9039 112.926C93.8749 111.935 93.3543 111.076 93.3497 110.352C93.3291 109.629 93.8169 108.755 94.8053 107.734L97.7903 104.649ZM99.1538 107.709C99.0326 107.592 98.9143 107.597 98.7922 107.723L97.911 108.633C97.7889 108.759 97.7889 108.878 97.9096 108.994L104.863 115.694C104.995 115.821 105.118 115.821 105.24 115.696L106.122 114.785C106.244 114.659 106.239 114.536 106.108 114.409L99.1538 107.709Z" fill="black"/>
<path d="M102.115 100.399L105.715 97.0486L116.566 108.658L112.965 112.008L102.115 100.399Z" fill="black"/>
<path d="M126.684 99.5968L116.458 87.4358L112.686 90.5935L117.264 96.0367L110.832 92.1458L107.223 95.1682L117.449 107.329L121.22 104.171L116.649 98.7357L123.074 102.619L126.684 99.5968Z" fill="black"/>
<path fill-rule="evenodd" clip-rule="evenodd" d="M148.12 83.8119C148.438 83.4917 148.665 83.0264 148.801 82.4155C149.071 81.2044 148.753 79.8752 147.852 78.4354L144.415 72.9479C143.513 71.5076 142.455 70.6405 141.246 70.3511C140.636 70.2055 140.117 70.2051 139.689 70.3497L132.049 75.1134L140.48 88.576L148.12 83.8119ZM144.519 82.3847C144.612 82.5331 144.585 82.6507 144.436 82.7436L143.139 83.5524L137.739 74.9309L139.037 74.1216C139.185 74.0288 139.304 74.0568 139.396 74.2047L144.519 82.3847Z" fill="black"/>
<path d="M143.958 67.6615L151.719 63.3692L153.106 65.8652L149.65 67.7763L151.264 70.6806L154.719 68.7699L156.085 71.2285L152.63 73.1392L154.59 76.668L158.045 74.7573L159.432 77.2532L151.672 81.5456L143.958 67.6615Z" fill="black"/>
<path d="M160.401 58.676C161.663 58.0343 162.643 57.8247 163.337 58.0525C164.023 58.2718 164.532 58.7101 164.865 59.3616L166.395 62.3588L162.009 64.5892L160.702 62.0307C160.619 61.8683 160.502 61.8277 160.346 61.907L159.215 62.482C159.059 62.5613 159.023 62.6794 159.106 62.8418L163.495 71.4362C163.571 71.5856 163.685 71.6201 163.841 71.5408L164.972 70.9658C165.128 70.8864 165.167 70.7744 165.091 70.6251L163.773 68.0442L168.16 65.8143L169.701 68.8334C170.028 69.4723 170.081 70.1341 169.856 70.8169C169.632 71.5113 168.886 72.1787 167.624 72.82L163.795 74.7671C162.527 75.4116 161.547 75.6216 160.86 75.3902C160.168 75.1741 159.5 74.4325 158.857 73.1738L154.971 65.5646C154.322 64.2928 154.11 63.3118 154.342 62.6257C154.558 61.935 155.304 61.2671 156.573 60.6226L160.401 58.676Z" fill="black"/>
<path d="M165.882 56.1847L173.989 52.5836L175.152 55.1906L171.543 56.7942L172.896 59.8283L176.506 58.2247L177.651 60.793L174.042 62.3961L175.687 66.0817L179.296 64.4786L180.459 67.0856L172.353 70.6872L165.882 56.1847Z" fill="black"/>
<path d="M193.104 62.3453L187.402 47.525L182.806 49.2854L185.358 55.9197L180.546 50.1507L176.147 51.836L181.849 66.6558L186.445 64.8958L183.897 58.2714L188.705 64.0301L193.104 62.3453Z" fill="black"/>
<path d="M190.015 46.5804L201.427 43.529L202.168 46.2854L198.839 47.1754L202.216 59.7527L197.461 61.024L194.083 48.4467L190.755 49.3367L190.015 46.5804Z" fill="black"/>
<path fill-rule="evenodd" clip-rule="evenodd" d="M210.833 41.2371C212.218 40.943 213.219 40.9939 213.831 41.393C214.438 41.7892 214.888 42.6857 215.184 44.0742L215.28 44.5246C215.539 45.7389 215.564 46.5944 215.356 47.0942C215.152 47.5787 214.483 48.0416 213.349 48.4827C214.566 48.4285 215.367 48.5872 215.752 48.9541C216.146 49.3265 216.4 49.7792 216.513 50.3098L217.21 53.5824C217.445 54.6852 217.701 55.4772 217.981 55.9504L213.165 56.9716C212.874 56.4428 212.607 55.6018 212.361 54.4505L211.66 51.1569C211.637 51.0486 211.565 50.9838 211.446 50.9581L209.858 51.2946L211.158 57.3972L206.343 58.4184L203.035 42.8906L210.833 41.2371ZM210.253 44.5549C210.215 44.3766 210.113 44.3075 209.942 44.3439L208.445 44.6613L209.303 48.6881L210.799 48.3707C210.971 48.3343 211.036 48.2293 211.001 48.0618L210.253 44.5549Z" fill="black"/>
<path fill-rule="evenodd" clip-rule="evenodd" d="M219.755 39.282L218.877 55.5556L223.387 54.7622L223.411 50.9367L226.278 50.4321L227.626 54.0164L232.122 53.2254L225.719 38.2324L219.755 39.282ZM223.415 48.0599L223.477 42.9447L225.281 47.7313L223.415 48.0599Z" fill="black"/>
<path d="M231.006 37.5884L235.892 36.9896L237.357 48.8864L241.278 48.4062L241.752 52.2654L232.945 53.3444L231.006 37.5884Z" fill="black"/>
<path d="M241.81 36.6909L246.721 36.3479L247.831 52.1842L242.92 52.5267L241.81 36.6909Z" fill="black"/>
<path d="M248.815 36.0543L248.883 39.9602L253.383 39.8818L248.838 51.9307L259.823 51.7394L259.755 47.8522L255.684 47.9231L259.892 35.8616L248.815 36.0543Z" fill="black"/>
<path d="M261.443 36.0762L270.315 36.2307L270.265 39.0842L266.315 39.0151L266.257 42.3357L270.207 42.4048L270.158 45.2153L266.208 45.1462L266.138 49.1804L270.088 49.249L270.038 52.1025L261.166 51.948L261.443 36.0762Z" fill="black"/>
<path fill-rule="evenodd" clip-rule="evenodd" d="M280.491 52.8273C280.936 52.7545 281.394 52.5113 281.864 52.0969C282.796 51.2755 283.322 50.014 283.441 48.3198L283.893 41.8648C284.012 40.1707 283.667 38.849 282.859 37.9053C282.451 37.4302 282.032 37.1254 281.601 36.9915L272.613 36.3642L271.503 52.2L280.491 52.8273ZM278.418 49.5608C278.406 49.7353 278.315 49.8147 278.14 49.8025L276.614 49.6957L277.324 39.5537L278.851 39.6606C279.026 39.6727 279.105 39.7642 279.092 39.9383L278.418 49.5608Z" fill="black"/>
<path fill-rule="evenodd" clip-rule="evenodd" d="M298.692 55.7638C299.143 55.7381 299.624 55.5439 300.134 55.1804C301.148 54.4607 301.803 53.2608 302.099 51.5891L303.224 45.2162C303.52 43.5435 303.316 42.1933 302.611 41.1708C302.255 40.6555 301.87 40.3088 301.455 40.1305L292.582 38.5693L289.82 54.2026L298.692 55.7638ZM296.974 52.2989C296.943 52.4712 296.844 52.5407 296.671 52.5104L295.164 52.2453L296.934 42.233L298.44 42.4981C298.613 42.5284 298.683 42.6278 298.652 42.7996L296.974 52.2989Z" fill="black"/>
<path d="M306.011 41.0546L310.827 42.0757L307.519 57.6035L302.703 56.5824L306.011 41.0546Z" fill="black"/>
<path d="M320.687 44.6286C322.054 44.9945 322.924 45.493 323.287 46.1253C323.647 46.7535 323.641 47.7565 323.273 49.1277L322.638 51.4915L317.882 50.2198L318.65 47.3602C318.697 47.188 318.638 47.076 318.469 47.0307L317.243 46.7031C317.074 46.6579 316.967 46.7255 316.921 46.8977L314.417 56.2183C314.375 56.3766 314.436 56.4816 314.605 56.5268L315.83 56.8545C316 56.9002 316.105 56.8391 316.147 56.6808L316.958 53.6622L316.098 53.4326L316.559 51.7165L322.174 53.2179L320.109 60.9087L318.734 60.541L318.656 58.9728C318.266 59.8587 317.243 60.0981 315.585 59.6991L312.418 58.8524C311.044 58.4851 310.174 57.99 309.816 57.3664C309.448 56.7364 309.45 55.7358 309.817 54.3716L312.032 46.1225C312.4 44.7514 312.9 43.8805 313.535 43.5179C314.159 43.1497 315.161 43.1515 316.536 43.5188L320.687 44.6286Z" fill="black"/>
<path d="M326.447 46.4814L331.129 47.9992L326.213 63.0971L321.531 61.5789L326.447 46.4814Z" fill="black"/>
<path d="M333.004 48.5714L344.034 52.7964L343.009 55.4608L339.792 54.2283L335.116 66.3841L330.52 64.6242L335.196 52.4683L331.978 51.2358L333.004 48.5714Z" fill="black"/>
<path fill-rule="evenodd" clip-rule="evenodd" d="M347.698 54.3861L337.85 67.388L342.033 69.2469L344.198 66.0887L346.857 67.2695L345.966 70.9938L350.137 72.8466L353.23 56.8442L347.698 54.3861ZM345.813 63.7057L348.731 59.4997L347.544 64.4748L345.813 63.7057Z" fill="black"/>
<path d="M358 59.3126L362.387 61.5425L356.933 72.2226L360.453 74.012L358.684 77.4763L350.778 73.4566L358 59.3126Z" fill="black"/>
<path d="M379.631 71.5427C380.832 72.2913 381.517 73.0216 381.679 73.7324C381.843 74.4325 381.729 75.0929 381.341 75.7131L379.554 78.5661L375.379 75.9628L376.904 73.5275C377.001 73.3731 376.976 73.2522 376.827 73.1593L375.751 72.4886C375.602 72.3958 375.482 72.4261 375.385 72.5806L370.263 80.7606C370.173 80.9029 370.202 81.0177 370.351 81.1106L371.427 81.7812C371.576 81.8741 371.692 81.8499 371.781 81.7075L373.319 79.2512L377.495 81.8545L375.695 84.7285C375.314 85.3366 374.773 85.7226 374.07 85.8817C373.359 86.0484 372.401 85.7539 371.2 85.0053L367.556 82.7329C366.349 81.9805 365.664 81.2506 365.509 80.5436C365.337 79.8398 365.631 78.8868 366.381 77.6887L370.916 70.4464C371.675 69.2362 372.408 68.5492 373.117 68.3943C373.822 68.2239 374.78 68.518 375.987 69.2703L379.631 71.5427Z" fill="black"/>
<path d="M394.034 81.5413L387.01 91.5494C386.198 92.7069 385.436 93.3504 384.727 93.4727C384.007 93.602 383.066 93.258 381.906 92.4473L378.386 89.9878C377.221 89.1739 376.575 88.4089 376.456 87.6944C376.323 86.9831 376.665 86.0465 377.478 84.8895L384.501 74.881L388.534 77.6985L381.211 88.1336C381.106 88.2825 381.128 88.4066 381.278 88.5112L382.308 89.2313C382.452 89.3316 382.573 89.3074 382.678 89.1585L390.001 78.7234L394.034 81.5413Z" fill="black"/>
<path fill-rule="evenodd" clip-rule="evenodd" d="M402.413 88.3791C403.498 89.2873 404.075 90.1054 404.136 90.8321C404.196 91.5536 403.766 92.4594 402.852 93.5473L402.555 93.8997C401.755 94.8508 401.095 95.3969 400.572 95.5411C400.064 95.6792 399.286 95.4384 398.24 94.8182C399.031 95.7413 399.4 96.4689 399.347 96.9977C399.295 97.5368 399.094 98.0151 398.745 98.4305L396.589 100.994C395.863 101.858 395.395 102.546 395.194 103.057L391.423 99.8996C391.661 99.3452 392.16 98.6176 392.919 97.7159L395.088 95.1365C395.159 95.0515 395.166 94.9549 395.113 94.8457L393.87 93.8045L389.851 98.584L386.079 95.4263L396.306 83.2658L402.413 88.3791ZM399.436 89.9659C399.554 89.8263 399.545 89.7031 399.411 89.5906L398.239 88.6096L395.587 91.7631L396.759 92.7446C396.893 92.8571 397.016 92.8436 397.126 92.7124L399.436 89.9659Z" fill="black"/>
<path fill-rule="evenodd" clip-rule="evenodd" d="M412.881 98.0459C413.917 99.0092 414.449 99.8567 414.473 100.585C414.495 101.309 414.018 102.192 413.048 103.23L412.733 103.566C411.884 104.474 411.196 104.985 410.667 105.102C410.152 105.213 409.389 104.932 408.376 104.258C409.118 105.222 409.448 105.967 409.367 106.492C409.288 107.028 409.061 107.495 408.69 107.892L406.403 110.339C405.633 111.164 405.13 111.827 404.902 112.327L401.301 108.977C401.569 108.435 402.105 107.735 402.91 106.874L405.212 104.411C405.287 104.33 405.299 104.234 405.252 104.122L404.065 103.018L399.801 107.581L396.2 104.231L407.051 92.6204L412.881 98.0459ZM409.825 99.475C409.949 99.342 409.948 99.2183 409.819 99.0993L408.701 98.0581L405.887 101.069L407.005 102.11C407.134 102.229 407.257 102.222 407.375 102.097L409.825 99.475Z" fill="black"/>
<path d="M417.335 102.434L423.499 108.803L421.442 110.786L418.697 107.95L416.303 110.257L419.047 113.093L417.021 115.046L414.276 112.21L411.368 115.013L414.112 117.848L412.055 119.831L405.891 113.462L417.335 102.434Z" fill="black"/>
<path d="M420.893 130.057L432.9 119.642L429.671 115.935L424.296 120.597L428.083 114.112L424.991 110.564L412.984 120.979L416.214 124.686L421.581 120.031L417.802 126.509L420.893 130.057Z" fill="black"/>
<path d="M439.293 128.183C440.125 129.326 440.486 130.259 440.37 130.979C440.26 131.689 439.906 132.259 439.312 132.689L436.585 134.666L433.691 130.692L436.02 129.004C436.167 128.897 436.189 128.776 436.086 128.634L435.34 127.609C435.237 127.468 435.114 127.451 434.967 127.559L427.146 133.228C427.01 133.327 426.994 133.444 427.097 133.586L427.843 134.61C427.946 134.751 428.063 134.772 428.199 134.674L430.547 132.971L433.441 136.946L430.693 138.937C430.112 139.359 429.465 139.515 428.754 139.399C428.032 139.288 427.254 138.657 426.422 137.514L423.896 134.045C423.06 132.896 422.698 131.963 422.82 131.25C422.925 130.533 423.555 129.76 424.701 128.929L431.625 123.909C432.782 123.071 433.72 122.708 434.435 122.829C435.153 122.935 435.931 123.565 436.767 124.714L439.293 128.183Z" fill="black"/>
<path d="M436.961 140.682L442.444 132.629L444.984 136.53L441.442 140.718L446.712 139.187L449.25 143.085L439.648 144.811L433.849 148.569L431.162 144.44L436.961 140.682Z" fill="black"/>
<path d="M447.313 164.564L447.954 165.935C448.031 166.1 448.152 166.146 448.317 166.069L458.958 161.118L461.038 165.57L448.991 171.175C448.34 171.478 447.672 171.502 446.995 171.25C446.305 171 445.665 170.236 445.065 168.952L443.782 166.207L447.313 164.564Z" fill="black"/>
<path d="M467.078 180.11C467.608 181.419 467.732 182.412 467.445 183.082C467.166 183.745 466.684 184.212 466.005 184.486L462.879 185.747L461.034 181.191L463.703 180.116C463.872 180.048 463.923 179.935 463.857 179.773L463.382 178.599C463.316 178.436 463.201 178.391 463.032 178.459L454.069 182.072C453.913 182.135 453.869 182.245 453.935 182.407L454.41 183.581C454.475 183.743 454.584 183.792 454.74 183.729L457.431 182.644L459.275 187.199L456.127 188.468C455.46 188.737 454.795 188.732 454.133 188.449C453.459 188.166 452.857 187.366 452.327 186.056L450.717 182.081C450.184 180.764 450.06 179.772 450.351 179.109C450.627 178.439 451.426 177.84 452.738 177.311L460.674 174.112C462 173.577 462.998 173.452 463.663 173.742C464.333 174.018 464.935 174.817 465.469 176.134L467.078 180.11Z" fill="black"/>
<path fill-rule="evenodd" clip-rule="evenodd" d="M471.68 193.247C472.141 194.583 472.212 195.581 471.89 196.235C471.577 196.882 470.74 197.437 469.388 197.902L461.295 200.682C459.956 201.143 458.961 201.216 458.315 200.899C457.657 200.582 457.098 199.751 456.637 198.416L455.238 194.361C454.775 193.019 454.703 192.021 455.028 191.374C455.339 190.72 456.168 190.163 457.506 189.704L465.599 186.924C466.951 186.459 467.955 186.385 468.603 186.71C469.258 187.021 469.818 187.85 470.281 189.193L471.68 193.247ZM468.329 193.071C468.488 193.016 468.538 192.909 468.481 192.743L468.067 191.546C468.01 191.38 467.905 191.326 467.746 191.381L458.606 194.521C458.433 194.58 458.376 194.69 458.433 194.856L458.847 196.053C458.904 196.218 459.016 196.27 459.189 196.211L468.329 193.071Z" fill="black"/>
<path d="M473.177 198.944L474.534 203.666L459.241 208.042L457.884 203.319L473.177 198.944Z" fill="black"/>
<path d="M462.23 221.205L477.668 217.364L476.477 212.598L469.566 214.317L475.891 210.255L474.751 205.693L459.314 209.533L460.505 214.3L467.405 212.583L461.091 216.643L462.23 221.205Z" fill="black"/>
<path fill-rule="evenodd" clip-rule="evenodd" d="M464.648 242.48C464.79 242.908 465.102 243.321 465.586 243.719C466.545 244.509 467.876 244.83 469.572 244.682L476.032 244.118C477.728 243.97 478.982 243.423 479.789 242.479C480.196 242.003 480.432 241.542 480.497 241.096L479.712 232.141L463.863 233.524L464.648 242.48ZM467.558 239.926C467.383 239.942 467.29 239.864 467.275 239.69L467.142 238.169L477.292 237.283L477.425 238.804C477.44 238.978 477.362 239.07 477.188 239.085L467.558 239.926Z" fill="black"/>
<path d="M480.815 246.029L481.125 254.877L478.266 254.977L478.128 251.038L474.802 251.153L474.94 255.093L472.125 255.191L471.986 251.252L467.945 251.392L468.083 255.332L465.225 255.431L464.915 246.583L480.815 246.029Z" fill="black"/>
<path d="M480.902 265.088C480.877 266.5 480.603 267.462 480.076 267.967C479.559 268.468 478.933 268.711 478.2 268.698L474.829 268.639L474.915 263.727L477.793 263.777C477.975 263.781 478.066 263.697 478.069 263.522L478.091 262.256C478.094 262.081 478.006 261.994 477.824 261.991L468.158 261.822C467.99 261.82 467.906 261.904 467.903 262.079L467.881 263.344C467.878 263.519 467.959 263.606 468.127 263.609L471.029 263.66L470.943 268.571L467.548 268.513C466.829 268.5 466.218 268.236 465.72 267.717C465.21 267.194 464.97 266.223 464.995 264.811L465.07 260.524C465.095 259.104 465.369 258.142 465.896 257.644C466.413 257.136 467.383 256.896 468.798 256.921L477.356 257.07C478.785 257.095 479.753 257.368 480.252 257.895C480.761 258.41 481.002 259.381 480.977 260.8L480.902 265.088Z" fill="black"/>
<path d="M480.77 271.019L480.15 279.851L477.297 279.652L477.573 275.72L474.253 275.488L473.977 279.42L471.167 279.224L471.443 275.292L467.409 275.011L467.133 278.943L464.28 278.744L464.899 269.911L480.77 271.019Z" fill="black"/>
<path d="M462.577 292.121L478.367 294.055L478.967 289.18L471.899 288.314L479.263 286.782L479.837 282.116L464.046 280.181L463.446 285.057L470.504 285.922L463.151 287.454L462.577 292.121Z" fill="black"/>
<path d="M477.825 295.792L475.773 307.402L472.957 306.907L473.555 303.52L460.704 301.259L461.559 296.422L474.41 298.682L475.008 295.296L477.825 295.792Z" fill="black"/>
<path fill-rule="evenodd" clip-rule="evenodd" d="M472.966 317.425C472.6 318.79 472.1 319.657 471.466 320.019C470.837 320.379 469.832 320.373 468.457 320.005L468.012 319.886C466.81 319.565 466.035 319.198 465.683 318.786C465.343 318.385 465.233 317.58 465.354 316.372C464.85 317.478 464.345 318.118 463.842 318.294C463.331 318.475 462.811 318.495 462.286 318.355L459.047 317.489C457.956 317.198 457.133 317.066 456.583 317.1L457.857 312.355C458.462 312.336 459.334 312.48 460.473 312.785L463.733 313.656C463.84 313.685 463.931 313.65 464.008 313.556L464.428 311.992L458.388 310.377L459.662 305.633L475.03 309.741L472.966 317.425ZM470.267 315.403C470.443 315.45 470.552 315.391 470.597 315.222L470.993 313.747L467.007 312.682L466.612 314.156C466.566 314.325 466.63 314.431 466.796 314.475L470.267 315.403Z" fill="black"/>
<path fill-rule="evenodd" clip-rule="evenodd" d="M470.225 326.28L456.237 317.866L454.822 322.212L458.196 324.03L457.297 326.792L453.492 326.297L452.081 330.63L468.354 332.027L470.225 326.28ZM460.74 325.384L465.237 327.839L460.154 327.182L460.74 325.384Z" fill="black"/>
<path d="M466.283 336.982L464.519 341.568L453.304 337.272L451.888 340.952L448.251 339.559L451.43 331.293L466.283 336.982Z" fill="black"/>
<path d="M462.386 347.153L460.384 351.64L445.85 345.184L447.852 340.696L462.386 347.153Z" fill="black"/>
<path d="M459.472 353.471L455.983 351.698L453.94 355.699L445.412 346.039L440.424 355.806L443.896 357.571L445.744 353.951L454.442 363.321L459.472 353.471Z" fill="black"/>
<path d="M453.569 364.63L449.267 372.374L446.766 370.991L448.681 367.543L445.77 365.933L443.855 369.38L441.391 368.018L443.306 364.57L439.769 362.614L437.854 366.062L435.353 364.678L439.654 356.934L453.569 364.63Z" fill="black"/>
<path fill-rule="evenodd" clip-rule="evenodd" d="M429.742 373.314C429.597 373.741 429.597 374.258 429.743 374.867C430.033 376.073 430.902 377.129 432.345 378.029L437.845 381.458C439.289 382.358 440.62 382.675 441.834 382.405C442.446 382.269 442.913 382.043 443.234 381.726L448.008 374.103L434.516 365.69L429.742 373.314ZM433.605 373.022C433.456 372.929 433.429 372.811 433.522 372.663L434.333 371.368L442.974 376.756L442.163 378.05C442.07 378.199 441.952 378.225 441.804 378.133L433.605 373.022Z" fill="black"/>
<path fill-rule="evenodd" clip-rule="evenodd" d="M418.488 388.141C418.3 388.55 418.246 389.065 418.327 389.685C418.489 390.916 419.243 392.056 420.584 393.102L425.694 397.086C427.035 398.131 428.327 398.585 429.562 398.444C430.185 398.373 430.673 398.196 431.026 397.914L436.572 390.83L424.035 381.057L418.488 388.141ZM422.361 388.253C422.223 388.145 422.208 388.025 422.316 387.888L423.258 386.684L431.287 392.944L430.345 394.147C430.237 394.285 430.117 394.299 429.979 394.192L422.361 388.253Z" fill="black"/>
<path d="M428.069 401.518L424.905 405.281L412.717 395.077L415.882 391.314L428.069 401.518Z" fill="black"/>
<path d="M417.715 412.642C416.749 413.676 415.9 414.207 415.17 414.23C414.444 414.253 413.56 413.776 412.52 412.808L410.726 411.139L414.084 407.547L416.254 409.566C416.384 409.688 416.511 409.689 416.631 409.561L417.496 408.634C417.616 408.506 417.606 408.381 417.475 408.259L410.402 401.678C410.282 401.566 410.161 401.57 410.042 401.698L409.176 402.624C409.057 402.752 409.061 402.873 409.181 402.985L411.471 405.116L412.079 404.467L413.381 405.678L409.416 409.92L403.58 404.49L404.551 403.452L405.975 404.119C405.375 403.36 405.643 402.346 406.774 401.073L409.01 398.68C409.98 397.641 410.827 397.108 411.547 397.085C412.277 397.057 413.161 397.528 414.196 398.492L420.456 404.316C421.497 405.284 422.032 406.134 422.055 406.863C422.088 407.586 421.616 408.468 420.646 409.507L417.715 412.642Z" fill="black"/>
<path d="M413.549 416.808L410.008 420.22L398.956 408.801L402.497 405.389L413.549 416.808Z" fill="black"/>
<path d="M408.673 421.562L399.757 429.297L397.88 427.143L400.481 424.887L391.92 415.06L395.635 411.838L404.196 421.665L406.797 419.409L408.673 421.562Z" fill="black"/>
<path fill-rule="evenodd" clip-rule="evenodd" d="M396.758 431.59L389.619 416.932L386.06 419.808L387.898 423.166L385.636 424.993L382.715 422.511L379.167 425.378L392.052 435.393L396.758 431.59ZM389.292 425.683L391.723 430.187L387.819 426.873L389.292 425.683Z" fill="black"/>
<path d="M387.447 438.487L383.464 441.374L376.403 431.677L373.207 433.994L370.916 430.849L378.095 425.644L387.447 438.487Z" fill="black"/>
<path d="M366.413 451.867C365.186 452.573 364.218 452.834 363.514 452.643C362.817 452.459 362.286 452.048 361.92 451.415L360.234 448.502L364.498 446.045L365.936 448.532C366.028 448.69 366.146 448.724 366.298 448.637L367.397 448.004C367.549 447.916 367.579 447.796 367.487 447.639L362.654 439.285C362.57 439.14 362.455 439.112 362.303 439.199L361.204 439.832C361.052 439.92 361.019 440.034 361.103 440.179L362.554 442.687L358.29 445.143L356.593 442.209C356.233 441.588 356.145 440.929 356.335 440.236C356.521 439.531 357.231 438.825 358.458 438.119L362.18 435.975C363.412 435.265 364.379 435.004 365.078 435.199C365.781 435.379 366.487 436.084 367.194 437.308L371.473 444.704C372.189 445.94 372.453 446.908 372.257 447.605C372.076 448.307 371.366 449.013 370.134 449.722L366.413 451.867Z" fill="black"/>
<path d="M350.978 459.794L345.229 449.006C344.565 447.759 344.336 446.789 344.549 446.103C344.76 445.405 345.495 444.724 346.745 444.061L350.539 442.048C351.795 441.381 352.772 441.154 353.463 441.373C354.159 441.578 354.84 442.307 355.505 443.555L361.253 454.342L356.906 456.648L350.913 445.401C350.827 445.24 350.706 445.203 350.545 445.289L349.434 445.878C349.28 445.96 349.246 446.079 349.331 446.24L355.325 457.488L350.978 459.794Z" fill="black"/>
<path fill-rule="evenodd" clip-rule="evenodd" d="M340.754 463.948C339.441 464.477 338.446 464.601 337.775 464.314C337.108 464.029 336.508 463.224 335.975 461.908L335.802 461.481C335.336 460.33 335.163 459.492 335.281 458.964C335.397 458.451 335.975 457.88 337.016 457.249C335.827 457.512 335.01 457.496 334.567 457.201C334.114 456.902 333.785 456.5 333.582 455.997L332.326 452.895C331.902 451.85 331.512 451.115 331.154 450.697L335.719 448.857C336.098 449.327 336.508 450.109 336.949 451.2L338.213 454.322C338.255 454.425 338.337 454.476 338.459 454.481L339.964 453.874L337.621 448.09L342.186 446.25L348.146 460.968L340.754 463.948ZM340.748 460.58C340.816 460.749 340.929 460.8 341.091 460.734L342.51 460.162L340.964 456.346L339.545 456.917C339.383 456.983 339.337 457.097 339.401 457.256L340.748 460.58Z" fill="black"/>
<path fill-rule="evenodd" clip-rule="evenodd" d="M327.437 468.736C326.098 469.196 325.098 469.268 324.442 468.946C323.792 468.627 323.235 467.792 322.772 466.449L322.621 466.014C322.216 464.84 322.087 463.994 322.233 463.473C322.376 462.967 322.983 462.426 324.055 461.85C322.854 462.052 322.04 461.992 321.612 461.675C321.176 461.353 320.868 460.934 320.692 460.422L319.6 457.258C319.232 456.192 318.881 455.437 318.546 455.002L323.2 453.403C323.554 453.892 323.922 454.694 324.306 455.807L325.405 458.991C325.441 459.095 325.52 459.151 325.642 459.162L327.176 458.635L325.141 452.736L329.795 451.137L334.975 466.146L327.437 468.736ZM327.607 465.373C327.666 465.545 327.776 465.601 327.942 465.544L329.389 465.047L328.046 461.155L326.599 461.652C326.433 461.708 326.382 461.821 326.437 461.983L327.607 465.373Z" fill="black"/>
<path d="M321.362 470.64L312.833 473.081L312.044 470.337L315.842 469.251L314.924 466.059L311.127 467.145L310.35 464.443L314.148 463.356L313.033 459.478L309.236 460.565L308.448 457.821L316.977 455.381L321.362 470.64Z" fill="black"/>
<path d="M295.182 460.618L298.761 476.086L303.557 474.981L301.955 468.057L305.916 474.437L310.508 473.38L306.928 457.912L302.132 459.017L303.731 465.93L299.773 459.56L295.182 460.618Z" fill="black"/>
<path d="M288.159 477.673C286.756 477.87 285.762 477.75 285.179 477.309C284.602 476.879 284.264 476.299 284.162 475.575L283.693 472.244L288.569 471.56L288.969 474.404C288.994 474.584 289.092 474.66 289.265 474.636L290.522 474.46C290.696 474.436 290.768 474.335 290.743 474.155L289.397 464.603C289.374 464.437 289.278 464.368 289.104 464.392L287.848 464.568C287.674 464.593 287.6 464.686 287.624 464.852L288.028 467.72L283.153 468.404L282.68 465.048C282.58 464.338 282.746 463.695 283.181 463.123C283.619 462.538 284.543 462.15 285.944 461.953L290.2 461.357C291.609 461.159 292.604 461.279 293.179 461.721C293.763 462.15 294.152 463.068 294.35 464.467L295.54 472.924C295.74 474.337 295.62 475.334 295.177 475.907C294.747 476.49 293.823 476.879 292.415 477.077L288.159 477.673Z" fill="black"/>
<path d="M278.229 469.668L282.781 478.28L278.137 478.685L276.094 473.6L274.974 478.961L270.333 479.366L273.314 470.097L272.711 463.223L277.627 462.795L278.229 469.668Z" fill="black"/>
<path d="M446.659 149.734C448.001 149.734 449.089 150.82 449.089 152.159C449.089 153.498 448.001 154.584 446.659 154.584C445.317 154.584 444.229 153.498 444.229 152.159C444.229 150.82 445.317 149.734 446.659 149.734Z" fill="black"/>
<path d="M473.12 226.013C473.12 224.674 472.032 223.588 470.69 223.588C469.348 223.588 468.26 224.674 468.26 226.013C468.26 227.352 469.348 228.438 470.69 228.438C472.032 228.438 473.12 227.352 473.12 226.013Z" fill="black"/>
<path d="M73.9965 144.561C75.3384 144.561 76.4269 145.647 76.4269 146.986C76.4269 148.325 75.3384 149.411 73.9965 149.411C72.6546 149.411 71.5662 148.325 71.5662 146.986C71.5662 145.647 72.6546 144.561 73.9965 144.561Z" fill="black"/>
<path d="M131.314 87.4495C131.314 86.1105 130.226 85.0245 128.884 85.0245C127.542 85.0245 126.454 86.1105 126.454 87.4495C126.454 88.7885 127.542 89.8745 128.884 89.8745C130.226 89.8745 131.314 88.7885 131.314 87.4495Z" fill="black"/>
<path d="M181.803 455.041C183.145 455.041 184.234 456.127 184.234 457.466C184.234 458.805 183.145 459.891 181.803 459.891C180.461 459.891 179.373 458.805 179.373 457.466C179.373 456.127 180.461 455.041 181.803 455.041Z" fill="black"/>
<path d="M264.427 471.586C264.427 470.247 263.339 469.161 261.997 469.161C260.655 469.161 259.567 470.247 259.567 471.586C259.567 472.925 260.655 474.011 261.997 474.011C263.339 474.011 264.427 472.925 264.427 471.586Z" fill="black"/>
<defs>
<radialGradient id="paint0_radial_4606_2060" cx="0" cy="0" r="1" gradientUnits="userSpaceOnUse" gradientTransform="translate(256.05 256) scale(256 270.689)">
<stop offset="0.569267" stop-color="#C5D82E"/>
<stop offset="1" stop-color="#20934A"/>
</radialGradient>
</defs>
</svg>
