<svg width="15" height="16" viewBox="0 0 15 16" fill="none" xmlns="http://www.w3.org/2000/svg">
<path d="M7.18935 0.740112H5.90618V3.40576H4.43532C3.64268 3.4066 2.86705 3.63565 2.20111 4.06552C1.53517 4.49539 1.00708 5.10791 0.67994 5.82988C0.438982 6.31243 0.314241 6.84465 0.315686 7.38402V15.28H1.89526L3.3979 9.8955C3.55048 9.35386 3.87551 8.87674 4.32372 8.53649C4.77192 8.19624 5.31886 8.01142 5.88158 8.01005H5.90618V10.6757H7.17175L12.1483 5.69912L7.18935 0.740112ZM6.8755 9.60116V7.04072H5.88158C5.10732 7.04259 4.35479 7.29689 3.73809 7.76504C3.1214 8.2332 2.67418 8.88968 2.46426 9.63494L1.28501 13.8606V7.38402C1.28387 6.99197 1.37503 6.60515 1.55112 6.25487L1.55997 6.23627C1.80932 5.68225 2.21325 5.21196 2.72328 4.88182C3.23331 4.55168 3.82777 4.37573 4.43532 4.37508H6.8755V1.7971L10.7775 5.69912L6.8755 9.60116Z" fill="#FDFFEC"/>
<path d="M9.85496 0.719971H8.54004L13.5191 5.69909L8.56267 10.6555H9.83736L14.8139 5.67898L9.85496 0.719971Z" fill="#FDFFEC"/>
</svg>
