<svg width="52" height="51" viewBox="0 0 32 31" fill="none" xmlns="http://www.w3.org/2000/svg">
<path fill-rule="evenodd" clip-rule="evenodd" d="M0.925066 26.8295L13.693 1.29365C13.962 0.925353 14.3161 0.627549 14.7251 0.425601C15.134 0.223652 15.5857 0.123544 16.0417 0.133803C16.4977 0.144063 16.9444 0.264386 17.3439 0.484524C17.7433 0.704661 18.0837 1.01809 18.3359 1.39811L31.1038 26.8295C31.2373 27.2124 31.2802 27.6211 31.2291 28.0234C31.178 28.4257 31.0344 28.8107 30.8094 29.1481C30.5845 29.4856 30.2844 29.7663 29.9326 29.9681C29.5809 30.17 29.1872 30.2876 28.7823 30.3116H3.24651C2.83587 30.3025 2.43351 30.1944 2.07357 29.9965C1.71362 29.7987 1.40671 29.5169 1.17887 29.1752C0.951039 28.8334 0.809004 28.4418 0.764819 28.0334C0.720634 27.625 0.775604 27.2121 0.925066 26.8295ZM14.467 24.9468C14.3906 25.157 14.3585 25.3807 14.3725 25.6039C14.3588 25.827 14.3912 26.0504 14.4677 26.2604C14.5442 26.4703 14.6632 26.6622 14.8172 26.8241C14.9713 26.9859 15.157 27.1143 15.3629 27.2011C15.5688 27.288 15.7904 27.3314 16.0138 27.3288C16.4606 27.3124 16.8836 27.1234 17.1939 26.8015C17.5042 26.4796 17.6776 26.0499 17.6776 25.6028C17.6776 25.1557 17.5042 24.726 17.1939 24.4041C16.8836 24.0822 16.4606 23.8932 16.0138 23.8768C15.7901 23.8741 15.5684 23.9176 15.3623 24.0046C15.1563 24.0916 14.9704 24.2202 14.8163 24.3823C14.6623 24.5444 14.5433 24.7366 14.467 24.9468ZM14.2727 8.25815L14.8531 21.6227H17.1745L17.7549 8.25815H14.2727Z" fill="black"/>
</svg>
