<svg width="100" height="107" viewBox="0 0 100 107" fill="none" xmlns="http://www.w3.org/2000/svg">
<path fill-rule="evenodd" clip-rule="evenodd" d="M33.2805 47.5906C47.8404 47.5906 59.6429 40.9666 59.6429 32.7953C59.6429 24.624 47.8404 18 33.2805 18C18.7206 18 6.91797 24.624 6.91797 32.7953C6.91797 40.9666 18.7206 47.5906 33.2805 47.5906ZM53.7248 31.1812C53.7248 37.5696 44.5713 42.7485 33.2805 42.7485C21.9896 42.7485 12.8361 37.5696 12.8361 31.1812C12.8361 24.7929 21.9896 19.614 33.2805 19.614C44.5713 19.614 53.7248 24.7929 53.7248 31.1812ZM51.5728 30.3742C51.5728 35.7225 43.3829 40.0584 33.2805 40.0584C23.1781 40.0584 14.9881 35.7225 14.9881 30.3742C14.9881 25.0259 23.1781 20.6901 33.2805 20.6901C43.3829 20.6901 51.5728 25.0259 51.5728 30.3742ZM33.2805 52.4326C46.7244 52.4326 57.8177 47.5039 59.4391 41.1344C59.5736 41.6632 59.6429 42.2018 59.6429 42.7485C59.6429 49.8797 47.8404 55.6607 33.2805 55.6607C18.7206 55.6607 6.91797 49.8797 6.91797 42.7485C6.91797 42.2018 6.98732 41.6632 7.12182 41.1344C8.74321 47.5039 19.8365 52.4326 33.2805 52.4326ZM33.2805 62.6548C38.1936 62.6548 42.7929 61.9965 46.7305 60.8502V64.0783C42.7929 65.2246 38.1936 65.8829 33.2805 65.8829C18.7206 65.8829 6.91797 60.1019 6.91797 52.9706C6.91797 52.424 6.98732 51.8854 7.12182 51.3566C8.74321 57.726 19.8365 62.6548 33.2805 62.6548ZM46.7305 84.5227V81.2946C42.7929 82.4409 38.1936 83.0992 33.2805 83.0992C19.8365 83.0992 8.74321 78.1704 7.12182 71.801C6.98732 72.3298 6.91797 72.8683 6.91797 73.415C6.91797 80.5463 18.7206 86.3273 33.2805 86.3273C38.1936 86.3273 42.7929 85.669 46.7305 84.5227ZM46.7305 74.8385V71.6104C42.7929 72.7568 38.1936 73.415 33.2805 73.415C19.8365 73.415 8.74321 68.4862 7.12182 62.1168C6.98732 62.6456 6.91797 63.1842 6.91797 63.7308C6.91797 70.8621 18.7206 76.6431 33.2805 76.6431C38.1936 76.6431 42.7929 75.9848 46.7305 74.8385ZM92.9989 60.2066C92.9989 66.8769 83.3639 72.2843 71.4785 72.2843C59.5931 72.2843 49.9581 66.8769 49.9581 60.2066C49.9581 53.5362 59.5931 48.1288 71.4785 48.1288C83.3639 48.1288 92.9989 53.5362 92.9989 60.2066ZM71.4801 68.3319C80.6973 68.3319 88.1694 64.1043 88.1694 58.8892C88.1694 53.6742 80.6973 49.4466 71.4801 49.4466C62.2629 49.4466 54.7908 53.6742 54.7908 58.8892C54.7908 64.1043 62.2629 68.3319 71.4801 68.3319ZM71.4819 66.1357C79.7289 66.1357 86.4144 62.5963 86.4144 58.2303C86.4144 53.8642 79.7289 50.3248 71.4819 50.3248C63.2349 50.3248 56.5494 53.8642 56.5494 58.2303C56.5494 62.5963 63.2349 66.1357 71.4819 66.1357ZM71.4785 76.2366C82.4529 76.2366 91.5086 72.2131 92.8324 67.0136C92.9423 67.4452 92.9989 67.8849 92.9989 68.3311C92.9989 74.1525 83.3639 78.8717 71.4785 78.8717C59.5931 78.8717 49.9581 74.1525 49.9581 68.3311C49.9581 67.8849 50.0147 67.4452 50.1246 67.0136C51.4484 72.2131 60.5041 76.2366 71.4785 76.2366ZM92.8324 75.3589C91.5086 80.5585 82.4529 84.582 71.4785 84.582C60.5041 84.582 51.4484 80.5585 50.1246 75.3589C50.0147 75.7906 49.9581 76.2303 49.9581 76.6765C49.9581 82.4979 59.5931 87.2171 71.4785 87.2171C83.3639 87.2171 92.9989 82.4979 92.9989 76.6765C92.9989 76.2303 92.9423 75.7906 92.8324 75.3589Z" fill="#BD7809"/>
</svg>
