<svg width="20" height="25" viewBox="0 0 20 25" fill="none" xmlns="http://www.w3.org/2000/svg">
<path d="M11.0416 6.77251V0.227936H4.98217C4.67326 0.228857 4.37727 0.351979 4.15884 0.57041C3.94041 0.788842 3.81729 1.08483 3.81637 1.39374V6.32229C4.01054 6.23443 4.21214 6.16136 4.41955 6.10417C5.27021 5.86962 6.17371 5.91446 6.99697 6.23209C7.82022 6.54973 8.5197 7.12337 8.99236 7.8685C9.3608 7.72435 9.75211 7.6475 10.1477 7.64163C10.8433 7.63985 11.5212 7.86085 12.0821 8.27226C12.643 8.68367 13.0574 9.26386 13.2647 9.92786C13.7902 10.1886 14.2323 10.5913 14.5407 11.0904C14.8492 11.5895 15.0117 12.1649 15.0099 12.7516C15.0112 13.5065 14.7407 14.2366 14.2478 14.8083C13.7549 15.3801 13.0726 15.7552 12.3257 15.8651V15.8965H3.81637V17.1566C3.81729 17.4655 3.94041 17.7615 4.15884 17.9799C4.37727 18.1983 4.67326 18.3214 4.98217 18.3224H18.0294C18.3383 18.3214 18.6343 18.1983 18.8528 17.9799C19.0712 17.7615 19.1943 17.4655 19.1952 17.1566V6.77251H11.0416Z" fill="blue"/>
<path d="M11.9417 0.227936L19.1948 6.01857H11.9417V0.227936Z" fill="blue"/>
<path fill-rule="evenodd" clip-rule="evenodd" d="M3.46337 15.139C2.85094 15.1356 2.25741 14.9387 1.77769 14.5798C1.29796 14.2209 0.959759 13.7207 0.817164 13.1592C0.674568 12.5978 0.735817 12.0074 0.991114 11.4826C1.24641 10.9578 1.68101 10.5289 2.22541 10.2644C2.24631 9.53979 2.51353 8.84064 2.98769 8.26997C3.46186 7.69929 4.11791 7.28727 4.8592 7.09458C5.60049 6.90189 6.38783 6.93873 7.10524 7.19966C7.82265 7.4606 8.4322 7.93185 8.84409 8.54398C9.16515 8.42555 9.50616 8.36242 9.85089 8.3576C10.457 8.35614 11.0478 8.53769 11.5366 8.87566C12.0253 9.21363 12.3865 9.69026 12.5671 10.2357C13.0251 10.4499 13.4103 10.7808 13.6791 11.1908C13.9479 11.6008 14.0895 12.0735 14.0879 12.5555C14.0891 13.1756 13.8533 13.7754 13.4238 14.2451C12.9943 14.7148 12.3997 15.0229 11.7489 15.1132V15.139H3.46337ZM6.90557 11.6187C7.13402 11.513 7.29249 11.2817 7.29249 11.0134C7.29249 10.6452 6.99401 10.3467 6.62582 10.3467C6.25762 10.3467 5.95915 10.6452 5.95915 11.0134C5.95915 11.2805 6.11623 11.5109 6.34305 11.6173L5.97982 13.1181H7.27128L6.90557 11.6187Z" fill="blue"/>
<path fill-rule="evenodd" clip-rule="evenodd" d="M5.72325 20.9624C5.7983 20.8392 5.8343 20.6961 5.82652 20.552L5.37422 20.5507C5.37318 20.5784 5.36968 20.6059 5.36376 20.633C5.35473 20.6705 5.34158 20.7069 5.32455 20.7415C5.30517 20.7838 5.28105 20.8237 5.25265 20.8605C5.22018 20.9024 5.18137 20.939 5.13762 20.969C5.07706 20.9444 5.01391 20.9269 4.94938 20.9167C4.87767 20.9048 4.80507 20.8991 4.73238 20.8997C4.60132 20.8972 4.47082 20.9175 4.34676 20.9598C4.2427 20.9951 4.14735 21.0522 4.06701 21.1272C3.99069 21.2001 3.93211 21.2895 3.89577 21.3886C3.85638 21.4975 3.83689 21.6126 3.83825 21.7285C3.83344 21.8629 3.85798 21.9967 3.91015 22.1206C3.95775 22.2263 4.03154 22.3181 4.12453 22.3873C4.07893 22.4042 4.03514 22.4257 3.99381 22.4514C3.95093 22.4762 3.9125 22.508 3.88008 22.5455C3.84741 22.5806 3.82129 22.6214 3.80296 22.6657C3.7839 22.7117 3.77413 22.761 3.7742 22.8108C3.77253 22.8865 3.79055 22.9613 3.82649 23.0278C3.86057 23.0884 3.90963 23.1393 3.96897 23.1756C3.88377 23.223 3.81046 23.2891 3.75459 23.369C3.69348 23.457 3.66274 23.5626 3.66701 23.6697C3.66595 23.747 3.67971 23.8237 3.70753 23.8958C3.73251 23.9608 3.76929 24.0207 3.81603 24.0723C3.86533 24.1223 3.92419 24.1618 3.9891 24.1885C4.054 24.2152 4.12362 24.2286 4.19381 24.2279H5.08533C5.18967 24.2284 5.29327 24.2102 5.39121 24.1743C5.48318 24.1412 5.56762 24.0901 5.63958 24.0239C5.71123 23.9573 5.7686 23.8768 5.80821 23.7873C5.84986 23.6903 5.87078 23.5857 5.86965 23.4801C5.87112 23.391 5.85605 23.3023 5.82521 23.2187C5.79933 23.1447 5.75888 23.0767 5.70625 23.0187C5.658 22.963 5.59824 22.9184 5.53109 22.888C5.46292 22.8589 5.3895 22.8442 5.3154 22.8448H4.47486C4.45595 22.8459 4.43703 22.8428 4.41942 22.8358C4.40182 22.8288 4.38594 22.818 4.3729 22.8043C4.35979 22.7909 4.34956 22.7749 4.34282 22.7574C4.33608 22.7398 4.33297 22.7211 4.33368 22.7023C4.33343 22.6825 4.33737 22.6628 4.34525 22.6445C4.35314 22.6263 4.36479 22.6099 4.37944 22.5965C4.41239 22.567 4.45553 22.5515 4.4997 22.5533H4.72454C4.85766 22.5562 4.99029 22.5363 5.1167 22.4945C5.22197 22.4608 5.31842 22.4041 5.39906 22.3285C5.47452 22.2549 5.53297 22.1656 5.5703 22.067C5.61067 21.9588 5.63061 21.844 5.62913 21.7285C5.63026 21.6218 5.61347 21.5158 5.57945 21.4147C5.54816 21.3239 5.4988 21.2403 5.43435 21.169C5.5518 21.136 5.65399 21.0629 5.72325 20.9624ZM4.35198 23.3782C4.37957 23.366 4.40941 23.3597 4.43957 23.3599H5.08533C5.14445 23.3583 5.20194 23.3794 5.24611 23.4187C5.26805 23.4394 5.28526 23.4646 5.29654 23.4926C5.30782 23.5206 5.31291 23.5507 5.31148 23.5808C5.31267 23.6119 5.30683 23.6428 5.29438 23.6714C5.28193 23.6999 5.2632 23.7252 5.23958 23.7455C5.18923 23.7869 5.12564 23.8087 5.06049 23.8069H4.43957C4.4098 23.8081 4.38012 23.803 4.35244 23.792C4.32477 23.7809 4.29971 23.7642 4.27889 23.7429C4.25808 23.7216 4.24196 23.6962 4.23158 23.6682C4.2212 23.6403 4.2168 23.6105 4.21865 23.5808C4.21823 23.552 4.22402 23.5235 4.23564 23.4971C4.24634 23.4706 4.26236 23.4466 4.2827 23.4265C4.30302 23.4068 4.32642 23.3904 4.35198 23.3782ZM4.58568 21.3385C4.63117 21.3194 4.68058 21.3115 4.72977 21.3154C4.77946 21.3102 4.82967 21.3172 4.8761 21.3356C4.92253 21.354 4.96382 21.3834 4.99644 21.4213C5.05884 21.5111 5.08922 21.6193 5.08271 21.7285C5.08884 21.8364 5.05845 21.9432 4.99644 22.0317C4.96314 22.0679 4.92272 22.0967 4.87772 22.1164C4.83272 22.1361 4.78413 22.1463 4.735 22.1463C4.68587 22.1463 4.63727 22.1361 4.59227 22.1164C4.54728 22.0967 4.50685 22.0679 4.47355 22.0317C4.41154 21.9432 4.38115 21.8364 4.38728 21.7285C4.38012 21.6212 4.40862 21.5146 4.46833 21.4252C4.49995 21.3873 4.54019 21.3576 4.58568 21.3385Z" fill="blue"/>
<path d="M3.31735 21.3965H2.76571V20.8959H3.31735V21.3965Z" fill="blue"/>
<path d="M2.76571 24.2279H3.31735V21.8057H2.76571V24.2279Z" fill="blue"/>
<path fill-rule="evenodd" clip-rule="evenodd" d="M0.125 24.2278V21.063H1.15508C1.33658 21.0606 1.51683 21.0934 1.68581 21.1597C1.83772 21.2233 1.97219 21.3224 2.07797 21.4486C2.19323 21.5904 2.2786 21.754 2.32895 21.9297C2.39051 22.1473 2.42001 22.3728 2.41654 22.599C2.41998 22.8389 2.39052 23.0782 2.32895 23.3101C2.27965 23.4945 2.19435 23.6673 2.07797 23.8186C1.9739 23.9511 1.83937 24.0565 1.68581 24.1258C1.51775 24.1958 1.3371 24.2305 1.15508 24.2278H0.125ZM0.715858 21.5898V23.7036H1.09887C1.20256 23.7059 1.30541 23.6844 1.39953 23.6408C1.48896 23.599 1.56665 23.5356 1.62568 23.4565C1.6926 23.3638 1.74098 23.2591 1.76816 23.148C1.80322 23.0061 1.81991 22.8602 1.81783 22.714V22.4839C1.81984 22.3515 1.80311 22.2195 1.76816 22.0918C1.73984 21.9903 1.69138 21.8956 1.62568 21.8133C1.56438 21.7407 1.48693 21.6834 1.39953 21.646C1.30575 21.6079 1.20533 21.5888 1.1041 21.5898H0.715858Z" fill="blue"/>
<path d="M6.21919 21.3965H6.77083V20.8959H6.21919V21.3965Z" fill="blue"/>
<path d="M6.77083 24.2279H6.21919V21.8057H6.77083V24.2279Z" fill="blue"/>
<path d="M7.11901 21.0592H7.70987V23.6736H9.04845V24.2279H7.11901V21.0592Z" fill="blue"/>
<path fill-rule="evenodd" clip-rule="evenodd" d="M10.366 21.6894C10.5029 21.6795 10.6401 21.7021 10.7664 21.7555C10.8928 21.8089 11.0047 21.8916 11.0928 21.9966C11.2549 22.2019 11.3347 22.5195 11.3347 22.9574C11.3347 23.3953 11.2549 23.7143 11.0928 23.9195C10.9987 24.0171 10.8859 24.0946 10.7612 24.1476C10.6364 24.2006 10.5022 24.2279 10.3667 24.2279C10.2311 24.2279 10.097 24.2006 9.97223 24.1476C9.84747 24.0946 9.73466 24.0171 9.64054 23.9195C9.47844 23.7139 9.3974 23.3932 9.3974 22.9574C9.3974 22.5217 9.47844 22.2014 9.64054 21.9966C9.72846 21.8916 9.84009 21.8089 9.96624 21.7555C10.0924 21.7021 10.2294 21.6795 10.366 21.6894ZM10.366 22.1561C10.3031 22.1522 10.2404 22.1677 10.1864 22.2004C10.1325 22.2331 10.0898 22.2815 10.0641 22.3391C9.99601 22.5074 9.96567 22.6886 9.97518 22.8698V23.0463C9.96556 23.228 9.9959 23.4096 10.0641 23.5784C10.0929 23.6337 10.1363 23.6801 10.1897 23.7125C10.2431 23.7449 10.3043 23.762 10.3667 23.762C10.4291 23.762 10.4903 23.7449 10.5437 23.7125C10.597 23.6801 10.6405 23.6337 10.6693 23.5784C10.7375 23.4096 10.7678 23.228 10.7582 23.0463V22.8698C10.7677 22.6886 10.7374 22.5074 10.6693 22.3391C10.6435 22.2813 10.6006 22.2327 10.5464 22.2C10.4922 22.1673 10.4292 22.152 10.366 22.1561Z" fill="blue"/>
<path d="M12.5816 21.6929C12.7012 21.6911 12.8202 21.7101 12.9332 21.7491C13.0355 21.7848 13.1275 21.8449 13.2012 21.9243C13.2795 22.0107 13.3375 22.1134 13.3711 22.225C13.4143 22.3664 13.4346 22.5138 13.4313 22.6616H12.8639C12.8723 22.5313 12.8481 22.401 12.7933 22.2825C12.7733 22.244 12.7428 22.2121 12.7053 22.1903C12.6678 22.1686 12.6249 22.1579 12.5816 22.1596C12.5259 22.1582 12.4714 22.1753 12.4265 22.2082C12.3816 22.2411 12.3488 22.2879 12.3332 22.3413C12.2765 22.5127 12.2517 22.693 12.26 22.8733V23.0498C12.252 23.2304 12.2782 23.4109 12.3371 23.5818C12.3555 23.6364 12.3907 23.6836 12.4377 23.7168C12.4847 23.7499 12.5411 23.7672 12.5986 23.7662C12.6431 23.7681 12.6871 23.7567 12.7251 23.7334C12.7631 23.7101 12.7932 23.676 12.8116 23.6354C12.8624 23.5163 12.8848 23.3869 12.877 23.2577H13.4339C13.4368 23.4058 13.4169 23.5535 13.3751 23.6956C13.3418 23.8072 13.2847 23.9102 13.2077 23.9975C13.136 24.0759 13.0463 24.1355 12.9463 24.1714C12.8364 24.2102 12.7204 24.2293 12.6038 24.2276C12.4633 24.231 12.3237 24.2056 12.1933 24.1531C12.0781 24.1031 11.9787 24.0226 11.9058 23.9204C11.8239 23.8024 11.767 23.669 11.7384 23.5282C11.6997 23.3417 11.6817 23.1514 11.6848 22.9609C11.6848 22.5252 11.7593 22.2049 11.9084 22.0001C11.9866 21.8975 12.089 21.8157 12.2065 21.7621C12.3239 21.7086 12.4527 21.6848 12.5816 21.6929Z" fill="blue"/>
<path d="M14.335 22.7677L15.0134 21.803H15.6056L14.884 22.79L15.6409 24.2279H15.0291L14.5376 23.224L14.335 23.471V24.2279H13.7833V20.8932H14.335V22.7677Z" fill="blue"/>
<path fill-rule="evenodd" clip-rule="evenodd" d="M16.9272 21.6875C17.0532 21.6797 17.1791 21.7038 17.2933 21.7575C17.4075 21.8112 17.5064 21.8928 17.5808 21.9947C17.7272 22.1999 17.7991 22.5176 17.7991 22.9555V23.0954H16.5677C16.5681 23.1921 16.5759 23.2887 16.5912 23.3843C16.6022 23.4582 16.6242 23.53 16.6566 23.5974C16.6818 23.6505 16.7211 23.6958 16.7703 23.7281C16.8217 23.7598 16.8812 23.7757 16.9416 23.7738C16.9865 23.7747 17.031 23.764 17.0706 23.7427C17.1102 23.7214 17.1437 23.6903 17.1677 23.6523C17.2297 23.5502 17.2594 23.4317 17.2527 23.3124H17.7991C17.8022 23.4506 17.7805 23.5883 17.735 23.7189C17.6971 23.826 17.636 23.9233 17.556 24.0039C17.4788 24.0791 17.386 24.1363 17.2841 24.1712C17.1737 24.2085 17.058 24.227 16.9416 24.2261C16.8074 24.2349 16.6731 24.2115 16.5499 24.1578C16.4266 24.1042 16.318 24.0218 16.2331 23.9176C16.071 23.712 15.9899 23.3912 15.9899 22.9555C15.9899 22.5198 16.0705 22.1995 16.2317 21.9947C16.3146 21.8916 16.421 21.8098 16.542 21.7564C16.6631 21.7029 16.7951 21.6793 16.9272 21.6875ZM16.9272 22.1398C16.8742 22.1358 16.8212 22.1474 16.7747 22.1732C16.7283 22.199 16.6904 22.2378 16.6657 22.2849C16.6054 22.4129 16.5738 22.5526 16.5729 22.6941H17.2174C17.2246 22.554 17.2 22.4141 17.1455 22.2849C17.1277 22.2417 17.0975 22.2048 17.0586 22.1789C17.0197 22.1531 16.9739 22.1394 16.9272 22.1398Z" fill="blue"/>
<path d="M19.1214 21.7455C19.1529 21.7455 19.1843 21.7477 19.2155 21.752L19.29 21.7664C19.3103 21.771 19.3304 21.7767 19.3502 21.7834V22.318H19.1528C19.0943 22.318 19.0361 22.3268 18.9802 22.3442C18.9256 22.3626 18.8763 22.394 18.8364 22.4357C18.7913 22.4849 18.7575 22.5434 18.7371 22.6069C18.7097 22.694 18.6969 22.785 18.6992 22.8762V24.2279H18.1475V21.8017H18.6077L18.673 22.1559H18.6992C18.7161 22.1048 18.7357 22.0546 18.758 22.0056C18.7796 21.958 18.8083 21.914 18.843 21.8749C18.8764 21.8372 18.9162 21.8058 18.9606 21.7821C19.0103 21.7566 19.0656 21.744 19.1214 21.7455Z" fill="blue"/>
</svg>
