<svg width="15" height="16" viewBox="0 0 15 16" fill="none" xmlns="http://www.w3.org/2000/svg">
<path fill-rule="evenodd" clip-rule="evenodd" d="M10.6661 3.43133C10.8209 3.27646 11.031 3.18945 11.25 3.18945C11.3585 3.18945 11.4659 3.21081 11.5661 3.25232C11.6662 3.29382 11.7573 3.35465 11.834 3.43133C11.9107 3.50802 11.9715 3.59906 12.013 3.69925C12.0545 3.79944 12.0758 3.90683 12.0758 4.01528C12.0758 4.12373 12.0545 4.23111 12.013 4.33131C11.9715 4.4315 11.9107 4.52254 11.834 4.59923L4.1194 12.3138L2.56221 12.7031L2.9515 11.1459L10.6661 3.43133ZM11.25 2.18945C10.7658 2.18945 10.3014 2.38182 9.95897 2.72422L2.14647 10.5367C2.08239 10.6008 2.03693 10.6811 2.01495 10.769L1.38995 13.269C1.34735 13.4394 1.39728 13.6196 1.52147 13.7438C1.64566 13.868 1.8259 13.9179 1.99629 13.8753L4.49629 13.2503C4.58421 13.2284 4.6645 13.1829 4.72857 13.1188L12.5411 5.30633C12.7106 5.13679 12.8451 4.93551 12.9369 4.71399C13.0286 4.49247 13.0758 4.25505 13.0758 4.01528C13.0758 3.77551 13.0286 3.53808 12.9369 3.31657C12.8451 3.09505 12.7106 2.89377 12.5411 2.72422C12.3715 2.55468 12.1703 2.42019 11.9487 2.32844C11.7272 2.23668 11.4898 2.18945 11.25 2.18945ZM7.50002 12.8903C7.22388 12.8903 7.00002 13.1141 7.00002 13.3903C7.00002 13.6664 7.22388 13.8903 7.50002 13.8903H13.125C13.4012 13.8903 13.625 13.6664 13.625 13.3903C13.625 13.1141 13.4012 12.8903 13.125 12.8903H7.50002Z" fill="#ffffff"/>
</svg>
