<svg width="22" height="22" viewBox="0 0 22 22" fill="none" xmlns="http://www.w3.org/2000/svg">
<path d="M9.89646 0.920044C14.8453 0.920044 18.8718 4.94655 18.8718 9.89541C18.8718 14.8443 14.8453 18.8708 9.89646 18.8708C4.94761 18.8708 0.921097 14.8443 0.921097 9.89541C0.921097 4.94655 4.94761 0.920044 9.89646 0.920044ZM9.89646 16.1091C13.323 16.1091 16.1102 13.3218 16.1102 9.89541C16.1102 6.46906 13.323 3.68169 9.89646 3.68169C6.47011 3.68169 3.68275 6.46906 3.68275 9.89541C3.68275 13.3218 6.47011 16.1091 9.89646 16.1091Z" fill="white"/>
<path d="M15.6014 18.53C16.7628 17.7597 17.76 16.7626 18.5302 15.6011L21.3203 18.3911L18.3914 21.32L15.6014 18.53Z" fill="white"/>
</svg>
