<svg width="16" height="11" viewBox="0 0 16 11" fill="none" xmlns="http://www.w3.org/2000/svg">
<path d="M4.44464 5.31445C4.44464 3.73633 6.03638 2.45731 8.00035 2.45731C9.96432 2.45731 11.5561 3.73633 11.5561 5.31445C11.5561 6.89258 9.96432 8.1716 8.00035 8.1716C6.03638 8.1716 4.44464 6.89258 4.44464 5.31445ZM8.00035 7.10017C9.22818 7.10017 10.2227 6.30106 10.2227 5.31445C10.2227 4.32785 9.22818 3.52874 8.00035 3.52874C7.9809 3.52874 7.96424 3.52874 7.91979 3.52874C7.9809 3.64258 8.00035 3.76311 8.00035 3.88588C8.00035 4.67383 7.20309 5.31445 6.22249 5.31445C6.06971 5.31445 5.9197 5.29883 5.77803 5.24972C5.77803 5.28544 5.77803 5.29883 5.77803 5.29436C5.77803 6.30106 6.77252 7.10017 8.00035 7.10017ZM2.65067 2.11356C3.95851 1.13677 5.75581 0.314453 8.00035 0.314453C10.2449 0.314453 12.0422 1.13677 13.3506 2.11356C14.6506 3.08231 15.5201 4.22294 15.9312 5.0399C16.0229 5.21624 16.0229 5.41267 15.9312 5.58901C15.5201 6.38588 14.6506 7.52651 13.3506 8.51535C12.0422 9.49302 10.2449 10.3145 8.00035 10.3145C5.75581 10.3145 3.95851 9.49302 2.65067 8.51535C1.35062 7.52651 0.481691 6.38588 0.0683675 5.58901C-0.0227892 5.41267 -0.0227892 5.21624 0.0683675 5.0399C0.481691 4.22294 1.35062 3.08231 2.65067 2.11356ZM8.00035 1.38588C6.18916 1.38588 4.70021 2.0466 3.55849 2.89704C2.489 3.69615 1.75063 4.62472 1.3734 5.31445C1.75063 5.9841 2.489 6.93276 3.55849 7.73186C4.70021 8.58231 6.18916 9.24302 8.00035 9.24302C9.81154 9.24302 11.3005 8.58231 12.4422 7.73186C13.5117 6.93276 14.2256 5.9841 14.6284 5.31445C14.2256 4.62472 13.5117 3.69615 12.4422 2.89704C11.3005 2.0466 9.81154 1.38588 8.00035 1.38588Z" fill="#717171"/>
</svg>
