<svg width="100" height="107" viewBox="0 0 100 107" fill="none" xmlns="http://www.w3.org/2000/svg">
<path d="M18.6885 53C18.1871 53 18 53.247 18 53.5911V91.4141C18 91.758 18.1874 92 18.6885 92H82.3115C82.8126 92 83 91.7583 83 91.4141V86.317H58.5936L52.9416 80.6882V71.9306V66.9689L58.5936 61.3398H83V53.5911C83 53.247 82.8128 53 82.3115 53H18.6885ZM61.94 69.669L61.1394 70.4661V71.9306V77.1906L61.94 77.9878H83V69.669H61.94Z" fill="#BD7809"/>
<path d="M31.6441 15.0015C31.5226 15.002 31.4017 15.0192 31.2848 15.0529L11.6994 20.3858C9.77267 20.9104 8.60607 22.9615 9.12235 24.9196L15.4686 48.9959C15.5141 49.1679 15.5924 49.3289 15.6992 49.4701C15.806 49.6113 15.939 49.73 16.0908 49.8189C16.2427 49.9078 16.4102 49.9654 16.5839 49.9885C16.7577 50.0117 16.9342 49.9997 17.1034 49.9535C17.2726 49.9073 17.4312 49.8276 17.5701 49.719C17.709 49.6106 17.8256 49.4756 17.9131 49.3213C18.0006 49.1671 18.0573 48.9965 18.0801 48.8201C18.1028 48.6435 18.0911 48.4643 18.0456 48.2923L11.6994 24.2213C11.5533 23.6673 11.8409 23.153 12.3866 23.0045L31.9773 17.6717C32.2966 17.594 32.5766 17.3993 32.7634 17.1248C32.9502 16.8502 33.0307 16.5152 32.9894 16.1841C32.9481 15.853 32.7879 15.549 32.5396 15.3305C32.2914 15.112 31.9725 14.9944 31.6441 15.0002V15.0015Z" fill="#BD7809"/>
<path d="M29.8519 27.0853C28.5192 27.4426 27.7283 28.8182 28.086 30.1538C28.4438 31.4894 29.8124 32.2708 31.1451 31.9135C32.4771 31.5565 33.2721 30.1953 32.9142 28.8595C32.5566 27.5242 31.1839 26.7284 29.8519 27.0853Z" fill="#BD7809"/>
<path d="M32.1063 20.7172C31.9819 20.7189 31.8583 20.7372 31.7389 20.7714L19.0175 24.1083C18.6639 24.2013 18.3624 24.428 18.1791 24.7383C17.9958 25.0486 17.9457 25.4172 18.0397 25.7636C18.2565 26.556 17.8042 27.3201 17.0241 27.5248C16.6705 27.6178 16.3691 27.8445 16.1858 28.1549C16.0025 28.4651 15.9524 28.8337 16.0464 29.1802L21.4105 48.7698C21.4513 48.9479 21.5286 49.1164 21.6376 49.2646C21.7466 49.4128 21.8851 49.5378 22.0447 49.6322C22.2044 49.7267 22.3819 49.7885 22.5666 49.814C22.7514 49.8396 22.9394 49.8284 23.1195 49.781C23.2996 49.7335 23.4681 49.6505 23.6147 49.5377C23.7613 49.4248 23.8831 49.284 23.9728 49.1238C24.0625 48.9637 24.118 48.7876 24.1363 48.6059C24.1545 48.4241 24.135 48.2406 24.079 48.0664L18.9256 29.2384C19.8717 28.5494 20.3912 27.6658 20.5192 26.515L32.4574 23.3837C32.7842 23.3016 33.0692 23.1055 33.2584 22.832C33.4478 22.5585 33.5285 22.2265 33.4853 21.8988C33.4422 21.5713 33.2781 21.2705 33.0241 21.053C32.7701 20.8355 32.4437 20.7155 32.1063 20.7172ZM68.4665 15C68.1291 15.0035 67.8046 15.1276 67.5542 15.3491C67.3037 15.5705 67.1446 15.8737 67.1067 16.202C67.0689 16.5303 67.1549 16.8609 67.3486 17.1314C67.5424 17.4019 67.8305 17.5938 68.1586 17.6708L88.486 23.0019C89.0523 23.1508 89.3506 23.6645 89.1991 24.2183L82.6088 48.2929C82.5616 48.4647 82.5494 48.6439 82.5731 48.8203C82.5967 48.9968 82.6555 49.1672 82.7463 49.3215C82.8371 49.4757 82.9581 49.6107 83.1022 49.7191C83.2464 49.8276 83.4109 49.9073 83.5865 49.9535C83.7621 49.9997 83.9452 50.0117 84.1255 49.9885C84.3057 49.9654 84.4796 49.9079 84.6371 49.8189C84.7946 49.73 84.9327 49.6117 85.0435 49.4705C85.1543 49.3294 85.2355 49.1681 85.2828 48.9962L91.873 24.9164C92.4088 22.9589 91.1983 20.9085 89.1991 20.384L68.8771 15.0527C68.7437 15.0155 68.6053 14.9982 68.4665 15.0013V15Z" fill="#BD7809"/>
<path d="M71.1482 27.0853C72.4808 27.4426 73.2717 28.8182 72.914 30.1538C72.5562 31.4894 71.1876 32.2708 69.855 31.9135C68.5229 31.5565 67.728 30.1953 68.0857 28.8595C68.4435 27.5242 69.8161 26.7284 71.1482 27.0853Z" fill="#BD7809"/>
<path d="M69.3103 20.0015C68.986 20.0098 68.6754 20.139 68.4361 20.3653C68.1968 20.5914 68.045 20.8995 68.0085 21.2324C67.972 21.5652 68.0535 21.9004 68.2378 22.176C68.422 22.4517 68.6968 22.6491 69.0112 22.7321L80.6095 25.9393C80.7338 27.1182 81.2385 28.0237 82.1577 28.7293L77.088 48.2545C77.0426 48.4306 77.031 48.6143 77.0543 48.795C77.0775 48.9756 77.1351 49.1499 77.2235 49.3076C77.3119 49.4653 77.4296 49.6034 77.5698 49.7143C77.71 49.825 77.87 49.9064 78.0406 49.9533C78.2112 50.0003 78.389 50.0119 78.564 49.9878C78.7391 49.9638 78.9077 49.9044 79.0605 49.8131C79.2133 49.7218 79.3472 49.6003 79.4544 49.4555C79.5617 49.3108 79.6404 49.1457 79.6858 48.9696L84.955 28.6697C85.0463 28.3149 84.9975 27.937 84.8195 27.6191C84.6415 27.3013 84.3485 27.0693 84.0051 26.9741C83.2472 26.7633 82.8077 25.9816 83.0184 25.17C83.1097 24.8152 83.061 24.4371 82.883 24.1193C82.7049 23.8014 82.412 23.5696 82.0685 23.4742L69.7092 20.0557C69.5797 20.0167 69.4452 19.9979 69.3103 20.0002V20.0015Z" fill="#BD7809"/>
<path d="M18.1544 48C14.7835 48 12 50.6835 12 54.0036V90.9963C12 94.3165 14.7835 97 18.1544 97H81.8456C85.2165 97 88 94.3165 88 90.9963V54.0036C88 50.6835 85.2165 48 81.8456 48H18.1544ZM18.1544 50.7154H81.8456C83.782 50.7154 85.2646 52.1747 85.2646 54.0036V90.9963C85.2646 92.8252 83.782 94.2846 81.8456 94.2846H18.1544C16.218 94.2846 14.7353 92.8252 14.7353 90.9963V54.0036C14.7353 52.1747 16.218 50.7154 18.1544 50.7154Z" fill="#BD7809"/>
<path fill-rule="evenodd" clip-rule="evenodd" d="M59.0605 64L55 68.1362V72.0436V79.8638L59.0605 84H88V64H86.625H59.0605ZM60.1884 66.8579H85.25V81.1421H60.1884L57.75 78.6637V72.0436V69.3363L60.1884 66.8579Z" fill="#BD7809"/>
<path d="M65.6303 70.1028C63.4465 70.1028 61.6416 71.8905 61.6416 74.054C61.6416 76.2174 63.4465 78 65.6303 78C67.8141 78 69.6135 76.2174 69.6135 74.054C69.6135 71.8905 67.8141 70.1028 65.6303 70.1028ZM65.6303 72.8628C66.308 72.8628 66.8275 73.3818 66.8275 74.054C66.8275 74.7261 66.308 75.24 65.6303 75.24C64.9527 75.24 64.4277 74.7261 64.4277 74.054C64.4277 73.3818 64.9527 72.8628 65.6303 72.8628ZM34.8038 9C32.7187 9 31.0001 10.7026 31.0001 12.7682V48.2384C30.9975 48.4213 31.0317 48.6027 31.1005 48.7724C31.1692 48.9421 31.2714 49.0967 31.4011 49.2269C31.5307 49.3572 31.6852 49.4606 31.8554 49.5311C32.0258 49.6017 32.2086 49.638 32.3932 49.638C32.5778 49.638 32.7605 49.6017 32.9309 49.5311C33.1012 49.4606 33.2557 49.3572 33.3853 49.2269C33.5149 49.0967 33.6171 48.9421 33.6859 48.7724C33.7547 48.6027 33.7888 48.4213 33.7862 48.2384V12.7682C33.7862 12.1842 34.2135 11.76 34.8038 11.76H66.1962C66.7865 11.76 67.2138 12.1842 67.2138 12.7682V48.2384C67.2112 48.4213 67.2453 48.6027 67.3141 48.7724C67.3829 48.9421 67.4851 49.0967 67.6147 49.2269C67.7443 49.3572 67.8988 49.4606 68.0691 49.5311C68.2395 49.6017 68.4222 49.638 68.6069 49.638C68.7914 49.638 68.9742 49.6017 69.1446 49.5311C69.3148 49.4606 69.4693 49.3572 69.5989 49.2269C69.7285 49.0967 69.8308 48.9421 69.8995 48.7724C69.9683 48.6027 70.0025 48.4213 69.9999 48.2384V12.7682C69.9999 10.7026 68.2813 9 66.1962 9H34.8038Z" fill="#BD7809"/>
<path d="M50.4997 20C51.8798 20 53 21.3492 53 23.0089C53 24.6688 51.8798 26 50.4997 26C49.1204 26 48 24.6688 48 23.0089C48 21.3492 49.1204 20 50.4997 20Z" fill="#BD7809"/>
<path d="M41.1089 15C40.7508 15 40.4074 15.1433 40.1542 15.3983C39.901 15.6532 39.7586 15.9989 39.7586 16.3595C39.7586 17.1831 39.1388 17.8092 38.3503 17.8092C37.9923 17.8093 37.6489 17.9526 37.3957 18.2075C37.1425 18.4625 37.0001 18.8082 37.0001 19.1687V48.6209C36.9976 48.8011 37.0307 48.9802 37.0974 49.1474C37.164 49.3145 37.2631 49.4665 37.3887 49.5947C37.5144 49.723 37.6641 49.8249 37.8292 49.8944C37.9943 49.964 38.1714 50 38.3503 50C38.5293 50 38.7065 49.964 38.8716 49.8944C39.0366 49.8249 39.1864 49.723 39.312 49.5947C39.4376 49.4665 39.5367 49.3145 39.6034 49.1474C39.6701 48.9802 39.7032 48.8011 39.7006 48.6209V19.9549C40.7681 19.5271 41.4826 18.8003 41.9001 17.719H59.0999C59.5175 18.8003 60.2318 19.5271 61.2994 19.9549V48.6209C61.2968 48.8011 61.3299 48.9802 61.3966 49.1474C61.4633 49.3145 61.5624 49.4665 61.688 49.5947C61.8136 49.723 61.9634 49.8249 62.1284 49.8944C62.2935 49.964 62.4707 50 62.6497 50C62.8285 50 63.0057 49.964 63.1708 49.8944C63.3359 49.8249 63.4856 49.723 63.6113 49.5947C63.7369 49.4665 63.8359 49.3145 63.9026 49.1474C63.9693 48.9802 64.0024 48.8011 63.9999 48.6209V19.1687C63.9999 18.8082 63.8575 18.4625 63.6043 18.2075C63.3511 17.9526 63.0077 17.8093 62.6497 17.8092C61.8612 17.8092 61.2413 17.1831 61.2413 16.3595C61.2413 15.9989 61.099 15.6532 60.8458 15.3983C60.5926 15.1433 60.2492 15 59.8911 15H41.1089Z" fill="#BD7809"/>
<path d="M42 34.5157C42 35.0687 42.4372 35.509 42.9591 35.5006H43.7851C44.1745 37.4627 45.674 38.9999 47.5586 38.9999C49.7549 38.9999 51.4395 36.9161 51.4395 34.4996C51.4395 33.0384 52.3755 32.0022 53.4309 32.0022C54.4865 32.0022 55.4193 33.0384 55.4193 34.4996C55.4193 35.961 54.4862 36.998 53.4309 36.998C52.1538 36.9589 52.1538 39.019 53.4309 38.9999C55.2894 38.9999 56.6134 37.432 57.009 35.5006H58.0419C59.3194 35.5428 59.3194 33.4796 58.0419 33.4992H57.0057C56.6081 31.5694 55.2913 30 53.4348 30C51.4431 30 49.5576 31.4974 49.5576 34.3592C49.5576 34.4012 49.5576 34.4282 49.5576 34.4644V34.5032C49.5576 35.9644 48.6212 37.0016 47.5662 37.0016C46.5244 37.0016 45.6099 35.9881 45.5851 34.5578C45.5851 34.5188 45.5851 34.4828 45.5851 34.4467C45.6247 33.0186 46.5221 32.007 47.5623 32.007C48.8394 32.0491 48.8394 29.9863 47.5623 30.0055C45.6776 30.0055 44.1778 31.5423 43.7887 33.5043H42.9624C42.4293 33.5043 41.9947 33.9561 42.0036 34.5212L42 34.5157Z" fill="#BD7809"/>
</svg>
